solid Bridge proto 1
facet normal 1.0 0.0 0.0
  outer loop
    vertex 360.0567087720213 120.75360482943587 0.0
    vertex 360.0567087720213 91.75360482943593 0.9999999999999999
    vertex 360.0567087720213 91.75360482943593 0.0
  endloop
endfacet
facet normal 1.0 0.0 0.0
  outer loop
    vertex 360.0567087720213 91.75360482943593 0.9999999999999999
    vertex 360.0567087720213 120.75360482943587 0.0
    vertex 360.0567087720213 120.75360482943587 0.9999999999999999
  endloop
endfacet
facet normal 0.0 -1.0 0.0
  outer loop
    vertex 360.0567087720213 91.75360482943593 0.9999999999999999
    vertex 347.7567087720213 91.75360482943593 0.0
    vertex 360.0567087720213 91.75360482943593 0.0
  endloop
endfacet
facet normal 0.0 -1.0 0.0
  outer loop
    vertex 347.7567087720213 91.75360482943593 0.0
    vertex 360.0567087720213 91.75360482943593 0.9999999999999999
    vertex 347.7567087720213 91.75360482943593 0.9999999999999999
  endloop
endfacet
facet normal 0.0 -1.0 0.0
  outer loop
    vertex 347.7567087720213 91.75360482943593 0.9999999999999999
    vertex 360.0567087720213 91.75360482943593 0.9999999999999999
    vertex 356.8567087720213 91.75360482943593 1.0000000000000018
  endloop
endfacet
facet normal 0.0 -1.0 0.0
  outer loop
    vertex 347.7567087720213 91.75360482943593 0.9999999999999999
    vertex 356.8567087720213 91.75360482943593 1.0000000000000018
    vertex 350.9567087720213 91.75360482943593 1.0000000000000047
  endloop
endfacet
facet normal 0.0 -1.0 0.0
  outer loop
    vertex 350.9567087720213 91.75360482943593 1.0000000000000047
    vertex 356.8567087720213 91.75360482943593 1.0000000000000018
    vertex 356.8567087720213 91.75360482943593 1.9999999999999998
  endloop
endfacet
facet normal 0.0 -1.0 0.0
  outer loop
    vertex 350.9567087720213 91.75360482943593 1.0000000000000047
    vertex 356.8567087720213 91.75360482943593 1.9999999999999998
    vertex 350.9567087720213 91.75360482943593 1.9999999999999998
  endloop
endfacet
facet normal -0.0 -1.0 -0.0
  outer loop
    vertex 354.2067087720213 110.75360482943589 1.9999999999999998
    vertex 353.60670877202125 110.75360482943589 0.0
    vertex 354.2067087720213 110.75360482943589 0.0
  endloop
endfacet
facet normal -0.0 -1.0 -0.0
  outer loop
    vertex 353.60670877202125 110.75360482943589 0.0
    vertex 354.2067087720213 110.75360482943589 1.9999999999999998
    vertex 353.60670877202125 110.75360482943589 1.9999999999999998
  endloop
endfacet
facet normal 0.9889363528682961 -0.14834045293025555 0.0
  outer loop
    vertex 357.1567087720213 101.76852139051299 1.0000000000000018
    vertex 356.8567087720213 99.768521390513 1.9999999999999998
    vertex 356.8567087720213 99.768521390513 1.0000000000000018
  endloop
endfacet
facet normal 0.9889363528682961 -0.14834045293025555 0.0
  outer loop
    vertex 356.8567087720213 99.768521390513 1.9999999999999998
    vertex 357.1567087720213 101.76852139051299 1.0000000000000018
    vertex 357.1567087720213 101.76852139051299 1.9999999999999998
  endloop
endfacet
facet normal 1.0 0.0 0.0
  outer loop
    vertex 357.1567087720213 120.75360482943587 1.0000000000000018
    vertex 357.1567087720213 101.76852139051299 1.9999999999999998
    vertex 357.1567087720213 101.76852139051299 1.0000000000000018
  endloop
endfacet
facet normal 1.0 0.0 0.0
  outer loop
    vertex 357.1567087720213 101.76852139051299 1.9999999999999998
    vertex 357.1567087720213 120.75360482943587 1.0000000000000018
    vertex 357.1567087720213 120.75360482943587 1.9999999999999998
  endloop
endfacet
facet normal 0.0 1.0 0.0
  outer loop
    vertex 353.60670877202125 101.7536048294359 1.9999999999999998
    vertex 354.2067087720213 101.7536048294359 0.0
    vertex 353.60670877202125 101.7536048294359 0.0
  endloop
endfacet
facet normal 0.0 1.0 0.0
  outer loop
    vertex 354.2067087720213 101.7536048294359 0.0
    vertex 353.60670877202125 101.7536048294359 1.9999999999999998
    vertex 354.2067087720213 101.7536048294359 1.9999999999999998
  endloop
endfacet
facet normal 0.0 1.0 0.0
  outer loop
    vertex 347.7567087720213 120.75360482943587 0.9999999999999999
    vertex 360.0567087720213 120.75360482943587 0.0
    vertex 347.7567087720213 120.75360482943587 0.0
  endloop
endfacet
facet normal 0.0 1.0 0.0
  outer loop
    vertex 360.0567087720213 120.75360482943587 0.0
    vertex 347.7567087720213 120.75360482943587 0.9999999999999999
    vertex 360.0567087720213 120.75360482943587 0.9999999999999999
  endloop
endfacet
facet normal 0.0 1.0 0.0
  outer loop
    vertex 360.0567087720213 120.75360482943587 0.9999999999999999
    vertex 347.7567087720213 120.75360482943587 0.9999999999999999
    vertex 350.65670877202126 120.75360482943587 1.0000000000000047
  endloop
endfacet
facet normal 0.0 1.0 0.0
  outer loop
    vertex 360.0567087720213 120.75360482943587 0.9999999999999999
    vertex 350.65670877202126 120.75360482943587 1.0000000000000047
    vertex 357.1567087720213 120.75360482943587 1.0000000000000018
  endloop
endfacet
facet normal 0.0 1.0 0.0
  outer loop
    vertex 357.1567087720213 120.75360482943587 1.0000000000000018
    vertex 350.65670877202126 120.75360482943587 1.0000000000000047
    vertex 357.1567087720213 120.75360482943587 1.9999999999999998
  endloop
endfacet
facet normal 0.0 1.0 0.0
  outer loop
    vertex 357.1567087720213 120.75360482943587 1.9999999999999998
    vertex 350.65670877202126 120.75360482943587 1.0000000000000047
    vertex 350.65670877202126 120.75360482943587 1.9999999999999998
  endloop
endfacet
facet normal -1.0 0.0 0.0
  outer loop
    vertex 354.2067087720213 110.75360482943589 1.9999999999999998
    vertex 354.2067087720213 101.7536048294359 0.0
    vertex 354.2067087720213 101.7536048294359 1.9999999999999998
  endloop
endfacet
facet normal -1.0 0.0 0.0
  outer loop
    vertex 354.2067087720213 101.7536048294359 0.0
    vertex 354.2067087720213 110.75360482943589 1.9999999999999998
    vertex 354.2067087720213 110.75360482943589 0.0
  endloop
endfacet
facet normal 2.452746533345229e-16 3.0018617236709333e-18 1.0
  outer loop
    vertex 360.0567087720213 91.75360482943593 0.9999999999999999
    vertex 356.8567087720213 99.768521390513 1.0000000000000018
    vertex 356.8567087720213 91.75360482943593 1.0000000000000018
  endloop
endfacet
facet normal 2.452746533345229e-16 3.0018617236709333e-18 1.0
  outer loop
    vertex 356.8567087720213 99.768521390513 1.0000000000000018
    vertex 360.0567087720213 91.75360482943593 0.9999999999999999
    vertex 357.1567087720213 101.76852139051299 1.0000000000000018
  endloop
endfacet
facet normal 2.452746533345229e-16 3.0018617236709333e-18 1.0
  outer loop
    vertex 357.1567087720213 101.76852139051299 1.0000000000000018
    vertex 360.0567087720213 91.75360482943593 0.9999999999999999
    vertex 357.1567087720213 120.75360482943587 1.0000000000000018
  endloop
endfacet
facet normal 2.452746533345229e-16 3.0018617236709333e-18 1.0
  outer loop
    vertex 357.1567087720213 120.75360482943587 1.0000000000000018
    vertex 360.0567087720213 91.75360482943593 0.9999999999999999
    vertex 360.0567087720213 120.75360482943587 0.9999999999999999
  endloop
endfacet
facet normal -1.0 0.0 0.0
  outer loop
    vertex 347.7567087720213 120.75360482943587 0.9999999999999999
    vertex 347.7567087720213 91.75360482943593 0.0
    vertex 347.7567087720213 91.75360482943593 0.9999999999999999
  endloop
endfacet
facet normal -1.0 0.0 0.0
  outer loop
    vertex 347.7567087720213 91.75360482943593 0.0
    vertex 347.7567087720213 120.75360482943587 0.9999999999999999
    vertex 347.7567087720213 120.75360482943587 0.0
  endloop
endfacet
facet normal 0.0 0.0 -1.0
  outer loop
    vertex 347.7567087720213 120.75360482943587 0.0
    vertex 353.60670877202125 110.75360482943589 0.0
    vertex 347.7567087720213 91.75360482943593 0.0
  endloop
endfacet
facet normal 0.0 0.0 -1.0
  outer loop
    vertex 353.60670877202125 110.75360482943589 0.0
    vertex 347.7567087720213 120.75360482943587 0.0
    vertex 360.0567087720213 120.75360482943587 0.0
  endloop
endfacet
facet normal 0.0 0.0 -1.0
  outer loop
    vertex 353.60670877202125 110.75360482943589 0.0
    vertex 360.0567087720213 120.75360482943587 0.0
    vertex 354.2067087720213 110.75360482943589 0.0
  endloop
endfacet
facet normal 0.0 0.0 -1.0
  outer loop
    vertex 354.2067087720213 110.75360482943589 0.0
    vertex 360.0567087720213 120.75360482943587 0.0
    vertex 354.2067087720213 101.7536048294359 0.0
  endloop
endfacet
facet normal 0.0 0.0 -1.0
  outer loop
    vertex 347.7567087720213 91.75360482943593 0.0
    vertex 353.60670877202125 101.7536048294359 0.0
    vertex 360.0567087720213 91.75360482943593 0.0
  endloop
endfacet
facet normal 0.0 0.0 -1.0
  outer loop
    vertex 353.60670877202125 101.7536048294359 0.0
    vertex 347.7567087720213 91.75360482943593 0.0
    vertex 353.60670877202125 110.75360482943589 0.0
  endloop
endfacet
facet normal 0.0 0.0 -1.0
  outer loop
    vertex 360.0567087720213 91.75360482943593 0.0
    vertex 353.60670877202125 101.7536048294359 0.0
    vertex 354.2067087720213 101.7536048294359 0.0
  endloop
endfacet
facet normal 0.0 0.0 -1.0
  outer loop
    vertex 360.0567087720213 91.75360482943593 0.0
    vertex 354.2067087720213 101.7536048294359 0.0
    vertex 360.0567087720213 120.75360482943587 0.0
  endloop
endfacet
facet normal -1.0 -0.0 -0.0
  outer loop
    vertex 350.9567087720213 99.768521390513 1.9999999999999998
    vertex 350.9567087720213 91.75360482943593 1.0000000000000047
    vertex 350.9567087720213 91.75360482943593 1.9999999999999998
  endloop
endfacet
facet normal -1.0 -0.0 -0.0
  outer loop
    vertex 350.9567087720213 91.75360482943593 1.0000000000000047
    vertex 350.9567087720213 99.768521390513 1.9999999999999998
    vertex 350.9567087720213 99.768521390513 1.0000000000000047
  endloop
endfacet
facet normal -1.0 -0.0 -0.0
  outer loop
    vertex 350.65670877202126 120.75360482943587 1.9999999999999998
    vertex 350.65670877202126 101.76852139051299 1.0000000000000047
    vertex 350.65670877202126 101.76852139051299 1.9999999999999998
  endloop
endfacet
facet normal -1.0 -0.0 -0.0
  outer loop
    vertex 350.65670877202126 101.76852139051299 1.0000000000000047
    vertex 350.65670877202126 120.75360482943587 1.9999999999999998
    vertex 350.65670877202126 120.75360482943587 1.0000000000000047
  endloop
endfacet
facet normal -0.9889363528682961 -0.14834045293025555 -0.0
  outer loop
    vertex 350.65670877202126 101.76852139051299 1.9999999999999998
    vertex 350.9567087720213 99.768521390513 1.0000000000000047
    vertex 350.9567087720213 99.768521390513 1.9999999999999998
  endloop
endfacet
facet normal -0.9889363528682961 -0.14834045293025555 -0.0
  outer loop
    vertex 350.9567087720213 99.768521390513 1.0000000000000047
    vertex 350.65670877202126 101.76852139051299 1.9999999999999998
    vertex 350.65670877202126 101.76852139051299 1.0000000000000047
  endloop
endfacet
facet normal -6.622415640032114e-16 8.105026653911523e-18 1.0
  outer loop
    vertex 350.9567087720213 91.75360482943593 1.0000000000000047
    vertex 347.7567087720213 120.75360482943587 0.9999999999999999
    vertex 347.7567087720213 91.75360482943593 0.9999999999999999
  endloop
endfacet
facet normal -6.622415640032114e-16 8.105026653911523e-18 1.0
  outer loop
    vertex 347.7567087720213 120.75360482943587 0.9999999999999999
    vertex 350.9567087720213 91.75360482943593 1.0000000000000047
    vertex 350.65670877202126 101.76852139051299 1.0000000000000047
  endloop
endfacet
facet normal -6.622415640032114e-16 8.105026653911523e-18 1.0
  outer loop
    vertex 350.65670877202126 101.76852139051299 1.0000000000000047
    vertex 350.9567087720213 91.75360482943593 1.0000000000000047
    vertex 350.9567087720213 99.768521390513 1.0000000000000047
  endloop
endfacet
facet normal -6.622415640032114e-16 8.105026653911523e-18 1.0
  outer loop
    vertex 350.65670877202126 120.75360482943587 1.0000000000000047
    vertex 347.7567087720213 120.75360482943587 0.9999999999999999
    vertex 350.65670877202126 101.76852139051299 1.0000000000000047
  endloop
endfacet
facet normal 1.0 0.0 0.0
  outer loop
    vertex 353.60670877202125 110.75360482943589 0.0
    vertex 353.60670877202125 101.7536048294359 1.9999999999999998
    vertex 353.60670877202125 101.7536048294359 0.0
  endloop
endfacet
facet normal 1.0 0.0 0.0
  outer loop
    vertex 353.60670877202125 101.7536048294359 1.9999999999999998
    vertex 353.60670877202125 110.75360482943589 0.0
    vertex 353.60670877202125 110.75360482943589 1.9999999999999998
  endloop
endfacet
facet normal 1.0 0.0 0.0
  outer loop
    vertex 356.8567087720213 99.768521390513 1.0000000000000018
    vertex 356.8567087720213 91.75360482943593 1.9999999999999998
    vertex 356.8567087720213 91.75360482943593 1.0000000000000018
  endloop
endfacet
facet normal 1.0 0.0 0.0
  outer loop
    vertex 356.8567087720213 91.75360482943593 1.9999999999999998
    vertex 356.8567087720213 99.768521390513 1.0000000000000018
    vertex 356.8567087720213 99.768521390513 1.9999999999999998
  endloop
endfacet
facet normal 0.0 0.0 1.0
  outer loop
    vertex 356.8567087720213 91.75360482943593 1.9999999999999998
    vertex 350.9567087720213 99.768521390513 1.9999999999999998
    vertex 350.9567087720213 91.75360482943593 1.9999999999999998
  endloop
endfacet
facet normal 0.0 0.0 1.0
  outer loop
    vertex 350.9567087720213 99.768521390513 1.9999999999999998
    vertex 356.8567087720213 91.75360482943593 1.9999999999999998
    vertex 353.60670877202125 101.7536048294359 1.9999999999999998
  endloop
endfacet
facet normal 0.0 0.0 1.0
  outer loop
    vertex 353.60670877202125 101.7536048294359 1.9999999999999998
    vertex 356.8567087720213 91.75360482943593 1.9999999999999998
    vertex 354.2067087720213 101.7536048294359 1.9999999999999998
  endloop
endfacet
facet normal 0.0 0.0 1.0
  outer loop
    vertex 354.2067087720213 101.7536048294359 1.9999999999999998
    vertex 356.8567087720213 91.75360482943593 1.9999999999999998
    vertex 354.2067087720213 110.75360482943589 1.9999999999999998
  endloop
endfacet
facet normal 0.0 0.0 1.0
  outer loop
    vertex 350.9567087720213 99.768521390513 1.9999999999999998
    vertex 350.65670877202126 120.75360482943587 1.9999999999999998
    vertex 350.65670877202126 101.76852139051299 1.9999999999999998
  endloop
endfacet
facet normal 0.0 0.0 1.0
  outer loop
    vertex 350.65670877202126 120.75360482943587 1.9999999999999998
    vertex 350.9567087720213 99.768521390513 1.9999999999999998
    vertex 353.60670877202125 110.75360482943589 1.9999999999999998
  endloop
endfacet
facet normal 0.0 0.0 1.0
  outer loop
    vertex 350.65670877202126 120.75360482943587 1.9999999999999998
    vertex 353.60670877202125 110.75360482943589 1.9999999999999998
    vertex 357.1567087720213 120.75360482943587 1.9999999999999998
  endloop
endfacet
facet normal 0.0 0.0 1.0
  outer loop
    vertex 353.60670877202125 110.75360482943589 1.9999999999999998
    vertex 350.9567087720213 99.768521390513 1.9999999999999998
    vertex 353.60670877202125 101.7536048294359 1.9999999999999998
  endloop
endfacet
facet normal 0.0 0.0 1.0
  outer loop
    vertex 357.1567087720213 120.75360482943587 1.9999999999999998
    vertex 353.60670877202125 110.75360482943589 1.9999999999999998
    vertex 354.2067087720213 110.75360482943589 1.9999999999999998
  endloop
endfacet
facet normal 0.0 0.0 1.0
  outer loop
    vertex 357.1567087720213 120.75360482943587 1.9999999999999998
    vertex 354.2067087720213 110.75360482943589 1.9999999999999998
    vertex 356.8567087720213 99.768521390513 1.9999999999999998
  endloop
endfacet
facet normal 0.0 0.0 1.0
  outer loop
    vertex 356.8567087720213 99.768521390513 1.9999999999999998
    vertex 354.2067087720213 110.75360482943589 1.9999999999999998
    vertex 356.8567087720213 91.75360482943593 1.9999999999999998
  endloop
endfacet
facet normal 0.0 0.0 1.0
  outer loop
    vertex 357.1567087720213 120.75360482943587 1.9999999999999998
    vertex 356.8567087720213 99.768521390513 1.9999999999999998
    vertex 357.1567087720213 101.76852139051299 1.9999999999999998
  endloop
endfacet
endsolid Bridge proto 1
