solid Bridge proto 1
facet normal 1.0 0.0 0.0
  outer loop
    vertex 396.2312634937292 123.02345376567919 0.0
    vertex 396.2312634937292 94.02345376567925 3.4999999999999987
    vertex 396.2312634937292 94.02345376567925 0.0
  endloop
endfacet
facet normal 1.0 0.0 0.0
  outer loop
    vertex 396.2312634937292 94.02345376567925 3.4999999999999987
    vertex 396.2312634937292 123.02345376567919 0.0
    vertex 396.2312634937292 123.02345376567919 3.4999999999999987
  endloop
endfacet
facet normal 0.0 1.0 0.0
  outer loop
    vertex 389.78126349372917 104.02345376567924 0.987348
    vertex 390.3812634937292 104.02345376567924 0.0
    vertex 389.78126349372917 104.02345376567924 0.0
  endloop
endfacet
facet normal 0.0 1.0 0.0
  outer loop
    vertex 390.3812634937292 104.02345376567924 0.0
    vertex 389.78126349372917 104.02345376567924 0.987348
    vertex 390.3812634937292 104.02345376567924 0.987348
  endloop
endfacet
facet normal -1.0 0.0 0.0
  outer loop
    vertex 383.9312634937292 123.02345376567919 3.5
    vertex 383.9312634937292 94.02345376567925 0.0
    vertex 383.9312634937292 94.02345376567925 3.5
  endloop
endfacet
facet normal -1.0 0.0 0.0
  outer loop
    vertex 383.9312634937292 94.02345376567925 0.0
    vertex 383.9312634937292 123.02345376567919 3.5
    vertex 383.9312634937292 123.02345376567919 0.0
  endloop
endfacet
facet normal 0.0019130136816681038 -1.9312053939190213e-20 0.9999981701876528
  outer loop
    vertex 393.2312634937292 94.02345376567925 0.987348
    vertex 386.9312634937292 102.02345376567924 0.9999999999999999
    vertex 386.9312634937292 94.02345376567925 0.9999999999999999
  endloop
endfacet
facet normal 0.0019130136816681038 -1.9312053939190213e-20 0.9999981701876528
  outer loop
    vertex 386.9312634937292 102.02345376567924 0.9999999999999999
    vertex 393.2312634937292 94.02345376567925 0.987348
    vertex 389.78126349372917 104.02345376567924 0.987348
  endloop
endfacet
facet normal 0.0019130136816681038 -1.9312053939190213e-20 0.9999981701876528
  outer loop
    vertex 389.78126349372917 104.02345376567924 0.987348
    vertex 393.2312634937292 94.02345376567925 0.987348
    vertex 390.3812634937292 104.02345376567924 0.987348
  endloop
endfacet
facet normal 0.0019130136816681038 -1.9312053939190213e-20 0.9999981701876528
  outer loop
    vertex 390.3812634937292 104.02345376567924 0.987348
    vertex 393.2312634937292 94.02345376567925 0.987348
    vertex 390.3812634937292 113.0234537656792 0.987348
  endloop
endfacet
facet normal 0.0019130136816681038 -1.9312053939190213e-20 0.9999981701876528
  outer loop
    vertex 386.9312634937292 102.02345376567924 0.9999999999999999
    vertex 386.6312634937292 123.02345376567919 0.9999999999999999
    vertex 386.6312634937292 104.02345376567924 0.9999999999999999
  endloop
endfacet
facet normal 0.0019130136816681038 -1.9312053939190213e-20 0.9999981701876528
  outer loop
    vertex 386.6312634937292 123.02345376567919 0.9999999999999999
    vertex 386.9312634937292 102.02345376567924 0.9999999999999999
    vertex 389.78126349372917 113.0234537656792 0.987348
  endloop
endfacet
facet normal 0.0019130136816681038 -1.9312053939190213e-20 0.9999981701876528
  outer loop
    vertex 386.6312634937292 123.02345376567919 0.9999999999999999
    vertex 389.78126349372917 113.0234537656792 0.987348
    vertex 393.5312634937292 123.02345376567919 0.987348
  endloop
endfacet
facet normal 0.0019130136816681038 -1.9312053939190213e-20 0.9999981701876528
  outer loop
    vertex 389.78126349372917 113.0234537656792 0.987348
    vertex 386.9312634937292 102.02345376567924 0.9999999999999999
    vertex 389.78126349372917 104.02345376567924 0.987348
  endloop
endfacet
facet normal 0.0019130136816681038 -1.9312053939190213e-20 0.9999981701876528
  outer loop
    vertex 393.5312634937292 123.02345376567919 0.987348
    vertex 389.78126349372917 113.0234537656792 0.987348
    vertex 390.3812634937292 113.0234537656792 0.987348
  endloop
endfacet
facet normal 0.0019130136816681038 -1.9312053939190213e-20 0.9999981701876528
  outer loop
    vertex 393.5312634937292 123.02345376567919 0.987348
    vertex 390.3812634937292 113.0234537656792 0.987348
    vertex 393.2312634937292 102.02345376567924 0.987348
  endloop
endfacet
facet normal 0.0019130136816681038 -1.9312053939190213e-20 0.9999981701876528
  outer loop
    vertex 393.2312634937292 102.02345376567924 0.987348
    vertex 390.3812634937292 113.0234537656792 0.987348
    vertex 393.2312634937292 94.02345376567925 0.987348
  endloop
endfacet
facet normal 0.0019130136816681038 -1.9312053939190213e-20 0.9999981701876528
  outer loop
    vertex 393.5312634937292 123.02345376567919 0.987348
    vertex 393.2312634937292 102.02345376567924 0.987348
    vertex 393.5312634937292 104.02345376567924 0.987348
  endloop
endfacet
facet normal -1.0 0.0 0.0
  outer loop
    vertex 390.3812634937292 113.0234537656792 0.987348
    vertex 390.3812634937292 104.02345376567924 0.0
    vertex 390.3812634937292 104.02345376567924 0.987348
  endloop
endfacet
facet normal -1.0 0.0 0.0
  outer loop
    vertex 390.3812634937292 104.02345376567924 0.0
    vertex 390.3812634937292 113.0234537656792 0.987348
    vertex 390.3812634937292 113.0234537656792 0.0
  endloop
endfacet
facet normal 0.0 1.0 0.0
  outer loop
    vertex 383.9312634937292 123.02345376567919 0.0
    vertex 386.6312634937292 123.02345376567919 0.9999999999999999
    vertex 396.2312634937292 123.02345376567919 0.0
  endloop
endfacet
facet normal 0.0 1.0 0.0
  outer loop
    vertex 386.6312634937292 123.02345376567919 0.9999999999999999
    vertex 383.9312634937292 123.02345376567919 0.0
    vertex 383.9312634937292 123.02345376567919 3.5
  endloop
endfacet
facet normal 0.0 1.0 0.0
  outer loop
    vertex 396.2312634937292 123.02345376567919 0.0
    vertex 386.6312634937292 123.02345376567919 0.9999999999999999
    vertex 393.5312634937292 123.02345376567919 0.987348
  endloop
endfacet
facet normal 0.0 1.0 0.0
  outer loop
    vertex 386.6312634937292 123.02345376567919 0.9999999999999999
    vertex 383.9312634937292 123.02345376567919 3.5
    vertex 386.6312634937292 123.02345376567919 3.5
  endloop
endfacet
facet normal 0.0 1.0 0.0
  outer loop
    vertex 393.5312634937292 123.02345376567919 0.987348
    vertex 396.2312634937292 123.02345376567919 3.4999999999999987
    vertex 396.2312634937292 123.02345376567919 0.0
  endloop
endfacet
facet normal 0.0 1.0 0.0
  outer loop
    vertex 396.2312634937292 123.02345376567919 3.4999999999999987
    vertex 393.5312634937292 123.02345376567919 0.987348
    vertex 393.5312634937292 123.02345376567919 3.4999999999999987
  endloop
endfacet
facet normal -0.0 -1.0 -0.0
  outer loop
    vertex 390.3812634937292 113.0234537656792 0.987348
    vertex 389.78126349372917 113.0234537656792 0.0
    vertex 390.3812634937292 113.0234537656792 0.0
  endloop
endfacet
facet normal -0.0 -1.0 -0.0
  outer loop
    vertex 389.78126349372917 113.0234537656792 0.0
    vertex 390.3812634937292 113.0234537656792 0.987348
    vertex 389.78126349372917 113.0234537656792 0.987348
  endloop
endfacet
facet normal 0.0 0.0 -1.0
  outer loop
    vertex 383.9312634937292 123.02345376567919 0.0
    vertex 389.78126349372917 113.0234537656792 0.0
    vertex 383.9312634937292 94.02345376567925 0.0
  endloop
endfacet
facet normal 0.0 0.0 -1.0
  outer loop
    vertex 389.78126349372917 113.0234537656792 0.0
    vertex 383.9312634937292 123.02345376567919 0.0
    vertex 396.2312634937292 123.02345376567919 0.0
  endloop
endfacet
facet normal 0.0 0.0 -1.0
  outer loop
    vertex 389.78126349372917 113.0234537656792 0.0
    vertex 396.2312634937292 123.02345376567919 0.0
    vertex 390.3812634937292 113.0234537656792 0.0
  endloop
endfacet
facet normal 0.0 0.0 -1.0
  outer loop
    vertex 390.3812634937292 113.0234537656792 0.0
    vertex 396.2312634937292 123.02345376567919 0.0
    vertex 390.3812634937292 104.02345376567924 0.0
  endloop
endfacet
facet normal 0.0 0.0 -1.0
  outer loop
    vertex 383.9312634937292 94.02345376567925 0.0
    vertex 389.78126349372917 104.02345376567924 0.0
    vertex 396.2312634937292 94.02345376567925 0.0
  endloop
endfacet
facet normal 0.0 0.0 -1.0
  outer loop
    vertex 389.78126349372917 104.02345376567924 0.0
    vertex 383.9312634937292 94.02345376567925 0.0
    vertex 389.78126349372917 113.0234537656792 0.0
  endloop
endfacet
facet normal 0.0 0.0 -1.0
  outer loop
    vertex 396.2312634937292 94.02345376567925 0.0
    vertex 389.78126349372917 104.02345376567924 0.0
    vertex 390.3812634937292 104.02345376567924 0.0
  endloop
endfacet
facet normal 0.0 0.0 -1.0
  outer loop
    vertex 396.2312634937292 94.02345376567925 0.0
    vertex 390.3812634937292 104.02345376567924 0.0
    vertex 396.2312634937292 123.02345376567919 0.0
  endloop
endfacet
facet normal 1.0 0.0 0.0
  outer loop
    vertex 386.6312634937292 123.02345376567919 0.9999999999999999
    vertex 386.6312634937292 104.02345376567924 3.5
    vertex 386.6312634937292 104.02345376567924 0.9999999999999999
  endloop
endfacet
facet normal 1.0 0.0 0.0
  outer loop
    vertex 386.6312634937292 104.02345376567924 3.5
    vertex 386.6312634937292 123.02345376567919 0.9999999999999999
    vertex 386.6312634937292 123.02345376567919 3.5
  endloop
endfacet
facet normal 1.0 0.0 0.0
  outer loop
    vertex 386.9312634937292 102.02345376567924 0.9999999999999999
    vertex 386.9312634937292 94.02345376567925 3.5
    vertex 386.9312634937292 94.02345376567925 0.9999999999999999
  endloop
endfacet
facet normal 1.0 0.0 0.0
  outer loop
    vertex 386.9312634937292 94.02345376567925 3.5
    vertex 386.9312634937292 102.02345376567924 0.9999999999999999
    vertex 386.9312634937292 102.02345376567924 3.5
  endloop
endfacet
facet normal 1.0 0.0 0.0
  outer loop
    vertex 389.78126349372917 113.0234537656792 0.0
    vertex 389.78126349372917 104.02345376567924 0.987348
    vertex 389.78126349372917 104.02345376567924 0.0
  endloop
endfacet
facet normal 1.0 0.0 0.0
  outer loop
    vertex 389.78126349372917 104.02345376567924 0.987348
    vertex 389.78126349372917 113.0234537656792 0.0
    vertex 389.78126349372917 113.0234537656792 0.987348
  endloop
endfacet
facet normal 0.0 -1.0 0.0
  outer loop
    vertex 396.2312634937292 94.02345376567925 0.0
    vertex 393.2312634937292 94.02345376567925 0.987348
    vertex 383.9312634937292 94.02345376567925 0.0
  endloop
endfacet
facet normal 0.0 -1.0 0.0
  outer loop
    vertex 393.2312634937292 94.02345376567925 0.987348
    vertex 396.2312634937292 94.02345376567925 0.0
    vertex 396.2312634937292 94.02345376567925 3.4999999999999987
  endloop
endfacet
facet normal 0.0 -1.0 0.0
  outer loop
    vertex 393.2312634937292 94.02345376567925 0.987348
    vertex 396.2312634937292 94.02345376567925 3.4999999999999987
    vertex 393.2312634937292 94.02345376567925 3.4999999999999987
  endloop
endfacet
facet normal 0.0 -1.0 0.0
  outer loop
    vertex 383.9312634937292 94.02345376567925 0.0
    vertex 386.9312634937292 94.02345376567925 0.9999999999999999
    vertex 383.9312634937292 94.02345376567925 3.5
  endloop
endfacet
facet normal 0.0 -1.0 0.0
  outer loop
    vertex 386.9312634937292 94.02345376567925 0.9999999999999999
    vertex 383.9312634937292 94.02345376567925 0.0
    vertex 393.2312634937292 94.02345376567925 0.987348
  endloop
endfacet
facet normal 0.0 -1.0 0.0
  outer loop
    vertex 383.9312634937292 94.02345376567925 3.5
    vertex 386.9312634937292 94.02345376567925 0.9999999999999999
    vertex 386.9312634937292 94.02345376567925 3.5
  endloop
endfacet
facet normal 0.9889363528682961 0.14834045293025555 0.0
  outer loop
    vertex 386.6312634937292 104.02345376567924 0.9999999999999999
    vertex 386.9312634937292 102.02345376567924 3.5
    vertex 386.9312634937292 102.02345376567924 0.9999999999999999
  endloop
endfacet
facet normal 0.9889363528682961 0.14834045293025555 0.0
  outer loop
    vertex 386.9312634937292 102.02345376567924 3.5
    vertex 386.6312634937292 104.02345376567924 0.9999999999999999
    vertex 386.6312634937292 104.02345376567924 3.5
  endloop
endfacet
facet normal 0.0 0.0 1.0
  outer loop
    vertex 386.6312634937292 123.02345376567919 3.5
    vertex 383.9312634937292 123.02345376567919 3.5
    vertex 386.6312634937292 104.02345376567924 3.5
  endloop
endfacet
facet normal 0.0 0.0 1.0
  outer loop
    vertex 386.9312634937292 94.02345376567925 3.5
    vertex 383.9312634937292 123.02345376567919 3.5
    vertex 383.9312634937292 94.02345376567925 3.5
  endloop
endfacet
facet normal 0.0 0.0 1.0
  outer loop
    vertex 383.9312634937292 123.02345376567919 3.5
    vertex 386.9312634937292 94.02345376567925 3.5
    vertex 386.6312634937292 104.02345376567924 3.5
  endloop
endfacet
facet normal 0.0 0.0 1.0
  outer loop
    vertex 386.6312634937292 104.02345376567924 3.5
    vertex 386.9312634937292 94.02345376567925 3.5
    vertex 386.9312634937292 102.02345376567924 3.5
  endloop
endfacet
facet normal -1.0 0.0 0.0
  outer loop
    vertex 393.5312634937292 123.02345376567919 3.4999999999999987
    vertex 393.5312634937292 104.02345376567924 0.987348
    vertex 393.5312634937292 104.02345376567924 3.4999999999999987
  endloop
endfacet
facet normal -1.0 0.0 0.0
  outer loop
    vertex 393.5312634937292 104.02345376567924 0.987348
    vertex 393.5312634937292 123.02345376567919 3.4999999999999987
    vertex 393.5312634937292 123.02345376567919 0.987348
  endloop
endfacet
facet normal 0.0 0.0 1.0
  outer loop
    vertex 396.2312634937292 94.02345376567925 3.4999999999999987
    vertex 393.2312634937292 102.02345376567924 3.4999999999999987
    vertex 393.2312634937292 94.02345376567925 3.4999999999999987
  endloop
endfacet
facet normal 0.0 0.0 1.0
  outer loop
    vertex 393.2312634937292 102.02345376567924 3.4999999999999987
    vertex 396.2312634937292 94.02345376567925 3.4999999999999987
    vertex 393.5312634937292 104.02345376567924 3.4999999999999987
  endloop
endfacet
facet normal 0.0 0.0 1.0
  outer loop
    vertex 393.5312634937292 104.02345376567924 3.4999999999999987
    vertex 396.2312634937292 94.02345376567925 3.4999999999999987
    vertex 393.5312634937292 123.02345376567919 3.4999999999999987
  endloop
endfacet
facet normal 0.0 0.0 1.0
  outer loop
    vertex 393.5312634937292 123.02345376567919 3.4999999999999987
    vertex 396.2312634937292 94.02345376567925 3.4999999999999987
    vertex 396.2312634937292 123.02345376567919 3.4999999999999987
  endloop
endfacet
facet normal -0.9889363528682961 0.14834045293025555 0.0
  outer loop
    vertex 393.5312634937292 104.02345376567924 3.4999999999999987
    vertex 393.2312634937292 102.02345376567924 0.987348
    vertex 393.2312634937292 102.02345376567924 3.4999999999999987
  endloop
endfacet
facet normal -0.9889363528682961 0.14834045293025555 0.0
  outer loop
    vertex 393.2312634937292 102.02345376567924 0.987348
    vertex 393.5312634937292 104.02345376567924 3.4999999999999987
    vertex 393.5312634937292 104.02345376567924 0.987348
  endloop
endfacet
facet normal -1.0 0.0 0.0
  outer loop
    vertex 393.2312634937292 102.02345376567924 3.4999999999999987
    vertex 393.2312634937292 94.02345376567925 0.987348
    vertex 393.2312634937292 94.02345376567925 3.4999999999999987
  endloop
endfacet
facet normal -1.0 0.0 0.0
  outer loop
    vertex 393.2312634937292 94.02345376567925 0.987348
    vertex 393.2312634937292 102.02345376567924 3.4999999999999987
    vertex 393.2312634937292 102.02345376567924 0.987348
  endloop
endfacet
endsolid Bridge proto 1
