solid VV's Vr Gloves
facet normal 0.5453436155766992 0.32412216823552575 -0.7730104533627181
  outer loop
    vertex 9.010990774765418 35.62647700918495 -1.6219699430765757
    vertex 8.09169205576399 36.2834280069741 -1.99505843642457
    vertex 8.494964801265263 36.49470355367595 -1.6219699430765762
  endloop
endfacet
facet normal 0.5453436155766992 0.32412216823552575 -0.7730104533627181
  outer loop
    vertex 8.09169205576399 36.2834280069741 -1.99505843642457
    vertex 9.010990774765418 35.62647700918495 -1.6219699430765757
    vertex 8.833571598824838 35.527472849013634 -1.7886479710109076
  endloop
endfacet
facet normal 0.5453436155766992 0.32412216823552575 -0.7730104533627181
  outer loop
    vertex 8.09169205576399 36.2834280069741 -1.99505843642457
    vertex 8.833571598824838 35.527472849013634 -1.7886479710109076
    vertex 8.624870714321807 35.38634164293697 -1.9950584364245698
  endloop
endfacet
facet normal -0.24953747051273012 0.1483113099491508 -0.9569403357322102
  outer loop
    vertex 0.3578297152467418 35.85964631741865 -2.4430054407266164
    vertex -0.7594856832265473 35.081244172220806 -2.2722881970507864
    vertex -0.17261263177519837 36.06867268877471 -2.2722881970507864
  endloop
endfacet
facet normal -0.24953747051273012 0.1483113099491508 -0.9569403357322102
  outer loop
    vertex -0.7594856832265473 35.081244172220806 -2.2722881970507864
    vertex 0.3578297152467418 35.85964631741865 -2.4430054407266164
    vertex -0.45560565410889725 34.835442623557945 -2.3896252966403377
  endloop
endfacet
facet normal -0.24953747051273012 0.1483113099491508 -0.9569403357322102
  outer loop
    vertex -0.45560565410889725 34.835442623557945 -2.3896252966403377
    vertex 0.3578297152467418 35.85964631741865 -2.4430054407266164
    vertex -0.32533101409676723 34.710211386175324 -2.4430054407266164
  endloop
endfacet
facet normal -0.6625008044689336 0.3937539398442471 -0.6372209341626723
  outer loop
    vertex -1.8959987151700255 35.809686133431995 -1.1673602985757334
    vertex -1.051599604017829 36.49470355367595 -1.6219699430765704
    vertex -1.567625577517937 35.62647700918495 -1.6219699430765702
  endloop
endfacet
facet normal -0.6625008044689336 0.3937539398442471 -0.6372209341626723
  outer loop
    vertex -1.051599604017829 36.49470355367595 -1.6219699430765704
    vertex -1.8959987151700255 35.809686133431995 -1.1673602985757334
    vertex -1.3850819442543214 36.669316317404785 -1.1673602985757336
  endloop
endfacet
facet normal -0.5453436155766942 0.32412216823549167 -0.773010453362736
  outer loop
    vertex -0.6483268585165437 36.2834280069741 -1.9950584364245645
    vertex -1.567625577517937 35.62647700918495 -1.6219699430765702
    vertex -1.051599604017829 36.49470355367595 -1.6219699430765704
  endloop
endfacet
facet normal -0.5453436155766942 0.32412216823549167 -0.773010453362736
  outer loop
    vertex -1.567625577517937 35.62647700918495 -1.6219699430765702
    vertex -0.6483268585165437 36.2834280069741 -1.9950584364245645
    vertex -1.390206401577374 35.527472849013634 -1.788647971010902
  endloop
endfacet
facet normal -0.5453436155766942 0.32412216823549167 -0.773010453362736
  outer loop
    vertex -1.390206401577374 35.527472849013634 -1.788647971010902
    vertex -0.6483268585165437 36.2834280069741 -1.9950584364245645
    vertex -1.181505517074281 35.38634164293697 -1.995058436424564
  endloop
endfacet
facet normal -0.6087614290087265 -0.7933533402912306 4.673526489082176e-16
  outer loop
    vertex 1.7216825986237296 31.9010210628446 -2.5006495995169273
    vertex 1.5145758174371957 32.0599396854425 22.49935040048307
    vertex 1.514575817437185 32.059939685442494 -2.5006495995169273
  endloop
endfacet
facet normal -0.6087614290087265 -0.7933533402912306 4.673526489082176e-16
  outer loop
    vertex 1.5145758174371957 32.0599396854425 22.49935040048307
    vertex 1.7216825986237296 31.9010210628446 -2.5006495995169273
    vertex 1.7216825986237403 31.901021062844606 22.49935040048307
  endloop
endfacet
facet normal 0.7599074192587347 0.45154284436233916 -0.4676000148211053
  outer loop
    vertex 9.014779034189234 36.735786592938936 -0.800246391866468
    vertex 9.339363912417483 35.809686133431995 -1.167360298575739
    vertex 8.828447141501801 36.669316317404785 -1.1673602985757392
  endloop
endfacet
facet normal 0.7599074192587347 0.45154284436233916 -0.4676000148211053
  outer loop
    vertex 9.339363912417483 35.809686133431995 -1.167360298575739
    vertex 9.014779034189234 36.735786592938936 -0.800246391866468
    vertex 9.486804581655075 35.94159186043757 -0.7997239904654372
  endloop
endfacet
facet normal 0.7599074192587347 0.45154284436233916 -0.4676000148211053
  outer loop
    vertex 9.486804581655075 35.94159186043757 -0.7997239904654372
    vertex 9.014779034189234 36.735786592938936 -0.800246391866468
    vertex 9.111216701290111 36.7306901695904 -0.6486998966122008
  endloop
endfacet
facet normal 0.7599074192587347 0.45154284436233916 -0.4676000148211053
  outer loop
    vertex 9.486804581655075 35.94159186043757 -0.7997239904654372
    vertex 9.111216701290111 36.7306901695904 -0.6486998966122008
    vertex 9.528418160331192 36.02873833045535 -0.6486998966122008
  endloop
endfacet
facet normal -0.08425849237399043 0.05007860083157062 -0.9951847266721965
  outer loop
    vertex 0.5594049384553547 35.780213486123905 -2.4640691778369526
    vertex -0.32533101409676723 34.710211386175324 -2.4430054407266164
    vertex 0.3578297152467418 35.85964631741865 -2.4430054407266164
  endloop
endfacet
facet normal -0.08425849237399043 0.05007860083157062 -0.9951847266721965
  outer loop
    vertex -0.32533101409676723 34.710211386175324 -2.4430054407266164
    vertex 0.5594049384553547 35.780213486123905 -2.4640691778369526
    vertex 0.9308121926227613 35.678172662830484 -2.5006495995169282
  endloop
endfacet
facet normal -0.08425849237399043 0.05007860083157062 -0.9951847266721965
  outer loop
    vertex -0.32533101409676723 34.710211386175324 -2.4430054407266164
    vertex 0.9308121926227613 35.678172662830484 -2.5006495995169282
    vertex -0.036033421731305505 34.4321135502468 -2.4814932997855155
  endloop
endfacet
facet normal -0.08425849237399043 0.05007860083157062 -0.9951847266721965
  outer loop
    vertex -0.036033421731305505 34.4321135502468 -2.4814932997855155
    vertex 0.9308121926227613 35.678172662830484 -2.5006495995169282
    vertex 0.09878828130425488 34.278271722654644 -2.500649599516928
  endloop
endfacet
facet normal 0.24953747051272127 0.14831130994915076 -0.9569403357322126
  outer loop
    vertex 8.202850880473981 35.081244172220806 -2.272288197050792
    vertex 7.085535482000659 35.85964631741865 -2.443005440726622
    vertex 7.615977829022634 36.06867268877471 -2.272288197050792
  endloop
endfacet
facet normal 0.24953747051272127 0.14831130994915076 -0.9569403357322126
  outer loop
    vertex 7.085535482000659 35.85964631741865 -2.443005440726622
    vertex 8.202850880473981 35.081244172220806 -2.272288197050792
    vertex 7.898970851356355 34.835442623557945 -2.3896252966403435
  endloop
endfacet
facet normal 0.24953747051272127 0.14831130994915076 -0.9569403357322126
  outer loop
    vertex 7.085535482000659 35.85964631741865 -2.443005440726622
    vertex 7.898970851356355 34.835442623557945 -2.3896252966403435
    vertex 7.768696211344191 34.710211386175324 -2.443005440726622
  endloop
endfacet
facet normal -0.4052268636018991 0.2408444985993308 -0.881921264348357
  outer loop
    vertex -0.43794040744385054 36.17322788215127 -2.1218218336124792
    vertex -1.181505517074281 35.38634164293697 -1.995058436424564
    vertex -0.6483268585165437 36.2834280069741 -1.9950584364245645
  endloop
endfacet
facet normal -0.4052268636018991 0.2408444985993308 -0.881921264348357
  outer loop
    vertex -1.181505517074281 35.38634164293697 -1.995058436424564
    vertex -0.43794040744385054 36.17322788215127 -2.1218218336124792
    vertex -0.17261263177519837 36.06867268877471 -2.2722881970507864
  endloop
endfacet
facet normal -0.4052268636018991 0.2408444985993308 -0.881921264348357
  outer loop
    vertex -1.181505517074281 35.38634164293697 -1.995058436424564
    vertex -0.17261263177519837 36.06867268877471 -2.2722881970507864
    vertex -0.9080994019535585 35.20145438255188 -2.171174591373571
  endloop
endfacet
facet normal -0.4052268636018991 0.2408444985993308 -0.881921264348357
  outer loop
    vertex -0.9080994019535585 35.20145438255188 -2.171174591373571
    vertex -0.17261263177519837 36.06867268877471 -2.2722881970507864
    vertex -0.7594856832265473 35.081244172220806 -2.2722881970507864
  endloop
endfacet
facet normal 0.08507424156092745 0.05543250649966366 -0.9948314483599712
  outer loop
    vertex 7.768696211344191 34.710211386175324 -2.443005440726622
    vertex 6.883960258792063 35.780213486123905 -2.4640691778369583
    vertex 7.085535482000659 35.85964631741865 -2.443005440726622
  endloop
endfacet
facet normal 0.08507424156092745 0.05543250649966366 -0.9948314483599712
  outer loop
    vertex 6.883960258792063 35.780213486123905 -2.4640691778369583
    vertex 7.768696211344191 34.710211386175324 -2.443005440726622
    vertex 6.512553004624645 35.678172662830484 -2.5006495995169336
  endloop
endfacet
facet normal 0.08507424156092745 0.05543250649966366 -0.9948314483599712
  outer loop
    vertex 6.512553004624645 35.678172662830484 -2.5006495995169336
    vertex 7.768696211344191 34.710211386175324 -2.443005440726622
    vertex 7.479398618978775 34.4321135502468 -2.500649599516933
  endloop
endfacet
facet normal 0.08507424156092745 0.05543250649966366 -0.9948314483599712
  outer loop
    vertex 6.512553004624645 35.678172662830484 -2.5006495995169336
    vertex 7.479398618978775 34.4321135502468 -2.500649599516933
    vertex 7.34457691594322 34.278271722654644 -2.500649599516933
  endloop
endfacet
facet normal 0.662500804468923 0.3937539398442496 -0.6372209341626819
  outer loop
    vertex 8.828447141501801 36.669316317404785 -1.1673602985757392
    vertex 9.010990774765418 35.62647700918495 -1.6219699430765757
    vertex 8.494964801265263 36.49470355367595 -1.6219699430765762
  endloop
endfacet
facet normal 0.662500804468923 0.3937539398442496 -0.6372209341626819
  outer loop
    vertex 9.010990774765418 35.62647700918495 -1.6219699430765757
    vertex 8.828447141501801 36.669316317404785 -1.1673602985757392
    vertex 9.339363912417483 35.809686133431995 -1.167360298575739
  endloop
endfacet
facet normal -0.13052619222005357 -0.9914448613738103 3.170847761069342e-16
  outer loop
    vertex 2.2216825986237287 31.76704646662904 -2.5006495995169273
    vertex 1.9628635535212222 31.801120640339978 22.49935040048307
    vertex 1.9628635535212116 31.801120640339974 -2.5006495995169273
  endloop
endfacet
facet normal -0.13052619222005357 -0.9914448613738103 3.170847761069342e-16
  outer loop
    vertex 1.9628635535212222 31.801120640339978 22.49935040048307
    vertex 2.2216825986237287 31.76704646662904 -2.5006495995169273
    vertex 2.2216825986237394 31.767046466629047 22.49935040048307
  endloop
endfacet
facet normal -0.6930142833164651 -0.7209238538981536 7.508968214747662e-16
  outer loop
    vertex -0.32533101409676723 34.710211386175324 -2.4430054407266164
    vertex -0.4556056541088923 34.83544262355795 22.38832609760644
    vertex -0.45560565410889725 34.835442623557945 -2.3896252966403377
  endloop
endfacet
facet normal -0.6930142833164651 -0.7209238538981536 7.508968214747662e-16
  outer loop
    vertex -0.4556056541088923 34.83544262355795 22.38832609760644
    vertex -0.32533101409676723 34.710211386175324 -2.4430054407266164
    vertex -0.3253310140967228 34.71021138617533 22.441706241692707
  endloop
endfacet
facet normal -0.6930142833164651 -0.7209238538981536 7.508968214747662e-16
  outer loop
    vertex -0.3253310140967228 34.71021138617533 22.441706241692707
    vertex -0.32533101409676723 34.710211386175324 -2.4430054407266164
    vertex -0.036033421731305505 34.4321135502468 -2.4814932997855155
  endloop
endfacet
facet normal -0.6930142833164651 -0.7209238538981536 7.508968214747662e-16
  outer loop
    vertex -0.3253310140967228 34.71021138617533 22.441706241692707
    vertex -0.036033421731305505 34.4321135502468 -2.4814932997855155
    vertex -0.03603342173129493 34.432113550246804 22.480194100751607
  endloop
endfacet
facet normal -0.805622135737949 -0.5924297210716439 4.971971152193141e-16
  outer loop
    vertex 0.6923393452100631 33.52554998243093 22.49935040048307
    vertex 0.3475497266493408 33.994415974472474 -2.500649599516928
    vertex 0.6923393452100525 33.525549982430924 -2.500649599516928
  endloop
endfacet
facet normal -0.805622135737949 -0.5924297210716439 4.971971152193141e-16
  outer loop
    vertex 0.3475497266493408 33.994415974472474 -2.500649599516928
    vertex 0.6923393452100631 33.52554998243093 22.49935040048307
    vertex 0.34754972664935135 33.99441597447248 22.49935040048307
  endloop
endfacet
facet normal -1.087665881106861e-15 -1.4206773123320473e-16 -1.0
  outer loop
    vertex 1.5930898527911372 35.496217795406274 -2.5006495995169282
    vertex 0.09878828130425488 34.278271722654644 -2.500649599516928
    vertex 0.9308121926227613 35.678172662830484 -2.5006495995169282
  endloop
endfacet
facet normal -1.087665881106861e-15 -1.4206773123320473e-16 -1.0
  outer loop
    vertex 0.09878828130425488 34.278271722654644 -2.500649599516928
    vertex 1.5930898527911372 35.496217795406274 -2.5006495995169282
    vertex 2.651235662112551 35.32450436935262 -2.5006495995169282
  endloop
endfacet
facet normal -1.087665881106861e-15 -1.4206773123320473e-16 -1.0
  outer loop
    vertex 0.09878828130425488 34.278271722654644 -2.500649599516928
    vertex 2.651235662112551 35.32450436935262 -2.5006495995169282
    vertex 3.721682598623732 35.26704646662904 -2.5006495995169282
  endloop
endfacet
facet normal -1.087665881106861e-15 -1.4206773123320473e-16 -1.0
  outer loop
    vertex 0.09878828130425488 34.278271722654644 -2.500649599516928
    vertex 3.721682598623732 35.26704646662904 -2.5006495995169282
    vertex 7.34457691594322 34.278271722654644 -2.500649599516933
  endloop
endfacet
facet normal -1.087665881106861e-15 -1.4206773123320473e-16 -1.0
  outer loop
    vertex 0.09878828130425488 34.278271722654644 -2.500649599516928
    vertex 7.34457691594322 34.278271722654644 -2.500649599516933
    vertex 5.34668259862374 34.26704646662904 -2.500649599516933
  endloop
endfacet
facet normal -1.087665881106861e-15 -1.4206773123320473e-16 -1.0
  outer loop
    vertex 5.34668259862374 34.26704646662904 -2.500649599516933
    vertex 7.34457691594322 34.278271722654644 -2.500649599516933
    vertex 7.0958154705981284 33.994415974472474 -2.500649599516933
  endloop
endfacet
facet normal -1.087665881106861e-15 -1.4206773123320473e-16 -1.0
  outer loop
    vertex 5.34668259862374 34.26704646662904 -2.500649599516933
    vertex 7.0958154705981284 33.994415974472474 -2.500649599516933
    vertex 5.34668259862374 32.51704646662904 -2.500649599516933
  endloop
endfacet
facet normal -1.087665881106861e-15 -1.4206773123320473e-16 -1.0
  outer loop
    vertex 5.34668259862374 32.51704646662904 -2.500649599516933
    vertex 7.0958154705981284 33.994415974472474 -2.500649599516933
    vertex 6.751025852037416 33.525549982430924 -2.500649599516933
  endloop
endfacet
facet normal -1.087665881106861e-15 -1.4206773123320473e-16 -1.0
  outer loop
    vertex 5.34668259862374 32.51704646662904 -2.500649599516933
    vertex 6.751025852037416 33.525549982430924 -2.500649599516933
    vertex 6.4475505826019 33.02894353825065 -2.500649599516933
  endloop
endfacet
facet normal -1.087665881106861e-15 -1.4206773123320473e-16 -1.0
  outer loop
    vertex 5.34668259862374 32.51704646662904 -2.500649599516933
    vertex 6.4475505826019 33.02894353825065 -2.500649599516933
    vertex 6.187608424912789 32.50822742152651 -2.500649599516933
  endloop
endfacet
facet normal -1.087665881106861e-15 -1.4206773123320473e-16 -1.0
  outer loop
    vertex 5.34668259862374 32.51704646662904 -2.500649599516933
    vertex 6.187608424912789 32.50822742152651 -2.500649599516933
    vertex 2.096682598623729 32.51704646662904 -2.5006495995169273
  endloop
endfacet
facet normal -1.087665881106861e-15 -1.4206773123320473e-16 -1.0
  outer loop
    vertex 0.09878828130425488 34.278271722654644 -2.500649599516928
    vertex 2.096682598623729 34.26704646662904 -2.500649599516928
    vertex 0.3475497266493408 33.994415974472474 -2.500649599516928
  endloop
endfacet
facet normal -1.087665881106861e-15 -1.4206773123320473e-16 -1.0
  outer loop
    vertex 2.096682598623729 34.26704646662904 -2.500649599516928
    vertex 0.09878828130425488 34.278271722654644 -2.500649599516928
    vertex 5.34668259862374 34.26704646662904 -2.500649599516933
  endloop
endfacet
facet normal -1.087665881106861e-15 -1.4206773123320473e-16 -1.0
  outer loop
    vertex 0.3475497266493408 33.994415974472474 -2.500649599516928
    vertex 2.096682598623729 34.26704646662904 -2.500649599516928
    vertex 2.096682598623729 32.51704646662904 -2.5006495995169273
  endloop
endfacet
facet normal -1.087665881106861e-15 -1.4206773123320473e-16 -1.0
  outer loop
    vertex 0.3475497266493408 33.994415974472474 -2.500649599516928
    vertex 2.096682598623729 32.51704646662904 -2.5006495995169273
    vertex 0.6923393452100525 33.525549982430924 -2.500649599516928
  endloop
endfacet
facet normal -1.087665881106861e-15 -1.4206773123320473e-16 -1.0
  outer loop
    vertex 0.6923393452100525 33.525549982430924 -2.500649599516928
    vertex 2.096682598623729 32.51704646662904 -2.5006495995169273
    vertex 0.9958146146455688 33.02894353825065 -2.500649599516928
  endloop
endfacet
facet normal -1.087665881106861e-15 -1.4206773123320473e-16 -1.0
  outer loop
    vertex 0.9958146146455688 33.02894353825065 -2.500649599516928
    vertex 2.096682598623729 32.51704646662904 -2.5006495995169273
    vertex 1.2557567723346792 32.50822742152651 -2.5006495995169273
  endloop
endfacet
facet normal -1.087665881106861e-15 -1.4206773123320473e-16 -1.0
  outer loop
    vertex 1.2557567723346792 32.50822742152651 -2.5006495995169273
    vertex 2.096682598623729 32.51704646662904 -2.5006495995169273
    vertex 6.187608424912789 32.50822742152651 -2.500649599516933
  endloop
endfacet
facet normal -1.087665881106861e-15 -1.4206773123320473e-16 -1.0
  outer loop
    vertex 1.2557567723346792 32.50822742152651 -2.5006495995169273
    vertex 6.187608424912789 32.50822742152651 -2.500649599516933
    vertex 6.0877080024081796 32.26704646662904 -2.500649599516933
  endloop
endfacet
facet normal -1.087665881106861e-15 -1.4206773123320473e-16 -1.0
  outer loop
    vertex 1.2557567723346792 32.50822742152651 -2.5006495995169273
    vertex 6.0877080024081796 32.26704646662904 -2.500649599516933
    vertex 1.3556571948392895 32.26704646662904 -2.5006495995169273
  endloop
endfacet
facet normal -1.087665881106861e-15 -1.4206773123320473e-16 -1.0
  outer loop
    vertex 1.3556571948392895 32.26704646662904 -2.5006495995169273
    vertex 6.0877080024081796 32.26704646662904 -2.500649599516933
    vertex 5.928789379810284 32.059939685442494 -2.500649599516933
  endloop
endfacet
facet normal -1.087665881106861e-15 -1.4206773123320473e-16 -1.0
  outer loop
    vertex 1.3556571948392895 32.26704646662904 -2.5006495995169273
    vertex 5.928789379810284 32.059939685442494 -2.500649599516933
    vertex 1.514575817437185 32.059939685442494 -2.5006495995169273
  endloop
endfacet
facet normal -1.087665881106861e-15 -1.4206773123320473e-16 -1.0
  outer loop
    vertex 1.514575817437185 32.059939685442494 -2.5006495995169273
    vertex 5.928789379810284 32.059939685442494 -2.500649599516933
    vertex 5.721682598623739 31.9010210628446 -2.500649599516933
  endloop
endfacet
facet normal -1.087665881106861e-15 -1.4206773123320473e-16 -1.0
  outer loop
    vertex 1.514575817437185 32.059939685442494 -2.5006495995169273
    vertex 5.721682598623739 31.9010210628446 -2.500649599516933
    vertex 1.7216825986237296 31.9010210628446 -2.5006495995169273
  endloop
endfacet
facet normal -1.087665881106861e-15 -1.4206773123320473e-16 -1.0
  outer loop
    vertex 1.7216825986237296 31.9010210628446 -2.5006495995169273
    vertex 5.721682598623739 31.9010210628446 -2.500649599516933
    vertex 5.4805016437262575 31.801120640339974 -2.500649599516933
  endloop
endfacet
facet normal -1.087665881106861e-15 -1.4206773123320473e-16 -1.0
  outer loop
    vertex 1.7216825986237296 31.9010210628446 -2.5006495995169273
    vertex 5.4805016437262575 31.801120640339974 -2.500649599516933
    vertex 1.9628635535212116 31.801120640339974 -2.5006495995169273
  endloop
endfacet
facet normal -1.087665881106861e-15 -1.4206773123320473e-16 -1.0
  outer loop
    vertex 1.9628635535212116 31.801120640339974 -2.5006495995169273
    vertex 5.4805016437262575 31.801120640339974 -2.500649599516933
    vertex 5.22168259862374 31.76704646662904 -2.500649599516933
  endloop
endfacet
facet normal -1.087665881106861e-15 -1.4206773123320473e-16 -1.0
  outer loop
    vertex 1.9628635535212116 31.801120640339974 -2.5006495995169273
    vertex 5.22168259862374 31.76704646662904 -2.500649599516933
    vertex 2.2216825986237287 31.76704646662904 -2.5006495995169273
  endloop
endfacet
facet normal -1.087665881106861e-15 -1.4206773123320473e-16 -1.0
  outer loop
    vertex 7.34457691594322 34.278271722654644 -2.500649599516933
    vertex 5.850275344456332 35.496217795406274 -2.5006495995169336
    vertex 6.512553004624645 35.678172662830484 -2.5006495995169336
  endloop
endfacet
facet normal -1.087665881106861e-15 -1.4206773123320473e-16 -1.0
  outer loop
    vertex 5.850275344456332 35.496217795406274 -2.5006495995169336
    vertex 7.34457691594322 34.278271722654644 -2.500649599516933
    vertex 4.792129535134919 35.32450436935262 -2.5006495995169336
  endloop
endfacet
facet normal -1.087665881106861e-15 -1.4206773123320473e-16 -1.0
  outer loop
    vertex 4.792129535134919 35.32450436935262 -2.5006495995169336
    vertex 7.34457691594322 34.278271722654644 -2.500649599516933
    vertex 3.721682598623732 35.26704646662904 -2.5006495995169282
  endloop
endfacet
facet normal 0.38268343236508295 -0.9238795325112897 8.212681764917354e-17
  outer loop
    vertex 5.721682598623739 31.9010210628446 -2.500649599516933
    vertex 5.480501643726269 31.801120640339978 22.49935040048306
    vertex 5.4805016437262575 31.801120640339974 -2.500649599516933
  endloop
endfacet
facet normal 0.38268343236508295 -0.9238795325112897 8.212681764917354e-17
  outer loop
    vertex 5.480501643726269 31.801120640339978 22.49935040048306
    vertex 5.721682598623739 31.9010210628446 -2.500649599516933
    vertex 5.721682598623751 31.901021062844606 22.49935040048306
  endloop
endfacet
facet normal -0.7599074192587487 0.4515428443623361 -0.467600014821086
  outer loop
    vertex -2.0434393844075722 35.94159186043757 -0.7997239904654315
    vertex -1.3850819442543214 36.669316317404785 -1.1673602985757336
    vertex -1.8959987151700255 35.809686133431995 -1.1673602985757334
  endloop
endfacet
facet normal -0.7599074192587487 0.4515428443623361 -0.467600014821086
  outer loop
    vertex -1.3850819442543214 36.669316317404785 -1.1673602985757336
    vertex -2.0434393844075722 35.94159186043757 -0.7997239904654315
    vertex -1.5714138369418094 36.735786592938936 -0.8002463918664623
  endloop
endfacet
facet normal -0.7599074192587487 0.4515428443623361 -0.467600014821086
  outer loop
    vertex -1.5714138369418094 36.735786592938936 -0.8002463918664623
    vertex -2.0434393844075722 35.94159186043757 -0.7997239904654315
    vertex -1.667851504042609 36.7306901695904 -0.6486998966121952
  endloop
endfacet
facet normal -0.7599074192587487 0.4515428443623361 -0.467600014821086
  outer loop
    vertex -1.667851504042609 36.7306901695904 -0.6486998966121952
    vertex -2.0434393844075722 35.94159186043757 -0.7997239904654315
    vertex -2.085052963083712 36.02873833045535 -0.6486998966121952
  endloop
endfacet
facet normal 0.405226863601868 0.24084449859931656 -0.8819212643483754
  outer loop
    vertex 8.624870714321807 35.38634164293697 -1.9950584364245698
    vertex 7.881305604691342 36.17322788215127 -2.121821833612485
    vertex 8.09169205576399 36.2834280069741 -1.99505843642457
  endloop
endfacet
facet normal 0.405226863601868 0.24084449859931656 -0.8819212643483754
  outer loop
    vertex 7.881305604691342 36.17322788215127 -2.121821833612485
    vertex 8.624870714321807 35.38634164293697 -1.9950584364245698
    vertex 7.615977829022634 36.06867268877471 -2.272288197050792
  endloop
endfacet
facet normal 0.405226863601868 0.24084449859931656 -0.8819212643483754
  outer loop
    vertex 7.615977829022634 36.06867268877471 -2.272288197050792
    vertex 8.624870714321807 35.38634164293697 -1.9950584364245698
    vertex 8.351464599200993 35.20145438255188 -2.171174591373577
  endloop
endfacet
facet normal 0.405226863601868 0.24084449859931656 -0.8819212643483754
  outer loop
    vertex 7.615977829022634 36.06867268877471 -2.272288197050792
    vertex 8.351464599200993 35.20145438255188 -2.171174591373577
    vertex 8.202850880473981 35.081244172220806 -2.272288197050792
  endloop
endfacet
facet normal 0.7520674601867795 -0.6590861365012974 -1.5146515319824525e-16
  outer loop
    vertex 7.479398618978785 34.432113550246804 22.480194100751742
    vertex 7.34457691594322 34.278271722654644 -2.500649599516933
    vertex 7.479398618978775 34.4321135502468 -2.500649599516933
  endloop
endfacet
facet normal 0.7520674601867795 -0.6590861365012974 -1.5146515319824525e-16
  outer loop
    vertex 7.34457691594322 34.278271722654644 -2.500649599516933
    vertex 7.479398618978785 34.432113550246804 22.480194100751742
    vertex 7.0958154705981284 33.994415974472474 -2.500649599516933
  endloop
endfacet
facet normal 0.7520674601867795 -0.6590861365012974 -1.5146515319824525e-16
  outer loop
    vertex 7.0958154705981284 33.994415974472474 -2.500649599516933
    vertex 7.479398618978785 34.432113550246804 22.480194100751742
    vertex 7.095815470598139 33.99441597447248 22.49935040048306
  endloop
endfacet
facet normal 0.7520674601867795 -0.6590861365012974 -1.5146515319824525e-16
  outer loop
    vertex 7.095815470598139 33.99441597447248 22.49935040048306
    vertex 7.479398618978785 34.432113550246804 22.480194100751742
    vertex 7.344576915943242 34.278271722654665 22.499350400483117
  endloop
endfacet
facet normal -0.853286762044145 -0.5214419447265621 4.98558727882761e-16
  outer loop
    vertex 0.9958146146455794 33.02894353825066 22.49935040048307
    vertex 0.6923393452100525 33.525549982430924 -2.500649599516928
    vertex 0.9958146146455688 33.02894353825065 -2.500649599516928
  endloop
endfacet
facet normal -0.853286762044145 -0.5214419447265621 4.98558727882761e-16
  outer loop
    vertex 0.6923393452100525 33.525549982430924 -2.500649599516928
    vertex 0.9958146146455794 33.02894353825066 22.49935040048307
    vertex 0.6923393452100631 33.52554998243093 22.49935040048307
  endloop
endfacet
facet normal 0.6087614290087267 -0.7933533402912306 -4.7990298583091786e-17
  outer loop
    vertex 5.928789379810284 32.059939685442494 -2.500649599516933
    vertex 5.721682598623751 31.901021062844606 22.49935040048306
    vertex 5.721682598623739 31.9010210628446 -2.500649599516933
  endloop
endfacet
facet normal 0.6087614290087267 -0.7933533402912306 -4.7990298583091786e-17
  outer loop
    vertex 5.721682598623751 31.901021062844606 22.49935040048306
    vertex 5.928789379810284 32.059939685442494 -2.500649599516933
    vertex 5.928789379810295 32.0599396854425 22.49935040048306
  endloop
endfacet
facet normal -0.8947128543955147 -0.44664181194714714 4.970763590846882e-16
  outer loop
    vertex 1.2557567723346899 32.50822742152652 22.49935040048307
    vertex 0.9958146146455688 33.02894353825065 -2.500649599516928
    vertex 1.2557567723346792 32.50822742152651 -2.5006495995169273
  endloop
endfacet
facet normal -0.8947128543955147 -0.44664181194714714 4.970763590846882e-16
  outer loop
    vertex 0.9958146146455688 33.02894353825065 -2.500649599516928
    vertex 1.2557567723346899 32.50822742152652 22.49935040048307
    vertex 0.9958146146455794 33.02894353825066 22.49935040048307
  endloop
endfacet
facet normal 0.13052619222005357 -0.9914448613738103 2.0664712697961934e-16
  outer loop
    vertex 5.4805016437262575 31.801120640339974 -2.500649599516933
    vertex 5.221682598623752 31.767046466629047 22.49935040048306
    vertex 5.22168259862374 31.76704646662904 -2.500649599516933
  endloop
endfacet
facet normal 0.13052619222005357 -0.9914448613738103 2.0664712697961934e-16
  outer loop
    vertex 5.221682598623752 31.767046466629047 22.49935040048306
    vertex 5.4805016437262575 31.801120640339974 -2.500649599516933
    vertex 5.480501643726269 31.801120640339978 22.49935040048306
  endloop
endfacet
facet normal 7.792062269694816e-32 -1.0 2.6412205755832474e-16
  outer loop
    vertex 5.22168259862374 31.76704646662904 -2.500649599516933
    vertex 2.2216825986237394 31.767046466629047 22.49935040048307
    vertex 2.2216825986237287 31.76704646662904 -2.5006495995169273
  endloop
endfacet
facet normal 7.792062269694816e-32 -1.0 2.6412205755832474e-16
  outer loop
    vertex 2.2216825986237394 31.767046466629047 22.49935040048307
    vertex 5.22168259862374 31.76704646662904 -2.500649599516933
    vertex 5.221682598623752 31.767046466629047 22.49935040048306
  endloop
endfacet
facet normal 0.7933533402912268 -0.6087614290087315 -1.7465937515698815e-16
  outer loop
    vertex 6.08770800240819 32.26704646662905 22.49935040048306
    vertex 5.928789379810284 32.059939685442494 -2.500649599516933
    vertex 6.0877080024081796 32.26704646662904 -2.500649599516933
  endloop
endfacet
facet normal 0.7933533402912268 -0.6087614290087315 -1.7465937515698815e-16
  outer loop
    vertex 5.928789379810284 32.059939685442494 -2.500649599516933
    vertex 6.08770800240819 32.26704646662905 22.49935040048306
    vertex 5.928789379810295 32.0599396854425 22.49935040048306
  endloop
endfacet
facet normal 0.7600968445497827 0.4516181079659724 0.4672192969716671
  outer loop
    vertex 9.014779034189306 36.73578659293894 20.798947192832593
    vertex 9.339363912417523 35.809686133432 21.16606109954186
    vertex 9.486804581655058 35.941591860437576 20.798424791431597
  endloop
endfacet
facet normal 0.7600968445497827 0.4516181079659724 0.4672192969716671
  outer loop
    vertex 9.339363912417523 35.809686133432 21.16606109954186
    vertex 9.014779034189306 36.73578659293894 20.798947192832593
    vertex 8.828447141501806 36.66931631740479 21.166061099541903
  endloop
endfacet
facet normal -0.46399362126708893 0.885838540267612 -2.366531471987915e-17
  outer loop
    vertex 8.091692055764012 36.283428006974106 21.993759237390748
    vertex 7.881305604691342 36.17322788215127 -2.121821833612485
    vertex 7.881305604691308 36.173227882151274 22.120522634578638
  endloop
endfacet
facet normal -0.46399362126708893 0.885838540267612 -2.366531471987915e-17
  outer loop
    vertex 7.881305604691342 36.17322788215127 -2.121821833612485
    vertex 8.091692055764012 36.283428006974106 21.993759237390748
    vertex 8.09169205576399 36.2834280069741 -1.99505843642457
  endloop
endfacet
facet normal -0.46399362126708893 0.885838540267612 -2.366531471987915e-17
  outer loop
    vertex 8.09169205576399 36.2834280069741 -1.99505843642457
    vertex 8.091692055764012 36.283428006974106 21.993759237390748
    vertex 8.494964801265263 36.49470355367595 -1.6219699430765762
  endloop
endfacet
facet normal -0.46399362126708893 0.885838540267612 -2.366531471987915e-17
  outer loop
    vertex 8.494964801265263 36.49470355367595 -1.6219699430765762
    vertex 8.091692055764012 36.283428006974106 21.993759237390748
    vertex 8.494964801265315 36.494703553675954 21.62067074404269
  endloop
endfacet
facet normal -0.46399362126708893 0.885838540267612 -2.366531471987915e-17
  outer loop
    vertex 8.494964801265263 36.49470355367595 -1.6219699430765762
    vertex 8.494964801265315 36.494703553675954 21.62067074404269
    vertex 8.828447141501801 36.669316317404785 -1.1673602985757392
  endloop
endfacet
facet normal -0.46399362126708893 0.885838540267612 -2.366531471987915e-17
  outer loop
    vertex 8.828447141501801 36.669316317404785 -1.1673602985757392
    vertex 8.494964801265315 36.494703553675954 21.62067074404269
    vertex 8.828447141501806 36.66931631740479 21.166061099541903
  endloop
endfacet
facet normal 0.805622135737949 -0.592429721071644 -2.0679676580793785e-16
  outer loop
    vertex 7.095815470598139 33.99441597447248 22.49935040048306
    vertex 6.751025852037416 33.525549982430924 -2.500649599516933
    vertex 7.0958154705981284 33.994415974472474 -2.500649599516933
  endloop
endfacet
facet normal 0.805622135737949 -0.592429721071644 -2.0679676580793785e-16
  outer loop
    vertex 6.751025852037416 33.525549982430924 -2.500649599516933
    vertex 7.095815470598139 33.99441597447248 22.49935040048306
    vertex 6.7510258520374276 33.52554998243093 22.49935040048306
  endloop
endfacet
facet normal -0.4872456990252446 -0.8732649247401391 5.420516763975914e-16
  outer loop
    vertex -1.567625577517937 35.62647700918495 -1.6219699430765702
    vertex -1.8959987151700093 35.809686133432 21.166061099541793
    vertex -1.8959987151700255 35.809686133431995 -1.1673602985757334
  endloop
endfacet
facet normal -0.4872456990252446 -0.8732649247401391 5.420516763975914e-16
  outer loop
    vertex -1.8959987151700093 35.809686133432 21.166061099541793
    vertex -1.567625577517937 35.62647700918495 -1.6219699430765702
    vertex -1.5676255775179322 35.62647700918495 21.620670744042645
  endloop
endfacet
facet normal -0.4872456990252446 -0.8732649247401391 5.420516763975914e-16
  outer loop
    vertex -1.5676255775179322 35.62647700918495 21.620670744042645
    vertex -1.567625577517937 35.62647700918495 -1.6219699430765702
    vertex -1.390206401577374 35.527472849013634 -1.788647971010902
  endloop
endfacet
facet normal -0.4872456990252446 -0.8732649247401391 5.420516763975914e-16
  outer loop
    vertex -1.5676255775179322 35.62647700918495 21.620670744042645
    vertex -1.390206401577374 35.527472849013634 -1.788647971010902
    vertex -1.390206401577352 35.52747284901364 21.787348771977
  endloop
endfacet
facet normal 0.8185408599001749 0.4864330841028723 -0.30557112979476664
  outer loop
    vertex 9.209597502770167 36.72549105778291 -0.38671542093474226
    vertex 9.528418160331192 36.02873833045535 -0.6486998966122008
    vertex 9.111216701290111 36.7306901695904 -0.6486998966122008
  endloop
endfacet
facet normal 0.8185408599001749 0.4864330841028723 -0.30557112979476664
  outer loop
    vertex 9.528418160331192 36.02873833045535 -0.6486998966122008
    vertex 9.209597502770167 36.72549105778291 -0.38671542093474226
    vertex 9.570870216106544 36.11764072538311 -0.38642172718259726
  endloop
endfacet
facet normal 0.8185408599001749 0.4864330841028723 -0.30557112979476664
  outer loop
    vertex 9.570870216106544 36.11764072538311 -0.38642172718259726
    vertex 9.209597502770167 36.72549105778291 -0.38671542093474226
    vertex 9.377228901170616 36.63642254545819 -0.08592056556532059
  endloop
endfacet
facet normal 0.8185408599001749 0.4864330841028723 -0.30557112979476664
  outer loop
    vertex 9.570870216106544 36.11764072538311 -0.38642172718259726
    vertex 9.377228901170616 36.63642254545819 -0.08592056556532059
    vertex 9.572748284717573 36.30745631609085 -0.08592056556532059
  endloop
endfacet
facet normal 0.6930142833164751 -0.7209238538981441 -5.38953689510523e-16
  outer loop
    vertex 7.768696211344191 34.710211386175324 -2.443005440726622
    vertex 7.479398618978785 34.432113550246804 22.480194100751742
    vertex 7.479398618978775 34.4321135502468 -2.500649599516933
  endloop
endfacet
facet normal 0.6930142833164751 -0.7209238538981441 -5.38953689510523e-16
  outer loop
    vertex 7.479398618978785 34.432113550246804 22.480194100751742
    vertex 7.768696211344191 34.710211386175324 -2.443005440726622
    vertex 7.768696211344242 34.71021138617533 22.44170624169281
  endloop
endfacet
facet normal 0.6930142833164751 -0.7209238538981441 -5.38953689510523e-16
  outer loop
    vertex 7.768696211344242 34.71021138617533 22.44170624169281
    vertex 7.768696211344191 34.710211386175324 -2.443005440726622
    vertex 7.898970851356355 34.835442623557945 -2.3896252966403435
  endloop
endfacet
facet normal 0.6930142833164751 -0.7209238538981441 -5.38953689510523e-16
  outer loop
    vertex 7.768696211344242 34.71021138617533 22.44170624169281
    vertex 7.898970851356355 34.835442623557945 -2.3896252966403435
    vertex 7.8989708513563714 34.83544262355795 22.388326097606463
  endloop
endfacet
facet normal -0.9238795325113066 -0.3826834323650421 4.91921731381556e-16
  outer loop
    vertex 1.3556571948393001 32.26704646662905 22.49935040048307
    vertex 1.2557567723346792 32.50822742152651 -2.5006495995169273
    vertex 1.3556571948392895 32.26704646662904 -2.5006495995169273
  endloop
endfacet
facet normal -0.9238795325113066 -0.3826834323650421 4.91921731381556e-16
  outer loop
    vertex 1.2557567723346792 32.50822742152651 -2.5006495995169273
    vertex 1.3556571948393001 32.26704646662905 22.49935040048307
    vertex 1.2557567723346899 32.50822742152652 22.49935040048307
  endloop
endfacet
facet normal -0.7593820451183062 0.45116166292602833 0.46881986248212615
  outer loop
    vertex -2.085052963083713 36.028738330455354 20.64740069757832
    vertex -1.571413836941748 36.73578659293894 20.798947192832525
    vertex -1.6678515040425983 36.7306901695904 20.647400697578288
  endloop
endfacet
facet normal -0.7593820451183062 0.45116166292602833 0.46881986248212615
  outer loop
    vertex -1.571413836941748 36.73578659293894 20.798947192832525
    vertex -2.085052963083713 36.028738330455354 20.64740069757832
    vertex -2.043439384407601 35.941591860437576 20.79842479143153
  endloop
endfacet
facet normal -0.264924343942971 0.964269200994404 1.7468406627869163e-16
  outer loop
    vertex 5.850275344456343 35.49621779540628 22.49935040048306
    vertex 6.512553004624645 35.678172662830484 -2.5006495995169336
    vertex 5.850275344456332 35.496217795406274 -2.5006495995169336
  endloop
endfacet
facet normal -0.264924343942971 0.964269200994404 1.7468406627869163e-16
  outer loop
    vertex 6.512553004624645 35.678172662830484 -2.5006495995169336
    vertex 5.850275344456343 35.49621779540628 22.49935040048306
    vertex 6.51255300462473 35.67817266283049 22.49935040048309
  endloop
endfacet
facet normal -0.264924343942971 0.964269200994404 1.7468406627869163e-16
  outer loop
    vertex 6.512553004624645 35.678172662830484 -2.5006495995169336
    vertex 6.51255300462473 35.67817266283049 22.49935040048309
    vertex 6.883960258792063 35.780213486123905 -2.4640691778369583
  endloop
endfacet
facet normal -0.264924343942971 0.964269200994404 1.7468406627869163e-16
  outer loop
    vertex 6.883960258792063 35.780213486123905 -2.4640691778369583
    vertex 6.51255300462473 35.67817266283049 22.49935040048309
    vertex 6.883960258792092 35.780213486123905 22.462769978803067
  endloop
endfacet
facet normal -0.8205280585597815 0.48761486461665043 0.2982707644423128
  outer loop
    vertex -2.085052963083713 36.028738330455354 20.64740069757832
    vertex -1.766232305522676 36.72549105778292 20.38541622190081
    vertex -2.1275050188590807 36.11764072538312 20.385122528148685
  endloop
endfacet
facet normal -0.8205280585597815 0.48761486461665043 0.2982707644423128
  outer loop
    vertex -1.766232305522676 36.72549105778292 20.38541622190081
    vertex -2.085052963083713 36.028738330455354 20.64740069757832
    vertex -1.6678515040425983 36.7306901695904 20.647400697578288
  endloop
endfacet
facet normal 0.9023967110526876 -0.43090622631994135 -4.205675792951052e-16
  outer loop
    vertex 9.528418160331192 36.02873833045535 -0.6486998966122008
    vertex 9.486804581655058 35.941591860437576 20.798424791431597
    vertex 9.486804581655075 35.94159186043757 -0.7997239904654372
  endloop
endfacet
facet normal 0.9023967110526876 -0.43090622631994135 -4.205675792951052e-16
  outer loop
    vertex 9.486804581655058 35.941591860437576 20.798424791431597
    vertex 9.528418160331192 36.02873833045535 -0.6486998966122008
    vertex 9.570870216106544 36.11764072538311 -0.38642172718259726
  endloop
endfacet
facet normal 0.9023967110526876 -0.43090622631994135 -4.205675792951052e-16
  outer loop
    vertex 9.486804581655058 35.941591860437576 20.798424791431597
    vertex 9.570870216106544 36.11764072538311 -0.38642172718259726
    vertex 9.570870216106595 36.11764072538312 20.385122528148706
  endloop
endfacet
facet normal 0.9023967110526876 -0.43090622631994135 -4.205675792951052e-16
  outer loop
    vertex 9.486804581655058 35.941591860437576 20.798424791431597
    vertex 9.570870216106595 36.11764072538312 20.385122528148706
    vertex 9.528418160331197 36.028738330455354 20.647400697578377
  endloop
endfacet
facet normal 0.08425849237400504 0.050078600831630384 0.9951847266721924
  outer loop
    vertex 6.883960258792092 35.780213486123905 22.462769978803067
    vertex 7.768696211344242 34.71021138617533 22.44170624169281
    vertex 7.0855354820007275 35.85964631741865 22.441706241692742
  endloop
endfacet
facet normal 0.08425849237400504 0.050078600831630384 0.9951847266721924
  outer loop
    vertex 7.768696211344242 34.71021138617533 22.44170624169281
    vertex 6.883960258792092 35.780213486123905 22.462769978803067
    vertex 6.51255300462473 35.67817266283049 22.49935040048309
  endloop
endfacet
facet normal 0.08425849237400504 0.050078600831630384 0.9951847266721924
  outer loop
    vertex 7.768696211344242 34.71021138617533 22.44170624169281
    vertex 6.51255300462473 35.67817266283049 22.49935040048309
    vertex 7.479398618978785 34.432113550246804 22.480194100751742
  endloop
endfacet
facet normal 0.08425849237400504 0.050078600831630384 0.9951847266721924
  outer loop
    vertex 7.479398618978785 34.432113550246804 22.480194100751742
    vertex 6.51255300462473 35.67817266283049 22.49935040048309
    vertex 7.344576915943242 34.278271722654665 22.499350400483117
  endloop
endfacet
facet normal -0.6667531082419519 -0.7452786677811837 2.1570255661957568e-17
  outer loop
    vertex -2.0434393844075722 35.94159186043757 -0.7997239904654315
    vertex -1.8959987151700093 35.809686133432 21.166061099541793
    vertex -2.043439384407601 35.941591860437576 20.79842479143153
  endloop
endfacet
facet normal -0.6667531082419519 -0.7452786677811837 2.1570255661957568e-17
  outer loop
    vertex -1.8959987151700093 35.809686133432 21.166061099541793
    vertex -2.0434393844075722 35.94159186043757 -0.7997239904654315
    vertex -1.8959987151700255 35.809686133431995 -1.1673602985757334
  endloop
endfacet
facet normal 0.9238795325113066 -0.3826834323650421 -2.8976876239595053e-16
  outer loop
    vertex 6.187608424912801 32.50822742152652 22.49935040048306
    vertex 6.0877080024081796 32.26704646662904 -2.500649599516933
    vertex 6.187608424912789 32.50822742152651 -2.500649599516933
  endloop
endfacet
facet normal 0.9238795325113066 -0.3826834323650421 -2.8976876239595053e-16
  outer loop
    vertex 6.0877080024081796 32.26704646662904 -2.500649599516933
    vertex 6.187608424912801 32.50822742152652 22.49935040048306
    vertex 6.08770800240819 32.26704646662905 22.49935040048306
  endloop
endfacet
facet normal -0.9023967110526536 -0.43090622632001213 3.845306911196592e-16
  outer loop
    vertex -2.043439384407601 35.941591860437576 20.79842479143153
    vertex -2.085052963083712 36.02873833045535 -0.6486998966121952
    vertex -2.0434393844075722 35.94159186043757 -0.7997239904654315
  endloop
endfacet
facet normal -0.9023967110526536 -0.43090622632001213 3.845306911196592e-16
  outer loop
    vertex -2.085052963083712 36.02873833045535 -0.6486998966121952
    vertex -2.043439384407601 35.941591860437576 20.79842479143153
    vertex -2.127505018859131 36.11764072538311 -0.3864217271825916
  endloop
endfacet
facet normal -0.9023967110526536 -0.43090622632001213 3.845306911196592e-16
  outer loop
    vertex -2.127505018859131 36.11764072538311 -0.3864217271825916
    vertex -2.043439384407601 35.941591860437576 20.79842479143153
    vertex -2.1275050188590807 36.11764072538312 20.385122528148685
  endloop
endfacet
facet normal -0.9023967110526536 -0.43090622632001213 3.845306911196592e-16
  outer loop
    vertex -2.1275050188590807 36.11764072538312 20.385122528148685
    vertex -2.043439384407601 35.941591860437576 20.79842479143153
    vertex -2.085052963083713 36.028738330455354 20.64740069757832
  endloop
endfacet
facet normal -0.33599195292125744 0.941864856320778 3.3507889493427745e-16
  outer loop
    vertex 8.828447141501806 36.66931631740479 21.166061099541903
    vertex 9.014779034189234 36.735786592938936 -0.800246391866468
    vertex 8.828447141501801 36.669316317404785 -1.1673602985757392
  endloop
endfacet
facet normal -0.33599195292125744 0.941864856320778 3.3507889493427745e-16
  outer loop
    vertex 9.014779034189234 36.735786592938936 -0.800246391866468
    vertex 8.828447141501806 36.66931631740479 21.166061099541903
    vertex 9.014779034189306 36.73578659293894 20.798947192832593
  endloop
endfacet
facet normal -0.9999510562471969 -0.009893690419418243 1.6330487036940733e-15
  outer loop
    vertex -2.1275050188590807 36.11764072538312 20.385122528148685
    vertex -2.129383087470081 36.30745631609085 -0.08592056556531495
    vertex -2.127505018859131 36.11764072538311 -0.3864217271825916
  endloop
endfacet
facet normal -0.9999510562471969 -0.009893690419418243 1.6330487036940733e-15
  outer loop
    vertex -2.129383087470081 36.30745631609085 -0.08592056556531495
    vertex -2.1275050188590807 36.11764072538312 20.385122528148685
    vertex -2.129383087470065 36.30745631609086 20.084621366531373
  endloop
endfacet
facet normal 0.8205280585597687 0.4876148646166257 0.2982707644423881
  outer loop
    vertex 9.209597502770206 36.72549105778292 20.385416221900858
    vertex 9.528418160331197 36.028738330455354 20.647400697578377
    vertex 9.570870216106595 36.11764072538312 20.385122528148706
  endloop
endfacet
facet normal 0.8205280585597687 0.4876148646166257 0.2982707644423881
  outer loop
    vertex 9.528418160331197 36.028738330455354 20.647400697578377
    vertex 9.209597502770206 36.72549105778292 20.385416221900858
    vertex 9.111216701290083 36.7306901695904 20.647400697578355
  endloop
endfacet
facet normal -0.40522686360189814 0.2408444985993282 0.8819212643483583
  outer loop
    vertex -1.181505517074338 35.386341642936976 21.993759237390645
    vertex -0.43794040744385127 36.173227882151274 22.12052263457858
    vertex -0.6483268585164654 36.283428006974106 21.993759237390623
  endloop
endfacet
facet normal -0.40522686360189814 0.2408444985993282 0.8819212643483583
  outer loop
    vertex -0.43794040744385127 36.173227882151274 22.12052263457858
    vertex -1.181505517074338 35.386341642936976 21.993759237390645
    vertex -0.17261263177518213 36.06867268877472 22.27098899801688
  endloop
endfacet
facet normal -0.40522686360189814 0.2408444985993282 0.8819212643483583
  outer loop
    vertex -0.17261263177518213 36.06867268877472 22.27098899801688
    vertex -1.181505517074338 35.386341642936976 21.993759237390645
    vertex -0.9080994019535085 35.20145438255189 22.169875392339645
  endloop
endfacet
facet normal -0.40522686360189814 0.2408444985993282 0.8819212643483583
  outer loop
    vertex -0.17261263177518213 36.06867268877472 22.27098899801688
    vertex -0.9080994019535085 35.20145438255189 22.169875392339645
    vertex -0.7594856832265254 35.08124417222081 22.270988998016843
  endloop
endfacet
facet normal 0.33599195292126666 0.9418648563207745 -7.576236656314333e-16
  outer loop
    vertex -1.571413836941748 36.73578659293894 20.798947192832525
    vertex -1.3850819442543214 36.669316317404785 -1.1673602985757336
    vertex -1.5714138369418094 36.735786592938936 -0.8002463918664623
  endloop
endfacet
facet normal 0.33599195292126666 0.9418648563207745 -7.576236656314333e-16
  outer loop
    vertex -1.3850819442543214 36.669316317404785 -1.1673602985757336
    vertex -1.571413836941748 36.73578659293894 20.798947192832525
    vertex -1.3850819442543165 36.66931631740479 21.166061099541803
  endloop
endfacet
facet normal 0.8596301839727423 0.5109167709157624 -1.7030609578841235e-15
  outer loop
    vertex 9.377228901170668 36.636422545458196 20.08462136653146
    vertex 9.572748284717573 36.30745631609085 -0.08592056556532059
    vertex 9.377228901170616 36.63642254545819 -0.08592056556532059
  endloop
endfacet
facet normal 0.8596301839727423 0.5109167709157624 -1.7030609578841235e-15
  outer loop
    vertex 9.572748284717573 36.30745631609085 -0.08592056556532059
    vertex 9.377228901170668 36.636422545458196 20.08462136653146
    vertex 9.572748284717596 36.30745631609086 20.084621366531508
  endloop
endfacet
facet normal 0.16018224300696676 0.987087457637497 -3.390134330119262e-16
  outer loop
    vertex 1.593089852791148 35.49621779540628 22.49935040048307
    vertex 2.651235662112551 35.32450436935262 -2.5006495995169282
    vertex 1.5930898527911372 35.496217795406274 -2.5006495995169282
  endloop
endfacet
facet normal 0.16018224300696676 0.987087457637497 -3.390134330119262e-16
  outer loop
    vertex 2.651235662112551 35.32450436935262 -2.5006495995169282
    vertex 1.593089852791148 35.49621779540628 22.49935040048307
    vertex 2.651235662112561 35.324504369352624 22.49935040048307
  endloop
endfacet
facet normal 0.9999510562471945 -0.009893690419670762 -1.7977130239730854e-15
  outer loop
    vertex 9.572748284717573 36.30745631609085 -0.08592056556532059
    vertex 9.570870216106595 36.11764072538312 20.385122528148706
    vertex 9.570870216106544 36.11764072538311 -0.38642172718259726
  endloop
endfacet
facet normal 0.9999510562471945 -0.009893690419670762 -1.7977130239730854e-15
  outer loop
    vertex 9.570870216106595 36.11764072538312 20.385122528148706
    vertex 9.572748284717573 36.30745631609085 -0.08592056556532059
    vertex 9.572748284717596 36.30745631609086 20.084621366531508
  endloop
endfacet
facet normal 0.24953747051272004 0.14831130994918024 0.9569403357322083
  outer loop
    vertex 7.0855354820007275 35.85964631741865 22.441706241692742
    vertex 8.202850880474022 35.08124417222081 22.270988998016957
    vertex 7.615977829022667 36.06867268877472 22.27098899801691
  endloop
endfacet
facet normal 0.24953747051272004 0.14831130994918024 0.9569403357322083
  outer loop
    vertex 8.202850880474022 35.08124417222081 22.270988998016957
    vertex 7.0855354820007275 35.85964631741865 22.441706241692742
    vertex 7.8989708513563714 34.83544262355795 22.388326097606463
  endloop
endfacet
facet normal 0.24953747051272004 0.14831130994918024 0.9569403357322083
  outer loop
    vertex 7.8989708513563714 34.83544262355795 22.388326097606463
    vertex 7.0855354820007275 35.85964631741865 22.441706241692742
    vertex 7.768696211344242 34.71021138617533 22.44170624169281
  endloop
endfacet
facet normal 0.8532867620441448 -0.5214419447265621 -2.4755381218465453e-16
  outer loop
    vertex 6.7510258520374276 33.52554998243093 22.49935040048306
    vertex 6.4475505826019 33.02894353825065 -2.500649599516933
    vertex 6.751025852037416 33.525549982430924 -2.500649599516933
  endloop
endfacet
facet normal 0.8532867620441448 -0.5214419447265621 -2.4755381218465453e-16
  outer loop
    vertex 6.4475505826019 33.02894353825065 -2.500649599516933
    vertex 6.7510258520374276 33.52554998243093 22.49935040048306
    vertex 6.447550582601911 33.02894353825066 22.49935040048306
  endloop
endfacet
facet normal -0.8185408599001582 0.4864330841028836 -0.3055711297947935
  outer loop
    vertex -2.127505018859131 36.11764072538311 -0.3864217271825916
    vertex -1.667851504042609 36.7306901695904 -0.6486998966121952
    vertex -2.085052963083712 36.02873833045535 -0.6486998966121952
  endloop
endfacet
facet normal -0.8185408599001582 0.4864330841028836 -0.3055711297947935
  outer loop
    vertex -1.667851504042609 36.7306901695904 -0.6486998966121952
    vertex -2.127505018859131 36.11764072538311 -0.3864217271825916
    vertex -1.7662323055227147 36.72549105778291 -0.38671542093473665
  endloop
endfacet
facet normal -0.8185408599001582 0.4864330841028836 -0.3055711297947935
  outer loop
    vertex -1.7662323055227147 36.72549105778291 -0.38671542093473665
    vertex -2.127505018859131 36.11764072538311 -0.3864217271825916
    vertex -1.9338637039231703 36.63642254545819 -0.08592056556531495
  endloop
endfacet
facet normal -0.8185408599001582 0.4864330841028836 -0.3055711297947935
  outer loop
    vertex -1.9338637039231703 36.63642254545819 -0.08592056556531495
    vertex -2.127505018859131 36.11764072538311 -0.3864217271825916
    vertex -2.129383087470081 36.30745631609085 -0.08592056556531495
  endloop
endfacet
facet normal 1.0 -1.922992971970492e-31 -4.229949723821846e-16
  outer loop
    vertex 2.0966825986237394 34.26704646662905 22.49935040048307
    vertex 2.096682598623729 32.51704646662904 -2.5006495995169273
    vertex 2.096682598623729 34.26704646662904 -2.500649599516928
  endloop
endfacet
facet normal 1.0 -1.922992971970492e-31 -4.229949723821846e-16
  outer loop
    vertex 2.096682598623729 32.51704646662904 -2.5006495995169273
    vertex 2.0966825986237394 34.26704646662905 22.49935040048307
    vertex 2.0966825986237394 32.51704646662905 22.49935040048307
  endloop
endfacet
facet normal -0.0527731721883037 0.9986065252626702 -1.7822683247817975e-16
  outer loop
    vertex -1.766232305522676 36.72549105778292 20.38541622190081
    vertex -1.667851504042609 36.7306901695904 -0.6486998966121952
    vertex -1.7662323055227147 36.72549105778291 -0.38671542093473665
  endloop
endfacet
facet normal -0.0527731721883037 0.9986065252626702 -1.7822683247817975e-16
  outer loop
    vertex -1.667851504042609 36.7306901695904 -0.6486998966121952
    vertex -1.766232305522676 36.72549105778292 20.38541622190081
    vertex -1.6678515040425983 36.7306901695904 20.647400697578288
  endloop
endfacet
facet normal -0.0527731721883037 0.9986065252626702 -1.7822683247817975e-16
  outer loop
    vertex -1.667851504042609 36.7306901695904 -0.6486998966121952
    vertex -1.6678515040425983 36.7306901695904 20.647400697578288
    vertex -1.5714138369418094 36.735786592938936 -0.8002463918664623
  endloop
endfacet
facet normal -0.0527731721883037 0.9986065252626702 -1.7822683247817975e-16
  outer loop
    vertex -1.5714138369418094 36.735786592938936 -0.8002463918664623
    vertex -1.6678515040425983 36.7306901695904 20.647400697578288
    vertex -1.571413836941748 36.73578659293894 20.798947192832525
  endloop
endfacet
facet normal -0.38268343236508295 -0.9238795325112897 4.0574230598055996e-16
  outer loop
    vertex 1.9628635535212116 31.801120640339974 -2.5006495995169273
    vertex 1.7216825986237403 31.901021062844606 22.49935040048307
    vertex 1.7216825986237296 31.9010210628446 -2.5006495995169273
  endloop
endfacet
facet normal -0.38268343236508295 -0.9238795325112897 4.0574230598055996e-16
  outer loop
    vertex 1.7216825986237403 31.901021062844606 22.49935040048307
    vertex 1.9628635535212116 31.801120640339974 -2.5006495995169273
    vertex 1.9628635535212222 31.801120640339978 22.49935040048307
  endloop
endfacet
facet normal 0.5453436155766965 0.3241221682354932 0.7730104533627336
  outer loop
    vertex 8.091692055764012 36.283428006974106 21.993759237390748
    vertex 9.01099077476544 35.62647700918495 21.620670744042723
    vertex 8.494964801265315 36.494703553675954 21.62067074404269
  endloop
endfacet
facet normal 0.5453436155766965 0.3241221682354932 0.7730104533627336
  outer loop
    vertex 9.01099077476544 35.62647700918495 21.620670744042723
    vertex 8.091692055764012 36.283428006974106 21.993759237390748
    vertex 8.833571598824838 35.52747284901364 21.78734877197707
  endloop
endfacet
facet normal 0.5453436155766965 0.3241221682354932 0.7730104533627336
  outer loop
    vertex 8.833571598824838 35.52747284901364 21.78734877197707
    vertex 8.091692055764012 36.283428006974106 21.993759237390748
    vertex 8.624870714321744 35.386341642936976 21.9937592373907
  endloop
endfacet
facet normal 0.366622045442261 0.9303699671613078 -9.609859217384297e-16
  outer loop
    vertex -0.17261263177518213 36.06867268877472 22.27098899801688
    vertex -0.43794040744385054 36.17322788215127 -2.1218218336124792
    vertex -0.43794040744385127 36.173227882151274 22.12052263457858
  endloop
endfacet
facet normal 0.366622045442261 0.9303699671613078 -9.609859217384297e-16
  outer loop
    vertex -0.43794040744385054 36.17322788215127 -2.1218218336124792
    vertex -0.17261263177518213 36.06867268877472 22.27098899801688
    vertex -0.17261263177519837 36.06867268877471 -2.2722881970507864
  endloop
endfacet
facet normal 0.366622045442261 0.9303699671613078 -9.609859217384297e-16
  outer loop
    vertex -0.17261263177519837 36.06867268877471 -2.2722881970507864
    vertex -0.17261263177518213 36.06867268877472 22.27098899801688
    vertex 0.3578297152467418 35.85964631741865 -2.4430054407266164
  endloop
endfacet
facet normal 0.366622045442261 0.9303699671613078 -9.609859217384297e-16
  outer loop
    vertex 0.3578297152467418 35.85964631741865 -2.4430054407266164
    vertex -0.17261263177518213 36.06867268877472 22.27098899801688
    vertex 0.3578297152468313 35.85964631741865 22.44170624169272
  endloop
endfacet
facet normal 0.366622045442261 0.9303699671613078 -9.609859217384297e-16
  outer loop
    vertex 0.3578297152467418 35.85964631741865 -2.4430054407266164
    vertex 0.3578297152468313 35.85964631741865 22.44170624169272
    vertex 0.5594049384553547 35.780213486123905 -2.4640691778369526
  endloop
endfacet
facet normal 0.366622045442261 0.9303699671613078 -9.609859217384297e-16
  outer loop
    vertex 0.5594049384553547 35.780213486123905 -2.4640691778369526
    vertex 0.3578297152468313 35.85964631741865 22.44170624169272
    vertex 0.5594049384554385 35.780213486123905 22.462769978803056
  endloop
endfacet
facet normal -0.16018224300696673 0.987087457637497 -2.0362734449401574e-16
  outer loop
    vertex 4.792129535134929 35.324504369352624 22.49935040048306
    vertex 5.850275344456332 35.496217795406274 -2.5006495995169336
    vertex 4.792129535134919 35.32450436935262 -2.5006495995169336
  endloop
endfacet
facet normal -0.16018224300696673 0.987087457637497 -2.0362734449401574e-16
  outer loop
    vertex 5.850275344456332 35.496217795406274 -2.5006495995169336
    vertex 4.792129535134929 35.324504369352624 22.49935040048306
    vertex 5.850275344456343 35.49621779540628 22.49935040048306
  endloop
endfacet
facet normal 0.4872456990252388 -0.8732649247401425 -1.924619161952355e-16
  outer loop
    vertex 9.010990774765418 35.62647700918495 -1.6219699430765757
    vertex 8.833571598824838 35.52747284901364 21.78734877197707
    vertex 8.833571598824838 35.527472849013634 -1.7886479710109076
  endloop
endfacet
facet normal 0.4872456990252388 -0.8732649247401425 -1.924619161952355e-16
  outer loop
    vertex 8.833571598824838 35.52747284901364 21.78734877197707
    vertex 9.010990774765418 35.62647700918495 -1.6219699430765757
    vertex 9.01099077476544 35.62647700918495 21.620670744042723
  endloop
endfacet
facet normal 0.4872456990252388 -0.8732649247401425 -1.924619161952355e-16
  outer loop
    vertex 9.01099077476544 35.62647700918495 21.620670744042723
    vertex 9.010990774765418 35.62647700918495 -1.6219699430765757
    vertex 9.339363912417483 35.809686133431995 -1.167360298575739
  endloop
endfacet
facet normal 0.4872456990252388 -0.8732649247401425 -1.924619161952355e-16
  outer loop
    vertex 9.01099077476544 35.62647700918495 21.620670744042723
    vertex 9.339363912417483 35.809686133431995 -1.167360298575739
    vertex 9.339363912417523 35.809686133432 21.16606109954186
  endloop
endfacet
facet normal -0.8168800162183786 0.48539197434979714 0.3116114091939951
  outer loop
    vertex -2.1275050188590807 36.11764072538312 20.385122528148685
    vertex -1.933863703923137 36.636422545458196 20.084621366531394
    vertex -2.129383087470065 36.30745631609086 20.084621366531373
  endloop
endfacet
facet normal -0.8168800162183786 0.48539197434979714 0.3116114091939951
  outer loop
    vertex -1.933863703923137 36.636422545458196 20.084621366531394
    vertex -2.1275050188590807 36.11764072538312 20.385122528148685
    vertex -1.766232305522676 36.72549105778292 20.38541622190081
  endloop
endfacet
facet normal -0.859630183972768 0.5109167709157187 9.09887879085681e-16
  outer loop
    vertex -2.129383087470065 36.30745631609086 20.084621366531373
    vertex -1.9338637039231703 36.63642254545819 -0.08592056556531495
    vertex -2.129383087470081 36.30745631609085 -0.08592056556531495
  endloop
endfacet
facet normal -0.859630183972768 0.5109167709157187 9.09887879085681e-16
  outer loop
    vertex -1.9338637039231703 36.63642254545819 -0.08592056556531495
    vertex -2.129383087470065 36.30745631609086 20.084621366531373
    vertex -1.933863703923137 36.636422545458196 20.084621366531394
  endloop
endfacet
facet normal 6.041798151537554e-32 -1.0 2.6412205755832474e-16
  outer loop
    vertex 5.34668259862374 34.26704646662904 -2.500649599516933
    vertex 2.0966825986237394 34.26704646662905 22.49935040048307
    vertex 2.096682598623729 34.26704646662904 -2.500649599516928
  endloop
endfacet
facet normal 6.041798151537554e-32 -1.0 2.6412205755832474e-16
  outer loop
    vertex 2.0966825986237394 34.26704646662905 22.49935040048307
    vertex 5.34668259862374 34.26704646662904 -2.500649599516933
    vertex 5.346682598623751 34.26704646662905 22.49935040048306
  endloop
endfacet
facet normal -0.7933533402912267 -0.6087614290087315 4.96415889375549e-16
  outer loop
    vertex 1.5145758174371957 32.0599396854425 22.49935040048307
    vertex 1.3556571948392895 32.26704646662904 -2.5006495995169273
    vertex 1.514575817437185 32.059939685442494 -2.5006495995169273
  endloop
endfacet
facet normal -0.7933533402912267 -0.6087614290087315 4.96415889375549e-16
  outer loop
    vertex 1.3556571948392895 32.26704646662904 -2.5006495995169273
    vertex 1.5145758174371957 32.0599396854425 22.49935040048307
    vertex 1.3556571948393001 32.26704646662905 22.49935040048307
  endloop
endfacet
facet normal -0.05359939492362709 0.9985625192564667 -2.55161655993688e-16
  outer loop
    vertex 3.721682598623742 35.26704646662905 22.49935040048307
    vertex 4.792129535134919 35.32450436935262 -2.5006495995169336
    vertex 3.721682598623732 35.26704646662904 -2.5006495995169282
  endloop
endfacet
facet normal -0.05359939492362709 0.9985625192564667 -2.55161655993688e-16
  outer loop
    vertex 4.792129535134919 35.32450436935262 -2.5006495995169336
    vertex 3.721682598623742 35.26704646662905 22.49935040048307
    vertex 4.792129535134929 35.324504369352624 22.49935040048306
  endloop
endfacet
facet normal 0.05277317218830413 0.99860652526267 -3.4747143995789124e-16
  outer loop
    vertex 9.014779034189306 36.73578659293894 20.798947192832593
    vertex 9.111216701290111 36.7306901695904 -0.6486998966122008
    vertex 9.014779034189234 36.735786592938936 -0.800246391866468
  endloop
endfacet
facet normal 0.05277317218830413 0.99860652526267 -3.4747143995789124e-16
  outer loop
    vertex 9.111216701290111 36.7306901695904 -0.6486998966122008
    vertex 9.014779034189306 36.73578659293894 20.798947192832593
    vertex 9.111216701290083 36.7306901695904 20.647400697578355
  endloop
endfacet
facet normal 0.05277317218830413 0.99860652526267 -3.4747143995789124e-16
  outer loop
    vertex 9.111216701290111 36.7306901695904 -0.6486998966122008
    vertex 9.111216701290083 36.7306901695904 20.647400697578355
    vertex 9.209597502770206 36.72549105778292 20.385416221900858
  endloop
endfacet
facet normal 0.05277317218830413 0.99860652526267 -3.4747143995789124e-16
  outer loop
    vertex 9.111216701290111 36.7306901695904 -0.6486998966122008
    vertex 9.209597502770206 36.72549105778292 20.385416221900858
    vertex 9.209597502770167 36.72549105778291 -0.38671542093474226
  endloop
endfacet
facet normal 0.46399362126708915 0.8858385402676118 -7.910111726231623e-16
  outer loop
    vertex -1.3850819442543165 36.66931631740479 21.166061099541803
    vertex -1.051599604017829 36.49470355367595 -1.6219699430765704
    vertex -1.3850819442543214 36.669316317404785 -1.1673602985757336
  endloop
endfacet
facet normal 0.46399362126708915 0.8858385402676118 -7.910111726231623e-16
  outer loop
    vertex -1.051599604017829 36.49470355367595 -1.6219699430765704
    vertex -1.3850819442543165 36.66931631740479 21.166061099541803
    vertex -1.0515996040178015 36.494703553675954 21.620670744042666
  endloop
endfacet
facet normal 0.46399362126708915 0.8858385402676118 -7.910111726231623e-16
  outer loop
    vertex -1.051599604017829 36.49470355367595 -1.6219699430765704
    vertex -1.0515996040178015 36.494703553675954 21.620670744042666
    vertex -0.6483268585165437 36.2834280069741 -1.9950584364245645
  endloop
endfacet
facet normal 0.46399362126708915 0.8858385402676118 -7.910111726231623e-16
  outer loop
    vertex -0.6483268585165437 36.2834280069741 -1.9950584364245645
    vertex -1.0515996040178015 36.494703553675954 21.620670744042666
    vertex -0.6483268585164654 36.283428006974106 21.993759237390623
  endloop
endfacet
facet normal 0.46399362126708915 0.8858385402676118 -7.910111726231623e-16
  outer loop
    vertex -0.6483268585165437 36.2834280069741 -1.9950584364245645
    vertex -0.6483268585164654 36.283428006974106 21.993759237390623
    vertex -0.43794040744385054 36.17322788215127 -2.1218218336124792
  endloop
endfacet
facet normal 0.46399362126708915 0.8858385402676118 -7.910111726231623e-16
  outer loop
    vertex -0.43794040744385054 36.17322788215127 -2.1218218336124792
    vertex -0.6483268585164654 36.283428006974106 21.993759237390623
    vertex -0.43794040744385127 36.173227882151274 22.12052263457858
  endloop
endfacet
facet normal -1.2249702015486703e-15 1.6013830034980216e-16 1.0
  outer loop
    vertex 0.34754972664935135 33.99441597447248 22.49935040048307
    vertex 2.0966825986237394 34.26704646662905 22.49935040048307
    vertex 0.09878828130426545 34.27827172265465 22.49935040048304
  endloop
endfacet
facet normal -1.2249702015486703e-15 1.6013830034980216e-16 1.0
  outer loop
    vertex 2.0966825986237394 34.26704646662905 22.49935040048307
    vertex 0.34754972664935135 33.99441597447248 22.49935040048307
    vertex 2.0966825986237394 32.51704646662905 22.49935040048307
  endloop
endfacet
facet normal -1.2249702015486703e-15 1.6013830034980216e-16 1.0
  outer loop
    vertex 2.0966825986237394 32.51704646662905 22.49935040048307
    vertex 0.34754972664935135 33.99441597447248 22.49935040048307
    vertex 0.6923393452100631 33.52554998243093 22.49935040048307
  endloop
endfacet
facet normal -1.2249702015486703e-15 1.6013830034980216e-16 1.0
  outer loop
    vertex 2.0966825986237394 32.51704646662905 22.49935040048307
    vertex 0.6923393452100631 33.52554998243093 22.49935040048307
    vertex 0.9958146146455794 33.02894353825066 22.49935040048307
  endloop
endfacet
facet normal -1.2249702015486703e-15 1.6013830034980216e-16 1.0
  outer loop
    vertex 2.0966825986237394 32.51704646662905 22.49935040048307
    vertex 0.9958146146455794 33.02894353825066 22.49935040048307
    vertex 1.2557567723346899 32.50822742152652 22.49935040048307
  endloop
endfacet
facet normal -1.2249702015486703e-15 1.6013830034980216e-16 1.0
  outer loop
    vertex 2.0966825986237394 32.51704646662905 22.49935040048307
    vertex 1.2557567723346899 32.50822742152652 22.49935040048307
    vertex 5.346682598623751 32.51704646662905 22.49935040048306
  endloop
endfacet
facet normal -1.2249702015486703e-15 1.6013830034980216e-16 1.0
  outer loop
    vertex 0.09878828130426545 34.27827172265465 22.49935040048304
    vertex 1.593089852791148 35.49621779540628 22.49935040048307
    vertex 0.9308121926228283 35.67817266283049 22.499350400483024
  endloop
endfacet
facet normal -1.2249702015486703e-15 1.6013830034980216e-16 1.0
  outer loop
    vertex 1.593089852791148 35.49621779540628 22.49935040048307
    vertex 0.09878828130426545 34.27827172265465 22.49935040048304
    vertex 2.651235662112561 35.324504369352624 22.49935040048307
  endloop
endfacet
facet normal -1.2249702015486703e-15 1.6013830034980216e-16 1.0
  outer loop
    vertex 2.651235662112561 35.324504369352624 22.49935040048307
    vertex 0.09878828130426545 34.27827172265465 22.49935040048304
    vertex 3.721682598623742 35.26704646662905 22.49935040048307
  endloop
endfacet
facet normal -1.2249702015486703e-15 1.6013830034980216e-16 1.0
  outer loop
    vertex 3.721682598623742 35.26704646662905 22.49935040048307
    vertex 0.09878828130426545 34.27827172265465 22.49935040048304
    vertex 7.344576915943242 34.278271722654665 22.499350400483117
  endloop
endfacet
facet normal -1.2249702015486703e-15 1.6013830034980216e-16 1.0
  outer loop
    vertex 7.344576915943242 34.278271722654665 22.499350400483117
    vertex 0.09878828130426545 34.27827172265465 22.49935040048304
    vertex 5.346682598623751 34.26704646662905 22.49935040048306
  endloop
endfacet
facet normal -1.2249702015486703e-15 1.6013830034980216e-16 1.0
  outer loop
    vertex 7.344576915943242 34.278271722654665 22.499350400483117
    vertex 5.346682598623751 34.26704646662905 22.49935040048306
    vertex 7.095815470598139 33.99441597447248 22.49935040048306
  endloop
endfacet
facet normal -1.2249702015486703e-15 1.6013830034980216e-16 1.0
  outer loop
    vertex 5.346682598623751 34.26704646662905 22.49935040048306
    vertex 0.09878828130426545 34.27827172265465 22.49935040048304
    vertex 2.0966825986237394 34.26704646662905 22.49935040048307
  endloop
endfacet
facet normal -1.2249702015486703e-15 1.6013830034980216e-16 1.0
  outer loop
    vertex 7.095815470598139 33.99441597447248 22.49935040048306
    vertex 5.346682598623751 34.26704646662905 22.49935040048306
    vertex 5.346682598623751 32.51704646662905 22.49935040048306
  endloop
endfacet
facet normal -1.2249702015486703e-15 1.6013830034980216e-16 1.0
  outer loop
    vertex 7.095815470598139 33.99441597447248 22.49935040048306
    vertex 5.346682598623751 32.51704646662905 22.49935040048306
    vertex 6.7510258520374276 33.52554998243093 22.49935040048306
  endloop
endfacet
facet normal -1.2249702015486703e-15 1.6013830034980216e-16 1.0
  outer loop
    vertex 6.7510258520374276 33.52554998243093 22.49935040048306
    vertex 5.346682598623751 32.51704646662905 22.49935040048306
    vertex 6.447550582601911 33.02894353825066 22.49935040048306
  endloop
endfacet
facet normal -1.2249702015486703e-15 1.6013830034980216e-16 1.0
  outer loop
    vertex 6.447550582601911 33.02894353825066 22.49935040048306
    vertex 5.346682598623751 32.51704646662905 22.49935040048306
    vertex 6.187608424912801 32.50822742152652 22.49935040048306
  endloop
endfacet
facet normal -1.2249702015486703e-15 1.6013830034980216e-16 1.0
  outer loop
    vertex 6.187608424912801 32.50822742152652 22.49935040048306
    vertex 5.346682598623751 32.51704646662905 22.49935040048306
    vertex 1.2557567723346899 32.50822742152652 22.49935040048307
  endloop
endfacet
facet normal -1.2249702015486703e-15 1.6013830034980216e-16 1.0
  outer loop
    vertex 6.187608424912801 32.50822742152652 22.49935040048306
    vertex 1.2557567723346899 32.50822742152652 22.49935040048307
    vertex 1.3556571948393001 32.26704646662905 22.49935040048307
  endloop
endfacet
facet normal -1.2249702015486703e-15 1.6013830034980216e-16 1.0
  outer loop
    vertex 6.187608424912801 32.50822742152652 22.49935040048306
    vertex 1.3556571948393001 32.26704646662905 22.49935040048307
    vertex 6.08770800240819 32.26704646662905 22.49935040048306
  endloop
endfacet
facet normal -1.2249702015486703e-15 1.6013830034980216e-16 1.0
  outer loop
    vertex 6.08770800240819 32.26704646662905 22.49935040048306
    vertex 1.3556571948393001 32.26704646662905 22.49935040048307
    vertex 1.5145758174371957 32.0599396854425 22.49935040048307
  endloop
endfacet
facet normal -1.2249702015486703e-15 1.6013830034980216e-16 1.0
  outer loop
    vertex 6.08770800240819 32.26704646662905 22.49935040048306
    vertex 1.5145758174371957 32.0599396854425 22.49935040048307
    vertex 5.928789379810295 32.0599396854425 22.49935040048306
  endloop
endfacet
facet normal -1.2249702015486703e-15 1.6013830034980216e-16 1.0
  outer loop
    vertex 5.928789379810295 32.0599396854425 22.49935040048306
    vertex 1.5145758174371957 32.0599396854425 22.49935040048307
    vertex 1.7216825986237403 31.901021062844606 22.49935040048307
  endloop
endfacet
facet normal -1.2249702015486703e-15 1.6013830034980216e-16 1.0
  outer loop
    vertex 5.928789379810295 32.0599396854425 22.49935040048306
    vertex 1.7216825986237403 31.901021062844606 22.49935040048307
    vertex 5.721682598623751 31.901021062844606 22.49935040048306
  endloop
endfacet
facet normal -1.2249702015486703e-15 1.6013830034980216e-16 1.0
  outer loop
    vertex 5.721682598623751 31.901021062844606 22.49935040048306
    vertex 1.7216825986237403 31.901021062844606 22.49935040048307
    vertex 1.9628635535212222 31.801120640339978 22.49935040048307
  endloop
endfacet
facet normal -1.2249702015486703e-15 1.6013830034980216e-16 1.0
  outer loop
    vertex 5.721682598623751 31.901021062844606 22.49935040048306
    vertex 1.9628635535212222 31.801120640339978 22.49935040048307
    vertex 5.480501643726269 31.801120640339978 22.49935040048306
  endloop
endfacet
facet normal -1.2249702015486703e-15 1.6013830034980216e-16 1.0
  outer loop
    vertex 5.480501643726269 31.801120640339978 22.49935040048306
    vertex 1.9628635535212222 31.801120640339978 22.49935040048307
    vertex 2.2216825986237394 31.767046466629047 22.49935040048307
  endloop
endfacet
facet normal -1.2249702015486703e-15 1.6013830034980216e-16 1.0
  outer loop
    vertex 5.480501643726269 31.801120640339978 22.49935040048306
    vertex 2.2216825986237394 31.767046466629047 22.49935040048307
    vertex 5.221682598623752 31.767046466629047 22.49935040048306
  endloop
endfacet
facet normal -1.2249702015486703e-15 1.6013830034980216e-16 1.0
  outer loop
    vertex 5.850275344456343 35.49621779540628 22.49935040048306
    vertex 7.344576915943242 34.278271722654665 22.499350400483117
    vertex 6.51255300462473 35.67817266283049 22.49935040048309
  endloop
endfacet
facet normal -1.2249702015486703e-15 1.6013830034980216e-16 1.0
  outer loop
    vertex 7.344576915943242 34.278271722654665 22.499350400483117
    vertex 5.850275344456343 35.49621779540628 22.49935040048306
    vertex 4.792129535134929 35.324504369352624 22.49935040048306
  endloop
endfacet
facet normal -1.2249702015486703e-15 1.6013830034980216e-16 1.0
  outer loop
    vertex 7.344576915943242 34.278271722654665 22.499350400483117
    vertex 4.792129535134929 35.324504369352624 22.49935040048306
    vertex 3.721682598623742 35.26704646662905 22.49935040048307
  endloop
endfacet
facet normal 0.05359939492362737 0.9985625192564667 -3.0047834498418487e-16
  outer loop
    vertex 2.651235662112561 35.324504369352624 22.49935040048307
    vertex 3.721682598623732 35.26704646662904 -2.5006495995169282
    vertex 2.651235662112551 35.32450436935262 -2.5006495995169282
  endloop
endfacet
facet normal 0.05359939492362737 0.9985625192564667 -3.0047834498418487e-16
  outer loop
    vertex 3.721682598623732 35.26704646662904 -2.5006495995169282
    vertex 2.651235662112561 35.324504369352624 22.49935040048307
    vertex 3.721682598623742 35.26704646662905 22.49935040048307
  endloop
endfacet
facet normal 0.5601764634225149 -0.8283733034251187 4.413819050775957e-16
  outer loop
    vertex 8.624870714321807 35.38634164293697 -1.9950584364245698
    vertex 8.351464599201027 35.20145438255189 22.169875392339726
    vertex 8.351464599200993 35.20145438255188 -2.171174591373577
  endloop
endfacet
facet normal 0.5601764634225149 -0.8283733034251187 4.413819050775957e-16
  outer loop
    vertex 8.351464599201027 35.20145438255189 22.169875392339726
    vertex 8.624870714321807 35.38634164293697 -1.9950584364245698
    vertex 8.624870714321744 35.386341642936976 21.9937592373907
  endloop
endfacet
facet normal 0.5601764634225149 -0.8283733034251187 4.413819050775957e-16
  outer loop
    vertex 8.624870714321744 35.386341642936976 21.9937592373907
    vertex 8.624870714321807 35.38634164293697 -1.9950584364245698
    vertex 8.833571598824838 35.52747284901364 21.78734877197707
  endloop
endfacet
facet normal 0.5601764634225149 -0.8283733034251187 4.413819050775957e-16
  outer loop
    vertex 8.833571598824838 35.52747284901364 21.78734877197707
    vertex 8.624870714321807 35.38634164293697 -1.9950584364245698
    vertex 8.833571598824838 35.527472849013634 -1.7886479710109076
  endloop
endfacet
facet normal 0.8947128543955144 -0.44664181194714764 -2.7355391188017657e-16
  outer loop
    vertex 6.447550582601911 33.02894353825066 22.49935040048306
    vertex 6.187608424912789 32.50822742152651 -2.500649599516933
    vertex 6.4475505826019 33.02894353825065 -2.500649599516933
  endloop
endfacet
facet normal 0.8947128543955144 -0.44664181194714764 -2.7355391188017657e-16
  outer loop
    vertex 6.187608424912789 32.50822742152651 -2.500649599516933
    vertex 6.447550582601911 33.02894353825066 22.49935040048306
    vertex 6.187608424912801 32.50822742152652 22.49935040048306
  endloop
endfacet
facet normal 0.8168800162183603 0.4853919743497743 0.311611409194079
  outer loop
    vertex 9.209597502770206 36.72549105778292 20.385416221900858
    vertex 9.572748284717596 36.30745631609086 20.084621366531508
    vertex 9.377228901170668 36.636422545458196 20.08462136653146
  endloop
endfacet
facet normal 0.8168800162183603 0.4853919743497743 0.311611409194079
  outer loop
    vertex 9.572748284717596 36.30745631609086 20.084621366531508
    vertex 9.209597502770206 36.72549105778292 20.385416221900858
    vertex 9.570870216106595 36.11764072538312 20.385122528148706
  endloop
endfacet
facet normal -0.08425849237399968 0.05007860083157757 0.9951847266721954
  outer loop
    vertex -0.3253310140967228 34.71021138617533 22.441706241692707
    vertex 0.5594049384554385 35.780213486123905 22.462769978803056
    vertex 0.3578297152468313 35.85964631741865 22.44170624169272
  endloop
endfacet
facet normal -0.08425849237399968 0.05007860083157757 0.9951847266721954
  outer loop
    vertex 0.5594049384554385 35.780213486123905 22.462769978803056
    vertex -0.3253310140967228 34.71021138617533 22.441706241692707
    vertex 0.9308121926228283 35.67817266283049 22.499350400483024
  endloop
endfacet
facet normal -0.08425849237399968 0.05007860083157757 0.9951847266721954
  outer loop
    vertex 0.9308121926228283 35.67817266283049 22.499350400483024
    vertex -0.3253310140967228 34.71021138617533 22.441706241692707
    vertex -0.03603342173129493 34.432113550246804 22.480194100751607
  endloop
endfacet
facet normal -0.08425849237399968 0.05007860083157757 0.9951847266721954
  outer loop
    vertex 0.9308121926228283 35.67817266283049 22.499350400483024
    vertex -0.03603342173129493 34.432113550246804 22.480194100751607
    vertex 0.09878828130426545 34.27827172265465 22.49935040048304
  endloop
endfacet
facet normal -6.041798151537554e-32 1.0 -2.6412205755832474e-16
  outer loop
    vertex 2.0966825986237394 32.51704646662905 22.49935040048307
    vertex 5.34668259862374 32.51704646662904 -2.500649599516933
    vertex 2.096682598623729 32.51704646662904 -2.5006495995169273
  endloop
endfacet
facet normal -6.041798151537554e-32 1.0 -2.6412205755832474e-16
  outer loop
    vertex 5.34668259862374 32.51704646662904 -2.500649599516933
    vertex 2.0966825986237394 32.51704646662905 22.49935040048307
    vertex 5.346682598623751 32.51704646662905 22.49935040048306
  endloop
endfacet
facet normal -0.662500804468947 0.39375393984424734 0.6372209341626582
  outer loop
    vertex -1.5676255775179322 35.62647700918495 21.620670744042645
    vertex -1.3850819442543165 36.66931631740479 21.166061099541803
    vertex -1.8959987151700093 35.809686133432 21.166061099541793
  endloop
endfacet
facet normal -0.662500804468947 0.39375393984424734 0.6372209341626582
  outer loop
    vertex -1.3850819442543165 36.66931631740479 21.166061099541803
    vertex -1.5676255775179322 35.62647700918495 21.620670744042645
    vertex -1.0515996040178015 36.494703553675954 21.620670744042666
  endloop
endfacet
facet normal 0.2649243439429701 0.9642692009944045 -8.316074518729255e-16
  outer loop
    vertex 0.5594049384554385 35.780213486123905 22.462769978803056
    vertex 0.9308121926227613 35.678172662830484 -2.5006495995169282
    vertex 0.5594049384553547 35.780213486123905 -2.4640691778369526
  endloop
endfacet
facet normal 0.2649243439429701 0.9642692009944045 -8.316074518729255e-16
  outer loop
    vertex 0.9308121926227613 35.678172662830484 -2.5006495995169282
    vertex 0.5594049384554385 35.780213486123905 22.462769978803056
    vertex 0.9308121926228283 35.67817266283049 22.499350400483024
  endloop
endfacet
facet normal 0.2649243439429701 0.9642692009944045 -8.316074518729255e-16
  outer loop
    vertex 0.9308121926227613 35.678172662830484 -2.5006495995169282
    vertex 0.9308121926228283 35.67817266283049 22.499350400483024
    vertex 1.5930898527911372 35.496217795406274 -2.5006495995169282
  endloop
endfacet
facet normal 0.2649243439429701 0.9642692009944045 -8.316074518729255e-16
  outer loop
    vertex 1.5930898527911372 35.496217795406274 -2.5006495995169282
    vertex 0.9308121926228283 35.67817266283049 22.499350400483024
    vertex 1.593089852791148 35.49621779540628 22.49935040048307
  endloop
endfacet
facet normal 0.46921410746817754 0.8830844361400791 -1.2783651621408886e-15
  outer loop
    vertex 9.209597502770206 36.72549105778292 20.385416221900858
    vertex 9.377228901170616 36.63642254545819 -0.08592056556532059
    vertex 9.209597502770167 36.72549105778291 -0.38671542093474226
  endloop
endfacet
facet normal 0.46921410746817754 0.8830844361400791 -1.2783651621408886e-15
  outer loop
    vertex 9.377228901170616 36.63642254545819 -0.08592056556532059
    vertex 9.209597502770206 36.72549105778292 20.385416221900858
    vertex 9.377228901170668 36.636422545458196 20.08462136653146
  endloop
endfacet
facet normal -0.24953747051275108 0.14831130994915903 0.9569403357322036
  outer loop
    vertex -0.7594856832265254 35.08124417222081 22.270988998016843
    vertex 0.3578297152468313 35.85964631741865 22.44170624169272
    vertex -0.17261263177518213 36.06867268877472 22.27098899801688
  endloop
endfacet
facet normal -0.24953747051275108 0.14831130994915903 0.9569403357322036
  outer loop
    vertex 0.3578297152468313 35.85964631741865 22.44170624169272
    vertex -0.7594856832265254 35.08124417222081 22.270988998016843
    vertex -0.4556056541088923 34.83544262355795 22.38832609760644
  endloop
endfacet
facet normal -0.24953747051275108 0.14831130994915903 0.9569403357322036
  outer loop
    vertex 0.3578297152468313 35.85964631741865 22.44170624169272
    vertex -0.4556056541088923 34.83544262355795 22.38832609760644
    vertex -0.3253310140967228 34.71021138617533 22.441706241692707
  endloop
endfacet
facet normal -0.46921410746817166 0.8830844361400825 5.881526642504886e-16
  outer loop
    vertex -1.933863703923137 36.636422545458196 20.084621366531394
    vertex -1.7662323055227147 36.72549105778291 -0.38671542093473665
    vertex -1.9338637039231703 36.63642254545819 -0.08592056556531495
  endloop
endfacet
facet normal -0.46921410746817166 0.8830844361400825 5.881526642504886e-16
  outer loop
    vertex -1.7662323055227147 36.72549105778291 -0.38671542093473665
    vertex -1.933863703923137 36.636422545458196 20.084621366531394
    vertex -1.766232305522676 36.72549105778292 20.38541622190081
  endloop
endfacet
facet normal -1.0 6.084438128313435e-32 4.2299497238218475e-16
  outer loop
    vertex 5.346682598623751 32.51704646662905 22.49935040048306
    vertex 5.34668259862374 34.26704646662904 -2.500649599516933
    vertex 5.34668259862374 32.51704646662904 -2.500649599516933
  endloop
endfacet
facet normal -1.0 6.084438128313435e-32 4.2299497238218475e-16
  outer loop
    vertex 5.34668259862374 34.26704646662904 -2.500649599516933
    vertex 5.346682598623751 32.51704646662905 22.49935040048306
    vertex 5.346682598623751 34.26704646662905 22.49935040048306
  endloop
endfacet
facet normal 0.6667531082419655 -0.7452786677811715 -1.5391615929989213e-16
  outer loop
    vertex 9.486804581655075 35.94159186043757 -0.7997239904654372
    vertex 9.339363912417523 35.809686133432 21.16606109954186
    vertex 9.339363912417483 35.809686133431995 -1.167360298575739
  endloop
endfacet
facet normal 0.6667531082419655 -0.7452786677811715 -1.5391615929989213e-16
  outer loop
    vertex 9.339363912417523 35.809686133432 21.16606109954186
    vertex 9.486804581655075 35.94159186043757 -0.7997239904654372
    vertex 9.486804581655058 35.941591860437576 20.798424791431597
  endloop
endfacet
facet normal 0.4052268636018886 0.24084449859932666 0.8819212643483633
  outer loop
    vertex 7.881305604691308 36.173227882151274 22.120522634578638
    vertex 8.624870714321744 35.386341642936976 21.9937592373907
    vertex 8.091692055764012 36.283428006974106 21.993759237390748
  endloop
endfacet
facet normal 0.4052268636018886 0.24084449859932666 0.8819212643483633
  outer loop
    vertex 8.624870714321744 35.386341642936976 21.9937592373907
    vertex 7.881305604691308 36.173227882151274 22.120522634578638
    vertex 7.615977829022667 36.06867268877472 22.27098899801691
  endloop
endfacet
facet normal 0.4052268636018886 0.24084449859932666 0.8819212643483633
  outer loop
    vertex 8.624870714321744 35.386341642936976 21.9937592373907
    vertex 7.615977829022667 36.06867268877472 22.27098899801691
    vertex 8.351464599201027 35.20145438255189 22.169875392339726
  endloop
endfacet
facet normal 0.4052268636018886 0.24084449859932666 0.8819212643483633
  outer loop
    vertex 8.351464599201027 35.20145438255189 22.169875392339726
    vertex 7.615977829022667 36.06867268877472 22.27098899801691
    vertex 8.202850880474022 35.08124417222081 22.270988998016957
  endloop
endfacet
facet normal -0.36662204544226346 0.9303699671613068 1.0952294159885465e-16
  outer loop
    vertex 6.883960258792092 35.780213486123905 22.462769978803067
    vertex 7.085535482000659 35.85964631741865 -2.443005440726622
    vertex 6.883960258792063 35.780213486123905 -2.4640691778369583
  endloop
endfacet
facet normal -0.36662204544226346 0.9303699671613068 1.0952294159885465e-16
  outer loop
    vertex 7.085535482000659 35.85964631741865 -2.443005440726622
    vertex 6.883960258792092 35.780213486123905 22.462769978803067
    vertex 7.0855354820007275 35.85964631741865 22.441706241692742
  endloop
endfacet
facet normal -0.36662204544226346 0.9303699671613068 1.0952294159885465e-16
  outer loop
    vertex 7.085535482000659 35.85964631741865 -2.443005440726622
    vertex 7.0855354820007275 35.85964631741865 22.441706241692742
    vertex 7.615977829022634 36.06867268877471 -2.272288197050792
  endloop
endfacet
facet normal -0.36662204544226346 0.9303699671613068 1.0952294159885465e-16
  outer loop
    vertex 7.615977829022634 36.06867268877471 -2.272288197050792
    vertex 7.0855354820007275 35.85964631741865 22.441706241692742
    vertex 7.615977829022667 36.06867268877472 22.27098899801691
  endloop
endfacet
facet normal -0.36662204544226346 0.9303699671613068 1.0952294159885465e-16
  outer loop
    vertex 7.615977829022634 36.06867268877471 -2.272288197050792
    vertex 7.615977829022667 36.06867268877472 22.27098899801691
    vertex 7.881305604691342 36.17322788215127 -2.121821833612485
  endloop
endfacet
facet normal -0.36662204544226346 0.9303699671613068 1.0952294159885465e-16
  outer loop
    vertex 7.881305604691342 36.17322788215127 -2.121821833612485
    vertex 7.615977829022667 36.06867268877472 22.27098899801691
    vertex 7.881305604691308 36.173227882151274 22.120522634578638
  endloop
endfacet
facet normal 0.6288943535912809 -0.7774907665181657 -5.585059871094438e-16
  outer loop
    vertex 8.202850880473981 35.081244172220806 -2.272288197050792
    vertex 7.8989708513563714 34.83544262355795 22.388326097606463
    vertex 7.898970851356355 34.835442623557945 -2.3896252966403435
  endloop
endfacet
facet normal 0.6288943535912809 -0.7774907665181657 -5.585059871094438e-16
  outer loop
    vertex 7.8989708513563714 34.83544262355795 22.388326097606463
    vertex 8.202850880473981 35.081244172220806 -2.272288197050792
    vertex 8.202850880474022 35.08124417222081 22.270988998016957
  endloop
endfacet
facet normal 0.6288943535912809 -0.7774907665181657 -5.585059871094438e-16
  outer loop
    vertex 8.202850880474022 35.08124417222081 22.270988998016957
    vertex 8.202850880473981 35.081244172220806 -2.272288197050792
    vertex 8.351464599200993 35.20145438255188 -2.171174591373577
  endloop
endfacet
facet normal 0.6288943535912809 -0.7774907665181657 -5.585059871094438e-16
  outer loop
    vertex 8.202850880474022 35.08124417222081 22.270988998016957
    vertex 8.351464599200993 35.20145438255188 -2.171174591373577
    vertex 8.351464599201027 35.20145438255189 22.169875392339726
  endloop
endfacet
facet normal -0.5453436155766639 0.3241221682355196 0.7730104533627457
  outer loop
    vertex -1.5676255775179322 35.62647700918495 21.620670744042645
    vertex -0.6483268585164654 36.283428006974106 21.993759237390623
    vertex -1.0515996040178015 36.494703553675954 21.620670744042666
  endloop
endfacet
facet normal -0.5453436155766639 0.3241221682355196 0.7730104533627457
  outer loop
    vertex -0.6483268585164654 36.283428006974106 21.993759237390623
    vertex -1.5676255775179322 35.62647700918495 21.620670744042645
    vertex -1.390206401577352 35.52747284901364 21.787348771977
  endloop
endfacet
facet normal -0.5453436155766639 0.3241221682355196 0.7730104533627457
  outer loop
    vertex -0.6483268585164654 36.283428006974106 21.993759237390623
    vertex -1.390206401577352 35.52747284901364 21.787348771977
    vertex -1.181505517074338 35.386341642936976 21.993759237390645
  endloop
endfacet
facet normal -0.5601764634225118 -0.8283733034251208 3.419974809424223e-16
  outer loop
    vertex -1.181505517074281 35.38634164293697 -1.995058436424564
    vertex -1.390206401577352 35.52747284901364 21.787348771977
    vertex -1.390206401577374 35.527472849013634 -1.788647971010902
  endloop
endfacet
facet normal -0.5601764634225118 -0.8283733034251208 3.419974809424223e-16
  outer loop
    vertex -1.390206401577352 35.52747284901364 21.787348771977
    vertex -1.181505517074281 35.38634164293697 -1.995058436424564
    vertex -1.181505517074338 35.386341642936976 21.993759237390645
  endloop
endfacet
facet normal -0.5601764634225118 -0.8283733034251208 3.419974809424223e-16
  outer loop
    vertex -1.181505517074338 35.386341642936976 21.993759237390645
    vertex -1.181505517074281 35.38634164293697 -1.995058436424564
    vertex -0.9080994019535085 35.20145438255189 22.169875392339645
  endloop
endfacet
facet normal -0.5601764634225118 -0.8283733034251208 3.419974809424223e-16
  outer loop
    vertex -0.9080994019535085 35.20145438255189 22.169875392339645
    vertex -1.181505517074281 35.38634164293697 -1.995058436424564
    vertex -0.9080994019535585 35.20145438255188 -2.171174591373571
  endloop
endfacet
facet normal -0.7520674601867804 -0.6590861365012967 4.829117560636401e-16
  outer loop
    vertex 0.34754972664935135 33.99441597447248 22.49935040048307
    vertex 0.09878828130425488 34.278271722654644 -2.500649599516928
    vertex 0.3475497266493408 33.994415974472474 -2.500649599516928
  endloop
endfacet
facet normal -0.7520674601867804 -0.6590861365012967 4.829117560636401e-16
  outer loop
    vertex 0.09878828130425488 34.278271722654644 -2.500649599516928
    vertex 0.34754972664935135 33.99441597447248 22.49935040048307
    vertex -0.036033421731305505 34.4321135502468 -2.4814932997855155
  endloop
endfacet
facet normal -0.7520674601867804 -0.6590861365012967 4.829117560636401e-16
  outer loop
    vertex -0.036033421731305505 34.4321135502468 -2.4814932997855155
    vertex 0.34754972664935135 33.99441597447248 22.49935040048307
    vertex -0.03603342173129493 34.432113550246804 22.480194100751607
  endloop
endfacet
facet normal -0.7520674601867804 -0.6590861365012967 4.829117560636401e-16
  outer loop
    vertex -0.03603342173129493 34.432113550246804 22.480194100751607
    vertex 0.34754972664935135 33.99441597447248 22.49935040048307
    vertex 0.09878828130426545 34.27827172265465 22.49935040048304
  endloop
endfacet
facet normal -0.6288943535912866 -0.7774907665181613 8.618742744000385e-16
  outer loop
    vertex -0.7594856832265473 35.081244172220806 -2.2722881970507864
    vertex -0.9080994019535085 35.20145438255189 22.169875392339645
    vertex -0.9080994019535585 35.20145438255188 -2.171174591373571
  endloop
endfacet
facet normal -0.6288943535912866 -0.7774907665181613 8.618742744000385e-16
  outer loop
    vertex -0.9080994019535085 35.20145438255189 22.169875392339645
    vertex -0.7594856832265473 35.081244172220806 -2.2722881970507864
    vertex -0.7594856832265254 35.08124417222081 22.270988998016843
  endloop
endfacet
facet normal -0.6288943535912866 -0.7774907665181613 8.618742744000385e-16
  outer loop
    vertex -0.7594856832265254 35.08124417222081 22.270988998016843
    vertex -0.7594856832265473 35.081244172220806 -2.2722881970507864
    vertex -0.45560565410889725 34.835442623557945 -2.3896252966403377
  endloop
endfacet
facet normal -0.6288943535912866 -0.7774907665181613 8.618742744000385e-16
  outer loop
    vertex -0.7594856832265254 35.08124417222081 22.270988998016843
    vertex -0.45560565410889725 34.835442623557945 -2.3896252966403377
    vertex -0.4556056541088923 34.83544262355795 22.38832609760644
  endloop
endfacet
facet normal 0.7593820451183783 0.45116166292601334 0.46881986248202373
  outer loop
    vertex 9.014779034189306 36.73578659293894 20.798947192832593
    vertex 9.528418160331197 36.028738330455354 20.647400697578377
    vertex 9.111216701290083 36.7306901695904 20.647400697578355
  endloop
endfacet
facet normal 0.7593820451183783 0.45116166292601334 0.46881986248202373
  outer loop
    vertex 9.528418160331197 36.028738330455354 20.647400697578377
    vertex 9.014779034189306 36.73578659293894 20.798947192832593
    vertex 9.486804581655058 35.941591860437576 20.798424791431597
  endloop
endfacet
facet normal -0.76009684454976 0.4516181079660028 0.46721929697167497
  outer loop
    vertex -1.8959987151700093 35.809686133432 21.166061099541793
    vertex -1.571413836941748 36.73578659293894 20.798947192832525
    vertex -2.043439384407601 35.941591860437576 20.79842479143153
  endloop
endfacet
facet normal -0.76009684454976 0.4516181079660028 0.46721929697167497
  outer loop
    vertex -1.571413836941748 36.73578659293894 20.798947192832525
    vertex -1.8959987151700093 35.809686133432 21.166061099541793
    vertex -1.3850819442543165 36.66931631740479 21.166061099541803
  endloop
endfacet
facet normal 0.6625008044689258 0.39375393984424967 0.6372209341626789
  outer loop
    vertex 8.828447141501806 36.66931631740479 21.166061099541903
    vertex 9.01099077476544 35.62647700918495 21.620670744042723
    vertex 9.339363912417523 35.809686133432 21.16606109954186
  endloop
endfacet
facet normal 0.6625008044689258 0.39375393984424967 0.6372209341626789
  outer loop
    vertex 9.01099077476544 35.62647700918495 21.620670744042723
    vertex 8.828447141501806 36.66931631740479 21.166061099541903
    vertex 8.494964801265315 36.494703553675954 21.62067074404269
  endloop
endfacet
endsolid VV's Vr Gloves
