solid VV's Vr Gloves
facet normal -0.5453436155766942 0.32412216823549167 -0.773010453362736
  outer loop
    vertex 38.35167314148345 36.2834280069741 -1.9950584364245705
    vertex 37.432374422482056 35.626477009184946 -1.6219699430765764
    vertex 37.94840039598217 36.49470355367594 -1.6219699430765764
  endloop
endfacet
facet normal -0.5453436155766942 0.32412216823549167 -0.773010453362736
  outer loop
    vertex 37.432374422482056 35.626477009184946 -1.6219699430765764
    vertex 38.35167314148345 36.2834280069741 -1.9950584364245705
    vertex 37.60979359842262 35.52747284901363 -1.788647971010908
  endloop
endfacet
facet normal -0.5453436155766942 0.32412216823549167 -0.773010453362736
  outer loop
    vertex 37.60979359842262 35.52747284901363 -1.788647971010908
    vertex 38.35167314148345 36.2834280069741 -1.9950584364245705
    vertex 37.818494482925715 35.38634164293696 -1.99505843642457
  endloop
endfacet
facet normal 0.7599074192587347 0.45154284436233916 -0.4676000148211053
  outer loop
    vertex 48.01477903418923 36.735786592938936 -0.800246391866474
    vertex 48.33936391241748 35.80968613343199 -1.167360298575745
    vertex 47.8284471415018 36.66931631740478 -1.1673602985757452
  endloop
endfacet
facet normal 0.7599074192587347 0.45154284436233916 -0.4676000148211053
  outer loop
    vertex 48.33936391241748 35.80968613343199 -1.167360298575745
    vertex 48.01477903418923 36.735786592938936 -0.800246391866474
    vertex 48.48680458165507 35.94159186043756 -0.7997239904654432
  endloop
endfacet
facet normal 0.7599074192587347 0.45154284436233916 -0.4676000148211053
  outer loop
    vertex 48.48680458165507 35.94159186043756 -0.7997239904654432
    vertex 48.01477903418923 36.735786592938936 -0.800246391866474
    vertex 48.11121670129011 36.730690169590396 -0.6486998966122068
  endloop
endfacet
facet normal 0.7599074192587347 0.45154284436233916 -0.4676000148211053
  outer loop
    vertex 48.48680458165507 35.94159186043756 -0.7997239904654432
    vertex 48.11121670129011 36.730690169590396 -0.6486998966122068
    vertex 48.52841816033119 36.02873833045534 -0.6486998966122068
  endloop
endfacet
facet normal -0.24953747051273018 0.14831130994915082 -0.9569403357322104
  outer loop
    vertex 39.35782971524674 35.859646317418644 -2.4430054407266226
    vertex 38.24051431677345 35.0812441722208 -2.2722881970507927
    vertex 38.8273873682248 36.068672688774704 -2.272288197050793
  endloop
endfacet
facet normal -0.24953747051273018 0.14831130994915082 -0.9569403357322104
  outer loop
    vertex 38.24051431677345 35.0812441722208 -2.2722881970507927
    vertex 39.35782971524674 35.859646317418644 -2.4430054407266226
    vertex 38.5443943458911 34.83544262355794 -2.3896252966403435
  endloop
endfacet
facet normal -0.24953747051273018 0.14831130994915082 -0.9569403357322104
  outer loop
    vertex 38.5443943458911 34.83544262355794 -2.3896252966403435
    vertex 39.35782971524674 35.859646317418644 -2.4430054407266226
    vertex 38.67466898590323 34.710211386175324 -2.4430054407266226
  endloop
endfacet
facet normal 0.5453436155766992 0.32412216823552575 -0.7730104533627181
  outer loop
    vertex 48.01099077476541 35.626477009184946 -1.6219699430765822
    vertex 47.091692055763986 36.2834280069741 -1.995058436424576
    vertex 47.49496480126526 36.49470355367594 -1.6219699430765822
  endloop
endfacet
facet normal 0.5453436155766992 0.32412216823552575 -0.7730104533627181
  outer loop
    vertex 47.091692055763986 36.2834280069741 -1.995058436424576
    vertex 48.01099077476541 35.626477009184946 -1.6219699430765822
    vertex 47.83357159882483 35.52747284901363 -1.7886479710109136
  endloop
endfacet
facet normal 0.5453436155766992 0.32412216823552575 -0.7730104533627181
  outer loop
    vertex 47.091692055763986 36.2834280069741 -1.995058436424576
    vertex 47.83357159882483 35.52747284901363 -1.7886479710109136
    vertex 47.6248707143218 35.38634164293696 -1.9950584364245758
  endloop
endfacet
facet normal -0.4052268636018991 0.2408444985993308 -0.881921264348357
  outer loop
    vertex 38.562059592556146 36.17322788215127 -2.1218218336124854
    vertex 37.818494482925715 35.38634164293696 -1.99505843642457
    vertex 38.35167314148345 36.2834280069741 -1.9950584364245705
  endloop
endfacet
facet normal -0.4052268636018991 0.2408444985993308 -0.881921264348357
  outer loop
    vertex 37.818494482925715 35.38634164293696 -1.99505843642457
    vertex 38.562059592556146 36.17322788215127 -2.1218218336124854
    vertex 38.8273873682248 36.068672688774704 -2.272288197050793
  endloop
endfacet
facet normal -0.4052268636018991 0.2408444985993308 -0.881921264348357
  outer loop
    vertex 37.818494482925715 35.38634164293696 -1.99505843642457
    vertex 38.8273873682248 36.068672688774704 -2.272288197050793
    vertex 38.091900598046436 35.20145438255187 -2.1711745913735774
  endloop
endfacet
facet normal -0.4052268636018991 0.2408444985993308 -0.881921264348357
  outer loop
    vertex 38.091900598046436 35.20145438255187 -2.1711745913735774
    vertex 38.8273873682248 36.068672688774704 -2.272288197050793
    vertex 38.24051431677345 35.0812441722208 -2.2722881970507927
  endloop
endfacet
facet normal 0.24953747051272127 0.14831130994915076 -0.9569403357322126
  outer loop
    vertex 47.20285088047398 35.0812441722208 -2.2722881970507984
    vertex 46.08553548200066 35.859646317418644 -2.443005440726628
    vertex 46.61597782902263 36.068672688774704 -2.2722881970507984
  endloop
endfacet
facet normal 0.24953747051272127 0.14831130994915076 -0.9569403357322126
  outer loop
    vertex 46.08553548200066 35.859646317418644 -2.443005440726628
    vertex 47.20285088047398 35.0812441722208 -2.2722881970507984
    vertex 46.89897085135635 34.83544262355794 -2.3896252966403493
  endloop
endfacet
facet normal 0.24953747051272127 0.14831130994915076 -0.9569403357322126
  outer loop
    vertex 46.08553548200066 35.859646317418644 -2.443005440726628
    vertex 46.89897085135635 34.83544262355794 -2.3896252966403493
    vertex 46.768696211344185 34.710211386175324 -2.443005440726628
  endloop
endfacet
facet normal -0.6930142833164652 -0.7209238538981536 -1.0697894165019003e-15
  outer loop
    vertex 38.5443943458911 34.83544262355794 -2.3896252966403435
    vertex 38.67466898590323 34.710211386175324 7.441706241692696
    vertex 38.544394345891064 34.835442623557945 7.388326097606429
  endloop
endfacet
facet normal -0.6930142833164652 -0.7209238538981536 -1.0697894165019003e-15
  outer loop
    vertex 38.67466898590323 34.710211386175324 7.441706241692696
    vertex 38.5443943458911 34.83544262355794 -2.3896252966403435
    vertex 38.67466898590323 34.710211386175324 -2.4430054407266226
  endloop
endfacet
facet normal -0.6930142833164652 -0.7209238538981536 -1.0697894165019003e-15
  outer loop
    vertex 38.67466898590323 34.710211386175324 7.441706241692696
    vertex 38.67466898590323 34.710211386175324 -2.4430054407266226
    vertex 38.96396657826869 34.43211355024679 -2.4814932997855212
  endloop
endfacet
facet normal -0.6930142833164652 -0.7209238538981536 -1.0697894165019003e-15
  outer loop
    vertex 38.67466898590323 34.710211386175324 7.441706241692696
    vertex 38.96396657826869 34.43211355024679 -2.4814932997855212
    vertex 38.96396657826866 34.4321135502468 7.4801941007515955
  endloop
endfacet
facet normal -0.6625008044689337 0.3937539398442472 -0.6372209341626724
  outer loop
    vertex 37.10400128482997 35.80968613343199 -1.1673602985757394
    vertex 37.94840039598217 36.49470355367594 -1.6219699430765764
    vertex 37.432374422482056 35.626477009184946 -1.6219699430765764
  endloop
endfacet
facet normal -0.6625008044689337 0.3937539398442472 -0.6372209341626724
  outer loop
    vertex 37.94840039598217 36.49470355367594 -1.6219699430765764
    vertex 37.10400128482997 35.80968613343199 -1.1673602985757394
    vertex 37.614918055745676 36.66931631740478 -1.1673602985757396
  endloop
endfacet
facet normal -0.6087614290087265 -0.7933533402912308 -1.4187440196814786e-15
  outer loop
    vertex 40.51457581743718 32.059939685442494 -2.500649599516933
    vertex 40.7216825986237 31.9010210628446 7.49935040048306
    vertex 40.514575817437155 32.059939685442494 7.49935040048306
  endloop
endfacet
facet normal -0.6087614290087265 -0.7933533402912308 -1.4187440196814786e-15
  outer loop
    vertex 40.7216825986237 31.9010210628446 7.49935040048306
    vertex 40.51457581743718 32.059939685442494 -2.500649599516933
    vertex 40.72168259862372 31.901021062844595 -2.500649599516933
  endloop
endfacet
facet normal -0.9023967110526538 -0.4309062263200122 -4.708666627386014e-15
  outer loop
    vertex 36.95656061559236 35.94159186043756 5.798424791431517
    vertex 36.91494703691628 36.02873833045534 -0.6486998966122012
    vertex 36.95656061559242 35.94159186043756 -0.7997239904654375
  endloop
endfacet
facet normal -0.9023967110526538 -0.4309062263200122 -4.708666627386014e-15
  outer loop
    vertex 36.91494703691628 36.02873833045534 -0.6486998966122012
    vertex 36.95656061559236 35.94159186043756 5.798424791431517
    vertex 36.87249498114087 36.11764072538311 -0.3864217271825976
  endloop
endfacet
facet normal -0.9023967110526538 -0.4309062263200122 -4.708666627386014e-15
  outer loop
    vertex 36.87249498114087 36.11764072538311 -0.3864217271825976
    vertex 36.95656061559236 35.94159186043756 5.798424791431517
    vertex 36.872494981140875 36.11764072538311 5.385122528148671
  endloop
endfacet
facet normal -0.9023967110526538 -0.4309062263200122 -4.708666627386014e-15
  outer loop
    vertex 36.872494981140875 36.11764072538311 5.385122528148671
    vertex 36.95656061559236 35.94159186043756 5.798424791431517
    vertex 36.914947036916246 36.02873833045534 5.647400697578308
  endloop
endfacet
facet normal -0.08425849237399043 0.05007860083157062 -0.9951847266721965
  outer loop
    vertex 39.55940493845535 35.7802134861239 -2.464069177836959
    vertex 38.67466898590323 34.710211386175324 -2.4430054407266226
    vertex 39.35782971524674 35.859646317418644 -2.4430054407266226
  endloop
endfacet
facet normal -0.08425849237399043 0.05007860083157062 -0.9951847266721965
  outer loop
    vertex 38.67466898590323 34.710211386175324 -2.4430054407266226
    vertex 39.55940493845535 35.7802134861239 -2.464069177836959
    vertex 39.93081219262276 35.67817266283048 -2.500649599516934
  endloop
endfacet
facet normal -0.08425849237399043 0.05007860083157062 -0.9951847266721965
  outer loop
    vertex 38.67466898590323 34.710211386175324 -2.4430054407266226
    vertex 39.93081219262276 35.67817266283048 -2.500649599516934
    vertex 38.96396657826869 34.43211355024679 -2.4814932997855212
  endloop
endfacet
facet normal -0.08425849237399043 0.05007860083157062 -0.9951847266721965
  outer loop
    vertex 38.96396657826869 34.43211355024679 -2.4814932997855212
    vertex 39.93081219262276 35.67817266283048 -2.500649599516934
    vertex 39.09878828130425 34.27827172265464 -2.5006495995169336
  endloop
endfacet
facet normal 0.6087614290087267 -0.7933533402912306 2.015613741237688e-15
  outer loop
    vertex 44.72168259862374 31.901021062844595 -2.500649599516939
    vertex 44.928789379810254 32.059939685442494 7.499350400483049
    vertex 44.72168259862371 31.9010210628446 7.499350400483049
  endloop
endfacet
facet normal 0.6087614290087267 -0.7933533402912306 2.015613741237688e-15
  outer loop
    vertex 44.928789379810254 32.059939685442494 7.499350400483049
    vertex 44.72168259862374 31.901021062844595 -2.500649599516939
    vertex 44.92878937981028 32.059939685442494 -2.500649599516939
  endloop
endfacet
facet normal 0.405226863601868 0.24084449859931656 -0.8819212643483754
  outer loop
    vertex 47.6248707143218 35.38634164293696 -1.9950584364245758
    vertex 46.88130560469134 36.17322788215127 -2.1218218336124908
    vertex 47.091692055763986 36.2834280069741 -1.995058436424576
  endloop
endfacet
facet normal 0.405226863601868 0.24084449859931656 -0.8819212643483754
  outer loop
    vertex 46.88130560469134 36.17322788215127 -2.1218218336124908
    vertex 47.6248707143218 35.38634164293696 -1.9950584364245758
    vertex 46.61597782902263 36.068672688774704 -2.2722881970507984
  endloop
endfacet
facet normal 0.405226863601868 0.24084449859931656 -0.8819212643483754
  outer loop
    vertex 46.61597782902263 36.068672688774704 -2.2722881970507984
    vertex 47.6248707143218 35.38634164293696 -1.9950584364245758
    vertex 47.35146459920099 35.20145438255187 -2.1711745913735827
  endloop
endfacet
facet normal 0.405226863601868 0.24084449859931656 -0.8819212643483754
  outer loop
    vertex 46.61597782902263 36.068672688774704 -2.2722881970507984
    vertex 47.35146459920099 35.20145438255187 -2.1711745913735827
    vertex 47.20285088047398 35.0812441722208 -2.2722881970507984
  endloop
endfacet
facet normal 0.7520674601867797 -0.6590861365012974 2.3821593563943883e-15
  outer loop
    vertex 46.47939861897874 34.4321135502468 7.4801941007517305
    vertex 46.344576915943215 34.27827172265464 -2.5006495995169393
    vertex 46.47939861897877 34.43211355024679 -2.5006495995169393
  endloop
endfacet
facet normal 0.7520674601867797 -0.6590861365012974 2.3821593563943883e-15
  outer loop
    vertex 46.344576915943215 34.27827172265464 -2.5006495995169393
    vertex 46.47939861897874 34.4321135502468 7.4801941007517305
    vertex 46.095815470598126 33.99441597447247 -2.5006495995169393
  endloop
endfacet
facet normal 0.7520674601867797 -0.6590861365012974 2.3821593563943883e-15
  outer loop
    vertex 46.095815470598126 33.99441597447247 -2.5006495995169393
    vertex 46.47939861897874 34.4321135502468 7.4801941007517305
    vertex 46.0958154705981 33.994415974472474 7.499350400483047
  endloop
endfacet
facet normal 0.7520674601867797 -0.6590861365012974 2.3821593563943883e-15
  outer loop
    vertex 46.0958154705981 33.994415974472474 7.499350400483047
    vertex 46.47939861897874 34.4321135502468 7.4801941007517305
    vertex 46.3445769159432 34.27827172265466 7.499350400483103
  endloop
endfacet
facet normal -0.13052619222005357 -0.9914448613738103 5.518734824148872e-18
  outer loop
    vertex 40.96286355352121 31.801120640339967 -2.500649599516933
    vertex 41.221682598623694 31.76704646662904 7.49935040048306
    vertex 40.96286355352118 31.801120640339974 7.49935040048306
  endloop
endfacet
facet normal -0.13052619222005357 -0.9914448613738103 5.518734824148872e-18
  outer loop
    vertex 41.221682598623694 31.76704646662904 7.49935040048306
    vertex 40.96286355352121 31.801120640339967 -2.500649599516933
    vertex 41.22168259862372 31.767046466629036 -2.500649599516933
  endloop
endfacet
facet normal -0.805622135737949 -0.5924297210716437 -2.058581645054554e-15
  outer loop
    vertex 39.69233934521002 33.525549982430924 7.49935040048306
    vertex 39.34754972664933 33.99441597447247 -2.5006495995169336
    vertex 39.69233934521005 33.525549982430924 -2.5006495995169336
  endloop
endfacet
facet normal -0.805622135737949 -0.5924297210716437 -2.058581645054554e-15
  outer loop
    vertex 39.34754972664933 33.99441597447247 -2.5006495995169336
    vertex 39.69233934521002 33.525549982430924 7.49935040048306
    vertex 39.34754972664931 33.994415974472474 7.499350400483059
  endloop
endfacet
facet normal 0.13052619222005357 -0.9914448613738103 7.415871270731688e-16
  outer loop
    vertex 44.22168259862374 31.767046466629036 -2.500649599516939
    vertex 44.48050164372623 31.801120640339974 7.499350400483049
    vertex 44.22168259862371 31.76704646662904 7.499350400483049
  endloop
endfacet
facet normal 0.13052619222005357 -0.9914448613738103 7.415871270731688e-16
  outer loop
    vertex 44.48050164372623 31.801120640339974 7.499350400483049
    vertex 44.22168259862374 31.767046466629036 -2.500649599516939
    vertex 44.48050164372626 31.801120640339967 -2.500649599516939
  endloop
endfacet
facet normal 0.08507424156092745 0.05543250649966366 -0.9948314483599712
  outer loop
    vertex 46.768696211344185 34.710211386175324 -2.443005440726628
    vertex 45.88396025879206 35.7802134861239 -2.4640691778369646
    vertex 46.08553548200066 35.859646317418644 -2.443005440726628
  endloop
endfacet
facet normal 0.08507424156092745 0.05543250649966366 -0.9948314483599712
  outer loop
    vertex 45.88396025879206 35.7802134861239 -2.4640691778369646
    vertex 46.768696211344185 34.710211386175324 -2.443005440726628
    vertex 45.51255300462464 35.67817266283048 -2.5006495995169398
  endloop
endfacet
facet normal 0.08507424156092745 0.05543250649966366 -0.9948314483599712
  outer loop
    vertex 45.51255300462464 35.67817266283048 -2.5006495995169398
    vertex 46.768696211344185 34.710211386175324 -2.443005440726628
    vertex 46.47939861897877 34.43211355024679 -2.5006495995169393
  endloop
endfacet
facet normal 0.08507424156092745 0.05543250649966366 -0.9948314483599712
  outer loop
    vertex 45.51255300462464 35.67817266283048 -2.5006495995169398
    vertex 46.47939861897877 34.43211355024679 -2.5006495995169393
    vertex 46.344576915943215 34.27827172265464 -2.5006495995169393
  endloop
endfacet
facet normal 0.693014283316475 -0.7209238538981442 1.171818583192952e-15
  outer loop
    vertex 46.47939861897877 34.43211355024679 -2.5006495995169393
    vertex 46.7686962113442 34.710211386175324 7.441706241692798
    vertex 46.47939861897874 34.4321135502468 7.4801941007517305
  endloop
endfacet
facet normal 0.693014283316475 -0.7209238538981442 1.171818583192952e-15
  outer loop
    vertex 46.7686962113442 34.710211386175324 7.441706241692798
    vertex 46.47939861897877 34.43211355024679 -2.5006495995169393
    vertex 46.768696211344185 34.710211386175324 -2.443005440726628
  endloop
endfacet
facet normal 0.693014283316475 -0.7209238538981442 1.171818583192952e-15
  outer loop
    vertex 46.7686962113442 34.710211386175324 7.441706241692798
    vertex 46.768696211344185 34.710211386175324 -2.443005440726628
    vertex 46.89897085135635 34.83544262355794 -2.3896252966403493
  endloop
endfacet
facet normal 0.693014283316475 -0.7209238538981442 1.171818583192952e-15
  outer loop
    vertex 46.7686962113442 34.710211386175324 7.441706241692798
    vertex 46.89897085135635 34.83544262355794 -2.3896252966403493
    vertex 46.89897085135633 34.835442623557945 7.388326097606451
  endloop
endfacet
facet normal 0.805622135737949 -0.5924297210716437 2.485641152559886e-15
  outer loop
    vertex 46.0958154705981 33.994415974472474 7.499350400483047
    vertex 45.751025852037415 33.525549982430924 -2.5006495995169393
    vertex 46.095815470598126 33.99441597447247 -2.5006495995169393
  endloop
endfacet
facet normal 0.805622135737949 -0.5924297210716437 2.485641152559886e-15
  outer loop
    vertex 45.751025852037415 33.525549982430924 -2.5006495995169393
    vertex 46.0958154705981 33.994415974472474 7.499350400483047
    vertex 45.75102585203739 33.525549982430924 7.499350400483049
  endloop
endfacet
facet normal -0.853286762044145 -0.5214419447265621 -2.209114010507308e-15
  outer loop
    vertex 39.99581461464554 33.028943538250644 7.49935040048306
    vertex 39.69233934521005 33.525549982430924 -2.5006495995169336
    vertex 39.99581461464557 33.028943538250644 -2.5006495995169336
  endloop
endfacet
facet normal -0.853286762044145 -0.5214419447265621 -2.209114010507308e-15
  outer loop
    vertex 39.69233934521005 33.525549982430924 -2.5006495995169336
    vertex 39.99581461464554 33.028943538250644 7.49935040048306
    vertex 39.69233934521002 33.525549982430924 7.49935040048306
  endloop
endfacet
facet normal 0.662500804468923 0.3937539398442496 -0.6372209341626819
  outer loop
    vertex 47.8284471415018 36.66931631740478 -1.1673602985757452
    vertex 48.01099077476541 35.626477009184946 -1.6219699430765822
    vertex 47.49496480126526 36.49470355367594 -1.6219699430765822
  endloop
endfacet
facet normal 0.662500804468923 0.3937539398442496 -0.6372209341626819
  outer loop
    vertex 48.01099077476541 35.626477009184946 -1.6219699430765822
    vertex 47.8284471415018 36.66931631740478 -1.1673602985757452
    vertex 48.33936391241748 35.80968613343199 -1.167360298575745
  endloop
endfacet
facet normal -0.7593820451183063 0.45116166292602855 0.4688198624821262
  outer loop
    vertex 36.914947036916246 36.02873833045534 5.647400697578308
    vertex 37.428586163058206 36.735786592938936 5.798947192832514
    vertex 37.33214849595736 36.7306901695904 5.6474006975782745
  endloop
endfacet
facet normal -0.7593820451183063 0.45116166292602855 0.4688198624821262
  outer loop
    vertex 37.428586163058206 36.735786592938936 5.798947192832514
    vertex 36.914947036916246 36.02873833045534 5.647400697578308
    vertex 36.95656061559236 35.94159186043756 5.798424791431517
  endloop
endfacet
facet normal -0.26492434394297115 0.964269200994404 -2.7344061238021354e-16
  outer loop
    vertex 45.512553004624685 35.678172662830484 7.499350400483081
    vertex 44.85027534445633 35.49621779540627 -2.5006495995169398
    vertex 44.8502753444563 35.49621779540627 7.499350400483047
  endloop
endfacet
facet normal -0.26492434394297115 0.964269200994404 -2.7344061238021354e-16
  outer loop
    vertex 44.85027534445633 35.49621779540627 -2.5006495995169398
    vertex 45.512553004624685 35.678172662830484 7.499350400483081
    vertex 45.51255300462464 35.67817266283048 -2.5006495995169398
  endloop
endfacet
facet normal -0.26492434394297115 0.964269200994404 -2.7344061238021354e-16
  outer loop
    vertex 45.51255300462464 35.67817266283048 -2.5006495995169398
    vertex 45.512553004624685 35.678172662830484 7.499350400483081
    vertex 45.88396025879206 35.7802134861239 -2.4640691778369646
  endloop
endfacet
facet normal -0.26492434394297115 0.964269200994404 -2.7344061238021354e-16
  outer loop
    vertex 45.88396025879206 35.7802134861239 -2.4640691778369646
    vertex 45.512553004624685 35.678172662830484 7.499350400483081
    vertex 45.88396025879205 35.7802134861239 7.462769978803055
  endloop
endfacet
facet normal -0.4872456990252445 -0.8732649247401393 -1.1535649523385502e-15
  outer loop
    vertex 37.10400128482997 35.80968613343199 -1.1673602985757394
    vertex 37.43237442248203 35.626477009184946 6.620670744042633
    vertex 37.10400128482995 35.80968613343199 6.166061099541779
  endloop
endfacet
facet normal -0.4872456990252445 -0.8732649247401393 -1.1535649523385502e-15
  outer loop
    vertex 37.43237442248203 35.626477009184946 6.620670744042633
    vertex 37.10400128482997 35.80968613343199 -1.1673602985757394
    vertex 37.432374422482056 35.626477009184946 -1.6219699430765764
  endloop
endfacet
facet normal -0.4872456990252445 -0.8732649247401393 -1.1535649523385502e-15
  outer loop
    vertex 37.43237442248203 35.626477009184946 6.620670744042633
    vertex 37.432374422482056 35.626477009184946 -1.6219699430765764
    vertex 37.609793598422605 35.52747284901363 6.787348771976987
  endloop
endfacet
facet normal -0.4872456990252445 -0.8732649247401393 -1.1535649523385502e-15
  outer loop
    vertex 37.609793598422605 35.52747284901363 6.787348771976987
    vertex 37.432374422482056 35.626477009184946 -1.6219699430765764
    vertex 37.60979359842262 35.52747284901363 -1.788647971010908
  endloop
endfacet
facet normal -0.052773172188303685 0.9986065252626702 -3.94960114649561e-16
  outer loop
    vertex 37.33214849595736 36.7306901695904 5.6474006975782745
    vertex 37.23376769447728 36.725491057782904 -0.38671542093474265
    vertex 37.23376769447728 36.725491057782904 5.385416221900799
  endloop
endfacet
facet normal -0.052773172188303685 0.9986065252626702 -3.94960114649561e-16
  outer loop
    vertex 37.23376769447728 36.725491057782904 -0.38671542093474265
    vertex 37.33214849595736 36.7306901695904 5.6474006975782745
    vertex 37.33214849595739 36.730690169590396 -0.6486998966122012
  endloop
endfacet
facet normal -0.052773172188303685 0.9986065252626702 -3.94960114649561e-16
  outer loop
    vertex 37.33214849595739 36.730690169590396 -0.6486998966122012
    vertex 37.33214849595736 36.7306901695904 5.6474006975782745
    vertex 37.428586163058206 36.735786592938936 5.798947192832514
  endloop
endfacet
facet normal -0.052773172188303685 0.9986065252626702 -3.94960114649561e-16
  outer loop
    vertex 37.33214849595739 36.730690169590396 -0.6486998966122012
    vertex 37.428586163058206 36.735786592938936 5.798947192832514
    vertex 37.428586163058185 36.735786592938936 -0.8002463918664683
  endloop
endfacet
facet normal -0.8185408599001582 0.4864330841028836 -0.3055711297947935
  outer loop
    vertex 36.87249498114087 36.11764072538311 -0.3864217271825976
    vertex 37.33214849595739 36.730690169590396 -0.6486998966122012
    vertex 36.91494703691628 36.02873833045534 -0.6486998966122012
  endloop
endfacet
facet normal -0.8185408599001582 0.4864330841028836 -0.3055711297947935
  outer loop
    vertex 37.33214849595739 36.730690169590396 -0.6486998966122012
    vertex 36.87249498114087 36.11764072538311 -0.3864217271825976
    vertex 37.23376769447728 36.725491057782904 -0.38671542093474265
  endloop
endfacet
facet normal -0.8185408599001582 0.4864330841028836 -0.3055711297947935
  outer loop
    vertex 37.23376769447728 36.725491057782904 -0.38671542093474265
    vertex 36.87249498114087 36.11764072538311 -0.3864217271825976
    vertex 37.06613629607683 36.63642254545818 -0.08592056556532095
  endloop
endfacet
facet normal -0.8185408599001582 0.4864330841028836 -0.3055711297947935
  outer loop
    vertex 37.06613629607683 36.63642254545818 -0.08592056556532095
    vertex 36.87249498114087 36.11764072538311 -0.3864217271825976
    vertex 36.87061691252992 36.30745631609084 -0.08592056556532095
  endloop
endfacet
facet normal -0.9999510562471969 -0.009893690419418245 -8.541655531017468e-16
  outer loop
    vertex 36.872494981140875 36.11764072538311 5.385122528148671
    vertex 36.87061691252992 36.30745631609084 -0.08592056556532095
    vertex 36.87249498114087 36.11764072538311 -0.3864217271825976
  endloop
endfacet
facet normal -0.9999510562471969 -0.009893690419418245 -8.541655531017468e-16
  outer loop
    vertex 36.87061691252992 36.30745631609084 -0.08592056556532095
    vertex 36.872494981140875 36.11764072538311 5.385122528148671
    vertex 36.87061691252989 36.30745631609084 5.08462136653136
  endloop
endfacet
facet normal 0.382683432365083 -0.9238795325112897 1.4275257805164145e-15
  outer loop
    vertex 44.48050164372626 31.801120640339967 -2.500649599516939
    vertex 44.72168259862371 31.9010210628446 7.499350400483049
    vertex 44.48050164372623 31.801120640339974 7.499350400483049
  endloop
endfacet
facet normal 0.382683432365083 -0.9238795325112897 1.4275257805164145e-15
  outer loop
    vertex 44.72168259862371 31.9010210628446 7.499350400483049
    vertex 44.48050164372626 31.801120640339967 -2.500649599516939
    vertex 44.72168259862374 31.901021062844595 -2.500649599516939
  endloop
endfacet
facet normal -0.9238795325113066 -0.3826834323650421 -2.4612244100021688e-15
  outer loop
    vertex 40.35565719483926 32.26704646662904 7.49935040048306
    vertex 40.25575677233468 32.508227421526506 -2.500649599516933
    vertex 40.35565719483929 32.26704646662903 -2.500649599516933
  endloop
endfacet
facet normal -0.9238795325113066 -0.3826834323650421 -2.4612244100021688e-15
  outer loop
    vertex 40.25575677233468 32.508227421526506 -2.500649599516933
    vertex 40.35565719483926 32.26704646662904 7.49935040048306
    vertex 40.25575677233465 32.508227421526506 7.49935040048306
  endloop
endfacet
facet normal 0.6667531082419657 -0.7452786677811715 2.823348256299588e-15
  outer loop
    vertex 48.48680458165507 35.94159186043756 -0.7997239904654432
    vertex 48.33936391241748 35.80968613343199 6.166061099541847
    vertex 48.33936391241748 35.80968613343199 -1.167360298575745
  endloop
endfacet
facet normal 0.6667531082419657 -0.7452786677811715 2.823348256299588e-15
  outer loop
    vertex 48.33936391241748 35.80968613343199 6.166061099541847
    vertex 48.48680458165507 35.94159186043756 -0.7997239904654432
    vertex 48.486804581655015 35.94159186043756 5.798424791431585
  endloop
endfacet
facet normal 0.2495374705127202 0.14831130994918035 0.9569403357322083
  outer loop
    vertex 46.08553548200069 35.859646317418644 7.44170624169273
    vertex 47.20285088047398 35.081244172220806 7.2709889980169455
    vertex 46.615977829022626 36.068672688774704 7.2709889980169
  endloop
endfacet
facet normal 0.2495374705127202 0.14831130994918035 0.9569403357322083
  outer loop
    vertex 47.20285088047398 35.081244172220806 7.2709889980169455
    vertex 46.08553548200069 35.859646317418644 7.44170624169273
    vertex 46.89897085135633 34.835442623557945 7.388326097606451
  endloop
endfacet
facet normal 0.2495374705127202 0.14831130994918035 0.9569403357322083
  outer loop
    vertex 46.89897085135633 34.835442623557945 7.388326097606451
    vertex 46.08553548200069 35.859646317418644 7.44170624169273
    vertex 46.7686962113442 34.710211386175324 7.441706241692798
  endloop
endfacet
facet normal -0.8205280585597815 0.48761486461665043 0.29827076444231276
  outer loop
    vertex 36.914947036916246 36.02873833045534 5.647400697578308
    vertex 37.23376769447728 36.725491057782904 5.385416221900799
    vertex 36.872494981140875 36.11764072538311 5.385122528148671
  endloop
endfacet
facet normal -0.8205280585597815 0.48761486461665043 0.29827076444231276
  outer loop
    vertex 37.23376769447728 36.725491057782904 5.385416221900799
    vertex 36.914947036916246 36.02873833045534 5.647400697578308
    vertex 37.33214849595736 36.7306901695904 5.6474006975782745
  endloop
endfacet
facet normal -0.16018224300696685 0.987087457637497 -7.980810505850334e-16
  outer loop
    vertex 44.8502753444563 35.49621779540627 7.499350400483047
    vertex 43.79212953513491 35.32450436935261 -2.5006495995169398
    vertex 43.79212953513488 35.32450436935262 7.499350400483047
  endloop
endfacet
facet normal -0.16018224300696685 0.987087457637497 -7.980810505850334e-16
  outer loop
    vertex 43.79212953513491 35.32450436935261 -2.5006495995169398
    vertex 44.8502753444563 35.49621779540627 7.499350400483047
    vertex 44.85027534445633 35.49621779540627 -2.5006495995169398
  endloop
endfacet
facet normal 0.9238795325113066 -0.3826834323650421 2.7493993096804086e-15
  outer loop
    vertex 45.18760842491276 32.508227421526506 7.499350400483049
    vertex 45.08770800240818 32.26704646662903 -2.500649599516939
    vertex 45.18760842491279 32.508227421526506 -2.500649599516939
  endloop
endfacet
facet normal 0.9238795325113066 -0.3826834323650421 2.7493993096804086e-15
  outer loop
    vertex 45.08770800240818 32.26704646662903 -2.500649599516939
    vertex 45.18760842491276 32.508227421526506 7.499350400483049
    vertex 45.08770800240815 32.26704646662904 7.499350400483049
  endloop
endfacet
facet normal -0.8947128543955146 -0.44664181194714747 -2.3555190895170493e-15
  outer loop
    vertex 40.25575677233465 32.508227421526506 7.49935040048306
    vertex 39.99581461464557 33.028943538250644 -2.5006495995169336
    vertex 40.25575677233468 32.508227421526506 -2.500649599516933
  endloop
endfacet
facet normal -0.8947128543955146 -0.44664181194714747 -2.3555190895170493e-15
  outer loop
    vertex 39.99581461464557 33.028943538250644 -2.5006495995169336
    vertex 40.25575677233465 32.508227421526506 7.49935040048306
    vertex 39.99581461464554 33.028943538250644 7.49935040048306
  endloop
endfacet
facet normal -0.859630183972768 0.5109167709157187 -2.565739523426258e-15
  outer loop
    vertex 36.87061691252989 36.30745631609084 5.08462136653136
    vertex 37.06613629607683 36.63642254545818 -0.08592056556532095
    vertex 36.87061691252992 36.30745631609084 -0.08592056556532095
  endloop
endfacet
facet normal -0.859630183972768 0.5109167709157187 -2.565739523426258e-15
  outer loop
    vertex 37.06613629607683 36.63642254545818 -0.08592056556532095
    vertex 36.87061691252989 36.30745631609084 5.08462136653136
    vertex 37.06613629607682 36.63642254545819 5.084621366531383
  endloop
endfacet
facet normal 0.36662204544226085 0.9303699671613077 -6.86729322091381e-16
  outer loop
    vertex 38.82738736822478 36.068672688774704 7.2709889980168665
    vertex 38.562059592556146 36.17322788215127 -2.1218218336124854
    vertex 38.5620595925561 36.17322788215127 7.12052263457857
  endloop
endfacet
facet normal 0.36662204544226085 0.9303699671613077 -6.86729322091381e-16
  outer loop
    vertex 38.562059592556146 36.17322788215127 -2.1218218336124854
    vertex 38.82738736822478 36.068672688774704 7.2709889980168665
    vertex 38.8273873682248 36.068672688774704 -2.272288197050793
  endloop
endfacet
facet normal 0.36662204544226085 0.9303699671613077 -6.86729322091381e-16
  outer loop
    vertex 38.8273873682248 36.068672688774704 -2.272288197050793
    vertex 38.82738736822478 36.068672688774704 7.2709889980168665
    vertex 39.35782971524679 35.859646317418644 7.441706241692708
  endloop
endfacet
facet normal 0.36662204544226085 0.9303699671613077 -6.86729322091381e-16
  outer loop
    vertex 38.8273873682248 36.068672688774704 -2.272288197050793
    vertex 39.35782971524679 35.859646317418644 7.441706241692708
    vertex 39.35782971524674 35.859646317418644 -2.4430054407266226
  endloop
endfacet
facet normal 0.36662204544226085 0.9303699671613077 -6.86729322091381e-16
  outer loop
    vertex 39.35782971524674 35.859646317418644 -2.4430054407266226
    vertex 39.35782971524679 35.859646317418644 7.441706241692708
    vertex 39.55940493845535 35.7802134861239 -2.464069177836959
  endloop
endfacet
facet normal 0.36662204544226085 0.9303699671613077 -6.86729322091381e-16
  outer loop
    vertex 39.55940493845535 35.7802134861239 -2.464069177836959
    vertex 39.35782971524679 35.859646317418644 7.441706241692708
    vertex 39.559404938455394 35.7802134861239 7.462769978803044
  endloop
endfacet
facet normal 0.7600968445497827 0.45161810796597246 0.46721929697166703
  outer loop
    vertex 48.01477903418926 36.735786592938936 5.798947192832581
    vertex 48.33936391241748 35.80968613343199 6.166061099541847
    vertex 48.486804581655015 35.94159186043756 5.798424791431585
  endloop
endfacet
facet normal 0.7600968445497827 0.45161810796597246 0.46721929697166703
  outer loop
    vertex 48.33936391241748 35.80968613343199 6.166061099541847
    vertex 48.01477903418926 36.735786592938936 5.798947192832581
    vertex 47.82844714150176 36.669316317404785 6.166061099541892
  endloop
endfacet
facet normal -0.33599195292125744 0.941864856320778 -4.502914409928879e-16
  outer loop
    vertex 48.01477903418926 36.735786592938936 5.798947192832581
    vertex 47.8284471415018 36.66931631740478 -1.1673602985757452
    vertex 47.82844714150176 36.669316317404785 6.166061099541892
  endloop
endfacet
facet normal -0.33599195292125744 0.941864856320778 -4.502914409928879e-16
  outer loop
    vertex 47.8284471415018 36.66931631740478 -1.1673602985757452
    vertex 48.01477903418926 36.735786592938936 5.798947192832581
    vertex 48.01477903418923 36.735786592938936 -0.800246391866474
  endloop
endfacet
facet normal 0.05359939492362742 0.9985625192564667 -2.2061915201009736e-16
  outer loop
    vertex 42.7216825986237 35.26704646662903 7.499350400483059
    vertex 41.65123566211255 35.32450436935261 -2.500649599516934
    vertex 41.65123566211252 35.32450436935262 7.499350400483059
  endloop
endfacet
facet normal 0.05359939492362742 0.9985625192564667 -2.2061915201009736e-16
  outer loop
    vertex 41.65123566211255 35.32450436935261 -2.500649599516934
    vertex 42.7216825986237 35.26704646662903 7.499350400483059
    vertex 42.72168259862373 35.26704646662903 -2.500649599516934
  endloop
endfacet
facet normal 1.0 6.896367429361359e-31 2.8199664825478994e-15
  outer loop
    vertex 41.096682598623694 34.26704646662904 7.499350400483059
    vertex 41.09668259862372 32.51704646662903 -2.500649599516933
    vertex 41.09668259862372 34.26704646662903 -2.5006495995169336
  endloop
endfacet
facet normal 1.0 6.896367429361359e-31 2.8199664825478994e-15
  outer loop
    vertex 41.09668259862372 32.51704646662903 -2.500649599516933
    vertex 41.096682598623694 34.26704646662904 7.499350400483059
    vertex 41.096682598623694 32.51704646662903 7.49935040048306
  endloop
endfacet
facet normal 0.859630183972742 0.5109167709157624 2.5082703685125106e-16
  outer loop
    vertex 48.377228901170625 36.63642254545819 5.084621366531451
    vertex 48.57274828471757 36.30745631609084 -0.08592056556532658
    vertex 48.37722890117061 36.63642254545818 -0.08592056556532658
  endloop
endfacet
facet normal 0.859630183972742 0.5109167709157624 2.5082703685125106e-16
  outer loop
    vertex 48.57274828471757 36.30745631609084 -0.08592056556532658
    vertex 48.377228901170625 36.63642254545819 5.084621366531451
    vertex 48.572748284717555 36.30745631609084 5.084621366531496
  endloop
endfacet
facet normal -1.087665881106861e-15 -1.4206773123320473e-16 -1.0
  outer loop
    vertex 40.59308985279113 35.49621779540627 -2.500649599516934
    vertex 39.09878828130425 34.27827172265464 -2.5006495995169336
    vertex 39.93081219262276 35.67817266283048 -2.500649599516934
  endloop
endfacet
facet normal -1.087665881106861e-15 -1.4206773123320473e-16 -1.0
  outer loop
    vertex 39.09878828130425 34.27827172265464 -2.5006495995169336
    vertex 40.59308985279113 35.49621779540627 -2.500649599516934
    vertex 41.65123566211255 35.32450436935261 -2.500649599516934
  endloop
endfacet
facet normal -1.087665881106861e-15 -1.4206773123320473e-16 -1.0
  outer loop
    vertex 39.09878828130425 34.27827172265464 -2.5006495995169336
    vertex 41.65123566211255 35.32450436935261 -2.500649599516934
    vertex 42.72168259862373 35.26704646662903 -2.500649599516934
  endloop
endfacet
facet normal -1.087665881106861e-15 -1.4206773123320473e-16 -1.0
  outer loop
    vertex 39.09878828130425 34.27827172265464 -2.5006495995169336
    vertex 42.72168259862373 35.26704646662903 -2.500649599516934
    vertex 46.344576915943215 34.27827172265464 -2.5006495995169393
  endloop
endfacet
facet normal -1.087665881106861e-15 -1.4206773123320473e-16 -1.0
  outer loop
    vertex 39.09878828130425 34.27827172265464 -2.5006495995169336
    vertex 46.344576915943215 34.27827172265464 -2.5006495995169393
    vertex 44.34668259862374 34.26704646662903 -2.5006495995169393
  endloop
endfacet
facet normal -1.087665881106861e-15 -1.4206773123320473e-16 -1.0
  outer loop
    vertex 44.34668259862374 34.26704646662903 -2.5006495995169393
    vertex 46.344576915943215 34.27827172265464 -2.5006495995169393
    vertex 46.095815470598126 33.99441597447247 -2.5006495995169393
  endloop
endfacet
facet normal -1.087665881106861e-15 -1.4206773123320473e-16 -1.0
  outer loop
    vertex 44.34668259862374 34.26704646662903 -2.5006495995169393
    vertex 46.095815470598126 33.99441597447247 -2.5006495995169393
    vertex 44.34668259862374 32.51704646662903 -2.500649599516939
  endloop
endfacet
facet normal -1.087665881106861e-15 -1.4206773123320473e-16 -1.0
  outer loop
    vertex 44.34668259862374 32.51704646662903 -2.500649599516939
    vertex 46.095815470598126 33.99441597447247 -2.5006495995169393
    vertex 45.751025852037415 33.525549982430924 -2.5006495995169393
  endloop
endfacet
facet normal -1.087665881106861e-15 -1.4206773123320473e-16 -1.0
  outer loop
    vertex 44.34668259862374 32.51704646662903 -2.500649599516939
    vertex 45.751025852037415 33.525549982430924 -2.5006495995169393
    vertex 45.4475505826019 33.028943538250644 -2.5006495995169393
  endloop
endfacet
facet normal -1.087665881106861e-15 -1.4206773123320473e-16 -1.0
  outer loop
    vertex 44.34668259862374 32.51704646662903 -2.500649599516939
    vertex 45.4475505826019 33.028943538250644 -2.5006495995169393
    vertex 45.18760842491279 32.508227421526506 -2.500649599516939
  endloop
endfacet
facet normal -1.087665881106861e-15 -1.4206773123320473e-16 -1.0
  outer loop
    vertex 44.34668259862374 32.51704646662903 -2.500649599516939
    vertex 45.18760842491279 32.508227421526506 -2.500649599516939
    vertex 41.09668259862372 32.51704646662903 -2.500649599516933
  endloop
endfacet
facet normal -1.087665881106861e-15 -1.4206773123320473e-16 -1.0
  outer loop
    vertex 39.09878828130425 34.27827172265464 -2.5006495995169336
    vertex 41.09668259862372 34.26704646662903 -2.5006495995169336
    vertex 39.34754972664933 33.99441597447247 -2.5006495995169336
  endloop
endfacet
facet normal -1.087665881106861e-15 -1.4206773123320473e-16 -1.0
  outer loop
    vertex 41.09668259862372 34.26704646662903 -2.5006495995169336
    vertex 39.09878828130425 34.27827172265464 -2.5006495995169336
    vertex 44.34668259862374 34.26704646662903 -2.5006495995169393
  endloop
endfacet
facet normal -1.087665881106861e-15 -1.4206773123320473e-16 -1.0
  outer loop
    vertex 39.34754972664933 33.99441597447247 -2.5006495995169336
    vertex 41.09668259862372 34.26704646662903 -2.5006495995169336
    vertex 41.09668259862372 32.51704646662903 -2.500649599516933
  endloop
endfacet
facet normal -1.087665881106861e-15 -1.4206773123320473e-16 -1.0
  outer loop
    vertex 39.34754972664933 33.99441597447247 -2.5006495995169336
    vertex 41.09668259862372 32.51704646662903 -2.500649599516933
    vertex 39.69233934521005 33.525549982430924 -2.5006495995169336
  endloop
endfacet
facet normal -1.087665881106861e-15 -1.4206773123320473e-16 -1.0
  outer loop
    vertex 39.69233934521005 33.525549982430924 -2.5006495995169336
    vertex 41.09668259862372 32.51704646662903 -2.500649599516933
    vertex 39.99581461464557 33.028943538250644 -2.5006495995169336
  endloop
endfacet
facet normal -1.087665881106861e-15 -1.4206773123320473e-16 -1.0
  outer loop
    vertex 39.99581461464557 33.028943538250644 -2.5006495995169336
    vertex 41.09668259862372 32.51704646662903 -2.500649599516933
    vertex 40.25575677233468 32.508227421526506 -2.500649599516933
  endloop
endfacet
facet normal -1.087665881106861e-15 -1.4206773123320473e-16 -1.0
  outer loop
    vertex 40.25575677233468 32.508227421526506 -2.500649599516933
    vertex 41.09668259862372 32.51704646662903 -2.500649599516933
    vertex 45.18760842491279 32.508227421526506 -2.500649599516939
  endloop
endfacet
facet normal -1.087665881106861e-15 -1.4206773123320473e-16 -1.0
  outer loop
    vertex 40.25575677233468 32.508227421526506 -2.500649599516933
    vertex 45.18760842491279 32.508227421526506 -2.500649599516939
    vertex 45.08770800240818 32.26704646662903 -2.500649599516939
  endloop
endfacet
facet normal -1.087665881106861e-15 -1.4206773123320473e-16 -1.0
  outer loop
    vertex 40.25575677233468 32.508227421526506 -2.500649599516933
    vertex 45.08770800240818 32.26704646662903 -2.500649599516939
    vertex 40.35565719483929 32.26704646662903 -2.500649599516933
  endloop
endfacet
facet normal -1.087665881106861e-15 -1.4206773123320473e-16 -1.0
  outer loop
    vertex 40.35565719483929 32.26704646662903 -2.500649599516933
    vertex 45.08770800240818 32.26704646662903 -2.500649599516939
    vertex 44.92878937981028 32.059939685442494 -2.500649599516939
  endloop
endfacet
facet normal -1.087665881106861e-15 -1.4206773123320473e-16 -1.0
  outer loop
    vertex 40.35565719483929 32.26704646662903 -2.500649599516933
    vertex 44.92878937981028 32.059939685442494 -2.500649599516939
    vertex 40.51457581743718 32.059939685442494 -2.500649599516933
  endloop
endfacet
facet normal -1.087665881106861e-15 -1.4206773123320473e-16 -1.0
  outer loop
    vertex 40.51457581743718 32.059939685442494 -2.500649599516933
    vertex 44.92878937981028 32.059939685442494 -2.500649599516939
    vertex 44.72168259862374 31.901021062844595 -2.500649599516939
  endloop
endfacet
facet normal -1.087665881106861e-15 -1.4206773123320473e-16 -1.0
  outer loop
    vertex 40.51457581743718 32.059939685442494 -2.500649599516933
    vertex 44.72168259862374 31.901021062844595 -2.500649599516939
    vertex 40.72168259862372 31.901021062844595 -2.500649599516933
  endloop
endfacet
facet normal -1.087665881106861e-15 -1.4206773123320473e-16 -1.0
  outer loop
    vertex 40.72168259862372 31.901021062844595 -2.500649599516933
    vertex 44.72168259862374 31.901021062844595 -2.500649599516939
    vertex 44.48050164372626 31.801120640339967 -2.500649599516939
  endloop
endfacet
facet normal -1.087665881106861e-15 -1.4206773123320473e-16 -1.0
  outer loop
    vertex 40.72168259862372 31.901021062844595 -2.500649599516933
    vertex 44.48050164372626 31.801120640339967 -2.500649599516939
    vertex 40.96286355352121 31.801120640339967 -2.500649599516933
  endloop
endfacet
facet normal -1.087665881106861e-15 -1.4206773123320473e-16 -1.0
  outer loop
    vertex 40.96286355352121 31.801120640339967 -2.500649599516933
    vertex 44.48050164372626 31.801120640339967 -2.500649599516939
    vertex 44.22168259862374 31.767046466629036 -2.500649599516939
  endloop
endfacet
facet normal -1.087665881106861e-15 -1.4206773123320473e-16 -1.0
  outer loop
    vertex 40.96286355352121 31.801120640339967 -2.500649599516933
    vertex 44.22168259862374 31.767046466629036 -2.500649599516939
    vertex 41.22168259862372 31.767046466629036 -2.500649599516933
  endloop
endfacet
facet normal -1.087665881106861e-15 -1.4206773123320473e-16 -1.0
  outer loop
    vertex 46.344576915943215 34.27827172265464 -2.5006495995169393
    vertex 44.85027534445633 35.49621779540627 -2.5006495995169398
    vertex 45.51255300462464 35.67817266283048 -2.5006495995169398
  endloop
endfacet
facet normal -1.087665881106861e-15 -1.4206773123320473e-16 -1.0
  outer loop
    vertex 44.85027534445633 35.49621779540627 -2.5006495995169398
    vertex 46.344576915943215 34.27827172265464 -2.5006495995169393
    vertex 43.79212953513491 35.32450436935261 -2.5006495995169398
  endloop
endfacet
facet normal -1.087665881106861e-15 -1.4206773123320473e-16 -1.0
  outer loop
    vertex 43.79212953513491 35.32450436935261 -2.5006495995169398
    vertex 46.344576915943215 34.27827172265464 -2.5006495995169393
    vertex 42.72168259862373 35.26704646662903 -2.500649599516934
  endloop
endfacet
facet normal 0.9023967110526876 -0.4309062263199415 4.204431496343882e-15
  outer loop
    vertex 48.52841816033119 36.02873833045534 -0.6486998966122068
    vertex 48.486804581655015 35.94159186043756 5.798424791431585
    vertex 48.48680458165507 35.94159186043756 -0.7997239904654432
  endloop
endfacet
facet normal 0.9023967110526876 -0.4309062263199415 4.204431496343882e-15
  outer loop
    vertex 48.486804581655015 35.94159186043756 5.798424791431585
    vertex 48.52841816033119 36.02873833045534 -0.6486998966122068
    vertex 48.57087021610654 36.11764072538311 -0.38642172718260326
  endloop
endfacet
facet normal 0.9023967110526876 -0.4309062263199415 4.204431496343882e-15
  outer loop
    vertex 48.486804581655015 35.94159186043756 5.798424791431585
    vertex 48.57087021610654 36.11764072538311 -0.38642172718260326
    vertex 48.57087021610655 36.11764072538311 5.385122528148694
  endloop
endfacet
facet normal 0.9023967110526876 -0.4309062263199415 4.204431496343882e-15
  outer loop
    vertex 48.486804581655015 35.94159186043756 5.798424791431585
    vertex 48.57087021610655 36.11764072538311 5.385122528148694
    vertex 48.52841816033116 36.02873833045534 5.647400697578365
  endloop
endfacet
facet normal 3.862896922502902e-31 -1.0 3.769207168602408e-16
  outer loop
    vertex 41.22168259862372 31.767046466629036 -2.500649599516933
    vertex 44.22168259862371 31.76704646662904 7.499350400483049
    vertex 41.221682598623694 31.76704646662904 7.49935040048306
  endloop
endfacet
facet normal 3.862896922502902e-31 -1.0 3.769207168602408e-16
  outer loop
    vertex 44.22168259862371 31.76704646662904 7.499350400483049
    vertex 41.22168259862372 31.767046466629036 -2.500649599516933
    vertex 44.22168259862374 31.767046466629036 -2.500649599516939
  endloop
endfacet
facet normal 0.8205280585597687 0.4876148646166257 0.2982707644423882
  outer loop
    vertex 48.209597502770166 36.725491057782904 5.385416221900845
    vertex 48.52841816033116 36.02873833045534 5.647400697578365
    vertex 48.57087021610655 36.11764072538311 5.385122528148694
  endloop
endfacet
facet normal 0.8205280585597687 0.4876148646166257 0.2982707644423882
  outer loop
    vertex 48.52841816033116 36.02873833045534 5.647400697578365
    vertex 48.209597502770166 36.725491057782904 5.385416221900845
    vertex 48.11121670129004 36.7306901695904 5.647400697578342
  endloop
endfacet
facet normal 0.8532867620441448 -0.5214419447265621 2.603967687442567e-15
  outer loop
    vertex 45.75102585203739 33.525549982430924 7.499350400483049
    vertex 45.4475505826019 33.028943538250644 -2.5006495995169393
    vertex 45.751025852037415 33.525549982430924 -2.5006495995169393
  endloop
endfacet
facet normal 0.8532867620441448 -0.5214419447265621 2.603967687442567e-15
  outer loop
    vertex 45.4475505826019 33.028943538250644 -2.5006495995169393
    vertex 45.75102585203739 33.525549982430924 7.499350400483049
    vertex 45.44755058260187 33.028943538250644 7.499350400483049
  endloop
endfacet
facet normal -0.7599074192587485 0.451542844362336 -0.4676000148210859
  outer loop
    vertex 36.95656061559242 35.94159186043756 -0.7997239904654375
    vertex 37.614918055745676 36.66931631740478 -1.1673602985757396
    vertex 37.10400128482997 35.80968613343199 -1.1673602985757394
  endloop
endfacet
facet normal -0.7599074192587485 0.451542844362336 -0.4676000148210859
  outer loop
    vertex 37.614918055745676 36.66931631740478 -1.1673602985757396
    vertex 36.95656061559242 35.94159186043756 -0.7997239904654375
    vertex 37.428586163058185 36.735786592938936 -0.8002463918664683
  endloop
endfacet
facet normal -0.7599074192587485 0.451542844362336 -0.4676000148210859
  outer loop
    vertex 37.428586163058185 36.735786592938936 -0.8002463918664683
    vertex 36.95656061559242 35.94159186043756 -0.7997239904654375
    vertex 37.33214849595739 36.730690169590396 -0.6486998966122012
  endloop
endfacet
facet normal -0.7599074192587485 0.451542844362336 -0.4676000148210859
  outer loop
    vertex 37.33214849595739 36.730690169590396 -0.6486998966122012
    vertex 36.95656061559242 35.94159186043756 -0.7997239904654375
    vertex 36.91494703691628 36.02873833045534 -0.6486998966122012
  endloop
endfacet
facet normal 0.9999510562471945 -0.009893690419670764 3.7689840761011814e-16
  outer loop
    vertex 48.57274828471757 36.30745631609084 -0.08592056556532658
    vertex 48.57087021610655 36.11764072538311 5.385122528148694
    vertex 48.57087021610654 36.11764072538311 -0.38642172718260326
  endloop
endfacet
facet normal 0.9999510562471945 -0.009893690419670764 3.7689840761011814e-16
  outer loop
    vertex 48.57087021610655 36.11764072538311 5.385122528148694
    vertex 48.57274828471757 36.30745631609084 -0.08592056556532658
    vertex 48.572748284717555 36.30745631609084 5.084621366531496
  endloop
endfacet
facet normal -0.46921410746817155 0.8830844361400825 -5.703850277408407e-16
  outer loop
    vertex 37.23376769447728 36.725491057782904 5.385416221900799
    vertex 37.06613629607683 36.63642254545818 -0.08592056556532095
    vertex 37.06613629607682 36.63642254545819 5.084621366531383
  endloop
endfacet
facet normal -0.46921410746817155 0.8830844361400825 -5.703850277408407e-16
  outer loop
    vertex 37.06613629607683 36.63642254545818 -0.08592056556532095
    vertex 37.23376769447728 36.725491057782904 5.385416221900799
    vertex 37.23376769447728 36.725491057782904 -0.38671542093474265
  endloop
endfacet
facet normal -0.3826834323650829 -0.9238795325112897 -7.302498708197016e-16
  outer loop
    vertex 40.72168259862372 31.901021062844595 -2.500649599516933
    vertex 40.96286355352118 31.801120640339974 7.49935040048306
    vertex 40.7216825986237 31.9010210628446 7.49935040048306
  endloop
endfacet
facet normal -0.3826834323650829 -0.9238795325112897 -7.302498708197016e-16
  outer loop
    vertex 40.96286355352118 31.801120640339974 7.49935040048306
    vertex 40.72168259862372 31.901021062844595 -2.500649599516933
    vertex 40.96286355352121 31.801120640339967 -2.500649599516933
  endloop
endfacet
facet normal -0.7933533402912271 -0.6087614290087315 -2.0073186932671517e-15
  outer loop
    vertex 40.514575817437155 32.059939685442494 7.49935040048306
    vertex 40.35565719483929 32.26704646662903 -2.500649599516933
    vertex 40.51457581743718 32.059939685442494 -2.500649599516933
  endloop
endfacet
facet normal -0.7933533402912271 -0.6087614290087315 -2.0073186932671517e-15
  outer loop
    vertex 40.35565719483929 32.26704646662903 -2.500649599516933
    vertex 40.514575817437155 32.059939685442494 7.49935040048306
    vertex 40.35565719483926 32.26704646662904 7.49935040048306
  endloop
endfacet
facet normal 0.33599195292126666 0.9418648563207745 -1.604723656866659e-17
  outer loop
    vertex 37.428586163058206 36.735786592938936 5.798947192832514
    vertex 37.614918055745676 36.66931631740478 -1.1673602985757396
    vertex 37.428586163058185 36.735786592938936 -0.8002463918664683
  endloop
endfacet
facet normal 0.33599195292126666 0.9418648563207745 -1.604723656866659e-17
  outer loop
    vertex 37.614918055745676 36.66931631740478 -1.1673602985757396
    vertex 37.428586163058206 36.735786592938936 5.798947192832514
    vertex 37.61491805574564 36.669316317404785 6.166061099541791
  endloop
endfacet
facet normal -0.560176463422512 -0.8283733034251207 -1.803991388311391e-15
  outer loop
    vertex 37.60979359842262 35.52747284901363 -1.788647971010908
    vertex 37.81849448292562 35.38634164293697 6.993759237390632
    vertex 37.609793598422605 35.52747284901363 6.787348771976987
  endloop
endfacet
facet normal -0.560176463422512 -0.8283733034251207 -1.803991388311391e-15
  outer loop
    vertex 37.81849448292562 35.38634164293697 6.993759237390632
    vertex 37.60979359842262 35.52747284901363 -1.788647971010908
    vertex 37.818494482925715 35.38634164293696 -1.99505843642457
  endloop
endfacet
facet normal -0.560176463422512 -0.8283733034251207 -1.803991388311391e-15
  outer loop
    vertex 37.81849448292562 35.38634164293697 6.993759237390632
    vertex 37.818494482925715 35.38634164293696 -1.99505843642457
    vertex 38.09190059804645 35.20145438255187 7.169875392339634
  endloop
endfacet
facet normal -0.560176463422512 -0.8283733034251207 -1.803991388311391e-15
  outer loop
    vertex 38.09190059804645 35.20145438255187 7.169875392339634
    vertex 37.818494482925715 35.38634164293696 -1.99505843642457
    vertex 38.091900598046436 35.20145438255187 -2.1711745913735774
  endloop
endfacet
facet normal 0.8947128543955146 -0.44664181194714747 2.692481872327333e-15
  outer loop
    vertex 45.44755058260187 33.028943538250644 7.499350400483049
    vertex 45.18760842491279 32.508227421526506 -2.500649599516939
    vertex 45.4475505826019 33.028943538250644 -2.5006495995169393
  endloop
endfacet
facet normal 0.8947128543955146 -0.44664181194714747 2.692481872327333e-15
  outer loop
    vertex 45.18760842491279 32.508227421526506 -2.500649599516939
    vertex 45.44755058260187 33.028943538250644 7.499350400483049
    vertex 45.18760842491276 32.508227421526506 7.499350400483049
  endloop
endfacet
facet normal 0.7933533402912268 -0.6087614290087315 2.467145333199718e-15
  outer loop
    vertex 45.08770800240815 32.26704646662904 7.499350400483049
    vertex 44.92878937981028 32.059939685442494 -2.500649599516939
    vertex 45.08770800240818 32.26704646662903 -2.500649599516939
  endloop
endfacet
facet normal 0.7933533402912268 -0.6087614290087315 2.467145333199718e-15
  outer loop
    vertex 44.92878937981028 32.059939685442494 -2.500649599516939
    vertex 45.08770800240815 32.26704646662904 7.499350400483049
    vertex 44.928789379810254 32.059939685442494 7.499350400483049
  endloop
endfacet
facet normal 0.8185408599001751 0.4864330841028724 -0.3055711297947667
  outer loop
    vertex 48.209597502770166 36.725491057782904 -0.38671542093474826
    vertex 48.52841816033119 36.02873833045534 -0.6486998966122068
    vertex 48.11121670129011 36.730690169590396 -0.6486998966122068
  endloop
endfacet
facet normal 0.8185408599001751 0.4864330841028724 -0.3055711297947667
  outer loop
    vertex 48.52841816033119 36.02873833045534 -0.6486998966122068
    vertex 48.209597502770166 36.725491057782904 -0.38671542093474826
    vertex 48.57087021610654 36.11764072538311 -0.38642172718260326
  endloop
endfacet
facet normal 0.8185408599001751 0.4864330841028724 -0.3055711297947667
  outer loop
    vertex 48.57087021610654 36.11764072538311 -0.38642172718260326
    vertex 48.209597502770166 36.725491057782904 -0.38671542093474826
    vertex 48.37722890117061 36.63642254545818 -0.08592056556532658
  endloop
endfacet
facet normal 0.8185408599001751 0.4864330841028724 -0.3055711297947667
  outer loop
    vertex 48.57087021610654 36.11764072538311 -0.38642172718260326
    vertex 48.37722890117061 36.63642254545818 -0.08592056556532658
    vertex 48.57274828471757 36.30745631609084 -0.08592056556532658
  endloop
endfacet
facet normal -0.666753108241952 -0.7452786677811837 -3.899381121953897e-15
  outer loop
    vertex 36.95656061559242 35.94159186043756 -0.7997239904654375
    vertex 37.10400128482995 35.80968613343199 6.166061099541779
    vertex 36.95656061559236 35.94159186043756 5.798424791431517
  endloop
endfacet
facet normal -0.666753108241952 -0.7452786677811837 -3.899381121953897e-15
  outer loop
    vertex 37.10400128482995 35.80968613343199 6.166061099541779
    vertex 36.95656061559242 35.94159186043756 -0.7997239904654375
    vertex 37.10400128482997 35.80968613343199 -1.1673602985757394
  endloop
endfacet
facet normal -3.88905465128181e-31 1.0 -3.769207168602408e-16
  outer loop
    vertex 44.34668259862371 32.51704646662903 7.499350400483049
    vertex 41.09668259862372 32.51704646662903 -2.500649599516933
    vertex 41.096682598623694 32.51704646662903 7.49935040048306
  endloop
endfacet
facet normal -3.88905465128181e-31 1.0 -3.769207168602408e-16
  outer loop
    vertex 41.09668259862372 32.51704646662903 -2.500649599516933
    vertex 44.34668259862371 32.51704646662903 7.499350400483049
    vertex 44.34668259862374 32.51704646662903 -2.500649599516939
  endloop
endfacet
facet normal 0.46399362126708904 0.8858385402676118 2.4162791474894977e-16
  outer loop
    vertex 37.948400395982155 36.49470355367595 6.6206707440426555
    vertex 37.614918055745676 36.66931631740478 -1.1673602985757396
    vertex 37.61491805574564 36.669316317404785 6.166061099541791
  endloop
endfacet
facet normal 0.46399362126708904 0.8858385402676118 2.4162791474894977e-16
  outer loop
    vertex 37.614918055745676 36.66931631740478 -1.1673602985757396
    vertex 37.948400395982155 36.49470355367595 6.6206707440426555
    vertex 37.94840039598217 36.49470355367594 -1.6219699430765764
  endloop
endfacet
facet normal 0.46399362126708904 0.8858385402676118 2.4162791474894977e-16
  outer loop
    vertex 37.94840039598217 36.49470355367594 -1.6219699430765764
    vertex 37.948400395982155 36.49470355367595 6.6206707440426555
    vertex 38.351673141483495 36.2834280069741 6.99375923739061
  endloop
endfacet
facet normal 0.46399362126708904 0.8858385402676118 2.4162791474894977e-16
  outer loop
    vertex 37.94840039598217 36.49470355367594 -1.6219699430765764
    vertex 38.351673141483495 36.2834280069741 6.99375923739061
    vertex 38.35167314148345 36.2834280069741 -1.9950584364245705
  endloop
endfacet
facet normal 0.46399362126708904 0.8858385402676118 2.4162791474894977e-16
  outer loop
    vertex 38.35167314148345 36.2834280069741 -1.9950584364245705
    vertex 38.351673141483495 36.2834280069741 6.99375923739061
    vertex 38.562059592556146 36.17322788215127 -2.1218218336124854
  endloop
endfacet
facet normal 0.46399362126708904 0.8858385402676118 2.4162791474894977e-16
  outer loop
    vertex 38.562059592556146 36.17322788215127 -2.1218218336124854
    vertex 38.351673141483495 36.2834280069741 6.99375923739061
    vertex 38.5620595925561 36.17322788215127 7.12052263457857
  endloop
endfacet
facet normal 0.4052268636018883 0.24084449859932658 0.8819212643483633
  outer loop
    vertex 46.88130560469126 36.17322788215127 7.120522634578626
    vertex 47.6248707143217 35.38634164293697 6.993759237390689
    vertex 47.09169205576397 36.2834280069741 6.9937592373907345
  endloop
endfacet
facet normal 0.4052268636018883 0.24084449859932658 0.8819212643483633
  outer loop
    vertex 47.6248707143217 35.38634164293697 6.993759237390689
    vertex 46.88130560469126 36.17322788215127 7.120522634578626
    vertex 46.615977829022626 36.068672688774704 7.2709889980169
  endloop
endfacet
facet normal 0.4052268636018883 0.24084449859932658 0.8819212643483633
  outer loop
    vertex 47.6248707143217 35.38634164293697 6.993759237390689
    vertex 46.615977829022626 36.068672688774704 7.2709889980169
    vertex 47.35146459920099 35.20145438255187 7.169875392339713
  endloop
endfacet
facet normal 0.4052268636018883 0.24084449859932658 0.8819212643483633
  outer loop
    vertex 47.35146459920099 35.20145438255187 7.169875392339713
    vertex 46.615977829022626 36.068672688774704 7.2709889980169
    vertex 47.20285088047398 35.081244172220806 7.2709889980169455
  endloop
endfacet
facet normal -0.24953747051275108 0.14831130994915903 0.9569403357322036
  outer loop
    vertex 38.240514316773435 35.081244172220806 7.270988998016833
    vertex 39.35782971524679 35.859646317418644 7.441706241692708
    vertex 38.82738736822478 36.068672688774704 7.2709889980168665
  endloop
endfacet
facet normal -0.24953747051275108 0.14831130994915903 0.9569403357322036
  outer loop
    vertex 39.35782971524679 35.859646317418644 7.441706241692708
    vertex 38.240514316773435 35.081244172220806 7.270988998016833
    vertex 38.544394345891064 34.835442623557945 7.388326097606429
  endloop
endfacet
facet normal -0.24953747051275108 0.14831130994915903 0.9569403357322036
  outer loop
    vertex 39.35782971524679 35.859646317418644 7.441706241692708
    vertex 38.544394345891064 34.835442623557945 7.388326097606429
    vertex 38.67466898590323 34.710211386175324 7.441706241692696
  endloop
endfacet
facet normal -0.46399362126708893 0.885838540267612 -1.9027740150112295e-15
  outer loop
    vertex 47.09169205576397 36.2834280069741 6.9937592373907345
    vertex 46.88130560469134 36.17322788215127 -2.1218218336124908
    vertex 46.88130560469126 36.17322788215127 7.120522634578626
  endloop
endfacet
facet normal -0.46399362126708893 0.885838540267612 -1.9027740150112295e-15
  outer loop
    vertex 46.88130560469134 36.17322788215127 -2.1218218336124908
    vertex 47.09169205576397 36.2834280069741 6.9937592373907345
    vertex 47.091692055763986 36.2834280069741 -1.995058436424576
  endloop
endfacet
facet normal -0.46399362126708893 0.885838540267612 -1.9027740150112295e-15
  outer loop
    vertex 47.091692055763986 36.2834280069741 -1.995058436424576
    vertex 47.09169205576397 36.2834280069741 6.9937592373907345
    vertex 47.49496480126527 36.49470355367595 6.620670744042678
  endloop
endfacet
facet normal -0.46399362126708893 0.885838540267612 -1.9027740150112295e-15
  outer loop
    vertex 47.091692055763986 36.2834280069741 -1.995058436424576
    vertex 47.49496480126527 36.49470355367595 6.620670744042678
    vertex 47.49496480126526 36.49470355367594 -1.6219699430765822
  endloop
endfacet
facet normal -0.46399362126708893 0.885838540267612 -1.9027740150112295e-15
  outer loop
    vertex 47.49496480126526 36.49470355367594 -1.6219699430765822
    vertex 47.49496480126527 36.49470355367595 6.620670744042678
    vertex 47.8284471415018 36.66931631740478 -1.1673602985757452
  endloop
endfacet
facet normal -0.46399362126708893 0.885838540267612 -1.9027740150112295e-15
  outer loop
    vertex 47.8284471415018 36.66931631740478 -1.1673602985757452
    vertex 47.49496480126527 36.49470355367595 6.620670744042678
    vertex 47.82844714150176 36.669316317404785 6.166061099541892
  endloop
endfacet
facet normal 0.08425849237400501 0.05007860083163036 0.9951847266721924
  outer loop
    vertex 45.88396025879205 35.7802134861239 7.462769978803055
    vertex 46.7686962113442 34.710211386175324 7.441706241692798
    vertex 46.08553548200069 35.859646317418644 7.44170624169273
  endloop
endfacet
facet normal 0.08425849237400501 0.05007860083163036 0.9951847266721924
  outer loop
    vertex 46.7686962113442 34.710211386175324 7.441706241692798
    vertex 45.88396025879205 35.7802134861239 7.462769978803055
    vertex 45.512553004624685 35.678172662830484 7.499350400483081
  endloop
endfacet
facet normal 0.08425849237400501 0.05007860083163036 0.9951847266721924
  outer loop
    vertex 46.7686962113442 34.710211386175324 7.441706241692798
    vertex 45.512553004624685 35.678172662830484 7.499350400483081
    vertex 46.47939861897874 34.4321135502468 7.4801941007517305
  endloop
endfacet
facet normal 0.08425849237400501 0.05007860083163036 0.9951847266721924
  outer loop
    vertex 46.47939861897874 34.4321135502468 7.4801941007517305
    vertex 45.512553004624685 35.678172662830484 7.499350400483081
    vertex 46.3445769159432 34.27827172265466 7.499350400483103
  endloop
endfacet
facet normal -0.8168800162183787 0.4853919743497973 0.3116114091939951
  outer loop
    vertex 36.872494981140875 36.11764072538311 5.385122528148671
    vertex 37.06613629607682 36.63642254545819 5.084621366531383
    vertex 36.87061691252989 36.30745631609084 5.08462136653136
  endloop
endfacet
facet normal -0.8168800162183787 0.4853919743497973 0.3116114091939951
  outer loop
    vertex 37.06613629607682 36.63642254545819 5.084621366531383
    vertex 36.872494981140875 36.11764072538311 5.385122528148671
    vertex 37.23376769447728 36.725491057782904 5.385416221900799
  endloop
endfacet
facet normal 0.46921410746817754 0.8830844361400791 -8.3400885939494095e-16
  outer loop
    vertex 48.377228901170625 36.63642254545819 5.084621366531451
    vertex 48.209597502770166 36.725491057782904 -0.38671542093474826
    vertex 48.209597502770166 36.725491057782904 5.385416221900845
  endloop
endfacet
facet normal 0.46921410746817754 0.8830844361400791 -8.3400885939494095e-16
  outer loop
    vertex 48.209597502770166 36.725491057782904 -0.38671542093474826
    vertex 48.377228901170625 36.63642254545819 5.084621366531451
    vertex 48.37722890117061 36.63642254545818 -0.08592056556532658
  endloop
endfacet
facet normal 0.26492434394297015 0.9642692009944045 -7.196936722519473e-16
  outer loop
    vertex 39.559404938455394 35.7802134861239 7.462769978803044
    vertex 39.93081219262276 35.67817266283048 -2.500649599516934
    vertex 39.55940493845535 35.7802134861239 -2.464069177836959
  endloop
endfacet
facet normal 0.26492434394297015 0.9642692009944045 -7.196936722519473e-16
  outer loop
    vertex 39.93081219262276 35.67817266283048 -2.500649599516934
    vertex 39.559404938455394 35.7802134861239 7.462769978803044
    vertex 39.93081219262279 35.678172662830484 7.499350400483014
  endloop
endfacet
facet normal 0.26492434394297015 0.9642692009944045 -7.196936722519473e-16
  outer loop
    vertex 39.93081219262276 35.67817266283048 -2.500649599516934
    vertex 39.93081219262279 35.678172662830484 7.499350400483014
    vertex 40.59308985279113 35.49621779540627 -2.500649599516934
  endloop
endfacet
facet normal 0.26492434394297015 0.9642692009944045 -7.196936722519473e-16
  outer loop
    vertex 40.59308985279113 35.49621779540627 -2.500649599516934
    vertex 39.93081219262279 35.678172662830484 7.499350400483014
    vertex 40.5930898527911 35.49621779540627 7.499350400483059
  endloop
endfacet
facet normal -0.662500804468947 0.3937539398442473 0.6372209341626583
  outer loop
    vertex 37.43237442248203 35.626477009184946 6.620670744042633
    vertex 37.61491805574564 36.669316317404785 6.166061099541791
    vertex 37.10400128482995 35.80968613343199 6.166061099541779
  endloop
endfacet
facet normal -0.662500804468947 0.3937539398442473 0.6372209341626583
  outer loop
    vertex 37.61491805574564 36.669316317404785 6.166061099541791
    vertex 37.43237442248203 35.626477009184946 6.620670744042633
    vertex 37.948400395982155 36.49470355367595 6.6206707440426555
  endloop
endfacet
facet normal 0.4872456990252388 -0.8732649247401425 1.4990157228507767e-15
  outer loop
    vertex 47.83357159882483 35.52747284901363 -1.7886479710109136
    vertex 48.010990774765396 35.626477009184946 6.620670744042712
    vertex 47.8335715988248 35.52747284901363 6.787348771977055
  endloop
endfacet
facet normal 0.4872456990252388 -0.8732649247401425 1.4990157228507767e-15
  outer loop
    vertex 48.010990774765396 35.626477009184946 6.620670744042712
    vertex 47.83357159882483 35.52747284901363 -1.7886479710109136
    vertex 48.01099077476541 35.626477009184946 -1.6219699430765822
  endloop
endfacet
facet normal 0.4872456990252388 -0.8732649247401425 1.4990157228507767e-15
  outer loop
    vertex 48.010990774765396 35.626477009184946 6.620670744042712
    vertex 48.01099077476541 35.626477009184946 -1.6219699430765822
    vertex 48.33936391241748 35.80968613343199 6.166061099541847
  endloop
endfacet
facet normal 0.4872456990252388 -0.8732649247401425 1.4990157228507767e-15
  outer loop
    vertex 48.33936391241748 35.80968613343199 6.166061099541847
    vertex 48.01099077476541 35.626477009184946 -1.6219699430765822
    vertex 48.33936391241748 35.80968613343199 -1.167360298575745
  endloop
endfacet
facet normal -0.08425849237399961 0.05007860083157753 0.9951847266721954
  outer loop
    vertex 38.67466898590323 34.710211386175324 7.441706241692696
    vertex 39.559404938455394 35.7802134861239 7.462769978803044
    vertex 39.35782971524679 35.859646317418644 7.441706241692708
  endloop
endfacet
facet normal -0.08425849237399961 0.05007860083157753 0.9951847266721954
  outer loop
    vertex 39.559404938455394 35.7802134861239 7.462769978803044
    vertex 38.67466898590323 34.710211386175324 7.441706241692696
    vertex 39.93081219262279 35.678172662830484 7.499350400483014
  endloop
endfacet
facet normal -0.08425849237399961 0.05007860083157753 0.9951847266721954
  outer loop
    vertex 39.93081219262279 35.678172662830484 7.499350400483014
    vertex 38.67466898590323 34.710211386175324 7.441706241692696
    vertex 38.96396657826866 34.4321135502468 7.4801941007515955
  endloop
endfacet
facet normal -0.08425849237399961 0.05007860083157753 0.9951847266721954
  outer loop
    vertex 39.93081219262279 35.678172662830484 7.499350400483014
    vertex 38.96396657826866 34.4321135502468 7.4801941007515955
    vertex 39.09878828130422 34.278271722654644 7.499350400483025
  endloop
endfacet
facet normal 0.16018224300696687 0.987087457637497 1.0544898931204072e-16
  outer loop
    vertex 41.65123566211252 35.32450436935262 7.499350400483059
    vertex 40.59308985279113 35.49621779540627 -2.500649599516934
    vertex 40.5930898527911 35.49621779540627 7.499350400483059
  endloop
endfacet
facet normal 0.16018224300696687 0.987087457637497 1.0544898931204072e-16
  outer loop
    vertex 40.59308985279113 35.49621779540627 -2.500649599516934
    vertex 41.65123566211252 35.32450436935262 7.499350400483059
    vertex 41.65123566211255 35.32450436935261 -2.500649599516934
  endloop
endfacet
facet normal 0.6625008044689258 0.39375393984424967 0.6372209341626789
  outer loop
    vertex 47.82844714150176 36.669316317404785 6.166061099541892
    vertex 48.010990774765396 35.626477009184946 6.620670744042712
    vertex 48.33936391241748 35.80968613343199 6.166061099541847
  endloop
endfacet
facet normal 0.6625008044689258 0.39375393984424967 0.6372209341626789
  outer loop
    vertex 48.010990774765396 35.626477009184946 6.620670744042712
    vertex 47.82844714150176 36.669316317404785 6.166061099541892
    vertex 47.49496480126527 36.49470355367595 6.620670744042678
  endloop
endfacet
facet normal 0.052773172188304136 0.99860652526267 -3.128910703766829e-16
  outer loop
    vertex 48.01477903418926 36.735786592938936 5.798947192832581
    vertex 48.11121670129011 36.730690169590396 -0.6486998966122068
    vertex 48.01477903418923 36.735786592938936 -0.800246391866474
  endloop
endfacet
facet normal 0.052773172188304136 0.99860652526267 -3.128910703766829e-16
  outer loop
    vertex 48.11121670129011 36.730690169590396 -0.6486998966122068
    vertex 48.01477903418926 36.735786592938936 5.798947192832581
    vertex 48.11121670129004 36.7306901695904 5.647400697578342
  endloop
endfacet
facet normal 0.052773172188304136 0.99860652526267 -3.128910703766829e-16
  outer loop
    vertex 48.11121670129011 36.730690169590396 -0.6486998966122068
    vertex 48.11121670129004 36.7306901695904 5.647400697578342
    vertex 48.209597502770166 36.725491057782904 5.385416221900845
  endloop
endfacet
facet normal 0.052773172188304136 0.99860652526267 -3.128910703766829e-16
  outer loop
    vertex 48.11121670129011 36.730690169590396 -0.6486998966122068
    vertex 48.209597502770166 36.725491057782904 5.385416221900845
    vertex 48.209597502770166 36.725491057782904 -0.38671542093474826
  endloop
endfacet
facet normal -1.2249702015486687e-15 1.6013830034980507e-16 1.0
  outer loop
    vertex 39.34754972664931 33.994415974472474 7.499350400483059
    vertex 41.096682598623694 34.26704646662904 7.499350400483059
    vertex 39.09878828130422 34.278271722654644 7.499350400483025
  endloop
endfacet
facet normal -1.2249702015486687e-15 1.6013830034980507e-16 1.0
  outer loop
    vertex 41.096682598623694 34.26704646662904 7.499350400483059
    vertex 39.34754972664931 33.994415974472474 7.499350400483059
    vertex 41.096682598623694 32.51704646662903 7.49935040048306
  endloop
endfacet
facet normal -1.2249702015486687e-15 1.6013830034980507e-16 1.0
  outer loop
    vertex 41.096682598623694 32.51704646662903 7.49935040048306
    vertex 39.34754972664931 33.994415974472474 7.499350400483059
    vertex 39.69233934521002 33.525549982430924 7.49935040048306
  endloop
endfacet
facet normal -1.2249702015486687e-15 1.6013830034980507e-16 1.0
  outer loop
    vertex 41.096682598623694 32.51704646662903 7.49935040048306
    vertex 39.69233934521002 33.525549982430924 7.49935040048306
    vertex 39.99581461464554 33.028943538250644 7.49935040048306
  endloop
endfacet
facet normal -1.2249702015486687e-15 1.6013830034980507e-16 1.0
  outer loop
    vertex 41.096682598623694 32.51704646662903 7.49935040048306
    vertex 39.99581461464554 33.028943538250644 7.49935040048306
    vertex 40.25575677233465 32.508227421526506 7.49935040048306
  endloop
endfacet
facet normal -1.2249702015486687e-15 1.6013830034980507e-16 1.0
  outer loop
    vertex 41.096682598623694 32.51704646662903 7.49935040048306
    vertex 40.25575677233465 32.508227421526506 7.49935040048306
    vertex 44.34668259862371 32.51704646662903 7.499350400483049
  endloop
endfacet
facet normal -1.2249702015486687e-15 1.6013830034980507e-16 1.0
  outer loop
    vertex 39.09878828130422 34.278271722654644 7.499350400483025
    vertex 40.5930898527911 35.49621779540627 7.499350400483059
    vertex 39.93081219262279 35.678172662830484 7.499350400483014
  endloop
endfacet
facet normal -1.2249702015486687e-15 1.6013830034980507e-16 1.0
  outer loop
    vertex 40.5930898527911 35.49621779540627 7.499350400483059
    vertex 39.09878828130422 34.278271722654644 7.499350400483025
    vertex 41.65123566211252 35.32450436935262 7.499350400483059
  endloop
endfacet
facet normal -1.2249702015486687e-15 1.6013830034980507e-16 1.0
  outer loop
    vertex 41.65123566211252 35.32450436935262 7.499350400483059
    vertex 39.09878828130422 34.278271722654644 7.499350400483025
    vertex 42.7216825986237 35.26704646662903 7.499350400483059
  endloop
endfacet
facet normal -1.2249702015486687e-15 1.6013830034980507e-16 1.0
  outer loop
    vertex 42.7216825986237 35.26704646662903 7.499350400483059
    vertex 39.09878828130422 34.278271722654644 7.499350400483025
    vertex 46.3445769159432 34.27827172265466 7.499350400483103
  endloop
endfacet
facet normal -1.2249702015486687e-15 1.6013830034980507e-16 1.0
  outer loop
    vertex 46.3445769159432 34.27827172265466 7.499350400483103
    vertex 39.09878828130422 34.278271722654644 7.499350400483025
    vertex 44.34668259862371 34.26704646662904 7.499350400483047
  endloop
endfacet
facet normal -1.2249702015486687e-15 1.6013830034980507e-16 1.0
  outer loop
    vertex 46.3445769159432 34.27827172265466 7.499350400483103
    vertex 44.34668259862371 34.26704646662904 7.499350400483047
    vertex 46.0958154705981 33.994415974472474 7.499350400483047
  endloop
endfacet
facet normal -1.2249702015486687e-15 1.6013830034980507e-16 1.0
  outer loop
    vertex 44.34668259862371 34.26704646662904 7.499350400483047
    vertex 39.09878828130422 34.278271722654644 7.499350400483025
    vertex 41.096682598623694 34.26704646662904 7.499350400483059
  endloop
endfacet
facet normal -1.2249702015486687e-15 1.6013830034980507e-16 1.0
  outer loop
    vertex 46.0958154705981 33.994415974472474 7.499350400483047
    vertex 44.34668259862371 34.26704646662904 7.499350400483047
    vertex 44.34668259862371 32.51704646662903 7.499350400483049
  endloop
endfacet
facet normal -1.2249702015486687e-15 1.6013830034980507e-16 1.0
  outer loop
    vertex 46.0958154705981 33.994415974472474 7.499350400483047
    vertex 44.34668259862371 32.51704646662903 7.499350400483049
    vertex 45.75102585203739 33.525549982430924 7.499350400483049
  endloop
endfacet
facet normal -1.2249702015486687e-15 1.6013830034980507e-16 1.0
  outer loop
    vertex 45.75102585203739 33.525549982430924 7.499350400483049
    vertex 44.34668259862371 32.51704646662903 7.499350400483049
    vertex 45.44755058260187 33.028943538250644 7.499350400483049
  endloop
endfacet
facet normal -1.2249702015486687e-15 1.6013830034980507e-16 1.0
  outer loop
    vertex 45.44755058260187 33.028943538250644 7.499350400483049
    vertex 44.34668259862371 32.51704646662903 7.499350400483049
    vertex 45.18760842491276 32.508227421526506 7.499350400483049
  endloop
endfacet
facet normal -1.2249702015486687e-15 1.6013830034980507e-16 1.0
  outer loop
    vertex 45.18760842491276 32.508227421526506 7.499350400483049
    vertex 44.34668259862371 32.51704646662903 7.499350400483049
    vertex 40.25575677233465 32.508227421526506 7.49935040048306
  endloop
endfacet
facet normal -1.2249702015486687e-15 1.6013830034980507e-16 1.0
  outer loop
    vertex 45.18760842491276 32.508227421526506 7.499350400483049
    vertex 40.25575677233465 32.508227421526506 7.49935040048306
    vertex 40.35565719483926 32.26704646662904 7.49935040048306
  endloop
endfacet
facet normal -1.2249702015486687e-15 1.6013830034980507e-16 1.0
  outer loop
    vertex 45.18760842491276 32.508227421526506 7.499350400483049
    vertex 40.35565719483926 32.26704646662904 7.49935040048306
    vertex 45.08770800240815 32.26704646662904 7.499350400483049
  endloop
endfacet
facet normal -1.2249702015486687e-15 1.6013830034980507e-16 1.0
  outer loop
    vertex 45.08770800240815 32.26704646662904 7.499350400483049
    vertex 40.35565719483926 32.26704646662904 7.49935040048306
    vertex 40.514575817437155 32.059939685442494 7.49935040048306
  endloop
endfacet
facet normal -1.2249702015486687e-15 1.6013830034980507e-16 1.0
  outer loop
    vertex 45.08770800240815 32.26704646662904 7.499350400483049
    vertex 40.514575817437155 32.059939685442494 7.49935040048306
    vertex 44.928789379810254 32.059939685442494 7.499350400483049
  endloop
endfacet
facet normal -1.2249702015486687e-15 1.6013830034980507e-16 1.0
  outer loop
    vertex 44.928789379810254 32.059939685442494 7.499350400483049
    vertex 40.514575817437155 32.059939685442494 7.49935040048306
    vertex 40.7216825986237 31.9010210628446 7.49935040048306
  endloop
endfacet
facet normal -1.2249702015486687e-15 1.6013830034980507e-16 1.0
  outer loop
    vertex 44.928789379810254 32.059939685442494 7.499350400483049
    vertex 40.7216825986237 31.9010210628446 7.49935040048306
    vertex 44.72168259862371 31.9010210628446 7.499350400483049
  endloop
endfacet
facet normal -1.2249702015486687e-15 1.6013830034980507e-16 1.0
  outer loop
    vertex 44.72168259862371 31.9010210628446 7.499350400483049
    vertex 40.7216825986237 31.9010210628446 7.49935040048306
    vertex 40.96286355352118 31.801120640339974 7.49935040048306
  endloop
endfacet
facet normal -1.2249702015486687e-15 1.6013830034980507e-16 1.0
  outer loop
    vertex 44.72168259862371 31.9010210628446 7.499350400483049
    vertex 40.96286355352118 31.801120640339974 7.49935040048306
    vertex 44.48050164372623 31.801120640339974 7.499350400483049
  endloop
endfacet
facet normal -1.2249702015486687e-15 1.6013830034980507e-16 1.0
  outer loop
    vertex 44.48050164372623 31.801120640339974 7.499350400483049
    vertex 40.96286355352118 31.801120640339974 7.49935040048306
    vertex 41.221682598623694 31.76704646662904 7.49935040048306
  endloop
endfacet
facet normal -1.2249702015486687e-15 1.6013830034980507e-16 1.0
  outer loop
    vertex 44.48050164372623 31.801120640339974 7.499350400483049
    vertex 41.221682598623694 31.76704646662904 7.49935040048306
    vertex 44.22168259862371 31.76704646662904 7.499350400483049
  endloop
endfacet
facet normal -1.2249702015486687e-15 1.6013830034980507e-16 1.0
  outer loop
    vertex 44.8502753444563 35.49621779540627 7.499350400483047
    vertex 46.3445769159432 34.27827172265466 7.499350400483103
    vertex 45.512553004624685 35.678172662830484 7.499350400483081
  endloop
endfacet
facet normal -1.2249702015486687e-15 1.6013830034980507e-16 1.0
  outer loop
    vertex 46.3445769159432 34.27827172265466 7.499350400483103
    vertex 44.8502753444563 35.49621779540627 7.499350400483047
    vertex 43.79212953513488 35.32450436935262 7.499350400483047
  endloop
endfacet
facet normal -1.2249702015486687e-15 1.6013830034980507e-16 1.0
  outer loop
    vertex 46.3445769159432 34.27827172265466 7.499350400483103
    vertex 43.79212953513488 35.32450436935262 7.499350400483047
    vertex 42.7216825986237 35.26704646662903 7.499350400483059
  endloop
endfacet
facet normal 0.560176463422515 -0.8283733034251186 3.3107704375378214e-15
  outer loop
    vertex 47.35146459920099 35.20145438255187 -2.1711745913735827
    vertex 47.6248707143217 35.38634164293697 6.993759237390689
    vertex 47.35146459920099 35.20145438255187 7.169875392339713
  endloop
endfacet
facet normal 0.560176463422515 -0.8283733034251186 3.3107704375378214e-15
  outer loop
    vertex 47.6248707143217 35.38634164293697 6.993759237390689
    vertex 47.35146459920099 35.20145438255187 -2.1711745913735827
    vertex 47.6248707143218 35.38634164293696 -1.9950584364245758
  endloop
endfacet
facet normal 0.560176463422515 -0.8283733034251186 3.3107704375378214e-15
  outer loop
    vertex 47.6248707143217 35.38634164293697 6.993759237390689
    vertex 47.6248707143218 35.38634164293696 -1.9950584364245758
    vertex 47.8335715988248 35.52747284901363 6.787348771977055
  endloop
endfacet
facet normal 0.560176463422515 -0.8283733034251186 3.3107704375378214e-15
  outer loop
    vertex 47.8335715988248 35.52747284901363 6.787348771977055
    vertex 47.6248707143218 35.38634164293696 -1.9950584364245758
    vertex 47.83357159882483 35.52747284901363 -1.7886479710109136
  endloop
endfacet
facet normal 0.5453436155766964 0.324122168235493 0.773010453362734
  outer loop
    vertex 47.09169205576397 36.2834280069741 6.9937592373907345
    vertex 48.010990774765396 35.626477009184946 6.620670744042712
    vertex 47.49496480126527 36.49470355367595 6.620670744042678
  endloop
endfacet
facet normal 0.5453436155766964 0.324122168235493 0.773010453362734
  outer loop
    vertex 48.010990774765396 35.626477009184946 6.620670744042712
    vertex 47.09169205576397 36.2834280069741 6.9937592373907345
    vertex 47.8335715988248 35.52747284901363 6.787348771977055
  endloop
endfacet
facet normal 0.5453436155766964 0.324122168235493 0.773010453362734
  outer loop
    vertex 47.8335715988248 35.52747284901363 6.787348771977055
    vertex 47.09169205576397 36.2834280069741 6.9937592373907345
    vertex 47.6248707143217 35.38634164293697 6.993759237390689
  endloop
endfacet
facet normal -0.6288943535912865 -0.7774907665181614 -6.189260426929635e-16
  outer loop
    vertex 38.24051431677345 35.0812441722208 -2.2722881970507927
    vertex 38.09190059804645 35.20145438255187 7.169875392339634
    vertex 38.091900598046436 35.20145438255187 -2.1711745913735774
  endloop
endfacet
facet normal -0.6288943535912865 -0.7774907665181614 -6.189260426929635e-16
  outer loop
    vertex 38.09190059804645 35.20145438255187 7.169875392339634
    vertex 38.24051431677345 35.0812441722208 -2.2722881970507927
    vertex 38.240514316773435 35.081244172220806 7.270988998016833
  endloop
endfacet
facet normal -0.6288943535912865 -0.7774907665181614 -6.189260426929635e-16
  outer loop
    vertex 38.240514316773435 35.081244172220806 7.270988998016833
    vertex 38.24051431677345 35.0812441722208 -2.2722881970507927
    vertex 38.544394345891064 34.835442623557945 7.388326097606429
  endloop
endfacet
facet normal -0.6288943535912865 -0.7774907665181614 -6.189260426929635e-16
  outer loop
    vertex 38.544394345891064 34.835442623557945 7.388326097606429
    vertex 38.24051431677345 35.0812441722208 -2.2722881970507927
    vertex 38.5443943458911 34.83544262355794 -2.3896252966403435
  endloop
endfacet
facet normal 0.7593820451183784 0.4511616629260134 0.46881986248202373
  outer loop
    vertex 48.01477903418926 36.735786592938936 5.798947192832581
    vertex 48.52841816033116 36.02873833045534 5.647400697578365
    vertex 48.11121670129004 36.7306901695904 5.647400697578342
  endloop
endfacet
facet normal 0.7593820451183784 0.4511616629260134 0.46881986248202373
  outer loop
    vertex 48.52841816033116 36.02873833045534 5.647400697578365
    vertex 48.01477903418926 36.735786592938936 5.798947192832581
    vertex 48.486804581655015 35.94159186043756 5.798424791431585
  endloop
endfacet
facet normal 0.8168800162183603 0.4853919743497743 0.311611409194079
  outer loop
    vertex 48.209597502770166 36.725491057782904 5.385416221900845
    vertex 48.572748284717555 36.30745631609084 5.084621366531496
    vertex 48.377228901170625 36.63642254545819 5.084621366531451
  endloop
endfacet
facet normal 0.8168800162183603 0.4853919743497743 0.311611409194079
  outer loop
    vertex 48.572748284717555 36.30745631609084 5.084621366531496
    vertex 48.209597502770166 36.725491057782904 5.385416221900845
    vertex 48.57087021610655 36.11764072538311 5.385122528148694
  endloop
endfacet
facet normal -1.0 -6.8963674293613615e-31 -2.8199664825479006e-15
  outer loop
    vertex 44.34668259862371 32.51704646662903 7.499350400483049
    vertex 44.34668259862374 34.26704646662903 -2.5006495995169393
    vertex 44.34668259862374 32.51704646662903 -2.500649599516939
  endloop
endfacet
facet normal -1.0 -6.8963674293613615e-31 -2.8199664825479006e-15
  outer loop
    vertex 44.34668259862374 34.26704646662903 -2.5006495995169393
    vertex 44.34668259862371 32.51704646662903 7.499350400483049
    vertex 44.34668259862371 34.26704646662904 7.499350400483047
  endloop
endfacet
facet normal -0.36662204544226346 0.9303699671613068 -8.71627465864908e-16
  outer loop
    vertex 46.08553548200069 35.859646317418644 7.44170624169273
    vertex 45.88396025879206 35.7802134861239 -2.4640691778369646
    vertex 45.88396025879205 35.7802134861239 7.462769978803055
  endloop
endfacet
facet normal -0.36662204544226346 0.9303699671613068 -8.71627465864908e-16
  outer loop
    vertex 45.88396025879206 35.7802134861239 -2.4640691778369646
    vertex 46.08553548200069 35.859646317418644 7.44170624169273
    vertex 46.08553548200066 35.859646317418644 -2.443005440726628
  endloop
endfacet
facet normal -0.36662204544226346 0.9303699671613068 -8.71627465864908e-16
  outer loop
    vertex 46.08553548200066 35.859646317418644 -2.443005440726628
    vertex 46.08553548200069 35.859646317418644 7.44170624169273
    vertex 46.61597782902263 36.068672688774704 -2.2722881970507984
  endloop
endfacet
facet normal -0.36662204544226346 0.9303699671613068 -8.71627465864908e-16
  outer loop
    vertex 46.61597782902263 36.068672688774704 -2.2722881970507984
    vertex 46.08553548200069 35.859646317418644 7.44170624169273
    vertex 46.615977829022626 36.068672688774704 7.2709889980169
  endloop
endfacet
facet normal -0.36662204544226346 0.9303699671613068 -8.71627465864908e-16
  outer loop
    vertex 46.61597782902263 36.068672688774704 -2.2722881970507984
    vertex 46.615977829022626 36.068672688774704 7.2709889980169
    vertex 46.88130560469126 36.17322788215127 7.120522634578626
  endloop
endfacet
facet normal -0.36662204544226346 0.9303699671613068 -8.71627465864908e-16
  outer loop
    vertex 46.61597782902263 36.068672688774704 -2.2722881970507984
    vertex 46.88130560469126 36.17322788215127 7.120522634578626
    vertex 46.88130560469134 36.17322788215127 -2.1218218336124908
  endloop
endfacet
facet normal -0.40522686360189814 0.24084449859932813 0.8819212643483583
  outer loop
    vertex 37.81849448292562 35.38634164293697 6.993759237390632
    vertex 38.5620595925561 36.17322788215127 7.12052263457857
    vertex 38.351673141483495 36.2834280069741 6.99375923739061
  endloop
endfacet
facet normal -0.40522686360189814 0.24084449859932813 0.8819212643483583
  outer loop
    vertex 38.5620595925561 36.17322788215127 7.12052263457857
    vertex 37.81849448292562 35.38634164293697 6.993759237390632
    vertex 38.82738736822478 36.068672688774704 7.2709889980168665
  endloop
endfacet
facet normal -0.40522686360189814 0.24084449859932813 0.8819212643483583
  outer loop
    vertex 38.82738736822478 36.068672688774704 7.2709889980168665
    vertex 37.81849448292562 35.38634164293697 6.993759237390632
    vertex 38.09190059804645 35.20145438255187 7.169875392339634
  endloop
endfacet
facet normal -0.40522686360189814 0.24084449859932813 0.8819212643483583
  outer loop
    vertex 38.82738736822478 36.068672688774704 7.2709889980168665
    vertex 38.09190059804645 35.20145438255187 7.169875392339634
    vertex 38.240514316773435 35.081244172220806 7.270988998016833
  endloop
endfacet
facet normal 2.804742453816893e-31 -1.0 3.4167113582839204e-16
  outer loop
    vertex 41.09668259862372 34.26704646662903 -2.5006495995169336
    vertex 44.34668259862371 34.26704646662904 7.499350400483047
    vertex 41.096682598623694 34.26704646662904 7.499350400483059
  endloop
endfacet
facet normal 2.804742453816893e-31 -1.0 3.4167113582839204e-16
  outer loop
    vertex 44.34668259862371 34.26704646662904 7.499350400483047
    vertex 41.09668259862372 34.26704646662903 -2.5006495995169336
    vertex 44.34668259862374 34.26704646662903 -2.5006495995169393
  endloop
endfacet
facet normal -0.76009684454976 0.4516181079660029 0.46721929697167486
  outer loop
    vertex 37.10400128482995 35.80968613343199 6.166061099541779
    vertex 37.428586163058206 36.735786592938936 5.798947192832514
    vertex 36.95656061559236 35.94159186043756 5.798424791431517
  endloop
endfacet
facet normal -0.76009684454976 0.4516181079660029 0.46721929697167486
  outer loop
    vertex 37.428586163058206 36.735786592938936 5.798947192832514
    vertex 37.10400128482995 35.80968613343199 6.166061099541779
    vertex 37.61491805574564 36.669316317404785 6.166061099541791
  endloop
endfacet
facet normal -0.7520674601867803 -0.6590861365012965 -1.9205487966467927e-15
  outer loop
    vertex 39.34754972664931 33.994415974472474 7.499350400483059
    vertex 39.09878828130425 34.27827172265464 -2.5006495995169336
    vertex 39.34754972664933 33.99441597447247 -2.5006495995169336
  endloop
endfacet
facet normal -0.7520674601867803 -0.6590861365012965 -1.9205487966467927e-15
  outer loop
    vertex 39.09878828130425 34.27827172265464 -2.5006495995169336
    vertex 39.34754972664931 33.994415974472474 7.499350400483059
    vertex 38.96396657826869 34.43211355024679 -2.4814932997855212
  endloop
endfacet
facet normal -0.7520674601867803 -0.6590861365012965 -1.9205487966467927e-15
  outer loop
    vertex 38.96396657826869 34.43211355024679 -2.4814932997855212
    vertex 39.34754972664931 33.994415974472474 7.499350400483059
    vertex 38.96396657826866 34.4321135502468 7.4801941007515955
  endloop
endfacet
facet normal -0.7520674601867803 -0.6590861365012965 -1.9205487966467927e-15
  outer loop
    vertex 38.96396657826866 34.4321135502468 7.4801941007515955
    vertex 39.34754972664931 33.994415974472474 7.499350400483059
    vertex 39.09878828130422 34.278271722654644 7.499350400483025
  endloop
endfacet
facet normal 0.628894353591281 -0.7774907665181657 8.976173922917512e-16
  outer loop
    vertex 46.89897085135635 34.83544262355794 -2.3896252966403493
    vertex 47.20285088047398 35.081244172220806 7.2709889980169455
    vertex 46.89897085135633 34.835442623557945 7.388326097606451
  endloop
endfacet
facet normal 0.628894353591281 -0.7774907665181657 8.976173922917512e-16
  outer loop
    vertex 47.20285088047398 35.081244172220806 7.2709889980169455
    vertex 46.89897085135635 34.83544262355794 -2.3896252966403493
    vertex 47.20285088047398 35.0812441722208 -2.2722881970507984
  endloop
endfacet
facet normal 0.628894353591281 -0.7774907665181657 8.976173922917512e-16
  outer loop
    vertex 47.20285088047398 35.081244172220806 7.2709889980169455
    vertex 47.20285088047398 35.0812441722208 -2.2722881970507984
    vertex 47.35146459920099 35.20145438255187 -2.1711745913735827
  endloop
endfacet
facet normal 0.628894353591281 -0.7774907665181657 8.976173922917512e-16
  outer loop
    vertex 47.20285088047398 35.081244172220806 7.2709889980169455
    vertex 47.35146459920099 35.20145438255187 -2.1711745913735827
    vertex 47.35146459920099 35.20145438255187 7.169875392339713
  endloop
endfacet
facet normal -0.05359939492362712 0.9985625192564664 -5.232127887949615e-16
  outer loop
    vertex 43.79212953513488 35.32450436935262 7.499350400483047
    vertex 42.72168259862373 35.26704646662903 -2.500649599516934
    vertex 42.7216825986237 35.26704646662903 7.499350400483059
  endloop
endfacet
facet normal -0.05359939492362712 0.9985625192564664 -5.232127887949615e-16
  outer loop
    vertex 42.72168259862373 35.26704646662903 -2.500649599516934
    vertex 43.79212953513488 35.32450436935262 7.499350400483047
    vertex 43.79212953513491 35.32450436935261 -2.5006495995169398
  endloop
endfacet
facet normal -0.5453436155766638 0.3241221682355195 0.7730104533627459
  outer loop
    vertex 37.43237442248203 35.626477009184946 6.620670744042633
    vertex 38.351673141483495 36.2834280069741 6.99375923739061
    vertex 37.948400395982155 36.49470355367595 6.6206707440426555
  endloop
endfacet
facet normal -0.5453436155766638 0.3241221682355195 0.7730104533627459
  outer loop
    vertex 38.351673141483495 36.2834280069741 6.99375923739061
    vertex 37.43237442248203 35.626477009184946 6.620670744042633
    vertex 37.609793598422605 35.52747284901363 6.787348771976987
  endloop
endfacet
facet normal -0.5453436155766638 0.3241221682355195 0.7730104533627459
  outer loop
    vertex 38.351673141483495 36.2834280069741 6.99375923739061
    vertex 37.609793598422605 35.52747284901363 6.787348771976987
    vertex 37.81849448292562 35.38634164293697 6.993759237390632
  endloop
endfacet
endsolid VV's Vr Gloves
