solid VV's Vr Gloves
facet normal -0.6625008044689337 0.3937539398442472 -0.6372209341626724
  outer loop
    vertex -14.895998715170027 35.809686133431995 -1.1673602985757334
    vertex -14.05159960401783 36.49470355367595 -1.6219699430765704
    vertex -14.567625577517939 35.62647700918495 -1.6219699430765702
  endloop
endfacet
facet normal -0.6625008044689337 0.3937539398442472 -0.6372209341626724
  outer loop
    vertex -14.05159960401783 36.49470355367595 -1.6219699430765704
    vertex -14.895998715170027 35.809686133431995 -1.1673602985757334
    vertex -14.385081944254322 36.669316317404785 -1.1673602985757336
  endloop
endfacet
facet normal 0.5453436155766992 0.32412216823552575 -0.7730104533627181
  outer loop
    vertex -3.989009225234584 35.62647700918495 -1.6219699430765757
    vertex -4.908307944236012 36.2834280069741 -1.99505843642457
    vertex -4.5050351987347375 36.49470355367595 -1.6219699430765762
  endloop
endfacet
facet normal 0.5453436155766992 0.32412216823552575 -0.7730104533627181
  outer loop
    vertex -4.908307944236012 36.2834280069741 -1.99505843642457
    vertex -3.989009225234584 35.62647700918495 -1.6219699430765757
    vertex -4.166428401175164 35.527472849013634 -1.7886479710109076
  endloop
endfacet
facet normal 0.5453436155766992 0.32412216823552575 -0.7730104533627181
  outer loop
    vertex -4.908307944236012 36.2834280069741 -1.99505843642457
    vertex -4.166428401175164 35.527472849013634 -1.7886479710109076
    vertex -4.375129285678195 35.38634164293697 -1.9950584364245698
  endloop
endfacet
facet normal -0.24953747051273018 0.14831130994915082 -0.9569403357322104
  outer loop
    vertex -12.64217028475326 35.85964631741865 -2.4430054407266164
    vertex -13.759485683226549 35.081244172220806 -2.2722881970507864
    vertex -13.1726126317752 36.06867268877471 -2.2722881970507864
  endloop
endfacet
facet normal -0.24953747051273018 0.14831130994915082 -0.9569403357322104
  outer loop
    vertex -13.759485683226549 35.081244172220806 -2.2722881970507864
    vertex -12.64217028475326 35.85964631741865 -2.4430054407266164
    vertex -13.455605654108899 34.835442623557945 -2.3896252966403377
  endloop
endfacet
facet normal -0.24953747051273018 0.14831130994915082 -0.9569403357322104
  outer loop
    vertex -13.455605654108899 34.835442623557945 -2.3896252966403377
    vertex -12.64217028475326 35.85964631741865 -2.4430054407266164
    vertex -13.325331014096768 34.710211386175324 -2.4430054407266164
  endloop
endfacet
facet normal -0.08425849237399043 0.05007860083157062 -0.9951847266721965
  outer loop
    vertex -12.440595061544647 35.780213486123905 -2.4640691778369526
    vertex -13.325331014096768 34.710211386175324 -2.4430054407266164
    vertex -12.64217028475326 35.85964631741865 -2.4430054407266164
  endloop
endfacet
facet normal -0.08425849237399043 0.05007860083157062 -0.9951847266721965
  outer loop
    vertex -13.325331014096768 34.710211386175324 -2.4430054407266164
    vertex -12.440595061544647 35.780213486123905 -2.4640691778369526
    vertex -12.06918780737724 35.678172662830484 -2.5006495995169282
  endloop
endfacet
facet normal -0.08425849237399043 0.05007860083157062 -0.9951847266721965
  outer loop
    vertex -13.325331014096768 34.710211386175324 -2.4430054407266164
    vertex -12.06918780737724 35.678172662830484 -2.5006495995169282
    vertex -13.036033421731307 34.4321135502468 -2.4814932997855155
  endloop
endfacet
facet normal -0.08425849237399043 0.05007860083157062 -0.9951847266721965
  outer loop
    vertex -13.036033421731307 34.4321135502468 -2.4814932997855155
    vertex -12.06918780737724 35.678172662830484 -2.5006495995169282
    vertex -12.901211718695746 34.278271722654644 -2.500649599516928
  endloop
endfacet
facet normal -0.5453436155766942 0.32412216823549167 -0.773010453362736
  outer loop
    vertex -13.648326858516546 36.2834280069741 -1.9950584364245645
    vertex -14.567625577517939 35.62647700918495 -1.6219699430765702
    vertex -14.05159960401783 36.49470355367595 -1.6219699430765704
  endloop
endfacet
facet normal -0.5453436155766942 0.32412216823549167 -0.773010453362736
  outer loop
    vertex -14.567625577517939 35.62647700918495 -1.6219699430765702
    vertex -13.648326858516546 36.2834280069741 -1.9950584364245645
    vertex -14.390206401577375 35.527472849013634 -1.788647971010902
  endloop
endfacet
facet normal -0.5453436155766942 0.32412216823549167 -0.773010453362736
  outer loop
    vertex -14.390206401577375 35.527472849013634 -1.788647971010902
    vertex -13.648326858516546 36.2834280069741 -1.9950584364245645
    vertex -14.181505517074282 35.38634164293697 -1.995058436424564
  endloop
endfacet
facet normal 0.7599074192587347 0.45154284436233916 -0.4676000148211053
  outer loop
    vertex -3.9852209658107682 36.735786592938936 -0.800246391866468
    vertex -3.6606360875825183 35.809686133431995 -1.167360298575739
    vertex -4.1715528584982 36.669316317404785 -1.1673602985757392
  endloop
endfacet
facet normal 0.7599074192587347 0.45154284436233916 -0.4676000148211053
  outer loop
    vertex -3.6606360875825183 35.809686133431995 -1.167360298575739
    vertex -3.9852209658107682 36.735786592938936 -0.800246391866468
    vertex -3.5131954183449263 35.94159186043757 -0.7997239904654372
  endloop
endfacet
facet normal 0.7599074192587347 0.45154284436233916 -0.4676000148211053
  outer loop
    vertex -3.5131954183449263 35.94159186043757 -0.7997239904654372
    vertex -3.9852209658107682 36.735786592938936 -0.800246391866468
    vertex -3.88878329870989 36.7306901695904 -0.6486998966122008
  endloop
endfacet
facet normal 0.7599074192587347 0.45154284436233916 -0.4676000148211053
  outer loop
    vertex -3.5131954183449263 35.94159186043757 -0.7997239904654372
    vertex -3.88878329870989 36.7306901695904 -0.6486998966122008
    vertex -3.471581839668809 36.02873833045535 -0.6486998966122008
  endloop
endfacet
facet normal -0.6087614290087265 -0.7933533402912308 4.633641290593557e-16
  outer loop
    vertex -11.278317401376272 31.9010210628446 -2.5006495995169273
    vertex -11.485424182562804 32.0599396854425 27.499350400483063
    vertex -11.485424182562816 32.059939685442494 -2.5006495995169273
  endloop
endfacet
facet normal -0.6087614290087265 -0.7933533402912308 4.633641290593557e-16
  outer loop
    vertex -11.485424182562804 32.0599396854425 27.499350400483063
    vertex -11.278317401376272 31.9010210628446 -2.5006495995169273
    vertex -11.27831740137626 31.901021062844613 27.499350400483063
  endloop
endfacet
facet normal 0.08507424156092745 0.05543250649966366 -0.9948314483599712
  outer loop
    vertex -5.2313037886558105 34.710211386175324 -2.443005440726622
    vertex -6.116039741207938 35.780213486123905 -2.4640691778369583
    vertex -5.914464517999342 35.85964631741865 -2.443005440726622
  endloop
endfacet
facet normal 0.08507424156092745 0.05543250649966366 -0.9948314483599712
  outer loop
    vertex -6.116039741207938 35.780213486123905 -2.4640691778369583
    vertex -5.2313037886558105 34.710211386175324 -2.443005440726622
    vertex -6.487446995375356 35.678172662830484 -2.5006495995169336
  endloop
endfacet
facet normal 0.08507424156092745 0.05543250649966366 -0.9948314483599712
  outer loop
    vertex -6.487446995375356 35.678172662830484 -2.5006495995169336
    vertex -5.2313037886558105 34.710211386175324 -2.443005440726622
    vertex -5.520601381021227 34.4321135502468 -2.500649599516933
  endloop
endfacet
facet normal 0.08507424156092745 0.05543250649966366 -0.9948314483599712
  outer loop
    vertex -6.487446995375356 35.678172662830484 -2.5006495995169336
    vertex -5.520601381021227 34.4321135502468 -2.500649599516933
    vertex -5.655423084056782 34.278271722654644 -2.500649599516933
  endloop
endfacet
facet normal 0.24953747051272127 0.14831130994915076 -0.9569403357322126
  outer loop
    vertex -4.797149119526019 35.081244172220806 -2.272288197050792
    vertex -5.914464517999342 35.85964631741865 -2.443005440726622
    vertex -5.384022170977368 36.06867268877471 -2.272288197050792
  endloop
endfacet
facet normal 0.24953747051272127 0.14831130994915076 -0.9569403357322126
  outer loop
    vertex -5.914464517999342 35.85964631741865 -2.443005440726622
    vertex -4.797149119526019 35.081244172220806 -2.272288197050792
    vertex -5.101029148643646 34.835442623557945 -2.3896252966403435
  endloop
endfacet
facet normal 0.24953747051272127 0.14831130994915076 -0.9569403357322126
  outer loop
    vertex -5.914464517999342 35.85964631741865 -2.443005440726622
    vertex -5.101029148643646 34.835442623557945 -2.3896252966403435
    vertex -5.2313037886558105 34.710211386175324 -2.443005440726622
  endloop
endfacet
facet normal -0.4052268636018991 0.2408444985993308 -0.881921264348357
  outer loop
    vertex -13.437940407443852 36.17322788215127 -2.1218218336124792
    vertex -14.181505517074282 35.38634164293697 -1.995058436424564
    vertex -13.648326858516546 36.2834280069741 -1.9950584364245645
  endloop
endfacet
facet normal -0.4052268636018991 0.2408444985993308 -0.881921264348357
  outer loop
    vertex -14.181505517074282 35.38634164293697 -1.995058436424564
    vertex -13.437940407443852 36.17322788215127 -2.1218218336124792
    vertex -13.1726126317752 36.06867268877471 -2.2722881970507864
  endloop
endfacet
facet normal -0.4052268636018991 0.2408444985993308 -0.881921264348357
  outer loop
    vertex -14.181505517074282 35.38634164293697 -1.995058436424564
    vertex -13.1726126317752 36.06867268877471 -2.2722881970507864
    vertex -13.90809940195356 35.20145438255188 -2.171174591373571
  endloop
endfacet
facet normal -0.4052268636018991 0.2408444985993308 -0.881921264348357
  outer loop
    vertex -13.90809940195356 35.20145438255188 -2.171174591373571
    vertex -13.1726126317752 36.06867268877471 -2.2722881970507864
    vertex -13.759485683226549 35.081244172220806 -2.2722881970507864
  endloop
endfacet
facet normal -0.7599074192587485 0.451542844362336 -0.4676000148210859
  outer loop
    vertex -15.043439384407574 35.94159186043757 -0.7997239904654315
    vertex -14.385081944254322 36.669316317404785 -1.1673602985757336
    vertex -14.895998715170027 35.809686133431995 -1.1673602985757334
  endloop
endfacet
facet normal -0.7599074192587485 0.451542844362336 -0.4676000148210859
  outer loop
    vertex -14.385081944254322 36.669316317404785 -1.1673602985757336
    vertex -15.043439384407574 35.94159186043757 -0.7997239904654315
    vertex -14.571413836941812 36.735786592938936 -0.8002463918664623
  endloop
endfacet
facet normal -0.7599074192587485 0.451542844362336 -0.4676000148210859
  outer loop
    vertex -14.571413836941812 36.735786592938936 -0.8002463918664623
    vertex -15.043439384407574 35.94159186043757 -0.7997239904654315
    vertex -14.667851504042611 36.7306901695904 -0.6486998966121952
  endloop
endfacet
facet normal -0.7599074192587485 0.451542844362336 -0.4676000148210859
  outer loop
    vertex -14.667851504042611 36.7306901695904 -0.6486998966121952
    vertex -15.043439384407574 35.94159186043757 -0.7997239904654315
    vertex -15.085052963083713 36.02873833045535 -0.6486998966121952
  endloop
endfacet
facet normal -1.087665881106861e-15 -1.4206773123320473e-16 -1.0
  outer loop
    vertex -11.406910147208864 35.496217795406274 -2.5006495995169282
    vertex -12.901211718695746 34.278271722654644 -2.500649599516928
    vertex -12.06918780737724 35.678172662830484 -2.5006495995169282
  endloop
endfacet
facet normal -1.087665881106861e-15 -1.4206773123320473e-16 -1.0
  outer loop
    vertex -12.901211718695746 34.278271722654644 -2.500649599516928
    vertex -11.406910147208864 35.496217795406274 -2.5006495995169282
    vertex -10.34876433788745 35.32450436935262 -2.5006495995169282
  endloop
endfacet
facet normal -1.087665881106861e-15 -1.4206773123320473e-16 -1.0
  outer loop
    vertex -12.901211718695746 34.278271722654644 -2.500649599516928
    vertex -10.34876433788745 35.32450436935262 -2.5006495995169282
    vertex -9.27831740137627 35.26704646662904 -2.5006495995169282
  endloop
endfacet
facet normal -1.087665881106861e-15 -1.4206773123320473e-16 -1.0
  outer loop
    vertex -12.901211718695746 34.278271722654644 -2.500649599516928
    vertex -9.27831740137627 35.26704646662904 -2.5006495995169282
    vertex -5.655423084056782 34.278271722654644 -2.500649599516933
  endloop
endfacet
facet normal -1.087665881106861e-15 -1.4206773123320473e-16 -1.0
  outer loop
    vertex -12.901211718695746 34.278271722654644 -2.500649599516928
    vertex -5.655423084056782 34.278271722654644 -2.500649599516933
    vertex -7.6533174013762615 34.26704646662904 -2.500649599516933
  endloop
endfacet
facet normal -1.087665881106861e-15 -1.4206773123320473e-16 -1.0
  outer loop
    vertex -7.6533174013762615 34.26704646662904 -2.500649599516933
    vertex -5.655423084056782 34.278271722654644 -2.500649599516933
    vertex -5.904184529401873 33.994415974472474 -2.500649599516933
  endloop
endfacet
facet normal -1.087665881106861e-15 -1.4206773123320473e-16 -1.0
  outer loop
    vertex -7.6533174013762615 34.26704646662904 -2.500649599516933
    vertex -5.904184529401873 33.994415974472474 -2.500649599516933
    vertex -7.6533174013762615 32.51704646662904 -2.500649599516933
  endloop
endfacet
facet normal -1.087665881106861e-15 -1.4206773123320473e-16 -1.0
  outer loop
    vertex -7.6533174013762615 32.51704646662904 -2.500649599516933
    vertex -5.904184529401873 33.994415974472474 -2.500649599516933
    vertex -6.248974147962585 33.525549982430924 -2.500649599516933
  endloop
endfacet
facet normal -1.087665881106861e-15 -1.4206773123320473e-16 -1.0
  outer loop
    vertex -7.6533174013762615 32.51704646662904 -2.500649599516933
    vertex -6.248974147962585 33.525549982430924 -2.500649599516933
    vertex -6.552449417398101 33.02894353825065 -2.500649599516933
  endloop
endfacet
facet normal -1.087665881106861e-15 -1.4206773123320473e-16 -1.0
  outer loop
    vertex -7.6533174013762615 32.51704646662904 -2.500649599516933
    vertex -6.552449417398101 33.02894353825065 -2.500649599516933
    vertex -6.8123915750872115 32.508227421526506 -2.500649599516933
  endloop
endfacet
facet normal -1.087665881106861e-15 -1.4206773123320473e-16 -1.0
  outer loop
    vertex -7.6533174013762615 32.51704646662904 -2.500649599516933
    vertex -6.8123915750872115 32.508227421526506 -2.500649599516933
    vertex -10.903317401376272 32.51704646662904 -2.5006495995169273
  endloop
endfacet
facet normal -1.087665881106861e-15 -1.4206773123320473e-16 -1.0
  outer loop
    vertex -12.901211718695746 34.278271722654644 -2.500649599516928
    vertex -10.903317401376272 34.26704646662904 -2.500649599516928
    vertex -12.652450273350661 33.994415974472474 -2.500649599516928
  endloop
endfacet
facet normal -1.087665881106861e-15 -1.4206773123320473e-16 -1.0
  outer loop
    vertex -10.903317401376272 34.26704646662904 -2.500649599516928
    vertex -12.901211718695746 34.278271722654644 -2.500649599516928
    vertex -7.6533174013762615 34.26704646662904 -2.500649599516933
  endloop
endfacet
facet normal -1.087665881106861e-15 -1.4206773123320473e-16 -1.0
  outer loop
    vertex -12.652450273350661 33.994415974472474 -2.500649599516928
    vertex -10.903317401376272 34.26704646662904 -2.500649599516928
    vertex -10.903317401376272 32.51704646662904 -2.5006495995169273
  endloop
endfacet
facet normal -1.087665881106861e-15 -1.4206773123320473e-16 -1.0
  outer loop
    vertex -12.652450273350661 33.994415974472474 -2.500649599516928
    vertex -10.903317401376272 32.51704646662904 -2.5006495995169273
    vertex -12.307660654789949 33.525549982430924 -2.500649599516928
  endloop
endfacet
facet normal -1.087665881106861e-15 -1.4206773123320473e-16 -1.0
  outer loop
    vertex -12.307660654789949 33.525549982430924 -2.500649599516928
    vertex -10.903317401376272 32.51704646662904 -2.5006495995169273
    vertex -12.004185385354432 33.02894353825065 -2.500649599516928
  endloop
endfacet
facet normal -1.087665881106861e-15 -1.4206773123320473e-16 -1.0
  outer loop
    vertex -12.004185385354432 33.02894353825065 -2.500649599516928
    vertex -10.903317401376272 32.51704646662904 -2.5006495995169273
    vertex -11.744243227665322 32.508227421526506 -2.5006495995169273
  endloop
endfacet
facet normal -1.087665881106861e-15 -1.4206773123320473e-16 -1.0
  outer loop
    vertex -11.744243227665322 32.508227421526506 -2.5006495995169273
    vertex -10.903317401376272 32.51704646662904 -2.5006495995169273
    vertex -6.8123915750872115 32.508227421526506 -2.500649599516933
  endloop
endfacet
facet normal -1.087665881106861e-15 -1.4206773123320473e-16 -1.0
  outer loop
    vertex -11.744243227665322 32.508227421526506 -2.5006495995169273
    vertex -6.8123915750872115 32.508227421526506 -2.500649599516933
    vertex -6.912291997591822 32.26704646662904 -2.500649599516933
  endloop
endfacet
facet normal -1.087665881106861e-15 -1.4206773123320473e-16 -1.0
  outer loop
    vertex -11.744243227665322 32.508227421526506 -2.5006495995169273
    vertex -6.912291997591822 32.26704646662904 -2.500649599516933
    vertex -11.644342805160711 32.26704646662904 -2.5006495995169273
  endloop
endfacet
facet normal -1.087665881106861e-15 -1.4206773123320473e-16 -1.0
  outer loop
    vertex -11.644342805160711 32.26704646662904 -2.5006495995169273
    vertex -6.912291997591822 32.26704646662904 -2.500649599516933
    vertex -7.071210620189718 32.059939685442494 -2.500649599516933
  endloop
endfacet
facet normal -1.087665881106861e-15 -1.4206773123320473e-16 -1.0
  outer loop
    vertex -11.644342805160711 32.26704646662904 -2.5006495995169273
    vertex -7.071210620189718 32.059939685442494 -2.500649599516933
    vertex -11.485424182562816 32.059939685442494 -2.5006495995169273
  endloop
endfacet
facet normal -1.087665881106861e-15 -1.4206773123320473e-16 -1.0
  outer loop
    vertex -11.485424182562816 32.059939685442494 -2.5006495995169273
    vertex -7.071210620189718 32.059939685442494 -2.500649599516933
    vertex -7.278317401376262 31.9010210628446 -2.500649599516933
  endloop
endfacet
facet normal -1.087665881106861e-15 -1.4206773123320473e-16 -1.0
  outer loop
    vertex -11.485424182562816 32.059939685442494 -2.5006495995169273
    vertex -7.278317401376262 31.9010210628446 -2.500649599516933
    vertex -11.278317401376272 31.9010210628446 -2.5006495995169273
  endloop
endfacet
facet normal -1.087665881106861e-15 -1.4206773123320473e-16 -1.0
  outer loop
    vertex -11.278317401376272 31.9010210628446 -2.5006495995169273
    vertex -7.278317401376262 31.9010210628446 -2.500649599516933
    vertex -7.519498356273744 31.801120640339974 -2.500649599516933
  endloop
endfacet
facet normal -1.087665881106861e-15 -1.4206773123320473e-16 -1.0
  outer loop
    vertex -11.278317401376272 31.9010210628446 -2.5006495995169273
    vertex -7.519498356273744 31.801120640339974 -2.500649599516933
    vertex -11.03713644647879 31.801120640339974 -2.5006495995169273
  endloop
endfacet
facet normal -1.087665881106861e-15 -1.4206773123320473e-16 -1.0
  outer loop
    vertex -11.03713644647879 31.801120640339974 -2.5006495995169273
    vertex -7.519498356273744 31.801120640339974 -2.500649599516933
    vertex -7.7783174013762615 31.76704646662904 -2.500649599516933
  endloop
endfacet
facet normal -1.087665881106861e-15 -1.4206773123320473e-16 -1.0
  outer loop
    vertex -11.03713644647879 31.801120640339974 -2.5006495995169273
    vertex -7.7783174013762615 31.76704646662904 -2.500649599516933
    vertex -10.778317401376272 31.76704646662904 -2.5006495995169273
  endloop
endfacet
facet normal -1.087665881106861e-15 -1.4206773123320473e-16 -1.0
  outer loop
    vertex -5.655423084056782 34.278271722654644 -2.500649599516933
    vertex -7.14972465554367 35.496217795406274 -2.5006495995169336
    vertex -6.487446995375356 35.678172662830484 -2.5006495995169336
  endloop
endfacet
facet normal -1.087665881106861e-15 -1.4206773123320473e-16 -1.0
  outer loop
    vertex -7.14972465554367 35.496217795406274 -2.5006495995169336
    vertex -5.655423084056782 34.278271722654644 -2.500649599516933
    vertex -8.207870464865083 35.32450436935262 -2.5006495995169336
  endloop
endfacet
facet normal -1.087665881106861e-15 -1.4206773123320473e-16 -1.0
  outer loop
    vertex -8.207870464865083 35.32450436935262 -2.5006495995169336
    vertex -5.655423084056782 34.278271722654644 -2.500649599516933
    vertex -9.27831740137627 35.26704646662904 -2.5006495995169282
  endloop
endfacet
facet normal 0.7933533402912267 -0.6087614290087316 -1.7754876479104585e-16
  outer loop
    vertex -6.91229199759181 32.267046466629054 27.499350400483053
    vertex -7.071210620189718 32.059939685442494 -2.500649599516933
    vertex -6.912291997591822 32.26704646662904 -2.500649599516933
  endloop
endfacet
facet normal 0.7933533402912267 -0.6087614290087316 -1.7754876479104585e-16
  outer loop
    vertex -7.071210620189718 32.059939685442494 -2.500649599516933
    vertex -6.91229199759181 32.267046466629054 27.499350400483053
    vertex -7.071210620189705 32.0599396854425 27.499350400483053
  endloop
endfacet
facet normal 0.7600968445497827 0.4516181079659724 0.46721929697166703
  outer loop
    vertex -3.9852209658106936 36.73578659293894 25.798947192832586
    vertex -3.6606360875824775 35.809686133432 26.166061099541853
    vertex -3.513195418344942 35.941591860437576 25.79842479143159
  endloop
endfacet
facet normal 0.7600968445497827 0.4516181079659724 0.46721929697166703
  outer loop
    vertex -3.6606360875824775 35.809686133432 26.166061099541853
    vertex -3.9852209658106936 36.73578659293894 25.798947192832586
    vertex -4.171552858498193 36.6693163174048 26.1660610995419
  endloop
endfacet
facet normal 0.1305261922200536 -0.9914448613738103 2.0198639895940297e-16
  outer loop
    vertex -7.519498356273744 31.801120640339974 -2.500649599516933
    vertex -7.778317401376249 31.767046466629054 27.499350400483053
    vertex -7.7783174013762615 31.76704646662904 -2.500649599516933
  endloop
endfacet
facet normal 0.1305261922200536 -0.9914448613738103 2.0198639895940297e-16
  outer loop
    vertex -7.778317401376249 31.767046466629054 27.499350400483053
    vertex -7.519498356273744 31.801120640339974 -2.500649599516933
    vertex -7.519498356273732 31.801120640339978 27.499350400483053
  endloop
endfacet
facet normal -0.4639936212670888 0.885838540267612 -3.6780034849215897e-17
  outer loop
    vertex -4.908307944235988 36.283428006974106 26.99375923739074
    vertex -5.118694395308659 36.17322788215127 -2.121821833612485
    vertex -5.118694395308692 36.173227882151274 27.12052263457863
  endloop
endfacet
facet normal -0.4639936212670888 0.885838540267612 -3.6780034849215897e-17
  outer loop
    vertex -5.118694395308659 36.17322788215127 -2.121821833612485
    vertex -4.908307944235988 36.283428006974106 26.99375923739074
    vertex -4.908307944236012 36.2834280069741 -1.99505843642457
  endloop
endfacet
facet normal -0.4639936212670888 0.885838540267612 -3.6780034849215897e-17
  outer loop
    vertex -4.908307944236012 36.2834280069741 -1.99505843642457
    vertex -4.908307944235988 36.283428006974106 26.99375923739074
    vertex -4.5050351987347375 36.49470355367595 -1.6219699430765762
  endloop
endfacet
facet normal -0.4639936212670888 0.885838540267612 -3.6780034849215897e-17
  outer loop
    vertex -4.5050351987347375 36.49470355367595 -1.6219699430765762
    vertex -4.908307944235988 36.283428006974106 26.99375923739074
    vertex -4.505035198734685 36.49470355367596 26.620670744042684
  endloop
endfacet
facet normal -0.4639936212670888 0.885838540267612 -3.6780034849215897e-17
  outer loop
    vertex -4.5050351987347375 36.49470355367595 -1.6219699430765762
    vertex -4.505035198734685 36.49470355367596 26.620670744042684
    vertex -4.1715528584982 36.669316317404785 -1.1673602985757392
  endloop
endfacet
facet normal -0.4639936212670888 0.885838540267612 -3.6780034849215897e-17
  outer loop
    vertex -4.1715528584982 36.669316317404785 -1.1673602985757392
    vertex -4.505035198734685 36.49470355367596 26.620670744042684
    vertex -4.171552858498193 36.6693163174048 26.1660610995419
  endloop
endfacet
facet normal -0.1305261922200536 -0.9914448613738103 3.1244027936965843e-16
  outer loop
    vertex -10.778317401376272 31.76704646662904 -2.5006495995169273
    vertex -11.037136446478778 31.801120640339978 27.499350400483063
    vertex -11.03713644647879 31.801120640339974 -2.5006495995169273
  endloop
endfacet
facet normal -0.1305261922200536 -0.9914448613738103 3.1244027936965843e-16
  outer loop
    vertex -11.037136446478778 31.801120640339978 27.499350400483063
    vertex -10.778317401376272 31.76704646662904 -2.5006495995169273
    vertex -10.77831740137626 31.767046466629054 27.499350400483063
  endloop
endfacet
facet normal -0.853286762044145 -0.5214419447265621 5.022689133333157e-16
  outer loop
    vertex -12.00418538535442 33.02894353825066 27.499350400483063
    vertex -12.307660654789949 33.525549982430924 -2.500649599516928
    vertex -12.004185385354432 33.02894353825065 -2.500649599516928
  endloop
endfacet
facet normal -0.853286762044145 -0.5214419447265621 5.022689133333157e-16
  outer loop
    vertex -12.307660654789949 33.525549982430924 -2.500649599516928
    vertex -12.00418538535442 33.02894353825066 27.499350400483063
    vertex -12.307660654789936 33.52554998243094 27.499350400483063
  endloop
endfacet
facet normal -0.8947128543955147 -0.446641811947147 4.967087924770643e-16
  outer loop
    vertex -11.74424322766531 32.50822742152652 27.499350400483063
    vertex -12.004185385354432 33.02894353825065 -2.500649599516928
    vertex -11.744243227665322 32.508227421526506 -2.5006495995169273
  endloop
endfacet
facet normal -0.8947128543955147 -0.446641811947147 4.967087924770643e-16
  outer loop
    vertex -12.004185385354432 33.02894353825065 -2.500649599516928
    vertex -11.74424322766531 32.50822742152652 27.499350400483063
    vertex -12.00418538535442 33.02894353825066 27.499350400483063
  endloop
endfacet
facet normal 0.6087614290087265 -0.7933533402912308 -5.178199551881618e-17
  outer loop
    vertex -7.071210620189718 32.059939685442494 -2.500649599516933
    vertex -7.27831740137625 31.901021062844613 27.499350400483053
    vertex -7.278317401376262 31.9010210628446 -2.500649599516933
  endloop
endfacet
facet normal 0.6087614290087265 -0.7933533402912308 -5.178199551881618e-17
  outer loop
    vertex -7.27831740137625 31.901021062844613 27.499350400483053
    vertex -7.071210620189718 32.059939685442494 -2.500649599516933
    vertex -7.071210620189705 32.0599396854425 27.499350400483053
  endloop
endfacet
facet normal 5.890526639032181e-32 -1.0 2.5942211342074494e-16
  outer loop
    vertex -7.7783174013762615 31.76704646662904 -2.500649599516933
    vertex -10.77831740137626 31.767046466629054 27.499350400483063
    vertex -10.778317401376272 31.76704646662904 -2.5006495995169273
  endloop
endfacet
facet normal 5.890526639032181e-32 -1.0 2.5942211342074494e-16
  outer loop
    vertex -10.77831740137626 31.767046466629054 27.499350400483063
    vertex -7.7783174013762615 31.76704646662904 -2.500649599516933
    vertex -7.778317401376249 31.767046466629054 27.499350400483053
  endloop
endfacet
facet normal 0.405226863601868 0.24084449859931656 -0.8819212643483754
  outer loop
    vertex -4.375129285678195 35.38634164293697 -1.9950584364245698
    vertex -5.118694395308659 36.17322788215127 -2.121821833612485
    vertex -4.908307944236012 36.2834280069741 -1.99505843642457
  endloop
endfacet
facet normal 0.405226863601868 0.24084449859931656 -0.8819212643483754
  outer loop
    vertex -5.118694395308659 36.17322788215127 -2.121821833612485
    vertex -4.375129285678195 35.38634164293697 -1.9950584364245698
    vertex -5.384022170977368 36.06867268877471 -2.272288197050792
  endloop
endfacet
facet normal 0.405226863601868 0.24084449859931656 -0.8819212643483754
  outer loop
    vertex -5.384022170977368 36.06867268877471 -2.272288197050792
    vertex -4.375129285678195 35.38634164293697 -1.9950584364245698
    vertex -4.648535400799008 35.20145438255188 -2.171174591373577
  endloop
endfacet
facet normal 0.405226863601868 0.24084449859931656 -0.8819212643483754
  outer loop
    vertex -5.384022170977368 36.06867268877471 -2.272288197050792
    vertex -4.648535400799008 35.20145438255188 -2.171174591373577
    vertex -4.797149119526019 35.081244172220806 -2.272288197050792
  endloop
endfacet
facet normal 0.7520674601867796 -0.6590861365012975 -1.2747435136000538e-16
  outer loop
    vertex -5.520601381021215 34.432113550246804 27.480194100751735
    vertex -5.655423084056782 34.278271722654644 -2.500649599516933
    vertex -5.520601381021227 34.4321135502468 -2.500649599516933
  endloop
endfacet
facet normal 0.7520674601867796 -0.6590861365012975 -1.2747435136000538e-16
  outer loop
    vertex -5.655423084056782 34.278271722654644 -2.500649599516933
    vertex -5.520601381021215 34.432113550246804 27.480194100751735
    vertex -5.904184529401873 33.994415974472474 -2.500649599516933
  endloop
endfacet
facet normal 0.7520674601867796 -0.6590861365012975 -1.2747435136000538e-16
  outer loop
    vertex -5.904184529401873 33.994415974472474 -2.500649599516933
    vertex -5.520601381021215 34.432113550246804 27.480194100751735
    vertex -5.904184529401861 33.99441597447248 27.499350400483053
  endloop
endfacet
facet normal 0.7520674601867796 -0.6590861365012975 -1.2747435136000538e-16
  outer loop
    vertex -5.904184529401861 33.99441597447248 27.499350400483053
    vertex -5.520601381021215 34.432113550246804 27.480194100751735
    vertex -5.655423084056758 34.278271722654665 27.49935040048311
  endloop
endfacet
facet normal -0.805622135737949 -0.592429721071644 5.013797997491344e-16
  outer loop
    vertex -12.307660654789936 33.52554998243094 27.499350400483063
    vertex -12.652450273350661 33.994415974472474 -2.500649599516928
    vertex -12.307660654789949 33.525549982430924 -2.500649599516928
  endloop
endfacet
facet normal -0.805622135737949 -0.592429721071644 5.013797997491344e-16
  outer loop
    vertex -12.652450273350661 33.994415974472474 -2.500649599516928
    vertex -12.307660654789936 33.52554998243094 27.499350400483063
    vertex -12.652450273350649 33.99441597447248 27.499350400483063
  endloop
endfacet
facet normal 0.662500804468923 0.3937539398442496 -0.6372209341626819
  outer loop
    vertex -4.1715528584982 36.669316317404785 -1.1673602985757392
    vertex -3.989009225234584 35.62647700918495 -1.6219699430765757
    vertex -4.5050351987347375 36.49470355367595 -1.6219699430765762
  endloop
endfacet
facet normal 0.662500804468923 0.3937539398442496 -0.6372209341626819
  outer loop
    vertex -3.989009225234584 35.62647700918495 -1.6219699430765757
    vertex -4.1715528584982 36.669316317404785 -1.1673602985757392
    vertex -3.6606360875825183 35.809686133431995 -1.167360298575739
  endloop
endfacet
facet normal -0.6930142833164643 -0.7209238538981543 6.862784349568582e-16
  outer loop
    vertex -13.325331014096768 34.710211386175324 -2.4430054407266164
    vertex -13.455605654108894 34.83544262355795 27.388326097606434
    vertex -13.455605654108899 34.835442623557945 -2.3896252966403377
  endloop
endfacet
facet normal -0.6930142833164643 -0.7209238538981543 6.862784349568582e-16
  outer loop
    vertex -13.455605654108894 34.83544262355795 27.388326097606434
    vertex -13.325331014096768 34.710211386175324 -2.4430054407266164
    vertex -13.325331014096724 34.71021138617533 27.441706241692703
  endloop
endfacet
facet normal -0.6930142833164643 -0.7209238538981543 6.862784349568582e-16
  outer loop
    vertex -13.325331014096724 34.71021138617533 27.441706241692703
    vertex -13.325331014096768 34.710211386175324 -2.4430054407266164
    vertex -13.036033421731307 34.4321135502468 -2.4814932997855155
  endloop
endfacet
facet normal -0.6930142833164643 -0.7209238538981543 6.862784349568582e-16
  outer loop
    vertex -13.325331014096724 34.71021138617533 27.441706241692703
    vertex -13.036033421731307 34.4321135502468 -2.4814932997855155
    vertex -13.036033421731293 34.432113550246804 27.4801941007516
  endloop
endfacet
facet normal 0.38268343236508295 -0.9238795325112897 7.799415501501558e-17
  outer loop
    vertex -7.278317401376262 31.9010210628446 -2.500649599516933
    vertex -7.519498356273732 31.801120640339978 27.499350400483053
    vertex -7.519498356273744 31.801120640339974 -2.500649599516933
  endloop
endfacet
facet normal 0.38268343236508295 -0.9238795325112897 7.799415501501558e-17
  outer loop
    vertex -7.519498356273732 31.801120640339978 27.499350400483053
    vertex -7.278317401376262 31.9010210628446 -2.500649599516933
    vertex -7.27831740137625 31.901021062844613 27.499350400483053
  endloop
endfacet
facet normal 0.9238795325113066 -0.38268343236504215 -2.9143382508268996e-16
  outer loop
    vertex -6.812391575087199 32.50822742152652 27.499350400483053
    vertex -6.912291997591822 32.26704646662904 -2.500649599516933
    vertex -6.8123915750872115 32.508227421526506 -2.500649599516933
  endloop
endfacet
facet normal 0.9238795325113066 -0.38268343236504215 -2.9143382508268996e-16
  outer loop
    vertex -6.912291997591822 32.26704646662904 -2.500649599516933
    vertex -6.812391575087199 32.50822742152652 27.499350400483053
    vertex -6.91229199759181 32.267046466629054 27.499350400483053
  endloop
endfacet
facet normal -0.7933533402912268 -0.6087614290087315 4.935560964277637e-16
  outer loop
    vertex -11.485424182562804 32.0599396854425 27.499350400483063
    vertex -11.644342805160711 32.26704646662904 -2.5006495995169273
    vertex -11.485424182562816 32.059939685442494 -2.5006495995169273
  endloop
endfacet
facet normal -0.7933533402912268 -0.6087614290087315 4.935560964277637e-16
  outer loop
    vertex -11.644342805160711 32.26704646662904 -2.5006495995169273
    vertex -11.485424182562804 32.0599396854425 27.499350400483063
    vertex -11.644342805160699 32.267046466629054 27.499350400483063
  endloop
endfacet
facet normal 0.8532867620441448 -0.5214419447265621 -2.1926890734700004e-16
  outer loop
    vertex -6.2489741479625724 33.52554998243094 27.499350400483053
    vertex -6.552449417398101 33.02894353825065 -2.500649599516933
    vertex -6.248974147962585 33.525549982430924 -2.500649599516933
  endloop
endfacet
facet normal 0.8532867620441448 -0.5214419447265621 -2.1926890734700004e-16
  outer loop
    vertex -6.552449417398101 33.02894353825065 -2.500649599516933
    vertex -6.2489741479625724 33.52554998243094 27.499350400483053
    vertex -6.552449417398089 33.02894353825066 27.499350400483053
  endloop
endfacet
facet normal 0.8947128543955147 -0.4466418119471472 -2.6013701062924527e-16
  outer loop
    vertex -6.552449417398089 33.02894353825066 27.499350400483053
    vertex -6.8123915750872115 32.508227421526506 -2.500649599516933
    vertex -6.552449417398101 33.02894353825065 -2.500649599516933
  endloop
endfacet
facet normal 0.8947128543955147 -0.4466418119471472 -2.6013701062924527e-16
  outer loop
    vertex -6.8123915750872115 32.508227421526506 -2.500649599516933
    vertex -6.552449417398089 33.02894353825066 27.499350400483053
    vertex -6.812391575087199 32.50822742152652 27.499350400483053
  endloop
endfacet
facet normal 0.805622135737949 -0.592429721071644 -1.798528947786029e-16
  outer loop
    vertex -5.904184529401861 33.99441597447248 27.499350400483053
    vertex -6.248974147962585 33.525549982430924 -2.500649599516933
    vertex -5.904184529401873 33.994415974472474 -2.500649599516933
  endloop
endfacet
facet normal 0.805622135737949 -0.592429721071644 -1.798528947786029e-16
  outer loop
    vertex -6.248974147962585 33.525549982430924 -2.500649599516933
    vertex -5.904184529401861 33.99441597447248 27.499350400483053
    vertex -6.2489741479625724 33.52554998243094 27.499350400483053
  endloop
endfacet
facet normal -1.2249702015486665e-15 1.6013830034980285e-16 1.0
  outer loop
    vertex -12.652450273350649 33.99441597447248 27.499350400483063
    vertex -10.90331740137626 34.26704646662905 27.499350400483063
    vertex -12.901211718695732 34.27827172265465 27.49935040048303
  endloop
endfacet
facet normal -1.2249702015486665e-15 1.6013830034980285e-16 1.0
  outer loop
    vertex -10.90331740137626 34.26704646662905 27.499350400483063
    vertex -12.652450273350649 33.99441597447248 27.499350400483063
    vertex -10.90331740137626 32.51704646662905 27.499350400483063
  endloop
endfacet
facet normal -1.2249702015486665e-15 1.6013830034980285e-16 1.0
  outer loop
    vertex -10.90331740137626 32.51704646662905 27.499350400483063
    vertex -12.652450273350649 33.99441597447248 27.499350400483063
    vertex -12.307660654789936 33.52554998243094 27.499350400483063
  endloop
endfacet
facet normal -1.2249702015486665e-15 1.6013830034980285e-16 1.0
  outer loop
    vertex -10.90331740137626 32.51704646662905 27.499350400483063
    vertex -12.307660654789936 33.52554998243094 27.499350400483063
    vertex -12.00418538535442 33.02894353825066 27.499350400483063
  endloop
endfacet
facet normal -1.2249702015486665e-15 1.6013830034980285e-16 1.0
  outer loop
    vertex -10.90331740137626 32.51704646662905 27.499350400483063
    vertex -12.00418538535442 33.02894353825066 27.499350400483063
    vertex -11.74424322766531 32.50822742152652 27.499350400483063
  endloop
endfacet
facet normal -1.2249702015486665e-15 1.6013830034980285e-16 1.0
  outer loop
    vertex -10.90331740137626 32.51704646662905 27.499350400483063
    vertex -11.74424322766531 32.50822742152652 27.499350400483063
    vertex -7.653317401376249 32.51704646662905 27.499350400483053
  endloop
endfacet
facet normal -1.2249702015486665e-15 1.6013830034980285e-16 1.0
  outer loop
    vertex -12.901211718695732 34.27827172265465 27.49935040048303
    vertex -11.406910147208851 35.49621779540628 27.499350400483063
    vertex -12.06918780737717 35.67817266283049 27.49935040048302
  endloop
endfacet
facet normal -1.2249702015486665e-15 1.6013830034980285e-16 1.0
  outer loop
    vertex -11.406910147208851 35.49621779540628 27.499350400483063
    vertex -12.901211718695732 34.27827172265465 27.49935040048303
    vertex -10.348764337887438 35.324504369352624 27.499350400483063
  endloop
endfacet
facet normal -1.2249702015486665e-15 1.6013830034980285e-16 1.0
  outer loop
    vertex -10.348764337887438 35.324504369352624 27.499350400483063
    vertex -12.901211718695732 34.27827172265465 27.49935040048303
    vertex -9.278317401376258 35.26704646662905 27.499350400483063
  endloop
endfacet
facet normal -1.2249702015486665e-15 1.6013830034980285e-16 1.0
  outer loop
    vertex -9.278317401376258 35.26704646662905 27.499350400483063
    vertex -12.901211718695732 34.27827172265465 27.49935040048303
    vertex -5.655423084056758 34.278271722654665 27.49935040048311
  endloop
endfacet
facet normal -1.2249702015486665e-15 1.6013830034980285e-16 1.0
  outer loop
    vertex -5.655423084056758 34.278271722654665 27.49935040048311
    vertex -12.901211718695732 34.27827172265465 27.49935040048303
    vertex -7.653317401376249 34.26704646662905 27.499350400483053
  endloop
endfacet
facet normal -1.2249702015486665e-15 1.6013830034980285e-16 1.0
  outer loop
    vertex -5.655423084056758 34.278271722654665 27.49935040048311
    vertex -7.653317401376249 34.26704646662905 27.499350400483053
    vertex -5.904184529401861 33.99441597447248 27.499350400483053
  endloop
endfacet
facet normal -1.2249702015486665e-15 1.6013830034980285e-16 1.0
  outer loop
    vertex -7.653317401376249 34.26704646662905 27.499350400483053
    vertex -12.901211718695732 34.27827172265465 27.49935040048303
    vertex -10.90331740137626 34.26704646662905 27.499350400483063
  endloop
endfacet
facet normal -1.2249702015486665e-15 1.6013830034980285e-16 1.0
  outer loop
    vertex -5.904184529401861 33.99441597447248 27.499350400483053
    vertex -7.653317401376249 34.26704646662905 27.499350400483053
    vertex -7.653317401376249 32.51704646662905 27.499350400483053
  endloop
endfacet
facet normal -1.2249702015486665e-15 1.6013830034980285e-16 1.0
  outer loop
    vertex -5.904184529401861 33.99441597447248 27.499350400483053
    vertex -7.653317401376249 32.51704646662905 27.499350400483053
    vertex -6.2489741479625724 33.52554998243094 27.499350400483053
  endloop
endfacet
facet normal -1.2249702015486665e-15 1.6013830034980285e-16 1.0
  outer loop
    vertex -6.2489741479625724 33.52554998243094 27.499350400483053
    vertex -7.653317401376249 32.51704646662905 27.499350400483053
    vertex -6.552449417398089 33.02894353825066 27.499350400483053
  endloop
endfacet
facet normal -1.2249702015486665e-15 1.6013830034980285e-16 1.0
  outer loop
    vertex -6.552449417398089 33.02894353825066 27.499350400483053
    vertex -7.653317401376249 32.51704646662905 27.499350400483053
    vertex -6.812391575087199 32.50822742152652 27.499350400483053
  endloop
endfacet
facet normal -1.2249702015486665e-15 1.6013830034980285e-16 1.0
  outer loop
    vertex -6.812391575087199 32.50822742152652 27.499350400483053
    vertex -7.653317401376249 32.51704646662905 27.499350400483053
    vertex -11.74424322766531 32.50822742152652 27.499350400483063
  endloop
endfacet
facet normal -1.2249702015486665e-15 1.6013830034980285e-16 1.0
  outer loop
    vertex -6.812391575087199 32.50822742152652 27.499350400483053
    vertex -11.74424322766531 32.50822742152652 27.499350400483063
    vertex -11.644342805160699 32.267046466629054 27.499350400483063
  endloop
endfacet
facet normal -1.2249702015486665e-15 1.6013830034980285e-16 1.0
  outer loop
    vertex -6.812391575087199 32.50822742152652 27.499350400483053
    vertex -11.644342805160699 32.267046466629054 27.499350400483063
    vertex -6.91229199759181 32.267046466629054 27.499350400483053
  endloop
endfacet
facet normal -1.2249702015486665e-15 1.6013830034980285e-16 1.0
  outer loop
    vertex -6.91229199759181 32.267046466629054 27.499350400483053
    vertex -11.644342805160699 32.267046466629054 27.499350400483063
    vertex -11.485424182562804 32.0599396854425 27.499350400483063
  endloop
endfacet
facet normal -1.2249702015486665e-15 1.6013830034980285e-16 1.0
  outer loop
    vertex -6.91229199759181 32.267046466629054 27.499350400483053
    vertex -11.485424182562804 32.0599396854425 27.499350400483063
    vertex -7.071210620189705 32.0599396854425 27.499350400483053
  endloop
endfacet
facet normal -1.2249702015486665e-15 1.6013830034980285e-16 1.0
  outer loop
    vertex -7.071210620189705 32.0599396854425 27.499350400483053
    vertex -11.485424182562804 32.0599396854425 27.499350400483063
    vertex -11.27831740137626 31.901021062844613 27.499350400483063
  endloop
endfacet
facet normal -1.2249702015486665e-15 1.6013830034980285e-16 1.0
  outer loop
    vertex -7.071210620189705 32.0599396854425 27.499350400483053
    vertex -11.27831740137626 31.901021062844613 27.499350400483063
    vertex -7.27831740137625 31.901021062844613 27.499350400483053
  endloop
endfacet
facet normal -1.2249702015486665e-15 1.6013830034980285e-16 1.0
  outer loop
    vertex -7.27831740137625 31.901021062844613 27.499350400483053
    vertex -11.27831740137626 31.901021062844613 27.499350400483063
    vertex -11.037136446478778 31.801120640339978 27.499350400483063
  endloop
endfacet
facet normal -1.2249702015486665e-15 1.6013830034980285e-16 1.0
  outer loop
    vertex -7.27831740137625 31.901021062844613 27.499350400483053
    vertex -11.037136446478778 31.801120640339978 27.499350400483063
    vertex -7.519498356273732 31.801120640339978 27.499350400483053
  endloop
endfacet
facet normal -1.2249702015486665e-15 1.6013830034980285e-16 1.0
  outer loop
    vertex -7.519498356273732 31.801120640339978 27.499350400483053
    vertex -11.037136446478778 31.801120640339978 27.499350400483063
    vertex -10.77831740137626 31.767046466629054 27.499350400483063
  endloop
endfacet
facet normal -1.2249702015486665e-15 1.6013830034980285e-16 1.0
  outer loop
    vertex -7.519498356273732 31.801120640339978 27.499350400483053
    vertex -10.77831740137626 31.767046466629054 27.499350400483063
    vertex -7.778317401376249 31.767046466629054 27.499350400483053
  endloop
endfacet
facet normal -1.2249702015486665e-15 1.6013830034980285e-16 1.0
  outer loop
    vertex -7.1497246555436575 35.49621779540628 27.499350400483053
    vertex -5.655423084056758 34.278271722654665 27.49935040048311
    vertex -6.48744699537527 35.67817266283049 27.499350400483088
  endloop
endfacet
facet normal -1.2249702015486665e-15 1.6013830034980285e-16 1.0
  outer loop
    vertex -5.655423084056758 34.278271722654665 27.49935040048311
    vertex -7.1497246555436575 35.49621779540628 27.499350400483053
    vertex -8.20787046486507 35.324504369352624 27.499350400483053
  endloop
endfacet
facet normal -1.2249702015486665e-15 1.6013830034980285e-16 1.0
  outer loop
    vertex -5.655423084056758 34.278271722654665 27.49935040048311
    vertex -8.20787046486507 35.324504369352624 27.499350400483053
    vertex -9.278317401376258 35.26704646662905 27.499350400483063
  endloop
endfacet
facet normal -0.4872456990252446 -0.8732649247401393 4.997156937863175e-16
  outer loop
    vertex -14.567625577517939 35.62647700918495 -1.6219699430765702
    vertex -14.89599871517001 35.809686133432 26.166061099541785
    vertex -14.895998715170027 35.809686133431995 -1.1673602985757334
  endloop
endfacet
facet normal -0.4872456990252446 -0.8732649247401393 4.997156937863175e-16
  outer loop
    vertex -14.89599871517001 35.809686133432 26.166061099541785
    vertex -14.567625577517939 35.62647700918495 -1.6219699430765702
    vertex -14.567625577517934 35.62647700918495 26.620670744042638
  endloop
endfacet
facet normal -0.4872456990252446 -0.8732649247401393 4.997156937863175e-16
  outer loop
    vertex -14.567625577517934 35.62647700918495 26.620670744042638
    vertex -14.567625577517939 35.62647700918495 -1.6219699430765702
    vertex -14.390206401577375 35.527472849013634 -1.788647971010902
  endloop
endfacet
facet normal -0.4872456990252446 -0.8732649247401393 4.997156937863175e-16
  outer loop
    vertex -14.567625577517934 35.62647700918495 26.620670744042638
    vertex -14.390206401577375 35.527472849013634 -1.788647971010902
    vertex -14.390206401577354 35.52747284901364 26.787348771976994
  endloop
endfacet
facet normal -0.859630183972768 0.5109167709157186 7.263782712359221e-16
  outer loop
    vertex -15.129383087470066 36.30745631609086 25.084621366531362
    vertex -14.933863703923171 36.63642254545819 -0.08592056556531495
    vertex -15.129383087470083 36.30745631609085 -0.08592056556531495
  endloop
endfacet
facet normal -0.859630183972768 0.5109167709157186 7.263782712359221e-16
  outer loop
    vertex -14.933863703923171 36.63642254545819 -0.08592056556531495
    vertex -15.129383087470066 36.30745631609086 25.084621366531362
    vertex -14.933863703923137 36.636422545458196 25.084621366531387
  endloop
endfacet
facet normal 0.16018224300696676 0.987087457637497 -3.3834564577817377e-16
  outer loop
    vertex -11.406910147208851 35.49621779540628 27.499350400483063
    vertex -10.34876433788745 35.32450436935262 -2.5006495995169282
    vertex -11.406910147208864 35.496217795406274 -2.5006495995169282
  endloop
endfacet
facet normal 0.16018224300696676 0.987087457637497 -3.3834564577817377e-16
  outer loop
    vertex -10.34876433788745 35.32450436935262 -2.5006495995169282
    vertex -11.406910147208851 35.49621779540628 27.499350400483063
    vertex -10.348764337887438 35.324504369352624 27.499350400483063
  endloop
endfacet
facet normal 1.0 -5.1282208599949285e-31 -4.2299497238218475e-16
  outer loop
    vertex -10.90331740137626 34.26704646662905 27.499350400483063
    vertex -10.903317401376272 32.51704646662904 -2.5006495995169273
    vertex -10.903317401376272 34.26704646662904 -2.500649599516928
  endloop
endfacet
facet normal 1.0 -5.1282208599949285e-31 -4.2299497238218475e-16
  outer loop
    vertex -10.903317401376272 32.51704646662904 -2.5006495995169273
    vertex -10.90331740137626 34.26704646662905 27.499350400483063
    vertex -10.90331740137626 32.51704646662905 27.499350400483063
  endloop
endfacet
facet normal 0.820528058559769 0.4876148646166256 0.2982707644423882
  outer loop
    vertex -3.790402497229794 36.72549105778292 25.385416221900847
    vertex -3.471581839668802 36.028738330455354 25.64740069757837
    vertex -3.429129783893406 36.11764072538312 25.385122528148695
  endloop
endfacet
facet normal 0.820528058559769 0.4876148646166256 0.2982707644423882
  outer loop
    vertex -3.471581839668802 36.028738330455354 25.64740069757837
    vertex -3.790402497229794 36.72549105778292 25.385416221900847
    vertex -3.888783298709917 36.73069016959041 25.647400697578348
  endloop
endfacet
facet normal 0.084258492374005 0.05007860083163036 0.9951847266721924
  outer loop
    vertex -6.116039741207908 35.780213486123905 27.46276997880306
    vertex -5.231303788655758 34.71021138617533 27.441706241692803
    vertex -5.914464517999273 35.85964631741865 27.441706241692735
  endloop
endfacet
facet normal 0.084258492374005 0.05007860083163036 0.9951847266721924
  outer loop
    vertex -5.231303788655758 34.71021138617533 27.441706241692803
    vertex -6.116039741207908 35.780213486123905 27.46276997880306
    vertex -6.48744699537527 35.67817266283049 27.499350400483088
  endloop
endfacet
facet normal 0.084258492374005 0.05007860083163036 0.9951847266721924
  outer loop
    vertex -5.231303788655758 34.71021138617533 27.441706241692803
    vertex -6.48744699537527 35.67817266283049 27.499350400483088
    vertex -5.520601381021215 34.432113550246804 27.480194100751735
  endloop
endfacet
facet normal 0.084258492374005 0.05007860083163036 0.9951847266721924
  outer loop
    vertex -5.520601381021215 34.432113550246804 27.480194100751735
    vertex -6.48744699537527 35.67817266283049 27.499350400483088
    vertex -5.655423084056758 34.278271722654665 27.49935040048311
  endloop
endfacet
facet normal 0.8596301839727423 0.5109167709157623 -1.4397515572105227e-15
  outer loop
    vertex -3.622771098829333 36.636422545458196 25.084621366531454
    vertex -3.427251715282429 36.30745631609085 -0.08592056556532059
    vertex -3.622771098829385 36.63642254545819 -0.08592056556532059
  endloop
endfacet
facet normal 0.8596301839727423 0.5109167709157623 -1.4397515572105227e-15
  outer loop
    vertex -3.427251715282429 36.30745631609085 -0.08592056556532059
    vertex -3.622771098829333 36.636422545458196 25.084621366531454
    vertex -3.427251715282405 36.30745631609086 25.084621366531497
  endloop
endfacet
facet normal -0.05359939492362707 0.9985625192564667 -2.539664449758941e-16
  outer loop
    vertex -9.278317401376258 35.26704646662905 27.499350400483063
    vertex -8.207870464865083 35.32450436935262 -2.5006495995169336
    vertex -9.27831740137627 35.26704646662904 -2.5006495995169282
  endloop
endfacet
facet normal -0.05359939492362707 0.9985625192564667 -2.539664449758941e-16
  outer loop
    vertex -8.207870464865083 35.32450436935262 -2.5006495995169336
    vertex -9.278317401376258 35.26704646662905 27.499350400483063
    vertex -8.20787046486507 35.324504369352624 27.499350400483053
  endloop
endfacet
facet normal -0.26492434394297115 0.964269200994404 1.171320820697951e-16
  outer loop
    vertex -7.1497246555436575 35.49621779540628 27.499350400483053
    vertex -6.487446995375356 35.678172662830484 -2.5006495995169336
    vertex -7.14972465554367 35.496217795406274 -2.5006495995169336
  endloop
endfacet
facet normal -0.26492434394297115 0.964269200994404 1.171320820697951e-16
  outer loop
    vertex -6.487446995375356 35.678172662830484 -2.5006495995169336
    vertex -7.1497246555436575 35.49621779540628 27.499350400483053
    vertex -6.48744699537527 35.67817266283049 27.499350400483088
  endloop
endfacet
facet normal -0.26492434394297115 0.964269200994404 1.171320820697951e-16
  outer loop
    vertex -6.487446995375356 35.678172662830484 -2.5006495995169336
    vertex -6.48744699537527 35.67817266283049 27.499350400483088
    vertex -6.116039741207938 35.780213486123905 -2.4640691778369583
  endloop
endfacet
facet normal -0.26492434394297115 0.964269200994404 1.171320820697951e-16
  outer loop
    vertex -6.116039741207938 35.780213486123905 -2.4640691778369583
    vertex -6.48744699537527 35.67817266283049 27.499350400483088
    vertex -6.116039741207908 35.780213486123905 27.46276997880306
  endloop
endfacet
facet normal 0.05277317218830413 0.99860652526267 -3.356532891829715e-16
  outer loop
    vertex -3.9852209658106936 36.73578659293894 25.798947192832586
    vertex -3.88878329870989 36.7306901695904 -0.6486998966122008
    vertex -3.9852209658107682 36.735786592938936 -0.800246391866468
  endloop
endfacet
facet normal 0.05277317218830413 0.99860652526267 -3.356532891829715e-16
  outer loop
    vertex -3.88878329870989 36.7306901695904 -0.6486998966122008
    vertex -3.9852209658106936 36.73578659293894 25.798947192832586
    vertex -3.888783298709917 36.73069016959041 25.647400697578348
  endloop
endfacet
facet normal 0.05277317218830413 0.99860652526267 -3.356532891829715e-16
  outer loop
    vertex -3.88878329870989 36.7306901695904 -0.6486998966122008
    vertex -3.888783298709917 36.73069016959041 25.647400697578348
    vertex -3.790402497229794 36.72549105778292 25.385416221900847
  endloop
endfacet
facet normal 0.05277317218830413 0.99860652526267 -3.356532891829715e-16
  outer loop
    vertex -3.88878329870989 36.7306901695904 -0.6486998966122008
    vertex -3.790402497229794 36.72549105778292 25.385416221900847
    vertex -3.790402497229835 36.72549105778291 -0.38671542093474226
  endloop
endfacet
facet normal -0.8168800162183786 0.48539197434979714 0.3116114091939951
  outer loop
    vertex -15.127505018859082 36.11764072538312 25.385122528148674
    vertex -14.933863703923137 36.636422545458196 25.084621366531387
    vertex -15.129383087470066 36.30745631609086 25.084621366531362
  endloop
endfacet
facet normal -0.8168800162183786 0.48539197434979714 0.3116114091939951
  outer loop
    vertex -14.933863703923137 36.636422545458196 25.084621366531387
    vertex -15.127505018859082 36.11764072538312 25.385122528148674
    vertex -14.766232305522676 36.72549105778292 25.3854162219008
  endloop
endfacet
facet normal 0.2495374705127201 0.1483113099491803 0.9569403357322085
  outer loop
    vertex -5.914464517999273 35.85964631741865 27.441706241692735
    vertex -4.7971491195259786 35.08124417222082 27.27098899801695
    vertex -5.384022170977333 36.06867268877472 27.270988998016907
  endloop
endfacet
facet normal 0.2495374705127201 0.1483113099491803 0.9569403357322085
  outer loop
    vertex -4.7971491195259786 35.08124417222082 27.27098899801695
    vertex -5.914464517999273 35.85964631741865 27.441706241692735
    vertex -5.1010291486436286 34.83544262355795 27.388326097606456
  endloop
endfacet
facet normal 0.2495374705127201 0.1483113099491803 0.9569403357322085
  outer loop
    vertex -5.1010291486436286 34.83544262355795 27.388326097606456
    vertex -5.914464517999273 35.85964631741865 27.441706241692735
    vertex -5.231303788655758 34.71021138617533 27.441706241692803
  endloop
endfacet
facet normal -0.40522686360189814 0.2408444985993282 0.8819212643483583
  outer loop
    vertex -14.181505517074338 35.386341642936976 26.993759237390638
    vertex -13.437940407443852 36.173227882151274 27.120522634578574
    vertex -13.648326858516466 36.283428006974106 26.993759237390616
  endloop
endfacet
facet normal -0.40522686360189814 0.2408444985993282 0.8819212643483583
  outer loop
    vertex -13.437940407443852 36.173227882151274 27.120522634578574
    vertex -14.181505517074338 35.386341642936976 26.993759237390638
    vertex -13.172612631775182 36.06867268877472 27.270988998016872
  endloop
endfacet
facet normal -0.40522686360189814 0.2408444985993282 0.8819212643483583
  outer loop
    vertex -13.172612631775182 36.06867268877472 27.270988998016872
    vertex -14.181505517074338 35.386341642936976 26.993759237390638
    vertex -13.908099401953509 35.20145438255189 27.16987539233964
  endloop
endfacet
facet normal -0.40522686360189814 0.2408444985993282 0.8819212643483583
  outer loop
    vertex -13.172612631775182 36.06867268877472 27.270988998016872
    vertex -13.908099401953509 35.20145438255189 27.16987539233964
    vertex -13.759485683226526 35.08124417222082 27.27098899801684
  endloop
endfacet
facet normal 0.4872456990252388 -0.8732649247401425 -1.4203711771005277e-16
  outer loop
    vertex -3.989009225234584 35.62647700918495 -1.6219699430765757
    vertex -4.166428401175163 35.52747284901364 26.78734877197706
    vertex -4.166428401175164 35.527472849013634 -1.7886479710109076
  endloop
endfacet
facet normal 0.4872456990252388 -0.8732649247401425 -1.4203711771005277e-16
  outer loop
    vertex -4.166428401175163 35.52747284901364 26.78734877197706
    vertex -3.989009225234584 35.62647700918495 -1.6219699430765757
    vertex -3.98900922523456 35.62647700918495 26.620670744042716
  endloop
endfacet
facet normal 0.4872456990252388 -0.8732649247401425 -1.4203711771005277e-16
  outer loop
    vertex -3.98900922523456 35.62647700918495 26.620670744042716
    vertex -3.989009225234584 35.62647700918495 -1.6219699430765757
    vertex -3.6606360875825183 35.809686133431995 -1.167360298575739
  endloop
endfacet
facet normal 0.4872456990252388 -0.8732649247401425 -1.4203711771005277e-16
  outer loop
    vertex -3.98900922523456 35.62647700918495 26.620670744042716
    vertex -3.6606360875825183 35.809686133431995 -1.167360298575739
    vertex -3.6606360875824775 35.809686133432 26.166061099541853
  endloop
endfacet
facet normal 9.022700899979137e-32 -1.0 2.7117197376469447e-16
  outer loop
    vertex -7.6533174013762615 34.26704646662904 -2.500649599516933
    vertex -10.90331740137626 34.26704646662905 27.499350400483063
    vertex -10.903317401376272 34.26704646662904 -2.500649599516928
  endloop
endfacet
facet normal 9.022700899979137e-32 -1.0 2.7117197376469447e-16
  outer loop
    vertex -10.90331740137626 34.26704646662905 27.499350400483063
    vertex -7.6533174013762615 34.26704646662904 -2.500649599516933
    vertex -7.653317401376249 34.26704646662905 27.499350400483053
  endloop
endfacet
facet normal -0.9023967110526536 -0.43090622632001213 3.6054110653346655e-16
  outer loop
    vertex -15.043439384407602 35.941591860437576 25.798424791431522
    vertex -15.085052963083713 36.02873833045535 -0.6486998966121952
    vertex -15.043439384407574 35.94159186043757 -0.7997239904654315
  endloop
endfacet
facet normal -0.9023967110526536 -0.43090622632001213 3.6054110653346655e-16
  outer loop
    vertex -15.085052963083713 36.02873833045535 -0.6486998966121952
    vertex -15.043439384407602 35.941591860437576 25.798424791431522
    vertex -15.127505018859132 36.11764072538311 -0.3864217271825916
  endloop
endfacet
facet normal -0.9023967110526536 -0.43090622632001213 3.6054110653346655e-16
  outer loop
    vertex -15.127505018859132 36.11764072538311 -0.3864217271825916
    vertex -15.043439384407602 35.941591860437576 25.798424791431522
    vertex -15.127505018859082 36.11764072538312 25.385122528148674
  endloop
endfacet
facet normal -0.9023967110526536 -0.43090622632001213 3.6054110653346655e-16
  outer loop
    vertex -15.127505018859082 36.11764072538312 25.385122528148674
    vertex -15.043439384407602 35.941591860437576 25.798424791431522
    vertex -15.085052963083713 36.028738330455354 25.647400697578313
  endloop
endfacet
facet normal -0.6667531082419519 -0.7452786677811838 6.953240626381017e-17
  outer loop
    vertex -15.043439384407574 35.94159186043757 -0.7997239904654315
    vertex -14.89599871517001 35.809686133432 26.166061099541785
    vertex -15.043439384407602 35.941591860437576 25.798424791431522
  endloop
endfacet
facet normal -0.6667531082419519 -0.7452786677811838 6.953240626381017e-17
  outer loop
    vertex -14.89599871517001 35.809686133432 26.166061099541785
    vertex -15.043439384407574 35.94159186043757 -0.7997239904654315
    vertex -14.895998715170027 35.809686133431995 -1.1673602985757334
  endloop
endfacet
facet normal 0.46399362126708915 0.8858385402676117 -7.044222641813111e-16
  outer loop
    vertex -14.385081944254317 36.6693163174048 26.166061099541796
    vertex -14.05159960401783 36.49470355367595 -1.6219699430765704
    vertex -14.385081944254322 36.669316317404785 -1.1673602985757336
  endloop
endfacet
facet normal 0.46399362126708915 0.8858385402676117 -7.044222641813111e-16
  outer loop
    vertex -14.05159960401783 36.49470355367595 -1.6219699430765704
    vertex -14.385081944254317 36.6693163174048 26.166061099541796
    vertex -14.051599604017802 36.49470355367596 26.620670744042663
  endloop
endfacet
facet normal 0.46399362126708915 0.8858385402676117 -7.044222641813111e-16
  outer loop
    vertex -14.05159960401783 36.49470355367595 -1.6219699430765704
    vertex -14.051599604017802 36.49470355367596 26.620670744042663
    vertex -13.648326858516546 36.2834280069741 -1.9950584364245645
  endloop
endfacet
facet normal 0.46399362126708915 0.8858385402676117 -7.044222641813111e-16
  outer loop
    vertex -13.648326858516546 36.2834280069741 -1.9950584364245645
    vertex -14.051599604017802 36.49470355367596 26.620670744042663
    vertex -13.648326858516466 36.283428006974106 26.993759237390616
  endloop
endfacet
facet normal 0.46399362126708915 0.8858385402676117 -7.044222641813111e-16
  outer loop
    vertex -13.648326858516546 36.2834280069741 -1.9950584364245645
    vertex -13.648326858516466 36.283428006974106 26.993759237390616
    vertex -13.437940407443852 36.17322788215127 -2.1218218336124792
  endloop
endfacet
facet normal 0.46399362126708915 0.8858385402676117 -7.044222641813111e-16
  outer loop
    vertex -13.437940407443852 36.17322788215127 -2.1218218336124792
    vertex -13.648326858516466 36.283428006974106 26.993759237390616
    vertex -13.437940407443852 36.173227882151274 27.120522634578574
  endloop
endfacet
facet normal -0.9238795325113066 -0.38268343236504204 4.900843383390459e-16
  outer loop
    vertex -11.644342805160699 32.267046466629054 27.499350400483063
    vertex -11.744243227665322 32.508227421526506 -2.5006495995169273
    vertex -11.644342805160711 32.26704646662904 -2.5006495995169273
  endloop
endfacet
facet normal -0.9238795325113066 -0.38268343236504204 4.900843383390459e-16
  outer loop
    vertex -11.744243227665322 32.508227421526506 -2.5006495995169273
    vertex -11.644342805160699 32.267046466629054 27.499350400483063
    vertex -11.74424322766531 32.50822742152652 27.499350400483063
  endloop
endfacet
facet normal 0.05359939492362737 0.9985625192564667 -2.9922243522311704e-16
  outer loop
    vertex -10.348764337887438 35.324504369352624 27.499350400483063
    vertex -9.27831740137627 35.26704646662904 -2.5006495995169282
    vertex -10.34876433788745 35.32450436935262 -2.5006495995169282
  endloop
endfacet
facet normal 0.05359939492362737 0.9985625192564667 -2.9922243522311704e-16
  outer loop
    vertex -9.27831740137627 35.26704646662904 -2.5006495995169282
    vertex -10.348764337887438 35.324504369352624 27.499350400483063
    vertex -9.278317401376258 35.26704646662905 27.499350400483063
  endloop
endfacet
facet normal 0.5601764634225149 -0.8283733034251187 3.7780632368208567e-16
  outer loop
    vertex -4.375129285678195 35.38634164293697 -1.9950584364245698
    vertex -4.6485354007989725 35.20145438255189 27.16987539233972
    vertex -4.648535400799008 35.20145438255188 -2.171174591373577
  endloop
endfacet
facet normal 0.5601764634225149 -0.8283733034251187 3.7780632368208567e-16
  outer loop
    vertex -4.6485354007989725 35.20145438255189 27.16987539233972
    vertex -4.375129285678195 35.38634164293697 -1.9950584364245698
    vertex -4.375129285678256 35.386341642936976 26.993759237390694
  endloop
endfacet
facet normal 0.5601764634225149 -0.8283733034251187 3.7780632368208567e-16
  outer loop
    vertex -4.375129285678256 35.386341642936976 26.993759237390694
    vertex -4.375129285678195 35.38634164293697 -1.9950584364245698
    vertex -4.166428401175163 35.52747284901364 26.78734877197706
  endloop
endfacet
facet normal 0.5601764634225149 -0.8283733034251187 3.7780632368208567e-16
  outer loop
    vertex -4.166428401175163 35.52747284901364 26.78734877197706
    vertex -4.375129285678195 35.38634164293697 -1.9950584364245698
    vertex -4.166428401175164 35.527472849013634 -1.7886479710109076
  endloop
endfacet
facet normal 0.8185408599001751 0.4864330841028724 -0.3055711297947667
  outer loop
    vertex -3.790402497229835 36.72549105778291 -0.38671542093474226
    vertex -3.471581839668809 36.02873833045535 -0.6486998966122008
    vertex -3.88878329870989 36.7306901695904 -0.6486998966122008
  endloop
endfacet
facet normal 0.8185408599001751 0.4864330841028724 -0.3055711297947667
  outer loop
    vertex -3.471581839668809 36.02873833045535 -0.6486998966122008
    vertex -3.790402497229835 36.72549105778291 -0.38671542093474226
    vertex -3.4291297838934582 36.11764072538311 -0.38642172718259726
  endloop
endfacet
facet normal 0.8185408599001751 0.4864330841028724 -0.3055711297947667
  outer loop
    vertex -3.4291297838934582 36.11764072538311 -0.38642172718259726
    vertex -3.790402497229835 36.72549105778291 -0.38671542093474226
    vertex -3.622771098829385 36.63642254545819 -0.08592056556532059
  endloop
endfacet
facet normal 0.8185408599001751 0.4864330841028724 -0.3055711297947667
  outer loop
    vertex -3.4291297838934582 36.11764072538311 -0.38642172718259726
    vertex -3.622771098829385 36.63642254545819 -0.08592056556532059
    vertex -3.427251715282429 36.30745631609085 -0.08592056556532059
  endloop
endfacet
facet normal -0.8205280585597815 0.4876148646166504 0.2982707644423129
  outer loop
    vertex -15.085052963083713 36.028738330455354 25.647400697578313
    vertex -14.766232305522676 36.72549105778292 25.3854162219008
    vertex -15.127505018859082 36.11764072538312 25.385122528148674
  endloop
endfacet
facet normal -0.8205280585597815 0.4876148646166504 0.2982707644423129
  outer loop
    vertex -14.766232305522676 36.72549105778292 25.3854162219008
    vertex -15.085052963083713 36.028738330455354 25.647400697578313
    vertex -14.667851504042599 36.73069016959041 25.64740069757828
  endloop
endfacet
facet normal 0.6930142833164749 -0.7209238538981442 -4.47570677720241e-16
  outer loop
    vertex -5.2313037886558105 34.710211386175324 -2.443005440726622
    vertex -5.520601381021215 34.432113550246804 27.480194100751735
    vertex -5.520601381021227 34.4321135502468 -2.500649599516933
  endloop
endfacet
facet normal 0.6930142833164749 -0.7209238538981442 -4.47570677720241e-16
  outer loop
    vertex -5.520601381021215 34.432113550246804 27.480194100751735
    vertex -5.2313037886558105 34.710211386175324 -2.443005440726622
    vertex -5.231303788655758 34.71021138617533 27.441706241692803
  endloop
endfacet
facet normal 0.6930142833164749 -0.7209238538981442 -4.47570677720241e-16
  outer loop
    vertex -5.231303788655758 34.71021138617533 27.441706241692803
    vertex -5.2313037886558105 34.710211386175324 -2.443005440726622
    vertex -5.101029148643646 34.835442623557945 -2.3896252966403435
  endloop
endfacet
facet normal 0.6930142833164749 -0.7209238538981442 -4.47570677720241e-16
  outer loop
    vertex -5.231303788655758 34.71021138617533 27.441706241692803
    vertex -5.101029148643646 34.835442623557945 -2.3896252966403435
    vertex -5.1010291486436286 34.83544262355795 27.388326097606456
  endloop
endfacet
facet normal 0.9023967110526876 -0.4309062263199414 -3.70382919306932e-16
  outer loop
    vertex -3.471581839668809 36.02873833045535 -0.6486998966122008
    vertex -3.513195418344942 35.941591860437576 25.79842479143159
    vertex -3.5131954183449263 35.94159186043757 -0.7997239904654372
  endloop
endfacet
facet normal 0.9023967110526876 -0.4309062263199414 -3.70382919306932e-16
  outer loop
    vertex -3.513195418344942 35.941591860437576 25.79842479143159
    vertex -3.471581839668809 36.02873833045535 -0.6486998966122008
    vertex -3.4291297838934582 36.11764072538311 -0.38642172718259726
  endloop
endfacet
facet normal 0.9023967110526876 -0.4309062263199414 -3.70382919306932e-16
  outer loop
    vertex -3.513195418344942 35.941591860437576 25.79842479143159
    vertex -3.4291297838934582 36.11764072538311 -0.38642172718259726
    vertex -3.429129783893406 36.11764072538312 25.385122528148695
  endloop
endfacet
facet normal 0.9023967110526876 -0.4309062263199414 -3.70382919306932e-16
  outer loop
    vertex -3.513195418344942 35.941591860437576 25.79842479143159
    vertex -3.429129783893406 36.11764072538312 25.385122528148695
    vertex -3.471581839668802 36.028738330455354 25.64740069757837
  endloop
endfacet
facet normal -0.16018224300696673 0.987087457637497 -2.0289581616397422e-16
  outer loop
    vertex -8.20787046486507 35.324504369352624 27.499350400483053
    vertex -7.14972465554367 35.496217795406274 -2.5006495995169336
    vertex -8.207870464865083 35.32450436935262 -2.5006495995169336
  endloop
endfacet
facet normal -0.16018224300696673 0.987087457637497 -2.0289581616397422e-16
  outer loop
    vertex -7.14972465554367 35.496217795406274 -2.5006495995169336
    vertex -8.20787046486507 35.324504369352624 27.499350400483053
    vertex -7.1497246555436575 35.49621779540628 27.499350400483053
  endloop
endfacet
facet normal -0.3359919529212575 0.941864856320778 2.445134231274204e-16
  outer loop
    vertex -4.171552858498193 36.6693163174048 26.1660610995419
    vertex -3.9852209658107682 36.735786592938936 -0.800246391866468
    vertex -4.1715528584982 36.669316317404785 -1.1673602985757392
  endloop
endfacet
facet normal -0.3359919529212575 0.941864856320778 2.445134231274204e-16
  outer loop
    vertex -3.9852209658107682 36.735786592938936 -0.800246391866468
    vertex -4.171552858498193 36.6693163174048 26.1660610995419
    vertex -3.9852209658106936 36.73578659293894 25.798947192832586
  endloop
endfacet
facet normal -0.7593820451183062 0.45116166292602833 0.46881986248212615
  outer loop
    vertex -15.085052963083713 36.028738330455354 25.647400697578313
    vertex -14.57141383694175 36.73578659293894 25.798947192832518
    vertex -14.667851504042599 36.73069016959041 25.64740069757828
  endloop
endfacet
facet normal -0.7593820451183062 0.45116166292602833 0.46881986248212615
  outer loop
    vertex -14.57141383694175 36.73578659293894 25.798947192832518
    vertex -15.085052963083713 36.028738330455354 25.647400697578313
    vertex -15.043439384407602 35.941591860437576 25.798424791431522
  endloop
endfacet
facet normal -0.8185408599001582 0.4864330841028836 -0.3055711297947935
  outer loop
    vertex -15.127505018859132 36.11764072538311 -0.3864217271825916
    vertex -14.667851504042611 36.7306901695904 -0.6486998966121952
    vertex -15.085052963083713 36.02873833045535 -0.6486998966121952
  endloop
endfacet
facet normal -0.8185408599001582 0.4864330841028836 -0.3055711297947935
  outer loop
    vertex -14.667851504042611 36.7306901695904 -0.6486998966121952
    vertex -15.127505018859132 36.11764072538311 -0.3864217271825916
    vertex -14.766232305522717 36.72549105778291 -0.38671542093473665
  endloop
endfacet
facet normal -0.8185408599001582 0.4864330841028836 -0.3055711297947935
  outer loop
    vertex -14.766232305522717 36.72549105778291 -0.38671542093473665
    vertex -15.127505018859132 36.11764072538311 -0.3864217271825916
    vertex -14.933863703923171 36.63642254545819 -0.08592056556531495
  endloop
endfacet
facet normal -0.8185408599001582 0.4864330841028836 -0.3055711297947935
  outer loop
    vertex -14.933863703923171 36.63642254545819 -0.08592056556531495
    vertex -15.127505018859132 36.11764072538311 -0.3864217271825916
    vertex -15.129383087470083 36.30745631609085 -0.08592056556531495
  endloop
endfacet
facet normal 0.33599195292126666 0.9418648563207745 -6.743254758940958e-16
  outer loop
    vertex -14.57141383694175 36.73578659293894 25.798947192832518
    vertex -14.385081944254322 36.669316317404785 -1.1673602985757336
    vertex -14.571413836941812 36.735786592938936 -0.8002463918664623
  endloop
endfacet
facet normal 0.33599195292126666 0.9418648563207745 -6.743254758940958e-16
  outer loop
    vertex -14.385081944254322 36.669316317404785 -1.1673602985757336
    vertex -14.57141383694175 36.73578659293894 25.798947192832518
    vertex -14.385081944254317 36.6693163174048 26.166061099541796
  endloop
endfacet
facet normal -0.9999510562471969 -0.009893690419418243 1.3388476483353774e-15
  outer loop
    vertex -15.127505018859082 36.11764072538312 25.385122528148674
    vertex -15.129383087470083 36.30745631609085 -0.08592056556531495
    vertex -15.127505018859132 36.11764072538311 -0.3864217271825916
  endloop
endfacet
facet normal -0.9999510562471969 -0.009893690419418243 1.3388476483353774e-15
  outer loop
    vertex -15.129383087470083 36.30745631609085 -0.08592056556531495
    vertex -15.127505018859082 36.11764072538312 25.385122528148674
    vertex -15.129383087470066 36.30745631609086 25.084621366531362
  endloop
endfacet
facet normal 0.9999510562471945 -0.009893690419670762 -1.4981716470244596e-15
  outer loop
    vertex -3.427251715282429 36.30745631609085 -0.08592056556532059
    vertex -3.429129783893406 36.11764072538312 25.385122528148695
    vertex -3.4291297838934582 36.11764072538311 -0.38642172718259726
  endloop
endfacet
facet normal 0.9999510562471945 -0.009893690419670762 -1.4981716470244596e-15
  outer loop
    vertex -3.429129783893406 36.11764072538312 25.385122528148695
    vertex -3.427251715282429 36.30745631609085 -0.08592056556532059
    vertex -3.427251715282405 36.30745631609086 25.084621366531497
  endloop
endfacet
facet normal -0.05277317218830369 0.9986065252626702 -1.9449316699172657e-16
  outer loop
    vertex -14.766232305522676 36.72549105778292 25.3854162219008
    vertex -14.667851504042611 36.7306901695904 -0.6486998966121952
    vertex -14.766232305522717 36.72549105778291 -0.38671542093473665
  endloop
endfacet
facet normal -0.05277317218830369 0.9986065252626702 -1.9449316699172657e-16
  outer loop
    vertex -14.667851504042611 36.7306901695904 -0.6486998966121952
    vertex -14.766232305522676 36.72549105778292 25.3854162219008
    vertex -14.667851504042599 36.73069016959041 25.64740069757828
  endloop
endfacet
facet normal -0.05277317218830369 0.9986065252626702 -1.9449316699172657e-16
  outer loop
    vertex -14.667851504042611 36.7306901695904 -0.6486998966121952
    vertex -14.667851504042599 36.73069016959041 25.64740069757828
    vertex -14.571413836941812 36.735786592938936 -0.8002463918664623
  endloop
endfacet
facet normal -0.05277317218830369 0.9986065252626702 -1.9449316699172657e-16
  outer loop
    vertex -14.571413836941812 36.735786592938936 -0.8002463918664623
    vertex -14.667851504042599 36.73069016959041 25.64740069757828
    vertex -14.57141383694175 36.73578659293894 25.798947192832518
  endloop
endfacet
facet normal -0.3826834323650829 -0.9238795325112897 4.0159060826091716e-16
  outer loop
    vertex -11.03713644647879 31.801120640339974 -2.5006495995169273
    vertex -11.27831740137626 31.901021062844613 27.499350400483063
    vertex -11.278317401376272 31.9010210628446 -2.5006495995169273
  endloop
endfacet
facet normal -0.3826834323650829 -0.9238795325112897 4.0159060826091716e-16
  outer loop
    vertex -11.27831740137626 31.901021062844613 27.499350400483063
    vertex -11.03713644647879 31.801120640339974 -2.5006495995169273
    vertex -11.037136446478778 31.801120640339978 27.499350400483063
  endloop
endfacet
facet normal 0.5453436155766965 0.32412216823549317 0.7730104533627336
  outer loop
    vertex -4.908307944235988 36.283428006974106 26.99375923739074
    vertex -3.98900922523456 35.62647700918495 26.620670744042716
    vertex -4.505035198734685 36.49470355367596 26.620670744042684
  endloop
endfacet
facet normal 0.5453436155766965 0.32412216823549317 0.7730104533627336
  outer loop
    vertex -3.98900922523456 35.62647700918495 26.620670744042716
    vertex -4.908307944235988 36.283428006974106 26.99375923739074
    vertex -4.166428401175163 35.52747284901364 26.78734877197706
  endloop
endfacet
facet normal 0.5453436155766965 0.32412216823549317 0.7730104533627336
  outer loop
    vertex -4.166428401175163 35.52747284901364 26.78734877197706
    vertex -4.908307944235988 36.283428006974106 26.99375923739074
    vertex -4.375129285678256 35.386341642936976 26.993759237390694
  endloop
endfacet
facet normal 0.3666220454422607 0.9303699671613079 -8.56422654098345e-16
  outer loop
    vertex -13.172612631775182 36.06867268877472 27.270988998016872
    vertex -13.437940407443852 36.17322788215127 -2.1218218336124792
    vertex -13.437940407443852 36.173227882151274 27.120522634578574
  endloop
endfacet
facet normal 0.3666220454422607 0.9303699671613079 -8.56422654098345e-16
  outer loop
    vertex -13.437940407443852 36.17322788215127 -2.1218218336124792
    vertex -13.172612631775182 36.06867268877472 27.270988998016872
    vertex -13.1726126317752 36.06867268877471 -2.2722881970507864
  endloop
endfacet
facet normal 0.3666220454422607 0.9303699671613079 -8.56422654098345e-16
  outer loop
    vertex -13.1726126317752 36.06867268877471 -2.2722881970507864
    vertex -13.172612631775182 36.06867268877472 27.270988998016872
    vertex -12.64217028475326 35.85964631741865 -2.4430054407266164
  endloop
endfacet
facet normal 0.3666220454422607 0.9303699671613079 -8.56422654098345e-16
  outer loop
    vertex -12.64217028475326 35.85964631741865 -2.4430054407266164
    vertex -13.172612631775182 36.06867268877472 27.270988998016872
    vertex -12.642170284753169 35.85964631741865 27.441706241692714
  endloop
endfacet
facet normal 0.3666220454422607 0.9303699671613079 -8.56422654098345e-16
  outer loop
    vertex -12.64217028475326 35.85964631741865 -2.4430054407266164
    vertex -12.642170284753169 35.85964631741865 27.441706241692714
    vertex -12.440595061544647 35.780213486123905 -2.4640691778369526
  endloop
endfacet
facet normal 0.3666220454422607 0.9303699671613079 -8.56422654098345e-16
  outer loop
    vertex -12.440595061544647 35.780213486123905 -2.4640691778369526
    vertex -12.642170284753169 35.85964631741865 27.441706241692714
    vertex -12.440595061544562 35.780213486123905 27.46276997880305
  endloop
endfacet
facet normal 0.6667531082419657 -0.7452786677811715 -1.2182034950764414e-16
  outer loop
    vertex -3.5131954183449263 35.94159186043757 -0.7997239904654372
    vertex -3.6606360875824775 35.809686133432 26.166061099541853
    vertex -3.6606360875825183 35.809686133431995 -1.167360298575739
  endloop
endfacet
facet normal 0.6667531082419657 -0.7452786677811715 -1.2182034950764414e-16
  outer loop
    vertex -3.6606360875824775 35.809686133432 26.166061099541853
    vertex -3.5131954183449263 35.94159186043757 -0.7997239904654372
    vertex -3.513195418344942 35.941591860437576 25.79842479143159
  endloop
endfacet
facet normal -0.46921410746817166 0.8830844361400825 4.383601388031186e-16
  outer loop
    vertex -14.933863703923137 36.636422545458196 25.084621366531387
    vertex -14.766232305522717 36.72549105778291 -0.38671542093473665
    vertex -14.933863703923171 36.63642254545819 -0.08592056556531495
  endloop
endfacet
facet normal -0.46921410746817166 0.8830844361400825 4.383601388031186e-16
  outer loop
    vertex -14.766232305522717 36.72549105778291 -0.38671542093473665
    vertex -14.933863703923137 36.636422545458196 25.084621366531387
    vertex -14.766232305522676 36.72549105778292 25.3854162219008
  endloop
endfacet
facet normal -0.2495374705127507 0.148311309949159 0.9569403357322036
  outer loop
    vertex -13.759485683226526 35.08124417222082 27.27098899801684
    vertex -12.642170284753169 35.85964631741865 27.441706241692714
    vertex -13.172612631775182 36.06867268877472 27.270988998016872
  endloop
endfacet
facet normal -0.2495374705127507 0.148311309949159 0.9569403357322036
  outer loop
    vertex -12.642170284753169 35.85964631741865 27.441706241692714
    vertex -13.759485683226526 35.08124417222082 27.27098899801684
    vertex -13.455605654108894 34.83544262355795 27.388326097606434
  endloop
endfacet
facet normal -0.2495374705127507 0.148311309949159 0.9569403357322036
  outer loop
    vertex -12.642170284753169 35.85964631741865 27.441706241692714
    vertex -13.455605654108894 34.83544262355795 27.388326097606434
    vertex -13.325331014096724 34.71021138617533 27.441706241692703
  endloop
endfacet
facet normal -0.5601764634225119 -0.8283733034251208 3.3517342448258895e-16
  outer loop
    vertex -14.181505517074282 35.38634164293697 -1.995058436424564
    vertex -14.390206401577354 35.52747284901364 26.787348771976994
    vertex -14.390206401577375 35.527472849013634 -1.788647971010902
  endloop
endfacet
facet normal -0.5601764634225119 -0.8283733034251208 3.3517342448258895e-16
  outer loop
    vertex -14.390206401577354 35.52747284901364 26.787348771976994
    vertex -14.181505517074282 35.38634164293697 -1.995058436424564
    vertex -14.181505517074338 35.386341642936976 26.993759237390638
  endloop
endfacet
facet normal -0.5601764634225119 -0.8283733034251208 3.3517342448258895e-16
  outer loop
    vertex -14.181505517074338 35.386341642936976 26.993759237390638
    vertex -14.181505517074282 35.38634164293697 -1.995058436424564
    vertex -13.908099401953509 35.20145438255189 27.16987539233964
  endloop
endfacet
facet normal -0.5601764634225119 -0.8283733034251208 3.3517342448258895e-16
  outer loop
    vertex -13.908099401953509 35.20145438255189 27.16987539233964
    vertex -14.181505517074282 35.38634164293697 -1.995058436424564
    vertex -13.90809940195356 35.20145438255188 -2.171174591373571
  endloop
endfacet
facet normal -0.662500804468947 0.39375393984424734 0.6372209341626582
  outer loop
    vertex -14.567625577517934 35.62647700918495 26.620670744042638
    vertex -14.385081944254317 36.6693163174048 26.166061099541796
    vertex -14.89599871517001 35.809686133432 26.166061099541785
  endloop
endfacet
facet normal -0.662500804468947 0.39375393984424734 0.6372209341626582
  outer loop
    vertex -14.385081944254317 36.6693163174048 26.166061099541796
    vertex -14.567625577517934 35.62647700918495 26.620670744042638
    vertex -14.051599604017802 36.49470355367596 26.620670744042663
  endloop
endfacet
facet normal -0.5453436155766638 0.32412216823551954 0.7730104533627459
  outer loop
    vertex -14.567625577517934 35.62647700918495 26.620670744042638
    vertex -13.648326858516466 36.283428006974106 26.993759237390616
    vertex -14.051599604017802 36.49470355367596 26.620670744042663
  endloop
endfacet
facet normal -0.5453436155766638 0.32412216823551954 0.7730104533627459
  outer loop
    vertex -13.648326858516466 36.283428006974106 26.993759237390616
    vertex -14.567625577517934 35.62647700918495 26.620670744042638
    vertex -14.390206401577354 35.52747284901364 26.787348771976994
  endloop
endfacet
facet normal -0.5453436155766638 0.32412216823551954 0.7730104533627459
  outer loop
    vertex -13.648326858516466 36.283428006974106 26.993759237390616
    vertex -14.390206401577354 35.52747284901364 26.787348771976994
    vertex -14.181505517074338 35.386341642936976 26.993759237390638
  endloop
endfacet
facet normal 0.46921410746817754 0.8830844361400791 -1.1008210804369264e-15
  outer loop
    vertex -3.790402497229794 36.72549105778292 25.385416221900847
    vertex -3.622771098829385 36.63642254545819 -0.08592056556532059
    vertex -3.790402497229835 36.72549105778291 -0.38671542093474226
  endloop
endfacet
facet normal 0.46921410746817754 0.8830844361400791 -1.1008210804369264e-15
  outer loop
    vertex -3.622771098829385 36.63642254545819 -0.08592056556532059
    vertex -3.790402497229794 36.72549105778292 25.385416221900847
    vertex -3.622771098829333 36.636422545458196 25.084621366531454
  endloop
endfacet
facet normal -0.7520674601867804 -0.6590861365012967 4.889235486513012e-16
  outer loop
    vertex -12.652450273350649 33.99441597447248 27.499350400483063
    vertex -12.901211718695746 34.278271722654644 -2.500649599516928
    vertex -12.652450273350661 33.994415974472474 -2.500649599516928
  endloop
endfacet
facet normal -0.7520674601867804 -0.6590861365012967 4.889235486513012e-16
  outer loop
    vertex -12.901211718695746 34.278271722654644 -2.500649599516928
    vertex -12.652450273350649 33.99441597447248 27.499350400483063
    vertex -13.036033421731307 34.4321135502468 -2.4814932997855155
  endloop
endfacet
facet normal -0.7520674601867804 -0.6590861365012967 4.889235486513012e-16
  outer loop
    vertex -13.036033421731307 34.4321135502468 -2.4814932997855155
    vertex -12.652450273350649 33.99441597447248 27.499350400483063
    vertex -13.036033421731293 34.432113550246804 27.4801941007516
  endloop
endfacet
facet normal -0.7520674601867804 -0.6590861365012967 4.889235486513012e-16
  outer loop
    vertex -13.036033421731293 34.432113550246804 27.4801941007516
    vertex -12.652450273350649 33.99441597447248 27.499350400483063
    vertex -12.901211718695732 34.27827172265465 27.49935040048303
  endloop
endfacet
facet normal 0.7593820451183784 0.45116166292601334 0.46881986248202373
  outer loop
    vertex -3.9852209658106936 36.73578659293894 25.798947192832586
    vertex -3.471581839668802 36.028738330455354 25.64740069757837
    vertex -3.888783298709917 36.73069016959041 25.647400697578348
  endloop
endfacet
facet normal 0.7593820451183784 0.45116166292601334 0.46881986248202373
  outer loop
    vertex -3.471581839668802 36.028738330455354 25.64740069757837
    vertex -3.9852209658106936 36.73578659293894 25.798947192832586
    vertex -3.513195418344942 35.941591860437576 25.79842479143159
  endloop
endfacet
facet normal -0.08425849237399954 0.050078600831577516 0.9951847266721954
  outer loop
    vertex -13.325331014096724 34.71021138617533 27.441706241692703
    vertex -12.440595061544562 35.780213486123905 27.46276997880305
    vertex -12.642170284753169 35.85964631741865 27.441706241692714
  endloop
endfacet
facet normal -0.08425849237399954 0.050078600831577516 0.9951847266721954
  outer loop
    vertex -12.440595061544562 35.780213486123905 27.46276997880305
    vertex -13.325331014096724 34.71021138617533 27.441706241692703
    vertex -12.06918780737717 35.67817266283049 27.49935040048302
  endloop
endfacet
facet normal -0.08425849237399954 0.050078600831577516 0.9951847266721954
  outer loop
    vertex -12.06918780737717 35.67817266283049 27.49935040048302
    vertex -13.325331014096724 34.71021138617533 27.441706241692703
    vertex -13.036033421731293 34.432113550246804 27.4801941007516
  endloop
endfacet
facet normal -0.08425849237399954 0.050078600831577516 0.9951847266721954
  outer loop
    vertex -12.06918780737717 35.67817266283049 27.49935040048302
    vertex -13.036033421731293 34.432113550246804 27.4801941007516
    vertex -12.901211718695732 34.27827172265465 27.49935040048303
  endloop
endfacet
facet normal -1.0 2.0365959857232282e-31 4.229949723821849e-16
  outer loop
    vertex -7.653317401376249 32.51704646662905 27.499350400483053
    vertex -7.6533174013762615 34.26704646662904 -2.500649599516933
    vertex -7.6533174013762615 32.51704646662904 -2.500649599516933
  endloop
endfacet
facet normal -1.0 2.0365959857232282e-31 4.229949723821849e-16
  outer loop
    vertex -7.6533174013762615 34.26704646662904 -2.500649599516933
    vertex -7.653317401376249 32.51704646662905 27.499350400483053
    vertex -7.653317401376249 34.26704646662905 27.499350400483053
  endloop
endfacet
facet normal -0.76009684454976 0.4516181079660029 0.46721929697167497
  outer loop
    vertex -14.89599871517001 35.809686133432 26.166061099541785
    vertex -14.57141383694175 36.73578659293894 25.798947192832518
    vertex -15.043439384407602 35.941591860437576 25.798424791431522
  endloop
endfacet
facet normal -0.76009684454976 0.4516181079660029 0.46721929697167497
  outer loop
    vertex -14.57141383694175 36.73578659293894 25.798947192832518
    vertex -14.89599871517001 35.809686133432 26.166061099541785
    vertex -14.385081944254317 36.6693163174048 26.166061099541796
  endloop
endfacet
facet normal 0.8168800162183603 0.48539197434977416 0.3116114091940789
  outer loop
    vertex -3.790402497229794 36.72549105778292 25.385416221900847
    vertex -3.427251715282405 36.30745631609086 25.084621366531497
    vertex -3.622771098829333 36.636422545458196 25.084621366531454
  endloop
endfacet
facet normal 0.8168800162183603 0.48539197434977416 0.3116114091940789
  outer loop
    vertex -3.427251715282405 36.30745631609086 25.084621366531497
    vertex -3.790402497229794 36.72549105778292 25.385416221900847
    vertex -3.429129783893406 36.11764072538312 25.385122528148695
  endloop
endfacet
facet normal 0.26492434394297004 0.9642692009944045 -7.552222295000066e-16
  outer loop
    vertex -12.440595061544562 35.780213486123905 27.46276997880305
    vertex -12.06918780737724 35.678172662830484 -2.5006495995169282
    vertex -12.440595061544647 35.780213486123905 -2.4640691778369526
  endloop
endfacet
facet normal 0.26492434394297004 0.9642692009944045 -7.552222295000066e-16
  outer loop
    vertex -12.06918780737724 35.678172662830484 -2.5006495995169282
    vertex -12.440595061544562 35.780213486123905 27.46276997880305
    vertex -12.06918780737717 35.67817266283049 27.49935040048302
  endloop
endfacet
facet normal 0.26492434394297004 0.9642692009944045 -7.552222295000066e-16
  outer loop
    vertex -12.06918780737724 35.678172662830484 -2.5006495995169282
    vertex -12.06918780737717 35.67817266283049 27.49935040048302
    vertex -11.406910147208864 35.496217795406274 -2.5006495995169282
  endloop
endfacet
facet normal 0.26492434394297004 0.9642692009944045 -7.552222295000066e-16
  outer loop
    vertex -11.406910147208864 35.496217795406274 -2.5006495995169282
    vertex -12.06918780737717 35.67817266283049 27.49935040048302
    vertex -11.406910147208851 35.49621779540628 27.499350400483063
  endloop
endfacet
facet normal -0.6288943535912865 -0.7774907665181612 7.669432715795215e-16
  outer loop
    vertex -13.759485683226549 35.081244172220806 -2.2722881970507864
    vertex -13.908099401953509 35.20145438255189 27.16987539233964
    vertex -13.90809940195356 35.20145438255188 -2.171174591373571
  endloop
endfacet
facet normal -0.6288943535912865 -0.7774907665181612 7.669432715795215e-16
  outer loop
    vertex -13.908099401953509 35.20145438255189 27.16987539233964
    vertex -13.759485683226549 35.081244172220806 -2.2722881970507864
    vertex -13.759485683226526 35.08124417222082 27.27098899801684
  endloop
endfacet
facet normal -0.6288943535912865 -0.7774907665181612 7.669432715795215e-16
  outer loop
    vertex -13.759485683226526 35.08124417222082 27.27098899801684
    vertex -13.759485683226549 35.081244172220806 -2.2722881970507864
    vertex -13.455605654108899 34.835442623557945 -2.3896252966403377
  endloop
endfacet
facet normal -0.6288943535912865 -0.7774907665181612 7.669432715795215e-16
  outer loop
    vertex -13.759485683226526 35.08124417222082 27.27098899801684
    vertex -13.455605654108899 34.835442623557945 -2.3896252966403377
    vertex -13.455605654108894 34.83544262355795 27.388326097606434
  endloop
endfacet
facet normal 0.6625008044689258 0.39375393984424967 0.6372209341626789
  outer loop
    vertex -4.171552858498193 36.6693163174048 26.1660610995419
    vertex -3.98900922523456 35.62647700918495 26.620670744042716
    vertex -3.6606360875824775 35.809686133432 26.166061099541853
  endloop
endfacet
facet normal 0.6625008044689258 0.39375393984424967 0.6372209341626789
  outer loop
    vertex -3.98900922523456 35.62647700918495 26.620670744042716
    vertex -4.171552858498193 36.6693163174048 26.1660610995419
    vertex -4.505035198734685 36.49470355367596 26.620670744042684
  endloop
endfacet
facet normal 0.4052268636018886 0.24084449859932672 0.8819212643483633
  outer loop
    vertex -5.118694395308692 36.173227882151274 27.12052263457863
    vertex -4.375129285678256 35.386341642936976 26.993759237390694
    vertex -4.908307944235988 36.283428006974106 26.99375923739074
  endloop
endfacet
facet normal 0.4052268636018886 0.24084449859932672 0.8819212643483633
  outer loop
    vertex -4.375129285678256 35.386341642936976 26.993759237390694
    vertex -5.118694395308692 36.173227882151274 27.12052263457863
    vertex -5.384022170977333 36.06867268877472 27.270988998016907
  endloop
endfacet
facet normal 0.4052268636018886 0.24084449859932672 0.8819212643483633
  outer loop
    vertex -4.375129285678256 35.386341642936976 26.993759237390694
    vertex -5.384022170977333 36.06867268877472 27.270988998016907
    vertex -4.6485354007989725 35.20145438255189 27.16987539233972
  endloop
endfacet
facet normal 0.4052268636018886 0.24084449859932672 0.8819212643483633
  outer loop
    vertex -4.6485354007989725 35.20145438255189 27.16987539233972
    vertex -5.384022170977333 36.06867268877472 27.270988998016907
    vertex -4.7971491195259786 35.08124417222082 27.27098899801695
  endloop
endfacet
facet normal -6.015133933319417e-32 1.0 -2.5942211342074494e-16
  outer loop
    vertex -10.90331740137626 32.51704646662905 27.499350400483063
    vertex -7.6533174013762615 32.51704646662904 -2.500649599516933
    vertex -10.903317401376272 32.51704646662904 -2.5006495995169273
  endloop
endfacet
facet normal -6.015133933319417e-32 1.0 -2.5942211342074494e-16
  outer loop
    vertex -7.6533174013762615 32.51704646662904 -2.500649599516933
    vertex -10.90331740137626 32.51704646662905 27.499350400483063
    vertex -7.653317401376249 32.51704646662905 27.499350400483053
  endloop
endfacet
facet normal -0.36662204544226346 0.9303699671613068 6.75348986148644e-17
  outer loop
    vertex -6.116039741207908 35.780213486123905 27.46276997880306
    vertex -5.914464517999342 35.85964631741865 -2.443005440726622
    vertex -6.116039741207938 35.780213486123905 -2.4640691778369583
  endloop
endfacet
facet normal -0.36662204544226346 0.9303699671613068 6.75348986148644e-17
  outer loop
    vertex -5.914464517999342 35.85964631741865 -2.443005440726622
    vertex -6.116039741207908 35.780213486123905 27.46276997880306
    vertex -5.914464517999273 35.85964631741865 27.441706241692735
  endloop
endfacet
facet normal -0.36662204544226346 0.9303699671613068 6.75348986148644e-17
  outer loop
    vertex -5.914464517999342 35.85964631741865 -2.443005440726622
    vertex -5.914464517999273 35.85964631741865 27.441706241692735
    vertex -5.384022170977368 36.06867268877471 -2.272288197050792
  endloop
endfacet
facet normal -0.36662204544226346 0.9303699671613068 6.75348986148644e-17
  outer loop
    vertex -5.384022170977368 36.06867268877471 -2.272288197050792
    vertex -5.914464517999273 35.85964631741865 27.441706241692735
    vertex -5.384022170977333 36.06867268877472 27.270988998016907
  endloop
endfacet
facet normal -0.36662204544226346 0.9303699671613068 6.75348986148644e-17
  outer loop
    vertex -5.384022170977368 36.06867268877471 -2.272288197050792
    vertex -5.384022170977333 36.06867268877472 27.270988998016907
    vertex -5.118694395308659 36.17322788215127 -2.121821833612485
  endloop
endfacet
facet normal -0.36662204544226346 0.9303699671613068 6.75348986148644e-17
  outer loop
    vertex -5.118694395308659 36.17322788215127 -2.121821833612485
    vertex -5.384022170977333 36.06867268877472 27.270988998016907
    vertex -5.118694395308692 36.173227882151274 27.12052263457863
  endloop
endfacet
facet normal 0.6288943535912811 -0.7774907665181658 -4.58070024338554e-16
  outer loop
    vertex -4.797149119526019 35.081244172220806 -2.272288197050792
    vertex -5.1010291486436286 34.83544262355795 27.388326097606456
    vertex -5.101029148643646 34.835442623557945 -2.3896252966403435
  endloop
endfacet
facet normal 0.6288943535912811 -0.7774907665181658 -4.58070024338554e-16
  outer loop
    vertex -5.1010291486436286 34.83544262355795 27.388326097606456
    vertex -4.797149119526019 35.081244172220806 -2.272288197050792
    vertex -4.7971491195259786 35.08124417222082 27.27098899801695
  endloop
endfacet
facet normal 0.6288943535912811 -0.7774907665181658 -4.58070024338554e-16
  outer loop
    vertex -4.7971491195259786 35.08124417222082 27.27098899801695
    vertex -4.797149119526019 35.081244172220806 -2.272288197050792
    vertex -4.648535400799008 35.20145438255188 -2.171174591373577
  endloop
endfacet
facet normal 0.6288943535912811 -0.7774907665181658 -4.58070024338554e-16
  outer loop
    vertex -4.7971491195259786 35.08124417222082 27.27098899801695
    vertex -4.648535400799008 35.20145438255188 -2.171174591373577
    vertex -4.6485354007989725 35.20145438255189 27.16987539233972
  endloop
endfacet
endsolid VV's Vr Gloves
