solid VV's Vr Gloves
facet normal -0.08425849237399043 0.05007860083157062 -0.9951847266721965
  outer loop
    vertex -38.44059506154463 35.780213486123905 -2.4640691778369535
    vertex -39.32533101409675 34.710211386175324 -2.4430054407266173
    vertex -38.642170284753234 35.85964631741865 -2.4430054407266173
  endloop
endfacet
facet normal -0.08425849237399043 0.05007860083157062 -0.9951847266721965
  outer loop
    vertex -39.32533101409675 34.710211386175324 -2.4430054407266173
    vertex -38.44059506154463 35.780213486123905 -2.4640691778369535
    vertex -38.06918780737722 35.678172662830484 -2.5006495995169287
  endloop
endfacet
facet normal -0.08425849237399043 0.05007860083157062 -0.9951847266721965
  outer loop
    vertex -39.32533101409675 34.710211386175324 -2.4430054407266173
    vertex -38.06918780737722 35.678172662830484 -2.5006495995169287
    vertex -39.03603342173128 34.4321135502468 -2.481493299785516
  endloop
endfacet
facet normal -0.08425849237399043 0.05007860083157062 -0.9951847266721965
  outer loop
    vertex -39.03603342173128 34.4321135502468 -2.481493299785516
    vertex -38.06918780737722 35.678172662830484 -2.5006495995169287
    vertex -38.90121171869573 34.278271722654644 -2.5006495995169282
  endloop
endfacet
facet normal 0.7599074192587347 0.45154284436233916 -0.4676000148211053
  outer loop
    vertex -29.985220965810747 36.735786592938936 -0.8002463918664686
    vertex -29.660636087582496 35.809686133431995 -1.1673602985757399
    vertex -30.171552858498178 36.669316317404785 -1.1673602985757399
  endloop
endfacet
facet normal 0.7599074192587347 0.45154284436233916 -0.4676000148211053
  outer loop
    vertex -29.660636087582496 35.809686133431995 -1.1673602985757399
    vertex -29.985220965810747 36.735786592938936 -0.8002463918664686
    vertex -29.513195418344903 35.94159186043757 -0.7997239904654379
  endloop
endfacet
facet normal 0.7599074192587347 0.45154284436233916 -0.4676000148211053
  outer loop
    vertex -29.513195418344903 35.94159186043757 -0.7997239904654379
    vertex -29.985220965810747 36.735786592938936 -0.8002463918664686
    vertex -29.888783298709868 36.7306901695904 -0.6486998966122016
  endloop
endfacet
facet normal 0.7599074192587347 0.45154284436233916 -0.4676000148211053
  outer loop
    vertex -29.513195418344903 35.94159186043757 -0.7997239904654379
    vertex -29.888783298709868 36.7306901695904 -0.6486998966122016
    vertex -29.471581839668787 36.02873833045535 -0.6486998966122016
  endloop
endfacet
facet normal 0.5453436155766992 0.32412216823552575 -0.7730104533627181
  outer loop
    vertex -29.98900922523456 35.62647700918495 -1.6219699430765764
    vertex -30.90830794423599 36.2834280069741 -1.995058436424571
    vertex -30.505035198734717 36.49470355367595 -1.6219699430765768
  endloop
endfacet
facet normal 0.5453436155766992 0.32412216823552575 -0.7730104533627181
  outer loop
    vertex -30.90830794423599 36.2834280069741 -1.995058436424571
    vertex -29.98900922523456 35.62647700918495 -1.6219699430765764
    vertex -30.166428401175143 35.527472849013634 -1.7886479710109082
  endloop
endfacet
facet normal 0.5453436155766992 0.32412216823552575 -0.7730104533627181
  outer loop
    vertex -30.90830794423599 36.2834280069741 -1.995058436424571
    vertex -30.166428401175143 35.527472849013634 -1.7886479710109082
    vertex -30.375129285678174 35.38634164293697 -1.9950584364245705
  endloop
endfacet
facet normal -0.6625008044689337 0.3937539398442472 -0.6372209341626724
  outer loop
    vertex -40.89599871517 35.809686133431995 -1.167360298575734
    vertex -40.05159960401781 36.49470355367595 -1.621969943076571
    vertex -40.567625577517916 35.62647700918495 -1.6219699430765708
  endloop
endfacet
facet normal -0.6625008044689337 0.3937539398442472 -0.6372209341626724
  outer loop
    vertex -40.05159960401781 36.49470355367595 -1.621969943076571
    vertex -40.89599871517 35.809686133431995 -1.167360298575734
    vertex -40.3850819442543 36.669316317404785 -1.1673602985757343
  endloop
endfacet
facet normal -0.24953747051273018 0.14831130994915082 -0.9569403357322104
  outer loop
    vertex -38.642170284753234 35.85964631741865 -2.4430054407266173
    vertex -39.75948568322653 35.081244172220806 -2.2722881970507873
    vertex -39.17261263177518 36.06867268877471 -2.2722881970507873
  endloop
endfacet
facet normal -0.24953747051273018 0.14831130994915082 -0.9569403357322104
  outer loop
    vertex -39.75948568322653 35.081244172220806 -2.2722881970507873
    vertex -38.642170284753234 35.85964631741865 -2.4430054407266173
    vertex -39.45560565410888 34.835442623557945 -2.389625296640338
  endloop
endfacet
facet normal -0.24953747051273018 0.14831130994915082 -0.9569403357322104
  outer loop
    vertex -39.45560565410888 34.835442623557945 -2.389625296640338
    vertex -38.642170284753234 35.85964631741865 -2.4430054407266173
    vertex -39.32533101409675 34.710211386175324 -2.4430054407266173
  endloop
endfacet
facet normal -0.7599074192587485 0.451542844362336 -0.4676000148210859
  outer loop
    vertex -41.04343938440755 35.94159186043757 -0.7997239904654322
    vertex -40.3850819442543 36.669316317404785 -1.1673602985757343
    vertex -40.89599871517 35.809686133431995 -1.167360298575734
  endloop
endfacet
facet normal -0.7599074192587485 0.451542844362336 -0.4676000148210859
  outer loop
    vertex -40.3850819442543 36.669316317404785 -1.1673602985757343
    vertex -41.04343938440755 35.94159186043757 -0.7997239904654322
    vertex -40.57141383694179 36.735786592938936 -0.800246391866463
  endloop
endfacet
facet normal -0.7599074192587485 0.451542844362336 -0.4676000148210859
  outer loop
    vertex -40.57141383694179 36.735786592938936 -0.800246391866463
    vertex -41.04343938440755 35.94159186043757 -0.7997239904654322
    vertex -40.66785150404259 36.7306901695904 -0.648699896612196
  endloop
endfacet
facet normal -0.7599074192587485 0.451542844362336 -0.4676000148210859
  outer loop
    vertex -40.66785150404259 36.7306901695904 -0.648699896612196
    vertex -41.04343938440755 35.94159186043757 -0.7997239904654322
    vertex -41.08505296308369 36.02873833045535 -0.648699896612196
  endloop
endfacet
facet normal -0.4052268636018991 0.2408444985993308 -0.881921264348357
  outer loop
    vertex -39.43794040744383 36.17322788215127 -2.12182183361248
    vertex -40.18150551707426 35.38634164293697 -1.995058436424565
    vertex -39.648326858516526 36.2834280069741 -1.9950584364245652
  endloop
endfacet
facet normal -0.4052268636018991 0.2408444985993308 -0.881921264348357
  outer loop
    vertex -40.18150551707426 35.38634164293697 -1.995058436424565
    vertex -39.43794040744383 36.17322788215127 -2.12182183361248
    vertex -39.17261263177518 36.06867268877471 -2.2722881970507873
  endloop
endfacet
facet normal -0.4052268636018991 0.2408444985993308 -0.881921264348357
  outer loop
    vertex -40.18150551707426 35.38634164293697 -1.995058436424565
    vertex -39.17261263177518 36.06867268877471 -2.2722881970507873
    vertex -39.908099401953535 35.20145438255188 -2.171174591373572
  endloop
endfacet
facet normal -0.4052268636018991 0.2408444985993308 -0.881921264348357
  outer loop
    vertex -39.908099401953535 35.20145438255188 -2.171174591373572
    vertex -39.17261263177518 36.06867268877471 -2.2722881970507873
    vertex -39.75948568322653 35.081244172220806 -2.2722881970507873
  endloop
endfacet
facet normal -0.5453436155766942 0.32412216823549167 -0.773010453362736
  outer loop
    vertex -39.648326858516526 36.2834280069741 -1.9950584364245652
    vertex -40.567625577517916 35.62647700918495 -1.6219699430765708
    vertex -40.05159960401781 36.49470355367595 -1.621969943076571
  endloop
endfacet
facet normal -0.5453436155766942 0.32412216823549167 -0.773010453362736
  outer loop
    vertex -40.567625577517916 35.62647700918495 -1.6219699430765708
    vertex -39.648326858516526 36.2834280069741 -1.9950584364245652
    vertex -40.39020640157735 35.527472849013634 -1.7886479710109027
  endloop
endfacet
facet normal -0.5453436155766942 0.32412216823549167 -0.773010453362736
  outer loop
    vertex -40.39020640157735 35.527472849013634 -1.7886479710109027
    vertex -39.648326858516526 36.2834280069741 -1.9950584364245652
    vertex -40.18150551707426 35.38634164293697 -1.995058436424565
  endloop
endfacet
facet normal 0.405226863601868 0.24084449859931656 -0.8819212643483754
  outer loop
    vertex -30.375129285678174 35.38634164293697 -1.9950584364245705
    vertex -31.118694395308637 36.17322788215127 -2.1218218336124854
    vertex -30.90830794423599 36.2834280069741 -1.995058436424571
  endloop
endfacet
facet normal 0.405226863601868 0.24084449859931656 -0.8819212643483754
  outer loop
    vertex -31.118694395308637 36.17322788215127 -2.1218218336124854
    vertex -30.375129285678174 35.38634164293697 -1.9950584364245705
    vertex -31.384022170977346 36.06867268877471 -2.272288197050793
  endloop
endfacet
facet normal 0.405226863601868 0.24084449859931656 -0.8819212643483754
  outer loop
    vertex -31.384022170977346 36.06867268877471 -2.272288197050793
    vertex -30.375129285678174 35.38634164293697 -1.9950584364245705
    vertex -30.648535400798984 35.20145438255188 -2.1711745913735774
  endloop
endfacet
facet normal 0.405226863601868 0.24084449859931656 -0.8819212643483754
  outer loop
    vertex -31.384022170977346 36.06867268877471 -2.272288197050793
    vertex -30.648535400798984 35.20145438255188 -2.1711745913735774
    vertex -30.797149119525997 35.081244172220806 -2.272288197050793
  endloop
endfacet
facet normal 0.662500804468923 0.3937539398442496 -0.6372209341626819
  outer loop
    vertex -30.171552858498178 36.669316317404785 -1.1673602985757399
    vertex -29.98900922523456 35.62647700918495 -1.6219699430765764
    vertex -30.505035198734717 36.49470355367595 -1.6219699430765768
  endloop
endfacet
facet normal 0.662500804468923 0.3937539398442496 -0.6372209341626819
  outer loop
    vertex -29.98900922523456 35.62647700918495 -1.6219699430765764
    vertex -30.171552858498178 36.669316317404785 -1.1673602985757399
    vertex -29.660636087582496 35.809686133431995 -1.1673602985757399
  endloop
endfacet
facet normal 0.08507424156092745 0.05543250649966366 -0.9948314483599712
  outer loop
    vertex -31.231303788655786 34.710211386175324 -2.443005440726623
    vertex -32.11603974120791 35.780213486123905 -2.4640691778369592
    vertex -31.91446451799932 35.85964631741865 -2.443005440726623
  endloop
endfacet
facet normal 0.08507424156092745 0.05543250649966366 -0.9948314483599712
  outer loop
    vertex -32.11603974120791 35.780213486123905 -2.4640691778369592
    vertex -31.231303788655786 34.710211386175324 -2.443005440726623
    vertex -32.487446995375336 35.678172662830484 -2.5006495995169344
  endloop
endfacet
facet normal 0.08507424156092745 0.05543250649966366 -0.9948314483599712
  outer loop
    vertex -32.487446995375336 35.678172662830484 -2.5006495995169344
    vertex -31.231303788655786 34.710211386175324 -2.443005440726623
    vertex -31.520601381021205 34.4321135502468 -2.500649599516934
  endloop
endfacet
facet normal 0.08507424156092745 0.05543250649966366 -0.9948314483599712
  outer loop
    vertex -32.487446995375336 35.678172662830484 -2.5006495995169344
    vertex -31.520601381021205 34.4321135502468 -2.500649599516934
    vertex -31.65542308405676 34.278271722654644 -2.500649599516934
  endloop
endfacet
facet normal 0.24953747051272127 0.14831130994915076 -0.9569403357322126
  outer loop
    vertex -30.797149119525997 35.081244172220806 -2.272288197050793
    vertex -31.91446451799932 35.85964631741865 -2.443005440726623
    vertex -31.384022170977346 36.06867268877471 -2.272288197050793
  endloop
endfacet
facet normal 0.24953747051272127 0.14831130994915076 -0.9569403357322126
  outer loop
    vertex -31.91446451799932 35.85964631741865 -2.443005440726623
    vertex -30.797149119525997 35.081244172220806 -2.272288197050793
    vertex -31.101029148643626 34.835442623557945 -2.389625296640344
  endloop
endfacet
facet normal 0.24953747051272127 0.14831130994915076 -0.9569403357322126
  outer loop
    vertex -31.91446451799932 35.85964631741865 -2.443005440726623
    vertex -31.101029148643626 34.835442623557945 -2.389625296640344
    vertex -31.231303788655786 34.710211386175324 -2.443005440726623
  endloop
endfacet
facet normal -1.087665881106861e-15 -1.4206773123320473e-16 -1.0
  outer loop
    vertex -37.40691014720884 35.496217795406274 -2.5006495995169287
    vertex -38.90121171869573 34.278271722654644 -2.5006495995169282
    vertex -38.06918780737722 35.678172662830484 -2.5006495995169287
  endloop
endfacet
facet normal -1.087665881106861e-15 -1.4206773123320473e-16 -1.0
  outer loop
    vertex -38.90121171869573 34.278271722654644 -2.5006495995169282
    vertex -37.40691014720884 35.496217795406274 -2.5006495995169287
    vertex -36.34876433788743 35.32450436935262 -2.5006495995169287
  endloop
endfacet
facet normal -1.087665881106861e-15 -1.4206773123320473e-16 -1.0
  outer loop
    vertex -38.90121171869573 34.278271722654644 -2.5006495995169282
    vertex -36.34876433788743 35.32450436935262 -2.5006495995169287
    vertex -35.27831740137625 35.26704646662904 -2.5006495995169287
  endloop
endfacet
facet normal -1.087665881106861e-15 -1.4206773123320473e-16 -1.0
  outer loop
    vertex -38.90121171869573 34.278271722654644 -2.5006495995169282
    vertex -35.27831740137625 35.26704646662904 -2.5006495995169287
    vertex -31.65542308405676 34.278271722654644 -2.500649599516934
  endloop
endfacet
facet normal -1.087665881106861e-15 -1.4206773123320473e-16 -1.0
  outer loop
    vertex -38.90121171869573 34.278271722654644 -2.5006495995169282
    vertex -31.65542308405676 34.278271722654644 -2.500649599516934
    vertex -33.65331740137624 34.26704646662904 -2.500649599516934
  endloop
endfacet
facet normal -1.087665881106861e-15 -1.4206773123320473e-16 -1.0
  outer loop
    vertex -33.65331740137624 34.26704646662904 -2.500649599516934
    vertex -31.65542308405676 34.278271722654644 -2.500649599516934
    vertex -31.904184529401853 33.994415974472474 -2.500649599516934
  endloop
endfacet
facet normal -1.087665881106861e-15 -1.4206773123320473e-16 -1.0
  outer loop
    vertex -33.65331740137624 34.26704646662904 -2.500649599516934
    vertex -31.904184529401853 33.994415974472474 -2.500649599516934
    vertex -33.65331740137624 32.51704646662904 -2.5006495995169336
  endloop
endfacet
facet normal -1.087665881106861e-15 -1.4206773123320473e-16 -1.0
  outer loop
    vertex -33.65331740137624 32.51704646662904 -2.5006495995169336
    vertex -31.904184529401853 33.994415974472474 -2.500649599516934
    vertex -32.248974147962564 33.525549982430924 -2.500649599516934
  endloop
endfacet
facet normal -1.087665881106861e-15 -1.4206773123320473e-16 -1.0
  outer loop
    vertex -33.65331740137624 32.51704646662904 -2.5006495995169336
    vertex -32.248974147962564 33.525549982430924 -2.500649599516934
    vertex -32.55244941739808 33.02894353825065 -2.500649599516934
  endloop
endfacet
facet normal -1.087665881106861e-15 -1.4206773123320473e-16 -1.0
  outer loop
    vertex -33.65331740137624 32.51704646662904 -2.5006495995169336
    vertex -32.55244941739808 33.02894353825065 -2.500649599516934
    vertex -32.81239157508719 32.508227421526506 -2.5006495995169336
  endloop
endfacet
facet normal -1.087665881106861e-15 -1.4206773123320473e-16 -1.0
  outer loop
    vertex -33.65331740137624 32.51704646662904 -2.5006495995169336
    vertex -32.81239157508719 32.508227421526506 -2.5006495995169336
    vertex -36.90331740137625 32.51704646662904 -2.5006495995169282
  endloop
endfacet
facet normal -1.087665881106861e-15 -1.4206773123320473e-16 -1.0
  outer loop
    vertex -38.90121171869573 34.278271722654644 -2.5006495995169282
    vertex -36.90331740137625 34.26704646662904 -2.5006495995169282
    vertex -38.65245027335064 33.994415974472474 -2.5006495995169282
  endloop
endfacet
facet normal -1.087665881106861e-15 -1.4206773123320473e-16 -1.0
  outer loop
    vertex -36.90331740137625 34.26704646662904 -2.5006495995169282
    vertex -38.90121171869573 34.278271722654644 -2.5006495995169282
    vertex -33.65331740137624 34.26704646662904 -2.500649599516934
  endloop
endfacet
facet normal -1.087665881106861e-15 -1.4206773123320473e-16 -1.0
  outer loop
    vertex -38.65245027335064 33.994415974472474 -2.5006495995169282
    vertex -36.90331740137625 34.26704646662904 -2.5006495995169282
    vertex -36.90331740137625 32.51704646662904 -2.5006495995169282
  endloop
endfacet
facet normal -1.087665881106861e-15 -1.4206773123320473e-16 -1.0
  outer loop
    vertex -38.65245027335064 33.994415974472474 -2.5006495995169282
    vertex -36.90331740137625 32.51704646662904 -2.5006495995169282
    vertex -38.30766065478993 33.525549982430924 -2.5006495995169282
  endloop
endfacet
facet normal -1.087665881106861e-15 -1.4206773123320473e-16 -1.0
  outer loop
    vertex -38.30766065478993 33.525549982430924 -2.5006495995169282
    vertex -36.90331740137625 32.51704646662904 -2.5006495995169282
    vertex -38.00418538535441 33.02894353825065 -2.5006495995169282
  endloop
endfacet
facet normal -1.087665881106861e-15 -1.4206773123320473e-16 -1.0
  outer loop
    vertex -38.00418538535441 33.02894353825065 -2.5006495995169282
    vertex -36.90331740137625 32.51704646662904 -2.5006495995169282
    vertex -37.7442432276653 32.508227421526506 -2.5006495995169282
  endloop
endfacet
facet normal -1.087665881106861e-15 -1.4206773123320473e-16 -1.0
  outer loop
    vertex -37.7442432276653 32.508227421526506 -2.5006495995169282
    vertex -36.90331740137625 32.51704646662904 -2.5006495995169282
    vertex -32.81239157508719 32.508227421526506 -2.5006495995169336
  endloop
endfacet
facet normal -1.087665881106861e-15 -1.4206773123320473e-16 -1.0
  outer loop
    vertex -37.7442432276653 32.508227421526506 -2.5006495995169282
    vertex -32.81239157508719 32.508227421526506 -2.5006495995169336
    vertex -32.9122919975918 32.26704646662904 -2.5006495995169336
  endloop
endfacet
facet normal -1.087665881106861e-15 -1.4206773123320473e-16 -1.0
  outer loop
    vertex -37.7442432276653 32.508227421526506 -2.5006495995169282
    vertex -32.9122919975918 32.26704646662904 -2.5006495995169336
    vertex -37.64434280516069 32.26704646662904 -2.5006495995169282
  endloop
endfacet
facet normal -1.087665881106861e-15 -1.4206773123320473e-16 -1.0
  outer loop
    vertex -37.64434280516069 32.26704646662904 -2.5006495995169282
    vertex -32.9122919975918 32.26704646662904 -2.5006495995169336
    vertex -33.071210620189696 32.059939685442494 -2.5006495995169336
  endloop
endfacet
facet normal -1.087665881106861e-15 -1.4206773123320473e-16 -1.0
  outer loop
    vertex -37.64434280516069 32.26704646662904 -2.5006495995169282
    vertex -33.071210620189696 32.059939685442494 -2.5006495995169336
    vertex -37.485424182562795 32.059939685442494 -2.5006495995169282
  endloop
endfacet
facet normal -1.087665881106861e-15 -1.4206773123320473e-16 -1.0
  outer loop
    vertex -37.485424182562795 32.059939685442494 -2.5006495995169282
    vertex -33.071210620189696 32.059939685442494 -2.5006495995169336
    vertex -33.27831740137624 31.9010210628446 -2.5006495995169336
  endloop
endfacet
facet normal -1.087665881106861e-15 -1.4206773123320473e-16 -1.0
  outer loop
    vertex -37.485424182562795 32.059939685442494 -2.5006495995169282
    vertex -33.27831740137624 31.9010210628446 -2.5006495995169336
    vertex -37.27831740137625 31.9010210628446 -2.5006495995169282
  endloop
endfacet
facet normal -1.087665881106861e-15 -1.4206773123320473e-16 -1.0
  outer loop
    vertex -37.27831740137625 31.9010210628446 -2.5006495995169282
    vertex -33.27831740137624 31.9010210628446 -2.5006495995169336
    vertex -33.51949835627372 31.801120640339974 -2.5006495995169336
  endloop
endfacet
facet normal -1.087665881106861e-15 -1.4206773123320473e-16 -1.0
  outer loop
    vertex -37.27831740137625 31.9010210628446 -2.5006495995169282
    vertex -33.51949835627372 31.801120640339974 -2.5006495995169336
    vertex -37.03713644647877 31.801120640339974 -2.5006495995169282
  endloop
endfacet
facet normal -1.087665881106861e-15 -1.4206773123320473e-16 -1.0
  outer loop
    vertex -37.03713644647877 31.801120640339974 -2.5006495995169282
    vertex -33.51949835627372 31.801120640339974 -2.5006495995169336
    vertex -33.77831740137624 31.76704646662904 -2.5006495995169336
  endloop
endfacet
facet normal -1.087665881106861e-15 -1.4206773123320473e-16 -1.0
  outer loop
    vertex -37.03713644647877 31.801120640339974 -2.5006495995169282
    vertex -33.77831740137624 31.76704646662904 -2.5006495995169336
    vertex -36.77831740137625 31.76704646662904 -2.5006495995169282
  endloop
endfacet
facet normal -1.087665881106861e-15 -1.4206773123320473e-16 -1.0
  outer loop
    vertex -31.65542308405676 34.278271722654644 -2.500649599516934
    vertex -33.14972465554365 35.496217795406274 -2.5006495995169344
    vertex -32.487446995375336 35.678172662830484 -2.5006495995169344
  endloop
endfacet
facet normal -1.087665881106861e-15 -1.4206773123320473e-16 -1.0
  outer loop
    vertex -33.14972465554365 35.496217795406274 -2.5006495995169344
    vertex -31.65542308405676 34.278271722654644 -2.500649599516934
    vertex -34.20787046486506 35.32450436935262 -2.5006495995169344
  endloop
endfacet
facet normal -1.087665881106861e-15 -1.4206773123320473e-16 -1.0
  outer loop
    vertex -34.20787046486506 35.32450436935262 -2.5006495995169344
    vertex -31.65542308405676 34.278271722654644 -2.500649599516934
    vertex -35.27831740137625 35.26704646662904 -2.5006495995169287
  endloop
endfacet
facet normal -0.6087614290087265 -0.7933533402912306 4.726016467260818e-16
  outer loop
    vertex -37.27831740137625 31.9010210628446 -2.5006495995169282
    vertex -37.485424182562774 32.0599396854425 37.49935040048306
    vertex -37.485424182562795 32.059939685442494 -2.5006495995169282
  endloop
endfacet
facet normal -0.6087614290087265 -0.7933533402912306 4.726016467260818e-16
  outer loop
    vertex -37.485424182562774 32.0599396854425 37.49935040048306
    vertex -37.27831740137625 31.9010210628446 -2.5006495995169282
    vertex -37.278317401376235 31.901021062844613 37.49935040048306
  endloop
endfacet
facet normal -0.4639936212670888 0.8858385402676118 -3.816273649427172e-17
  outer loop
    vertex -30.90830794423596 36.28342800697411 36.99375923739074
    vertex -31.118694395308637 36.17322788215127 -2.1218218336124854
    vertex -31.118694395308665 36.17322788215128 37.12052263457863
  endloop
endfacet
facet normal -0.4639936212670888 0.8858385402676118 -3.816273649427172e-17
  outer loop
    vertex -31.118694395308637 36.17322788215127 -2.1218218336124854
    vertex -30.90830794423596 36.28342800697411 36.99375923739074
    vertex -30.90830794423599 36.2834280069741 -1.995058436424571
  endloop
endfacet
facet normal -0.4639936212670888 0.8858385402676118 -3.816273649427172e-17
  outer loop
    vertex -30.90830794423599 36.2834280069741 -1.995058436424571
    vertex -30.90830794423596 36.28342800697411 36.99375923739074
    vertex -30.505035198734717 36.49470355367595 -1.6219699430765768
  endloop
endfacet
facet normal -0.4639936212670888 0.8858385402676118 -3.816273649427172e-17
  outer loop
    vertex -30.505035198734717 36.49470355367595 -1.6219699430765768
    vertex -30.90830794423596 36.28342800697411 36.99375923739074
    vertex -30.50503519873466 36.49470355367596 36.620670744042684
  endloop
endfacet
facet normal -0.4639936212670888 0.8858385402676118 -3.816273649427172e-17
  outer loop
    vertex -30.505035198734717 36.49470355367595 -1.6219699430765768
    vertex -30.50503519873466 36.49470355367596 36.620670744042684
    vertex -30.171552858498178 36.669316317404785 -1.1673602985757399
  endloop
endfacet
facet normal -0.4639936212670888 0.8858385402676118 -3.816273649427172e-17
  outer loop
    vertex -30.171552858498178 36.669316317404785 -1.1673602985757399
    vertex -30.50503519873466 36.49470355367596 36.620670744042684
    vertex -30.171552858498167 36.6693163174048 36.1660610995419
  endloop
endfacet
facet normal -0.8532867620441448 -0.521441944726562 5.024236523176341e-16
  outer loop
    vertex -38.0041853853544 33.02894353825066 37.49935040048306
    vertex -38.30766065478993 33.525549982430924 -2.5006495995169282
    vertex -38.00418538535441 33.02894353825065 -2.5006495995169282
  endloop
endfacet
facet normal -0.8532867620441448 -0.521441944726562 5.024236523176341e-16
  outer loop
    vertex -38.30766065478993 33.525549982430924 -2.5006495995169282
    vertex -38.0041853853544 33.02894353825066 37.49935040048306
    vertex -38.30766065478991 33.52554998243094 37.49935040048306
  endloop
endfacet
facet normal -0.13052619222005357 -0.9914448613738103 3.241195194350166e-16
  outer loop
    vertex -36.77831740137625 31.76704646662904 -2.5006495995169282
    vertex -37.03713644647875 31.801120640339985 37.49935040048306
    vertex -37.03713644647877 31.801120640339974 -2.5006495995169282
  endloop
endfacet
facet normal -0.13052619222005357 -0.9914448613738103 3.241195194350166e-16
  outer loop
    vertex -37.03713644647875 31.801120640339985 37.49935040048306
    vertex -36.77831740137625 31.76704646662904 -2.5006495995169282
    vertex -36.778317401376235 31.767046466629054 37.49935040048306
  endloop
endfacet
facet normal -0.805622135737949 -0.5924297210716439 5.01623800405426e-16
  outer loop
    vertex -38.30766065478991 33.52554998243094 37.49935040048306
    vertex -38.65245027335064 33.994415974472474 -2.5006495995169282
    vertex -38.30766065478993 33.525549982430924 -2.5006495995169282
  endloop
endfacet
facet normal -0.805622135737949 -0.5924297210716439 5.01623800405426e-16
  outer loop
    vertex -38.65245027335064 33.994415974472474 -2.5006495995169282
    vertex -38.30766065478991 33.52554998243094 37.49935040048306
    vertex -38.652450273350624 33.99441597447248 37.49935040048306
  endloop
endfacet
facet normal -0.7520674601867804 -0.6590861365012967 4.904835188786832e-16
  outer loop
    vertex -38.652450273350624 33.99441597447248 37.49935040048306
    vertex -38.90121171869573 34.278271722654644 -2.5006495995169282
    vertex -38.65245027335064 33.994415974472474 -2.5006495995169282
  endloop
endfacet
facet normal -0.7520674601867804 -0.6590861365012967 4.904835188786832e-16
  outer loop
    vertex -38.90121171869573 34.278271722654644 -2.5006495995169282
    vertex -38.652450273350624 33.99441597447248 37.49935040048306
    vertex -39.03603342173128 34.4321135502468 -2.481493299785516
  endloop
endfacet
facet normal -0.7520674601867804 -0.6590861365012967 4.904835188786832e-16
  outer loop
    vertex -39.03603342173128 34.4321135502468 -2.481493299785516
    vertex -38.652450273350624 33.99441597447248 37.49935040048306
    vertex -39.03603342173127 34.432113550246804 37.480194100751596
  endloop
endfacet
facet normal -0.7520674601867804 -0.6590861365012967 4.904835188786832e-16
  outer loop
    vertex -39.03603342173127 34.432113550246804 37.480194100751596
    vertex -38.652450273350624 33.99441597447248 37.49935040048306
    vertex -38.901211718695706 34.27827172265466 37.49935040048303
  endloop
endfacet
facet normal 0.7933533402912268 -0.6087614290087314 -1.706872823734107e-16
  outer loop
    vertex -32.91229199759178 32.267046466629054 37.49935040048305
    vertex -33.071210620189696 32.059939685442494 -2.5006495995169336
    vertex -32.9122919975918 32.26704646662904 -2.5006495995169336
  endloop
endfacet
facet normal 0.7933533402912268 -0.6087614290087314 -1.706872823734107e-16
  outer loop
    vertex -33.071210620189696 32.059939685442494 -2.5006495995169336
    vertex -32.91229199759178 32.267046466629054 37.49935040048305
    vertex -33.07121062018968 32.0599396854425 37.49935040048305
  endloop
endfacet
facet normal -0.9999510562471969 -0.009893690419418245 1.1196249852870633e-15
  outer loop
    vertex -41.127505018859054 36.11764072538312 35.38512252814868
    vertex -41.12938308747006 36.30745631609085 -0.08592056556531566
    vertex -41.12750501885911 36.11764072538311 -0.3864217271825923
  endloop
endfacet
facet normal -0.9999510562471969 -0.009893690419418245 1.1196249852870633e-15
  outer loop
    vertex -41.12938308747006 36.30745631609085 -0.08592056556531566
    vertex -41.127505018859054 36.11764072538312 35.38512252814868
    vertex -41.12938308747004 36.30745631609086 35.084621366531366
  endloop
endfacet
facet normal 0.6087614290087267 -0.7933533402912306 -4.231974015079058e-17
  outer loop
    vertex -33.071210620189696 32.059939685442494 -2.5006495995169336
    vertex -33.27831740137622 31.901021062844613 37.49935040048305
    vertex -33.27831740137624 31.9010210628446 -2.5006495995169336
  endloop
endfacet
facet normal 0.6087614290087267 -0.7933533402912306 -4.231974015079058e-17
  outer loop
    vertex -33.27831740137622 31.901021062844613 37.49935040048305
    vertex -33.071210620189696 32.059939685442494 -2.5006495995169336
    vertex -33.07121062018968 32.0599396854425 37.49935040048305
  endloop
endfacet
facet normal 0.8947128543955145 -0.4466418119471472 -2.5701243440048254e-16
  outer loop
    vertex -32.552449417398066 33.02894353825066 37.49935040048305
    vertex -32.81239157508719 32.508227421526506 -2.5006495995169336
    vertex -32.55244941739808 33.02894353825065 -2.500649599516934
  endloop
endfacet
facet normal 0.8947128543955145 -0.4466418119471472 -2.5701243440048254e-16
  outer loop
    vertex -32.81239157508719 32.508227421526506 -2.5006495995169336
    vertex -32.552449417398066 33.02894353825066 37.49935040048305
    vertex -32.812391575087176 32.50822742152652 37.49935040048305
  endloop
endfacet
facet normal 0.9238795325113066 -0.3826834323650421 -2.870783792201825e-16
  outer loop
    vertex -32.812391575087176 32.50822742152652 37.49935040048305
    vertex -32.9122919975918 32.26704646662904 -2.5006495995169336
    vertex -32.81239157508719 32.508227421526506 -2.5006495995169336
  endloop
endfacet
facet normal 0.9238795325113066 -0.3826834323650421 -2.870783792201825e-16
  outer loop
    vertex -32.9122919975918 32.26704646662904 -2.5006495995169336
    vertex -32.812391575087176 32.50822742152652 37.49935040048305
    vertex -32.91229199759178 32.267046466629054 37.49935040048305
  endloop
endfacet
facet normal 0.3826834323650829 -0.9238795325112895 8.871891302521507e-17
  outer loop
    vertex -33.27831740137624 31.9010210628446 -2.5006495995169336
    vertex -33.51949835627371 31.801120640339985 37.49935040048305
    vertex -33.51949835627372 31.801120640339974 -2.5006495995169336
  endloop
endfacet
facet normal 0.3826834323650829 -0.9238795325112895 8.871891302521507e-17
  outer loop
    vertex -33.51949835627371 31.801120640339985 37.49935040048305
    vertex -33.27831740137624 31.9010210628446 -2.5006495995169336
    vertex -33.27831740137622 31.901021062844613 37.49935040048305
  endloop
endfacet
facet normal 0.1305261922200536 -0.9914448613738103 2.1369100040435575e-16
  outer loop
    vertex -33.51949835627372 31.801120640339974 -2.5006495995169336
    vertex -33.77831740137622 31.767046466629054 37.49935040048305
    vertex -33.77831740137624 31.76704646662904 -2.5006495995169336
  endloop
endfacet
facet normal 0.1305261922200536 -0.9914448613738103 2.1369100040435575e-16
  outer loop
    vertex -33.77831740137622 31.767046466629054 37.49935040048305
    vertex -33.51949835627372 31.801120640339974 -2.5006495995169336
    vertex -33.51949835627371 31.801120640339985 37.49935040048305
  endloop
endfacet
facet normal 0.7520674601867795 -0.6590861365012974 -1.298712390289998e-16
  outer loop
    vertex -31.520601381021187 34.432113550246804 37.48019410075174
    vertex -31.65542308405676 34.278271722654644 -2.500649599516934
    vertex -31.520601381021205 34.4321135502468 -2.500649599516934
  endloop
endfacet
facet normal 0.7520674601867795 -0.6590861365012974 -1.298712390289998e-16
  outer loop
    vertex -31.65542308405676 34.278271722654644 -2.500649599516934
    vertex -31.520601381021187 34.432113550246804 37.48019410075174
    vertex -31.904184529401853 33.994415974472474 -2.500649599516934
  endloop
endfacet
facet normal 0.7520674601867795 -0.6590861365012974 -1.298712390289998e-16
  outer loop
    vertex -31.904184529401853 33.994415974472474 -2.500649599516934
    vertex -31.520601381021187 34.432113550246804 37.48019410075174
    vertex -31.904184529401835 33.99441597447248 37.49935040048305
  endloop
endfacet
facet normal 0.7520674601867795 -0.6590861365012974 -1.298712390289998e-16
  outer loop
    vertex -31.904184529401835 33.99441597447248 37.49935040048305
    vertex -31.520601381021187 34.432113550246804 37.48019410075174
    vertex -31.655423084056732 34.27827172265467 37.49935040048311
  endloop
endfacet
facet normal -0.9238795325113066 -0.3826834323650421 4.946144108963183e-16
  outer loop
    vertex -37.644342805160676 32.267046466629054 37.49935040048306
    vertex -37.7442432276653 32.508227421526506 -2.5006495995169282
    vertex -37.64434280516069 32.26704646662904 -2.5006495995169282
  endloop
endfacet
facet normal -0.9238795325113066 -0.3826834323650421 4.946144108963183e-16
  outer loop
    vertex -37.7442432276653 32.508227421526506 -2.5006495995169282
    vertex -37.644342805160676 32.267046466629054 37.49935040048306
    vertex -37.74424322766529 32.50822742152652 37.49935040048306
  endloop
endfacet
facet normal 0.805622135737949 -0.5924297210716439 -1.799532672675227e-16
  outer loop
    vertex -31.904184529401835 33.99441597447248 37.49935040048305
    vertex -32.248974147962564 33.525549982430924 -2.500649599516934
    vertex -31.904184529401853 33.994415974472474 -2.500649599516934
  endloop
endfacet
facet normal 0.805622135737949 -0.5924297210716439 -1.799532672675227e-16
  outer loop
    vertex -32.248974147962564 33.525549982430924 -2.500649599516934
    vertex -31.904184529401835 33.99441597447248 37.49935040048305
    vertex -32.24897414796255 33.52554998243094 37.49935040048305
  endloop
endfacet
facet normal -0.6930142833164651 -0.7209238538981536 6.51391577618315e-16
  outer loop
    vertex -39.32533101409675 34.710211386175324 -2.4430054407266173
    vertex -39.455605654108865 34.83544262355796 37.38832609760643
    vertex -39.45560565410888 34.835442623557945 -2.389625296640338
  endloop
endfacet
facet normal -0.6930142833164651 -0.7209238538981536 6.51391577618315e-16
  outer loop
    vertex -39.455605654108865 34.83544262355796 37.38832609760643
    vertex -39.32533101409675 34.710211386175324 -2.4430054407266173
    vertex -39.3253310140967 34.71021138617534 37.4417062416927
  endloop
endfacet
facet normal -0.6930142833164651 -0.7209238538981536 6.51391577618315e-16
  outer loop
    vertex -39.3253310140967 34.71021138617534 37.4417062416927
    vertex -39.32533101409675 34.710211386175324 -2.4430054407266173
    vertex -39.03603342173128 34.4321135502468 -2.481493299785516
  endloop
endfacet
facet normal -0.6930142833164651 -0.7209238538981536 6.51391577618315e-16
  outer loop
    vertex -39.3253310140967 34.71021138617534 37.4417062416927
    vertex -39.03603342173128 34.4321135502468 -2.481493299785516
    vertex -39.03603342173127 34.432113550246804 37.480194100751596
  endloop
endfacet
facet normal 0.8532867620441448 -0.521441944726562 -2.1966128645756288e-16
  outer loop
    vertex -32.24897414796255 33.52554998243094 37.49935040048305
    vertex -32.55244941739808 33.02894353825065 -2.500649599516934
    vertex -32.248974147962564 33.525549982430924 -2.500649599516934
  endloop
endfacet
facet normal 0.8532867620441448 -0.521441944726562 -2.1966128645756288e-16
  outer loop
    vertex -32.55244941739808 33.02894353825065 -2.500649599516934
    vertex -32.24897414796255 33.52554998243094 37.49935040048305
    vertex -32.552449417398066 33.02894353825066 37.49935040048305
  endloop
endfacet
facet normal -0.6667531082419518 -0.7452786677811839 2.0672621928987525e-16
  outer loop
    vertex -41.04343938440755 35.94159186043757 -0.7997239904654322
    vertex -40.89599871516998 35.80968613343201 36.166061099541785
    vertex -41.04343938440758 35.94159186043758 35.79842479143152
  endloop
endfacet
facet normal -0.6667531082419518 -0.7452786677811839 2.0672621928987525e-16
  outer loop
    vertex -40.89599871516998 35.80968613343201 36.166061099541785
    vertex -41.04343938440755 35.94159186043757 -0.7997239904654322
    vertex -40.89599871517 35.809686133431995 -1.167360298575734
  endloop
endfacet
facet normal 0.6930142833164747 -0.7209238538981443 -3.582204609208316e-16
  outer loop
    vertex -31.231303788655786 34.710211386175324 -2.443005440726623
    vertex -31.520601381021187 34.432113550246804 37.48019410075174
    vertex -31.520601381021205 34.4321135502468 -2.500649599516934
  endloop
endfacet
facet normal 0.6930142833164747 -0.7209238538981443 -3.582204609208316e-16
  outer loop
    vertex -31.520601381021187 34.432113550246804 37.48019410075174
    vertex -31.231303788655786 34.710211386175324 -2.443005440726623
    vertex -31.231303788655733 34.71021138617534 37.4417062416928
  endloop
endfacet
facet normal 0.6930142833164747 -0.7209238538981443 -3.582204609208316e-16
  outer loop
    vertex -31.231303788655733 34.71021138617534 37.4417062416928
    vertex -31.231303788655786 34.710211386175324 -2.443005440726623
    vertex -31.101029148643626 34.835442623557945 -2.389625296640344
  endloop
endfacet
facet normal 0.6930142833164747 -0.7209238538981443 -3.582204609208316e-16
  outer loop
    vertex -31.231303788655733 34.71021138617534 37.4417062416928
    vertex -31.101029148643626 34.835442623557945 -2.389625296640344
    vertex -31.1010291486436 34.83544262355796 37.38832609760646
  endloop
endfacet
facet normal -0.7933533402912268 -0.6087614290087314 5.006488029568989e-16
  outer loop
    vertex -37.485424182562774 32.0599396854425 37.49935040048306
    vertex -37.64434280516069 32.26704646662904 -2.5006495995169282
    vertex -37.485424182562795 32.059939685442494 -2.5006495995169282
  endloop
endfacet
facet normal -0.7933533402912268 -0.6087614290087314 5.006488029568989e-16
  outer loop
    vertex -37.64434280516069 32.26704646662904 -2.5006495995169282
    vertex -37.485424182562774 32.0599396854425 37.49935040048306
    vertex -37.644342805160676 32.267046466629054 37.49935040048306
  endloop
endfacet
facet normal 9.084296551132481e-32 -1.0 2.7117197376469447e-16
  outer loop
    vertex -33.77831740137624 31.76704646662904 -2.5006495995169336
    vertex -36.778317401376235 31.767046466629054 37.49935040048306
    vertex -36.77831740137625 31.76704646662904 -2.5006495995169282
  endloop
endfacet
facet normal 9.084296551132481e-32 -1.0 2.7117197376469447e-16
  outer loop
    vertex -36.778317401376235 31.767046466629054 37.49935040048306
    vertex -33.77831740137624 31.76704646662904 -2.5006495995169336
    vertex -33.77831740137622 31.767046466629054 37.49935040048305
  endloop
endfacet
facet normal -0.8947128543955147 -0.44664181194714714 4.999376749080187e-16
  outer loop
    vertex -37.74424322766529 32.50822742152652 37.49935040048306
    vertex -38.00418538535441 33.02894353825065 -2.5006495995169282
    vertex -37.7442432276653 32.508227421526506 -2.5006495995169282
  endloop
endfacet
facet normal -0.8947128543955147 -0.44664181194714714 4.999376749080187e-16
  outer loop
    vertex -38.00418538535441 33.02894353825065 -2.5006495995169282
    vertex -37.74424322766529 32.50822742152652 37.49935040048306
    vertex -38.0041853853544 33.02894353825066 37.49935040048306
  endloop
endfacet
facet normal -1.0301120245230633e-15 8.398093683130131e-18 1.0
  outer loop
    vertex -38.652450273350624 33.99441597447248 37.49935040048306
    vertex -36.903317401376235 34.26704646662905 37.49935040048306
    vertex -38.901211718695706 34.27827172265466 37.49935040048303
  endloop
endfacet
facet normal -1.0301120245230633e-15 8.398093683130131e-18 1.0
  outer loop
    vertex -36.903317401376235 34.26704646662905 37.49935040048306
    vertex -38.652450273350624 33.99441597447248 37.49935040048306
    vertex -36.903317401376235 32.517046466629054 37.49935040048306
  endloop
endfacet
facet normal -1.0301120245230633e-15 8.398093683130131e-18 1.0
  outer loop
    vertex -36.903317401376235 32.517046466629054 37.49935040048306
    vertex -38.652450273350624 33.99441597447248 37.49935040048306
    vertex -38.30766065478991 33.52554998243094 37.49935040048306
  endloop
endfacet
facet normal -1.0301120245230633e-15 8.398093683130131e-18 1.0
  outer loop
    vertex -36.903317401376235 32.517046466629054 37.49935040048306
    vertex -38.30766065478991 33.52554998243094 37.49935040048306
    vertex -38.0041853853544 33.02894353825066 37.49935040048306
  endloop
endfacet
facet normal -1.0301120245230633e-15 8.398093683130131e-18 1.0
  outer loop
    vertex -36.903317401376235 32.517046466629054 37.49935040048306
    vertex -38.0041853853544 33.02894353825066 37.49935040048306
    vertex -37.74424322766529 32.50822742152652 37.49935040048306
  endloop
endfacet
facet normal -1.0301120245230633e-15 8.398093683130131e-18 1.0
  outer loop
    vertex -36.903317401376235 32.517046466629054 37.49935040048306
    vertex -37.74424322766529 32.50822742152652 37.49935040048306
    vertex -33.65331740137622 32.517046466629054 37.49935040048305
  endloop
endfacet
facet normal -1.0301120245230633e-15 8.398093683130131e-18 1.0
  outer loop
    vertex -38.901211718695706 34.27827172265466 37.49935040048303
    vertex -37.406910147208826 35.49621779540628 37.49935040048306
    vertex -38.06918780737715 35.67817266283049 37.49935040048302
  endloop
endfacet
facet normal -1.0301120245230633e-15 8.398093683130131e-18 1.0
  outer loop
    vertex -37.406910147208826 35.49621779540628 37.49935040048306
    vertex -38.901211718695706 34.27827172265466 37.49935040048303
    vertex -36.34876433788741 35.324504369352624 37.49935040048306
  endloop
endfacet
facet normal -1.0301120245230633e-15 8.398093683130131e-18 1.0
  outer loop
    vertex -36.34876433788741 35.324504369352624 37.49935040048306
    vertex -38.901211718695706 34.27827172265466 37.49935040048303
    vertex -35.27831740137623 35.267046466629054 37.49935040048306
  endloop
endfacet
facet normal -1.0301120245230633e-15 8.398093683130131e-18 1.0
  outer loop
    vertex -35.27831740137623 35.267046466629054 37.49935040048306
    vertex -38.901211718695706 34.27827172265466 37.49935040048303
    vertex -31.655423084056732 34.27827172265467 37.49935040048311
  endloop
endfacet
facet normal -1.0301120245230633e-15 8.398093683130131e-18 1.0
  outer loop
    vertex -31.655423084056732 34.27827172265467 37.49935040048311
    vertex -38.901211718695706 34.27827172265466 37.49935040048303
    vertex -33.65331740137622 34.26704646662905 37.49935040048305
  endloop
endfacet
facet normal -1.0301120245230633e-15 8.398093683130131e-18 1.0
  outer loop
    vertex -31.655423084056732 34.27827172265467 37.49935040048311
    vertex -33.65331740137622 34.26704646662905 37.49935040048305
    vertex -31.904184529401835 33.99441597447248 37.49935040048305
  endloop
endfacet
facet normal -1.0301120245230633e-15 8.398093683130131e-18 1.0
  outer loop
    vertex -33.65331740137622 34.26704646662905 37.49935040048305
    vertex -38.901211718695706 34.27827172265466 37.49935040048303
    vertex -36.903317401376235 34.26704646662905 37.49935040048306
  endloop
endfacet
facet normal -1.0301120245230633e-15 8.398093683130131e-18 1.0
  outer loop
    vertex -31.904184529401835 33.99441597447248 37.49935040048305
    vertex -33.65331740137622 34.26704646662905 37.49935040048305
    vertex -33.65331740137622 32.517046466629054 37.49935040048305
  endloop
endfacet
facet normal -1.0301120245230633e-15 8.398093683130131e-18 1.0
  outer loop
    vertex -31.904184529401835 33.99441597447248 37.49935040048305
    vertex -33.65331740137622 32.517046466629054 37.49935040048305
    vertex -32.24897414796255 33.52554998243094 37.49935040048305
  endloop
endfacet
facet normal -1.0301120245230633e-15 8.398093683130131e-18 1.0
  outer loop
    vertex -32.24897414796255 33.52554998243094 37.49935040048305
    vertex -33.65331740137622 32.517046466629054 37.49935040048305
    vertex -32.552449417398066 33.02894353825066 37.49935040048305
  endloop
endfacet
facet normal -1.0301120245230633e-15 8.398093683130131e-18 1.0
  outer loop
    vertex -32.552449417398066 33.02894353825066 37.49935040048305
    vertex -33.65331740137622 32.517046466629054 37.49935040048305
    vertex -32.812391575087176 32.50822742152652 37.49935040048305
  endloop
endfacet
facet normal -1.0301120245230633e-15 8.398093683130131e-18 1.0
  outer loop
    vertex -32.812391575087176 32.50822742152652 37.49935040048305
    vertex -33.65331740137622 32.517046466629054 37.49935040048305
    vertex -37.74424322766529 32.50822742152652 37.49935040048306
  endloop
endfacet
facet normal -1.0301120245230633e-15 8.398093683130131e-18 1.0
  outer loop
    vertex -32.812391575087176 32.50822742152652 37.49935040048305
    vertex -37.74424322766529 32.50822742152652 37.49935040048306
    vertex -37.644342805160676 32.267046466629054 37.49935040048306
  endloop
endfacet
facet normal -1.0301120245230633e-15 8.398093683130131e-18 1.0
  outer loop
    vertex -32.812391575087176 32.50822742152652 37.49935040048305
    vertex -37.644342805160676 32.267046466629054 37.49935040048306
    vertex -32.91229199759178 32.267046466629054 37.49935040048305
  endloop
endfacet
facet normal -1.0301120245230633e-15 8.398093683130131e-18 1.0
  outer loop
    vertex -32.91229199759178 32.267046466629054 37.49935040048305
    vertex -37.644342805160676 32.267046466629054 37.49935040048306
    vertex -37.485424182562774 32.0599396854425 37.49935040048306
  endloop
endfacet
facet normal -1.0301120245230633e-15 8.398093683130131e-18 1.0
  outer loop
    vertex -32.91229199759178 32.267046466629054 37.49935040048305
    vertex -37.485424182562774 32.0599396854425 37.49935040048306
    vertex -33.07121062018968 32.0599396854425 37.49935040048305
  endloop
endfacet
facet normal -1.0301120245230633e-15 8.398093683130131e-18 1.0
  outer loop
    vertex -33.07121062018968 32.0599396854425 37.49935040048305
    vertex -37.485424182562774 32.0599396854425 37.49935040048306
    vertex -37.278317401376235 31.901021062844613 37.49935040048306
  endloop
endfacet
facet normal -1.0301120245230633e-15 8.398093683130131e-18 1.0
  outer loop
    vertex -33.07121062018968 32.0599396854425 37.49935040048305
    vertex -37.278317401376235 31.901021062844613 37.49935040048306
    vertex -33.27831740137622 31.901021062844613 37.49935040048305
  endloop
endfacet
facet normal -1.0301120245230633e-15 8.398093683130131e-18 1.0
  outer loop
    vertex -33.27831740137622 31.901021062844613 37.49935040048305
    vertex -37.278317401376235 31.901021062844613 37.49935040048306
    vertex -37.03713644647875 31.801120640339985 37.49935040048306
  endloop
endfacet
facet normal -1.0301120245230633e-15 8.398093683130131e-18 1.0
  outer loop
    vertex -33.27831740137622 31.901021062844613 37.49935040048305
    vertex -37.03713644647875 31.801120640339985 37.49935040048306
    vertex -33.51949835627371 31.801120640339985 37.49935040048305
  endloop
endfacet
facet normal -1.0301120245230633e-15 8.398093683130131e-18 1.0
  outer loop
    vertex -33.51949835627371 31.801120640339985 37.49935040048305
    vertex -37.03713644647875 31.801120640339985 37.49935040048306
    vertex -36.778317401376235 31.767046466629054 37.49935040048306
  endloop
endfacet
facet normal -1.0301120245230633e-15 8.398093683130131e-18 1.0
  outer loop
    vertex -33.51949835627371 31.801120640339985 37.49935040048305
    vertex -36.778317401376235 31.767046466629054 37.49935040048306
    vertex -33.77831740137622 31.767046466629054 37.49935040048305
  endloop
endfacet
facet normal -1.0301120245230633e-15 8.398093683130131e-18 1.0
  outer loop
    vertex -33.14972465554363 35.49621779540628 37.49935040048305
    vertex -31.655423084056732 34.27827172265467 37.49935040048311
    vertex -32.487446995375244 35.67817266283049 37.49935040048309
  endloop
endfacet
facet normal -1.0301120245230633e-15 8.398093683130131e-18 1.0
  outer loop
    vertex -31.655423084056732 34.27827172265467 37.49935040048311
    vertex -33.14972465554363 35.49621779540628 37.49935040048305
    vertex -34.207870464865046 35.324504369352624 37.49935040048305
  endloop
endfacet
facet normal -1.0301120245230633e-15 8.398093683130131e-18 1.0
  outer loop
    vertex -31.655423084056732 34.27827172265467 37.49935040048311
    vertex -34.207870464865046 35.324504369352624 37.49935040048305
    vertex -35.27831740137623 35.267046466629054 37.49935040048306
  endloop
endfacet
facet normal 0.7600968445497827 0.45161810796597257 0.4672192969716671
  outer loop
    vertex -29.98522096581067 36.73578659293895 35.798947192832586
    vertex -29.66063608758245 35.80968613343201 36.16606109954185
    vertex -29.513195418344914 35.94159186043758 35.798424791431586
  endloop
endfacet
facet normal 0.7600968445497827 0.45161810796597257 0.4672192969716671
  outer loop
    vertex -29.66063608758245 35.80968613343201 36.16606109954185
    vertex -29.98522096581067 36.73578659293895 35.798947192832586
    vertex -30.171552858498167 36.6693163174048 36.1660610995419
  endloop
endfacet
facet normal -0.4872456990252446 -0.8732649247401391 5.030519930205537e-16
  outer loop
    vertex -40.567625577517916 35.62647700918495 -1.6219699430765708
    vertex -40.89599871516998 35.80968613343201 36.166061099541785
    vertex -40.89599871517 35.809686133431995 -1.167360298575734
  endloop
endfacet
facet normal -0.4872456990252446 -0.8732649247401391 5.030519930205537e-16
  outer loop
    vertex -40.89599871516998 35.80968613343201 36.166061099541785
    vertex -40.567625577517916 35.62647700918495 -1.6219699430765708
    vertex -40.56762557751791 35.62647700918496 36.620670744042634
  endloop
endfacet
facet normal -0.4872456990252446 -0.8732649247401391 5.030519930205537e-16
  outer loop
    vertex -40.56762557751791 35.62647700918496 36.620670744042634
    vertex -40.567625577517916 35.62647700918495 -1.6219699430765708
    vertex -40.39020640157735 35.527472849013634 -1.7886479710109027
  endloop
endfacet
facet normal -0.4872456990252446 -0.8732649247401391 5.030519930205537e-16
  outer loop
    vertex -40.56762557751791 35.62647700918496 36.620670744042634
    vertex -40.39020640157735 35.527472849013634 -1.7886479710109027
    vertex -40.39020640157732 35.52747284901365 36.787348771976994
  endloop
endfacet
facet normal 0.5601764634225149 -0.8283733034251187 2.7675023946136337e-16
  outer loop
    vertex -30.375129285678174 35.38634164293697 -1.9950584364245705
    vertex -30.648535400798945 35.20145438255189 37.16987539233972
    vertex -30.648535400798984 35.20145438255188 -2.1711745913735774
  endloop
endfacet
facet normal 0.5601764634225149 -0.8283733034251187 2.7675023946136337e-16
  outer loop
    vertex -30.648535400798945 35.20145438255189 37.16987539233972
    vertex -30.375129285678174 35.38634164293697 -1.9950584364245705
    vertex -30.37512928567823 35.38634164293698 36.99375923739069
  endloop
endfacet
facet normal 0.5601764634225149 -0.8283733034251187 2.7675023946136337e-16
  outer loop
    vertex -30.37512928567823 35.38634164293698 36.99375923739069
    vertex -30.375129285678174 35.38634164293697 -1.9950584364245705
    vertex -30.166428401175136 35.52747284901365 36.78734877197706
  endloop
endfacet
facet normal 0.5601764634225149 -0.8283733034251187 2.7675023946136337e-16
  outer loop
    vertex -30.166428401175136 35.52747284901365 36.78734877197706
    vertex -30.375129285678174 35.38634164293697 -1.9950584364245705
    vertex -30.166428401175143 35.527472849013634 -1.7886479710109082
  endloop
endfacet
facet normal 1.0 1.4850974406124698e-31 -4.229949723821847e-16
  outer loop
    vertex -36.903317401376235 34.26704646662905 37.49935040048306
    vertex -36.90331740137625 32.51704646662904 -2.5006495995169282
    vertex -36.90331740137625 34.26704646662904 -2.5006495995169282
  endloop
endfacet
facet normal 1.0 1.4850974406124698e-31 -4.229949723821847e-16
  outer loop
    vertex -36.90331740137625 32.51704646662904 -2.5006495995169282
    vertex -36.903317401376235 34.26704646662905 37.49935040048306
    vertex -36.903317401376235 32.517046466629054 37.49935040048306
  endloop
endfacet
facet normal 0.5453436155766965 0.32412216823549317 0.7730104533627338
  outer loop
    vertex -30.90830794423596 36.28342800697411 36.99375923739074
    vertex -29.989009225234533 35.62647700918496 36.62067074404272
    vertex -30.50503519873466 36.49470355367596 36.620670744042684
  endloop
endfacet
facet normal 0.5453436155766965 0.32412216823549317 0.7730104533627338
  outer loop
    vertex -29.989009225234533 35.62647700918496 36.62067074404272
    vertex -30.90830794423596 36.28342800697411 36.99375923739074
    vertex -30.166428401175136 35.52747284901365 36.78734877197706
  endloop
endfacet
facet normal 0.5453436155766965 0.32412216823549317 0.7730104533627338
  outer loop
    vertex -30.166428401175136 35.52747284901365 36.78734877197706
    vertex -30.90830794423596 36.28342800697411 36.99375923739074
    vertex -30.37512928567823 35.38634164293698 36.99375923739069
  endloop
endfacet
facet normal -0.24953747051275108 0.14831130994915906 0.9569403357322036
  outer loop
    vertex -39.7594856832265 35.08124417222082 37.27098899801684
    vertex -38.64217028475314 35.85964631741865 37.441706241692714
    vertex -39.17261263177515 36.06867268877472 37.27098899801687
  endloop
endfacet
facet normal -0.24953747051275108 0.14831130994915906 0.9569403357322036
  outer loop
    vertex -38.64217028475314 35.85964631741865 37.441706241692714
    vertex -39.7594856832265 35.08124417222082 37.27098899801684
    vertex -39.455605654108865 34.83544262355796 37.38832609760643
  endloop
endfacet
facet normal -0.24953747051275108 0.14831130994915906 0.9569403357322036
  outer loop
    vertex -38.64217028475314 35.85964631741865 37.441706241692714
    vertex -39.455605654108865 34.83544262355796 37.38832609760643
    vertex -39.3253310140967 34.71021138617534 37.4417062416927
  endloop
endfacet
facet normal 0.3666220454422609 0.9303699671613077 -7.501783528531655e-16
  outer loop
    vertex -39.437940407443826 36.17322788215128 37.12052263457858
    vertex -39.17261263177518 36.06867268877471 -2.2722881970507873
    vertex -39.43794040744383 36.17322788215127 -2.12182183361248
  endloop
endfacet
facet normal 0.3666220454422609 0.9303699671613077 -7.501783528531655e-16
  outer loop
    vertex -39.17261263177518 36.06867268877471 -2.2722881970507873
    vertex -39.437940407443826 36.17322788215128 37.12052263457858
    vertex -39.17261263177515 36.06867268877472 37.27098899801687
  endloop
endfacet
facet normal 0.3666220454422609 0.9303699671613077 -7.501783528531655e-16
  outer loop
    vertex -39.17261263177518 36.06867268877471 -2.2722881970507873
    vertex -39.17261263177515 36.06867268877472 37.27098899801687
    vertex -38.642170284753234 35.85964631741865 -2.4430054407266173
  endloop
endfacet
facet normal 0.3666220454422609 0.9303699671613077 -7.501783528531655e-16
  outer loop
    vertex -38.642170284753234 35.85964631741865 -2.4430054407266173
    vertex -39.17261263177515 36.06867268877472 37.27098899801687
    vertex -38.64217028475314 35.85964631741865 37.441706241692714
  endloop
endfacet
facet normal 0.3666220454422609 0.9303699671613077 -7.501783528531655e-16
  outer loop
    vertex -38.642170284753234 35.85964631741865 -2.4430054407266173
    vertex -38.64217028475314 35.85964631741865 37.441706241692714
    vertex -38.44059506154463 35.780213486123905 -2.4640691778369535
  endloop
endfacet
facet normal 0.3666220454422609 0.9303699671613077 -7.501783528531655e-16
  outer loop
    vertex -38.44059506154463 35.780213486123905 -2.4640691778369535
    vertex -38.64217028475314 35.85964631741865 37.441706241692714
    vertex -38.440595061544535 35.78021348612391 37.462769978803045
  endloop
endfacet
facet normal 0.4052268636018884 0.24084449859932663 0.8819212643483633
  outer loop
    vertex -31.118694395308665 36.17322788215128 37.12052263457863
    vertex -30.37512928567823 35.38634164293698 36.99375923739069
    vertex -30.90830794423596 36.28342800697411 36.99375923739074
  endloop
endfacet
facet normal 0.4052268636018884 0.24084449859932663 0.8819212643483633
  outer loop
    vertex -30.37512928567823 35.38634164293698 36.99375923739069
    vertex -31.118694395308665 36.17322788215128 37.12052263457863
    vertex -31.384022170977307 36.06867268877472 37.270988998016904
  endloop
endfacet
facet normal 0.4052268636018884 0.24084449859932663 0.8819212643483633
  outer loop
    vertex -30.37512928567823 35.38634164293698 36.99375923739069
    vertex -31.384022170977307 36.06867268877472 37.270988998016904
    vertex -30.648535400798945 35.20145438255189 37.16987539233972
  endloop
endfacet
facet normal 0.4052268636018884 0.24084449859932663 0.8819212643483633
  outer loop
    vertex -30.648535400798945 35.20145438255189 37.16987539233972
    vertex -31.384022170977307 36.06867268877472 37.270988998016904
    vertex -30.79714911952595 35.08124417222082 37.270988998016946
  endloop
endfacet
facet normal -0.46921410746817166 0.8830844361400825 3.2194789279372656e-16
  outer loop
    vertex -40.93386370392311 36.636422545458196 35.08462136653139
    vertex -40.76623230552269 36.72549105778291 -0.3867154209347373
    vertex -40.93386370392315 36.63642254545819 -0.08592056556531566
  endloop
endfacet
facet normal -0.46921410746817166 0.8830844361400825 3.2194789279372656e-16
  outer loop
    vertex -40.76623230552269 36.72549105778291 -0.3867154209347373
    vertex -40.93386370392311 36.636422545458196 35.08462136653139
    vertex -40.76623230552265 36.72549105778292 35.385416221900805
  endloop
endfacet
facet normal 0.48724569902523857 -0.8732649247401425 -9.785995990341587e-17
  outer loop
    vertex -29.98900922523456 35.62647700918495 -1.6219699430765764
    vertex -30.166428401175136 35.52747284901365 36.78734877197706
    vertex -30.166428401175143 35.527472849013634 -1.7886479710109082
  endloop
endfacet
facet normal 0.48724569902523857 -0.8732649247401425 -9.785995990341587e-17
  outer loop
    vertex -30.166428401175136 35.52747284901365 36.78734877197706
    vertex -29.98900922523456 35.62647700918495 -1.6219699430765764
    vertex -29.989009225234533 35.62647700918496 36.62067074404272
  endloop
endfacet
facet normal 0.48724569902523857 -0.8732649247401425 -9.785995990341587e-17
  outer loop
    vertex -29.989009225234533 35.62647700918496 36.62067074404272
    vertex -29.98900922523456 35.62647700918495 -1.6219699430765764
    vertex -29.660636087582496 35.809686133431995 -1.1673602985757399
  endloop
endfacet
facet normal 0.48724569902523857 -0.8732649247401425 -9.785995990341587e-17
  outer loop
    vertex -29.989009225234533 35.62647700918496 36.62067074404272
    vertex -29.660636087582496 35.809686133431995 -1.1673602985757399
    vertex -29.66063608758245 35.80968613343201 36.16606109954185
  endloop
endfacet
facet normal -0.6288943535912864 -0.7774907665181612 7.168476022580496e-16
  outer loop
    vertex -39.75948568322653 35.081244172220806 -2.2722881970507873
    vertex -39.90809940195348 35.20145438255189 37.16987539233964
    vertex -39.908099401953535 35.20145438255188 -2.171174591373572
  endloop
endfacet
facet normal -0.6288943535912864 -0.7774907665181612 7.168476022580496e-16
  outer loop
    vertex -39.90809940195348 35.20145438255189 37.16987539233964
    vertex -39.75948568322653 35.081244172220806 -2.2722881970507873
    vertex -39.7594856832265 35.08124417222082 37.27098899801684
  endloop
endfacet
facet normal -0.6288943535912864 -0.7774907665181612 7.168476022580496e-16
  outer loop
    vertex -39.7594856832265 35.08124417222082 37.27098899801684
    vertex -39.75948568322653 35.081244172220806 -2.2722881970507873
    vertex -39.45560565410888 34.835442623557945 -2.389625296640338
  endloop
endfacet
facet normal -0.6288943535912864 -0.7774907665181612 7.168476022580496e-16
  outer loop
    vertex -39.7594856832265 35.08124417222082 37.27098899801684
    vertex -39.45560565410888 34.835442623557945 -2.389625296640338
    vertex -39.455605654108865 34.83544262355796 37.38832609760643
  endloop
endfacet
facet normal 0.9999510562471945 -0.009893690419670764 -1.193029280798419e-15
  outer loop
    vertex -29.427251715282406 36.30745631609085 -0.0859205655653213
    vertex -29.42912978389338 36.11764072538312 35.3851225281487
    vertex -29.429129783893437 36.11764072538311 -0.38642172718259793
  endloop
endfacet
facet normal 0.9999510562471945 -0.009893690419670764 -1.193029280798419e-15
  outer loop
    vertex -29.42912978389338 36.11764072538312 35.3851225281487
    vertex -29.427251715282406 36.30745631609085 -0.0859205655653213
    vertex -29.427251715282377 36.30745631609086 35.0846213665315
  endloop
endfacet
facet normal -0.9023967110526536 -0.4309062263200121 4.373915253504141e-16
  outer loop
    vertex -41.04343938440758 35.94159186043758 35.79842479143152
    vertex -41.08505296308369 36.02873833045535 -0.648699896612196
    vertex -41.04343938440755 35.94159186043757 -0.7997239904654322
  endloop
endfacet
facet normal -0.9023967110526536 -0.4309062263200121 4.373915253504141e-16
  outer loop
    vertex -41.08505296308369 36.02873833045535 -0.648699896612196
    vertex -41.04343938440758 35.94159186043758 35.79842479143152
    vertex -41.12750501885911 36.11764072538311 -0.3864217271825923
  endloop
endfacet
facet normal -0.9023967110526536 -0.4309062263200121 4.373915253504141e-16
  outer loop
    vertex -41.12750501885911 36.11764072538311 -0.3864217271825923
    vertex -41.04343938440758 35.94159186043758 35.79842479143152
    vertex -41.127505018859054 36.11764072538312 35.38512252814868
  endloop
endfacet
facet normal -0.9023967110526536 -0.4309062263200121 4.373915253504141e-16
  outer loop
    vertex -41.127505018859054 36.11764072538312 35.38512252814868
    vertex -41.04343938440758 35.94159186043758 35.79842479143152
    vertex -41.08505296308368 36.028738330455354 35.64740069757831
  endloop
endfacet
facet normal 0.9023967110526874 -0.43090622631994135 -3.4368824247441955e-16
  outer loop
    vertex -29.471581839668787 36.02873833045535 -0.6486998966122016
    vertex -29.513195418344914 35.94159186043758 35.798424791431586
    vertex -29.513195418344903 35.94159186043757 -0.7997239904654379
  endloop
endfacet
facet normal 0.9023967110526874 -0.43090622631994135 -3.4368824247441955e-16
  outer loop
    vertex -29.513195418344914 35.94159186043758 35.798424791431586
    vertex -29.471581839668787 36.02873833045535 -0.6486998966122016
    vertex -29.429129783893437 36.11764072538311 -0.38642172718259793
  endloop
endfacet
facet normal 0.9023967110526874 -0.43090622631994135 -3.4368824247441955e-16
  outer loop
    vertex -29.513195418344914 35.94159186043758 35.798424791431586
    vertex -29.429129783893437 36.11764072538311 -0.38642172718259793
    vertex -29.42912978389338 36.11764072538312 35.3851225281487
  endloop
endfacet
facet normal 0.9023967110526874 -0.43090622631994135 -3.4368824247441955e-16
  outer loop
    vertex -29.513195418344914 35.94159186043758 35.798424791431586
    vertex -29.42912978389338 36.11764072538312 35.3851225281487
    vertex -29.471581839668776 36.028738330455354 35.64740069757837
  endloop
endfacet
facet normal 0.2495374705127202 0.14831130994918035 0.9569403357322083
  outer loop
    vertex -31.914464517999246 35.85964631741865 37.441706241692735
    vertex -30.79714911952595 35.08124417222082 37.270988998016946
    vertex -31.384022170977307 36.06867268877472 37.270988998016904
  endloop
endfacet
facet normal 0.2495374705127202 0.14831130994918035 0.9569403357322083
  outer loop
    vertex -30.79714911952595 35.08124417222082 37.270988998016946
    vertex -31.914464517999246 35.85964631741865 37.441706241692735
    vertex -31.1010291486436 34.83544262355796 37.38832609760646
  endloop
endfacet
facet normal 0.2495374705127202 0.14831130994918035 0.9569403357322083
  outer loop
    vertex -31.1010291486436 34.83544262355796 37.38832609760646
    vertex -31.914464517999246 35.85964631741865 37.441706241692735
    vertex -31.231303788655733 34.71021138617534 37.4417062416928
  endloop
endfacet
facet normal 0.8205280585597687 0.4876148646166257 0.2982707644423881
  outer loop
    vertex -29.790402497229767 36.72549105778292 35.38541622190085
    vertex -29.471581839668776 36.028738330455354 35.64740069757837
    vertex -29.42912978389338 36.11764072538312 35.3851225281487
  endloop
endfacet
facet normal 0.8205280585597687 0.4876148646166257 0.2982707644423881
  outer loop
    vertex -29.471581839668776 36.028738330455354 35.64740069757837
    vertex -29.790402497229767 36.72549105778292 35.38541622190085
    vertex -29.88878329870989 36.73069016959041 35.64740069757835
  endloop
endfacet
facet normal 0.46399362126708915 0.8858385402676118 -6.511278488501439e-16
  outer loop
    vertex -40.38508194425429 36.6693163174048 36.16606109954179
    vertex -40.05159960401781 36.49470355367595 -1.621969943076571
    vertex -40.3850819442543 36.669316317404785 -1.1673602985757343
  endloop
endfacet
facet normal 0.46399362126708915 0.8858385402676118 -6.511278488501439e-16
  outer loop
    vertex -40.05159960401781 36.49470355367595 -1.621969943076571
    vertex -40.38508194425429 36.6693163174048 36.16606109954179
    vertex -40.051599604017774 36.49470355367596 36.62067074404266
  endloop
endfacet
facet normal 0.46399362126708915 0.8858385402676118 -6.511278488501439e-16
  outer loop
    vertex -40.05159960401781 36.49470355367595 -1.621969943076571
    vertex -40.051599604017774 36.49470355367596 36.62067074404266
    vertex -39.648326858516526 36.2834280069741 -1.9950584364245652
  endloop
endfacet
facet normal 0.46399362126708915 0.8858385402676118 -6.511278488501439e-16
  outer loop
    vertex -39.648326858516526 36.2834280069741 -1.9950584364245652
    vertex -40.051599604017774 36.49470355367596 36.62067074404266
    vertex -39.64832685851644 36.28342800697411 36.99375923739061
  endloop
endfacet
facet normal 0.46399362126708915 0.8858385402676118 -6.511278488501439e-16
  outer loop
    vertex -39.648326858516526 36.2834280069741 -1.9950584364245652
    vertex -39.64832685851644 36.28342800697411 36.99375923739061
    vertex -39.43794040744383 36.17322788215127 -2.12182183361248
  endloop
endfacet
facet normal 0.46399362126708915 0.8858385402676118 -6.511278488501439e-16
  outer loop
    vertex -39.43794040744383 36.17322788215127 -2.12182183361248
    vertex -39.64832685851644 36.28342800697411 36.99375923739061
    vertex -39.437940407443826 36.17322788215128 37.12052263457858
  endloop
endfacet
facet normal 0.26492434394297 0.9642692009944045 -6.609358800986822e-16
  outer loop
    vertex -38.440595061544535 35.78021348612391 37.462769978803045
    vertex -38.06918780737722 35.678172662830484 -2.5006495995169287
    vertex -38.44059506154463 35.780213486123905 -2.4640691778369535
  endloop
endfacet
facet normal 0.26492434394297 0.9642692009944045 -6.609358800986822e-16
  outer loop
    vertex -38.06918780737722 35.678172662830484 -2.5006495995169287
    vertex -38.440595061544535 35.78021348612391 37.462769978803045
    vertex -38.06918780737715 35.67817266283049 37.49935040048302
  endloop
endfacet
facet normal 0.26492434394297 0.9642692009944045 -6.609358800986822e-16
  outer loop
    vertex -38.06918780737722 35.678172662830484 -2.5006495995169287
    vertex -38.06918780737715 35.67817266283049 37.49935040048302
    vertex -37.40691014720884 35.496217795406274 -2.5006495995169287
  endloop
endfacet
facet normal 0.26492434394297 0.9642692009944045 -6.609358800986822e-16
  outer loop
    vertex -37.40691014720884 35.496217795406274 -2.5006495995169287
    vertex -38.06918780737715 35.67817266283049 37.49935040048302
    vertex -37.406910147208826 35.49621779540628 37.49935040048306
  endloop
endfacet
facet normal 9.234446162299482e-32 -1.0 2.7117197376469447e-16
  outer loop
    vertex -33.65331740137624 34.26704646662904 -2.500649599516934
    vertex -36.903317401376235 34.26704646662905 37.49935040048306
    vertex -36.90331740137625 34.26704646662904 -2.5006495995169282
  endloop
endfacet
facet normal 9.234446162299482e-32 -1.0 2.7117197376469447e-16
  outer loop
    vertex -36.903317401376235 34.26704646662905 37.49935040048306
    vertex -33.65331740137624 34.26704646662904 -2.500649599516934
    vertex -33.65331740137622 34.26704646662905 37.49935040048305
  endloop
endfacet
facet normal 0.053599394923627315 0.9985625192564664 -2.9673199455864754e-16
  outer loop
    vertex -36.34876433788741 35.324504369352624 37.49935040048306
    vertex -35.27831740137625 35.26704646662904 -2.5006495995169287
    vertex -36.34876433788743 35.32450436935262 -2.5006495995169287
  endloop
endfacet
facet normal 0.053599394923627315 0.9985625192564664 -2.9673199455864754e-16
  outer loop
    vertex -35.27831740137625 35.26704646662904 -2.5006495995169287
    vertex -36.34876433788741 35.324504369352624 37.49935040048306
    vertex -35.27831740137623 35.267046466629054 37.49935040048306
  endloop
endfacet
facet normal 0.628894353591281 -0.7774907665181656 -3.5607079895860395e-16
  outer loop
    vertex -30.797149119525997 35.081244172220806 -2.272288197050793
    vertex -31.1010291486436 34.83544262355796 37.38832609760646
    vertex -31.101029148643626 34.835442623557945 -2.389625296640344
  endloop
endfacet
facet normal 0.628894353591281 -0.7774907665181656 -3.5607079895860395e-16
  outer loop
    vertex -31.1010291486436 34.83544262355796 37.38832609760646
    vertex -30.797149119525997 35.081244172220806 -2.272288197050793
    vertex -30.79714911952595 35.08124417222082 37.270988998016946
  endloop
endfacet
facet normal 0.628894353591281 -0.7774907665181656 -3.5607079895860395e-16
  outer loop
    vertex -30.79714911952595 35.08124417222082 37.270988998016946
    vertex -30.797149119525997 35.081244172220806 -2.272288197050793
    vertex -30.648535400798984 35.20145438255188 -2.1711745913735774
  endloop
endfacet
facet normal 0.628894353591281 -0.7774907665181656 -3.5607079895860395e-16
  outer loop
    vertex -30.79714911952595 35.08124417222082 37.270988998016946
    vertex -30.648535400798984 35.20145438255188 -2.1711745913735774
    vertex -30.648535400798945 35.20145438255189 37.16987539233972
  endloop
endfacet
facet normal -0.26492434394297115 0.964269200994404 5.062321939940739e-17
  outer loop
    vertex -33.14972465554363 35.49621779540628 37.49935040048305
    vertex -32.487446995375336 35.678172662830484 -2.5006495995169344
    vertex -33.14972465554365 35.496217795406274 -2.5006495995169344
  endloop
endfacet
facet normal -0.26492434394297115 0.964269200994404 5.062321939940739e-17
  outer loop
    vertex -32.487446995375336 35.678172662830484 -2.5006495995169344
    vertex -33.14972465554363 35.49621779540628 37.49935040048305
    vertex -32.487446995375244 35.67817266283049 37.49935040048309
  endloop
endfacet
facet normal -0.26492434394297115 0.964269200994404 5.062321939940739e-17
  outer loop
    vertex -32.487446995375336 35.678172662830484 -2.5006495995169344
    vertex -32.487446995375244 35.67817266283049 37.49935040048309
    vertex -32.11603974120791 35.780213486123905 -2.4640691778369592
  endloop
endfacet
facet normal -0.26492434394297115 0.964269200994404 5.062321939940739e-17
  outer loop
    vertex -32.11603974120791 35.780213486123905 -2.4640691778369592
    vertex -32.487446995375244 35.67817266283049 37.49935040048309
    vertex -32.116039741207885 35.78021348612391 37.46276997880306
  endloop
endfacet
facet normal -0.05359939492362704 0.9985625192564667 -2.5139246050854454e-16
  outer loop
    vertex -35.27831740137623 35.267046466629054 37.49935040048306
    vertex -34.20787046486506 35.32450436935262 -2.5006495995169344
    vertex -35.27831740137625 35.26704646662904 -2.5006495995169287
  endloop
endfacet
facet normal -0.05359939492362704 0.9985625192564667 -2.5139246050854454e-16
  outer loop
    vertex -34.20787046486506 35.32450436935262 -2.5006495995169344
    vertex -35.27831740137623 35.267046466629054 37.49935040048306
    vertex -34.207870464865046 35.324504369352624 37.49935040048305
  endloop
endfacet
facet normal 0.46921410746817754 0.8830844361400791 -9.140987171603662e-16
  outer loop
    vertex -29.790402497229767 36.72549105778292 35.38541622190085
    vertex -29.622771098829364 36.63642254545819 -0.0859205655653213
    vertex -29.790402497229813 36.72549105778291 -0.386715420934743
  endloop
endfacet
facet normal 0.46921410746817754 0.8830844361400791 -9.140987171603662e-16
  outer loop
    vertex -29.622771098829364 36.63642254545819 -0.0859205655653213
    vertex -29.790402497229767 36.72549105778292 35.38541622190085
    vertex -29.622771098829308 36.636422545458196 35.08462136653146
  endloop
endfacet
facet normal -1.0 -1.48509744061248e-31 4.229949723821848e-16
  outer loop
    vertex -33.65331740137622 32.517046466629054 37.49935040048305
    vertex -33.65331740137624 34.26704646662904 -2.500649599516934
    vertex -33.65331740137624 32.51704646662904 -2.5006495995169336
  endloop
endfacet
facet normal -1.0 -1.48509744061248e-31 4.229949723821848e-16
  outer loop
    vertex -33.65331740137624 34.26704646662904 -2.500649599516934
    vertex -33.65331740137622 32.517046466629054 37.49935040048305
    vertex -33.65331740137622 34.26704646662905 37.49935040048305
  endloop
endfacet
facet normal 0.33599195292126666 0.9418648563207745 -6.133058875505957e-16
  outer loop
    vertex -40.57141383694172 36.73578659293895 35.798947192832514
    vertex -40.3850819442543 36.669316317404785 -1.1673602985757343
    vertex -40.57141383694179 36.735786592938936 -0.800246391866463
  endloop
endfacet
facet normal 0.33599195292126666 0.9418648563207745 -6.133058875505957e-16
  outer loop
    vertex -40.3850819442543 36.669316317404785 -1.1673602985757343
    vertex -40.57141383694172 36.73578659293895 35.798947192832514
    vertex -40.38508194425429 36.6693163174048 36.16606109954179
  endloop
endfacet
facet normal -0.5601764634225119 -0.8283733034251207 3.8757876735128907e-16
  outer loop
    vertex -40.18150551707426 35.38634164293697 -1.995058436424565
    vertex -40.39020640157732 35.52747284901365 36.787348771976994
    vertex -40.39020640157735 35.527472849013634 -1.7886479710109027
  endloop
endfacet
facet normal -0.5601764634225119 -0.8283733034251207 3.8757876735128907e-16
  outer loop
    vertex -40.39020640157732 35.52747284901365 36.787348771976994
    vertex -40.18150551707426 35.38634164293697 -1.995058436424565
    vertex -40.181505517074314 35.38634164293698 36.993759237390634
  endloop
endfacet
facet normal -0.5601764634225119 -0.8283733034251207 3.8757876735128907e-16
  outer loop
    vertex -40.181505517074314 35.38634164293698 36.993759237390634
    vertex -40.18150551707426 35.38634164293697 -1.995058436424565
    vertex -39.90809940195348 35.20145438255189 37.16987539233964
  endloop
endfacet
facet normal -0.5601764634225119 -0.8283733034251207 3.8757876735128907e-16
  outer loop
    vertex -39.90809940195348 35.20145438255189 37.16987539233964
    vertex -40.18150551707426 35.38634164293697 -1.995058436424565
    vertex -39.908099401953535 35.20145438255188 -2.171174591373572
  endloop
endfacet
facet normal -0.3359919529212575 0.941864856320778 1.4891794876325975e-16
  outer loop
    vertex -30.171552858498167 36.6693163174048 36.1660610995419
    vertex -29.985220965810747 36.735786592938936 -0.8002463918664686
    vertex -30.171552858498178 36.669316317404785 -1.1673602985757399
  endloop
endfacet
facet normal -0.3359919529212575 0.941864856320778 1.4891794876325975e-16
  outer loop
    vertex -29.985220965810747 36.735786592938936 -0.8002463918664686
    vertex -30.171552858498167 36.6693163174048 36.1660610995419
    vertex -29.98522096581067 36.73578659293895 35.798947192832586
  endloop
endfacet
facet normal -0.052773172188303685 0.99860652526267 -2.0737020445749776e-16
  outer loop
    vertex -40.76623230552265 36.72549105778292 35.385416221900805
    vertex -40.66785150404259 36.7306901695904 -0.648699896612196
    vertex -40.76623230552269 36.72549105778291 -0.3867154209347373
  endloop
endfacet
facet normal -0.052773172188303685 0.99860652526267 -2.0737020445749776e-16
  outer loop
    vertex -40.66785150404259 36.7306901695904 -0.648699896612196
    vertex -40.76623230552265 36.72549105778292 35.385416221900805
    vertex -40.667851504042574 36.73069016959041 35.64740069757828
  endloop
endfacet
facet normal -0.052773172188303685 0.99860652526267 -2.0737020445749776e-16
  outer loop
    vertex -40.66785150404259 36.7306901695904 -0.648699896612196
    vertex -40.667851504042574 36.73069016959041 35.64740069757828
    vertex -40.57141383694179 36.735786592938936 -0.800246391866463
  endloop
endfacet
facet normal -0.052773172188303685 0.99860652526267 -2.0737020445749776e-16
  outer loop
    vertex -40.57141383694179 36.735786592938936 -0.800246391866463
    vertex -40.667851504042574 36.73069016959041 35.64740069757828
    vertex -40.57141383694172 36.73578659293895 35.798947192832514
  endloop
endfacet
facet normal -0.38268343236508295 -0.9238795325112895 4.1241202881459524e-16
  outer loop
    vertex -37.03713644647877 31.801120640339974 -2.5006495995169282
    vertex -37.278317401376235 31.901021062844613 37.49935040048306
    vertex -37.27831740137625 31.9010210628446 -2.5006495995169282
  endloop
endfacet
facet normal -0.38268343236508295 -0.9238795325112895 4.1241202881459524e-16
  outer loop
    vertex -37.278317401376235 31.901021062844613 37.49935040048306
    vertex -37.03713644647877 31.801120640339974 -2.5006495995169282
    vertex -37.03713644647875 31.801120640339985 37.49935040048306
  endloop
endfacet
facet normal 0.6667531082419658 -0.7452786677811712 -1.0774539249754092e-16
  outer loop
    vertex -29.513195418344903 35.94159186043757 -0.7997239904654379
    vertex -29.66063608758245 35.80968613343201 36.16606109954185
    vertex -29.660636087582496 35.809686133431995 -1.1673602985757399
  endloop
endfacet
facet normal 0.6667531082419658 -0.7452786677811712 -1.0774539249754092e-16
  outer loop
    vertex -29.66063608758245 35.80968613343201 36.16606109954185
    vertex -29.513195418344903 35.94159186043757 -0.7997239904654379
    vertex -29.513195418344914 35.94159186043758 35.798424791431586
  endloop
endfacet
facet normal -0.36662204544226346 0.9303699671613068 2.5700247901145417e-17
  outer loop
    vertex -32.116039741207885 35.78021348612391 37.46276997880306
    vertex -31.91446451799932 35.85964631741865 -2.443005440726623
    vertex -32.11603974120791 35.780213486123905 -2.4640691778369592
  endloop
endfacet
facet normal -0.36662204544226346 0.9303699671613068 2.5700247901145417e-17
  outer loop
    vertex -31.91446451799932 35.85964631741865 -2.443005440726623
    vertex -32.116039741207885 35.78021348612391 37.46276997880306
    vertex -31.914464517999246 35.85964631741865 37.441706241692735
  endloop
endfacet
facet normal -0.36662204544226346 0.9303699671613068 2.5700247901145417e-17
  outer loop
    vertex -31.91446451799932 35.85964631741865 -2.443005440726623
    vertex -31.914464517999246 35.85964631741865 37.441706241692735
    vertex -31.384022170977346 36.06867268877471 -2.272288197050793
  endloop
endfacet
facet normal -0.36662204544226346 0.9303699671613068 2.5700247901145417e-17
  outer loop
    vertex -31.384022170977346 36.06867268877471 -2.272288197050793
    vertex -31.914464517999246 35.85964631741865 37.441706241692735
    vertex -31.384022170977307 36.06867268877472 37.270988998016904
  endloop
endfacet
facet normal -0.36662204544226346 0.9303699671613068 2.5700247901145417e-17
  outer loop
    vertex -31.384022170977346 36.06867268877471 -2.272288197050793
    vertex -31.384022170977307 36.06867268877472 37.270988998016904
    vertex -31.118694395308637 36.17322788215127 -2.1218218336124854
  endloop
endfacet
facet normal -0.36662204544226346 0.9303699671613068 2.5700247901145417e-17
  outer loop
    vertex -31.118694395308637 36.17322788215127 -2.1218218336124854
    vertex -31.384022170977307 36.06867268877472 37.270988998016904
    vertex -31.118694395308665 36.17322788215128 37.12052263457863
  endloop
endfacet
facet normal 0.6625008044689258 0.39375393984424967 0.6372209341626789
  outer loop
    vertex -30.171552858498167 36.6693163174048 36.1660610995419
    vertex -29.989009225234533 35.62647700918496 36.62067074404272
    vertex -29.66063608758245 35.80968613343201 36.16606109954185
  endloop
endfacet
facet normal 0.6625008044689258 0.39375393984424967 0.6372209341626789
  outer loop
    vertex -29.989009225234533 35.62647700918496 36.62067074404272
    vertex -30.171552858498167 36.6693163174048 36.1660610995419
    vertex -30.50503519873466 36.49470355367596 36.620670744042684
  endloop
endfacet
facet normal -0.5453436155766638 0.3241221682355195 0.7730104533627457
  outer loop
    vertex -40.56762557751791 35.62647700918496 36.620670744042634
    vertex -39.64832685851644 36.28342800697411 36.99375923739061
    vertex -40.051599604017774 36.49470355367596 36.62067074404266
  endloop
endfacet
facet normal -0.5453436155766638 0.3241221682355195 0.7730104533627457
  outer loop
    vertex -39.64832685851644 36.28342800697411 36.99375923739061
    vertex -40.56762557751791 35.62647700918496 36.620670744042634
    vertex -40.39020640157732 35.52747284901365 36.787348771976994
  endloop
endfacet
facet normal -0.5453436155766638 0.3241221682355195 0.7730104533627457
  outer loop
    vertex -39.64832685851644 36.28342800697411 36.99375923739061
    vertex -40.39020640157732 35.52747284901365 36.787348771976994
    vertex -40.181505517074314 35.38634164293698 36.993759237390634
  endloop
endfacet
facet normal -0.40522686360189814 0.24084449859932813 0.8819212643483583
  outer loop
    vertex -40.181505517074314 35.38634164293698 36.993759237390634
    vertex -39.437940407443826 36.17322788215128 37.12052263457858
    vertex -39.64832685851644 36.28342800697411 36.99375923739061
  endloop
endfacet
facet normal -0.40522686360189814 0.24084449859932813 0.8819212643483583
  outer loop
    vertex -39.437940407443826 36.17322788215128 37.12052263457858
    vertex -40.181505517074314 35.38634164293698 36.993759237390634
    vertex -39.17261263177515 36.06867268877472 37.27098899801687
  endloop
endfacet
facet normal -0.40522686360189814 0.24084449859932813 0.8819212643483583
  outer loop
    vertex -39.17261263177515 36.06867268877472 37.27098899801687
    vertex -40.181505517074314 35.38634164293698 36.993759237390634
    vertex -39.90809940195348 35.20145438255189 37.16987539233964
  endloop
endfacet
facet normal -0.40522686360189814 0.24084449859932813 0.8819212643483583
  outer loop
    vertex -39.17261263177515 36.06867268877472 37.27098899801687
    vertex -39.90809940195348 35.20145438255189 37.16987539233964
    vertex -39.7594856832265 35.08124417222082 37.27098899801684
  endloop
endfacet
facet normal 0.8168800162183603 0.4853919743497743 0.311611409194079
  outer loop
    vertex -29.790402497229767 36.72549105778292 35.38541622190085
    vertex -29.427251715282377 36.30745631609086 35.0846213665315
    vertex -29.622771098829308 36.636422545458196 35.08462136653146
  endloop
endfacet
facet normal 0.8168800162183603 0.4853919743497743 0.311611409194079
  outer loop
    vertex -29.427251715282377 36.30745631609086 35.0846213665315
    vertex -29.790402497229767 36.72549105778292 35.38541622190085
    vertex -29.42912978389338 36.11764072538312 35.3851225281487
  endloop
endfacet
facet normal -9.23444616229935e-32 1.0 -2.7117197376469447e-16
  outer loop
    vertex -36.903317401376235 32.517046466629054 37.49935040048306
    vertex -33.65331740137624 32.51704646662904 -2.5006495995169336
    vertex -36.90331740137625 32.51704646662904 -2.5006495995169282
  endloop
endfacet
facet normal -9.23444616229935e-32 1.0 -2.7117197376469447e-16
  outer loop
    vertex -33.65331740137624 32.51704646662904 -2.5006495995169336
    vertex -36.903317401376235 32.517046466629054 37.49935040048306
    vertex -33.65331740137622 32.517046466629054 37.49935040048305
  endloop
endfacet
facet normal 0.05277317218830413 0.99860652526267 -3.2385815027920182e-16
  outer loop
    vertex -29.98522096581067 36.73578659293895 35.798947192832586
    vertex -29.888783298709868 36.7306901695904 -0.6486998966122016
    vertex -29.985220965810747 36.735786592938936 -0.8002463918664686
  endloop
endfacet
facet normal 0.05277317218830413 0.99860652526267 -3.2385815027920182e-16
  outer loop
    vertex -29.888783298709868 36.7306901695904 -0.6486998966122016
    vertex -29.98522096581067 36.73578659293895 35.798947192832586
    vertex -29.88878329870989 36.73069016959041 35.64740069757835
  endloop
endfacet
facet normal 0.05277317218830413 0.99860652526267 -3.2385815027920182e-16
  outer loop
    vertex -29.888783298709868 36.7306901695904 -0.6486998966122016
    vertex -29.88878329870989 36.73069016959041 35.64740069757835
    vertex -29.790402497229767 36.72549105778292 35.38541622190085
  endloop
endfacet
facet normal 0.05277317218830413 0.99860652526267 -3.2385815027920182e-16
  outer loop
    vertex -29.888783298709868 36.7306901695904 -0.6486998966122016
    vertex -29.790402497229767 36.72549105778292 35.38541622190085
    vertex -29.790402497229813 36.72549105778291 -0.386715420934743
  endloop
endfacet
facet normal 0.16018224300696685 0.987087457637497 -3.3749032099517182e-16
  outer loop
    vertex -37.406910147208826 35.49621779540628 37.49935040048306
    vertex -36.34876433788743 35.32450436935262 -2.5006495995169287
    vertex -37.40691014720884 35.496217795406274 -2.5006495995169287
  endloop
endfacet
facet normal 0.16018224300696685 0.987087457637497 -3.3749032099517182e-16
  outer loop
    vertex -36.34876433788743 35.32450436935262 -2.5006495995169287
    vertex -37.406910147208826 35.49621779540628 37.49935040048306
    vertex -36.34876433788741 35.324504369352624 37.49935040048306
  endloop
endfacet
facet normal -0.662500804468947 0.3937539398442473 0.6372209341626583
  outer loop
    vertex -40.56762557751791 35.62647700918496 36.620670744042634
    vertex -40.38508194425429 36.6693163174048 36.16606109954179
    vertex -40.89599871516998 35.80968613343201 36.166061099541785
  endloop
endfacet
facet normal -0.662500804468947 0.3937539398442473 0.6372209341626583
  outer loop
    vertex -40.38508194425429 36.6693163174048 36.16606109954179
    vertex -40.56762557751791 35.62647700918496 36.620670744042634
    vertex -40.051599604017774 36.49470355367596 36.62067074404266
  endloop
endfacet
facet normal -0.7600968445497598 0.4516181079660027 0.46721929697167486
  outer loop
    vertex -40.89599871516998 35.80968613343201 36.166061099541785
    vertex -40.57141383694172 36.73578659293895 35.798947192832514
    vertex -41.04343938440758 35.94159186043758 35.79842479143152
  endloop
endfacet
facet normal -0.7600968445497598 0.4516181079660027 0.46721929697167486
  outer loop
    vertex -40.57141383694172 36.73578659293895 35.798947192832514
    vertex -40.89599871516998 35.80968613343201 36.166061099541785
    vertex -40.38508194425429 36.6693163174048 36.16606109954179
  endloop
endfacet
facet normal -0.8168800162183786 0.48539197434979714 0.31161140919399516
  outer loop
    vertex -41.127505018859054 36.11764072538312 35.38512252814868
    vertex -40.93386370392311 36.636422545458196 35.08462136653139
    vertex -41.12938308747004 36.30745631609086 35.084621366531366
  endloop
endfacet
facet normal -0.8168800162183786 0.48539197434979714 0.31161140919399516
  outer loop
    vertex -40.93386370392311 36.636422545458196 35.08462136653139
    vertex -41.127505018859054 36.11764072538312 35.38512252814868
    vertex -40.76623230552265 36.72549105778292 35.385416221900805
  endloop
endfacet
facet normal -0.16018224300696682 0.987087457637497 -2.019674739043111e-16
  outer loop
    vertex -34.207870464865046 35.324504369352624 37.49935040048305
    vertex -33.14972465554365 35.496217795406274 -2.5006495995169344
    vertex -34.20787046486506 35.32450436935262 -2.5006495995169344
  endloop
endfacet
facet normal -0.16018224300696682 0.987087457637497 -2.019674739043111e-16
  outer loop
    vertex -33.14972465554365 35.496217795406274 -2.5006495995169344
    vertex -34.207870464865046 35.324504369352624 37.49935040048305
    vertex -33.14972465554363 35.49621779540628 37.49935040048305
  endloop
endfacet
facet normal -0.8205280585597815 0.4876148646166504 0.2982707644423128
  outer loop
    vertex -41.08505296308368 36.028738330455354 35.64740069757831
    vertex -40.76623230552265 36.72549105778292 35.385416221900805
    vertex -41.127505018859054 36.11764072538312 35.38512252814868
  endloop
endfacet
facet normal -0.8205280585597815 0.4876148646166504 0.2982707644423128
  outer loop
    vertex -40.76623230552265 36.72549105778292 35.385416221900805
    vertex -41.08505296308368 36.028738330455354 35.64740069757831
    vertex -40.667851504042574 36.73069016959041 35.64740069757828
  endloop
endfacet
facet normal -0.08425849237399527 0.05007860083156922 0.9951847266721963
  outer loop
    vertex -39.3253310140967 34.71021138617534 37.4417062416927
    vertex -38.440595061544535 35.78021348612391 37.462769978803045
    vertex -38.64217028475314 35.85964631741865 37.441706241692714
  endloop
endfacet
facet normal -0.08425849237399527 0.05007860083156922 0.9951847266721963
  outer loop
    vertex -38.440595061544535 35.78021348612391 37.462769978803045
    vertex -39.3253310140967 34.71021138617534 37.4417062416927
    vertex -38.06918780737715 35.67817266283049 37.49935040048302
  endloop
endfacet
facet normal -0.08425849237399527 0.05007860083156922 0.9951847266721963
  outer loop
    vertex -38.06918780737715 35.67817266283049 37.49935040048302
    vertex -39.3253310140967 34.71021138617534 37.4417062416927
    vertex -39.03603342173127 34.432113550246804 37.480194100751596
  endloop
endfacet
facet normal -0.08425849237399527 0.05007860083156922 0.9951847266721963
  outer loop
    vertex -38.06918780737715 35.67817266283049 37.49935040048302
    vertex -39.03603342173127 34.432113550246804 37.480194100751596
    vertex -38.901211718695706 34.27827172265466 37.49935040048303
  endloop
endfacet
facet normal 0.8596301839727423 0.5109167709157624 -1.17367787565638e-15
  outer loop
    vertex -29.622771098829308 36.636422545458196 35.08462136653146
    vertex -29.427251715282406 36.30745631609085 -0.0859205655653213
    vertex -29.622771098829364 36.63642254545819 -0.0859205655653213
  endloop
endfacet
facet normal 0.8596301839727423 0.5109167709157624 -1.17367787565638e-15
  outer loop
    vertex -29.427251715282406 36.30745631609085 -0.0859205655653213
    vertex -29.622771098829308 36.636422545458196 35.08462136653146
    vertex -29.427251715282377 36.30745631609086 35.0846213665315
  endloop
endfacet
facet normal -0.859630183972768 0.5109167709157186 6.178860785164796e-16
  outer loop
    vertex -41.12938308747004 36.30745631609086 35.084621366531366
    vertex -40.93386370392315 36.63642254545819 -0.08592056556531566
    vertex -41.12938308747006 36.30745631609085 -0.08592056556531566
  endloop
endfacet
facet normal -0.859630183972768 0.5109167709157186 6.178860785164796e-16
  outer loop
    vertex -40.93386370392315 36.63642254545819 -0.08592056556531566
    vertex -41.12938308747004 36.30745631609086 35.084621366531366
    vertex -40.93386370392311 36.636422545458196 35.08462136653139
  endloop
endfacet
facet normal -0.7593820451183062 0.45116166292602833 0.4688198624821261
  outer loop
    vertex -41.08505296308368 36.028738330455354 35.64740069757831
    vertex -40.57141383694172 36.73578659293895 35.798947192832514
    vertex -40.667851504042574 36.73069016959041 35.64740069757828
  endloop
endfacet
facet normal -0.7593820451183062 0.45116166292602833 0.4688198624821261
  outer loop
    vertex -40.57141383694172 36.73578659293895 35.798947192832514
    vertex -41.08505296308368 36.028738330455354 35.64740069757831
    vertex -41.04343938440758 35.94159186043758 35.79842479143152
  endloop
endfacet
facet normal 0.7593820451183783 0.45116166292601334 0.46881986248202373
  outer loop
    vertex -29.98522096581067 36.73578659293895 35.798947192832586
    vertex -29.471581839668776 36.028738330455354 35.64740069757837
    vertex -29.88878329870989 36.73069016959041 35.64740069757835
  endloop
endfacet
facet normal 0.7593820451183783 0.45116166292601334 0.46881986248202373
  outer loop
    vertex -29.471581839668776 36.028738330455354 35.64740069757837
    vertex -29.98522096581067 36.73578659293895 35.798947192832586
    vertex -29.513195418344914 35.94159186043758 35.798424791431586
  endloop
endfacet
facet normal 0.08425849237400766 0.05007860083163865 0.9951847266721917
  outer loop
    vertex -32.116039741207885 35.78021348612391 37.46276997880306
    vertex -31.231303788655733 34.71021138617534 37.4417062416928
    vertex -31.914464517999246 35.85964631741865 37.441706241692735
  endloop
endfacet
facet normal 0.08425849237400766 0.05007860083163865 0.9951847266721917
  outer loop
    vertex -31.231303788655733 34.71021138617534 37.4417062416928
    vertex -32.116039741207885 35.78021348612391 37.46276997880306
    vertex -32.487446995375244 35.67817266283049 37.49935040048309
  endloop
endfacet
facet normal 0.08425849237400766 0.05007860083163865 0.9951847266721917
  outer loop
    vertex -31.231303788655733 34.71021138617534 37.4417062416928
    vertex -32.487446995375244 35.67817266283049 37.49935040048309
    vertex -31.520601381021187 34.432113550246804 37.48019410075174
  endloop
endfacet
facet normal 0.08425849237400766 0.05007860083163865 0.9951847266721917
  outer loop
    vertex -31.520601381021187 34.432113550246804 37.48019410075174
    vertex -32.487446995375244 35.67817266283049 37.49935040048309
    vertex -31.655423084056732 34.27827172265467 37.49935040048311
  endloop
endfacet
facet normal 0.8185408599001751 0.4864330841028724 -0.3055711297947667
  outer loop
    vertex -29.790402497229813 36.72549105778291 -0.386715420934743
    vertex -29.471581839668787 36.02873833045535 -0.6486998966122016
    vertex -29.888783298709868 36.7306901695904 -0.6486998966122016
  endloop
endfacet
facet normal 0.8185408599001751 0.4864330841028724 -0.3055711297947667
  outer loop
    vertex -29.471581839668787 36.02873833045535 -0.6486998966122016
    vertex -29.790402497229813 36.72549105778291 -0.386715420934743
    vertex -29.429129783893437 36.11764072538311 -0.38642172718259793
  endloop
endfacet
facet normal 0.8185408599001751 0.4864330841028724 -0.3055711297947667
  outer loop
    vertex -29.429129783893437 36.11764072538311 -0.38642172718259793
    vertex -29.790402497229813 36.72549105778291 -0.386715420934743
    vertex -29.622771098829364 36.63642254545819 -0.0859205655653213
  endloop
endfacet
facet normal 0.8185408599001751 0.4864330841028724 -0.3055711297947667
  outer loop
    vertex -29.429129783893437 36.11764072538311 -0.38642172718259793
    vertex -29.622771098829364 36.63642254545819 -0.0859205655653213
    vertex -29.427251715282406 36.30745631609085 -0.0859205655653213
  endloop
endfacet
facet normal -0.8185408599001582 0.4864330841028836 -0.3055711297947935
  outer loop
    vertex -41.12750501885911 36.11764072538311 -0.3864217271825923
    vertex -40.66785150404259 36.7306901695904 -0.648699896612196
    vertex -41.08505296308369 36.02873833045535 -0.648699896612196
  endloop
endfacet
facet normal -0.8185408599001582 0.4864330841028836 -0.3055711297947935
  outer loop
    vertex -40.66785150404259 36.7306901695904 -0.648699896612196
    vertex -41.12750501885911 36.11764072538311 -0.3864217271825923
    vertex -40.76623230552269 36.72549105778291 -0.3867154209347373
  endloop
endfacet
facet normal -0.8185408599001582 0.4864330841028836 -0.3055711297947935
  outer loop
    vertex -40.76623230552269 36.72549105778291 -0.3867154209347373
    vertex -41.12750501885911 36.11764072538311 -0.3864217271825923
    vertex -40.93386370392315 36.63642254545819 -0.08592056556531566
  endloop
endfacet
facet normal -0.8185408599001582 0.4864330841028836 -0.3055711297947935
  outer loop
    vertex -40.93386370392315 36.63642254545819 -0.08592056556531566
    vertex -41.12750501885911 36.11764072538311 -0.3864217271825923
    vertex -41.12938308747006 36.30745631609085 -0.08592056556531566
  endloop
endfacet
endsolid VV's Vr Gloves
