solid VV's Vr Gloves
facet normal -0.08425849237399043 0.05007860083157062 -0.9951847266721965
  outer loop
    vertex -25.44059506154465 35.780213486123905 -2.4640691778369526
    vertex -26.325331014096772 34.710211386175324 -2.4430054407266164
    vertex -25.642170284753263 35.85964631741865 -2.4430054407266164
  endloop
endfacet
facet normal -0.08425849237399043 0.05007860083157062 -0.9951847266721965
  outer loop
    vertex -26.325331014096772 34.710211386175324 -2.4430054407266164
    vertex -25.44059506154465 35.780213486123905 -2.4640691778369526
    vertex -25.06918780737724 35.678172662830484 -2.5006495995169282
  endloop
endfacet
facet normal -0.08425849237399043 0.05007860083157062 -0.9951847266721965
  outer loop
    vertex -26.325331014096772 34.710211386175324 -2.4430054407266164
    vertex -25.06918780737724 35.678172662830484 -2.5006495995169282
    vertex -26.036033421731307 34.4321135502468 -2.4814932997855155
  endloop
endfacet
facet normal -0.08425849237399043 0.05007860083157062 -0.9951847266721965
  outer loop
    vertex -26.036033421731307 34.4321135502468 -2.4814932997855155
    vertex -25.06918780737724 35.678172662830484 -2.5006495995169282
    vertex -25.90121171869575 34.278271722654644 -2.500649599516928
  endloop
endfacet
facet normal -0.5453436155766942 0.32412216823549167 -0.773010453362736
  outer loop
    vertex -26.648326858516548 36.2834280069741 -1.9950584364245645
    vertex -27.56762557751794 35.62647700918495 -1.6219699430765702
    vertex -27.05159960401783 36.49470355367595 -1.6219699430765704
  endloop
endfacet
facet normal -0.5453436155766942 0.32412216823549167 -0.773010453362736
  outer loop
    vertex -27.56762557751794 35.62647700918495 -1.6219699430765702
    vertex -26.648326858516548 36.2834280069741 -1.9950584364245645
    vertex -27.390206401577377 35.527472849013634 -1.788647971010902
  endloop
endfacet
facet normal -0.5453436155766942 0.32412216823549167 -0.773010453362736
  outer loop
    vertex -27.390206401577377 35.527472849013634 -1.788647971010902
    vertex -26.648326858516548 36.2834280069741 -1.9950584364245645
    vertex -27.181505517074285 35.38634164293697 -1.995058436424564
  endloop
endfacet
facet normal -0.6625008044689336 0.3937539398442471 -0.6372209341626723
  outer loop
    vertex -27.895998715170027 35.809686133431995 -1.1673602985757334
    vertex -27.05159960401783 36.49470355367595 -1.6219699430765704
    vertex -27.56762557751794 35.62647700918495 -1.6219699430765702
  endloop
endfacet
facet normal -0.6625008044689336 0.3937539398442471 -0.6372209341626723
  outer loop
    vertex -27.05159960401783 36.49470355367595 -1.6219699430765704
    vertex -27.895998715170027 35.809686133431995 -1.1673602985757334
    vertex -27.385081944254324 36.669316317404785 -1.1673602985757336
  endloop
endfacet
facet normal 0.5453436155766992 0.32412216823552575 -0.7730104533627181
  outer loop
    vertex -16.989009225234586 35.62647700918495 -1.6219699430765757
    vertex -17.908307944236014 36.2834280069741 -1.99505843642457
    vertex -17.50503519873474 36.49470355367595 -1.6219699430765762
  endloop
endfacet
facet normal 0.5453436155766992 0.32412216823552575 -0.7730104533627181
  outer loop
    vertex -17.908307944236014 36.2834280069741 -1.99505843642457
    vertex -16.989009225234586 35.62647700918495 -1.6219699430765757
    vertex -17.166428401175168 35.527472849013634 -1.7886479710109076
  endloop
endfacet
facet normal 0.5453436155766992 0.32412216823552575 -0.7730104533627181
  outer loop
    vertex -17.908307944236014 36.2834280069741 -1.99505843642457
    vertex -17.166428401175168 35.527472849013634 -1.7886479710109076
    vertex -17.3751292856782 35.38634164293697 -1.9950584364245698
  endloop
endfacet
facet normal 0.7599074192587347 0.45154284436233916 -0.4676000148211053
  outer loop
    vertex -16.98522096581077 36.735786592938936 -0.800246391866468
    vertex -16.66063608758252 35.809686133431995 -1.167360298575739
    vertex -17.171552858498202 36.669316317404785 -1.1673602985757392
  endloop
endfacet
facet normal 0.7599074192587347 0.45154284436233916 -0.4676000148211053
  outer loop
    vertex -16.66063608758252 35.809686133431995 -1.167360298575739
    vertex -16.98522096581077 36.735786592938936 -0.800246391866468
    vertex -16.513195418344928 35.94159186043757 -0.7997239904654372
  endloop
endfacet
facet normal 0.7599074192587347 0.45154284436233916 -0.4676000148211053
  outer loop
    vertex -16.513195418344928 35.94159186043757 -0.7997239904654372
    vertex -16.98522096581077 36.735786592938936 -0.800246391866468
    vertex -16.888783298709892 36.7306901695904 -0.6486998966122008
  endloop
endfacet
facet normal 0.7599074192587347 0.45154284436233916 -0.4676000148211053
  outer loop
    vertex -16.513195418344928 35.94159186043757 -0.7997239904654372
    vertex -16.888783298709892 36.7306901695904 -0.6486998966122008
    vertex -16.47158183966881 36.02873833045535 -0.6486998966122008
  endloop
endfacet
facet normal -0.24953747051273012 0.1483113099491508 -0.9569403357322102
  outer loop
    vertex -25.642170284753263 35.85964631741865 -2.4430054407266164
    vertex -26.75948568322655 35.081244172220806 -2.2722881970507864
    vertex -26.172612631775202 36.06867268877471 -2.2722881970507864
  endloop
endfacet
facet normal -0.24953747051273012 0.1483113099491508 -0.9569403357322102
  outer loop
    vertex -26.75948568322655 35.081244172220806 -2.2722881970507864
    vertex -25.642170284753263 35.85964631741865 -2.4430054407266164
    vertex -26.4556056541089 34.835442623557945 -2.3896252966403377
  endloop
endfacet
facet normal -0.24953747051273012 0.1483113099491508 -0.9569403357322102
  outer loop
    vertex -26.4556056541089 34.835442623557945 -2.3896252966403377
    vertex -25.642170284753263 35.85964631741865 -2.4430054407266164
    vertex -26.325331014096772 34.710211386175324 -2.4430054407266164
  endloop
endfacet
facet normal -0.7599074192587487 0.4515428443623361 -0.467600014821086
  outer loop
    vertex -28.043439384407577 35.94159186043757 -0.7997239904654315
    vertex -27.385081944254324 36.669316317404785 -1.1673602985757336
    vertex -27.895998715170027 35.809686133431995 -1.1673602985757334
  endloop
endfacet
facet normal -0.7599074192587487 0.4515428443623361 -0.467600014821086
  outer loop
    vertex -27.385081944254324 36.669316317404785 -1.1673602985757336
    vertex -28.043439384407577 35.94159186043757 -0.7997239904654315
    vertex -27.57141383694181 36.735786592938936 -0.8002463918664623
  endloop
endfacet
facet normal -0.7599074192587487 0.4515428443623361 -0.467600014821086
  outer loop
    vertex -27.57141383694181 36.735786592938936 -0.8002463918664623
    vertex -28.043439384407577 35.94159186043757 -0.7997239904654315
    vertex -27.667851504042613 36.7306901695904 -0.6486998966121952
  endloop
endfacet
facet normal -0.7599074192587487 0.4515428443623361 -0.467600014821086
  outer loop
    vertex -27.667851504042613 36.7306901695904 -0.6486998966121952
    vertex -28.043439384407577 35.94159186043757 -0.7997239904654315
    vertex -28.085052963083715 36.02873833045535 -0.6486998966121952
  endloop
endfacet
facet normal -0.4052268636018991 0.2408444985993308 -0.881921264348357
  outer loop
    vertex -26.437940407443854 36.17322788215127 -2.1218218336124792
    vertex -27.181505517074285 35.38634164293697 -1.995058436424564
    vertex -26.648326858516548 36.2834280069741 -1.9950584364245645
  endloop
endfacet
facet normal -0.4052268636018991 0.2408444985993308 -0.881921264348357
  outer loop
    vertex -27.181505517074285 35.38634164293697 -1.995058436424564
    vertex -26.437940407443854 36.17322788215127 -2.1218218336124792
    vertex -26.172612631775202 36.06867268877471 -2.2722881970507864
  endloop
endfacet
facet normal -0.4052268636018991 0.2408444985993308 -0.881921264348357
  outer loop
    vertex -27.181505517074285 35.38634164293697 -1.995058436424564
    vertex -26.172612631775202 36.06867268877471 -2.2722881970507864
    vertex -26.90809940195356 35.20145438255188 -2.171174591373571
  endloop
endfacet
facet normal -0.4052268636018991 0.2408444985993308 -0.881921264348357
  outer loop
    vertex -26.90809940195356 35.20145438255188 -2.171174591373571
    vertex -26.172612631775202 36.06867268877471 -2.2722881970507864
    vertex -26.75948568322655 35.081244172220806 -2.2722881970507864
  endloop
endfacet
facet normal 0.08507424156092745 0.05543250649966366 -0.9948314483599712
  outer loop
    vertex -18.23130378865581 34.710211386175324 -2.443005440726622
    vertex -19.11603974120794 35.780213486123905 -2.4640691778369583
    vertex -18.914464517999345 35.85964631741865 -2.443005440726622
  endloop
endfacet
facet normal 0.08507424156092745 0.05543250649966366 -0.9948314483599712
  outer loop
    vertex -19.11603974120794 35.780213486123905 -2.4640691778369583
    vertex -18.23130378865581 34.710211386175324 -2.443005440726622
    vertex -19.487446995375358 35.678172662830484 -2.5006495995169336
  endloop
endfacet
facet normal 0.08507424156092745 0.05543250649966366 -0.9948314483599712
  outer loop
    vertex -19.487446995375358 35.678172662830484 -2.5006495995169336
    vertex -18.23130378865581 34.710211386175324 -2.443005440726622
    vertex -18.52060138102123 34.4321135502468 -2.500649599516933
  endloop
endfacet
facet normal 0.08507424156092745 0.05543250649966366 -0.9948314483599712
  outer loop
    vertex -19.487446995375358 35.678172662830484 -2.5006495995169336
    vertex -18.52060138102123 34.4321135502468 -2.500649599516933
    vertex -18.655423084056782 34.278271722654644 -2.500649599516933
  endloop
endfacet
facet normal 0.24953747051272127 0.14831130994915076 -0.9569403357322126
  outer loop
    vertex -17.797149119526022 35.081244172220806 -2.272288197050792
    vertex -18.914464517999345 35.85964631741865 -2.443005440726622
    vertex -18.38402217097737 36.06867268877471 -2.272288197050792
  endloop
endfacet
facet normal 0.24953747051272127 0.14831130994915076 -0.9569403357322126
  outer loop
    vertex -18.914464517999345 35.85964631741865 -2.443005440726622
    vertex -17.797149119526022 35.081244172220806 -2.272288197050792
    vertex -18.101029148643647 34.835442623557945 -2.3896252966403435
  endloop
endfacet
facet normal 0.24953747051272127 0.14831130994915076 -0.9569403357322126
  outer loop
    vertex -18.914464517999345 35.85964631741865 -2.443005440726622
    vertex -18.101029148643647 34.835442623557945 -2.3896252966403435
    vertex -18.23130378865581 34.710211386175324 -2.443005440726622
  endloop
endfacet
facet normal -1.087665881106861e-15 -1.4206773123320473e-16 -1.0
  outer loop
    vertex -24.406910147208865 35.496217795406274 -2.5006495995169282
    vertex -25.90121171869575 34.278271722654644 -2.500649599516928
    vertex -25.06918780737724 35.678172662830484 -2.5006495995169282
  endloop
endfacet
facet normal -1.087665881106861e-15 -1.4206773123320473e-16 -1.0
  outer loop
    vertex -25.90121171869575 34.278271722654644 -2.500649599516928
    vertex -24.406910147208865 35.496217795406274 -2.5006495995169282
    vertex -23.348764337887452 35.32450436935262 -2.5006495995169282
  endloop
endfacet
facet normal -1.087665881106861e-15 -1.4206773123320473e-16 -1.0
  outer loop
    vertex -25.90121171869575 34.278271722654644 -2.500649599516928
    vertex -23.348764337887452 35.32450436935262 -2.5006495995169282
    vertex -22.27831740137627 35.26704646662904 -2.5006495995169282
  endloop
endfacet
facet normal -1.087665881106861e-15 -1.4206773123320473e-16 -1.0
  outer loop
    vertex -25.90121171869575 34.278271722654644 -2.500649599516928
    vertex -22.27831740137627 35.26704646662904 -2.5006495995169282
    vertex -18.655423084056782 34.278271722654644 -2.500649599516933
  endloop
endfacet
facet normal -1.087665881106861e-15 -1.4206773123320473e-16 -1.0
  outer loop
    vertex -25.90121171869575 34.278271722654644 -2.500649599516928
    vertex -18.655423084056782 34.278271722654644 -2.500649599516933
    vertex -20.653317401376263 34.26704646662904 -2.500649599516933
  endloop
endfacet
facet normal -1.087665881106861e-15 -1.4206773123320473e-16 -1.0
  outer loop
    vertex -20.653317401376263 34.26704646662904 -2.500649599516933
    vertex -18.655423084056782 34.278271722654644 -2.500649599516933
    vertex -18.904184529401874 33.994415974472474 -2.500649599516933
  endloop
endfacet
facet normal -1.087665881106861e-15 -1.4206773123320473e-16 -1.0
  outer loop
    vertex -20.653317401376263 34.26704646662904 -2.500649599516933
    vertex -18.904184529401874 33.994415974472474 -2.500649599516933
    vertex -20.653317401376263 32.51704646662904 -2.500649599516933
  endloop
endfacet
facet normal -1.087665881106861e-15 -1.4206773123320473e-16 -1.0
  outer loop
    vertex -20.653317401376263 32.51704646662904 -2.500649599516933
    vertex -18.904184529401874 33.994415974472474 -2.500649599516933
    vertex -19.24897414796259 33.525549982430924 -2.500649599516933
  endloop
endfacet
facet normal -1.087665881106861e-15 -1.4206773123320473e-16 -1.0
  outer loop
    vertex -20.653317401376263 32.51704646662904 -2.500649599516933
    vertex -19.24897414796259 33.525549982430924 -2.500649599516933
    vertex -19.552449417398105 33.02894353825065 -2.500649599516933
  endloop
endfacet
facet normal -1.087665881106861e-15 -1.4206773123320473e-16 -1.0
  outer loop
    vertex -20.653317401376263 32.51704646662904 -2.500649599516933
    vertex -19.552449417398105 33.02894353825065 -2.500649599516933
    vertex -19.812391575087215 32.508227421526506 -2.500649599516933
  endloop
endfacet
facet normal -1.087665881106861e-15 -1.4206773123320473e-16 -1.0
  outer loop
    vertex -20.653317401376263 32.51704646662904 -2.500649599516933
    vertex -19.812391575087215 32.508227421526506 -2.500649599516933
    vertex -23.903317401376274 32.51704646662904 -2.5006495995169273
  endloop
endfacet
facet normal -1.087665881106861e-15 -1.4206773123320473e-16 -1.0
  outer loop
    vertex -25.90121171869575 34.278271722654644 -2.500649599516928
    vertex -23.903317401376274 34.26704646662904 -2.500649599516928
    vertex -25.652450273350663 33.994415974472474 -2.500649599516928
  endloop
endfacet
facet normal -1.087665881106861e-15 -1.4206773123320473e-16 -1.0
  outer loop
    vertex -23.903317401376274 34.26704646662904 -2.500649599516928
    vertex -25.90121171869575 34.278271722654644 -2.500649599516928
    vertex -20.653317401376263 34.26704646662904 -2.500649599516933
  endloop
endfacet
facet normal -1.087665881106861e-15 -1.4206773123320473e-16 -1.0
  outer loop
    vertex -25.652450273350663 33.994415974472474 -2.500649599516928
    vertex -23.903317401376274 34.26704646662904 -2.500649599516928
    vertex -23.903317401376274 32.51704646662904 -2.5006495995169273
  endloop
endfacet
facet normal -1.087665881106861e-15 -1.4206773123320473e-16 -1.0
  outer loop
    vertex -25.652450273350663 33.994415974472474 -2.500649599516928
    vertex -23.903317401376274 32.51704646662904 -2.5006495995169273
    vertex -25.307660654789952 33.525549982430924 -2.500649599516928
  endloop
endfacet
facet normal -1.087665881106861e-15 -1.4206773123320473e-16 -1.0
  outer loop
    vertex -25.307660654789952 33.525549982430924 -2.500649599516928
    vertex -23.903317401376274 32.51704646662904 -2.5006495995169273
    vertex -25.004185385354436 33.02894353825065 -2.500649599516928
  endloop
endfacet
facet normal -1.087665881106861e-15 -1.4206773123320473e-16 -1.0
  outer loop
    vertex -25.004185385354436 33.02894353825065 -2.500649599516928
    vertex -23.903317401376274 32.51704646662904 -2.5006495995169273
    vertex -24.744243227665322 32.508227421526506 -2.5006495995169273
  endloop
endfacet
facet normal -1.087665881106861e-15 -1.4206773123320473e-16 -1.0
  outer loop
    vertex -24.744243227665322 32.508227421526506 -2.5006495995169273
    vertex -23.903317401376274 32.51704646662904 -2.5006495995169273
    vertex -19.812391575087215 32.508227421526506 -2.500649599516933
  endloop
endfacet
facet normal -1.087665881106861e-15 -1.4206773123320473e-16 -1.0
  outer loop
    vertex -24.744243227665322 32.508227421526506 -2.5006495995169273
    vertex -19.812391575087215 32.508227421526506 -2.500649599516933
    vertex -19.912291997591822 32.26704646662904 -2.500649599516933
  endloop
endfacet
facet normal -1.087665881106861e-15 -1.4206773123320473e-16 -1.0
  outer loop
    vertex -24.744243227665322 32.508227421526506 -2.5006495995169273
    vertex -19.912291997591822 32.26704646662904 -2.500649599516933
    vertex -24.644342805160715 32.26704646662904 -2.5006495995169273
  endloop
endfacet
facet normal -1.087665881106861e-15 -1.4206773123320473e-16 -1.0
  outer loop
    vertex -24.644342805160715 32.26704646662904 -2.5006495995169273
    vertex -19.912291997591822 32.26704646662904 -2.500649599516933
    vertex -20.07121062018972 32.059939685442494 -2.500649599516933
  endloop
endfacet
facet normal -1.087665881106861e-15 -1.4206773123320473e-16 -1.0
  outer loop
    vertex -24.644342805160715 32.26704646662904 -2.5006495995169273
    vertex -20.07121062018972 32.059939685442494 -2.500649599516933
    vertex -24.485424182562816 32.059939685442494 -2.5006495995169273
  endloop
endfacet
facet normal -1.087665881106861e-15 -1.4206773123320473e-16 -1.0
  outer loop
    vertex -24.485424182562816 32.059939685442494 -2.5006495995169273
    vertex -20.07121062018972 32.059939685442494 -2.500649599516933
    vertex -20.278317401376263 31.9010210628446 -2.500649599516933
  endloop
endfacet
facet normal -1.087665881106861e-15 -1.4206773123320473e-16 -1.0
  outer loop
    vertex -24.485424182562816 32.059939685442494 -2.5006495995169273
    vertex -20.278317401376263 31.9010210628446 -2.500649599516933
    vertex -24.278317401376274 31.9010210628446 -2.5006495995169273
  endloop
endfacet
facet normal -1.087665881106861e-15 -1.4206773123320473e-16 -1.0
  outer loop
    vertex -24.278317401376274 31.9010210628446 -2.5006495995169273
    vertex -20.278317401376263 31.9010210628446 -2.500649599516933
    vertex -20.519498356273747 31.801120640339974 -2.500649599516933
  endloop
endfacet
facet normal -1.087665881106861e-15 -1.4206773123320473e-16 -1.0
  outer loop
    vertex -24.278317401376274 31.9010210628446 -2.5006495995169273
    vertex -20.519498356273747 31.801120640339974 -2.500649599516933
    vertex -24.03713644647879 31.801120640339974 -2.5006495995169273
  endloop
endfacet
facet normal -1.087665881106861e-15 -1.4206773123320473e-16 -1.0
  outer loop
    vertex -24.03713644647879 31.801120640339974 -2.5006495995169273
    vertex -20.519498356273747 31.801120640339974 -2.500649599516933
    vertex -20.778317401376263 31.76704646662904 -2.500649599516933
  endloop
endfacet
facet normal -1.087665881106861e-15 -1.4206773123320473e-16 -1.0
  outer loop
    vertex -24.03713644647879 31.801120640339974 -2.5006495995169273
    vertex -20.778317401376263 31.76704646662904 -2.500649599516933
    vertex -23.778317401376274 31.76704646662904 -2.5006495995169273
  endloop
endfacet
facet normal -1.087665881106861e-15 -1.4206773123320473e-16 -1.0
  outer loop
    vertex -18.655423084056782 34.278271722654644 -2.500649599516933
    vertex -20.14972465554367 35.496217795406274 -2.5006495995169336
    vertex -19.487446995375358 35.678172662830484 -2.5006495995169336
  endloop
endfacet
facet normal -1.087665881106861e-15 -1.4206773123320473e-16 -1.0
  outer loop
    vertex -20.14972465554367 35.496217795406274 -2.5006495995169336
    vertex -18.655423084056782 34.278271722654644 -2.500649599516933
    vertex -21.207870464865085 35.32450436935262 -2.5006495995169336
  endloop
endfacet
facet normal -1.087665881106861e-15 -1.4206773123320473e-16 -1.0
  outer loop
    vertex -21.207870464865085 35.32450436935262 -2.5006495995169336
    vertex -18.655423084056782 34.278271722654644 -2.500649599516933
    vertex -22.27831740137627 35.26704646662904 -2.5006495995169282
  endloop
endfacet
facet normal -0.6087614290087265 -0.7933533402912306 4.643333880352228e-16
  outer loop
    vertex -24.278317401376274 31.9010210628446 -2.5006495995169273
    vertex -24.485424182562802 32.0599396854425 32.49935040048307
    vertex -24.485424182562816 32.059939685442494 -2.5006495995169273
  endloop
endfacet
facet normal -0.6087614290087265 -0.7933533402912306 4.643333880352228e-16
  outer loop
    vertex -24.485424182562802 32.0599396854425 32.49935040048307
    vertex -24.278317401376274 31.9010210628446 -2.5006495995169273
    vertex -24.27831740137626 31.901021062844613 32.49935040048307
  endloop
endfacet
facet normal 0.405226863601868 0.24084449859931656 -0.8819212643483754
  outer loop
    vertex -17.3751292856782 35.38634164293697 -1.9950584364245698
    vertex -18.118694395308662 36.17322788215127 -2.121821833612485
    vertex -17.908307944236014 36.2834280069741 -1.99505843642457
  endloop
endfacet
facet normal 0.405226863601868 0.24084449859931656 -0.8819212643483754
  outer loop
    vertex -18.118694395308662 36.17322788215127 -2.121821833612485
    vertex -17.3751292856782 35.38634164293697 -1.9950584364245698
    vertex -18.38402217097737 36.06867268877471 -2.272288197050792
  endloop
endfacet
facet normal 0.405226863601868 0.24084449859931656 -0.8819212643483754
  outer loop
    vertex -18.38402217097737 36.06867268877471 -2.272288197050792
    vertex -17.3751292856782 35.38634164293697 -1.9950584364245698
    vertex -17.64853540079901 35.20145438255188 -2.171174591373577
  endloop
endfacet
facet normal 0.405226863601868 0.24084449859931656 -0.8819212643483754
  outer loop
    vertex -18.38402217097737 36.06867268877471 -2.272288197050792
    vertex -17.64853540079901 35.20145438255188 -2.171174591373577
    vertex -17.797149119526022 35.081244172220806 -2.272288197050792
  endloop
endfacet
facet normal 0.662500804468923 0.3937539398442496 -0.6372209341626819
  outer loop
    vertex -17.171552858498202 36.669316317404785 -1.1673602985757392
    vertex -16.989009225234586 35.62647700918495 -1.6219699430765757
    vertex -17.50503519873474 36.49470355367595 -1.6219699430765762
  endloop
endfacet
facet normal 0.662500804468923 0.3937539398442496 -0.6372209341626819
  outer loop
    vertex -16.989009225234586 35.62647700918495 -1.6219699430765757
    vertex -17.171552858498202 36.669316317404785 -1.1673602985757392
    vertex -16.66063608758252 35.809686133431995 -1.167360298575739
  endloop
endfacet
facet normal -0.4639936212670888 0.885838540267612 -4.778913592131221e-17
  outer loop
    vertex -17.908307944235986 36.28342800697411 31.99375923739074
    vertex -18.118694395308662 36.17322788215127 -2.121821833612485
    vertex -18.118694395308694 36.17322788215128 32.120522634578634
  endloop
endfacet
facet normal -0.4639936212670888 0.885838540267612 -4.778913592131221e-17
  outer loop
    vertex -18.118694395308662 36.17322788215127 -2.121821833612485
    vertex -17.908307944235986 36.28342800697411 31.99375923739074
    vertex -17.908307944236014 36.2834280069741 -1.99505843642457
  endloop
endfacet
facet normal -0.4639936212670888 0.885838540267612 -4.778913592131221e-17
  outer loop
    vertex -17.908307944236014 36.2834280069741 -1.99505843642457
    vertex -17.908307944235986 36.28342800697411 31.99375923739074
    vertex -17.50503519873474 36.49470355367595 -1.6219699430765762
  endloop
endfacet
facet normal -0.4639936212670888 0.885838540267612 -4.778913592131221e-17
  outer loop
    vertex -17.50503519873474 36.49470355367595 -1.6219699430765762
    vertex -17.908307944235986 36.28342800697411 31.99375923739074
    vertex -17.505035198734685 36.49470355367596 31.620670744042688
  endloop
endfacet
facet normal -0.4639936212670888 0.885838540267612 -4.778913592131221e-17
  outer loop
    vertex -17.50503519873474 36.49470355367595 -1.6219699430765762
    vertex -17.505035198734685 36.49470355367596 31.620670744042688
    vertex -17.171552858498202 36.669316317404785 -1.1673602985757392
  endloop
endfacet
facet normal -0.4639936212670888 0.885838540267612 -4.778913592131221e-17
  outer loop
    vertex -17.171552858498202 36.669316317404785 -1.1673602985757392
    vertex -17.505035198734685 36.49470355367596 31.620670744042688
    vertex -17.171552858498192 36.6693163174048 31.1660610995419
  endloop
endfacet
facet normal 0.7933533402912271 -0.6087614290087315 -1.5137100872921635e-16
  outer loop
    vertex -19.912291997591808 32.267046466629054 32.49935040048305
    vertex -20.07121062018972 32.059939685442494 -2.500649599516933
    vertex -19.912291997591822 32.26704646662904 -2.500649599516933
  endloop
endfacet
facet normal 0.7933533402912271 -0.6087614290087315 -1.5137100872921635e-16
  outer loop
    vertex -20.07121062018972 32.059939685442494 -2.500649599516933
    vertex -19.912291997591808 32.267046466629054 32.49935040048305
    vertex -20.071210620189706 32.0599396854425 32.49935040048305
  endloop
endfacet
facet normal 0.8947128543955147 -0.4466418119471473 -2.396035850802375e-16
  outer loop
    vertex -19.55244941739809 33.02894353825066 32.49935040048305
    vertex -19.812391575087215 32.508227421526506 -2.500649599516933
    vertex -19.552449417398105 33.02894353825065 -2.500649599516933
  endloop
endfacet
facet normal 0.8947128543955147 -0.4466418119471473 -2.396035850802375e-16
  outer loop
    vertex -19.812391575087215 32.508227421526506 -2.500649599516933
    vertex -19.55244941739809 33.02894353825066 32.49935040048305
    vertex -19.8123915750872 32.50822742152652 32.49935040048305
  endloop
endfacet
facet normal 0.805622135737949 -0.5924297210716439 -1.6732664646424083e-16
  outer loop
    vertex -18.90418452940186 33.99441597447248 32.49935040048305
    vertex -19.24897414796259 33.525549982430924 -2.500649599516933
    vertex -18.904184529401874 33.994415974472474 -2.500649599516933
  endloop
endfacet
facet normal 0.805622135737949 -0.5924297210716439 -1.6732664646424083e-16
  outer loop
    vertex -19.24897414796259 33.525549982430924 -2.500649599516933
    vertex -18.90418452940186 33.99441597447248 32.49935040048305
    vertex -19.248974147962574 33.52554998243094 32.49935040048305
  endloop
endfacet
facet normal 0.9238795325113066 -0.3826834323650421 -2.6646101222063626e-16
  outer loop
    vertex -19.8123915750872 32.50822742152652 32.49935040048305
    vertex -19.912291997591822 32.26704646662904 -2.500649599516933
    vertex -19.812391575087215 32.508227421526506 -2.500649599516933
  endloop
endfacet
facet normal 0.9238795325113066 -0.3826834323650421 -2.6646101222063626e-16
  outer loop
    vertex -19.912291997591822 32.26704646662904 -2.500649599516933
    vertex -19.8123915750872 32.50822742152652 32.49935040048305
    vertex -19.912291997591808 32.267046466629054 32.49935040048305
  endloop
endfacet
facet normal -0.8947128543955145 -0.44664181194714725 4.815652394803453e-16
  outer loop
    vertex -24.74424322766531 32.50822742152652 32.49935040048307
    vertex -25.004185385354436 33.02894353825065 -2.500649599516928
    vertex -24.744243227665322 32.508227421526506 -2.5006495995169273
  endloop
endfacet
facet normal -0.8947128543955145 -0.44664181194714725 4.815652394803453e-16
  outer loop
    vertex -25.004185385354436 33.02894353825065 -2.500649599516928
    vertex -24.74424322766531 32.50822742152652 32.49935040048307
    vertex -25.004185385354422 33.02894353825066 32.49935040048307
  endloop
endfacet
facet normal -0.6930142833164652 -0.7209238538981535 6.050536725133157e-16
  outer loop
    vertex -26.325331014096772 34.710211386175324 -2.4430054407266164
    vertex -26.455605654108894 34.83544262355796 32.38832609760644
    vertex -26.4556056541089 34.835442623557945 -2.3896252966403377
  endloop
endfacet
facet normal -0.6930142833164652 -0.7209238538981535 6.050536725133157e-16
  outer loop
    vertex -26.455605654108894 34.83544262355796 32.38832609760644
    vertex -26.325331014096772 34.710211386175324 -2.4430054407266164
    vertex -26.325331014096726 34.71021138617533 32.44170624169271
  endloop
endfacet
facet normal -0.6930142833164652 -0.7209238538981535 6.050536725133157e-16
  outer loop
    vertex -26.325331014096726 34.71021138617533 32.44170624169271
    vertex -26.325331014096772 34.710211386175324 -2.4430054407266164
    vertex -26.036033421731307 34.4321135502468 -2.4814932997855155
  endloop
endfacet
facet normal -0.6930142833164652 -0.7209238538981535 6.050536725133157e-16
  outer loop
    vertex -26.325331014096726 34.71021138617533 32.44170624169271
    vertex -26.036033421731307 34.4321135502468 -2.4814932997855155
    vertex -26.036033421731297 34.432113550246804 32.4801941007516
  endloop
endfacet
facet normal 0.6087614290087265 -0.7933533402912306 -2.6209872400714395e-17
  outer loop
    vertex -20.07121062018972 32.059939685442494 -2.500649599516933
    vertex -20.27831740137625 31.901021062844613 32.49935040048305
    vertex -20.278317401376263 31.9010210628446 -2.500649599516933
  endloop
endfacet
facet normal 0.6087614290087265 -0.7933533402912306 -2.6209872400714395e-17
  outer loop
    vertex -20.27831740137625 31.901021062844613 32.49935040048305
    vertex -20.07121062018972 32.059939685442494 -2.500649599516933
    vertex -20.071210620189706 32.0599396854425 32.49935040048305
  endloop
endfacet
facet normal 0.382683432365083 -0.9238795325112897 1.0112964438188532e-16
  outer loop
    vertex -20.278317401376263 31.9010210628446 -2.500649599516933
    vertex -20.519498356273733 31.801120640339985 32.49935040048305
    vertex -20.519498356273747 31.801120640339974 -2.500649599516933
  endloop
endfacet
facet normal 0.382683432365083 -0.9238795325112897 1.0112964438188532e-16
  outer loop
    vertex -20.519498356273733 31.801120640339985 32.49935040048305
    vertex -20.278317401376263 31.9010210628446 -2.500649599516933
    vertex -20.27831740137625 31.901021062844613 32.49935040048305
  endloop
endfacet
facet normal -0.1305261922200536 -0.9914448613738103 3.2643332172800026e-16
  outer loop
    vertex -23.778317401376274 31.76704646662904 -2.5006495995169273
    vertex -24.037136446478776 31.801120640339985 32.49935040048307
    vertex -24.03713644647879 31.801120640339974 -2.5006495995169273
  endloop
endfacet
facet normal -0.1305261922200536 -0.9914448613738103 3.2643332172800026e-16
  outer loop
    vertex -24.037136446478776 31.801120640339985 32.49935040048307
    vertex -23.778317401376274 31.76704646662904 -2.5006495995169273
    vertex -23.77831740137626 31.767046466629054 32.49935040048307
  endloop
endfacet
facet normal 0.853286762044145 -0.5214419447265621 -2.0505067024317318e-16
  outer loop
    vertex -19.248974147962574 33.52554998243094 32.49935040048305
    vertex -19.552449417398105 33.02894353825065 -2.500649599516933
    vertex -19.24897414796259 33.525549982430924 -2.500649599516933
  endloop
endfacet
facet normal 0.853286762044145 -0.5214419447265621 -2.0505067024317318e-16
  outer loop
    vertex -19.552449417398105 33.02894353825065 -2.500649599516933
    vertex -19.248974147962574 33.52554998243094 32.49935040048305
    vertex -19.55244941739809 33.02894353825066 32.49935040048305
  endloop
endfacet
facet normal -0.853286762044145 -0.5214419447265621 4.825324294639509e-16
  outer loop
    vertex -25.004185385354422 33.02894353825066 32.49935040048307
    vertex -25.307660654789952 33.525549982430924 -2.500649599516928
    vertex -25.004185385354436 33.02894353825065 -2.500649599516928
  endloop
endfacet
facet normal -0.853286762044145 -0.5214419447265621 4.825324294639509e-16
  outer loop
    vertex -25.307660654789952 33.525549982430924 -2.500649599516928
    vertex -25.004185385354422 33.02894353825066 32.49935040048307
    vertex -25.307660654789938 33.52554998243094 32.49935040048307
  endloop
endfacet
facet normal 1.2496331512804038e-31 -1.0 2.7620762819781575e-16
  outer loop
    vertex -20.778317401376263 31.76704646662904 -2.500649599516933
    vertex -23.77831740137626 31.767046466629054 32.49935040048307
    vertex -23.778317401376274 31.76704646662904 -2.5006495995169273
  endloop
endfacet
facet normal 1.2496331512804038e-31 -1.0 2.7620762819781575e-16
  outer loop
    vertex -23.77831740137626 31.767046466629054 32.49935040048307
    vertex -20.778317401376263 31.76704646662904 -2.500649599516933
    vertex -20.77831740137625 31.767046466629054 32.49935040048305
  endloop
endfacet
facet normal -1.2249702015486683e-15 1.6013830034980307e-16 1.0
  outer loop
    vertex -25.652450273350652 33.99441597447248 32.49935040048307
    vertex -23.90331740137626 34.26704646662905 32.49935040048307
    vertex -25.90121171869573 34.27827172265466 32.49935040048303
  endloop
endfacet
facet normal -1.2249702015486683e-15 1.6013830034980307e-16 1.0
  outer loop
    vertex -23.90331740137626 34.26704646662905 32.49935040048307
    vertex -25.652450273350652 33.99441597447248 32.49935040048307
    vertex -23.90331740137626 32.51704646662905 32.49935040048307
  endloop
endfacet
facet normal -1.2249702015486683e-15 1.6013830034980307e-16 1.0
  outer loop
    vertex -23.90331740137626 32.51704646662905 32.49935040048307
    vertex -25.652450273350652 33.99441597447248 32.49935040048307
    vertex -25.307660654789938 33.52554998243094 32.49935040048307
  endloop
endfacet
facet normal -1.2249702015486683e-15 1.6013830034980307e-16 1.0
  outer loop
    vertex -23.90331740137626 32.51704646662905 32.49935040048307
    vertex -25.307660654789938 33.52554998243094 32.49935040048307
    vertex -25.004185385354422 33.02894353825066 32.49935040048307
  endloop
endfacet
facet normal -1.2249702015486683e-15 1.6013830034980307e-16 1.0
  outer loop
    vertex -23.90331740137626 32.51704646662905 32.49935040048307
    vertex -25.004185385354422 33.02894353825066 32.49935040048307
    vertex -24.74424322766531 32.50822742152652 32.49935040048307
  endloop
endfacet
facet normal -1.2249702015486683e-15 1.6013830034980307e-16 1.0
  outer loop
    vertex -23.90331740137626 32.51704646662905 32.49935040048307
    vertex -24.74424322766531 32.50822742152652 32.49935040048307
    vertex -20.65331740137625 32.51704646662905 32.49935040048305
  endloop
endfacet
facet normal -1.2249702015486683e-15 1.6013830034980307e-16 1.0
  outer loop
    vertex -25.90121171869573 34.27827172265466 32.49935040048303
    vertex -24.40691014720885 35.49621779540628 32.49935040048307
    vertex -25.069187807377173 35.67817266283049 32.499350400483024
  endloop
endfacet
facet normal -1.2249702015486683e-15 1.6013830034980307e-16 1.0
  outer loop
    vertex -24.40691014720885 35.49621779540628 32.49935040048307
    vertex -25.90121171869573 34.27827172265466 32.49935040048303
    vertex -23.348764337887438 35.324504369352624 32.49935040048307
  endloop
endfacet
facet normal -1.2249702015486683e-15 1.6013830034980307e-16 1.0
  outer loop
    vertex -23.348764337887438 35.324504369352624 32.49935040048307
    vertex -25.90121171869573 34.27827172265466 32.49935040048303
    vertex -22.278317401376256 35.26704646662905 32.49935040048307
  endloop
endfacet
facet normal -1.2249702015486683e-15 1.6013830034980307e-16 1.0
  outer loop
    vertex -22.278317401376256 35.26704646662905 32.49935040048307
    vertex -25.90121171869573 34.27827172265466 32.49935040048303
    vertex -18.655423084056757 34.278271722654665 32.49935040048311
  endloop
endfacet
facet normal -1.2249702015486683e-15 1.6013830034980307e-16 1.0
  outer loop
    vertex -18.655423084056757 34.278271722654665 32.49935040048311
    vertex -25.90121171869573 34.27827172265466 32.49935040048303
    vertex -20.65331740137625 34.26704646662905 32.49935040048305
  endloop
endfacet
facet normal -1.2249702015486683e-15 1.6013830034980307e-16 1.0
  outer loop
    vertex -18.655423084056757 34.278271722654665 32.49935040048311
    vertex -20.65331740137625 34.26704646662905 32.49935040048305
    vertex -18.90418452940186 33.99441597447248 32.49935040048305
  endloop
endfacet
facet normal -1.2249702015486683e-15 1.6013830034980307e-16 1.0
  outer loop
    vertex -20.65331740137625 34.26704646662905 32.49935040048305
    vertex -25.90121171869573 34.27827172265466 32.49935040048303
    vertex -23.90331740137626 34.26704646662905 32.49935040048307
  endloop
endfacet
facet normal -1.2249702015486683e-15 1.6013830034980307e-16 1.0
  outer loop
    vertex -18.90418452940186 33.99441597447248 32.49935040048305
    vertex -20.65331740137625 34.26704646662905 32.49935040048305
    vertex -20.65331740137625 32.51704646662905 32.49935040048305
  endloop
endfacet
facet normal -1.2249702015486683e-15 1.6013830034980307e-16 1.0
  outer loop
    vertex -18.90418452940186 33.99441597447248 32.49935040048305
    vertex -20.65331740137625 32.51704646662905 32.49935040048305
    vertex -19.248974147962574 33.52554998243094 32.49935040048305
  endloop
endfacet
facet normal -1.2249702015486683e-15 1.6013830034980307e-16 1.0
  outer loop
    vertex -19.248974147962574 33.52554998243094 32.49935040048305
    vertex -20.65331740137625 32.51704646662905 32.49935040048305
    vertex -19.55244941739809 33.02894353825066 32.49935040048305
  endloop
endfacet
facet normal -1.2249702015486683e-15 1.6013830034980307e-16 1.0
  outer loop
    vertex -19.55244941739809 33.02894353825066 32.49935040048305
    vertex -20.65331740137625 32.51704646662905 32.49935040048305
    vertex -19.8123915750872 32.50822742152652 32.49935040048305
  endloop
endfacet
facet normal -1.2249702015486683e-15 1.6013830034980307e-16 1.0
  outer loop
    vertex -19.8123915750872 32.50822742152652 32.49935040048305
    vertex -20.65331740137625 32.51704646662905 32.49935040048305
    vertex -24.74424322766531 32.50822742152652 32.49935040048307
  endloop
endfacet
facet normal -1.2249702015486683e-15 1.6013830034980307e-16 1.0
  outer loop
    vertex -19.8123915750872 32.50822742152652 32.49935040048305
    vertex -24.74424322766531 32.50822742152652 32.49935040048307
    vertex -24.6443428051607 32.267046466629054 32.49935040048307
  endloop
endfacet
facet normal -1.2249702015486683e-15 1.6013830034980307e-16 1.0
  outer loop
    vertex -19.8123915750872 32.50822742152652 32.49935040048305
    vertex -24.6443428051607 32.267046466629054 32.49935040048307
    vertex -19.912291997591808 32.267046466629054 32.49935040048305
  endloop
endfacet
facet normal -1.2249702015486683e-15 1.6013830034980307e-16 1.0
  outer loop
    vertex -19.912291997591808 32.267046466629054 32.49935040048305
    vertex -24.6443428051607 32.267046466629054 32.49935040048307
    vertex -24.485424182562802 32.0599396854425 32.49935040048307
  endloop
endfacet
facet normal -1.2249702015486683e-15 1.6013830034980307e-16 1.0
  outer loop
    vertex -19.912291997591808 32.267046466629054 32.49935040048305
    vertex -24.485424182562802 32.0599396854425 32.49935040048307
    vertex -20.071210620189706 32.0599396854425 32.49935040048305
  endloop
endfacet
facet normal -1.2249702015486683e-15 1.6013830034980307e-16 1.0
  outer loop
    vertex -20.071210620189706 32.0599396854425 32.49935040048305
    vertex -24.485424182562802 32.0599396854425 32.49935040048307
    vertex -24.27831740137626 31.901021062844613 32.49935040048307
  endloop
endfacet
facet normal -1.2249702015486683e-15 1.6013830034980307e-16 1.0
  outer loop
    vertex -20.071210620189706 32.0599396854425 32.49935040048305
    vertex -24.27831740137626 31.901021062844613 32.49935040048307
    vertex -20.27831740137625 31.901021062844613 32.49935040048305
  endloop
endfacet
facet normal -1.2249702015486683e-15 1.6013830034980307e-16 1.0
  outer loop
    vertex -20.27831740137625 31.901021062844613 32.49935040048305
    vertex -24.27831740137626 31.901021062844613 32.49935040048307
    vertex -24.037136446478776 31.801120640339985 32.49935040048307
  endloop
endfacet
facet normal -1.2249702015486683e-15 1.6013830034980307e-16 1.0
  outer loop
    vertex -20.27831740137625 31.901021062844613 32.49935040048305
    vertex -24.037136446478776 31.801120640339985 32.49935040048307
    vertex -20.519498356273733 31.801120640339985 32.49935040048305
  endloop
endfacet
facet normal -1.2249702015486683e-15 1.6013830034980307e-16 1.0
  outer loop
    vertex -20.519498356273733 31.801120640339985 32.49935040048305
    vertex -24.037136446478776 31.801120640339985 32.49935040048307
    vertex -23.77831740137626 31.767046466629054 32.49935040048307
  endloop
endfacet
facet normal -1.2249702015486683e-15 1.6013830034980307e-16 1.0
  outer loop
    vertex -20.519498356273733 31.801120640339985 32.49935040048305
    vertex -23.77831740137626 31.767046466629054 32.49935040048307
    vertex -20.77831740137625 31.767046466629054 32.49935040048305
  endloop
endfacet
facet normal -1.2249702015486683e-15 1.6013830034980307e-16 1.0
  outer loop
    vertex -20.149724655543658 35.49621779540628 32.49935040048305
    vertex -18.655423084056757 34.278271722654665 32.49935040048311
    vertex -19.48744699537527 35.67817266283049 32.49935040048309
  endloop
endfacet
facet normal -1.2249702015486683e-15 1.6013830034980307e-16 1.0
  outer loop
    vertex -18.655423084056757 34.278271722654665 32.49935040048311
    vertex -20.149724655543658 35.49621779540628 32.49935040048305
    vertex -21.20787046486507 35.324504369352624 32.49935040048305
  endloop
endfacet
facet normal -1.2249702015486683e-15 1.6013830034980307e-16 1.0
  outer loop
    vertex -18.655423084056757 34.278271722654665 32.49935040048311
    vertex -21.20787046486507 35.324504369352624 32.49935040048305
    vertex -22.278317401376256 35.26704646662905 32.49935040048307
  endloop
endfacet
facet normal 0.7520674601867797 -0.6590861365012974 -1.175974384016545e-16
  outer loop
    vertex -18.520601381021216 34.432113550246804 32.48019410075174
    vertex -18.655423084056782 34.278271722654644 -2.500649599516933
    vertex -18.52060138102123 34.4321135502468 -2.500649599516933
  endloop
endfacet
facet normal 0.7520674601867797 -0.6590861365012974 -1.175974384016545e-16
  outer loop
    vertex -18.655423084056782 34.278271722654644 -2.500649599516933
    vertex -18.520601381021216 34.432113550246804 32.48019410075174
    vertex -18.904184529401874 33.994415974472474 -2.500649599516933
  endloop
endfacet
facet normal 0.7520674601867797 -0.6590861365012974 -1.175974384016545e-16
  outer loop
    vertex -18.904184529401874 33.994415974472474 -2.500649599516933
    vertex -18.520601381021216 34.432113550246804 32.48019410075174
    vertex -18.90418452940186 33.99441597447248 32.49935040048305
  endloop
endfacet
facet normal 0.7520674601867797 -0.6590861365012974 -1.175974384016545e-16
  outer loop
    vertex -18.90418452940186 33.99441597447248 32.49935040048305
    vertex -18.520601381021216 34.432113550246804 32.48019410075174
    vertex -18.655423084056757 34.278271722654665 32.49935040048311
  endloop
endfacet
facet normal -0.805622135737949 -0.592429721071644 4.822160517694389e-16
  outer loop
    vertex -25.307660654789938 33.52554998243094 32.49935040048307
    vertex -25.652450273350663 33.994415974472474 -2.500649599516928
    vertex -25.307660654789952 33.525549982430924 -2.500649599516928
  endloop
endfacet
facet normal -0.805622135737949 -0.592429721071644 4.822160517694389e-16
  outer loop
    vertex -25.652450273350663 33.994415974472474 -2.500649599516928
    vertex -25.307660654789938 33.52554998243094 32.49935040048307
    vertex -25.652450273350652 33.99441597447248 32.49935040048307
  endloop
endfacet
facet normal 0.7600968445497827 0.45161810796597246 0.4672192969716672
  outer loop
    vertex -16.985220965810694 36.73578659293894 30.79894719283259
    vertex -16.66063608758248 35.809686133432 31.166061099541853
    vertex -16.513195418344942 35.94159186043758 30.798424791431593
  endloop
endfacet
facet normal 0.7600968445497827 0.45161810796597246 0.4672192969716672
  outer loop
    vertex -16.66063608758248 35.809686133432 31.166061099541853
    vertex -16.985220965810694 36.73578659293894 30.79894719283259
    vertex -17.171552858498192 36.6693163174048 31.1660610995419
  endloop
endfacet
facet normal -0.7933533402912271 -0.6087614290087315 4.875550063438044e-16
  outer loop
    vertex -24.485424182562802 32.0599396854425 32.49935040048307
    vertex -24.644342805160715 32.26704646662904 -2.5006495995169273
    vertex -24.485424182562816 32.059939685442494 -2.5006495995169273
  endloop
endfacet
facet normal -0.7933533402912271 -0.6087614290087315 4.875550063438044e-16
  outer loop
    vertex -24.644342805160715 32.26704646662904 -2.5006495995169273
    vertex -24.485424182562802 32.0599396854425 32.49935040048307
    vertex -24.6443428051607 32.267046466629054 32.49935040048307
  endloop
endfacet
facet normal 0.13052619222005357 -0.9914448613738103 2.2128442083391764e-16
  outer loop
    vertex -20.519498356273747 31.801120640339974 -2.500649599516933
    vertex -20.77831740137625 31.767046466629054 32.49935040048305
    vertex -20.778317401376263 31.76704646662904 -2.500649599516933
  endloop
endfacet
facet normal 0.13052619222005357 -0.9914448613738103 2.2128442083391764e-16
  outer loop
    vertex -20.77831740137625 31.767046466629054 32.49935040048305
    vertex -20.519498356273747 31.801120640339974 -2.500649599516933
    vertex -20.519498356273733 31.801120640339985 32.49935040048305
  endloop
endfacet
facet normal -0.9999510562471972 -0.009893690419403392 1.210192059808311e-15
  outer loop
    vertex -28.127505018859082 36.11764072538312 30.385122528148678
    vertex -28.129383087470085 36.30745631609085 -0.08592056556531495
    vertex -28.127505018859136 36.11764072538311 -0.3864217271825916
  endloop
endfacet
facet normal -0.9999510562471972 -0.009893690419403392 1.210192059808311e-15
  outer loop
    vertex -28.129383087470085 36.30745631609085 -0.08592056556531495
    vertex -28.127505018859082 36.11764072538312 30.385122528148678
    vertex -28.12938308747006 36.30745631609086 30.08462136653137
  endloop
endfacet
facet normal 0.693014283316475 -0.7209238538981441 -3.843153179288268e-16
  outer loop
    vertex -18.23130378865581 34.710211386175324 -2.443005440726622
    vertex -18.520601381021216 34.432113550246804 32.48019410075174
    vertex -18.52060138102123 34.4321135502468 -2.500649599516933
  endloop
endfacet
facet normal 0.693014283316475 -0.7209238538981441 -3.843153179288268e-16
  outer loop
    vertex -18.520601381021216 34.432113550246804 32.48019410075174
    vertex -18.23130378865581 34.710211386175324 -2.443005440726622
    vertex -18.231303788655758 34.71021138617533 32.441706241692806
  endloop
endfacet
facet normal 0.693014283316475 -0.7209238538981441 -3.843153179288268e-16
  outer loop
    vertex -18.231303788655758 34.71021138617533 32.441706241692806
    vertex -18.23130378865581 34.710211386175324 -2.443005440726622
    vertex -18.101029148643647 34.835442623557945 -2.3896252966403435
  endloop
endfacet
facet normal 0.693014283316475 -0.7209238538981441 -3.843153179288268e-16
  outer loop
    vertex -18.231303788655758 34.71021138617533 32.441706241692806
    vertex -18.101029148643647 34.835442623557945 -2.3896252966403435
    vertex -18.10102914864363 34.83544262355796 32.38832609760646
  endloop
endfacet
facet normal -0.6667531082419519 -0.7452786677811837 2.0774999312658536e-16
  outer loop
    vertex -28.043439384407577 35.94159186043757 -0.7997239904654315
    vertex -27.895998715170006 35.809686133432 31.166061099541785
    vertex -28.0434393844076 35.94159186043758 30.798424791431525
  endloop
endfacet
facet normal -0.6667531082419519 -0.7452786677811837 2.0774999312658536e-16
  outer loop
    vertex -27.895998715170006 35.809686133432 31.166061099541785
    vertex -28.043439384407577 35.94159186043757 -0.7997239904654315
    vertex -27.895998715170027 35.809686133431995 -1.1673602985757334
  endloop
endfacet
facet normal -0.7520674601867796 -0.6590861365012975 4.718604440797821e-16
  outer loop
    vertex -25.652450273350652 33.99441597447248 32.49935040048307
    vertex -25.90121171869575 34.278271722654644 -2.500649599516928
    vertex -25.652450273350663 33.994415974472474 -2.500649599516928
  endloop
endfacet
facet normal -0.7520674601867796 -0.6590861365012975 4.718604440797821e-16
  outer loop
    vertex -25.90121171869575 34.278271722654644 -2.500649599516928
    vertex -25.652450273350652 33.99441597447248 32.49935040048307
    vertex -26.036033421731307 34.4321135502468 -2.4814932997855155
  endloop
endfacet
facet normal -0.7520674601867796 -0.6590861365012975 4.718604440797821e-16
  outer loop
    vertex -26.036033421731307 34.4321135502468 -2.4814932997855155
    vertex -25.652450273350652 33.99441597447248 32.49935040048307
    vertex -26.036033421731297 34.432113550246804 32.4801941007516
  endloop
endfacet
facet normal -0.7520674601867796 -0.6590861365012975 4.718604440797821e-16
  outer loop
    vertex -26.036033421731297 34.432113550246804 32.4801941007516
    vertex -25.652450273350652 33.99441597447248 32.49935040048307
    vertex -25.90121171869573 34.27827172265466 32.49935040048303
  endloop
endfacet
facet normal -0.9238795325113066 -0.38268343236504204 4.777951079481537e-16
  outer loop
    vertex -24.6443428051607 32.267046466629054 32.49935040048307
    vertex -24.744243227665322 32.508227421526506 -2.5006495995169273
    vertex -24.644342805160715 32.26704646662904 -2.5006495995169273
  endloop
endfacet
facet normal -0.9238795325113066 -0.38268343236504204 4.777951079481537e-16
  outer loop
    vertex -24.744243227665322 32.508227421526506 -2.5006495995169273
    vertex -24.6443428051607 32.267046466629054 32.49935040048307
    vertex -24.74424322766531 32.50822742152652 32.49935040048307
  endloop
endfacet
facet normal -0.5453436155766664 0.3241221682355193 0.773010453362744
  outer loop
    vertex -27.56762557751793 35.62647700918495 31.62067074404264
    vertex -26.64832685851647 36.28342800697411 31.993759237390616
    vertex -27.0515996040178 36.49470355367596 31.620670744042663
  endloop
endfacet
facet normal -0.5453436155766664 0.3241221682355193 0.773010453362744
  outer loop
    vertex -26.64832685851647 36.28342800697411 31.993759237390616
    vertex -27.56762557751793 35.62647700918495 31.62067074404264
    vertex -27.39020640157735 35.52747284901364 31.787348771976994
  endloop
endfacet
facet normal -0.5453436155766664 0.3241221682355193 0.773010453362744
  outer loop
    vertex -26.64832685851647 36.28342800697411 31.993759237390616
    vertex -27.39020640157735 35.52747284901364 31.787348771976994
    vertex -27.181505517074335 35.38634164293698 31.99375923739064
  endloop
endfacet
facet normal 0.9023967110526876 -0.4309062263199414 -3.344947772251541e-16
  outer loop
    vertex -16.47158183966881 36.02873833045535 -0.6486998966122008
    vertex -16.513195418344942 35.94159186043758 30.798424791431593
    vertex -16.513195418344928 35.94159186043757 -0.7997239904654372
  endloop
endfacet
facet normal 0.9023967110526876 -0.4309062263199414 -3.344947772251541e-16
  outer loop
    vertex -16.513195418344942 35.94159186043758 30.798424791431593
    vertex -16.47158183966881 36.02873833045535 -0.6486998966122008
    vertex -16.42912978389346 36.11764072538311 -0.38642172718259726
  endloop
endfacet
facet normal 0.9023967110526876 -0.4309062263199414 -3.344947772251541e-16
  outer loop
    vertex -16.513195418344942 35.94159186043758 30.798424791431593
    vertex -16.42912978389346 36.11764072538311 -0.38642172718259726
    vertex -16.429129783893405 36.11764072538312 30.385122528148703
  endloop
endfacet
facet normal 0.9023967110526876 -0.4309062263199414 -3.344947772251541e-16
  outer loop
    vertex -16.513195418344942 35.94159186043758 30.798424791431593
    vertex -16.429129783893405 36.11764072538312 30.385122528148703
    vertex -16.4715818396688 36.028738330455354 30.647400697578373
  endloop
endfacet
facet normal -1.0 -1.136167052617357e-31 4.0285235464969985e-16
  outer loop
    vertex -20.65331740137625 32.51704646662905 32.49935040048305
    vertex -20.653317401376263 34.26704646662904 -2.500649599516933
    vertex -20.653317401376263 32.51704646662904 -2.500649599516933
  endloop
endfacet
facet normal -1.0 -1.136167052617357e-31 4.0285235464969985e-16
  outer loop
    vertex -20.653317401376263 34.26704646662904 -2.500649599516933
    vertex -20.65331740137625 32.51704646662905 32.49935040048305
    vertex -20.65331740137625 34.26704646662905 32.49935040048305
  endloop
endfacet
facet normal -0.4052268636019003 0.2408444985993278 0.8819212643483576
  outer loop
    vertex -27.181505517074335 35.38634164293698 31.99375923739064
    vertex -26.437940407443854 36.17322788215128 32.12052263457858
    vertex -26.64832685851647 36.28342800697411 31.993759237390616
  endloop
endfacet
facet normal -0.4052268636019003 0.2408444985993278 0.8819212643483576
  outer loop
    vertex -26.437940407443854 36.17322788215128 32.12052263457858
    vertex -27.181505517074335 35.38634164293698 31.99375923739064
    vertex -26.172612631775184 36.06867268877472 32.270988998016875
  endloop
endfacet
facet normal -0.4052268636019003 0.2408444985993278 0.8819212643483576
  outer loop
    vertex -26.172612631775184 36.06867268877472 32.270988998016875
    vertex -27.181505517074335 35.38634164293698 31.99375923739064
    vertex -26.908099401953507 35.20145438255189 32.16987539233964
  endloop
endfacet
facet normal -0.4052268636019003 0.2408444985993278 0.8819212643483576
  outer loop
    vertex -26.172612631775184 36.06867268877472 32.270988998016875
    vertex -26.908099401953507 35.20145438255189 32.16987539233964
    vertex -26.75948568322653 35.08124417222082 32.27098899801684
  endloop
endfacet
facet normal 0.05359939492362737 0.9985625192564667 -2.9737674381401996e-16
  outer loop
    vertex -23.348764337887438 35.324504369352624 32.49935040048307
    vertex -22.27831740137627 35.26704646662904 -2.5006495995169282
    vertex -23.348764337887452 35.32450436935262 -2.5006495995169282
  endloop
endfacet
facet normal 0.05359939492362737 0.9985625192564667 -2.9737674381401996e-16
  outer loop
    vertex -22.27831740137627 35.26704646662904 -2.5006495995169282
    vertex -23.348764337887438 35.324504369352624 32.49935040048307
    vertex -22.278317401376256 35.26704646662905 32.49935040048307
  endloop
endfacet
facet normal 6.70526664014096e-32 -1.0 2.6613631933157325e-16
  outer loop
    vertex -20.653317401376263 34.26704646662904 -2.500649599516933
    vertex -23.90331740137626 34.26704646662905 32.49935040048307
    vertex -23.903317401376274 34.26704646662904 -2.500649599516928
  endloop
endfacet
facet normal 6.70526664014096e-32 -1.0 2.6613631933157325e-16
  outer loop
    vertex -23.90331740137626 34.26704646662905 32.49935040048307
    vertex -20.653317401376263 34.26704646662904 -2.500649599516933
    vertex -20.65331740137625 34.26704646662905 32.49935040048305
  endloop
endfacet
facet normal 0.9999510562471945 -0.009893690419670764 -1.2973159831639815e-15
  outer loop
    vertex -16.42725171528243 36.30745631609085 -0.08592056556532059
    vertex -16.429129783893405 36.11764072538312 30.385122528148703
    vertex -16.42912978389346 36.11764072538311 -0.38642172718259726
  endloop
endfacet
facet normal 0.9999510562471945 -0.009893690419670764 -1.2973159831639815e-15
  outer loop
    vertex -16.429129783893405 36.11764072538312 30.385122528148703
    vertex -16.42725171528243 36.30745631609085 -0.08592056556532059
    vertex -16.427251715282406 36.30745631609086 30.084621366531504
  endloop
endfacet
facet normal 0.4639936212670903 0.8858385402676111 -6.729968595805081e-16
  outer loop
    vertex -27.385081944254313 36.6693163174048 31.1660610995418
    vertex -27.05159960401783 36.49470355367595 -1.6219699430765704
    vertex -27.385081944254324 36.669316317404785 -1.1673602985757336
  endloop
endfacet
facet normal 0.4639936212670903 0.8858385402676111 -6.729968595805081e-16
  outer loop
    vertex -27.05159960401783 36.49470355367595 -1.6219699430765704
    vertex -27.385081944254313 36.6693163174048 31.1660610995418
    vertex -27.0515996040178 36.49470355367596 31.620670744042663
  endloop
endfacet
facet normal 0.4639936212670903 0.8858385402676111 -6.729968595805081e-16
  outer loop
    vertex -27.05159960401783 36.49470355367595 -1.6219699430765704
    vertex -27.0515996040178 36.49470355367596 31.620670744042663
    vertex -26.648326858516548 36.2834280069741 -1.9950584364245645
  endloop
endfacet
facet normal 0.4639936212670903 0.8858385402676111 -6.729968595805081e-16
  outer loop
    vertex -26.648326858516548 36.2834280069741 -1.9950584364245645
    vertex -27.0515996040178 36.49470355367596 31.620670744042663
    vertex -26.64832685851647 36.28342800697411 31.993759237390616
  endloop
endfacet
facet normal 0.4639936212670903 0.8858385402676111 -6.729968595805081e-16
  outer loop
    vertex -26.648326858516548 36.2834280069741 -1.9950584364245645
    vertex -26.64832685851647 36.28342800697411 31.993759237390616
    vertex -26.437940407443854 36.17322788215127 -2.1218218336124792
  endloop
endfacet
facet normal 0.4639936212670903 0.8858385402676111 -6.729968595805081e-16
  outer loop
    vertex -26.437940407443854 36.17322788215127 -2.1218218336124792
    vertex -26.64832685851647 36.28342800697411 31.993759237390616
    vertex -26.437940407443854 36.17322788215128 32.12052263457858
  endloop
endfacet
facet normal -0.26492434394297115 0.964269200994404 7.297711283754114e-17
  outer loop
    vertex -20.149724655543658 35.49621779540628 32.49935040048305
    vertex -19.487446995375358 35.678172662830484 -2.5006495995169336
    vertex -20.14972465554367 35.496217795406274 -2.5006495995169336
  endloop
endfacet
facet normal -0.26492434394297115 0.964269200994404 7.297711283754114e-17
  outer loop
    vertex -19.487446995375358 35.678172662830484 -2.5006495995169336
    vertex -20.149724655543658 35.49621779540628 32.49935040048305
    vertex -19.48744699537527 35.67817266283049 32.49935040048309
  endloop
endfacet
facet normal -0.26492434394297115 0.964269200994404 7.297711283754114e-17
  outer loop
    vertex -19.487446995375358 35.678172662830484 -2.5006495995169336
    vertex -19.48744699537527 35.67817266283049 32.49935040048309
    vertex -19.11603974120794 35.780213486123905 -2.4640691778369583
  endloop
endfacet
facet normal -0.26492434394297115 0.964269200994404 7.297711283754114e-17
  outer loop
    vertex -19.11603974120794 35.780213486123905 -2.4640691778369583
    vertex -19.48744699537527 35.67817266283049 32.49935040048309
    vertex -19.11603974120791 35.780213486123905 32.46276997880306
  endloop
endfacet
facet normal -0.24953747051275033 0.14831130994915892 0.9569403357322038
  outer loop
    vertex -26.75948568322653 35.08124417222082 32.27098899801684
    vertex -25.64217028475317 35.85964631741865 32.441706241692714
    vertex -26.172612631775184 36.06867268877472 32.270988998016875
  endloop
endfacet
facet normal -0.24953747051275033 0.14831130994915892 0.9569403357322038
  outer loop
    vertex -25.64217028475317 35.85964631741865 32.441706241692714
    vertex -26.75948568322653 35.08124417222082 32.27098899801684
    vertex -26.455605654108894 34.83544262355796 32.38832609760644
  endloop
endfacet
facet normal -0.24953747051275033 0.14831130994915892 0.9569403357322038
  outer loop
    vertex -25.64217028475317 35.85964631741865 32.441706241692714
    vertex -26.455605654108894 34.83544262355796 32.38832609760644
    vertex -26.325331014096726 34.71021138617533 32.44170624169271
  endloop
endfacet
facet normal 0.33599195292126666 0.9418648563207745 -6.687224145787651e-16
  outer loop
    vertex -27.571413836941744 36.73578659293894 30.79894719283252
    vertex -27.385081944254324 36.669316317404785 -1.1673602985757336
    vertex -27.57141383694181 36.735786592938936 -0.8002463918664623
  endloop
endfacet
facet normal 0.33599195292126666 0.9418648563207745 -6.687224145787651e-16
  outer loop
    vertex -27.385081944254324 36.669316317404785 -1.1673602985757336
    vertex -27.571413836941744 36.73578659293894 30.79894719283252
    vertex -27.385081944254313 36.6693163174048 31.1660610995418
  endloop
endfacet
facet normal 0.8596301839727423 0.5109167709157623 -1.2642490742009886e-15
  outer loop
    vertex -16.622771098829332 36.636422545458196 30.084621366531458
    vertex -16.42725171528243 36.30745631609085 -0.08592056556532059
    vertex -16.622771098829386 36.63642254545819 -0.08592056556532059
  endloop
endfacet
facet normal 0.8596301839727423 0.5109167709157623 -1.2642490742009886e-15
  outer loop
    vertex -16.42725171528243 36.30745631609085 -0.08592056556532059
    vertex -16.622771098829332 36.636422545458196 30.084621366531458
    vertex -16.427251715282406 36.30745631609086 30.084621366531504
  endloop
endfacet
facet normal -0.33599195292125744 0.941864856320778 1.8195982032262127e-16
  outer loop
    vertex -17.171552858498192 36.6693163174048 31.1660610995419
    vertex -16.98522096581077 36.735786592938936 -0.800246391866468
    vertex -17.171552858498202 36.669316317404785 -1.1673602985757392
  endloop
endfacet
facet normal -0.33599195292125744 0.941864856320778 1.8195982032262127e-16
  outer loop
    vertex -16.98522096581077 36.735786592938936 -0.800246391866468
    vertex -17.171552858498192 36.6693163174048 31.1660610995419
    vertex -16.985220965810694 36.73578659293894 30.79894719283259
  endloop
endfacet
facet normal -0.05277317218830369 0.9986065252626702 -2.0036040122421918e-16
  outer loop
    vertex -27.766232305522674 36.72549105778292 30.385416221900808
    vertex -27.667851504042613 36.7306901695904 -0.6486998966121952
    vertex -27.766232305522717 36.72549105778291 -0.38671542093473665
  endloop
endfacet
facet normal -0.05277317218830369 0.9986065252626702 -2.0036040122421918e-16
  outer loop
    vertex -27.667851504042613 36.7306901695904 -0.6486998966121952
    vertex -27.766232305522674 36.72549105778292 30.385416221900808
    vertex -27.667851504042602 36.73069016959041 30.647400697578284
  endloop
endfacet
facet normal -0.05277317218830369 0.9986065252626702 -2.0036040122421918e-16
  outer loop
    vertex -27.667851504042613 36.7306901695904 -0.6486998966121952
    vertex -27.667851504042602 36.73069016959041 30.647400697578284
    vertex -27.57141383694181 36.735786592938936 -0.8002463918664623
  endloop
endfacet
facet normal -0.05277317218830369 0.9986065252626702 -2.0036040122421918e-16
  outer loop
    vertex -27.57141383694181 36.735786592938936 -0.8002463918664623
    vertex -27.667851504042602 36.73069016959041 30.647400697578284
    vertex -27.571413836941744 36.73578659293894 30.79894719283252
  endloop
endfacet
facet normal -0.9023967110526482 -0.43090622632002396 3.788099465755327e-16
  outer loop
    vertex -28.0434393844076 35.94159186043758 30.798424791431525
    vertex -28.085052963083715 36.02873833045535 -0.6486998966121952
    vertex -28.043439384407577 35.94159186043757 -0.7997239904654315
  endloop
endfacet
facet normal -0.9023967110526482 -0.43090622632002396 3.788099465755327e-16
  outer loop
    vertex -28.085052963083715 36.02873833045535 -0.6486998966121952
    vertex -28.0434393844076 35.94159186043758 30.798424791431525
    vertex -28.127505018859136 36.11764072538311 -0.3864217271825916
  endloop
endfacet
facet normal -0.9023967110526482 -0.43090622632002396 3.788099465755327e-16
  outer loop
    vertex -28.127505018859136 36.11764072538311 -0.3864217271825916
    vertex -28.0434393844076 35.94159186043758 30.798424791431525
    vertex -28.127505018859082 36.11764072538312 30.385122528148678
  endloop
endfacet
facet normal -0.9023967110526482 -0.43090622632002396 3.788099465755327e-16
  outer loop
    vertex -28.127505018859082 36.11764072538312 30.385122528148678
    vertex -28.0434393844076 35.94159186043758 30.798424791431525
    vertex -28.085052963083715 36.028738330455354 30.647400697578316
  endloop
endfacet
facet normal 0.48724569902523857 -0.8732649247401425 -1.0534560020588067e-16
  outer loop
    vertex -16.989009225234586 35.62647700918495 -1.6219699430765757
    vertex -17.166428401175164 35.52747284901364 31.78734877197706
    vertex -17.166428401175168 35.527472849013634 -1.7886479710109076
  endloop
endfacet
facet normal 0.48724569902523857 -0.8732649247401425 -1.0534560020588067e-16
  outer loop
    vertex -17.166428401175164 35.52747284901364 31.78734877197706
    vertex -16.989009225234586 35.62647700918495 -1.6219699430765757
    vertex -16.98900922523456 35.62647700918495 31.62067074404272
  endloop
endfacet
facet normal 0.48724569902523857 -0.8732649247401425 -1.0534560020588067e-16
  outer loop
    vertex -16.98900922523456 35.62647700918495 31.62067074404272
    vertex -16.989009225234586 35.62647700918495 -1.6219699430765757
    vertex -16.66063608758252 35.809686133431995 -1.167360298575739
  endloop
endfacet
facet normal 0.48724569902523857 -0.8732649247401425 -1.0534560020588067e-16
  outer loop
    vertex -16.98900922523456 35.62647700918495 31.62067074404272
    vertex -16.66063608758252 35.809686133431995 -1.167360298575739
    vertex -16.66063608758248 35.809686133432 31.166061099541853
  endloop
endfacet
facet normal 0.5601764634225149 -0.8283733034251187 3.324376736951402e-16
  outer loop
    vertex -17.3751292856782 35.38634164293697 -1.9950584364245698
    vertex -17.648535400798973 35.20145438255189 32.16987539233972
    vertex -17.64853540079901 35.20145438255188 -2.171174591373577
  endloop
endfacet
facet normal 0.5601764634225149 -0.8283733034251187 3.324376736951402e-16
  outer loop
    vertex -17.648535400798973 35.20145438255189 32.16987539233972
    vertex -17.3751292856782 35.38634164293697 -1.9950584364245698
    vertex -17.375129285678256 35.38634164293698 31.993759237390698
  endloop
endfacet
facet normal 0.5601764634225149 -0.8283733034251187 3.324376736951402e-16
  outer loop
    vertex -17.375129285678256 35.38634164293698 31.993759237390698
    vertex -17.3751292856782 35.38634164293697 -1.9950584364245698
    vertex -17.166428401175164 35.52747284901364 31.78734877197706
  endloop
endfacet
facet normal 0.5601764634225149 -0.8283733034251187 3.324376736951402e-16
  outer loop
    vertex -17.166428401175164 35.52747284901364 31.78734877197706
    vertex -17.3751292856782 35.38634164293697 -1.9950584364245698
    vertex -17.166428401175168 35.527472849013634 -1.7886479710109076
  endloop
endfacet
facet normal -0.38268343236508295 -0.9238795325112897 4.0949802923974443e-16
  outer loop
    vertex -24.03713644647879 31.801120640339974 -2.5006495995169273
    vertex -24.27831740137626 31.901021062844613 32.49935040048307
    vertex -24.278317401376274 31.9010210628446 -2.5006495995169273
  endloop
endfacet
facet normal -0.38268343236508295 -0.9238795325112897 4.0949802923974443e-16
  outer loop
    vertex -24.27831740137626 31.901021062844613 32.49935040048307
    vertex -24.03713644647879 31.801120640339974 -2.5006495995169273
    vertex -24.037136446478776 31.801120640339985 32.49935040048307
  endloop
endfacet
facet normal -0.4692141074681654 0.8830844361400856 3.7101783240341834e-16
  outer loop
    vertex -27.93386370392314 36.636422545458196 30.08462136653139
    vertex -27.766232305522717 36.72549105778291 -0.38671542093473665
    vertex -27.933863703923173 36.63642254545819 -0.08592056556531495
  endloop
endfacet
facet normal -0.4692141074681654 0.8830844361400856 3.7101783240341834e-16
  outer loop
    vertex -27.766232305522717 36.72549105778291 -0.38671542093473665
    vertex -27.93386370392314 36.636422545458196 30.08462136653139
    vertex -27.766232305522674 36.72549105778292 30.385416221900808
  endloop
endfacet
facet normal -0.662500804468947 0.3937539398442473 0.6372209341626583
  outer loop
    vertex -27.56762557751793 35.62647700918495 31.62067074404264
    vertex -27.385081944254313 36.6693163174048 31.1660610995418
    vertex -27.895998715170006 35.809686133432 31.166061099541785
  endloop
endfacet
facet normal -0.662500804468947 0.3937539398442473 0.6372209341626583
  outer loop
    vertex -27.385081944254313 36.6693163174048 31.1660610995418
    vertex -27.56762557751793 35.62647700918495 31.62067074404264
    vertex -27.0515996040178 36.49470355367596 31.620670744042663
  endloop
endfacet
facet normal -0.8596301839727715 0.5109167709157132 6.628520258625399e-16
  outer loop
    vertex -28.12938308747006 36.30745631609086 30.08462136653137
    vertex -27.933863703923173 36.63642254545819 -0.08592056556531495
    vertex -28.129383087470085 36.30745631609085 -0.08592056556531495
  endloop
endfacet
facet normal -0.8596301839727715 0.5109167709157132 6.628520258625399e-16
  outer loop
    vertex -27.933863703923173 36.63642254545819 -0.08592056556531495
    vertex -28.12938308747006 36.30745631609086 30.08462136653137
    vertex -27.93386370392314 36.636422545458196 30.08462136653139
  endloop
endfacet
facet normal 0.7593820451183783 0.45116166292601334 0.46881986248202373
  outer loop
    vertex -16.985220965810694 36.73578659293894 30.79894719283259
    vertex -16.4715818396688 36.028738330455354 30.647400697578373
    vertex -16.888783298709917 36.73069016959041 30.64740069757835
  endloop
endfacet
facet normal 0.7593820451183783 0.45116166292601334 0.46881986248202373
  outer loop
    vertex -16.4715818396688 36.028738330455354 30.647400697578373
    vertex -16.985220965810694 36.73578659293894 30.79894719283259
    vertex -16.513195418344942 35.94159186043758 30.798424791431593
  endloop
endfacet
facet normal 0.8185408599001749 0.4864330841028723 -0.30557112979476664
  outer loop
    vertex -16.790402497229838 36.72549105778291 -0.38671542093474226
    vertex -16.47158183966881 36.02873833045535 -0.6486998966122008
    vertex -16.888783298709892 36.7306901695904 -0.6486998966122008
  endloop
endfacet
facet normal 0.8185408599001749 0.4864330841028723 -0.30557112979476664
  outer loop
    vertex -16.47158183966881 36.02873833045535 -0.6486998966122008
    vertex -16.790402497229838 36.72549105778291 -0.38671542093474226
    vertex -16.42912978389346 36.11764072538311 -0.38642172718259726
  endloop
endfacet
facet normal 0.8185408599001749 0.4864330841028723 -0.30557112979476664
  outer loop
    vertex -16.42912978389346 36.11764072538311 -0.38642172718259726
    vertex -16.790402497229838 36.72549105778291 -0.38671542093474226
    vertex -16.622771098829386 36.63642254545819 -0.08592056556532059
  endloop
endfacet
facet normal 0.8185408599001749 0.4864330841028723 -0.30557112979476664
  outer loop
    vertex -16.42912978389346 36.11764072538311 -0.38642172718259726
    vertex -16.622771098829386 36.63642254545819 -0.08592056556532059
    vertex -16.42725171528243 36.30745631609085 -0.08592056556532059
  endloop
endfacet
facet normal 0.5453436155766966 0.3241221682354932 0.7730104533627337
  outer loop
    vertex -17.908307944235986 36.28342800697411 31.99375923739074
    vertex -16.98900922523456 35.62647700918495 31.62067074404272
    vertex -17.505035198734685 36.49470355367596 31.620670744042688
  endloop
endfacet
facet normal 0.5453436155766966 0.3241221682354932 0.7730104533627337
  outer loop
    vertex -16.98900922523456 35.62647700918495 31.62067074404272
    vertex -17.908307944235986 36.28342800697411 31.99375923739074
    vertex -17.166428401175164 35.52747284901364 31.78734877197706
  endloop
endfacet
facet normal 0.5453436155766966 0.3241221682354932 0.7730104533627337
  outer loop
    vertex -17.166428401175164 35.52747284901364 31.78734877197706
    vertex -17.908307944235986 36.28342800697411 31.99375923739074
    vertex -17.375129285678256 35.38634164293698 31.993759237390698
  endloop
endfacet
facet normal -0.05359939492362709 0.9985625192564667 -2.542357011160966e-16
  outer loop
    vertex -22.278317401376256 35.26704646662905 32.49935040048307
    vertex -21.207870464865085 35.32450436935262 -2.5006495995169336
    vertex -22.27831740137627 35.26704646662904 -2.5006495995169282
  endloop
endfacet
facet normal -0.05359939492362709 0.9985625192564667 -2.542357011160966e-16
  outer loop
    vertex -21.207870464865085 35.32450436935262 -2.5006495995169336
    vertex -22.278317401376256 35.26704646662905 32.49935040048307
    vertex -21.20787046486507 35.324504369352624 32.49935040048305
  endloop
endfacet
facet normal -0.8205280585597822 0.4876148646166541 0.2982707644423048
  outer loop
    vertex -28.085052963083715 36.028738330455354 30.647400697578316
    vertex -27.766232305522674 36.72549105778292 30.385416221900808
    vertex -28.127505018859082 36.11764072538312 30.385122528148678
  endloop
endfacet
facet normal -0.8205280585597822 0.4876148646166541 0.2982707644423048
  outer loop
    vertex -27.766232305522674 36.72549105778292 30.385416221900808
    vertex -28.085052963083715 36.028738330455354 30.647400697578316
    vertex -27.667851504042602 36.73069016959041 30.647400697578284
  endloop
endfacet
facet normal 1.0 1.1361670526173566e-31 -4.028523546496997e-16
  outer loop
    vertex -23.90331740137626 34.26704646662905 32.49935040048307
    vertex -23.903317401376274 32.51704646662904 -2.5006495995169273
    vertex -23.903317401376274 34.26704646662904 -2.500649599516928
  endloop
endfacet
facet normal 1.0 1.1361670526173566e-31 -4.028523546496997e-16
  outer loop
    vertex -23.903317401376274 32.51704646662904 -2.5006495995169273
    vertex -23.90331740137626 34.26704646662905 32.49935040048307
    vertex -23.90331740137626 32.51704646662905 32.49935040048307
  endloop
endfacet
facet normal -0.8185408599001582 0.4864330841028836 -0.3055711297947935
  outer loop
    vertex -28.127505018859136 36.11764072538311 -0.3864217271825916
    vertex -27.667851504042613 36.7306901695904 -0.6486998966121952
    vertex -28.085052963083715 36.02873833045535 -0.6486998966121952
  endloop
endfacet
facet normal -0.8185408599001582 0.4864330841028836 -0.3055711297947935
  outer loop
    vertex -27.667851504042613 36.7306901695904 -0.6486998966121952
    vertex -28.127505018859136 36.11764072538311 -0.3864217271825916
    vertex -27.766232305522717 36.72549105778291 -0.38671542093473665
  endloop
endfacet
facet normal -0.8185408599001582 0.4864330841028836 -0.3055711297947935
  outer loop
    vertex -27.766232305522717 36.72549105778291 -0.38671542093473665
    vertex -28.127505018859136 36.11764072538311 -0.3864217271825916
    vertex -27.933863703923173 36.63642254545819 -0.08592056556531495
  endloop
endfacet
facet normal -0.8185408599001582 0.4864330841028836 -0.3055711297947935
  outer loop
    vertex -27.933863703923173 36.63642254545819 -0.08592056556531495
    vertex -28.127505018859136 36.11764072538311 -0.3864217271825916
    vertex -28.129383087470085 36.30745631609085 -0.08592056556531495
  endloop
endfacet
facet normal -0.16018224300696676 0.987087457637497 -2.0576347832825815e-16
  outer loop
    vertex -21.20787046486507 35.324504369352624 32.49935040048305
    vertex -20.14972465554367 35.496217795406274 -2.5006495995169336
    vertex -21.207870464865085 35.32450436935262 -2.5006495995169336
  endloop
endfacet
facet normal -0.16018224300696676 0.987087457637497 -2.0576347832825815e-16
  outer loop
    vertex -20.14972465554367 35.496217795406274 -2.5006495995169336
    vertex -21.20787046486507 35.324504369352624 32.49935040048305
    vertex -20.149724655543658 35.49621779540628 32.49935040048305
  endloop
endfacet
facet normal 0.05277317218830413 0.99860652526267 -3.276041882373959e-16
  outer loop
    vertex -16.985220965810694 36.73578659293894 30.79894719283259
    vertex -16.888783298709892 36.7306901695904 -0.6486998966122008
    vertex -16.98522096581077 36.735786592938936 -0.800246391866468
  endloop
endfacet
facet normal 0.05277317218830413 0.99860652526267 -3.276041882373959e-16
  outer loop
    vertex -16.888783298709892 36.7306901695904 -0.6486998966122008
    vertex -16.985220965810694 36.73578659293894 30.79894719283259
    vertex -16.888783298709917 36.73069016959041 30.64740069757835
  endloop
endfacet
facet normal 0.05277317218830413 0.99860652526267 -3.276041882373959e-16
  outer loop
    vertex -16.888783298709892 36.7306901695904 -0.6486998966122008
    vertex -16.888783298709917 36.73069016959041 30.64740069757835
    vertex -16.790402497229795 36.72549105778292 30.38541622190085
  endloop
endfacet
facet normal 0.05277317218830413 0.99860652526267 -3.276041882373959e-16
  outer loop
    vertex -16.888783298709892 36.7306901695904 -0.6486998966122008
    vertex -16.790402497229795 36.72549105778292 30.38541622190085
    vertex -16.790402497229838 36.72549105778291 -0.38671542093474226
  endloop
endfacet
facet normal -0.759382045118296 0.4511616629260222 0.46881986248214824
  outer loop
    vertex -28.085052963083715 36.028738330455354 30.647400697578316
    vertex -27.571413836941744 36.73578659293894 30.79894719283252
    vertex -27.667851504042602 36.73069016959041 30.647400697578284
  endloop
endfacet
facet normal -0.759382045118296 0.4511616629260222 0.46881986248214824
  outer loop
    vertex -27.571413836941744 36.73578659293894 30.79894719283252
    vertex -28.085052963083715 36.028738330455354 30.647400697578316
    vertex -28.0434393844076 35.94159186043758 30.798424791431525
  endloop
endfacet
facet normal 0.3666220454422604 0.9303699671613079 -7.771374788567342e-16
  outer loop
    vertex -26.172612631775184 36.06867268877472 32.270988998016875
    vertex -26.437940407443854 36.17322788215127 -2.1218218336124792
    vertex -26.437940407443854 36.17322788215128 32.12052263457858
  endloop
endfacet
facet normal 0.3666220454422604 0.9303699671613079 -7.771374788567342e-16
  outer loop
    vertex -26.437940407443854 36.17322788215127 -2.1218218336124792
    vertex -26.172612631775184 36.06867268877472 32.270988998016875
    vertex -26.172612631775202 36.06867268877471 -2.2722881970507864
  endloop
endfacet
facet normal 0.3666220454422604 0.9303699671613079 -7.771374788567342e-16
  outer loop
    vertex -26.172612631775202 36.06867268877471 -2.2722881970507864
    vertex -26.172612631775184 36.06867268877472 32.270988998016875
    vertex -25.642170284753263 35.85964631741865 -2.4430054407266164
  endloop
endfacet
facet normal 0.3666220454422604 0.9303699671613079 -7.771374788567342e-16
  outer loop
    vertex -25.642170284753263 35.85964631741865 -2.4430054407266164
    vertex -26.172612631775184 36.06867268877472 32.270988998016875
    vertex -25.64217028475317 35.85964631741865 32.441706241692714
  endloop
endfacet
facet normal 0.3666220454422604 0.9303699671613079 -7.771374788567342e-16
  outer loop
    vertex -25.642170284753263 35.85964631741865 -2.4430054407266164
    vertex -25.64217028475317 35.85964631741865 32.441706241692714
    vertex -25.44059506154465 35.780213486123905 -2.4640691778369526
  endloop
endfacet
facet normal 0.3666220454422604 0.9303699671613079 -7.771374788567342e-16
  outer loop
    vertex -25.44059506154465 35.780213486123905 -2.4640691778369526
    vertex -25.64217028475317 35.85964631741865 32.441706241692714
    vertex -25.440595061544563 35.780213486123905 32.46276997880305
  endloop
endfacet
facet normal 0.6667531082419655 -0.7452786677811716 -9.846174758026187e-17
  outer loop
    vertex -16.513195418344928 35.94159186043757 -0.7997239904654372
    vertex -16.66063608758248 35.809686133432 31.166061099541853
    vertex -16.66063608758252 35.809686133431995 -1.167360298575739
  endloop
endfacet
facet normal 0.6667531082419655 -0.7452786677811716 -9.846174758026187e-17
  outer loop
    vertex -16.66063608758248 35.809686133432 31.166061099541853
    vertex -16.513195418344928 35.94159186043757 -0.7997239904654372
    vertex -16.513195418344942 35.94159186043758 30.798424791431593
  endloop
endfacet
facet normal 0.1601822430069668 0.987087457637497 -3.3461374467814164e-16
  outer loop
    vertex -24.40691014720885 35.49621779540628 32.49935040048307
    vertex -23.348764337887452 35.32450436935262 -2.5006495995169282
    vertex -24.406910147208865 35.496217795406274 -2.5006495995169282
  endloop
endfacet
facet normal 0.1601822430069668 0.987087457637497 -3.3461374467814164e-16
  outer loop
    vertex -23.348764337887452 35.32450436935262 -2.5006495995169282
    vertex -24.40691014720885 35.49621779540628 32.49935040048307
    vertex -23.348764337887438 35.324504369352624 32.49935040048307
  endloop
endfacet
facet normal -0.5601764634225119 -0.8283733034251208 4.1131647777493384e-16
  outer loop
    vertex -27.181505517074285 35.38634164293697 -1.995058436424564
    vertex -27.39020640157735 35.52747284901364 31.787348771976994
    vertex -27.390206401577377 35.527472849013634 -1.788647971010902
  endloop
endfacet
facet normal -0.5601764634225119 -0.8283733034251208 4.1131647777493384e-16
  outer loop
    vertex -27.39020640157735 35.52747284901364 31.787348771976994
    vertex -27.181505517074285 35.38634164293697 -1.995058436424564
    vertex -27.181505517074335 35.38634164293698 31.99375923739064
  endloop
endfacet
facet normal -0.5601764634225119 -0.8283733034251208 4.1131647777493384e-16
  outer loop
    vertex -27.181505517074335 35.38634164293698 31.99375923739064
    vertex -27.181505517074285 35.38634164293697 -1.995058436424564
    vertex -26.908099401953507 35.20145438255189 32.16987539233964
  endloop
endfacet
facet normal -0.5601764634225119 -0.8283733034251208 4.1131647777493384e-16
  outer loop
    vertex -26.908099401953507 35.20145438255189 32.16987539233964
    vertex -27.181505517074285 35.38634164293697 -1.995058436424564
    vertex -26.90809940195356 35.20145438255188 -2.171174591373571
  endloop
endfacet
facet normal 0.46921410746817754 0.8830844361400791 -9.814830250002453e-16
  outer loop
    vertex -16.790402497229795 36.72549105778292 30.38541622190085
    vertex -16.622771098829386 36.63642254545819 -0.08592056556532059
    vertex -16.790402497229838 36.72549105778291 -0.38671542093474226
  endloop
endfacet
facet normal 0.46921410746817754 0.8830844361400791 -9.814830250002453e-16
  outer loop
    vertex -16.622771098829386 36.63642254545819 -0.08592056556532059
    vertex -16.790402497229795 36.72549105778292 30.38541622190085
    vertex -16.622771098829332 36.636422545458196 30.084621366531458
  endloop
endfacet
facet normal -0.76009684454976 0.4516181079660029 0.46721929697167497
  outer loop
    vertex -27.895998715170006 35.809686133432 31.166061099541785
    vertex -27.571413836941744 36.73578659293894 30.79894719283252
    vertex -28.0434393844076 35.94159186043758 30.798424791431525
  endloop
endfacet
facet normal -0.76009684454976 0.4516181079660029 0.46721929697167497
  outer loop
    vertex -27.571413836941744 36.73578659293894 30.79894719283252
    vertex -27.895998715170006 35.809686133432 31.166061099541785
    vertex -27.385081944254313 36.6693163174048 31.1660610995418
  endloop
endfacet
facet normal -0.08425849237399934 0.05007860083157743 0.9951847266721954
  outer loop
    vertex -26.325331014096726 34.71021138617533 32.44170624169271
    vertex -25.440595061544563 35.780213486123905 32.46276997880305
    vertex -25.64217028475317 35.85964631741865 32.441706241692714
  endloop
endfacet
facet normal -0.08425849237399934 0.05007860083157743 0.9951847266721954
  outer loop
    vertex -25.440595061544563 35.780213486123905 32.46276997880305
    vertex -26.325331014096726 34.71021138617533 32.44170624169271
    vertex -25.069187807377173 35.67817266283049 32.499350400483024
  endloop
endfacet
facet normal -0.08425849237399934 0.05007860083157743 0.9951847266721954
  outer loop
    vertex -25.069187807377173 35.67817266283049 32.499350400483024
    vertex -26.325331014096726 34.71021138617533 32.44170624169271
    vertex -26.036033421731297 34.432113550246804 32.4801941007516
  endloop
endfacet
facet normal -0.08425849237399934 0.05007860083157743 0.9951847266721954
  outer loop
    vertex -25.069187807377173 35.67817266283049 32.499350400483024
    vertex -26.036033421731297 34.432113550246804 32.4801941007516
    vertex -25.90121171869573 34.27827172265466 32.49935040048303
  endloop
endfacet
facet normal 0.8168800162183603 0.48539197434977427 0.311611409194079
  outer loop
    vertex -16.790402497229795 36.72549105778292 30.38541622190085
    vertex -16.427251715282406 36.30745631609086 30.084621366531504
    vertex -16.622771098829332 36.636422545458196 30.084621366531458
  endloop
endfacet
facet normal 0.8168800162183603 0.48539197434977427 0.311611409194079
  outer loop
    vertex -16.427251715282406 36.30745631609086 30.084621366531504
    vertex -16.790402497229795 36.72549105778292 30.38541622190085
    vertex -16.429129783893405 36.11764072538312 30.385122528148703
  endloop
endfacet
facet normal 0.26492434394297015 0.9642692009944045 -6.956437908511171e-16
  outer loop
    vertex -25.440595061544563 35.780213486123905 32.46276997880305
    vertex -25.06918780737724 35.678172662830484 -2.5006495995169282
    vertex -25.44059506154465 35.780213486123905 -2.4640691778369526
  endloop
endfacet
facet normal 0.26492434394297015 0.9642692009944045 -6.956437908511171e-16
  outer loop
    vertex -25.06918780737724 35.678172662830484 -2.5006495995169282
    vertex -25.440595061544563 35.780213486123905 32.46276997880305
    vertex -25.069187807377173 35.67817266283049 32.499350400483024
  endloop
endfacet
facet normal 0.26492434394297015 0.9642692009944045 -6.956437908511171e-16
  outer loop
    vertex -25.06918780737724 35.678172662830484 -2.5006495995169282
    vertex -25.069187807377173 35.67817266283049 32.499350400483024
    vertex -24.406910147208865 35.496217795406274 -2.5006495995169282
  endloop
endfacet
facet normal 0.26492434394297015 0.9642692009944045 -6.956437908511171e-16
  outer loop
    vertex -24.406910147208865 35.496217795406274 -2.5006495995169282
    vertex -25.069187807377173 35.67817266283049 32.499350400483024
    vertex -24.40691014720885 35.49621779540628 32.49935040048307
  endloop
endfacet
facet normal -0.8168800162183775 0.48539197434979914 0.31161140919399505
  outer loop
    vertex -28.127505018859082 36.11764072538312 30.385122528148678
    vertex -27.93386370392314 36.636422545458196 30.08462136653139
    vertex -28.12938308747006 36.30745631609086 30.08462136653137
  endloop
endfacet
facet normal -0.8168800162183775 0.48539197434979914 0.31161140919399505
  outer loop
    vertex -27.93386370392314 36.636422545458196 30.08462136653139
    vertex -28.127505018859082 36.11764072538312 30.385122528148678
    vertex -27.766232305522674 36.72549105778292 30.385416221900808
  endloop
endfacet
facet normal -0.4872456990252446 -0.8732649247401393 5.436257120728298e-16
  outer loop
    vertex -27.56762557751794 35.62647700918495 -1.6219699430765702
    vertex -27.895998715170006 35.809686133432 31.166061099541785
    vertex -27.895998715170027 35.809686133431995 -1.1673602985757334
  endloop
endfacet
facet normal -0.4872456990252446 -0.8732649247401393 5.436257120728298e-16
  outer loop
    vertex -27.895998715170006 35.809686133432 31.166061099541785
    vertex -27.56762557751794 35.62647700918495 -1.6219699430765702
    vertex -27.56762557751793 35.62647700918495 31.62067074404264
  endloop
endfacet
facet normal -0.4872456990252446 -0.8732649247401393 5.436257120728298e-16
  outer loop
    vertex -27.56762557751793 35.62647700918495 31.62067074404264
    vertex -27.56762557751794 35.62647700918495 -1.6219699430765702
    vertex -27.390206401577377 35.527472849013634 -1.788647971010902
  endloop
endfacet
facet normal -0.4872456990252446 -0.8732649247401393 5.436257120728298e-16
  outer loop
    vertex -27.56762557751793 35.62647700918495 31.62067074404264
    vertex -27.390206401577377 35.527472849013634 -1.788647971010902
    vertex -27.39020640157735 35.52747284901364 31.787348771976994
  endloop
endfacet
facet normal 0.8205280585597687 0.4876148646166257 0.2982707644423883
  outer loop
    vertex -16.790402497229795 36.72549105778292 30.38541622190085
    vertex -16.4715818396688 36.028738330455354 30.647400697578373
    vertex -16.429129783893405 36.11764072538312 30.385122528148703
  endloop
endfacet
facet normal 0.8205280585597687 0.4876148646166257 0.2982707644423883
  outer loop
    vertex -16.4715818396688 36.028738330455354 30.647400697578373
    vertex -16.790402497229795 36.72549105778292 30.38541622190085
    vertex -16.888783298709917 36.73069016959041 30.64740069757835
  endloop
endfacet
facet normal 0.08425849237400504 0.050078600831630384 0.9951847266721924
  outer loop
    vertex -19.11603974120791 35.780213486123905 32.46276997880306
    vertex -18.231303788655758 34.71021138617533 32.441706241692806
    vertex -18.914464517999274 35.85964631741865 32.441706241692735
  endloop
endfacet
facet normal 0.08425849237400504 0.050078600831630384 0.9951847266721924
  outer loop
    vertex -18.231303788655758 34.71021138617533 32.441706241692806
    vertex -19.11603974120791 35.780213486123905 32.46276997880306
    vertex -19.48744699537527 35.67817266283049 32.49935040048309
  endloop
endfacet
facet normal 0.08425849237400504 0.050078600831630384 0.9951847266721924
  outer loop
    vertex -18.231303788655758 34.71021138617533 32.441706241692806
    vertex -19.48744699537527 35.67817266283049 32.49935040048309
    vertex -18.520601381021216 34.432113550246804 32.48019410075174
  endloop
endfacet
facet normal 0.08425849237400504 0.050078600831630384 0.9951847266721924
  outer loop
    vertex -18.520601381021216 34.432113550246804 32.48019410075174
    vertex -19.48744699537527 35.67817266283049 32.49935040048309
    vertex -18.655423084056757 34.278271722654665 32.49935040048311
  endloop
endfacet
facet normal 0.2495374705127203 0.14831130994918038 0.9569403357322083
  outer loop
    vertex -18.914464517999274 35.85964631741865 32.441706241692735
    vertex -17.79714911952598 35.08124417222082 32.27098899801695
    vertex -18.38402217097733 36.06867268877472 32.27098899801691
  endloop
endfacet
facet normal 0.2495374705127203 0.14831130994918038 0.9569403357322083
  outer loop
    vertex -17.79714911952598 35.08124417222082 32.27098899801695
    vertex -18.914464517999274 35.85964631741865 32.441706241692735
    vertex -18.10102914864363 34.83544262355796 32.38832609760646
  endloop
endfacet
facet normal 0.2495374705127203 0.14831130994918038 0.9569403357322083
  outer loop
    vertex -18.10102914864363 34.83544262355796 32.38832609760646
    vertex -18.914464517999274 35.85964631741865 32.441706241692735
    vertex -18.231303788655758 34.71021138617533 32.441706241692806
  endloop
endfacet
facet normal 0.6625008044689258 0.39375393984424967 0.6372209341626789
  outer loop
    vertex -17.171552858498192 36.6693163174048 31.1660610995419
    vertex -16.98900922523456 35.62647700918495 31.62067074404272
    vertex -16.66063608758248 35.809686133432 31.166061099541853
  endloop
endfacet
facet normal 0.6625008044689258 0.39375393984424967 0.6372209341626789
  outer loop
    vertex -16.98900922523456 35.62647700918495 31.62067074404272
    vertex -17.171552858498192 36.6693163174048 31.1660610995419
    vertex -17.505035198734685 36.49470355367596 31.620670744042688
  endloop
endfacet
facet normal -7.232949277986592e-32 1.0 -2.7620762819781575e-16
  outer loop
    vertex -23.90331740137626 32.51704646662905 32.49935040048307
    vertex -20.653317401376263 32.51704646662904 -2.500649599516933
    vertex -23.903317401376274 32.51704646662904 -2.5006495995169273
  endloop
endfacet
facet normal -7.232949277986592e-32 1.0 -2.7620762819781575e-16
  outer loop
    vertex -20.653317401376263 32.51704646662904 -2.500649599516933
    vertex -23.90331740137626 32.51704646662905 32.49935040048307
    vertex -20.65331740137625 32.51704646662905 32.49935040048305
  endloop
endfacet
facet normal 0.6288943535912811 -0.7774907665181658 -3.8707836900540656e-16
  outer loop
    vertex -17.797149119526022 35.081244172220806 -2.272288197050792
    vertex -18.10102914864363 34.83544262355796 32.38832609760646
    vertex -18.101029148643647 34.835442623557945 -2.3896252966403435
  endloop
endfacet
facet normal 0.6288943535912811 -0.7774907665181658 -3.8707836900540656e-16
  outer loop
    vertex -18.10102914864363 34.83544262355796 32.38832609760646
    vertex -17.797149119526022 35.081244172220806 -2.272288197050792
    vertex -17.79714911952598 35.08124417222082 32.27098899801695
  endloop
endfacet
facet normal 0.6288943535912811 -0.7774907665181658 -3.8707836900540656e-16
  outer loop
    vertex -17.79714911952598 35.08124417222082 32.27098899801695
    vertex -17.797149119526022 35.081244172220806 -2.272288197050792
    vertex -17.64853540079901 35.20145438255188 -2.171174591373577
  endloop
endfacet
facet normal 0.6288943535912811 -0.7774907665181658 -3.8707836900540656e-16
  outer loop
    vertex -17.79714911952598 35.08124417222082 32.27098899801695
    vertex -17.64853540079901 35.20145438255188 -2.171174591373577
    vertex -17.648535400798973 35.20145438255189 32.16987539233972
  endloop
endfacet
facet normal -0.6288943535912886 -0.7774907665181596 7.210121034785443e-16
  outer loop
    vertex -26.75948568322655 35.081244172220806 -2.2722881970507864
    vertex -26.908099401953507 35.20145438255189 32.16987539233964
    vertex -26.90809940195356 35.20145438255188 -2.171174591373571
  endloop
endfacet
facet normal -0.6288943535912886 -0.7774907665181596 7.210121034785443e-16
  outer loop
    vertex -26.908099401953507 35.20145438255189 32.16987539233964
    vertex -26.75948568322655 35.081244172220806 -2.2722881970507864
    vertex -26.75948568322653 35.08124417222082 32.27098899801684
  endloop
endfacet
facet normal -0.6288943535912886 -0.7774907665181596 7.210121034785443e-16
  outer loop
    vertex -26.75948568322653 35.08124417222082 32.27098899801684
    vertex -26.75948568322655 35.081244172220806 -2.2722881970507864
    vertex -26.4556056541089 34.835442623557945 -2.3896252966403377
  endloop
endfacet
facet normal -0.6288943535912886 -0.7774907665181596 7.210121034785443e-16
  outer loop
    vertex -26.75948568322653 35.08124417222082 32.27098899801684
    vertex -26.4556056541089 34.835442623557945 -2.3896252966403377
    vertex -26.455605654108894 34.83544262355796 32.38832609760644
  endloop
endfacet
facet normal 0.4052268636018886 0.24084449859932677 0.8819212643483633
  outer loop
    vertex -18.118694395308694 36.17322788215128 32.120522634578634
    vertex -17.375129285678256 35.38634164293698 31.993759237390698
    vertex -17.908307944235986 36.28342800697411 31.99375923739074
  endloop
endfacet
facet normal 0.4052268636018886 0.24084449859932677 0.8819212643483633
  outer loop
    vertex -17.375129285678256 35.38634164293698 31.993759237390698
    vertex -18.118694395308694 36.17322788215128 32.120522634578634
    vertex -18.38402217097733 36.06867268877472 32.27098899801691
  endloop
endfacet
facet normal 0.4052268636018886 0.24084449859932677 0.8819212643483633
  outer loop
    vertex -17.375129285678256 35.38634164293698 31.993759237390698
    vertex -18.38402217097733 36.06867268877472 32.27098899801691
    vertex -17.648535400798973 35.20145438255189 32.16987539233972
  endloop
endfacet
facet normal 0.4052268636018886 0.24084449859932677 0.8819212643483633
  outer loop
    vertex -17.648535400798973 35.20145438255189 32.16987539233972
    vertex -18.38402217097733 36.06867268877472 32.27098899801691
    vertex -17.79714911952598 35.08124417222082 32.27098899801695
  endloop
endfacet
facet normal -0.36662204544226346 0.9303699671613068 3.445046625750112e-17
  outer loop
    vertex -19.11603974120791 35.780213486123905 32.46276997880306
    vertex -18.914464517999345 35.85964631741865 -2.443005440726622
    vertex -19.11603974120794 35.780213486123905 -2.4640691778369583
  endloop
endfacet
facet normal -0.36662204544226346 0.9303699671613068 3.445046625750112e-17
  outer loop
    vertex -18.914464517999345 35.85964631741865 -2.443005440726622
    vertex -19.11603974120791 35.780213486123905 32.46276997880306
    vertex -18.914464517999274 35.85964631741865 32.441706241692735
  endloop
endfacet
facet normal -0.36662204544226346 0.9303699671613068 3.445046625750112e-17
  outer loop
    vertex -18.914464517999345 35.85964631741865 -2.443005440726622
    vertex -18.914464517999274 35.85964631741865 32.441706241692735
    vertex -18.38402217097737 36.06867268877471 -2.272288197050792
  endloop
endfacet
facet normal -0.36662204544226346 0.9303699671613068 3.445046625750112e-17
  outer loop
    vertex -18.38402217097737 36.06867268877471 -2.272288197050792
    vertex -18.914464517999274 35.85964631741865 32.441706241692735
    vertex -18.38402217097733 36.06867268877472 32.27098899801691
  endloop
endfacet
facet normal -0.36662204544226346 0.9303699671613068 3.445046625750112e-17
  outer loop
    vertex -18.38402217097737 36.06867268877471 -2.272288197050792
    vertex -18.38402217097733 36.06867268877472 32.27098899801691
    vertex -18.118694395308662 36.17322788215127 -2.121821833612485
  endloop
endfacet
facet normal -0.36662204544226346 0.9303699671613068 3.445046625750112e-17
  outer loop
    vertex -18.118694395308662 36.17322788215127 -2.121821833612485
    vertex -18.38402217097733 36.06867268877472 32.27098899801691
    vertex -18.118694395308694 36.17322788215128 32.120522634578634
  endloop
endfacet
endsolid VV's Vr Gloves
