solid VV's Vr Gloves
facet normal -0.24953747051273012 0.1483113099491508 -0.9569403357322102
  outer loop
    vertex 26.357829715246744 35.85964631741865 -2.4430054407266164
    vertex 25.240514316773456 35.081244172220806 -2.2722881970507864
    vertex 25.827387368224805 36.06867268877471 -2.2722881970507864
  endloop
endfacet
facet normal -0.24953747051273012 0.1483113099491508 -0.9569403357322102
  outer loop
    vertex 25.240514316773456 35.081244172220806 -2.2722881970507864
    vertex 26.357829715246744 35.85964631741865 -2.4430054407266164
    vertex 25.544394345891106 34.835442623557945 -2.3896252966403377
  endloop
endfacet
facet normal -0.24953747051273012 0.1483113099491508 -0.9569403357322102
  outer loop
    vertex 25.544394345891106 34.835442623557945 -2.3896252966403377
    vertex 26.357829715246744 35.85964631741865 -2.4430054407266164
    vertex 25.674668985903235 34.710211386175324 -2.4430054407266164
  endloop
endfacet
facet normal 0.7599074192587347 0.45154284436233916 -0.4676000148211053
  outer loop
    vertex 35.01477903418924 36.735786592938936 -0.800246391866468
    vertex 35.33936391241749 35.809686133431995 -1.167360298575739
    vertex 34.828447141501805 36.669316317404785 -1.1673602985757392
  endloop
endfacet
facet normal 0.7599074192587347 0.45154284436233916 -0.4676000148211053
  outer loop
    vertex 35.33936391241749 35.809686133431995 -1.167360298575739
    vertex 35.01477903418924 36.735786592938936 -0.800246391866468
    vertex 35.48680458165508 35.94159186043757 -0.7997239904654372
  endloop
endfacet
facet normal 0.7599074192587347 0.45154284436233916 -0.4676000148211053
  outer loop
    vertex 35.48680458165508 35.94159186043757 -0.7997239904654372
    vertex 35.01477903418924 36.735786592938936 -0.800246391866468
    vertex 35.11121670129012 36.7306901695904 -0.6486998966122008
  endloop
endfacet
facet normal 0.7599074192587347 0.45154284436233916 -0.4676000148211053
  outer loop
    vertex 35.48680458165508 35.94159186043757 -0.7997239904654372
    vertex 35.11121670129012 36.7306901695904 -0.6486998966122008
    vertex 35.52841816033119 36.02873833045535 -0.6486998966122008
  endloop
endfacet
facet normal -0.5453436155766942 0.32412216823549167 -0.773010453362736
  outer loop
    vertex 25.35167314148346 36.2834280069741 -1.9950584364245645
    vertex 24.432374422482066 35.62647700918495 -1.6219699430765702
    vertex 24.948400395982173 36.49470355367595 -1.6219699430765704
  endloop
endfacet
facet normal -0.5453436155766942 0.32412216823549167 -0.773010453362736
  outer loop
    vertex 24.432374422482066 35.62647700918495 -1.6219699430765702
    vertex 25.35167314148346 36.2834280069741 -1.9950584364245645
    vertex 24.60979359842263 35.527472849013634 -1.788647971010902
  endloop
endfacet
facet normal -0.5453436155766942 0.32412216823549167 -0.773010453362736
  outer loop
    vertex 24.60979359842263 35.527472849013634 -1.788647971010902
    vertex 25.35167314148346 36.2834280069741 -1.9950584364245645
    vertex 24.818494482925722 35.38634164293697 -1.995058436424564
  endloop
endfacet
facet normal 0.5453436155766992 0.32412216823552575 -0.7730104533627181
  outer loop
    vertex 35.01099077476542 35.62647700918495 -1.6219699430765757
    vertex 34.09169205576399 36.2834280069741 -1.99505843642457
    vertex 34.49496480126527 36.49470355367595 -1.6219699430765762
  endloop
endfacet
facet normal 0.5453436155766992 0.32412216823552575 -0.7730104533627181
  outer loop
    vertex 34.09169205576399 36.2834280069741 -1.99505843642457
    vertex 35.01099077476542 35.62647700918495 -1.6219699430765757
    vertex 34.83357159882484 35.527472849013634 -1.7886479710109076
  endloop
endfacet
facet normal 0.5453436155766992 0.32412216823552575 -0.7730104533627181
  outer loop
    vertex 34.09169205576399 36.2834280069741 -1.99505843642457
    vertex 34.83357159882484 35.527472849013634 -1.7886479710109076
    vertex 34.62487071432181 35.38634164293697 -1.9950584364245698
  endloop
endfacet
facet normal 0.24953747051272127 0.14831130994915076 -0.9569403357322126
  outer loop
    vertex 34.20285088047399 35.081244172220806 -2.272288197050792
    vertex 33.085535482000665 35.85964631741865 -2.443005440726622
    vertex 33.61597782902264 36.06867268877471 -2.272288197050792
  endloop
endfacet
facet normal 0.24953747051272127 0.14831130994915076 -0.9569403357322126
  outer loop
    vertex 33.085535482000665 35.85964631741865 -2.443005440726622
    vertex 34.20285088047399 35.081244172220806 -2.272288197050792
    vertex 33.89897085135636 34.835442623557945 -2.3896252966403435
  endloop
endfacet
facet normal 0.24953747051272127 0.14831130994915076 -0.9569403357322126
  outer loop
    vertex 33.085535482000665 35.85964631741865 -2.443005440726622
    vertex 33.89897085135636 34.835442623557945 -2.3896252966403435
    vertex 33.76869621134419 34.710211386175324 -2.443005440726622
  endloop
endfacet
facet normal -0.6930142833164652 -0.7209238538981536 -3.855007780386521e-16
  outer loop
    vertex 25.544394345891106 34.835442623557945 -2.3896252966403377
    vertex 25.674668985903246 34.71021138617533 12.441706241692705
    vertex 25.544394345891078 34.83544262355795 12.388326097606436
  endloop
endfacet
facet normal -0.6930142833164652 -0.7209238538981536 -3.855007780386521e-16
  outer loop
    vertex 25.674668985903246 34.71021138617533 12.441706241692705
    vertex 25.544394345891106 34.835442623557945 -2.3896252966403377
    vertex 25.674668985903235 34.710211386175324 -2.4430054407266164
  endloop
endfacet
facet normal -0.6930142833164652 -0.7209238538981536 -3.855007780386521e-16
  outer loop
    vertex 25.674668985903246 34.71021138617533 12.441706241692705
    vertex 25.674668985903235 34.710211386175324 -2.4430054407266164
    vertex 25.963966578268696 34.4321135502468 -2.4814932997855155
  endloop
endfacet
facet normal -0.6930142833164652 -0.7209238538981536 -3.855007780386521e-16
  outer loop
    vertex 25.674668985903246 34.71021138617533 12.441706241692705
    vertex 25.963966578268696 34.4321135502468 -2.4814932997855155
    vertex 25.963966578268675 34.432113550246804 12.480194100751604
  endloop
endfacet
facet normal -0.6625008044689336 0.3937539398442471 -0.6372209341626723
  outer loop
    vertex 24.104001284829977 35.809686133431995 -1.1673602985757334
    vertex 24.948400395982173 36.49470355367595 -1.6219699430765704
    vertex 24.432374422482066 35.62647700918495 -1.6219699430765702
  endloop
endfacet
facet normal -0.6625008044689336 0.3937539398442471 -0.6372209341626723
  outer loop
    vertex 24.948400395982173 36.49470355367595 -1.6219699430765704
    vertex 24.104001284829977 35.809686133431995 -1.1673602985757334
    vertex 24.614918055745683 36.669316317404785 -1.1673602985757336
  endloop
endfacet
facet normal -0.6087614290087267 -0.7933533402912306 -6.539502395845412e-16
  outer loop
    vertex 27.514575817437187 32.059939685442494 -2.5006495995169273
    vertex 27.721682598623712 31.901021062844606 12.499350400483067
    vertex 27.514575817437166 32.059939685442494 12.499350400483067
  endloop
endfacet
facet normal -0.6087614290087267 -0.7933533402912306 -6.539502395845412e-16
  outer loop
    vertex 27.721682598623712 31.901021062844606 12.499350400483067
    vertex 27.514575817437187 32.059939685442494 -2.5006495995169273
    vertex 27.721682598623733 31.9010210628446 -2.5006495995169273
  endloop
endfacet
facet normal -0.4052268636018991 0.2408444985993308 -0.881921264348357
  outer loop
    vertex 25.562059592556153 36.17322788215127 -2.1218218336124792
    vertex 24.818494482925722 35.38634164293697 -1.995058436424564
    vertex 25.35167314148346 36.2834280069741 -1.9950584364245645
  endloop
endfacet
facet normal -0.4052268636018991 0.2408444985993308 -0.881921264348357
  outer loop
    vertex 24.818494482925722 35.38634164293697 -1.995058436424564
    vertex 25.562059592556153 36.17322788215127 -2.1218218336124792
    vertex 25.827387368224805 36.06867268877471 -2.2722881970507864
  endloop
endfacet
facet normal -0.4052268636018991 0.2408444985993308 -0.881921264348357
  outer loop
    vertex 24.818494482925722 35.38634164293697 -1.995058436424564
    vertex 25.827387368224805 36.06867268877471 -2.2722881970507864
    vertex 25.091900598046443 35.20145438255188 -2.171174591373571
  endloop
endfacet
facet normal -0.4052268636018991 0.2408444985993308 -0.881921264348357
  outer loop
    vertex 25.091900598046443 35.20145438255188 -2.171174591373571
    vertex 25.827387368224805 36.06867268877471 -2.2722881970507864
    vertex 25.240514316773456 35.081244172220806 -2.2722881970507864
  endloop
endfacet
facet normal -0.08425849237399043 0.05007860083157062 -0.9951847266721965
  outer loop
    vertex 26.55940493845536 35.780213486123905 -2.4640691778369526
    vertex 25.674668985903235 34.710211386175324 -2.4430054407266164
    vertex 26.357829715246744 35.85964631741865 -2.4430054407266164
  endloop
endfacet
facet normal -0.08425849237399043 0.05007860083157062 -0.9951847266721965
  outer loop
    vertex 25.674668985903235 34.710211386175324 -2.4430054407266164
    vertex 26.55940493845536 35.780213486123905 -2.4640691778369526
    vertex 26.930812192622763 35.678172662830484 -2.5006495995169282
  endloop
endfacet
facet normal -0.08425849237399043 0.05007860083157062 -0.9951847266721965
  outer loop
    vertex 25.674668985903235 34.710211386175324 -2.4430054407266164
    vertex 26.930812192622763 35.678172662830484 -2.5006495995169282
    vertex 25.963966578268696 34.4321135502468 -2.4814932997855155
  endloop
endfacet
facet normal -0.08425849237399043 0.05007860083157062 -0.9951847266721965
  outer loop
    vertex 25.963966578268696 34.4321135502468 -2.4814932997855155
    vertex 26.930812192622763 35.678172662830484 -2.5006495995169282
    vertex 26.09878828130426 34.278271722654644 -2.500649599516928
  endloop
endfacet
facet normal -0.1305261922200536 -0.9914448613738103 1.3074680209717783e-16
  outer loop
    vertex 27.962863553521213 31.801120640339974 -2.5006495995169273
    vertex 28.22168259862371 31.767046466629047 12.499350400483067
    vertex 27.962863553521192 31.801120640339978 12.499350400483067
  endloop
endfacet
facet normal -0.1305261922200536 -0.9914448613738103 1.3074680209717783e-16
  outer loop
    vertex 28.22168259862371 31.767046466629047 12.499350400483067
    vertex 27.962863553521213 31.801120640339974 -2.5006495995169273
    vertex 28.221682598623733 31.76704646662904 -2.5006495995169273
  endloop
endfacet
facet normal 0.405226863601868 0.24084449859931656 -0.8819212643483754
  outer loop
    vertex 34.62487071432181 35.38634164293697 -1.9950584364245698
    vertex 33.88130560469134 36.17322788215127 -2.121821833612485
    vertex 34.09169205576399 36.2834280069741 -1.99505843642457
  endloop
endfacet
facet normal 0.405226863601868 0.24084449859931656 -0.8819212643483754
  outer loop
    vertex 33.88130560469134 36.17322788215127 -2.121821833612485
    vertex 34.62487071432181 35.38634164293697 -1.9950584364245698
    vertex 33.61597782902264 36.06867268877471 -2.272288197050792
  endloop
endfacet
facet normal 0.405226863601868 0.24084449859931656 -0.8819212643483754
  outer loop
    vertex 33.61597782902264 36.06867268877471 -2.272288197050792
    vertex 34.62487071432181 35.38634164293697 -1.9950584364245698
    vertex 34.351464599200995 35.20145438255188 -2.171174591373577
  endloop
endfacet
facet normal 0.405226863601868 0.24084449859931656 -0.8819212643483754
  outer loop
    vertex 33.61597782902264 36.06867268877471 -2.272288197050792
    vertex 34.351464599200995 35.20145438255188 -2.171174591373577
    vertex 34.20285088047399 35.081244172220806 -2.272288197050792
  endloop
endfacet
facet normal -0.805622135737949 -0.5924297210716439 -1.0284303779235467e-15
  outer loop
    vertex 26.692339345210033 33.52554998243093 12.499350400483067
    vertex 26.347549726649344 33.994415974472474 -2.500649599516928
    vertex 26.692339345210055 33.525549982430924 -2.500649599516928
  endloop
endfacet
facet normal -0.805622135737949 -0.5924297210716439 -1.0284303779235467e-15
  outer loop
    vertex 26.347549726649344 33.994415974472474 -2.500649599516928
    vertex 26.692339345210033 33.52554998243093 12.499350400483067
    vertex 26.347549726649323 33.994415974472474 12.499350400483067
  endloop
endfacet
facet normal 0.6087614290087265 -0.7933533402912306 1.1772598638020833e-15
  outer loop
    vertex 31.721682598623744 31.9010210628446 -2.500649599516933
    vertex 31.928789379810265 32.059939685442494 12.499350400483054
    vertex 31.72168259862372 31.901021062844606 12.499350400483054
  endloop
endfacet
facet normal 0.6087614290087265 -0.7933533402912306 1.1772598638020833e-15
  outer loop
    vertex 31.928789379810265 32.059939685442494 12.499350400483054
    vertex 31.721682598623744 31.9010210628446 -2.500649599516933
    vertex 31.928789379810286 32.059939685442494 -2.500649599516933
  endloop
endfacet
facet normal 0.805622135737949 -0.5924297210716439 1.3922144237216761e-15
  outer loop
    vertex 33.09581547059811 33.994415974472474 12.499350400483054
    vertex 32.75102585203742 33.525549982430924 -2.500649599516933
    vertex 33.09581547059813 33.994415974472474 -2.500649599516933
  endloop
endfacet
facet normal 0.805622135737949 -0.5924297210716439 1.3922144237216761e-15
  outer loop
    vertex 32.75102585203742 33.525549982430924 -2.500649599516933
    vertex 33.09581547059811 33.994415974472474 12.499350400483054
    vertex 32.751025852037394 33.52554998243093 12.499350400483054
  endloop
endfacet
facet normal -0.9023967110526536 -0.4309062263200122 -2.052360794104124e-15
  outer loop
    vertex 23.95656061559237 35.941591860437576 10.798424791431525
    vertex 23.914947036916292 36.02873833045535 -0.6486998966121952
    vertex 23.95656061559243 35.94159186043757 -0.7997239904654315
  endloop
endfacet
facet normal -0.9023967110526536 -0.4309062263200122 -2.052360794104124e-15
  outer loop
    vertex 23.914947036916292 36.02873833045535 -0.6486998966121952
    vertex 23.95656061559237 35.941591860437576 10.798424791431525
    vertex 23.87249498114087 36.11764072538311 -0.3864217271825916
  endloop
endfacet
facet normal -0.9023967110526536 -0.4309062263200122 -2.052360794104124e-15
  outer loop
    vertex 23.87249498114087 36.11764072538311 -0.3864217271825916
    vertex 23.95656061559237 35.941591860437576 10.798424791431525
    vertex 23.87249498114089 36.11764072538311 10.38512252814868
  endloop
endfacet
facet normal -0.9023967110526536 -0.4309062263200122 -2.052360794104124e-15
  outer loop
    vertex 23.87249498114089 36.11764072538311 10.38512252814868
    vertex 23.95656061559237 35.941591860437576 10.798424791431525
    vertex 23.914947036916256 36.02873833045535 10.647400697578316
  endloop
endfacet
facet normal 0.6930142833164751 -0.7209238538981441 5.785222900025878e-16
  outer loop
    vertex 33.47939861897878 34.4321135502468 -2.500649599516933
    vertex 33.76869621134421 34.71021138617533 12.441706241692806
    vertex 33.479398618978756 34.432113550246804 12.480194100751739
  endloop
endfacet
facet normal 0.6930142833164751 -0.7209238538981441 5.785222900025878e-16
  outer loop
    vertex 33.76869621134421 34.71021138617533 12.441706241692806
    vertex 33.47939861897878 34.4321135502468 -2.500649599516933
    vertex 33.76869621134419 34.710211386175324 -2.443005440726622
  endloop
endfacet
facet normal 0.6930142833164751 -0.7209238538981441 5.785222900025878e-16
  outer loop
    vertex 33.76869621134421 34.71021138617533 12.441706241692806
    vertex 33.76869621134419 34.710211386175324 -2.443005440726622
    vertex 33.89897085135636 34.835442623557945 -2.3896252966403435
  endloop
endfacet
facet normal 0.6930142833164751 -0.7209238538981441 5.785222900025878e-16
  outer loop
    vertex 33.76869621134421 34.71021138617533 12.441706241692806
    vertex 33.89897085135636 34.835442623557945 -2.3896252966403435
    vertex 33.89897085135634 34.83544262355795 12.388326097606459
  endloop
endfacet
facet normal -0.853286762044145 -0.5214419447265621 -1.1239327120836398e-15
  outer loop
    vertex 26.99581461464555 33.02894353825066 12.499350400483067
    vertex 26.692339345210055 33.525549982430924 -2.500649599516928
    vertex 26.99581461464557 33.02894353825065 -2.500649599516928
  endloop
endfacet
facet normal -0.853286762044145 -0.5214419447265621 -1.1239327120836398e-15
  outer loop
    vertex 26.692339345210055 33.525549982430924 -2.500649599516928
    vertex 26.99581461464555 33.02894353825066 12.499350400483067
    vertex 26.692339345210033 33.52554998243093 12.499350400483067
  endloop
endfacet
facet normal 0.7520674601867797 -0.6590861365012974 1.356374166172893e-15
  outer loop
    vertex 33.479398618978756 34.432113550246804 12.480194100751739
    vertex 33.34457691594322 34.278271722654644 -2.500649599516933
    vertex 33.47939861897878 34.4321135502468 -2.500649599516933
  endloop
endfacet
facet normal 0.7520674601867797 -0.6590861365012974 1.356374166172893e-15
  outer loop
    vertex 33.34457691594322 34.278271722654644 -2.500649599516933
    vertex 33.479398618978756 34.432113550246804 12.480194100751739
    vertex 33.09581547059813 33.994415974472474 -2.500649599516933
  endloop
endfacet
facet normal 0.7520674601867797 -0.6590861365012974 1.356374166172893e-15
  outer loop
    vertex 33.09581547059813 33.994415974472474 -2.500649599516933
    vertex 33.479398618978756 34.432113550246804 12.480194100751739
    vertex 33.09581547059811 33.994415974472474 12.499350400483054
  endloop
endfacet
facet normal 0.7520674601867797 -0.6590861365012974 1.356374166172893e-15
  outer loop
    vertex 33.09581547059811 33.994415974472474 12.499350400483054
    vertex 33.479398618978756 34.432113550246804 12.480194100751739
    vertex 33.344576915943215 34.278271722654665 12.499350400483111
  endloop
endfacet
facet normal 0.662500804468923 0.3937539398442496 -0.6372209341626819
  outer loop
    vertex 34.828447141501805 36.669316317404785 -1.1673602985757392
    vertex 35.01099077476542 35.62647700918495 -1.6219699430765757
    vertex 34.49496480126527 36.49470355367595 -1.6219699430765762
  endloop
endfacet
facet normal 0.662500804468923 0.3937539398442496 -0.6372209341626819
  outer loop
    vertex 35.01099077476542 35.62647700918495 -1.6219699430765757
    vertex 34.828447141501805 36.669316317404785 -1.1673602985757392
    vertex 35.33936391241749 35.809686133431995 -1.167360298575739
  endloop
endfacet
facet normal 0.13052619222005357 -0.9914448613738103 5.233815364284168e-16
  outer loop
    vertex 31.221682598623744 31.76704646662904 -2.500649599516933
    vertex 31.48050164372624 31.801120640339978 12.499350400483054
    vertex 31.22168259862372 31.767046466629047 12.499350400483054
  endloop
endfacet
facet normal 0.13052619222005357 -0.9914448613738103 5.233815364284168e-16
  outer loop
    vertex 31.48050164372624 31.801120640339978 12.499350400483054
    vertex 31.221682598623744 31.76704646662904 -2.500649599516933
    vertex 31.48050164372626 31.801120640339974 -2.500649599516933
  endloop
endfacet
facet normal 0.08507424156092745 0.05543250649966366 -0.9948314483599712
  outer loop
    vertex 33.76869621134419 34.710211386175324 -2.443005440726622
    vertex 32.883960258792065 35.780213486123905 -2.4640691778369583
    vertex 33.085535482000665 35.85964631741865 -2.443005440726622
  endloop
endfacet
facet normal 0.08507424156092745 0.05543250649966366 -0.9948314483599712
  outer loop
    vertex 32.883960258792065 35.780213486123905 -2.4640691778369583
    vertex 33.76869621134419 34.710211386175324 -2.443005440726622
    vertex 32.51255300462465 35.678172662830484 -2.5006495995169336
  endloop
endfacet
facet normal 0.08507424156092745 0.05543250649966366 -0.9948314483599712
  outer loop
    vertex 32.51255300462465 35.678172662830484 -2.5006495995169336
    vertex 33.76869621134419 34.710211386175324 -2.443005440726622
    vertex 33.47939861897878 34.4321135502468 -2.500649599516933
  endloop
endfacet
facet normal 0.08507424156092745 0.05543250649966366 -0.9948314483599712
  outer loop
    vertex 32.51255300462465 35.678172662830484 -2.5006495995169336
    vertex 33.47939861897878 34.4321135502468 -2.500649599516933
    vertex 33.34457691594322 34.278271722654644 -2.500649599516933
  endloop
endfacet
facet normal -1.087665881106861e-15 -1.4206773123320473e-16 -1.0
  outer loop
    vertex 27.59308985279114 35.496217795406274 -2.5006495995169282
    vertex 26.09878828130426 34.278271722654644 -2.500649599516928
    vertex 26.930812192622763 35.678172662830484 -2.5006495995169282
  endloop
endfacet
facet normal -1.087665881106861e-15 -1.4206773123320473e-16 -1.0
  outer loop
    vertex 26.09878828130426 34.278271722654644 -2.500649599516928
    vertex 27.59308985279114 35.496217795406274 -2.5006495995169282
    vertex 28.651235662112555 35.32450436935262 -2.5006495995169282
  endloop
endfacet
facet normal -1.087665881106861e-15 -1.4206773123320473e-16 -1.0
  outer loop
    vertex 26.09878828130426 34.278271722654644 -2.500649599516928
    vertex 28.651235662112555 35.32450436935262 -2.5006495995169282
    vertex 29.721682598623733 35.26704646662904 -2.5006495995169282
  endloop
endfacet
facet normal -1.087665881106861e-15 -1.4206773123320473e-16 -1.0
  outer loop
    vertex 26.09878828130426 34.278271722654644 -2.500649599516928
    vertex 29.721682598623733 35.26704646662904 -2.5006495995169282
    vertex 33.34457691594322 34.278271722654644 -2.500649599516933
  endloop
endfacet
facet normal -1.087665881106861e-15 -1.4206773123320473e-16 -1.0
  outer loop
    vertex 26.09878828130426 34.278271722654644 -2.500649599516928
    vertex 33.34457691594322 34.278271722654644 -2.500649599516933
    vertex 31.346682598623744 34.26704646662904 -2.500649599516933
  endloop
endfacet
facet normal -1.087665881106861e-15 -1.4206773123320473e-16 -1.0
  outer loop
    vertex 31.346682598623744 34.26704646662904 -2.500649599516933
    vertex 33.34457691594322 34.278271722654644 -2.500649599516933
    vertex 33.09581547059813 33.994415974472474 -2.500649599516933
  endloop
endfacet
facet normal -1.087665881106861e-15 -1.4206773123320473e-16 -1.0
  outer loop
    vertex 31.346682598623744 34.26704646662904 -2.500649599516933
    vertex 33.09581547059813 33.994415974472474 -2.500649599516933
    vertex 31.346682598623744 32.51704646662904 -2.500649599516933
  endloop
endfacet
facet normal -1.087665881106861e-15 -1.4206773123320473e-16 -1.0
  outer loop
    vertex 31.346682598623744 32.51704646662904 -2.500649599516933
    vertex 33.09581547059813 33.994415974472474 -2.500649599516933
    vertex 32.75102585203742 33.525549982430924 -2.500649599516933
  endloop
endfacet
facet normal -1.087665881106861e-15 -1.4206773123320473e-16 -1.0
  outer loop
    vertex 31.346682598623744 32.51704646662904 -2.500649599516933
    vertex 32.75102585203742 33.525549982430924 -2.500649599516933
    vertex 32.447550582601906 33.02894353825065 -2.500649599516933
  endloop
endfacet
facet normal -1.087665881106861e-15 -1.4206773123320473e-16 -1.0
  outer loop
    vertex 31.346682598623744 32.51704646662904 -2.500649599516933
    vertex 32.447550582601906 33.02894353825065 -2.500649599516933
    vertex 32.187608424912796 32.508227421526506 -2.500649599516933
  endloop
endfacet
facet normal -1.087665881106861e-15 -1.4206773123320473e-16 -1.0
  outer loop
    vertex 31.346682598623744 32.51704646662904 -2.500649599516933
    vertex 32.187608424912796 32.508227421526506 -2.500649599516933
    vertex 28.096682598623733 32.51704646662904 -2.5006495995169273
  endloop
endfacet
facet normal -1.087665881106861e-15 -1.4206773123320473e-16 -1.0
  outer loop
    vertex 26.09878828130426 34.278271722654644 -2.500649599516928
    vertex 28.096682598623733 34.26704646662904 -2.500649599516928
    vertex 26.347549726649344 33.994415974472474 -2.500649599516928
  endloop
endfacet
facet normal -1.087665881106861e-15 -1.4206773123320473e-16 -1.0
  outer loop
    vertex 28.096682598623733 34.26704646662904 -2.500649599516928
    vertex 26.09878828130426 34.278271722654644 -2.500649599516928
    vertex 31.346682598623744 34.26704646662904 -2.500649599516933
  endloop
endfacet
facet normal -1.087665881106861e-15 -1.4206773123320473e-16 -1.0
  outer loop
    vertex 26.347549726649344 33.994415974472474 -2.500649599516928
    vertex 28.096682598623733 34.26704646662904 -2.500649599516928
    vertex 28.096682598623733 32.51704646662904 -2.5006495995169273
  endloop
endfacet
facet normal -1.087665881106861e-15 -1.4206773123320473e-16 -1.0
  outer loop
    vertex 26.347549726649344 33.994415974472474 -2.500649599516928
    vertex 28.096682598623733 32.51704646662904 -2.5006495995169273
    vertex 26.692339345210055 33.525549982430924 -2.500649599516928
  endloop
endfacet
facet normal -1.087665881106861e-15 -1.4206773123320473e-16 -1.0
  outer loop
    vertex 26.692339345210055 33.525549982430924 -2.500649599516928
    vertex 28.096682598623733 32.51704646662904 -2.5006495995169273
    vertex 26.99581461464557 33.02894353825065 -2.500649599516928
  endloop
endfacet
facet normal -1.087665881106861e-15 -1.4206773123320473e-16 -1.0
  outer loop
    vertex 26.99581461464557 33.02894353825065 -2.500649599516928
    vertex 28.096682598623733 32.51704646662904 -2.5006495995169273
    vertex 27.25575677233468 32.508227421526506 -2.5006495995169273
  endloop
endfacet
facet normal -1.087665881106861e-15 -1.4206773123320473e-16 -1.0
  outer loop
    vertex 27.25575677233468 32.508227421526506 -2.5006495995169273
    vertex 28.096682598623733 32.51704646662904 -2.5006495995169273
    vertex 32.187608424912796 32.508227421526506 -2.500649599516933
  endloop
endfacet
facet normal -1.087665881106861e-15 -1.4206773123320473e-16 -1.0
  outer loop
    vertex 27.25575677233468 32.508227421526506 -2.5006495995169273
    vertex 32.187608424912796 32.508227421526506 -2.500649599516933
    vertex 32.087708002408185 32.26704646662904 -2.500649599516933
  endloop
endfacet
facet normal -1.087665881106861e-15 -1.4206773123320473e-16 -1.0
  outer loop
    vertex 27.25575677233468 32.508227421526506 -2.5006495995169273
    vertex 32.087708002408185 32.26704646662904 -2.500649599516933
    vertex 27.355657194839292 32.26704646662904 -2.5006495995169273
  endloop
endfacet
facet normal -1.087665881106861e-15 -1.4206773123320473e-16 -1.0
  outer loop
    vertex 27.355657194839292 32.26704646662904 -2.5006495995169273
    vertex 32.087708002408185 32.26704646662904 -2.500649599516933
    vertex 31.928789379810286 32.059939685442494 -2.500649599516933
  endloop
endfacet
facet normal -1.087665881106861e-15 -1.4206773123320473e-16 -1.0
  outer loop
    vertex 27.355657194839292 32.26704646662904 -2.5006495995169273
    vertex 31.928789379810286 32.059939685442494 -2.500649599516933
    vertex 27.514575817437187 32.059939685442494 -2.5006495995169273
  endloop
endfacet
facet normal -1.087665881106861e-15 -1.4206773123320473e-16 -1.0
  outer loop
    vertex 27.514575817437187 32.059939685442494 -2.5006495995169273
    vertex 31.928789379810286 32.059939685442494 -2.500649599516933
    vertex 31.721682598623744 31.9010210628446 -2.500649599516933
  endloop
endfacet
facet normal -1.087665881106861e-15 -1.4206773123320473e-16 -1.0
  outer loop
    vertex 27.514575817437187 32.059939685442494 -2.5006495995169273
    vertex 31.721682598623744 31.9010210628446 -2.500649599516933
    vertex 27.721682598623733 31.9010210628446 -2.5006495995169273
  endloop
endfacet
facet normal -1.087665881106861e-15 -1.4206773123320473e-16 -1.0
  outer loop
    vertex 27.721682598623733 31.9010210628446 -2.5006495995169273
    vertex 31.721682598623744 31.9010210628446 -2.500649599516933
    vertex 31.48050164372626 31.801120640339974 -2.500649599516933
  endloop
endfacet
facet normal -1.087665881106861e-15 -1.4206773123320473e-16 -1.0
  outer loop
    vertex 27.721682598623733 31.9010210628446 -2.5006495995169273
    vertex 31.48050164372626 31.801120640339974 -2.500649599516933
    vertex 27.962863553521213 31.801120640339974 -2.5006495995169273
  endloop
endfacet
facet normal -1.087665881106861e-15 -1.4206773123320473e-16 -1.0
  outer loop
    vertex 27.962863553521213 31.801120640339974 -2.5006495995169273
    vertex 31.48050164372626 31.801120640339974 -2.500649599516933
    vertex 31.221682598623744 31.76704646662904 -2.500649599516933
  endloop
endfacet
facet normal -1.087665881106861e-15 -1.4206773123320473e-16 -1.0
  outer loop
    vertex 27.962863553521213 31.801120640339974 -2.5006495995169273
    vertex 31.221682598623744 31.76704646662904 -2.500649599516933
    vertex 28.221682598623733 31.76704646662904 -2.5006495995169273
  endloop
endfacet
facet normal -1.087665881106861e-15 -1.4206773123320473e-16 -1.0
  outer loop
    vertex 33.34457691594322 34.278271722654644 -2.500649599516933
    vertex 31.850275344456335 35.496217795406274 -2.5006495995169336
    vertex 32.51255300462465 35.678172662830484 -2.5006495995169336
  endloop
endfacet
facet normal -1.087665881106861e-15 -1.4206773123320473e-16 -1.0
  outer loop
    vertex 31.850275344456335 35.496217795406274 -2.5006495995169336
    vertex 33.34457691594322 34.278271722654644 -2.500649599516933
    vertex 30.792129535134922 35.32450436935262 -2.5006495995169336
  endloop
endfacet
facet normal -1.087665881106861e-15 -1.4206773123320473e-16 -1.0
  outer loop
    vertex 30.792129535134922 35.32450436935262 -2.5006495995169336
    vertex 33.34457691594322 34.278271722654644 -2.500649599516933
    vertex 29.721682598623733 35.26704646662904 -2.5006495995169282
  endloop
endfacet
facet normal -0.7599074192587487 0.4515428443623361 -0.467600014821086
  outer loop
    vertex 23.95656061559243 35.94159186043757 -0.7997239904654315
    vertex 24.614918055745683 36.669316317404785 -1.1673602985757336
    vertex 24.104001284829977 35.809686133431995 -1.1673602985757334
  endloop
endfacet
facet normal -0.7599074192587487 0.4515428443623361 -0.467600014821086
  outer loop
    vertex 24.614918055745683 36.669316317404785 -1.1673602985757336
    vertex 23.95656061559243 35.94159186043757 -0.7997239904654315
    vertex 24.428586163058192 36.735786592938936 -0.8002463918664623
  endloop
endfacet
facet normal -0.7599074192587487 0.4515428443623361 -0.467600014821086
  outer loop
    vertex 24.428586163058192 36.735786592938936 -0.8002463918664623
    vertex 23.95656061559243 35.94159186043757 -0.7997239904654315
    vertex 24.332148495957394 36.7306901695904 -0.6486998966121952
  endloop
endfacet
facet normal -0.7599074192587487 0.4515428443623361 -0.467600014821086
  outer loop
    vertex 24.332148495957394 36.7306901695904 -0.6486998966121952
    vertex 23.95656061559243 35.94159186043757 -0.7997239904654315
    vertex 23.914947036916292 36.02873833045535 -0.6486998966121952
  endloop
endfacet
facet normal -0.8947128543955145 -0.4466418119471473 -1.2031028457856631e-15
  outer loop
    vertex 27.25575677233466 32.50822742152651 12.499350400483067
    vertex 26.99581461464557 33.02894353825065 -2.500649599516928
    vertex 27.25575677233468 32.508227421526506 -2.5006495995169273
  endloop
endfacet
facet normal -0.8947128543955145 -0.4466418119471473 -1.2031028457856631e-15
  outer loop
    vertex 26.99581461464557 33.02894353825065 -2.500649599516928
    vertex 27.25575677233466 32.50822742152651 12.499350400483067
    vertex 26.99581461464555 33.02894353825066 12.499350400483067
  endloop
endfacet
facet normal 0.3826834323650829 -0.9238795325112897 8.808513141852576e-16
  outer loop
    vertex 31.48050164372626 31.801120640339974 -2.500649599516933
    vertex 31.72168259862372 31.901021062844606 12.499350400483054
    vertex 31.48050164372624 31.801120640339978 12.499350400483054
  endloop
endfacet
facet normal 0.3826834323650829 -0.9238795325112897 8.808513141852576e-16
  outer loop
    vertex 31.72168259862372 31.901021062844606 12.499350400483054
    vertex 31.48050164372626 31.801120640339974 -2.500649599516933
    vertex 31.721682598623744 31.9010210628446 -2.500649599516933
  endloop
endfacet
facet normal 0.9023967110526876 -0.43090622631994135 1.8767619941170104e-15
  outer loop
    vertex 35.52841816033119 36.02873833045535 -0.6486998966122008
    vertex 35.48680458165503 35.941591860437576 10.798424791431593
    vertex 35.48680458165508 35.94159186043757 -0.7997239904654372
  endloop
endfacet
facet normal 0.9023967110526876 -0.43090622631994135 1.8767619941170104e-15
  outer loop
    vertex 35.48680458165503 35.941591860437576 10.798424791431593
    vertex 35.52841816033119 36.02873833045535 -0.6486998966122008
    vertex 35.57087021610655 36.11764072538311 -0.38642172718259726
  endloop
endfacet
facet normal 0.9023967110526876 -0.43090622631994135 1.8767619941170104e-15
  outer loop
    vertex 35.48680458165503 35.941591860437576 10.798424791431593
    vertex 35.57087021610655 36.11764072538311 -0.38642172718259726
    vertex 35.57087021610656 36.11764072538311 10.3851225281487
  endloop
endfacet
facet normal 0.9023967110526876 -0.43090622631994135 1.8767619941170104e-15
  outer loop
    vertex 35.48680458165503 35.941591860437576 10.798424791431593
    vertex 35.57087021610656 36.11764072538311 10.3851225281487
    vertex 35.52841816033117 36.02873833045535 10.647400697578373
  endloop
endfacet
facet normal -0.4872456990252446 -0.8732649247401393 -4.1706761832445996e-16
  outer loop
    vertex 24.104001284829977 35.809686133431995 -1.1673602985757334
    vertex 24.432374422482038 35.62647700918495 11.620670744042641
    vertex 24.104001284829963 35.809686133432 11.166061099541787
  endloop
endfacet
facet normal -0.4872456990252446 -0.8732649247401393 -4.1706761832445996e-16
  outer loop
    vertex 24.432374422482038 35.62647700918495 11.620670744042641
    vertex 24.104001284829977 35.809686133431995 -1.1673602985757334
    vertex 24.432374422482066 35.62647700918495 -1.6219699430765702
  endloop
endfacet
facet normal -0.4872456990252446 -0.8732649247401393 -4.1706761832445996e-16
  outer loop
    vertex 24.432374422482038 35.62647700918495 11.620670744042641
    vertex 24.432374422482066 35.62647700918495 -1.6219699430765702
    vertex 24.609793598422616 35.527472849013634 11.787348771976996
  endloop
endfacet
facet normal -0.4872456990252446 -0.8732649247401393 -4.1706761832445996e-16
  outer loop
    vertex 24.609793598422616 35.527472849013634 11.787348771976996
    vertex 24.432374422482066 35.62647700918495 -1.6219699430765702
    vertex 24.60979359842263 35.527472849013634 -1.788647971010902
  endloop
endfacet
facet normal -0.9238795325113066 -0.38268343236504204 -1.2628196313299484e-15
  outer loop
    vertex 27.35565719483927 32.26704646662905 12.499350400483067
    vertex 27.25575677233468 32.508227421526506 -2.5006495995169273
    vertex 27.355657194839292 32.26704646662904 -2.5006495995169273
  endloop
endfacet
facet normal -0.9238795325113066 -0.38268343236504204 -1.2628196313299484e-15
  outer loop
    vertex 27.25575677233468 32.508227421526506 -2.5006495995169273
    vertex 27.35565719483927 32.26704646662905 12.499350400483067
    vertex 27.25575677233466 32.50822742152651 12.499350400483067
  endloop
endfacet
facet normal 0.8596301839727423 0.5109167709157623 -4.13457798988892e-16
  outer loop
    vertex 35.37722890117064 36.636422545458196 10.084621366531458
    vertex 35.572748284717576 36.30745631609085 -0.08592056556532059
    vertex 35.37722890117062 36.63642254545819 -0.08592056556532059
  endloop
endfacet
facet normal 0.8596301839727423 0.5109167709157623 -4.13457798988892e-16
  outer loop
    vertex 35.572748284717576 36.30745631609085 -0.08592056556532059
    vertex 35.37722890117064 36.636422545458196 10.084621366531458
    vertex 35.57274828471756 36.30745631609086 10.084621366531504
  endloop
endfacet
facet normal -0.05277317218830369 0.9986065252626702 -3.060207268030907e-16
  outer loop
    vertex 24.233767694477294 36.72549105778291 10.385416221900806
    vertex 24.332148495957394 36.7306901695904 -0.6486998966121952
    vertex 24.233767694477287 36.72549105778291 -0.38671542093473665
  endloop
endfacet
facet normal -0.05277317218830369 0.9986065252626702 -3.060207268030907e-16
  outer loop
    vertex 24.332148495957394 36.7306901695904 -0.6486998966121952
    vertex 24.233767694477294 36.72549105778291 10.385416221900806
    vertex 24.332148495957373 36.7306901695904 10.647400697578282
  endloop
endfacet
facet normal -0.05277317218830369 0.9986065252626702 -3.060207268030907e-16
  outer loop
    vertex 24.332148495957394 36.7306901695904 -0.6486998966121952
    vertex 24.332148495957373 36.7306901695904 10.647400697578282
    vertex 24.42858616305822 36.73578659293894 10.798947192832522
  endloop
endfacet
facet normal -0.05277317218830369 0.9986065252626702 -3.060207268030907e-16
  outer loop
    vertex 24.332148495957394 36.7306901695904 -0.6486998966121952
    vertex 24.42858616305822 36.73578659293894 10.798947192832522
    vertex 24.428586163058192 36.735786592938936 -0.8002463918664623
  endloop
endfacet
facet normal -0.8185408599001582 0.4864330841028836 -0.3055711297947935
  outer loop
    vertex 23.87249498114087 36.11764072538311 -0.3864217271825916
    vertex 24.332148495957394 36.7306901695904 -0.6486998966121952
    vertex 23.914947036916292 36.02873833045535 -0.6486998966121952
  endloop
endfacet
facet normal -0.8185408599001582 0.4864330841028836 -0.3055711297947935
  outer loop
    vertex 24.332148495957394 36.7306901695904 -0.6486998966121952
    vertex 23.87249498114087 36.11764072538311 -0.3864217271825916
    vertex 24.233767694477287 36.72549105778291 -0.38671542093473665
  endloop
endfacet
facet normal -0.8185408599001582 0.4864330841028836 -0.3055711297947935
  outer loop
    vertex 24.233767694477287 36.72549105778291 -0.38671542093473665
    vertex 23.87249498114087 36.11764072538311 -0.3864217271825916
    vertex 24.066136296076834 36.63642254545819 -0.08592056556531495
  endloop
endfacet
facet normal -0.8185408599001582 0.4864330841028836 -0.3055711297947935
  outer loop
    vertex 24.066136296076834 36.63642254545819 -0.08592056556531495
    vertex 23.87249498114087 36.11764072538311 -0.3864217271825916
    vertex 23.870616912529922 36.30745631609085 -0.08592056556531495
  endloop
endfacet
facet normal 2.529244875634473e-31 -1.0 3.299212754844424e-16
  outer loop
    vertex 28.221682598623733 31.76704646662904 -2.5006495995169273
    vertex 31.22168259862372 31.767046466629047 12.499350400483054
    vertex 28.22168259862371 31.767046466629047 12.499350400483067
  endloop
endfacet
facet normal 2.529244875634473e-31 -1.0 3.299212754844424e-16
  outer loop
    vertex 31.22168259862372 31.767046466629047 12.499350400483054
    vertex 28.221682598623733 31.76704646662904 -2.5006495995169273
    vertex 31.221682598623744 31.76704646662904 -2.500649599516933
  endloop
endfacet
facet normal 0.9238795325113066 -0.382683432365042 1.5157201382187009e-15
  outer loop
    vertex 32.18760842491277 32.50822742152651 12.499350400483054
    vertex 32.087708002408185 32.26704646662904 -2.500649599516933
    vertex 32.187608424912796 32.508227421526506 -2.500649599516933
  endloop
endfacet
facet normal 0.9238795325113066 -0.382683432365042 1.5157201382187009e-15
  outer loop
    vertex 32.087708002408185 32.26704646662904 -2.500649599516933
    vertex 32.18760842491277 32.50822742152651 12.499350400483054
    vertex 32.08770800240816 32.26704646662905 12.499350400483054
  endloop
endfacet
facet normal 0.8205280585597687 0.4876148646166256 0.29827076444238815
  outer loop
    vertex 35.20959750277017 36.72549105778291 10.385416221900853
    vertex 35.52841816033117 36.02873833045535 10.647400697578373
    vertex 35.57087021610656 36.11764072538311 10.3851225281487
  endloop
endfacet
facet normal 0.8205280585597687 0.4876148646166256 0.29827076444238815
  outer loop
    vertex 35.52841816033117 36.02873833045535 10.647400697578373
    vertex 35.20959750277017 36.72549105778291 10.385416221900853
    vertex 35.111216701290054 36.7306901695904 10.64740069757835
  endloop
endfacet
facet normal -0.2649243439429711 0.964269200994404 -1.676658810600406e-16
  outer loop
    vertex 32.5125530046247 35.67817266283049 12.499350400483088
    vertex 31.850275344456335 35.496217795406274 -2.5006495995169336
    vertex 31.85027534445631 35.496217795406274 12.499350400483054
  endloop
endfacet
facet normal -0.2649243439429711 0.964269200994404 -1.676658810600406e-16
  outer loop
    vertex 31.850275344456335 35.496217795406274 -2.5006495995169336
    vertex 32.5125530046247 35.67817266283049 12.499350400483088
    vertex 32.51255300462465 35.678172662830484 -2.5006495995169336
  endloop
endfacet
facet normal -0.2649243439429711 0.964269200994404 -1.676658810600406e-16
  outer loop
    vertex 32.51255300462465 35.678172662830484 -2.5006495995169336
    vertex 32.5125530046247 35.67817266283049 12.499350400483088
    vertex 32.883960258792065 35.780213486123905 -2.4640691778369583
  endloop
endfacet
facet normal -0.2649243439429711 0.964269200994404 -1.676658810600406e-16
  outer loop
    vertex 32.883960258792065 35.780213486123905 -2.4640691778369583
    vertex 32.5125530046247 35.67817266283049 12.499350400483088
    vertex 32.88396025879206 35.780213486123905 12.462769978803063
  endloop
endfacet
facet normal 0.053599394923627336 0.9985625192564667 -2.4573617880091656e-16
  outer loop
    vertex 29.721682598623712 35.26704646662905 12.499350400483067
    vertex 28.651235662112555 35.32450436935262 -2.5006495995169282
    vertex 28.65123566211253 35.32450436935262 12.499350400483067
  endloop
endfacet
facet normal 0.053599394923627336 0.9985625192564667 -2.4573617880091656e-16
  outer loop
    vertex 28.651235662112555 35.32450436935262 -2.5006495995169282
    vertex 29.721682598623712 35.26704646662905 12.499350400483067
    vertex 29.721682598623733 35.26704646662904 -2.5006495995169282
  endloop
endfacet
facet normal -0.33599195292125744 0.941864856320778 -1.8320929557459605e-16
  outer loop
    vertex 35.014779034189274 36.73578659293894 10.798947192832589
    vertex 34.828447141501805 36.669316317404785 -1.1673602985757392
    vertex 34.828447141501776 36.66931631740479 11.1660610995419
  endloop
endfacet
facet normal -0.33599195292125744 0.941864856320778 -1.8320929557459605e-16
  outer loop
    vertex 34.828447141501805 36.669316317404785 -1.1673602985757392
    vertex 35.014779034189274 36.73578659293894 10.798947192832589
    vertex 35.01477903418924 36.735786592938936 -0.800246391866468
  endloop
endfacet
facet normal 0.6667531082419657 -0.7452786677811715 1.4498366015242561e-15
  outer loop
    vertex 35.48680458165508 35.94159186043757 -0.7997239904654372
    vertex 35.33936391241749 35.809686133432 11.166061099541855
    vertex 35.33936391241749 35.809686133431995 -1.167360298575739
  endloop
endfacet
facet normal 0.6667531082419657 -0.7452786677811715 1.4498366015242561e-15
  outer loop
    vertex 35.33936391241749 35.809686133432 11.166061099541855
    vertex 35.48680458165508 35.94159186043757 -0.7997239904654372
    vertex 35.48680458165503 35.941591860437576 10.798424791431593
  endloop
endfacet
facet normal -0.9999510562471969 -0.009893690419418243 4.972413594314263e-17
  outer loop
    vertex 23.87249498114089 36.11764072538311 10.38512252814868
    vertex 23.870616912529922 36.30745631609085 -0.08592056556531495
    vertex 23.87249498114087 36.11764072538311 -0.3864217271825916
  endloop
endfacet
facet normal -0.9999510562471969 -0.009893690419418243 4.972413594314263e-17
  outer loop
    vertex 23.870616912529922 36.30745631609085 -0.08592056556531495
    vertex 23.87249498114089 36.11764072538311 10.38512252814868
    vertex 23.870616912529904 36.30745631609086 10.084621366531369
  endloop
endfacet
facet normal 0.2495374705127201 0.1483113099491803 0.9569403357322085
  outer loop
    vertex 33.085535482000694 35.85964631741865 12.441706241692739
    vertex 34.20285088047399 35.08124417222081 12.270988998016954
    vertex 33.61597782902264 36.06867268877472 12.270988998016907
  endloop
endfacet
facet normal 0.2495374705127201 0.1483113099491803 0.9569403357322085
  outer loop
    vertex 34.20285088047399 35.08124417222081 12.270988998016954
    vertex 33.085535482000694 35.85964631741865 12.441706241692739
    vertex 33.89897085135634 34.83544262355795 12.388326097606459
  endloop
endfacet
facet normal 0.2495374705127201 0.1483113099491803 0.9569403357322085
  outer loop
    vertex 33.89897085135634 34.83544262355795 12.388326097606459
    vertex 33.085535482000694 35.85964631741865 12.441706241692739
    vertex 33.76869621134421 34.71021138617533 12.441706241692806
  endloop
endfacet
facet normal -0.8205280585597815 0.48761486461665043 0.2982707644423128
  outer loop
    vertex 23.914947036916256 36.02873833045535 10.647400697578316
    vertex 24.233767694477294 36.72549105778291 10.385416221900806
    vertex 23.87249498114089 36.11764072538311 10.38512252814868
  endloop
endfacet
facet normal -0.8205280585597815 0.48761486461665043 0.2982707644423128
  outer loop
    vertex 24.233767694477294 36.72549105778291 10.385416221900806
    vertex 23.914947036916256 36.02873833045535 10.647400697578316
    vertex 24.332148495957373 36.7306901695904 10.647400697578282
  endloop
endfacet
facet normal -0.16018224300696673 0.987087457637497 -5.551254145548447e-16
  outer loop
    vertex 31.85027534445631 35.496217795406274 12.499350400483054
    vertex 30.792129535134922 35.32450436935262 -2.5006495995169336
    vertex 30.792129535134897 35.32450436935262 12.499350400483054
  endloop
endfacet
facet normal -0.16018224300696673 0.987087457637497 -5.551254145548447e-16
  outer loop
    vertex 30.792129535134922 35.32450436935262 -2.5006495995169336
    vertex 31.85027534445631 35.496217795406274 12.499350400483054
    vertex 31.850275344456335 35.496217795406274 -2.5006495995169336
  endloop
endfacet
facet normal 0.853286762044145 -0.5214419447265621 1.4438930615139548e-15
  outer loop
    vertex 32.751025852037394 33.52554998243093 12.499350400483054
    vertex 32.447550582601906 33.02894353825065 -2.500649599516933
    vertex 32.75102585203742 33.525549982430924 -2.500649599516933
  endloop
endfacet
facet normal 0.853286762044145 -0.5214419447265621 1.4438930615139548e-15
  outer loop
    vertex 32.447550582601906 33.02894353825065 -2.500649599516933
    vertex 32.751025852037394 33.52554998243093 12.499350400483054
    vertex 32.44755058260188 33.02894353825066 12.499350400483054
  endloop
endfacet
facet normal 1.0 6.491089636204095e-31 1.5039821240255456e-15
  outer loop
    vertex 28.09668259862371 34.26704646662904 12.499350400483067
    vertex 28.096682598623733 32.51704646662904 -2.5006495995169273
    vertex 28.096682598623733 34.26704646662904 -2.500649599516928
  endloop
endfacet
facet normal 1.0 6.491089636204095e-31 1.5039821240255456e-15
  outer loop
    vertex 28.096682598623733 32.51704646662904 -2.5006495995169273
    vertex 28.09668259862371 34.26704646662904 12.499350400483067
    vertex 28.09668259862371 32.51704646662904 12.499350400483067
  endloop
endfacet
facet normal 0.3666220454422609 0.9303699671613077 -6.61918814326012e-16
  outer loop
    vertex 25.827387368224787 36.06867268877472 12.270988998016874
    vertex 25.562059592556153 36.17322788215127 -2.1218218336124792
    vertex 25.562059592556118 36.173227882151274 12.120522634578577
  endloop
endfacet
facet normal 0.3666220454422609 0.9303699671613077 -6.61918814326012e-16
  outer loop
    vertex 25.562059592556153 36.17322788215127 -2.1218218336124792
    vertex 25.827387368224787 36.06867268877472 12.270988998016874
    vertex 25.827387368224805 36.06867268877471 -2.2722881970507864
  endloop
endfacet
facet normal 0.3666220454422609 0.9303699671613077 -6.61918814326012e-16
  outer loop
    vertex 25.827387368224805 36.06867268877471 -2.2722881970507864
    vertex 25.827387368224787 36.06867268877472 12.270988998016874
    vertex 26.3578297152468 35.85964631741865 12.441706241692716
  endloop
endfacet
facet normal 0.3666220454422609 0.9303699671613077 -6.61918814326012e-16
  outer loop
    vertex 25.827387368224805 36.06867268877471 -2.2722881970507864
    vertex 26.3578297152468 35.85964631741865 12.441706241692716
    vertex 26.357829715246744 35.85964631741865 -2.4430054407266164
  endloop
endfacet
facet normal 0.3666220454422609 0.9303699671613077 -6.61918814326012e-16
  outer loop
    vertex 26.357829715246744 35.85964631741865 -2.4430054407266164
    vertex 26.3578297152468 35.85964631741865 12.441706241692716
    vertex 26.55940493845536 35.780213486123905 -2.4640691778369526
  endloop
endfacet
facet normal 0.3666220454422609 0.9303699671613077 -6.61918814326012e-16
  outer loop
    vertex 26.55940493845536 35.780213486123905 -2.4640691778369526
    vertex 26.3578297152468 35.85964631741865 12.441706241692716
    vertex 26.55940493845541 35.780213486123905 12.46276997880305
  endloop
endfacet
facet normal -0.859630183972768 0.5109167709157186 -8.921433325781628e-16
  outer loop
    vertex 23.870616912529904 36.30745631609086 10.084621366531369
    vertex 24.066136296076834 36.63642254545819 -0.08592056556531495
    vertex 23.870616912529922 36.30745631609085 -0.08592056556531495
  endloop
endfacet
facet normal -0.859630183972768 0.5109167709157186 -8.921433325781628e-16
  outer loop
    vertex 24.066136296076834 36.63642254545819 -0.08592056556531495
    vertex 23.870616912529904 36.30745631609086 10.084621366531369
    vertex 24.066136296076834 36.636422545458196 10.08462136653139
  endloop
endfacet
facet normal 0.9999510562471945 -0.009893690419670765 -3.0432652131117335e-16
  outer loop
    vertex 35.572748284717576 36.30745631609085 -0.08592056556532059
    vertex 35.57087021610656 36.11764072538311 10.3851225281487
    vertex 35.57087021610655 36.11764072538311 -0.38642172718259726
  endloop
endfacet
facet normal 0.9999510562471945 -0.009893690419670765 -3.0432652131117335e-16
  outer loop
    vertex 35.57087021610656 36.11764072538311 10.3851225281487
    vertex 35.572748284717576 36.30745631609085 -0.08592056556532059
    vertex 35.57274828471756 36.30745631609086 10.084621366531504
  endloop
endfacet
facet normal -0.7593820451183064 0.45116166292602844 0.4688198624821261
  outer loop
    vertex 23.914947036916256 36.02873833045535 10.647400697578316
    vertex 24.42858616305822 36.73578659293894 10.798947192832522
    vertex 24.332148495957373 36.7306901695904 10.647400697578282
  endloop
endfacet
facet normal -0.7593820451183064 0.45116166292602844 0.4688198624821261
  outer loop
    vertex 24.42858616305822 36.73578659293894 10.798947192832522
    vertex 23.914947036916256 36.02873833045535 10.647400697578316
    vertex 23.95656061559237 35.941591860437576 10.798424791431525
  endloop
endfacet
facet normal 0.7600968445497827 0.45161810796597246 0.4672192969716671
  outer loop
    vertex 35.014779034189274 36.73578659293894 10.798947192832589
    vertex 35.33936391241749 35.809686133432 11.166061099541855
    vertex 35.48680458165503 35.941591860437576 10.798424791431593
  endloop
endfacet
facet normal 0.7600968445497827 0.45161810796597246 0.4672192969716671
  outer loop
    vertex 35.33936391241749 35.809686133432 11.166061099541855
    vertex 35.014779034189274 36.73578659293894 10.798947192832589
    vertex 34.828447141501776 36.66931631740479 11.1660610995419
  endloop
endfacet
facet normal -0.666753108241952 -0.7452786677811837 -1.9170079743205564e-15
  outer loop
    vertex 23.95656061559243 35.94159186043757 -0.7997239904654315
    vertex 24.104001284829963 35.809686133432 11.166061099541787
    vertex 23.95656061559237 35.941591860437576 10.798424791431525
  endloop
endfacet
facet normal -0.666753108241952 -0.7452786677811837 -1.9170079743205564e-15
  outer loop
    vertex 24.104001284829963 35.809686133432 11.166061099541787
    vertex 23.95656061559243 35.94159186043757 -0.7997239904654315
    vertex 24.104001284829977 35.809686133431995 -1.1673602985757334
  endloop
endfacet
facet normal -0.76009684454976 0.4516181079660028 0.46721929697167497
  outer loop
    vertex 24.104001284829963 35.809686133432 11.166061099541787
    vertex 24.42858616305822 36.73578659293894 10.798947192832522
    vertex 23.95656061559237 35.941591860437576 10.798424791431525
  endloop
endfacet
facet normal -0.76009684454976 0.4516181079660028 0.46721929697167497
  outer loop
    vertex 24.42858616305822 36.73578659293894 10.798947192832522
    vertex 24.104001284829963 35.809686133432 11.166061099541787
    vertex 24.614918055745655 36.66931631740479 11.166061099541798
  endloop
endfacet
facet normal 0.33599195292126666 0.9418648563207748 -2.84353600514484e-16
  outer loop
    vertex 24.42858616305822 36.73578659293894 10.798947192832522
    vertex 24.614918055745683 36.669316317404785 -1.1673602985757336
    vertex 24.428586163058192 36.735786592938936 -0.8002463918664623
  endloop
endfacet
facet normal 0.33599195292126666 0.9418648563207748 -2.84353600514484e-16
  outer loop
    vertex 24.614918055745683 36.669316317404785 -1.1673602985757336
    vertex 24.42858616305822 36.73578659293894 10.798947192832522
    vertex 24.614918055745655 36.66931631740479 11.166061099541798
  endloop
endfacet
facet normal 0.7933533402912271 -0.6087614290087315 1.3943930393361018e-15
  outer loop
    vertex 32.08770800240816 32.26704646662905 12.499350400483054
    vertex 31.928789379810286 32.059939685442494 -2.500649599516933
    vertex 32.087708002408185 32.26704646662904 -2.500649599516933
  endloop
endfacet
facet normal 0.7933533402912271 -0.6087614290087315 1.3943930393361018e-15
  outer loop
    vertex 31.928789379810286 32.059939685442494 -2.500649599516933
    vertex 32.08770800240816 32.26704646662905 12.499350400483054
    vertex 31.928789379810265 32.059939685442494 12.499350400483054
  endloop
endfacet
facet normal -0.662500804468947 0.39375393984424734 0.6372209341626582
  outer loop
    vertex 24.432374422482038 35.62647700918495 11.620670744042641
    vertex 24.614918055745655 36.66931631740479 11.166061099541798
    vertex 24.104001284829963 35.809686133432 11.166061099541787
  endloop
endfacet
facet normal -0.662500804468947 0.39375393984424734 0.6372209341626582
  outer loop
    vertex 24.614918055745655 36.66931631740479 11.166061099541798
    vertex 24.432374422482038 35.62647700918495 11.620670744042641
    vertex 24.94840039598217 36.494703553675954 11.620670744042663
  endloop
endfacet
facet normal -0.40522686360189814 0.24084449859932824 0.8819212643483583
  outer loop
    vertex 24.818494482925633 35.386341642936976 11.993759237390641
    vertex 25.562059592556118 36.173227882151274 12.120522634578577
    vertex 25.351673141483506 36.283428006974106 11.993759237390618
  endloop
endfacet
facet normal -0.40522686360189814 0.24084449859932824 0.8819212643483583
  outer loop
    vertex 25.562059592556118 36.173227882151274 12.120522634578577
    vertex 24.818494482925633 35.386341642936976 11.993759237390641
    vertex 25.827387368224787 36.06867268877472 12.270988998016874
  endloop
endfacet
facet normal -0.40522686360189814 0.24084449859932824 0.8819212643483583
  outer loop
    vertex 25.827387368224787 36.06867268877472 12.270988998016874
    vertex 24.818494482925633 35.386341642936976 11.993759237390641
    vertex 25.09190059804646 35.20145438255188 12.169875392339643
  endloop
endfacet
facet normal -0.40522686360189814 0.24084449859932824 0.8819212643483583
  outer loop
    vertex 25.827387368224787 36.06867268877472 12.270988998016874
    vertex 25.09190059804646 35.20145438255188 12.169875392339643
    vertex 25.240514316773446 35.08124417222081 12.27098899801684
  endloop
endfacet
facet normal -0.0842584923739997 0.050078600831577585 0.9951847266721954
  outer loop
    vertex 25.674668985903246 34.71021138617533 12.441706241692705
    vertex 26.55940493845541 35.780213486123905 12.46276997880305
    vertex 26.3578297152468 35.85964631741865 12.441706241692716
  endloop
endfacet
facet normal -0.0842584923739997 0.050078600831577585 0.9951847266721954
  outer loop
    vertex 26.55940493845541 35.780213486123905 12.46276997880305
    vertex 25.674668985903246 34.71021138617533 12.441706241692705
    vertex 26.9308121926228 35.67817266283049 12.49935040048302
  endloop
endfacet
facet normal -0.0842584923739997 0.050078600831577585 0.9951847266721954
  outer loop
    vertex 26.9308121926228 35.67817266283049 12.49935040048302
    vertex 25.674668985903246 34.71021138617533 12.441706241692705
    vertex 25.963966578268675 34.432113550246804 12.480194100751604
  endloop
endfacet
facet normal -0.0842584923739997 0.050078600831577585 0.9951847266721954
  outer loop
    vertex 26.9308121926228 35.67817266283049 12.49935040048302
    vertex 25.963966578268675 34.432113550246804 12.480194100751604
    vertex 26.098788281304234 34.27827172265465 12.499350400483033
  endloop
endfacet
facet normal 0.16018224300696676 0.987087457637497 -7.388013757262952e-17
  outer loop
    vertex 28.65123566211253 35.32450436935262 12.499350400483067
    vertex 27.59308985279114 35.496217795406274 -2.5006495995169282
    vertex 27.593089852791117 35.496217795406274 12.499350400483067
  endloop
endfacet
facet normal 0.16018224300696676 0.987087457637497 -7.388013757262952e-17
  outer loop
    vertex 27.59308985279114 35.496217795406274 -2.5006495995169282
    vertex 28.65123566211253 35.32450436935262 12.499350400483067
    vertex 28.651235662112555 35.32450436935262 -2.5006495995169282
  endloop
endfacet
facet normal -0.46399362126708893 0.885838540267612 -1.0784912951685138e-15
  outer loop
    vertex 34.09169205576398 36.283428006974106 11.993759237390742
    vertex 33.88130560469134 36.17322788215127 -2.121821833612485
    vertex 33.88130560469128 36.173227882151274 12.120522634578634
  endloop
endfacet
facet normal -0.46399362126708893 0.885838540267612 -1.0784912951685138e-15
  outer loop
    vertex 33.88130560469134 36.17322788215127 -2.121821833612485
    vertex 34.09169205576398 36.283428006974106 11.993759237390742
    vertex 34.09169205576399 36.2834280069741 -1.99505843642457
  endloop
endfacet
facet normal -0.46399362126708893 0.885838540267612 -1.0784912951685138e-15
  outer loop
    vertex 34.09169205576399 36.2834280069741 -1.99505843642457
    vertex 34.09169205576398 36.283428006974106 11.993759237390742
    vertex 34.49496480126528 36.494703553675954 11.620670744042686
  endloop
endfacet
facet normal -0.46399362126708893 0.885838540267612 -1.0784912951685138e-15
  outer loop
    vertex 34.09169205576399 36.2834280069741 -1.99505843642457
    vertex 34.49496480126528 36.494703553675954 11.620670744042686
    vertex 34.49496480126527 36.49470355367595 -1.6219699430765762
  endloop
endfacet
facet normal -0.46399362126708893 0.885838540267612 -1.0784912951685138e-15
  outer loop
    vertex 34.49496480126527 36.49470355367595 -1.6219699430765762
    vertex 34.49496480126528 36.494703553675954 11.620670744042686
    vertex 34.828447141501805 36.669316317404785 -1.1673602985757392
  endloop
endfacet
facet normal -0.46399362126708893 0.885838540267612 -1.0784912951685138e-15
  outer loop
    vertex 34.828447141501805 36.669316317404785 -1.1673602985757392
    vertex 34.49496480126528 36.494703553675954 11.620670744042686
    vertex 34.828447141501776 36.66931631740479 11.1660610995419
  endloop
endfacet
facet normal 0.8185408599001749 0.4864330841028723 -0.30557112979476664
  outer loop
    vertex 35.20959750277017 36.72549105778291 -0.38671542093474226
    vertex 35.52841816033119 36.02873833045535 -0.6486998966122008
    vertex 35.11121670129012 36.7306901695904 -0.6486998966122008
  endloop
endfacet
facet normal 0.8185408599001749 0.4864330841028723 -0.30557112979476664
  outer loop
    vertex 35.52841816033119 36.02873833045535 -0.6486998966122008
    vertex 35.20959750277017 36.72549105778291 -0.38671542093474226
    vertex 35.57087021610655 36.11764072538311 -0.38642172718259726
  endloop
endfacet
facet normal 0.8185408599001749 0.4864330841028723 -0.30557112979476664
  outer loop
    vertex 35.57087021610655 36.11764072538311 -0.38642172718259726
    vertex 35.20959750277017 36.72549105778291 -0.38671542093474226
    vertex 35.37722890117062 36.63642254545819 -0.08592056556532059
  endloop
endfacet
facet normal 0.8185408599001749 0.4864330841028723 -0.30557112979476664
  outer loop
    vertex 35.57087021610655 36.11764072538311 -0.38642172718259726
    vertex 35.37722890117062 36.63642254545819 -0.08592056556532059
    vertex 35.572748284717576 36.30745631609085 -0.08592056556532059
  endloop
endfacet
facet normal 0.5453436155766965 0.32412216823549317 0.7730104533627336
  outer loop
    vertex 34.09169205576398 36.283428006974106 11.993759237390742
    vertex 35.01099077476541 35.62647700918495 11.62067074404272
    vertex 34.49496480126528 36.494703553675954 11.620670744042686
  endloop
endfacet
facet normal 0.5453436155766965 0.32412216823549317 0.7730104533627336
  outer loop
    vertex 35.01099077476541 35.62647700918495 11.62067074404272
    vertex 34.09169205576398 36.283428006974106 11.993759237390742
    vertex 34.833571598824804 35.527472849013634 11.787348771977063
  endloop
endfacet
facet normal 0.5453436155766965 0.32412216823549317 0.7730104533627336
  outer loop
    vertex 34.833571598824804 35.527472849013634 11.787348771977063
    vertex 34.09169205576398 36.283428006974106 11.993759237390742
    vertex 34.624870714321716 35.386341642936976 11.993759237390696
  endloop
endfacet
facet normal -0.3826834323650829 -0.9238795325112897 -2.702954805233246e-16
  outer loop
    vertex 27.721682598623733 31.9010210628446 -2.5006495995169273
    vertex 27.962863553521192 31.801120640339978 12.499350400483067
    vertex 27.721682598623712 31.901021062844606 12.499350400483067
  endloop
endfacet
facet normal -0.3826834323650829 -0.9238795325112897 -2.702954805233246e-16
  outer loop
    vertex 27.962863553521192 31.801120640339978 12.499350400483067
    vertex 27.721682598623733 31.9010210628446 -2.5006495995169273
    vertex 27.962863553521213 31.801120640339974 -2.5006495995169273
  endloop
endfacet
facet normal 0.08425849237400496 0.05007860083163032 0.9951847266721924
  outer loop
    vertex 32.88396025879206 35.780213486123905 12.462769978803063
    vertex 33.76869621134421 34.71021138617533 12.441706241692806
    vertex 33.085535482000694 35.85964631741865 12.441706241692739
  endloop
endfacet
facet normal 0.08425849237400496 0.05007860083163032 0.9951847266721924
  outer loop
    vertex 33.76869621134421 34.71021138617533 12.441706241692806
    vertex 32.88396025879206 35.780213486123905 12.462769978803063
    vertex 32.5125530046247 35.67817266283049 12.499350400483088
  endloop
endfacet
facet normal 0.08425849237400496 0.05007860083163032 0.9951847266721924
  outer loop
    vertex 33.76869621134421 34.71021138617533 12.441706241692806
    vertex 32.5125530046247 35.67817266283049 12.499350400483088
    vertex 33.479398618978756 34.432113550246804 12.480194100751739
  endloop
endfacet
facet normal 0.08425849237400496 0.05007860083163032 0.9951847266721924
  outer loop
    vertex 33.479398618978756 34.432113550246804 12.480194100751739
    vertex 32.5125530046247 35.67817266283049 12.499350400483088
    vertex 33.344576915943215 34.278271722654665 12.499350400483111
  endloop
endfacet
facet normal -0.7933533402912271 -0.6087614290087315 -9.920864304004672e-16
  outer loop
    vertex 27.514575817437166 32.059939685442494 12.499350400483067
    vertex 27.355657194839292 32.26704646662904 -2.5006495995169273
    vertex 27.514575817437187 32.059939685442494 -2.5006495995169273
  endloop
endfacet
facet normal -0.7933533402912271 -0.6087614290087315 -9.920864304004672e-16
  outer loop
    vertex 27.355657194839292 32.26704646662904 -2.5006495995169273
    vertex 27.514575817437166 32.059939685442494 12.499350400483067
    vertex 27.35565719483927 32.26704646662905 12.499350400483067
  endloop
endfacet
facet normal 0.6625008044689258 0.39375393984424967 0.6372209341626789
  outer loop
    vertex 34.828447141501776 36.66931631740479 11.1660610995419
    vertex 35.01099077476541 35.62647700918495 11.62067074404272
    vertex 35.33936391241749 35.809686133432 11.166061099541855
  endloop
endfacet
facet normal 0.6625008044689258 0.39375393984424967 0.6372209341626789
  outer loop
    vertex 35.01099077476541 35.62647700918495 11.62067074404272
    vertex 34.828447141501776 36.66931631740479 11.1660610995419
    vertex 34.49496480126528 36.494703553675954 11.620670744042686
  endloop
endfacet
facet normal -2.5534910152396666e-31 1.0 -3.299212754844424e-16
  outer loop
    vertex 31.34668259862372 32.51704646662904 12.499350400483054
    vertex 28.096682598623733 32.51704646662904 -2.5006495995169273
    vertex 28.09668259862371 32.51704646662904 12.499350400483067
  endloop
endfacet
facet normal -2.5534910152396666e-31 1.0 -3.299212754844424e-16
  outer loop
    vertex 28.096682598623733 32.51704646662904 -2.5006495995169273
    vertex 31.34668259862372 32.51704646662904 12.499350400483054
    vertex 31.346682598623744 32.51704646662904 -2.500649599516933
  endloop
endfacet
facet normal 1.91511826142975e-31 -1.0 3.0642155479654323e-16
  outer loop
    vertex 28.096682598623733 34.26704646662904 -2.500649599516928
    vertex 31.34668259862372 34.26704646662904 12.499350400483054
    vertex 28.09668259862371 34.26704646662904 12.499350400483067
  endloop
endfacet
facet normal 1.91511826142975e-31 -1.0 3.0642155479654323e-16
  outer loop
    vertex 31.34668259862372 34.26704646662904 12.499350400483054
    vertex 28.096682598623733 34.26704646662904 -2.500649599516928
    vertex 31.346682598623744 34.26704646662904 -2.500649599516933
  endloop
endfacet
facet normal -1.0 -6.491089636204066e-31 -1.5039821240255464e-15
  outer loop
    vertex 31.34668259862372 32.51704646662904 12.499350400483054
    vertex 31.346682598623744 34.26704646662904 -2.500649599516933
    vertex 31.346682598623744 32.51704646662904 -2.500649599516933
  endloop
endfacet
facet normal -1.0 -6.491089636204066e-31 -1.5039821240255464e-15
  outer loop
    vertex 31.346682598623744 34.26704646662904 -2.500649599516933
    vertex 31.34668259862372 32.51704646662904 12.499350400483054
    vertex 31.34668259862372 34.26704646662904 12.499350400483054
  endloop
endfacet
facet normal -0.5601764634225119 -0.8283733034251208 -8.600771570573722e-16
  outer loop
    vertex 24.60979359842263 35.527472849013634 -1.788647971010902
    vertex 24.818494482925633 35.386341642936976 11.993759237390641
    vertex 24.609793598422616 35.527472849013634 11.787348771976996
  endloop
endfacet
facet normal -0.5601764634225119 -0.8283733034251208 -8.600771570573722e-16
  outer loop
    vertex 24.818494482925633 35.386341642936976 11.993759237390641
    vertex 24.60979359842263 35.527472849013634 -1.788647971010902
    vertex 24.818494482925722 35.38634164293697 -1.995058436424564
  endloop
endfacet
facet normal -0.5601764634225119 -0.8283733034251208 -8.600771570573722e-16
  outer loop
    vertex 24.818494482925633 35.386341642936976 11.993759237390641
    vertex 24.818494482925722 35.38634164293697 -1.995058436424564
    vertex 25.09190059804646 35.20145438255188 12.169875392339643
  endloop
endfacet
facet normal -0.5601764634225119 -0.8283733034251208 -8.600771570573722e-16
  outer loop
    vertex 25.09190059804646 35.20145438255188 12.169875392339643
    vertex 24.818494482925722 35.38634164293697 -1.995058436424564
    vertex 25.091900598046443 35.20145438255188 -2.171174591373571
  endloop
endfacet
facet normal 0.8947128543955145 -0.4466418119471473 1.487163609797793e-15
  outer loop
    vertex 32.44755058260188 33.02894353825066 12.499350400483054
    vertex 32.187608424912796 32.508227421526506 -2.500649599516933
    vertex 32.447550582601906 33.02894353825065 -2.500649599516933
  endloop
endfacet
facet normal 0.8947128543955145 -0.4466418119471473 1.487163609797793e-15
  outer loop
    vertex 32.187608424912796 32.508227421526506 -2.500649599516933
    vertex 32.44755058260188 33.02894353825066 12.499350400483054
    vertex 32.18760842491277 32.50822742152651 12.499350400483054
  endloop
endfacet
facet normal 0.46921410746817765 0.8830844361400791 -8.025783860703817e-16
  outer loop
    vertex 35.20959750277017 36.72549105778291 10.385416221900853
    vertex 35.37722890117062 36.63642254545819 -0.08592056556532059
    vertex 35.20959750277017 36.72549105778291 -0.38671542093474226
  endloop
endfacet
facet normal 0.46921410746817765 0.8830844361400791 -8.025783860703817e-16
  outer loop
    vertex 35.37722890117062 36.63642254545819 -0.08592056556532059
    vertex 35.20959750277017 36.72549105778291 10.385416221900853
    vertex 35.37722890117064 36.636422545458196 10.084621366531458
  endloop
endfacet
facet normal -1.2249702015486689e-15 1.6013830034980295e-16 1.0
  outer loop
    vertex 26.347549726649323 33.994415974472474 12.499350400483067
    vertex 28.09668259862371 34.26704646662904 12.499350400483067
    vertex 26.098788281304234 34.27827172265465 12.499350400483033
  endloop
endfacet
facet normal -1.2249702015486689e-15 1.6013830034980295e-16 1.0
  outer loop
    vertex 28.09668259862371 34.26704646662904 12.499350400483067
    vertex 26.347549726649323 33.994415974472474 12.499350400483067
    vertex 28.09668259862371 32.51704646662904 12.499350400483067
  endloop
endfacet
facet normal -1.2249702015486689e-15 1.6013830034980295e-16 1.0
  outer loop
    vertex 28.09668259862371 32.51704646662904 12.499350400483067
    vertex 26.347549726649323 33.994415974472474 12.499350400483067
    vertex 26.692339345210033 33.52554998243093 12.499350400483067
  endloop
endfacet
facet normal -1.2249702015486689e-15 1.6013830034980295e-16 1.0
  outer loop
    vertex 28.09668259862371 32.51704646662904 12.499350400483067
    vertex 26.692339345210033 33.52554998243093 12.499350400483067
    vertex 26.99581461464555 33.02894353825066 12.499350400483067
  endloop
endfacet
facet normal -1.2249702015486689e-15 1.6013830034980295e-16 1.0
  outer loop
    vertex 28.09668259862371 32.51704646662904 12.499350400483067
    vertex 26.99581461464555 33.02894353825066 12.499350400483067
    vertex 27.25575677233466 32.50822742152651 12.499350400483067
  endloop
endfacet
facet normal -1.2249702015486689e-15 1.6013830034980295e-16 1.0
  outer loop
    vertex 28.09668259862371 32.51704646662904 12.499350400483067
    vertex 27.25575677233466 32.50822742152651 12.499350400483067
    vertex 31.34668259862372 32.51704646662904 12.499350400483054
  endloop
endfacet
facet normal -1.2249702015486689e-15 1.6013830034980295e-16 1.0
  outer loop
    vertex 26.098788281304234 34.27827172265465 12.499350400483033
    vertex 27.593089852791117 35.496217795406274 12.499350400483067
    vertex 26.9308121926228 35.67817266283049 12.49935040048302
  endloop
endfacet
facet normal -1.2249702015486689e-15 1.6013830034980295e-16 1.0
  outer loop
    vertex 27.593089852791117 35.496217795406274 12.499350400483067
    vertex 26.098788281304234 34.27827172265465 12.499350400483033
    vertex 28.65123566211253 35.32450436935262 12.499350400483067
  endloop
endfacet
facet normal -1.2249702015486689e-15 1.6013830034980295e-16 1.0
  outer loop
    vertex 28.65123566211253 35.32450436935262 12.499350400483067
    vertex 26.098788281304234 34.27827172265465 12.499350400483033
    vertex 29.721682598623712 35.26704646662905 12.499350400483067
  endloop
endfacet
facet normal -1.2249702015486689e-15 1.6013830034980295e-16 1.0
  outer loop
    vertex 29.721682598623712 35.26704646662905 12.499350400483067
    vertex 26.098788281304234 34.27827172265465 12.499350400483033
    vertex 33.344576915943215 34.278271722654665 12.499350400483111
  endloop
endfacet
facet normal -1.2249702015486689e-15 1.6013830034980295e-16 1.0
  outer loop
    vertex 33.344576915943215 34.278271722654665 12.499350400483111
    vertex 26.098788281304234 34.27827172265465 12.499350400483033
    vertex 31.34668259862372 34.26704646662904 12.499350400483054
  endloop
endfacet
facet normal -1.2249702015486689e-15 1.6013830034980295e-16 1.0
  outer loop
    vertex 33.344576915943215 34.278271722654665 12.499350400483111
    vertex 31.34668259862372 34.26704646662904 12.499350400483054
    vertex 33.09581547059811 33.994415974472474 12.499350400483054
  endloop
endfacet
facet normal -1.2249702015486689e-15 1.6013830034980295e-16 1.0
  outer loop
    vertex 31.34668259862372 34.26704646662904 12.499350400483054
    vertex 26.098788281304234 34.27827172265465 12.499350400483033
    vertex 28.09668259862371 34.26704646662904 12.499350400483067
  endloop
endfacet
facet normal -1.2249702015486689e-15 1.6013830034980295e-16 1.0
  outer loop
    vertex 33.09581547059811 33.994415974472474 12.499350400483054
    vertex 31.34668259862372 34.26704646662904 12.499350400483054
    vertex 31.34668259862372 32.51704646662904 12.499350400483054
  endloop
endfacet
facet normal -1.2249702015486689e-15 1.6013830034980295e-16 1.0
  outer loop
    vertex 33.09581547059811 33.994415974472474 12.499350400483054
    vertex 31.34668259862372 32.51704646662904 12.499350400483054
    vertex 32.751025852037394 33.52554998243093 12.499350400483054
  endloop
endfacet
facet normal -1.2249702015486689e-15 1.6013830034980295e-16 1.0
  outer loop
    vertex 32.751025852037394 33.52554998243093 12.499350400483054
    vertex 31.34668259862372 32.51704646662904 12.499350400483054
    vertex 32.44755058260188 33.02894353825066 12.499350400483054
  endloop
endfacet
facet normal -1.2249702015486689e-15 1.6013830034980295e-16 1.0
  outer loop
    vertex 32.44755058260188 33.02894353825066 12.499350400483054
    vertex 31.34668259862372 32.51704646662904 12.499350400483054
    vertex 32.18760842491277 32.50822742152651 12.499350400483054
  endloop
endfacet
facet normal -1.2249702015486689e-15 1.6013830034980295e-16 1.0
  outer loop
    vertex 32.18760842491277 32.50822742152651 12.499350400483054
    vertex 31.34668259862372 32.51704646662904 12.499350400483054
    vertex 27.25575677233466 32.50822742152651 12.499350400483067
  endloop
endfacet
facet normal -1.2249702015486689e-15 1.6013830034980295e-16 1.0
  outer loop
    vertex 32.18760842491277 32.50822742152651 12.499350400483054
    vertex 27.25575677233466 32.50822742152651 12.499350400483067
    vertex 27.35565719483927 32.26704646662905 12.499350400483067
  endloop
endfacet
facet normal -1.2249702015486689e-15 1.6013830034980295e-16 1.0
  outer loop
    vertex 32.18760842491277 32.50822742152651 12.499350400483054
    vertex 27.35565719483927 32.26704646662905 12.499350400483067
    vertex 32.08770800240816 32.26704646662905 12.499350400483054
  endloop
endfacet
facet normal -1.2249702015486689e-15 1.6013830034980295e-16 1.0
  outer loop
    vertex 32.08770800240816 32.26704646662905 12.499350400483054
    vertex 27.35565719483927 32.26704646662905 12.499350400483067
    vertex 27.514575817437166 32.059939685442494 12.499350400483067
  endloop
endfacet
facet normal -1.2249702015486689e-15 1.6013830034980295e-16 1.0
  outer loop
    vertex 32.08770800240816 32.26704646662905 12.499350400483054
    vertex 27.514575817437166 32.059939685442494 12.499350400483067
    vertex 31.928789379810265 32.059939685442494 12.499350400483054
  endloop
endfacet
facet normal -1.2249702015486689e-15 1.6013830034980295e-16 1.0
  outer loop
    vertex 31.928789379810265 32.059939685442494 12.499350400483054
    vertex 27.514575817437166 32.059939685442494 12.499350400483067
    vertex 27.721682598623712 31.901021062844606 12.499350400483067
  endloop
endfacet
facet normal -1.2249702015486689e-15 1.6013830034980295e-16 1.0
  outer loop
    vertex 31.928789379810265 32.059939685442494 12.499350400483054
    vertex 27.721682598623712 31.901021062844606 12.499350400483067
    vertex 31.72168259862372 31.901021062844606 12.499350400483054
  endloop
endfacet
facet normal -1.2249702015486689e-15 1.6013830034980295e-16 1.0
  outer loop
    vertex 31.72168259862372 31.901021062844606 12.499350400483054
    vertex 27.721682598623712 31.901021062844606 12.499350400483067
    vertex 27.962863553521192 31.801120640339978 12.499350400483067
  endloop
endfacet
facet normal -1.2249702015486689e-15 1.6013830034980295e-16 1.0
  outer loop
    vertex 31.72168259862372 31.901021062844606 12.499350400483054
    vertex 27.962863553521192 31.801120640339978 12.499350400483067
    vertex 31.48050164372624 31.801120640339978 12.499350400483054
  endloop
endfacet
facet normal -1.2249702015486689e-15 1.6013830034980295e-16 1.0
  outer loop
    vertex 31.48050164372624 31.801120640339978 12.499350400483054
    vertex 27.962863553521192 31.801120640339978 12.499350400483067
    vertex 28.22168259862371 31.767046466629047 12.499350400483067
  endloop
endfacet
facet normal -1.2249702015486689e-15 1.6013830034980295e-16 1.0
  outer loop
    vertex 31.48050164372624 31.801120640339978 12.499350400483054
    vertex 28.22168259862371 31.767046466629047 12.499350400483067
    vertex 31.22168259862372 31.767046466629047 12.499350400483054
  endloop
endfacet
facet normal -1.2249702015486689e-15 1.6013830034980295e-16 1.0
  outer loop
    vertex 31.85027534445631 35.496217795406274 12.499350400483054
    vertex 33.344576915943215 34.278271722654665 12.499350400483111
    vertex 32.5125530046247 35.67817266283049 12.499350400483088
  endloop
endfacet
facet normal -1.2249702015486689e-15 1.6013830034980295e-16 1.0
  outer loop
    vertex 33.344576915943215 34.278271722654665 12.499350400483111
    vertex 31.85027534445631 35.496217795406274 12.499350400483054
    vertex 30.792129535134897 35.32450436935262 12.499350400483054
  endloop
endfacet
facet normal -1.2249702015486689e-15 1.6013830034980295e-16 1.0
  outer loop
    vertex 33.344576915943215 34.278271722654665 12.499350400483111
    vertex 30.792129535134897 35.32450436935262 12.499350400483054
    vertex 29.721682598623712 35.26704646662905 12.499350400483067
  endloop
endfacet
facet normal 0.052773172188304136 0.99860652526267 -3.120501971166704e-16
  outer loop
    vertex 35.014779034189274 36.73578659293894 10.798947192832589
    vertex 35.11121670129012 36.7306901695904 -0.6486998966122008
    vertex 35.01477903418924 36.735786592938936 -0.800246391866468
  endloop
endfacet
facet normal 0.052773172188304136 0.99860652526267 -3.120501971166704e-16
  outer loop
    vertex 35.11121670129012 36.7306901695904 -0.6486998966122008
    vertex 35.014779034189274 36.73578659293894 10.798947192832589
    vertex 35.111216701290054 36.7306901695904 10.64740069757835
  endloop
endfacet
facet normal 0.052773172188304136 0.99860652526267 -3.120501971166704e-16
  outer loop
    vertex 35.11121670129012 36.7306901695904 -0.6486998966122008
    vertex 35.111216701290054 36.7306901695904 10.64740069757835
    vertex 35.20959750277017 36.72549105778291 10.385416221900853
  endloop
endfacet
facet normal 0.052773172188304136 0.99860652526267 -3.120501971166704e-16
  outer loop
    vertex 35.11121670129012 36.7306901695904 -0.6486998966122008
    vertex 35.20959750277017 36.72549105778291 10.385416221900853
    vertex 35.20959750277017 36.72549105778291 -0.38671542093474226
  endloop
endfacet
facet normal 0.5601764634225149 -0.828373303425119 1.9871537352420194e-15
  outer loop
    vertex 34.62487071432181 35.38634164293697 -1.9950584364245698
    vertex 34.351464599200995 35.20145438255188 12.169875392339721
    vertex 34.351464599200995 35.20145438255188 -2.171174591373577
  endloop
endfacet
facet normal 0.5601764634225149 -0.828373303425119 1.9871537352420194e-15
  outer loop
    vertex 34.351464599200995 35.20145438255188 12.169875392339721
    vertex 34.62487071432181 35.38634164293697 -1.9950584364245698
    vertex 34.624870714321716 35.386341642936976 11.993759237390696
  endloop
endfacet
facet normal 0.5601764634225149 -0.828373303425119 1.9871537352420194e-15
  outer loop
    vertex 34.624870714321716 35.386341642936976 11.993759237390696
    vertex 34.62487071432181 35.38634164293697 -1.9950584364245698
    vertex 34.833571598824804 35.527472849013634 11.787348771977063
  endloop
endfacet
facet normal 0.5601764634225149 -0.828373303425119 1.9871537352420194e-15
  outer loop
    vertex 34.833571598824804 35.527472849013634 11.787348771977063
    vertex 34.62487071432181 35.38634164293697 -1.9950584364245698
    vertex 34.83357159882484 35.527472849013634 -1.7886479710109076
  endloop
endfacet
facet normal -0.6288943535912866 -0.7774907665181613 -8.862221873727872e-17
  outer loop
    vertex 25.240514316773456 35.081244172220806 -2.2722881970507864
    vertex 25.09190059804646 35.20145438255188 12.169875392339643
    vertex 25.091900598046443 35.20145438255188 -2.171174591373571
  endloop
endfacet
facet normal -0.6288943535912866 -0.7774907665181613 -8.862221873727872e-17
  outer loop
    vertex 25.09190059804646 35.20145438255188 12.169875392339643
    vertex 25.240514316773456 35.081244172220806 -2.2722881970507864
    vertex 25.240514316773446 35.08124417222081 12.27098899801684
  endloop
endfacet
facet normal -0.6288943535912866 -0.7774907665181613 -8.862221873727872e-17
  outer loop
    vertex 25.240514316773446 35.08124417222081 12.27098899801684
    vertex 25.240514316773456 35.081244172220806 -2.2722881970507864
    vertex 25.544394345891078 34.83544262355795 12.388326097606436
  endloop
endfacet
facet normal -0.6288943535912866 -0.7774907665181613 -8.862221873727872e-17
  outer loop
    vertex 25.544394345891078 34.83544262355795 12.388326097606436
    vertex 25.240514316773456 35.081244172220806 -2.2722881970507864
    vertex 25.544394345891106 34.835442623557945 -2.3896252966403377
  endloop
endfacet
facet normal -0.7520674601867803 -0.6590861365012965 -9.4618085500962e-16
  outer loop
    vertex 26.347549726649323 33.994415974472474 12.499350400483067
    vertex 26.09878828130426 34.278271722654644 -2.500649599516928
    vertex 26.347549726649344 33.994415974472474 -2.500649599516928
  endloop
endfacet
facet normal -0.7520674601867803 -0.6590861365012965 -9.4618085500962e-16
  outer loop
    vertex 26.09878828130426 34.278271722654644 -2.500649599516928
    vertex 26.347549726649323 33.994415974472474 12.499350400483067
    vertex 25.963966578268696 34.4321135502468 -2.4814932997855155
  endloop
endfacet
facet normal -0.7520674601867803 -0.6590861365012965 -9.4618085500962e-16
  outer loop
    vertex 25.963966578268696 34.4321135502468 -2.4814932997855155
    vertex 26.347549726649323 33.994415974472474 12.499350400483067
    vertex 25.963966578268675 34.432113550246804 12.480194100751604
  endloop
endfacet
facet normal -0.7520674601867803 -0.6590861365012965 -9.4618085500962e-16
  outer loop
    vertex 25.963966578268675 34.432113550246804 12.480194100751604
    vertex 26.347549726649323 33.994415974472474 12.499350400483067
    vertex 26.098788281304234 34.27827172265465 12.499350400483033
  endloop
endfacet
facet normal -0.46921410746817166 0.8830844361400825 -1.563401964923606e-16
  outer loop
    vertex 24.233767694477294 36.72549105778291 10.385416221900806
    vertex 24.066136296076834 36.63642254545819 -0.08592056556531495
    vertex 24.066136296076834 36.636422545458196 10.08462136653139
  endloop
endfacet
facet normal -0.46921410746817166 0.8830844361400825 -1.563401964923606e-16
  outer loop
    vertex 24.066136296076834 36.63642254545819 -0.08592056556531495
    vertex 24.233767694477294 36.72549105778291 10.385416221900806
    vertex 24.233767694477287 36.72549105778291 -0.38671542093473665
  endloop
endfacet
facet normal -0.36662204544226346 0.9303699671613068 -5.229396788336602e-16
  outer loop
    vertex 33.085535482000694 35.85964631741865 12.441706241692739
    vertex 32.883960258792065 35.780213486123905 -2.4640691778369583
    vertex 32.88396025879206 35.780213486123905 12.462769978803063
  endloop
endfacet
facet normal -0.36662204544226346 0.9303699671613068 -5.229396788336602e-16
  outer loop
    vertex 32.883960258792065 35.780213486123905 -2.4640691778369583
    vertex 33.085535482000694 35.85964631741865 12.441706241692739
    vertex 33.085535482000665 35.85964631741865 -2.443005440726622
  endloop
endfacet
facet normal -0.36662204544226346 0.9303699671613068 -5.229396788336602e-16
  outer loop
    vertex 33.085535482000665 35.85964631741865 -2.443005440726622
    vertex 33.085535482000694 35.85964631741865 12.441706241692739
    vertex 33.61597782902264 36.06867268877471 -2.272288197050792
  endloop
endfacet
facet normal -0.36662204544226346 0.9303699671613068 -5.229396788336602e-16
  outer loop
    vertex 33.61597782902264 36.06867268877471 -2.272288197050792
    vertex 33.085535482000694 35.85964631741865 12.441706241692739
    vertex 33.61597782902264 36.06867268877472 12.270988998016907
  endloop
endfacet
facet normal -0.36662204544226346 0.9303699671613068 -5.229396788336602e-16
  outer loop
    vertex 33.61597782902264 36.06867268877471 -2.272288197050792
    vertex 33.61597782902264 36.06867268877472 12.270988998016907
    vertex 33.88130560469128 36.173227882151274 12.120522634578634
  endloop
endfacet
facet normal -0.36662204544226346 0.9303699671613068 -5.229396788336602e-16
  outer loop
    vertex 33.61597782902264 36.06867268877471 -2.272288197050792
    vertex 33.88130560469128 36.173227882151274 12.120522634578634
    vertex 33.88130560469134 36.17322788215127 -2.121821833612485
  endloop
endfacet
facet normal 0.628894353591281 -0.7774907665181657 4.1618489815225475e-16
  outer loop
    vertex 33.89897085135636 34.835442623557945 -2.3896252966403435
    vertex 34.20285088047399 35.08124417222081 12.270988998016954
    vertex 33.89897085135634 34.83544262355795 12.388326097606459
  endloop
endfacet
facet normal 0.628894353591281 -0.7774907665181657 4.1618489815225475e-16
  outer loop
    vertex 34.20285088047399 35.08124417222081 12.270988998016954
    vertex 33.89897085135636 34.835442623557945 -2.3896252966403435
    vertex 34.20285088047399 35.081244172220806 -2.272288197050792
  endloop
endfacet
facet normal 0.628894353591281 -0.7774907665181657 4.1618489815225475e-16
  outer loop
    vertex 34.20285088047399 35.08124417222081 12.270988998016954
    vertex 34.20285088047399 35.081244172220806 -2.272288197050792
    vertex 34.351464599200995 35.20145438255188 -2.171174591373577
  endloop
endfacet
facet normal 0.628894353591281 -0.7774907665181657 4.1618489815225475e-16
  outer loop
    vertex 34.20285088047399 35.08124417222081 12.270988998016954
    vertex 34.351464599200995 35.20145438255188 -2.171174591373577
    vertex 34.351464599200995 35.20145438255188 12.169875392339721
  endloop
endfacet
facet normal -0.8168800162183787 0.48539197434979725 0.31161140919399516
  outer loop
    vertex 23.87249498114089 36.11764072538311 10.38512252814868
    vertex 24.066136296076834 36.636422545458196 10.08462136653139
    vertex 23.870616912529904 36.30745631609086 10.084621366531369
  endloop
endfacet
facet normal -0.8168800162183787 0.48539197434979725 0.31161140919399516
  outer loop
    vertex 24.066136296076834 36.636422545458196 10.08462136653139
    vertex 23.87249498114089 36.11764072538311 10.38512252814868
    vertex 24.233767694477294 36.72549105778291 10.385416221900806
  endloop
endfacet
facet normal 0.46399362126708904 0.8858385402676118 -1.0794434739674796e-16
  outer loop
    vertex 24.94840039598217 36.494703553675954 11.620670744042663
    vertex 24.614918055745683 36.669316317404785 -1.1673602985757336
    vertex 24.614918055745655 36.66931631740479 11.166061099541798
  endloop
endfacet
facet normal 0.46399362126708904 0.8858385402676118 -1.0794434739674796e-16
  outer loop
    vertex 24.614918055745683 36.669316317404785 -1.1673602985757336
    vertex 24.94840039598217 36.494703553675954 11.620670744042663
    vertex 24.948400395982173 36.49470355367595 -1.6219699430765704
  endloop
endfacet
facet normal 0.46399362126708904 0.8858385402676118 -1.0794434739674796e-16
  outer loop
    vertex 24.948400395982173 36.49470355367595 -1.6219699430765704
    vertex 24.94840039598217 36.494703553675954 11.620670744042663
    vertex 25.351673141483506 36.283428006974106 11.993759237390618
  endloop
endfacet
facet normal 0.46399362126708904 0.8858385402676118 -1.0794434739674796e-16
  outer loop
    vertex 24.948400395982173 36.49470355367595 -1.6219699430765704
    vertex 25.351673141483506 36.283428006974106 11.993759237390618
    vertex 25.35167314148346 36.2834280069741 -1.9950584364245645
  endloop
endfacet
facet normal 0.46399362126708904 0.8858385402676118 -1.0794434739674796e-16
  outer loop
    vertex 25.35167314148346 36.2834280069741 -1.9950584364245645
    vertex 25.351673141483506 36.283428006974106 11.993759237390618
    vertex 25.562059592556153 36.17322788215127 -2.1218218336124792
  endloop
endfacet
facet normal 0.46399362126708904 0.8858385402676118 -1.0794434739674796e-16
  outer loop
    vertex 25.562059592556153 36.17322788215127 -2.1218218336124792
    vertex 25.351673141483506 36.283428006974106 11.993759237390618
    vertex 25.562059592556118 36.173227882151274 12.120522634578577
  endloop
endfacet
facet normal 0.7593820451183783 0.45116166292601334 0.46881986248202373
  outer loop
    vertex 35.014779034189274 36.73578659293894 10.798947192832589
    vertex 35.52841816033117 36.02873833045535 10.647400697578373
    vertex 35.111216701290054 36.7306901695904 10.64740069757835
  endloop
endfacet
facet normal 0.7593820451183783 0.45116166292601334 0.46881986248202373
  outer loop
    vertex 35.52841816033117 36.02873833045535 10.647400697578373
    vertex 35.014779034189274 36.73578659293894 10.798947192832589
    vertex 35.48680458165503 35.941591860437576 10.798424791431593
  endloop
endfacet
facet normal 0.4052268636018886 0.24084449859932672 0.8819212643483633
  outer loop
    vertex 33.88130560469128 36.173227882151274 12.120522634578634
    vertex 34.624870714321716 35.386341642936976 11.993759237390696
    vertex 34.09169205576398 36.283428006974106 11.993759237390742
  endloop
endfacet
facet normal 0.4052268636018886 0.24084449859932672 0.8819212643483633
  outer loop
    vertex 34.624870714321716 35.386341642936976 11.993759237390696
    vertex 33.88130560469128 36.173227882151274 12.120522634578634
    vertex 33.61597782902264 36.06867268877472 12.270988998016907
  endloop
endfacet
facet normal 0.4052268636018886 0.24084449859932672 0.8819212643483633
  outer loop
    vertex 34.624870714321716 35.386341642936976 11.993759237390696
    vertex 33.61597782902264 36.06867268877472 12.270988998016907
    vertex 34.351464599200995 35.20145438255188 12.169875392339721
  endloop
endfacet
facet normal 0.4052268636018886 0.24084449859932672 0.8819212643483633
  outer loop
    vertex 34.351464599200995 35.20145438255188 12.169875392339721
    vertex 33.61597782902264 36.06867268877472 12.270988998016907
    vertex 34.20285088047399 35.08124417222081 12.270988998016954
  endloop
endfacet
facet normal -0.5453436155766638 0.3241221682355195 0.7730104533627459
  outer loop
    vertex 24.432374422482038 35.62647700918495 11.620670744042641
    vertex 25.351673141483506 36.283428006974106 11.993759237390618
    vertex 24.94840039598217 36.494703553675954 11.620670744042663
  endloop
endfacet
facet normal -0.5453436155766638 0.3241221682355195 0.7730104533627459
  outer loop
    vertex 25.351673141483506 36.283428006974106 11.993759237390618
    vertex 24.432374422482038 35.62647700918495 11.620670744042641
    vertex 24.609793598422616 35.527472849013634 11.787348771976996
  endloop
endfacet
facet normal -0.5453436155766638 0.3241221682355195 0.7730104533627459
  outer loop
    vertex 25.351673141483506 36.283428006974106 11.993759237390618
    vertex 24.609793598422616 35.527472849013634 11.787348771976996
    vertex 24.818494482925633 35.386341642936976 11.993759237390641
  endloop
endfacet
facet normal -0.24953747051275108 0.14831130994915903 0.9569403357322036
  outer loop
    vertex 25.240514316773446 35.08124417222081 12.27098899801684
    vertex 26.3578297152468 35.85964631741865 12.441706241692716
    vertex 25.827387368224787 36.06867268877472 12.270988998016874
  endloop
endfacet
facet normal -0.24953747051275108 0.14831130994915903 0.9569403357322036
  outer loop
    vertex 26.3578297152468 35.85964631741865 12.441706241692716
    vertex 25.240514316773446 35.08124417222081 12.27098899801684
    vertex 25.544394345891078 34.83544262355795 12.388326097606436
  endloop
endfacet
facet normal -0.24953747051275108 0.14831130994915903 0.9569403357322036
  outer loop
    vertex 26.3578297152468 35.85964631741865 12.441706241692716
    vertex 25.544394345891078 34.83544262355795 12.388326097606436
    vertex 25.674668985903246 34.71021138617533 12.441706241692705
  endloop
endfacet
facet normal 0.26492434394297015 0.9642692009944045 -6.666261834117423e-16
  outer loop
    vertex 26.55940493845541 35.780213486123905 12.46276997880305
    vertex 26.930812192622763 35.678172662830484 -2.5006495995169282
    vertex 26.55940493845536 35.780213486123905 -2.4640691778369526
  endloop
endfacet
facet normal 0.26492434394297015 0.9642692009944045 -6.666261834117423e-16
  outer loop
    vertex 26.930812192622763 35.678172662830484 -2.5006495995169282
    vertex 26.55940493845541 35.780213486123905 12.46276997880305
    vertex 26.9308121926228 35.67817266283049 12.49935040048302
  endloop
endfacet
facet normal 0.26492434394297015 0.9642692009944045 -6.666261834117423e-16
  outer loop
    vertex 26.930812192622763 35.678172662830484 -2.5006495995169282
    vertex 26.9308121926228 35.67817266283049 12.49935040048302
    vertex 27.59308985279114 35.496217795406274 -2.5006495995169282
  endloop
endfacet
facet normal 0.26492434394297015 0.9642692009944045 -6.666261834117423e-16
  outer loop
    vertex 27.59308985279114 35.496217795406274 -2.5006495995169282
    vertex 26.9308121926228 35.67817266283049 12.49935040048302
    vertex 27.593089852791117 35.496217795406274 12.499350400483067
  endloop
endfacet
facet normal 0.48724569902523857 -0.8732649247401425 7.918229196313309e-16
  outer loop
    vertex 34.83357159882484 35.527472849013634 -1.7886479710109076
    vertex 35.01099077476541 35.62647700918495 11.62067074404272
    vertex 34.833571598824804 35.527472849013634 11.787348771977063
  endloop
endfacet
facet normal 0.48724569902523857 -0.8732649247401425 7.918229196313309e-16
  outer loop
    vertex 35.01099077476541 35.62647700918495 11.62067074404272
    vertex 34.83357159882484 35.527472849013634 -1.7886479710109076
    vertex 35.01099077476542 35.62647700918495 -1.6219699430765757
  endloop
endfacet
facet normal 0.48724569902523857 -0.8732649247401425 7.918229196313309e-16
  outer loop
    vertex 35.01099077476541 35.62647700918495 11.62067074404272
    vertex 35.01099077476542 35.62647700918495 -1.6219699430765757
    vertex 35.33936391241749 35.809686133432 11.166061099541855
  endloop
endfacet
facet normal 0.48724569902523857 -0.8732649247401425 7.918229196313309e-16
  outer loop
    vertex 35.33936391241749 35.809686133432 11.166061099541855
    vertex 35.01099077476542 35.62647700918495 -1.6219699430765757
    vertex 35.33936391241749 35.809686133431995 -1.167360298575739
  endloop
endfacet
facet normal -0.05359939492362704 0.9985625192564667 -4.071716770620594e-16
  outer loop
    vertex 30.792129535134897 35.32450436935262 12.499350400483054
    vertex 29.721682598623733 35.26704646662904 -2.5006495995169282
    vertex 29.721682598623712 35.26704646662905 12.499350400483067
  endloop
endfacet
facet normal -0.05359939492362704 0.9985625192564667 -4.071716770620594e-16
  outer loop
    vertex 29.721682598623733 35.26704646662904 -2.5006495995169282
    vertex 30.792129535134897 35.32450436935262 12.499350400483054
    vertex 30.792129535134922 35.32450436935262 -2.5006495995169336
  endloop
endfacet
facet normal 0.8168800162183603 0.48539197434977427 0.31161140919407904
  outer loop
    vertex 35.20959750277017 36.72549105778291 10.385416221900853
    vertex 35.57274828471756 36.30745631609086 10.084621366531504
    vertex 35.37722890117064 36.636422545458196 10.084621366531458
  endloop
endfacet
facet normal 0.8168800162183603 0.48539197434977427 0.31161140919407904
  outer loop
    vertex 35.57274828471756 36.30745631609086 10.084621366531504
    vertex 35.20959750277017 36.72549105778291 10.385416221900853
    vertex 35.57087021610656 36.11764072538311 10.3851225281487
  endloop
endfacet
endsolid VV's Vr Gloves
