solid VV's Vr Gloves
facet normal 0.5453436155766992 0.32412216823552575 -0.7730104533627181
  outer loop
    vertex 22.010990774765418 35.626477009184946 -1.6219699430765822
    vertex 21.09169205576399 36.2834280069741 -1.995058436424576
    vertex 21.49496480126526 36.49470355367594 -1.6219699430765822
  endloop
endfacet
facet normal 0.5453436155766992 0.32412216823552575 -0.7730104533627181
  outer loop
    vertex 21.09169205576399 36.2834280069741 -1.995058436424576
    vertex 22.010990774765418 35.626477009184946 -1.6219699430765822
    vertex 21.833571598824836 35.52747284901363 -1.7886479710109136
  endloop
endfacet
facet normal 0.5453436155766992 0.32412216823552575 -0.7730104533627181
  outer loop
    vertex 21.09169205576399 36.2834280069741 -1.995058436424576
    vertex 21.833571598824836 35.52747284901363 -1.7886479710109136
    vertex 21.624870714321805 35.38634164293696 -1.9950584364245758
  endloop
endfacet
facet normal -0.24953747051273018 0.14831130994915082 -0.9569403357322104
  outer loop
    vertex 13.35782971524674 35.859646317418644 -2.4430054407266226
    vertex 12.240514316773451 35.0812441722208 -2.2722881970507927
    vertex 12.8273873682248 36.068672688774704 -2.272288197050793
  endloop
endfacet
facet normal -0.24953747051273018 0.14831130994915082 -0.9569403357322104
  outer loop
    vertex 12.240514316773451 35.0812441722208 -2.2722881970507927
    vertex 13.35782971524674 35.859646317418644 -2.4430054407266226
    vertex 12.544394345891101 34.83544262355794 -2.3896252966403435
  endloop
endfacet
facet normal -0.24953747051273018 0.14831130994915082 -0.9569403357322104
  outer loop
    vertex 12.544394345891101 34.83544262355794 -2.3896252966403435
    vertex 13.35782971524674 35.859646317418644 -2.4430054407266226
    vertex 12.674668985903232 34.710211386175324 -2.4430054407266226
  endloop
endfacet
facet normal 0.7599074192587347 0.45154284436233916 -0.4676000148211053
  outer loop
    vertex 22.01477903418923 36.735786592938936 -0.800246391866474
    vertex 22.339363912417483 35.80968613343199 -1.167360298575745
    vertex 21.8284471415018 36.66931631740478 -1.1673602985757452
  endloop
endfacet
facet normal 0.7599074192587347 0.45154284436233916 -0.4676000148211053
  outer loop
    vertex 22.339363912417483 35.80968613343199 -1.167360298575745
    vertex 22.01477903418923 36.735786592938936 -0.800246391866474
    vertex 22.486804581655075 35.94159186043756 -0.7997239904654432
  endloop
endfacet
facet normal 0.7599074192587347 0.45154284436233916 -0.4676000148211053
  outer loop
    vertex 22.486804581655075 35.94159186043756 -0.7997239904654432
    vertex 22.01477903418923 36.735786592938936 -0.800246391866474
    vertex 22.11121670129011 36.730690169590396 -0.6486998966122068
  endloop
endfacet
facet normal 0.7599074192587347 0.45154284436233916 -0.4676000148211053
  outer loop
    vertex 22.486804581655075 35.94159186043756 -0.7997239904654432
    vertex 22.11121670129011 36.730690169590396 -0.6486998966122068
    vertex 22.528418160331192 36.02873833045534 -0.6486998966122068
  endloop
endfacet
facet normal -0.5453436155766942 0.32412216823549167 -0.773010453362736
  outer loop
    vertex 12.351673141483454 36.2834280069741 -1.9950584364245705
    vertex 11.432374422482061 35.626477009184946 -1.6219699430765764
    vertex 11.94840039598217 36.49470355367594 -1.6219699430765764
  endloop
endfacet
facet normal -0.5453436155766942 0.32412216823549167 -0.773010453362736
  outer loop
    vertex 11.432374422482061 35.626477009184946 -1.6219699430765764
    vertex 12.351673141483454 36.2834280069741 -1.9950584364245705
    vertex 11.609793598422625 35.52747284901363 -1.788647971010908
  endloop
endfacet
facet normal -0.5453436155766942 0.32412216823549167 -0.773010453362736
  outer loop
    vertex 11.609793598422625 35.52747284901363 -1.788647971010908
    vertex 12.351673141483454 36.2834280069741 -1.9950584364245705
    vertex 11.818494482925718 35.38634164293696 -1.99505843642457
  endloop
endfacet
facet normal -0.6625008044689337 0.3937539398442472 -0.6372209341626724
  outer loop
    vertex 11.104001284829973 35.80968613343199 -1.1673602985757394
    vertex 11.94840039598217 36.49470355367594 -1.6219699430765764
    vertex 11.432374422482061 35.626477009184946 -1.6219699430765764
  endloop
endfacet
facet normal -0.6625008044689337 0.3937539398442472 -0.6372209341626724
  outer loop
    vertex 11.94840039598217 36.49470355367594 -1.6219699430765764
    vertex 11.104001284829973 35.80968613343199 -1.1673602985757394
    vertex 11.614918055745678 36.66931631740478 -1.1673602985757396
  endloop
endfacet
facet normal 0.24953747051272127 0.14831130994915076 -0.9569403357322126
  outer loop
    vertex 21.20285088047398 35.0812441722208 -2.2722881970507984
    vertex 20.085535482000658 35.859646317418644 -2.443005440726628
    vertex 20.615977829022633 36.068672688774704 -2.2722881970507984
  endloop
endfacet
facet normal 0.24953747051272127 0.14831130994915076 -0.9569403357322126
  outer loop
    vertex 20.085535482000658 35.859646317418644 -2.443005440726628
    vertex 21.20285088047398 35.0812441722208 -2.2722881970507984
    vertex 20.898970851356353 34.83544262355794 -2.3896252966403493
  endloop
endfacet
facet normal 0.24953747051272127 0.14831130994915076 -0.9569403357322126
  outer loop
    vertex 20.085535482000658 35.859646317418644 -2.443005440726628
    vertex 20.898970851356353 34.83544262355794 -2.3896252966403493
    vertex 20.76869621134419 34.710211386175324 -2.443005440726628
  endloop
endfacet
facet normal -0.4052268636018991 0.2408444985993308 -0.881921264348357
  outer loop
    vertex 12.562059592556148 36.17322788215127 -2.1218218336124854
    vertex 11.818494482925718 35.38634164293696 -1.99505843642457
    vertex 12.351673141483454 36.2834280069741 -1.9950584364245705
  endloop
endfacet
facet normal -0.4052268636018991 0.2408444985993308 -0.881921264348357
  outer loop
    vertex 11.818494482925718 35.38634164293696 -1.99505843642457
    vertex 12.562059592556148 36.17322788215127 -2.1218218336124854
    vertex 12.8273873682248 36.068672688774704 -2.272288197050793
  endloop
endfacet
facet normal -0.4052268636018991 0.2408444985993308 -0.881921264348357
  outer loop
    vertex 11.818494482925718 35.38634164293696 -1.99505843642457
    vertex 12.8273873682248 36.068672688774704 -2.272288197050793
    vertex 12.09190059804644 35.20145438255187 -2.1711745913735774
  endloop
endfacet
facet normal -0.4052268636018991 0.2408444985993308 -0.881921264348357
  outer loop
    vertex 12.09190059804644 35.20145438255187 -2.1711745913735774
    vertex 12.8273873682248 36.068672688774704 -2.272288197050793
    vertex 12.240514316773451 35.0812441722208 -2.2722881970507927
  endloop
endfacet
facet normal -0.08425849237399043 0.05007860083157062 -0.9951847266721965
  outer loop
    vertex 13.559404938455353 35.7802134861239 -2.464069177836959
    vertex 12.674668985903232 34.710211386175324 -2.4430054407266226
    vertex 13.35782971524674 35.859646317418644 -2.4430054407266226
  endloop
endfacet
facet normal -0.08425849237399043 0.05007860083157062 -0.9951847266721965
  outer loop
    vertex 12.674668985903232 34.710211386175324 -2.4430054407266226
    vertex 13.559404938455353 35.7802134861239 -2.464069177836959
    vertex 13.93081219262276 35.67817266283048 -2.500649599516934
  endloop
endfacet
facet normal -0.08425849237399043 0.05007860083157062 -0.9951847266721965
  outer loop
    vertex 12.674668985903232 34.710211386175324 -2.4430054407266226
    vertex 13.93081219262276 35.67817266283048 -2.500649599516934
    vertex 12.963966578268693 34.43211355024679 -2.4814932997855212
  endloop
endfacet
facet normal -0.08425849237399043 0.05007860083157062 -0.9951847266721965
  outer loop
    vertex 12.963966578268693 34.43211355024679 -2.4814932997855212
    vertex 13.93081219262276 35.67817266283048 -2.500649599516934
    vertex 13.098788281304254 34.27827172265464 -2.5006495995169336
  endloop
endfacet
facet normal -0.6087614290087265 -0.7933533402912306 4.726016467260818e-16
  outer loop
    vertex 14.721682598623728 31.901021062844595 -2.500649599516933
    vertex 14.514575817437192 32.059939685442494 17.499350400483063
    vertex 14.514575817437184 32.059939685442494 -2.500649599516933
  endloop
endfacet
facet normal -0.6087614290087265 -0.7933533402912306 4.726016467260818e-16
  outer loop
    vertex 14.514575817437192 32.059939685442494 17.499350400483063
    vertex 14.721682598623728 31.901021062844595 -2.500649599516933
    vertex 14.721682598623737 31.9010210628446 17.499350400483063
  endloop
endfacet
facet normal -0.6930142833164652 -0.7209238538981535 8.182833645813193e-16
  outer loop
    vertex 12.674668985903232 34.710211386175324 -2.4430054407266226
    vertex 12.544394345891105 34.835442623557945 17.388326097606434
    vertex 12.544394345891101 34.83544262355794 -2.3896252966403435
  endloop
endfacet
facet normal -0.6930142833164652 -0.7209238538981535 8.182833645813193e-16
  outer loop
    vertex 12.544394345891105 34.835442623557945 17.388326097606434
    vertex 12.674668985903232 34.710211386175324 -2.4430054407266226
    vertex 12.674668985903274 34.710211386175324 17.4417062416927
  endloop
endfacet
facet normal -0.6930142833164652 -0.7209238538981535 8.182833645813193e-16
  outer loop
    vertex 12.674668985903274 34.710211386175324 17.4417062416927
    vertex 12.674668985903232 34.710211386175324 -2.4430054407266226
    vertex 12.963966578268693 34.43211355024679 -2.4814932997855212
  endloop
endfacet
facet normal -0.6930142833164652 -0.7209238538981535 8.182833645813193e-16
  outer loop
    vertex 12.674668985903274 34.710211386175324 17.4417062416927
    vertex 12.963966578268693 34.43211355024679 -2.4814932997855212
    vertex 12.963966578268701 34.4321135502468 17.4801941007516
  endloop
endfacet
facet normal -0.7599074192587485 0.451542844362336 -0.4676000148210859
  outer loop
    vertex 10.956560615592426 35.94159186043756 -0.7997239904654375
    vertex 11.614918055745678 36.66931631740478 -1.1673602985757396
    vertex 11.104001284829973 35.80968613343199 -1.1673602985757394
  endloop
endfacet
facet normal -0.7599074192587485 0.451542844362336 -0.4676000148210859
  outer loop
    vertex 11.614918055745678 36.66931631740478 -1.1673602985757396
    vertex 10.956560615592426 35.94159186043756 -0.7997239904654375
    vertex 11.42858616305819 36.735786592938936 -0.8002463918664683
  endloop
endfacet
facet normal -0.7599074192587485 0.451542844362336 -0.4676000148210859
  outer loop
    vertex 11.42858616305819 36.735786592938936 -0.8002463918664683
    vertex 10.956560615592426 35.94159186043756 -0.7997239904654375
    vertex 11.332148495957389 36.730690169590396 -0.6486998966122012
  endloop
endfacet
facet normal -0.7599074192587485 0.451542844362336 -0.4676000148210859
  outer loop
    vertex 11.332148495957389 36.730690169590396 -0.6486998966122012
    vertex 10.956560615592426 35.94159186043756 -0.7997239904654375
    vertex 10.914947036916287 36.02873833045534 -0.6486998966122012
  endloop
endfacet
facet normal -0.853286762044145 -0.5214419447265621 5.0176048192147535e-16
  outer loop
    vertex 13.995814614645576 33.02894353825065 17.499350400483063
    vertex 13.692339345210051 33.525549982430924 -2.5006495995169336
    vertex 13.995814614645568 33.028943538250644 -2.5006495995169336
  endloop
endfacet
facet normal -0.853286762044145 -0.5214419447265621 5.0176048192147535e-16
  outer loop
    vertex 13.692339345210051 33.525549982430924 -2.5006495995169336
    vertex 13.995814614645576 33.02894353825065 17.499350400483063
    vertex 13.69233934521006 33.525549982430924 17.499350400483063
  endloop
endfacet
facet normal 0.08507424156092745 0.05543250649966366 -0.9948314483599712
  outer loop
    vertex 20.76869621134419 34.710211386175324 -2.443005440726628
    vertex 19.88396025879206 35.7802134861239 -2.4640691778369646
    vertex 20.085535482000658 35.859646317418644 -2.443005440726628
  endloop
endfacet
facet normal 0.08507424156092745 0.05543250649966366 -0.9948314483599712
  outer loop
    vertex 19.88396025879206 35.7802134861239 -2.4640691778369646
    vertex 20.76869621134419 34.710211386175324 -2.443005440726628
    vertex 19.512553004624646 35.67817266283048 -2.5006495995169398
  endloop
endfacet
facet normal 0.08507424156092745 0.05543250649966366 -0.9948314483599712
  outer loop
    vertex 19.512553004624646 35.67817266283048 -2.5006495995169398
    vertex 20.76869621134419 34.710211386175324 -2.443005440726628
    vertex 20.479398618978774 34.43211355024679 -2.5006495995169393
  endloop
endfacet
facet normal 0.08507424156092745 0.05543250649966366 -0.9948314483599712
  outer loop
    vertex 19.512553004624646 35.67817266283048 -2.5006495995169398
    vertex 20.479398618978774 34.43211355024679 -2.5006495995169393
    vertex 20.344576915943218 34.27827172265464 -2.5006495995169393
  endloop
endfacet
facet normal 0.6087614290087265 -0.7933533402912306 -4.221328545017516e-17
  outer loop
    vertex 18.928789379810283 32.059939685442494 -2.500649599516939
    vertex 18.721682598623747 31.9010210628446 17.499350400483053
    vertex 18.721682598623737 31.901021062844595 -2.500649599516939
  endloop
endfacet
facet normal 0.6087614290087265 -0.7933533402912306 -4.221328545017516e-17
  outer loop
    vertex 18.721682598623747 31.9010210628446 17.499350400483053
    vertex 18.928789379810283 32.059939685442494 -2.500649599516939
    vertex 18.92878937981029 32.059939685442494 17.499350400483053
  endloop
endfacet
facet normal 0.405226863601868 0.24084449859931656 -0.8819212643483754
  outer loop
    vertex 21.624870714321805 35.38634164293696 -1.9950584364245758
    vertex 20.88130560469134 36.17322788215127 -2.1218218336124908
    vertex 21.09169205576399 36.2834280069741 -1.995058436424576
  endloop
endfacet
facet normal 0.405226863601868 0.24084449859931656 -0.8819212643483754
  outer loop
    vertex 20.88130560469134 36.17322788215127 -2.1218218336124908
    vertex 21.624870714321805 35.38634164293696 -1.9950584364245758
    vertex 20.615977829022633 36.068672688774704 -2.2722881970507984
  endloop
endfacet
facet normal 0.405226863601868 0.24084449859931656 -0.8819212643483754
  outer loop
    vertex 20.615977829022633 36.068672688774704 -2.2722881970507984
    vertex 21.624870714321805 35.38634164293696 -1.9950584364245758
    vertex 21.35146459920099 35.20145438255187 -2.1711745913735827
  endloop
endfacet
facet normal 0.405226863601868 0.24084449859931656 -0.8819212643483754
  outer loop
    vertex 20.615977829022633 36.068672688774704 -2.2722881970507984
    vertex 21.35146459920099 35.20145438255187 -2.1711745913735827
    vertex 21.20285088047398 35.0812441722208 -2.2722881970507984
  endloop
endfacet
facet normal -0.805622135737949 -0.5924297210716439 5.012674782313271e-16
  outer loop
    vertex 13.69233934521006 33.525549982430924 17.499350400483063
    vertex 13.347549726649339 33.994415974472474 -2.5006495995169336
    vertex 13.692339345210051 33.525549982430924 -2.5006495995169336
  endloop
endfacet
facet normal -0.805622135737949 -0.5924297210716439 5.012674782313271e-16
  outer loop
    vertex 13.347549726649339 33.994415974472474 -2.5006495995169336
    vertex 13.69233934521006 33.525549982430924 17.499350400483063
    vertex 13.347549726649348 33.994415974472474 17.499350400483063
  endloop
endfacet
facet normal -1.087665881106861e-15 -1.4206773123320473e-16 -1.0
  outer loop
    vertex 14.593089852791136 35.49621779540627 -2.500649599516934
    vertex 13.098788281304254 34.27827172265464 -2.5006495995169336
    vertex 13.93081219262276 35.67817266283048 -2.500649599516934
  endloop
endfacet
facet normal -1.087665881106861e-15 -1.4206773123320473e-16 -1.0
  outer loop
    vertex 13.098788281304254 34.27827172265464 -2.5006495995169336
    vertex 14.593089852791136 35.49621779540627 -2.500649599516934
    vertex 15.65123566211255 35.32450436935262 -2.500649599516934
  endloop
endfacet
facet normal -1.087665881106861e-15 -1.4206773123320473e-16 -1.0
  outer loop
    vertex 13.098788281304254 34.27827172265464 -2.5006495995169336
    vertex 15.65123566211255 35.32450436935262 -2.500649599516934
    vertex 16.72168259862373 35.26704646662903 -2.500649599516934
  endloop
endfacet
facet normal -1.087665881106861e-15 -1.4206773123320473e-16 -1.0
  outer loop
    vertex 13.098788281304254 34.27827172265464 -2.5006495995169336
    vertex 16.72168259862373 35.26704646662903 -2.500649599516934
    vertex 20.344576915943218 34.27827172265464 -2.5006495995169393
  endloop
endfacet
facet normal -1.087665881106861e-15 -1.4206773123320473e-16 -1.0
  outer loop
    vertex 13.098788281304254 34.27827172265464 -2.5006495995169336
    vertex 20.344576915943218 34.27827172265464 -2.5006495995169393
    vertex 18.34668259862374 34.26704646662903 -2.5006495995169393
  endloop
endfacet
facet normal -1.087665881106861e-15 -1.4206773123320473e-16 -1.0
  outer loop
    vertex 18.34668259862374 34.26704646662903 -2.5006495995169393
    vertex 20.344576915943218 34.27827172265464 -2.5006495995169393
    vertex 20.095815470598126 33.994415974472474 -2.5006495995169393
  endloop
endfacet
facet normal -1.087665881106861e-15 -1.4206773123320473e-16 -1.0
  outer loop
    vertex 18.34668259862374 34.26704646662903 -2.5006495995169393
    vertex 20.095815470598126 33.994415974472474 -2.5006495995169393
    vertex 18.34668259862374 32.51704646662903 -2.500649599516939
  endloop
endfacet
facet normal -1.087665881106861e-15 -1.4206773123320473e-16 -1.0
  outer loop
    vertex 18.34668259862374 32.51704646662903 -2.500649599516939
    vertex 20.095815470598126 33.994415974472474 -2.5006495995169393
    vertex 19.751025852037415 33.525549982430924 -2.5006495995169393
  endloop
endfacet
facet normal -1.087665881106861e-15 -1.4206773123320473e-16 -1.0
  outer loop
    vertex 18.34668259862374 32.51704646662903 -2.500649599516939
    vertex 19.751025852037415 33.525549982430924 -2.5006495995169393
    vertex 19.4475505826019 33.028943538250644 -2.5006495995169393
  endloop
endfacet
facet normal -1.087665881106861e-15 -1.4206773123320473e-16 -1.0
  outer loop
    vertex 18.34668259862374 32.51704646662903 -2.500649599516939
    vertex 19.4475505826019 33.028943538250644 -2.5006495995169393
    vertex 19.18760842491279 32.508227421526506 -2.500649599516939
  endloop
endfacet
facet normal -1.087665881106861e-15 -1.4206773123320473e-16 -1.0
  outer loop
    vertex 18.34668259862374 32.51704646662903 -2.500649599516939
    vertex 19.18760842491279 32.508227421526506 -2.500649599516939
    vertex 15.096682598623728 32.51704646662903 -2.500649599516933
  endloop
endfacet
facet normal -1.087665881106861e-15 -1.4206773123320473e-16 -1.0
  outer loop
    vertex 13.098788281304254 34.27827172265464 -2.5006495995169336
    vertex 15.096682598623728 34.26704646662903 -2.5006495995169336
    vertex 13.347549726649339 33.994415974472474 -2.5006495995169336
  endloop
endfacet
facet normal -1.087665881106861e-15 -1.4206773123320473e-16 -1.0
  outer loop
    vertex 15.096682598623728 34.26704646662903 -2.5006495995169336
    vertex 13.098788281304254 34.27827172265464 -2.5006495995169336
    vertex 18.34668259862374 34.26704646662903 -2.5006495995169393
  endloop
endfacet
facet normal -1.087665881106861e-15 -1.4206773123320473e-16 -1.0
  outer loop
    vertex 13.347549726649339 33.994415974472474 -2.5006495995169336
    vertex 15.096682598623728 34.26704646662903 -2.5006495995169336
    vertex 15.096682598623728 32.51704646662903 -2.500649599516933
  endloop
endfacet
facet normal -1.087665881106861e-15 -1.4206773123320473e-16 -1.0
  outer loop
    vertex 13.347549726649339 33.994415974472474 -2.5006495995169336
    vertex 15.096682598623728 32.51704646662903 -2.500649599516933
    vertex 13.692339345210051 33.525549982430924 -2.5006495995169336
  endloop
endfacet
facet normal -1.087665881106861e-15 -1.4206773123320473e-16 -1.0
  outer loop
    vertex 13.692339345210051 33.525549982430924 -2.5006495995169336
    vertex 15.096682598623728 32.51704646662903 -2.500649599516933
    vertex 13.995814614645568 33.028943538250644 -2.5006495995169336
  endloop
endfacet
facet normal -1.087665881106861e-15 -1.4206773123320473e-16 -1.0
  outer loop
    vertex 13.995814614645568 33.028943538250644 -2.5006495995169336
    vertex 15.096682598623728 32.51704646662903 -2.500649599516933
    vertex 14.255756772334678 32.508227421526506 -2.500649599516933
  endloop
endfacet
facet normal -1.087665881106861e-15 -1.4206773123320473e-16 -1.0
  outer loop
    vertex 14.255756772334678 32.508227421526506 -2.500649599516933
    vertex 15.096682598623728 32.51704646662903 -2.500649599516933
    vertex 19.18760842491279 32.508227421526506 -2.500649599516939
  endloop
endfacet
facet normal -1.087665881106861e-15 -1.4206773123320473e-16 -1.0
  outer loop
    vertex 14.255756772334678 32.508227421526506 -2.500649599516933
    vertex 19.18760842491279 32.508227421526506 -2.500649599516939
    vertex 19.087708002408178 32.26704646662903 -2.500649599516939
  endloop
endfacet
facet normal -1.087665881106861e-15 -1.4206773123320473e-16 -1.0
  outer loop
    vertex 14.255756772334678 32.508227421526506 -2.500649599516933
    vertex 19.087708002408178 32.26704646662903 -2.500649599516939
    vertex 14.355657194839289 32.26704646662903 -2.500649599516933
  endloop
endfacet
facet normal -1.087665881106861e-15 -1.4206773123320473e-16 -1.0
  outer loop
    vertex 14.355657194839289 32.26704646662903 -2.500649599516933
    vertex 19.087708002408178 32.26704646662903 -2.500649599516939
    vertex 18.928789379810283 32.059939685442494 -2.500649599516939
  endloop
endfacet
facet normal -1.087665881106861e-15 -1.4206773123320473e-16 -1.0
  outer loop
    vertex 14.355657194839289 32.26704646662903 -2.500649599516933
    vertex 18.928789379810283 32.059939685442494 -2.500649599516939
    vertex 14.514575817437184 32.059939685442494 -2.500649599516933
  endloop
endfacet
facet normal -1.087665881106861e-15 -1.4206773123320473e-16 -1.0
  outer loop
    vertex 14.514575817437184 32.059939685442494 -2.500649599516933
    vertex 18.928789379810283 32.059939685442494 -2.500649599516939
    vertex 18.721682598623737 31.901021062844595 -2.500649599516939
  endloop
endfacet
facet normal -1.087665881106861e-15 -1.4206773123320473e-16 -1.0
  outer loop
    vertex 14.514575817437184 32.059939685442494 -2.500649599516933
    vertex 18.721682598623737 31.901021062844595 -2.500649599516939
    vertex 14.721682598623728 31.901021062844595 -2.500649599516933
  endloop
endfacet
facet normal -1.087665881106861e-15 -1.4206773123320473e-16 -1.0
  outer loop
    vertex 14.721682598623728 31.901021062844595 -2.500649599516933
    vertex 18.721682598623737 31.901021062844595 -2.500649599516939
    vertex 18.480501643726257 31.801120640339967 -2.500649599516939
  endloop
endfacet
facet normal -1.087665881106861e-15 -1.4206773123320473e-16 -1.0
  outer loop
    vertex 14.721682598623728 31.901021062844595 -2.500649599516933
    vertex 18.480501643726257 31.801120640339967 -2.500649599516939
    vertex 14.96286355352121 31.801120640339967 -2.500649599516933
  endloop
endfacet
facet normal -1.087665881106861e-15 -1.4206773123320473e-16 -1.0
  outer loop
    vertex 14.96286355352121 31.801120640339967 -2.500649599516933
    vertex 18.480501643726257 31.801120640339967 -2.500649599516939
    vertex 18.22168259862374 31.767046466629036 -2.500649599516939
  endloop
endfacet
facet normal -1.087665881106861e-15 -1.4206773123320473e-16 -1.0
  outer loop
    vertex 14.96286355352121 31.801120640339967 -2.500649599516933
    vertex 18.22168259862374 31.767046466629036 -2.500649599516939
    vertex 15.221682598623728 31.767046466629036 -2.500649599516933
  endloop
endfacet
facet normal -1.087665881106861e-15 -1.4206773123320473e-16 -1.0
  outer loop
    vertex 20.344576915943218 34.27827172265464 -2.5006495995169393
    vertex 18.850275344456332 35.49621779540627 -2.5006495995169398
    vertex 19.512553004624646 35.67817266283048 -2.5006495995169398
  endloop
endfacet
facet normal -1.087665881106861e-15 -1.4206773123320473e-16 -1.0
  outer loop
    vertex 18.850275344456332 35.49621779540627 -2.5006495995169398
    vertex 20.344576915943218 34.27827172265464 -2.5006495995169393
    vertex 17.79212953513492 35.32450436935262 -2.5006495995169398
  endloop
endfacet
facet normal -1.087665881106861e-15 -1.4206773123320473e-16 -1.0
  outer loop
    vertex 17.79212953513492 35.32450436935262 -2.5006495995169398
    vertex 20.344576915943218 34.27827172265464 -2.5006495995169393
    vertex 16.72168259862373 35.26704646662903 -2.500649599516934
  endloop
endfacet
facet normal 0.382683432365083 -0.9238795325112897 8.86519928028067e-17
  outer loop
    vertex 18.721682598623737 31.901021062844595 -2.500649599516939
    vertex 18.480501643726264 31.801120640339974 17.499350400483053
    vertex 18.480501643726257 31.801120640339967 -2.500649599516939
  endloop
endfacet
facet normal 0.382683432365083 -0.9238795325112897 8.86519928028067e-17
  outer loop
    vertex 18.480501643726264 31.801120640339974 17.499350400483053
    vertex 18.721682598623737 31.901021062844595 -2.500649599516939
    vertex 18.721682598623747 31.9010210628446 17.499350400483053
  endloop
endfacet
facet normal 0.7520674601867797 -0.6590861365012974 -1.2232262966260646e-16
  outer loop
    vertex 20.47939861897878 34.4321135502468 17.480194100751735
    vertex 20.344576915943218 34.27827172265464 -2.5006495995169393
    vertex 20.479398618978774 34.43211355024679 -2.5006495995169393
  endloop
endfacet
facet normal 0.7520674601867797 -0.6590861365012974 -1.2232262966260646e-16
  outer loop
    vertex 20.344576915943218 34.27827172265464 -2.5006495995169393
    vertex 20.47939861897878 34.4321135502468 17.480194100751735
    vertex 20.095815470598126 33.994415974472474 -2.5006495995169393
  endloop
endfacet
facet normal 0.7520674601867797 -0.6590861365012974 -1.2232262966260646e-16
  outer loop
    vertex 20.095815470598126 33.994415974472474 -2.5006495995169393
    vertex 20.47939861897878 34.4321135502468 17.480194100751735
    vertex 20.095815470598136 33.994415974472474 17.499350400483053
  endloop
endfacet
facet normal 0.7520674601867797 -0.6590861365012974 -1.2232262966260646e-16
  outer loop
    vertex 20.095815470598136 33.994415974472474 17.499350400483053
    vertex 20.47939861897878 34.4321135502468 17.480194100751735
    vertex 20.34457691594324 34.27827172265466 17.49935040048311
  endloop
endfacet
facet normal -0.13052619222005357 -0.9914448613738103 3.240761757042607e-16
  outer loop
    vertex 15.221682598623728 31.767046466629036 -2.500649599516933
    vertex 14.962863553521219 31.801120640339974 17.499350400483063
    vertex 14.96286355352121 31.801120640339967 -2.500649599516933
  endloop
endfacet
facet normal -0.13052619222005357 -0.9914448613738103 3.240761757042607e-16
  outer loop
    vertex 14.962863553521219 31.801120640339974 17.499350400483063
    vertex 15.221682598623728 31.767046466629036 -2.500649599516933
    vertex 15.221682598623737 31.76704646662904 17.499350400483063
  endloop
endfacet
facet normal 0.662500804468923 0.3937539398442496 -0.6372209341626819
  outer loop
    vertex 21.8284471415018 36.66931631740478 -1.1673602985757452
    vertex 22.010990774765418 35.626477009184946 -1.6219699430765822
    vertex 21.49496480126526 36.49470355367594 -1.6219699430765822
  endloop
endfacet
facet normal 0.662500804468923 0.3937539398442496 -0.6372209341626819
  outer loop
    vertex 22.010990774765418 35.626477009184946 -1.6219699430765822
    vertex 21.8284471415018 36.66931631740478 -1.1673602985757452
    vertex 22.339363912417483 35.80968613343199 -1.167360298575745
  endloop
endfacet
facet normal -0.8947128543955147 -0.44664181194714714 4.99625256163286e-16
  outer loop
    vertex 14.255756772334687 32.50822742152651 17.499350400483063
    vertex 13.995814614645568 33.028943538250644 -2.5006495995169336
    vertex 14.255756772334678 32.508227421526506 -2.500649599516933
  endloop
endfacet
facet normal -0.8947128543955147 -0.44664181194714714 4.99625256163286e-16
  outer loop
    vertex 13.995814614645568 33.028943538250644 -2.5006495995169336
    vertex 14.255756772334687 32.50822742152651 17.499350400483063
    vertex 13.995814614645576 33.02894353825065 17.499350400483063
  endloop
endfacet
facet normal 0.805622135737949 -0.5924297210716439 -1.8002782959553931e-16
  outer loop
    vertex 20.095815470598136 33.994415974472474 17.499350400483053
    vertex 19.751025852037415 33.525549982430924 -2.5006495995169393
    vertex 20.095815470598126 33.994415974472474 -2.5006495995169393
  endloop
endfacet
facet normal 0.805622135737949 -0.5924297210716439 -1.8002782959553931e-16
  outer loop
    vertex 19.751025852037415 33.525549982430924 -2.5006495995169393
    vertex 20.095815470598136 33.994415974472474 17.499350400483053
    vertex 19.751025852037422 33.525549982430924 17.499350400483053
  endloop
endfacet
facet normal -0.9023967110526536 -0.43090622632001213 3.403626719147925e-16
  outer loop
    vertex 10.956560615592396 35.94159186043757 15.798424791431522
    vertex 10.914947036916287 36.02873833045534 -0.6486998966122012
    vertex 10.956560615592426 35.94159186043756 -0.7997239904654375
  endloop
endfacet
facet normal -0.9023967110526536 -0.43090622632001213 3.403626719147925e-16
  outer loop
    vertex 10.914947036916287 36.02873833045534 -0.6486998966122012
    vertex 10.956560615592396 35.94159186043757 15.798424791431522
    vertex 10.872494981140868 36.11764072538311 -0.3864217271825976
  endloop
endfacet
facet normal -0.9023967110526536 -0.43090622632001213 3.403626719147925e-16
  outer loop
    vertex 10.872494981140868 36.11764072538311 -0.3864217271825976
    vertex 10.956560615592396 35.94159186043757 15.798424791431522
    vertex 10.872494981140916 36.11764072538311 15.385122528148676
  endloop
endfacet
facet normal -0.9023967110526536 -0.43090622632001213 3.403626719147925e-16
  outer loop
    vertex 10.872494981140916 36.11764072538311 15.385122528148676
    vertex 10.956560615592396 35.94159186043757 15.798424791431522
    vertex 10.914947036916283 36.02873833045535 15.647400697578313
  endloop
endfacet
facet normal 0.13052619222005357 -0.9914448613738103 2.136020061903296e-16
  outer loop
    vertex 18.480501643726257 31.801120640339967 -2.500649599516939
    vertex 18.221682598623747 31.76704646662904 17.499350400483053
    vertex 18.22168259862374 31.767046466629036 -2.500649599516939
  endloop
endfacet
facet normal 0.13052619222005357 -0.9914448613738103 2.136020061903296e-16
  outer loop
    vertex 18.221682598623747 31.76704646662904 17.499350400483053
    vertex 18.480501643726257 31.801120640339967 -2.500649599516939
    vertex 18.480501643726264 31.801120640339974 17.499350400483053
  endloop
endfacet
facet normal 0.693014283316475 -0.7209238538981442 -6.236759930399387e-16
  outer loop
    vertex 20.76869621134419 34.710211386175324 -2.443005440726628
    vertex 20.47939861897878 34.4321135502468 17.480194100751735
    vertex 20.479398618978774 34.43211355024679 -2.5006495995169393
  endloop
endfacet
facet normal 0.693014283316475 -0.7209238538981442 -6.236759930399387e-16
  outer loop
    vertex 20.47939861897878 34.4321135502468 17.480194100751735
    vertex 20.76869621134419 34.710211386175324 -2.443005440726628
    vertex 20.76869621134424 34.710211386175324 17.441706241692803
  endloop
endfacet
facet normal 0.693014283316475 -0.7209238538981442 -6.236759930399387e-16
  outer loop
    vertex 20.76869621134424 34.710211386175324 17.441706241692803
    vertex 20.76869621134419 34.710211386175324 -2.443005440726628
    vertex 20.898970851356353 34.83544262355794 -2.3896252966403493
  endloop
endfacet
facet normal 0.693014283316475 -0.7209238538981442 -6.236759930399387e-16
  outer loop
    vertex 20.76869621134424 34.710211386175324 17.441706241692803
    vertex 20.898970851356353 34.83544262355794 -2.3896252966403493
    vertex 20.898970851356367 34.835442623557945 17.388326097606456
  endloop
endfacet
facet normal 0.7600968445497827 0.45161810796597246 0.4672192969716672
  outer loop
    vertex 22.014779034189303 36.735786592938936 15.798947192832586
    vertex 22.339363912417518 35.809686133431995 16.16606109954185
    vertex 22.486804581655054 35.94159186043757 15.79842479143159
  endloop
endfacet
facet normal 0.7600968445497827 0.45161810796597246 0.4672192969716672
  outer loop
    vertex 22.339363912417518 35.809686133431995 16.16606109954185
    vertex 22.014779034189303 36.735786592938936 15.798947192832586
    vertex 21.828447141501805 36.669316317404785 16.166061099541896
  endloop
endfacet
facet normal 0.8185408599001751 0.4864330841028724 -0.3055711297947667
  outer loop
    vertex 22.209597502770166 36.725491057782904 -0.38671542093474826
    vertex 22.528418160331192 36.02873833045534 -0.6486998966122068
    vertex 22.11121670129011 36.730690169590396 -0.6486998966122068
  endloop
endfacet
facet normal 0.8185408599001751 0.4864330841028724 -0.3055711297947667
  outer loop
    vertex 22.528418160331192 36.02873833045534 -0.6486998966122068
    vertex 22.209597502770166 36.725491057782904 -0.38671542093474826
    vertex 22.57087021610654 36.11764072538311 -0.38642172718260326
  endloop
endfacet
facet normal 0.8185408599001751 0.4864330841028724 -0.3055711297947667
  outer loop
    vertex 22.57087021610654 36.11764072538311 -0.38642172718260326
    vertex 22.209597502770166 36.725491057782904 -0.38671542093474826
    vertex 22.377228901170614 36.63642254545818 -0.08592056556532658
  endloop
endfacet
facet normal 0.8185408599001751 0.4864330841028724 -0.3055711297947667
  outer loop
    vertex 22.57087021610654 36.11764072538311 -0.38642172718260326
    vertex 22.377228901170614 36.63642254545818 -0.08592056556532658
    vertex 22.572748284717573 36.30745631609084 -0.08592056556532658
  endloop
endfacet
facet normal 0.08425849237400503 0.05007860083163037 0.9951847266721924
  outer loop
    vertex 19.883960258792087 35.780213486123905 17.46276997880306
    vertex 20.76869621134424 34.710211386175324 17.441706241692803
    vertex 20.085535482000722 35.85964631741865 17.441706241692735
  endloop
endfacet
facet normal 0.08425849237400503 0.05007860083163037 0.9951847266721924
  outer loop
    vertex 20.76869621134424 34.710211386175324 17.441706241692803
    vertex 19.883960258792087 35.780213486123905 17.46276997880306
    vertex 19.512553004624728 35.678172662830484 17.499350400483085
  endloop
endfacet
facet normal 0.08425849237400503 0.05007860083163037 0.9951847266721924
  outer loop
    vertex 20.76869621134424 34.710211386175324 17.441706241692803
    vertex 19.512553004624728 35.678172662830484 17.499350400483085
    vertex 20.47939861897878 34.4321135502468 17.480194100751735
  endloop
endfacet
facet normal 0.08425849237400503 0.05007860083163037 0.9951847266721924
  outer loop
    vertex 20.47939861897878 34.4321135502468 17.480194100751735
    vertex 19.512553004624728 35.678172662830484 17.499350400483085
    vertex 20.34457691594324 34.27827172265466 17.49935040048311
  endloop
endfacet
facet normal 0.9999510562471945 -0.009893690419670764 -2.2013176547144924e-15
  outer loop
    vertex 22.572748284717573 36.30745631609084 -0.08592056556532658
    vertex 22.57087021610659 36.11764072538311 15.385122528148697
    vertex 22.57087021610654 36.11764072538311 -0.38642172718260326
  endloop
endfacet
facet normal 0.9999510562471945 -0.009893690419670764 -2.2013176547144924e-15
  outer loop
    vertex 22.57087021610659 36.11764072538311 15.385122528148697
    vertex 22.572748284717573 36.30745631609084 -0.08592056556532658
    vertex 22.57274828471759 36.30745631609085 15.0846213665315
  endloop
endfacet
facet normal -0.7593820451183062 0.45116166292602833 0.46881986248212615
  outer loop
    vertex 10.914947036916283 36.02873833045535 15.647400697578313
    vertex 11.428586163058249 36.735786592938936 15.798947192832518
    vertex 11.332148495957398 36.7306901695904 15.647400697578279
  endloop
endfacet
facet normal -0.7593820451183062 0.45116166292602833 0.46881986248212615
  outer loop
    vertex 11.428586163058249 36.735786592938936 15.798947192832518
    vertex 10.914947036916283 36.02873833045535 15.647400697578313
    vertex 10.956560615592396 35.94159186043757 15.798424791431522
  endloop
endfacet
facet normal -0.1601822430069668 0.987087457637497 -2.0455666799850233e-16
  outer loop
    vertex 17.792129535134926 35.32450436935262 17.499350400483053
    vertex 18.850275344456332 35.49621779540627 -2.5006495995169398
    vertex 17.79212953513492 35.32450436935262 -2.5006495995169398
  endloop
endfacet
facet normal -0.1601822430069668 0.987087457637497 -2.0455666799850233e-16
  outer loop
    vertex 18.850275344456332 35.49621779540627 -2.5006495995169398
    vertex 17.792129535134926 35.32450436935262 17.499350400483053
    vertex 18.85027534445634 35.496217795406274 17.499350400483053
  endloop
endfacet
facet normal -0.6667531082419519 -0.7452786677811837 -1.0983556271144266e-16
  outer loop
    vertex 10.956560615592426 35.94159186043756 -0.7997239904654375
    vertex 11.104001284829987 35.809686133431995 16.166061099541782
    vertex 10.956560615592396 35.94159186043757 15.798424791431522
  endloop
endfacet
facet normal -0.6667531082419519 -0.7452786677811837 -1.0983556271144266e-16
  outer loop
    vertex 11.104001284829987 35.809686133431995 16.166061099541782
    vertex 10.956560615592426 35.94159186043756 -0.7997239904654375
    vertex 11.104001284829973 35.80968613343199 -1.1673602985757394
  endloop
endfacet
facet normal -0.9999510562471969 -0.009893690419418243 2.0281420725684714e-15
  outer loop
    vertex 10.872494981140916 36.11764072538311 15.385122528148676
    vertex 10.870616912529918 36.30745631609084 -0.08592056556532095
    vertex 10.872494981140868 36.11764072538311 -0.3864217271825976
  endloop
endfacet
facet normal -0.9999510562471969 -0.009893690419418243 2.0281420725684714e-15
  outer loop
    vertex 10.870616912529918 36.30745631609084 -0.08592056556532095
    vertex 10.872494981140916 36.11764072538311 15.385122528148676
    vertex 10.87061691252993 36.30745631609085 15.084621366531366
  endloop
endfacet
facet normal -0.4639936212670888 0.885838540267612 -3.830377345249153e-17
  outer loop
    vertex 21.091692055764007 36.2834280069741 16.993759237390737
    vertex 20.88130560469134 36.17322788215127 -2.1218218336124908
    vertex 20.881305604691303 36.17322788215127 17.12052263457863
  endloop
endfacet
facet normal -0.4639936212670888 0.885838540267612 -3.830377345249153e-17
  outer loop
    vertex 20.88130560469134 36.17322788215127 -2.1218218336124908
    vertex 21.091692055764007 36.2834280069741 16.993759237390737
    vertex 21.09169205576399 36.2834280069741 -1.995058436424576
  endloop
endfacet
facet normal -0.4639936212670888 0.885838540267612 -3.830377345249153e-17
  outer loop
    vertex 21.09169205576399 36.2834280069741 -1.995058436424576
    vertex 21.091692055764007 36.2834280069741 16.993759237390737
    vertex 21.49496480126526 36.49470355367594 -1.6219699430765822
  endloop
endfacet
facet normal -0.4639936212670888 0.885838540267612 -3.830377345249153e-17
  outer loop
    vertex 21.49496480126526 36.49470355367594 -1.6219699430765822
    vertex 21.091692055764007 36.2834280069741 16.993759237390737
    vertex 21.49496480126531 36.49470355367595 16.620670744042684
  endloop
endfacet
facet normal -0.4639936212670888 0.885838540267612 -3.830377345249153e-17
  outer loop
    vertex 21.49496480126526 36.49470355367594 -1.6219699430765822
    vertex 21.49496480126531 36.49470355367595 16.620670744042684
    vertex 21.8284471415018 36.66931631740478 -1.1673602985757452
  endloop
endfacet
facet normal -0.4639936212670888 0.885838540267612 -3.830377345249153e-17
  outer loop
    vertex 21.8284471415018 36.66931631740478 -1.1673602985757452
    vertex 21.49496480126531 36.49470355367595 16.620670744042684
    vertex 21.828447141501805 36.669316317404785 16.166061099541896
  endloop
endfacet
facet normal 0.5453436155766965 0.3241221682354932 0.7730104533627338
  outer loop
    vertex 21.091692055764007 36.2834280069741 16.993759237390737
    vertex 22.010990774765435 35.62647700918495 16.620670744042716
    vertex 21.49496480126531 36.49470355367595 16.620670744042684
  endloop
endfacet
facet normal 0.5453436155766965 0.3241221682354932 0.7730104533627338
  outer loop
    vertex 22.010990774765435 35.62647700918495 16.620670744042716
    vertex 21.091692055764007 36.2834280069741 16.993759237390737
    vertex 21.833571598824832 35.527472849013634 16.787348771977058
  endloop
endfacet
facet normal 0.5453436155766965 0.3241221682354932 0.7730104533627338
  outer loop
    vertex 21.833571598824832 35.527472849013634 16.787348771977058
    vertex 21.091692055764007 36.2834280069741 16.993759237390737
    vertex 21.62487071432174 35.38634164293697 16.993759237390694
  endloop
endfacet
facet normal -0.4872456990252446 -0.8732649247401393 5.700149422765107e-16
  outer loop
    vertex 11.432374422482061 35.626477009184946 -1.6219699430765764
    vertex 11.104001284829987 35.809686133431995 16.166061099541782
    vertex 11.104001284829973 35.80968613343199 -1.1673602985757394
  endloop
endfacet
facet normal -0.4872456990252446 -0.8732649247401393 5.700149422765107e-16
  outer loop
    vertex 11.104001284829987 35.809686133431995 16.166061099541782
    vertex 11.432374422482061 35.626477009184946 -1.6219699430765764
    vertex 11.432374422482065 35.62647700918495 16.620670744042638
  endloop
endfacet
facet normal -0.4872456990252446 -0.8732649247401393 5.700149422765107e-16
  outer loop
    vertex 11.432374422482065 35.62647700918495 16.620670744042638
    vertex 11.432374422482061 35.626477009184946 -1.6219699430765764
    vertex 11.609793598422625 35.52747284901363 -1.788647971010908
  endloop
endfacet
facet normal -0.4872456990252446 -0.8732649247401393 5.700149422765107e-16
  outer loop
    vertex 11.432374422482065 35.62647700918495 16.620670744042638
    vertex 11.609793598422625 35.52747284901363 -1.788647971010908
    vertex 11.609793598422645 35.527472849013634 16.78734877197699
  endloop
endfacet
facet normal -0.382683432365083 -0.9238795325112897 4.125458692594121e-16
  outer loop
    vertex 14.96286355352121 31.801120640339967 -2.500649599516933
    vertex 14.721682598623737 31.9010210628446 17.499350400483063
    vertex 14.721682598623728 31.901021062844595 -2.500649599516933
  endloop
endfacet
facet normal -0.382683432365083 -0.9238795325112897 4.125458692594121e-16
  outer loop
    vertex 14.721682598623737 31.9010210628446 17.499350400483063
    vertex 14.96286355352121 31.801120640339967 -2.500649599516933
    vertex 14.962863553521219 31.801120640339974 17.499350400483063
  endloop
endfacet
facet normal 0.9023967110526876 -0.43090622631994135 -4.218243098465772e-16
  outer loop
    vertex 22.528418160331192 36.02873833045534 -0.6486998966122068
    vertex 22.486804581655054 35.94159186043757 15.79842479143159
    vertex 22.486804581655075 35.94159186043756 -0.7997239904654432
  endloop
endfacet
facet normal 0.9023967110526876 -0.43090622631994135 -4.218243098465772e-16
  outer loop
    vertex 22.486804581655054 35.94159186043757 15.79842479143159
    vertex 22.528418160331192 36.02873833045534 -0.6486998966122068
    vertex 22.57087021610654 36.11764072538311 -0.38642172718260326
  endloop
endfacet
facet normal 0.9023967110526876 -0.43090622631994135 -4.218243098465772e-16
  outer loop
    vertex 22.486804581655054 35.94159186043757 15.79842479143159
    vertex 22.57087021610654 36.11764072538311 -0.38642172718260326
    vertex 22.57087021610659 36.11764072538311 15.385122528148697
  endloop
endfacet
facet normal 0.9023967110526876 -0.43090622631994135 -4.218243098465772e-16
  outer loop
    vertex 22.486804581655054 35.94159186043757 15.79842479143159
    vertex 22.57087021610659 36.11764072538311 15.385122528148697
    vertex 22.528418160331196 36.02873833045535 15.64740069757837
  endloop
endfacet
facet normal 0.2495374705127202 0.14831130994918035 0.9569403357322083
  outer loop
    vertex 20.085535482000722 35.85964631741865 17.441706241692735
    vertex 21.202850880474017 35.081244172220806 17.27098899801695
    vertex 20.615977829022665 36.06867268877471 17.270988998016904
  endloop
endfacet
facet normal 0.2495374705127202 0.14831130994918035 0.9569403357322083
  outer loop
    vertex 21.202850880474017 35.081244172220806 17.27098899801695
    vertex 20.085535482000722 35.85964631741865 17.441706241692735
    vertex 20.898970851356367 34.835442623557945 17.388326097606456
  endloop
endfacet
facet normal 0.2495374705127202 0.14831130994918035 0.9569403357322083
  outer loop
    vertex 20.898970851356367 34.835442623557945 17.388326097606456
    vertex 20.085535482000722 35.85964631741865 17.441706241692735
    vertex 20.76869621134424 34.710211386175324 17.441706241692803
  endloop
endfacet
facet normal -0.40522686360189814 0.2408444985993282 0.8819212643483583
  outer loop
    vertex 11.818494482925658 35.38634164293697 16.993759237390638
    vertex 12.562059592556146 36.17322788215127 17.120522634578574
    vertex 12.35167314148353 36.2834280069741 16.993759237390613
  endloop
endfacet
facet normal -0.40522686360189814 0.2408444985993282 0.8819212643483583
  outer loop
    vertex 12.562059592556146 36.17322788215127 17.120522634578574
    vertex 11.818494482925658 35.38634164293697 16.993759237390638
    vertex 12.827387368224814 36.06867268877471 17.270988998016872
  endloop
endfacet
facet normal -0.40522686360189814 0.2408444985993282 0.8819212643483583
  outer loop
    vertex 12.827387368224814 36.06867268877471 17.270988998016872
    vertex 11.818494482925658 35.38634164293697 16.993759237390638
    vertex 12.091900598046488 35.20145438255188 17.169875392339637
  endloop
endfacet
facet normal -0.40522686360189814 0.2408444985993282 0.8819212643483583
  outer loop
    vertex 12.827387368224814 36.06867268877471 17.270988998016872
    vertex 12.091900598046488 35.20145438255188 17.169875392339637
    vertex 12.24051431677347 35.081244172220806 17.270988998016836
  endloop
endfacet
facet normal 9.284482417380858e-32 -1.0 2.7117197376469447e-16
  outer loop
    vertex 18.22168259862374 31.767046466629036 -2.500649599516939
    vertex 15.221682598623737 31.76704646662904 17.499350400483063
    vertex 15.221682598623728 31.767046466629036 -2.500649599516933
  endloop
endfacet
facet normal 9.284482417380858e-32 -1.0 2.7117197376469447e-16
  outer loop
    vertex 15.221682598623737 31.76704646662904 17.499350400483063
    vertex 18.22168259862374 31.767046466629036 -2.500649599516939
    vertex 18.221682598623747 31.76704646662904 17.499350400483053
  endloop
endfacet
facet normal 0.33599195292126666 0.9418648563207745 -8.609395517311356e-16
  outer loop
    vertex 11.428586163058249 36.735786592938936 15.798947192832518
    vertex 11.614918055745678 36.66931631740478 -1.1673602985757396
    vertex 11.42858616305819 36.735786592938936 -0.8002463918664683
  endloop
endfacet
facet normal 0.33599195292126666 0.9418648563207745 -8.609395517311356e-16
  outer loop
    vertex 11.614918055745678 36.66931631740478 -1.1673602985757396
    vertex 11.428586163058249 36.735786592938936 15.798947192832518
    vertex 11.61491805574568 36.669316317404785 16.166061099541796
  endloop
endfacet
facet normal 0.7933533402912267 -0.6087614290087315 -1.7054854790651045e-16
  outer loop
    vertex 19.087708002408185 32.26704646662904 17.499350400483053
    vertex 18.928789379810283 32.059939685442494 -2.500649599516939
    vertex 19.087708002408178 32.26704646662903 -2.500649599516939
  endloop
endfacet
facet normal 0.7933533402912267 -0.6087614290087315 -1.7054854790651045e-16
  outer loop
    vertex 18.928789379810283 32.059939685442494 -2.500649599516939
    vertex 19.087708002408185 32.26704646662904 17.499350400483053
    vertex 18.92878937981029 32.059939685442494 17.499350400483053
  endloop
endfacet
facet normal -0.9238795325113066 -0.3826834323650421 4.944528511877828e-16
  outer loop
    vertex 14.355657194839297 32.26704646662904 17.499350400483063
    vertex 14.255756772334678 32.508227421526506 -2.500649599516933
    vertex 14.355657194839289 32.26704646662903 -2.500649599516933
  endloop
endfacet
facet normal -0.9238795325113066 -0.3826834323650421 4.944528511877828e-16
  outer loop
    vertex 14.255756772334678 32.508227421526506 -2.500649599516933
    vertex 14.355657194839297 32.26704646662904 17.499350400483063
    vertex 14.255756772334687 32.50822742152651 17.499350400483063
  endloop
endfacet
facet normal -0.8205280585597815 0.48761486461665043 0.2982707644423128
  outer loop
    vertex 10.914947036916283 36.02873833045535 15.647400697578313
    vertex 11.23376769447732 36.725491057782904 15.385416221900803
    vertex 10.872494981140916 36.11764072538311 15.385122528148676
  endloop
endfacet
facet normal -0.8205280585597815 0.48761486461665043 0.2982707644423128
  outer loop
    vertex 11.23376769447732 36.725491057782904 15.385416221900803
    vertex 10.914947036916283 36.02873833045535 15.647400697578313
    vertex 11.332148495957398 36.7306901695904 15.647400697578279
  endloop
endfacet
facet normal 0.9238795325113066 -0.3826834323650421 -2.8701145899777425e-16
  outer loop
    vertex 19.187608424912796 32.50822742152651 17.499350400483053
    vertex 19.087708002408178 32.26704646662903 -2.500649599516939
    vertex 19.18760842491279 32.508227421526506 -2.500649599516939
  endloop
endfacet
facet normal 0.9238795325113066 -0.3826834323650421 -2.8701145899777425e-16
  outer loop
    vertex 19.087708002408178 32.26704646662903 -2.500649599516939
    vertex 19.187608424912796 32.50822742152651 17.499350400483053
    vertex 19.087708002408185 32.26704646662904 17.499350400483053
  endloop
endfacet
facet normal -0.33599195292125744 0.941864856320778 4.497882381012816e-16
  outer loop
    vertex 21.828447141501805 36.669316317404785 16.166061099541896
    vertex 22.01477903418923 36.735786592938936 -0.800246391866474
    vertex 21.8284471415018 36.66931631740478 -1.1673602985757452
  endloop
endfacet
facet normal -0.33599195292125744 0.941864856320778 4.497882381012816e-16
  outer loop
    vertex 22.01477903418923 36.735786592938936 -0.800246391866474
    vertex 21.828447141501805 36.669316317404785 16.166061099541896
    vertex 22.014779034189303 36.735786592938936 15.798947192832586
  endloop
endfacet
facet normal 0.8205280585597687 0.4876148646166257 0.2982707644423883
  outer loop
    vertex 22.2095975027702 36.725491057782904 15.385416221900849
    vertex 22.528418160331196 36.02873833045535 15.64740069757837
    vertex 22.57087021610659 36.11764072538311 15.385122528148697
  endloop
endfacet
facet normal 0.8205280585597687 0.4876148646166257 0.2982707644423883
  outer loop
    vertex 22.528418160331196 36.02873833045535 15.64740069757837
    vertex 22.2095975027702 36.725491057782904 15.385416221900849
    vertex 22.11121670129008 36.7306901695904 15.647400697578346
  endloop
endfacet
facet normal 0.8596301839727423 0.5109167709157623 -2.0587946220086103e-15
  outer loop
    vertex 22.377228901170664 36.63642254545819 15.084621366531454
    vertex 22.572748284717573 36.30745631609084 -0.08592056556532658
    vertex 22.377228901170614 36.63642254545818 -0.08592056556532658
  endloop
endfacet
facet normal 0.8596301839727423 0.5109167709157623 -2.0587946220086103e-15
  outer loop
    vertex 22.572748284717573 36.30745631609084 -0.08592056556532658
    vertex 22.377228901170664 36.63642254545819 15.084621366531454
    vertex 22.57274828471759 36.30745631609085 15.0846213665315
  endloop
endfacet
facet normal 0.16018224300696673 0.987087457637497 -3.395616762705247e-16
  outer loop
    vertex 14.593089852791145 35.496217795406274 17.499350400483063
    vertex 15.65123566211255 35.32450436935262 -2.500649599516934
    vertex 14.593089852791136 35.49621779540627 -2.500649599516934
  endloop
endfacet
facet normal 0.16018224300696673 0.987087457637497 -3.395616762705247e-16
  outer loop
    vertex 15.65123566211255 35.32450436935262 -2.500649599516934
    vertex 14.593089852791145 35.496217795406274 17.499350400483063
    vertex 15.651235662112558 35.32450436935262 17.499350400483063
  endloop
endfacet
facet normal 0.8532867620441449 -0.5214419447265622 -2.192467962436337e-16
  outer loop
    vertex 19.751025852037422 33.525549982430924 17.499350400483053
    vertex 19.4475505826019 33.028943538250644 -2.5006495995169393
    vertex 19.751025852037415 33.525549982430924 -2.5006495995169393
  endloop
endfacet
facet normal 0.8532867620441449 -0.5214419447265622 -2.192467962436337e-16
  outer loop
    vertex 19.4475505826019 33.028943538250644 -2.5006495995169393
    vertex 19.751025852037422 33.525549982430924 17.499350400483053
    vertex 19.447550582601906 33.02894353825065 17.499350400483053
  endloop
endfacet
facet normal 1.0 -1.9229929719704898e-31 -4.229949723821847e-16
  outer loop
    vertex 15.096682598623737 34.26704646662904 17.499350400483063
    vertex 15.096682598623728 32.51704646662903 -2.500649599516933
    vertex 15.096682598623728 34.26704646662903 -2.5006495995169336
  endloop
endfacet
facet normal 1.0 -1.9229929719704898e-31 -4.229949723821847e-16
  outer loop
    vertex 15.096682598623728 32.51704646662903 -2.500649599516933
    vertex 15.096682598623737 34.26704646662904 17.499350400483063
    vertex 15.096682598623737 32.51704646662904 17.499350400483063
  endloop
endfacet
facet normal -0.05277317218830368 0.9986065252626702 -1.5652372964988575e-16
  outer loop
    vertex 11.23376769447732 36.725491057782904 15.385416221900803
    vertex 11.332148495957389 36.730690169590396 -0.6486998966122012
    vertex 11.233767694477285 36.725491057782904 -0.38671542093474265
  endloop
endfacet
facet normal -0.05277317218830368 0.9986065252626702 -1.5652372964988575e-16
  outer loop
    vertex 11.332148495957389 36.730690169590396 -0.6486998966122012
    vertex 11.23376769447732 36.725491057782904 15.385416221900803
    vertex 11.332148495957398 36.7306901695904 15.647400697578279
  endloop
endfacet
facet normal -0.05277317218830368 0.9986065252626702 -1.5652372964988575e-16
  outer loop
    vertex 11.332148495957389 36.730690169590396 -0.6486998966122012
    vertex 11.332148495957398 36.7306901695904 15.647400697578279
    vertex 11.42858616305819 36.735786592938936 -0.8002463918664683
  endloop
endfacet
facet normal -0.05277317218830368 0.9986065252626702 -1.5652372964988575e-16
  outer loop
    vertex 11.42858616305819 36.735786592938936 -0.8002463918664683
    vertex 11.332148495957398 36.7306901695904 15.647400697578279
    vertex 11.428586163058249 36.735786592938936 15.798947192832518
  endloop
endfacet
facet normal -0.8185408599001582 0.4864330841028836 -0.3055711297947935
  outer loop
    vertex 10.872494981140868 36.11764072538311 -0.3864217271825976
    vertex 11.332148495957389 36.730690169590396 -0.6486998966122012
    vertex 10.914947036916287 36.02873833045534 -0.6486998966122012
  endloop
endfacet
facet normal -0.8185408599001582 0.4864330841028836 -0.3055711297947935
  outer loop
    vertex 11.332148495957389 36.730690169590396 -0.6486998966122012
    vertex 10.872494981140868 36.11764072538311 -0.3864217271825976
    vertex 11.233767694477285 36.725491057782904 -0.38671542093474265
  endloop
endfacet
facet normal -0.8185408599001582 0.4864330841028836 -0.3055711297947935
  outer loop
    vertex 11.233767694477285 36.725491057782904 -0.38671542093474265
    vertex 10.872494981140868 36.11764072538311 -0.3864217271825976
    vertex 11.066136296076829 36.63642254545818 -0.08592056556532095
  endloop
endfacet
facet normal -0.8185408599001582 0.4864330841028836 -0.3055711297947935
  outer loop
    vertex 11.066136296076829 36.63642254545818 -0.08592056556532095
    vertex 10.872494981140868 36.11764072538311 -0.3864217271825976
    vertex 10.870616912529918 36.30745631609084 -0.08592056556532095
  endloop
endfacet
facet normal 0.3666220454422609 0.9303699671613077 -1.1039687544711657e-15
  outer loop
    vertex 12.827387368224814 36.06867268877471 17.270988998016872
    vertex 12.562059592556148 36.17322788215127 -2.1218218336124854
    vertex 12.562059592556146 36.17322788215127 17.120522634578574
  endloop
endfacet
facet normal 0.3666220454422609 0.9303699671613077 -1.1039687544711657e-15
  outer loop
    vertex 12.562059592556148 36.17322788215127 -2.1218218336124854
    vertex 12.827387368224814 36.06867268877471 17.270988998016872
    vertex 12.8273873682248 36.068672688774704 -2.272288197050793
  endloop
endfacet
facet normal 0.3666220454422609 0.9303699671613077 -1.1039687544711657e-15
  outer loop
    vertex 12.8273873682248 36.068672688774704 -2.272288197050793
    vertex 12.827387368224814 36.06867268877471 17.270988998016872
    vertex 13.35782971524674 35.859646317418644 -2.4430054407266226
  endloop
endfacet
facet normal 0.3666220454422609 0.9303699671613077 -1.1039687544711657e-15
  outer loop
    vertex 13.35782971524674 35.859646317418644 -2.4430054407266226
    vertex 12.827387368224814 36.06867268877471 17.270988998016872
    vertex 13.357829715246828 35.85964631741865 17.44170624169271
  endloop
endfacet
facet normal 0.3666220454422609 0.9303699671613077 -1.1039687544711657e-15
  outer loop
    vertex 13.35782971524674 35.859646317418644 -2.4430054407266226
    vertex 13.357829715246828 35.85964631741865 17.44170624169271
    vertex 13.559404938455353 35.7802134861239 -2.464069177836959
  endloop
endfacet
facet normal 0.3666220454422609 0.9303699671613077 -1.1039687544711657e-15
  outer loop
    vertex 13.559404938455353 35.7802134861239 -2.464069177836959
    vertex 13.357829715246828 35.85964631741865 17.44170624169271
    vertex 13.559404938455435 35.780213486123905 17.46276997880305
  endloop
endfacet
facet normal -0.26492434394297115 0.964269200994404 2.5023579070163815e-16
  outer loop
    vertex 18.85027534445634 35.496217795406274 17.499350400483053
    vertex 19.512553004624646 35.67817266283048 -2.5006495995169398
    vertex 18.850275344456332 35.49621779540627 -2.5006495995169398
  endloop
endfacet
facet normal -0.26492434394297115 0.964269200994404 2.5023579070163815e-16
  outer loop
    vertex 19.512553004624646 35.67817266283048 -2.5006495995169398
    vertex 18.85027534445634 35.496217795406274 17.499350400483053
    vertex 19.512553004624728 35.678172662830484 17.499350400483085
  endloop
endfacet
facet normal -0.26492434394297115 0.964269200994404 2.5023579070163815e-16
  outer loop
    vertex 19.512553004624646 35.67817266283048 -2.5006495995169398
    vertex 19.512553004624728 35.678172662830484 17.499350400483085
    vertex 19.88396025879206 35.7802134861239 -2.4640691778369646
  endloop
endfacet
facet normal -0.26492434394297115 0.964269200994404 2.5023579070163815e-16
  outer loop
    vertex 19.88396025879206 35.7802134861239 -2.4640691778369646
    vertex 19.512553004624728 35.678172662830484 17.499350400483085
    vertex 19.883960258792087 35.780213486123905 17.46276997880306
  endloop
endfacet
facet normal -0.859630183972768 0.5109167709157186 1.1358247194613947e-15
  outer loop
    vertex 10.87061691252993 36.30745631609085 15.084621366531366
    vertex 11.066136296076829 36.63642254545818 -0.08592056556532095
    vertex 10.870616912529918 36.30745631609084 -0.08592056556532095
  endloop
endfacet
facet normal -0.859630183972768 0.5109167709157186 1.1358247194613947e-15
  outer loop
    vertex 11.066136296076829 36.63642254545818 -0.08592056556532095
    vertex 10.87061691252993 36.30745631609085 15.084621366531366
    vertex 11.06613629607686 36.63642254545819 15.084621366531387
  endloop
endfacet
facet normal 0.05359939492362738 0.9985625192564667 -3.022951696454487e-16
  outer loop
    vertex 15.651235662112558 35.32450436935262 17.499350400483063
    vertex 16.72168259862373 35.26704646662903 -2.500649599516934
    vertex 15.65123566211255 35.32450436935262 -2.500649599516934
  endloop
endfacet
facet normal 0.05359939492362738 0.9985625192564667 -3.022951696454487e-16
  outer loop
    vertex 16.72168259862373 35.26704646662903 -2.500649599516934
    vertex 15.651235662112558 35.32450436935262 17.499350400483063
    vertex 16.72168259862374 35.26704646662904 17.499350400483063
  endloop
endfacet
facet normal 0.6667531082419655 -0.7452786677811715 -1.5342018980572533e-16
  outer loop
    vertex 22.486804581655075 35.94159186043756 -0.7997239904654432
    vertex 22.339363912417518 35.809686133431995 16.16606109954185
    vertex 22.339363912417483 35.80968613343199 -1.167360298575745
  endloop
endfacet
facet normal 0.6667531082419655 -0.7452786677811715 -1.5342018980572533e-16
  outer loop
    vertex 22.339363912417518 35.809686133431995 16.16606109954185
    vertex 22.486804581655075 35.94159186043756 -0.7997239904654432
    vertex 22.486804581655054 35.94159186043757 15.79842479143159
  endloop
endfacet
facet normal -0.76009684454976 0.4516181079660028 0.46721929697167497
  outer loop
    vertex 11.104001284829987 35.809686133431995 16.166061099541782
    vertex 11.428586163058249 36.735786592938936 15.798947192832518
    vertex 10.956560615592396 35.94159186043757 15.798424791431522
  endloop
endfacet
facet normal -0.76009684454976 0.4516181079660028 0.46721929697167497
  outer loop
    vertex 11.428586163058249 36.735786592938936 15.798947192832518
    vertex 11.104001284829987 35.809686133431995 16.166061099541782
    vertex 11.61491805574568 36.669316317404785 16.166061099541796
  endloop
endfacet
facet normal -0.662500804468947 0.39375393984424734 0.6372209341626582
  outer loop
    vertex 11.432374422482065 35.62647700918495 16.620670744042638
    vertex 11.61491805574568 36.669316317404785 16.166061099541796
    vertex 11.104001284829987 35.809686133431995 16.166061099541782
  endloop
endfacet
facet normal -0.662500804468947 0.39375393984424734 0.6372209341626582
  outer loop
    vertex 11.61491805574568 36.669316317404785 16.166061099541796
    vertex 11.432374422482065 35.62647700918495 16.620670744042638
    vertex 11.948400395982196 36.49470355367595 16.62067074404266
  endloop
endfacet
facet normal -0.08425849237399968 0.05007860083157756 0.9951847266721954
  outer loop
    vertex 12.674668985903274 34.710211386175324 17.4417062416927
    vertex 13.559404938455435 35.780213486123905 17.46276997880305
    vertex 13.357829715246828 35.85964631741865 17.44170624169271
  endloop
endfacet
facet normal -0.08425849237399968 0.05007860083157756 0.9951847266721954
  outer loop
    vertex 13.559404938455435 35.780213486123905 17.46276997880305
    vertex 12.674668985903274 34.710211386175324 17.4417062416927
    vertex 13.930812192622826 35.678172662830484 17.499350400483017
  endloop
endfacet
facet normal -0.08425849237399968 0.05007860083157756 0.9951847266721954
  outer loop
    vertex 13.930812192622826 35.678172662830484 17.499350400483017
    vertex 12.674668985903274 34.710211386175324 17.4417062416927
    vertex 12.963966578268701 34.4321135502468 17.4801941007516
  endloop
endfacet
facet normal -0.08425849237399968 0.05007860083157756 0.9951847266721954
  outer loop
    vertex 13.930812192622826 35.678172662830484 17.499350400483017
    vertex 12.963966578268701 34.4321135502468 17.4801941007516
    vertex 13.098788281304262 34.278271722654644 17.499350400483028
  endloop
endfacet
facet normal 0.46921410746817765 0.8830844361400791 -1.5276801884141732e-15
  outer loop
    vertex 22.2095975027702 36.725491057782904 15.385416221900849
    vertex 22.377228901170614 36.63642254545818 -0.08592056556532658
    vertex 22.209597502770166 36.725491057782904 -0.38671542093474826
  endloop
endfacet
facet normal 0.46921410746817765 0.8830844361400791 -1.5276801884141732e-15
  outer loop
    vertex 22.377228901170614 36.63642254545818 -0.08592056556532658
    vertex 22.2095975027702 36.725491057782904 15.385416221900849
    vertex 22.377228901170664 36.63642254545819 15.084621366531454
  endloop
endfacet
facet normal -1.0 1.922992971970481e-31 4.2299497238218485e-16
  outer loop
    vertex 18.346682598623747 32.51704646662904 17.499350400483053
    vertex 18.34668259862374 34.26704646662903 -2.5006495995169393
    vertex 18.34668259862374 32.51704646662903 -2.500649599516939
  endloop
endfacet
facet normal -1.0 1.922992971970481e-31 4.2299497238218485e-16
  outer loop
    vertex 18.34668259862374 34.26704646662903 -2.5006495995169393
    vertex 18.346682598623747 32.51704646662904 17.499350400483053
    vertex 18.346682598623747 34.26704646662904 17.499350400483053
  endloop
endfacet
facet normal -0.6288943535912868 -0.7774907665181613 9.594423693758874e-16
  outer loop
    vertex 12.240514316773451 35.0812441722208 -2.2722881970507927
    vertex 12.091900598046488 35.20145438255188 17.169875392339637
    vertex 12.09190059804644 35.20145438255187 -2.1711745913735774
  endloop
endfacet
facet normal -0.6288943535912868 -0.7774907665181613 9.594423693758874e-16
  outer loop
    vertex 12.091900598046488 35.20145438255188 17.169875392339637
    vertex 12.240514316773451 35.0812441722208 -2.2722881970507927
    vertex 12.24051431677347 35.081244172220806 17.270988998016836
  endloop
endfacet
facet normal -0.6288943535912868 -0.7774907665181613 9.594423693758874e-16
  outer loop
    vertex 12.24051431677347 35.081244172220806 17.270988998016836
    vertex 12.240514316773451 35.0812441722208 -2.2722881970507927
    vertex 12.544394345891101 34.83544262355794 -2.3896252966403435
  endloop
endfacet
facet normal -0.6288943535912868 -0.7774907665181613 9.594423693758874e-16
  outer loop
    vertex 12.24051431677347 35.081244172220806 17.270988998016836
    vertex 12.544394345891101 34.83544262355794 -2.3896252966403435
    vertex 12.544394345891105 34.835442623557945 17.388326097606434
  endloop
endfacet
facet normal -0.8168800162183786 0.48539197434979714 0.3116114091939951
  outer loop
    vertex 10.872494981140916 36.11764072538311 15.385122528148676
    vertex 11.06613629607686 36.63642254545819 15.084621366531387
    vertex 10.87061691252993 36.30745631609085 15.084621366531366
  endloop
endfacet
facet normal -0.8168800162183786 0.48539197434979714 0.3116114091939951
  outer loop
    vertex 11.06613629607686 36.63642254545819 15.084621366531387
    vertex 10.872494981140916 36.11764072538311 15.385122528148676
    vertex 11.23376769447732 36.725491057782904 15.385416221900803
  endloop
endfacet
facet normal 0.6625008044689258 0.39375393984424967 0.6372209341626789
  outer loop
    vertex 21.828447141501805 36.669316317404785 16.166061099541896
    vertex 22.010990774765435 35.62647700918495 16.620670744042716
    vertex 22.339363912417518 35.809686133431995 16.16606109954185
  endloop
endfacet
facet normal 0.6625008044689258 0.39375393984424967 0.6372209341626789
  outer loop
    vertex 22.010990774765435 35.62647700918495 16.620670744042716
    vertex 21.828447141501805 36.669316317404785 16.166061099541896
    vertex 21.49496480126531 36.49470355367595 16.620670744042684
  endloop
endfacet
facet normal 0.2649243439429701 0.9642692009944045 -9.471253255544753e-16
  outer loop
    vertex 13.559404938455435 35.780213486123905 17.46276997880305
    vertex 13.93081219262276 35.67817266283048 -2.500649599516934
    vertex 13.559404938455353 35.7802134861239 -2.464069177836959
  endloop
endfacet
facet normal 0.2649243439429701 0.9642692009944045 -9.471253255544753e-16
  outer loop
    vertex 13.93081219262276 35.67817266283048 -2.500649599516934
    vertex 13.559404938455435 35.780213486123905 17.46276997880305
    vertex 13.930812192622826 35.678172662830484 17.499350400483017
  endloop
endfacet
facet normal 0.2649243439429701 0.9642692009944045 -9.471253255544753e-16
  outer loop
    vertex 13.93081219262276 35.67817266283048 -2.500649599516934
    vertex 13.930812192622826 35.678172662830484 17.499350400483017
    vertex 14.593089852791136 35.49621779540627 -2.500649599516934
  endloop
endfacet
facet normal 0.2649243439429701 0.9642692009944045 -9.471253255544753e-16
  outer loop
    vertex 14.593089852791136 35.49621779540627 -2.500649599516934
    vertex 13.930812192622826 35.678172662830484 17.499350400483017
    vertex 14.593089852791145 35.496217795406274 17.499350400483063
  endloop
endfacet
facet normal -0.24953747051275108 0.14831130994915906 0.9569403357322036
  outer loop
    vertex 12.24051431677347 35.081244172220806 17.270988998016836
    vertex 13.357829715246828 35.85964631741865 17.44170624169271
    vertex 12.827387368224814 36.06867268877471 17.270988998016872
  endloop
endfacet
facet normal -0.24953747051275108 0.14831130994915906 0.9569403357322036
  outer loop
    vertex 13.357829715246828 35.85964631741865 17.44170624169271
    vertex 12.24051431677347 35.081244172220806 17.270988998016836
    vertex 12.544394345891105 34.835442623557945 17.388326097606434
  endloop
endfacet
facet normal -0.24953747051275108 0.14831130994915906 0.9569403357322036
  outer loop
    vertex 13.357829715246828 35.85964631741865 17.44170624169271
    vertex 12.544394345891105 34.835442623557945 17.388326097606434
    vertex 12.674668985903274 34.710211386175324 17.4417062416927
  endloop
endfacet
facet normal -9.405018734724039e-32 1.0 -2.7117197376469447e-16
  outer loop
    vertex 15.096682598623737 32.51704646662904 17.499350400483063
    vertex 18.34668259862374 32.51704646662903 -2.500649599516939
    vertex 15.096682598623728 32.51704646662903 -2.500649599516933
  endloop
endfacet
facet normal -9.405018734724039e-32 1.0 -2.7117197376469447e-16
  outer loop
    vertex 18.34668259862374 32.51704646662903 -2.500649599516939
    vertex 15.096682598623737 32.51704646662904 17.499350400483063
    vertex 18.346682598623747 32.51704646662904 17.499350400483053
  endloop
endfacet
facet normal 0.4052268636018885 0.24084449859932663 0.8819212643483633
  outer loop
    vertex 20.881305604691303 36.17322788215127 17.12052263457863
    vertex 21.62487071432174 35.38634164293697 16.993759237390694
    vertex 21.091692055764007 36.2834280069741 16.993759237390737
  endloop
endfacet
facet normal 0.4052268636018885 0.24084449859932663 0.8819212643483633
  outer loop
    vertex 21.62487071432174 35.38634164293697 16.993759237390694
    vertex 20.881305604691303 36.17322788215127 17.12052263457863
    vertex 20.615977829022665 36.06867268877471 17.270988998016904
  endloop
endfacet
facet normal 0.4052268636018885 0.24084449859932663 0.8819212643483633
  outer loop
    vertex 21.62487071432174 35.38634164293697 16.993759237390694
    vertex 20.615977829022665 36.06867268877471 17.270988998016904
    vertex 21.351464599201023 35.20145438255188 17.169875392339716
  endloop
endfacet
facet normal 0.4052268636018885 0.24084449859932663 0.8819212643483633
  outer loop
    vertex 21.351464599201023 35.20145438255188 17.169875392339716
    vertex 20.615977829022665 36.06867268877471 17.270988998016904
    vertex 21.202850880474017 35.081244172220806 17.27098899801695
  endloop
endfacet
facet normal 0.46399362126708904 0.8858385402676118 -8.890881172362459e-16
  outer loop
    vertex 11.61491805574568 36.669316317404785 16.166061099541796
    vertex 11.94840039598217 36.49470355367594 -1.6219699430765764
    vertex 11.614918055745678 36.66931631740478 -1.1673602985757396
  endloop
endfacet
facet normal 0.46399362126708904 0.8858385402676118 -8.890881172362459e-16
  outer loop
    vertex 11.94840039598217 36.49470355367594 -1.6219699430765764
    vertex 11.61491805574568 36.669316317404785 16.166061099541796
    vertex 11.948400395982196 36.49470355367595 16.62067074404266
  endloop
endfacet
facet normal 0.46399362126708904 0.8858385402676118 -8.890881172362459e-16
  outer loop
    vertex 11.94840039598217 36.49470355367594 -1.6219699430765764
    vertex 11.948400395982196 36.49470355367595 16.62067074404266
    vertex 12.351673141483454 36.2834280069741 -1.9950584364245705
  endloop
endfacet
facet normal 0.46399362126708904 0.8858385402676118 -8.890881172362459e-16
  outer loop
    vertex 12.351673141483454 36.2834280069741 -1.9950584364245705
    vertex 11.948400395982196 36.49470355367595 16.62067074404266
    vertex 12.35167314148353 36.2834280069741 16.993759237390613
  endloop
endfacet
facet normal 0.46399362126708904 0.8858385402676118 -8.890881172362459e-16
  outer loop
    vertex 12.351673141483454 36.2834280069741 -1.9950584364245705
    vertex 12.35167314148353 36.2834280069741 16.993759237390613
    vertex 12.562059592556148 36.17322788215127 -2.1218218336124854
  endloop
endfacet
facet normal 0.46399362126708904 0.8858385402676118 -8.890881172362459e-16
  outer loop
    vertex 12.562059592556148 36.17322788215127 -2.1218218336124854
    vertex 12.35167314148353 36.2834280069741 16.993759237390613
    vertex 12.562059592556146 36.17322788215127 17.120522634578574
  endloop
endfacet
facet normal 0.5601764634225149 -0.8283733034251187 5.812323152908703e-16
  outer loop
    vertex 21.624870714321805 35.38634164293696 -1.9950584364245758
    vertex 21.351464599201023 35.20145438255188 17.169875392339716
    vertex 21.35146459920099 35.20145438255187 -2.1711745913735827
  endloop
endfacet
facet normal 0.5601764634225149 -0.8283733034251187 5.812323152908703e-16
  outer loop
    vertex 21.351464599201023 35.20145438255188 17.169875392339716
    vertex 21.624870714321805 35.38634164293696 -1.9950584364245758
    vertex 21.62487071432174 35.38634164293697 16.993759237390694
  endloop
endfacet
facet normal 0.5601764634225149 -0.8283733034251187 5.812323152908703e-16
  outer loop
    vertex 21.62487071432174 35.38634164293697 16.993759237390694
    vertex 21.624870714321805 35.38634164293696 -1.9950584364245758
    vertex 21.833571598824832 35.527472849013634 16.787348771977058
  endloop
endfacet
facet normal 0.5601764634225149 -0.8283733034251187 5.812323152908703e-16
  outer loop
    vertex 21.833571598824832 35.527472849013634 16.787348771977058
    vertex 21.624870714321805 35.38634164293696 -1.9950584364245758
    vertex 21.833571598824836 35.52747284901363 -1.7886479710109136
  endloop
endfacet
facet normal -0.5453436155766638 0.32412216823551954 0.7730104533627459
  outer loop
    vertex 11.432374422482065 35.62647700918495 16.620670744042638
    vertex 12.35167314148353 36.2834280069741 16.993759237390613
    vertex 11.948400395982196 36.49470355367595 16.62067074404266
  endloop
endfacet
facet normal -0.5453436155766638 0.32412216823551954 0.7730104533627459
  outer loop
    vertex 12.35167314148353 36.2834280069741 16.993759237390613
    vertex 11.432374422482065 35.62647700918495 16.620670744042638
    vertex 11.609793598422645 35.527472849013634 16.78734877197699
  endloop
endfacet
facet normal -0.5453436155766638 0.32412216823551954 0.7730104533627459
  outer loop
    vertex 12.35167314148353 36.2834280069741 16.993759237390613
    vertex 11.609793598422645 35.527472849013634 16.78734877197699
    vertex 11.818494482925658 35.38634164293697 16.993759237390638
  endloop
endfacet
facet normal -0.5601764634225119 -0.8283733034251208 3.1180003599745097e-16
  outer loop
    vertex 11.818494482925718 35.38634164293696 -1.99505843642457
    vertex 11.609793598422645 35.527472849013634 16.78734877197699
    vertex 11.609793598422625 35.52747284901363 -1.788647971010908
  endloop
endfacet
facet normal -0.5601764634225119 -0.8283733034251208 3.1180003599745097e-16
  outer loop
    vertex 11.609793598422645 35.527472849013634 16.78734877197699
    vertex 11.818494482925718 35.38634164293696 -1.99505843642457
    vertex 11.818494482925658 35.38634164293697 16.993759237390638
  endloop
endfacet
facet normal -0.5601764634225119 -0.8283733034251208 3.1180003599745097e-16
  outer loop
    vertex 11.818494482925658 35.38634164293697 16.993759237390638
    vertex 11.818494482925718 35.38634164293696 -1.99505843642457
    vertex 12.091900598046488 35.20145438255188 17.169875392339637
  endloop
endfacet
facet normal -0.5601764634225119 -0.8283733034251208 3.1180003599745097e-16
  outer loop
    vertex 12.091900598046488 35.20145438255188 17.169875392339637
    vertex 11.818494482925718 35.38634164293696 -1.99505843642457
    vertex 12.09190059804644 35.20145438255187 -2.1711745913735774
  endloop
endfacet
facet normal -1.2249702015486687e-15 1.6013830034980354e-16 1.0
  outer loop
    vertex 13.347549726649348 33.994415974472474 17.499350400483063
    vertex 15.096682598623737 34.26704646662904 17.499350400483063
    vertex 13.098788281304262 34.278271722654644 17.499350400483028
  endloop
endfacet
facet normal -1.2249702015486687e-15 1.6013830034980354e-16 1.0
  outer loop
    vertex 15.096682598623737 34.26704646662904 17.499350400483063
    vertex 13.347549726649348 33.994415974472474 17.499350400483063
    vertex 15.096682598623737 32.51704646662904 17.499350400483063
  endloop
endfacet
facet normal -1.2249702015486687e-15 1.6013830034980354e-16 1.0
  outer loop
    vertex 15.096682598623737 32.51704646662904 17.499350400483063
    vertex 13.347549726649348 33.994415974472474 17.499350400483063
    vertex 13.69233934521006 33.525549982430924 17.499350400483063
  endloop
endfacet
facet normal -1.2249702015486687e-15 1.6013830034980354e-16 1.0
  outer loop
    vertex 15.096682598623737 32.51704646662904 17.499350400483063
    vertex 13.69233934521006 33.525549982430924 17.499350400483063
    vertex 13.995814614645576 33.02894353825065 17.499350400483063
  endloop
endfacet
facet normal -1.2249702015486687e-15 1.6013830034980354e-16 1.0
  outer loop
    vertex 15.096682598623737 32.51704646662904 17.499350400483063
    vertex 13.995814614645576 33.02894353825065 17.499350400483063
    vertex 14.255756772334687 32.50822742152651 17.499350400483063
  endloop
endfacet
facet normal -1.2249702015486687e-15 1.6013830034980354e-16 1.0
  outer loop
    vertex 15.096682598623737 32.51704646662904 17.499350400483063
    vertex 14.255756772334687 32.50822742152651 17.499350400483063
    vertex 18.346682598623747 32.51704646662904 17.499350400483053
  endloop
endfacet
facet normal -1.2249702015486687e-15 1.6013830034980354e-16 1.0
  outer loop
    vertex 13.098788281304262 34.278271722654644 17.499350400483028
    vertex 14.593089852791145 35.496217795406274 17.499350400483063
    vertex 13.930812192622826 35.678172662830484 17.499350400483017
  endloop
endfacet
facet normal -1.2249702015486687e-15 1.6013830034980354e-16 1.0
  outer loop
    vertex 14.593089852791145 35.496217795406274 17.499350400483063
    vertex 13.098788281304262 34.278271722654644 17.499350400483028
    vertex 15.651235662112558 35.32450436935262 17.499350400483063
  endloop
endfacet
facet normal -1.2249702015486687e-15 1.6013830034980354e-16 1.0
  outer loop
    vertex 15.651235662112558 35.32450436935262 17.499350400483063
    vertex 13.098788281304262 34.278271722654644 17.499350400483028
    vertex 16.72168259862374 35.26704646662904 17.499350400483063
  endloop
endfacet
facet normal -1.2249702015486687e-15 1.6013830034980354e-16 1.0
  outer loop
    vertex 16.72168259862374 35.26704646662904 17.499350400483063
    vertex 13.098788281304262 34.278271722654644 17.499350400483028
    vertex 20.34457691594324 34.27827172265466 17.49935040048311
  endloop
endfacet
facet normal -1.2249702015486687e-15 1.6013830034980354e-16 1.0
  outer loop
    vertex 20.34457691594324 34.27827172265466 17.49935040048311
    vertex 13.098788281304262 34.278271722654644 17.499350400483028
    vertex 18.346682598623747 34.26704646662904 17.499350400483053
  endloop
endfacet
facet normal -1.2249702015486687e-15 1.6013830034980354e-16 1.0
  outer loop
    vertex 20.34457691594324 34.27827172265466 17.49935040048311
    vertex 18.346682598623747 34.26704646662904 17.499350400483053
    vertex 20.095815470598136 33.994415974472474 17.499350400483053
  endloop
endfacet
facet normal -1.2249702015486687e-15 1.6013830034980354e-16 1.0
  outer loop
    vertex 18.346682598623747 34.26704646662904 17.499350400483053
    vertex 13.098788281304262 34.278271722654644 17.499350400483028
    vertex 15.096682598623737 34.26704646662904 17.499350400483063
  endloop
endfacet
facet normal -1.2249702015486687e-15 1.6013830034980354e-16 1.0
  outer loop
    vertex 20.095815470598136 33.994415974472474 17.499350400483053
    vertex 18.346682598623747 34.26704646662904 17.499350400483053
    vertex 18.346682598623747 32.51704646662904 17.499350400483053
  endloop
endfacet
facet normal -1.2249702015486687e-15 1.6013830034980354e-16 1.0
  outer loop
    vertex 20.095815470598136 33.994415974472474 17.499350400483053
    vertex 18.346682598623747 32.51704646662904 17.499350400483053
    vertex 19.751025852037422 33.525549982430924 17.499350400483053
  endloop
endfacet
facet normal -1.2249702015486687e-15 1.6013830034980354e-16 1.0
  outer loop
    vertex 19.751025852037422 33.525549982430924 17.499350400483053
    vertex 18.346682598623747 32.51704646662904 17.499350400483053
    vertex 19.447550582601906 33.02894353825065 17.499350400483053
  endloop
endfacet
facet normal -1.2249702015486687e-15 1.6013830034980354e-16 1.0
  outer loop
    vertex 19.447550582601906 33.02894353825065 17.499350400483053
    vertex 18.346682598623747 32.51704646662904 17.499350400483053
    vertex 19.187608424912796 32.50822742152651 17.499350400483053
  endloop
endfacet
facet normal -1.2249702015486687e-15 1.6013830034980354e-16 1.0
  outer loop
    vertex 19.187608424912796 32.50822742152651 17.499350400483053
    vertex 18.346682598623747 32.51704646662904 17.499350400483053
    vertex 14.255756772334687 32.50822742152651 17.499350400483063
  endloop
endfacet
facet normal -1.2249702015486687e-15 1.6013830034980354e-16 1.0
  outer loop
    vertex 19.187608424912796 32.50822742152651 17.499350400483053
    vertex 14.255756772334687 32.50822742152651 17.499350400483063
    vertex 14.355657194839297 32.26704646662904 17.499350400483063
  endloop
endfacet
facet normal -1.2249702015486687e-15 1.6013830034980354e-16 1.0
  outer loop
    vertex 19.187608424912796 32.50822742152651 17.499350400483053
    vertex 14.355657194839297 32.26704646662904 17.499350400483063
    vertex 19.087708002408185 32.26704646662904 17.499350400483053
  endloop
endfacet
facet normal -1.2249702015486687e-15 1.6013830034980354e-16 1.0
  outer loop
    vertex 19.087708002408185 32.26704646662904 17.499350400483053
    vertex 14.355657194839297 32.26704646662904 17.499350400483063
    vertex 14.514575817437192 32.059939685442494 17.499350400483063
  endloop
endfacet
facet normal -1.2249702015486687e-15 1.6013830034980354e-16 1.0
  outer loop
    vertex 19.087708002408185 32.26704646662904 17.499350400483053
    vertex 14.514575817437192 32.059939685442494 17.499350400483063
    vertex 18.92878937981029 32.059939685442494 17.499350400483053
  endloop
endfacet
facet normal -1.2249702015486687e-15 1.6013830034980354e-16 1.0
  outer loop
    vertex 18.92878937981029 32.059939685442494 17.499350400483053
    vertex 14.514575817437192 32.059939685442494 17.499350400483063
    vertex 14.721682598623737 31.9010210628446 17.499350400483063
  endloop
endfacet
facet normal -1.2249702015486687e-15 1.6013830034980354e-16 1.0
  outer loop
    vertex 18.92878937981029 32.059939685442494 17.499350400483053
    vertex 14.721682598623737 31.9010210628446 17.499350400483063
    vertex 18.721682598623747 31.9010210628446 17.499350400483053
  endloop
endfacet
facet normal -1.2249702015486687e-15 1.6013830034980354e-16 1.0
  outer loop
    vertex 18.721682598623747 31.9010210628446 17.499350400483053
    vertex 14.721682598623737 31.9010210628446 17.499350400483063
    vertex 14.962863553521219 31.801120640339974 17.499350400483063
  endloop
endfacet
facet normal -1.2249702015486687e-15 1.6013830034980354e-16 1.0
  outer loop
    vertex 18.721682598623747 31.9010210628446 17.499350400483053
    vertex 14.962863553521219 31.801120640339974 17.499350400483063
    vertex 18.480501643726264 31.801120640339974 17.499350400483053
  endloop
endfacet
facet normal -1.2249702015486687e-15 1.6013830034980354e-16 1.0
  outer loop
    vertex 18.480501643726264 31.801120640339974 17.499350400483053
    vertex 14.962863553521219 31.801120640339974 17.499350400483063
    vertex 15.221682598623737 31.76704646662904 17.499350400483063
  endloop
endfacet
facet normal -1.2249702015486687e-15 1.6013830034980354e-16 1.0
  outer loop
    vertex 18.480501643726264 31.801120640339974 17.499350400483053
    vertex 15.221682598623737 31.76704646662904 17.499350400483063
    vertex 18.221682598623747 31.76704646662904 17.499350400483053
  endloop
endfacet
facet normal -1.2249702015486687e-15 1.6013830034980354e-16 1.0
  outer loop
    vertex 18.85027534445634 35.496217795406274 17.499350400483053
    vertex 20.34457691594324 34.27827172265466 17.49935040048311
    vertex 19.512553004624728 35.678172662830484 17.499350400483085
  endloop
endfacet
facet normal -1.2249702015486687e-15 1.6013830034980354e-16 1.0
  outer loop
    vertex 20.34457691594324 34.27827172265466 17.49935040048311
    vertex 18.85027534445634 35.496217795406274 17.499350400483053
    vertex 17.792129535134926 35.32450436935262 17.499350400483053
  endloop
endfacet
facet normal -1.2249702015486687e-15 1.6013830034980354e-16 1.0
  outer loop
    vertex 20.34457691594324 34.27827172265466 17.49935040048311
    vertex 17.792129535134926 35.32450436935262 17.499350400483053
    vertex 16.72168259862374 35.26704646662904 17.499350400483063
  endloop
endfacet
facet normal 0.4872456990252386 -0.8732649247401425 -2.3232749908759335e-16
  outer loop
    vertex 21.833571598824836 35.52747284901363 -1.7886479710109136
    vertex 22.010990774765435 35.62647700918495 16.620670744042716
    vertex 21.833571598824832 35.527472849013634 16.787348771977058
  endloop
endfacet
facet normal 0.4872456990252386 -0.8732649247401425 -2.3232749908759335e-16
  outer loop
    vertex 22.010990774765435 35.62647700918495 16.620670744042716
    vertex 21.833571598824836 35.52747284901363 -1.7886479710109136
    vertex 22.010990774765418 35.626477009184946 -1.6219699430765822
  endloop
endfacet
facet normal 0.4872456990252386 -0.8732649247401425 -2.3232749908759335e-16
  outer loop
    vertex 22.010990774765435 35.62647700918495 16.620670744042716
    vertex 22.010990774765418 35.626477009184946 -1.6219699430765822
    vertex 22.339363912417483 35.80968613343199 -1.167360298575745
  endloop
endfacet
facet normal 0.4872456990252386 -0.8732649247401425 -2.3232749908759335e-16
  outer loop
    vertex 22.010990774765435 35.62647700918495 16.620670744042716
    vertex 22.339363912417483 35.80968613343199 -1.167360298575745
    vertex 22.339363912417518 35.809686133431995 16.16606109954185
  endloop
endfacet
facet normal -0.7520674601867803 -0.6590861365012965 4.857082433040377e-16
  outer loop
    vertex 13.347549726649348 33.994415974472474 17.499350400483063
    vertex 13.098788281304254 34.27827172265464 -2.5006495995169336
    vertex 13.347549726649339 33.994415974472474 -2.5006495995169336
  endloop
endfacet
facet normal -0.7520674601867803 -0.6590861365012965 4.857082433040377e-16
  outer loop
    vertex 13.098788281304254 34.27827172265464 -2.5006495995169336
    vertex 13.347549726649348 33.994415974472474 17.499350400483063
    vertex 12.963966578268693 34.43211355024679 -2.4814932997855212
  endloop
endfacet
facet normal -0.7520674601867803 -0.6590861365012965 4.857082433040377e-16
  outer loop
    vertex 12.963966578268693 34.43211355024679 -2.4814932997855212
    vertex 13.347549726649348 33.994415974472474 17.499350400483063
    vertex 12.963966578268701 34.4321135502468 17.4801941007516
  endloop
endfacet
facet normal -0.7520674601867803 -0.6590861365012965 4.857082433040377e-16
  outer loop
    vertex 12.963966578268701 34.4321135502468 17.4801941007516
    vertex 13.347549726649348 33.994415974472474 17.499350400483063
    vertex 13.098788281304262 34.278271722654644 17.499350400483028
  endloop
endfacet
facet normal 9.405018734724033e-32 -1.0 2.7117197376469447e-16
  outer loop
    vertex 18.34668259862374 34.26704646662903 -2.5006495995169393
    vertex 15.096682598623737 34.26704646662904 17.499350400483063
    vertex 15.096682598623728 34.26704646662903 -2.5006495995169336
  endloop
endfacet
facet normal 9.405018734724033e-32 -1.0 2.7117197376469447e-16
  outer loop
    vertex 15.096682598623737 34.26704646662904 17.499350400483063
    vertex 18.34668259862374 34.26704646662903 -2.5006495995169393
    vertex 18.346682598623747 34.26704646662904 17.499350400483053
  endloop
endfacet
facet normal 0.05277317218830412 0.99860652526267 -3.6201506548710057e-16
  outer loop
    vertex 22.014779034189303 36.735786592938936 15.798947192832586
    vertex 22.11121670129011 36.730690169590396 -0.6486998966122068
    vertex 22.01477903418923 36.735786592938936 -0.800246391866474
  endloop
endfacet
facet normal 0.05277317218830412 0.99860652526267 -3.6201506548710057e-16
  outer loop
    vertex 22.11121670129011 36.730690169590396 -0.6486998966122068
    vertex 22.014779034189303 36.735786592938936 15.798947192832586
    vertex 22.11121670129008 36.7306901695904 15.647400697578346
  endloop
endfacet
facet normal 0.05277317218830412 0.99860652526267 -3.6201506548710057e-16
  outer loop
    vertex 22.11121670129011 36.730690169590396 -0.6486998966122068
    vertex 22.11121670129008 36.7306901695904 15.647400697578346
    vertex 22.2095975027702 36.725491057782904 15.385416221900849
  endloop
endfacet
facet normal 0.05277317218830412 0.99860652526267 -3.6201506548710057e-16
  outer loop
    vertex 22.11121670129011 36.730690169590396 -0.6486998966122068
    vertex 22.2095975027702 36.725491057782904 15.385416221900849
    vertex 22.209597502770166 36.725491057782904 -0.38671542093474826
  endloop
endfacet
facet normal 0.7593820451183783 0.45116166292601334 0.46881986248202373
  outer loop
    vertex 22.014779034189303 36.735786592938936 15.798947192832586
    vertex 22.528418160331196 36.02873833045535 15.64740069757837
    vertex 22.11121670129008 36.7306901695904 15.647400697578346
  endloop
endfacet
facet normal 0.7593820451183783 0.45116166292601334 0.46881986248202373
  outer loop
    vertex 22.528418160331196 36.02873833045535 15.64740069757837
    vertex 22.014779034189303 36.735786592938936 15.798947192832586
    vertex 22.486804581655054 35.94159186043757 15.79842479143159
  endloop
endfacet
facet normal 0.8947128543955147 -0.4466418119471473 -2.57011934538639e-16
  outer loop
    vertex 19.447550582601906 33.02894353825065 17.499350400483053
    vertex 19.18760842491279 32.508227421526506 -2.500649599516939
    vertex 19.4475505826019 33.028943538250644 -2.5006495995169393
  endloop
endfacet
facet normal 0.8947128543955147 -0.4466418119471473 -2.57011934538639e-16
  outer loop
    vertex 19.18760842491279 32.508227421526506 -2.500649599516939
    vertex 19.447550582601906 33.02894353825065 17.499350400483053
    vertex 19.187608424912796 32.50822742152651 17.499350400483053
  endloop
endfacet
facet normal -0.46921410746817166 0.8830844361400823 7.914547803894715e-16
  outer loop
    vertex 11.06613629607686 36.63642254545819 15.084621366531387
    vertex 11.233767694477285 36.725491057782904 -0.38671542093474265
    vertex 11.066136296076829 36.63642254545818 -0.08592056556532095
  endloop
endfacet
facet normal -0.46921410746817166 0.8830844361400823 7.914547803894715e-16
  outer loop
    vertex 11.233767694477285 36.725491057782904 -0.38671542093474265
    vertex 11.06613629607686 36.63642254545819 15.084621366531387
    vertex 11.23376769447732 36.725491057782904 15.385416221900803
  endloop
endfacet
facet normal -0.05359939492362709 0.9985625192564667 -2.5691968566664505e-16
  outer loop
    vertex 16.72168259862374 35.26704646662904 17.499350400483063
    vertex 17.79212953513492 35.32450436935262 -2.5006495995169398
    vertex 16.72168259862373 35.26704646662903 -2.500649599516934
  endloop
endfacet
facet normal -0.05359939492362709 0.9985625192564667 -2.5691968566664505e-16
  outer loop
    vertex 17.79212953513492 35.32450436935262 -2.5006495995169398
    vertex 16.72168259862374 35.26704646662904 17.499350400483063
    vertex 17.792129535134926 35.32450436935262 17.499350400483053
  endloop
endfacet
facet normal 0.8168800162183603 0.4853919743497743 0.311611409194079
  outer loop
    vertex 22.2095975027702 36.725491057782904 15.385416221900849
    vertex 22.57274828471759 36.30745631609085 15.0846213665315
    vertex 22.377228901170664 36.63642254545819 15.084621366531454
  endloop
endfacet
facet normal 0.8168800162183603 0.4853919743497743 0.311611409194079
  outer loop
    vertex 22.57274828471759 36.30745631609085 15.0846213665315
    vertex 22.2095975027702 36.725491057782904 15.385416221900849
    vertex 22.57087021610659 36.11764072538311 15.385122528148697
  endloop
endfacet
facet normal -0.36662204544226346 0.9303699671613068 1.516934641863581e-16
  outer loop
    vertex 19.883960258792087 35.780213486123905 17.46276997880306
    vertex 20.085535482000658 35.859646317418644 -2.443005440726628
    vertex 19.88396025879206 35.7802134861239 -2.4640691778369646
  endloop
endfacet
facet normal -0.36662204544226346 0.9303699671613068 1.516934641863581e-16
  outer loop
    vertex 20.085535482000658 35.859646317418644 -2.443005440726628
    vertex 19.883960258792087 35.780213486123905 17.46276997880306
    vertex 20.085535482000722 35.85964631741865 17.441706241692735
  endloop
endfacet
facet normal -0.36662204544226346 0.9303699671613068 1.516934641863581e-16
  outer loop
    vertex 20.085535482000658 35.859646317418644 -2.443005440726628
    vertex 20.085535482000722 35.85964631741865 17.441706241692735
    vertex 20.615977829022633 36.068672688774704 -2.2722881970507984
  endloop
endfacet
facet normal -0.36662204544226346 0.9303699671613068 1.516934641863581e-16
  outer loop
    vertex 20.615977829022633 36.068672688774704 -2.2722881970507984
    vertex 20.085535482000722 35.85964631741865 17.441706241692735
    vertex 20.615977829022665 36.06867268877471 17.270988998016904
  endloop
endfacet
facet normal -0.36662204544226346 0.9303699671613068 1.516934641863581e-16
  outer loop
    vertex 20.615977829022633 36.068672688774704 -2.2722881970507984
    vertex 20.615977829022665 36.06867268877471 17.270988998016904
    vertex 20.88130560469134 36.17322788215127 -2.1218218336124908
  endloop
endfacet
facet normal -0.36662204544226346 0.9303699671613068 1.516934641863581e-16
  outer loop
    vertex 20.88130560469134 36.17322788215127 -2.1218218336124908
    vertex 20.615977829022665 36.06867268877471 17.270988998016904
    vertex 20.881305604691303 36.17322788215127 17.12052263457863
  endloop
endfacet
facet normal 0.628894353591281 -0.7774907665181657 -6.629026225888524e-16
  outer loop
    vertex 21.20285088047398 35.0812441722208 -2.2722881970507984
    vertex 20.898970851356367 34.835442623557945 17.388326097606456
    vertex 20.898970851356353 34.83544262355794 -2.3896252966403493
  endloop
endfacet
facet normal 0.628894353591281 -0.7774907665181657 -6.629026225888524e-16
  outer loop
    vertex 20.898970851356367 34.835442623557945 17.388326097606456
    vertex 21.20285088047398 35.0812441722208 -2.2722881970507984
    vertex 21.202850880474017 35.081244172220806 17.27098899801695
  endloop
endfacet
facet normal 0.628894353591281 -0.7774907665181657 -6.629026225888524e-16
  outer loop
    vertex 21.202850880474017 35.081244172220806 17.27098899801695
    vertex 21.20285088047398 35.0812441722208 -2.2722881970507984
    vertex 21.35146459920099 35.20145438255187 -2.1711745913735827
  endloop
endfacet
facet normal 0.628894353591281 -0.7774907665181657 -6.629026225888524e-16
  outer loop
    vertex 21.202850880474017 35.081244172220806 17.27098899801695
    vertex 21.35146459920099 35.20145438255187 -2.1711745913735827
    vertex 21.351464599201023 35.20145438255188 17.169875392339716
  endloop
endfacet
facet normal -0.7933533402912267 -0.6087614290087315 5.005842434243292e-16
  outer loop
    vertex 14.514575817437192 32.059939685442494 17.499350400483063
    vertex 14.355657194839289 32.26704646662903 -2.500649599516933
    vertex 14.514575817437184 32.059939685442494 -2.500649599516933
  endloop
endfacet
facet normal -0.7933533402912267 -0.6087614290087315 5.005842434243292e-16
  outer loop
    vertex 14.355657194839289 32.26704646662903 -2.500649599516933
    vertex 14.514575817437192 32.059939685442494 17.499350400483063
    vertex 14.355657194839297 32.26704646662904 17.499350400483063
  endloop
endfacet
endsolid VV's Vr Gloves
