solid esp32 socket
facet normal 1.0 0.0 0.0
  outer loop
    vertex -61.57622322437498 -44.354940408497285 7.000000000004656
    vertex -61.57622322437498 -34.85494040849804 5.49999999999989
    vertex -61.57622322437498 -34.85494040849728 6.999999999999887
  endloop
endfacet
facet normal 1.0 0.0 0.0
  outer loop
    vertex -61.57622322437498 -34.85494040849804 5.49999999999989
    vertex -61.57622322437498 -44.354940408497285 7.000000000004656
    vertex -61.57622322437498 -44.35494040849804 5.500000000004657
  endloop
endfacet
facet normal -0.7071067811865476 -0.7071067811865476 3.5493025234972934e-13
  outer loop
    vertex -62.869116443188425 -44.35494040849804 5.500000000004657
    vertex -66.57622322437497 -40.64783362731073 7.000000000002794
    vertex -66.57622322437497 -40.64783362731148 5.500000000002794
  endloop
endfacet
facet normal -0.7071067811865476 -0.7071067811865476 3.5493025234972934e-13
  outer loop
    vertex -66.57622322437497 -40.64783362731073 7.000000000002794
    vertex -62.869116443188425 -44.35494040849804 5.500000000004657
    vertex -62.869116443188425 -44.354940408497285 7.000000000004656
  endloop
endfacet
facet normal 0.0 1.0 -5.019471765694923e-13
  outer loop
    vertex -61.57622322437498 -34.85494040849804 5.49999999999989
    vertex -66.57622322437497 -34.85494040849728 6.999999999999887
    vertex -61.57622322437498 -34.85494040849728 6.999999999999887
  endloop
endfacet
facet normal 0.0 1.0 -5.019471765694923e-13
  outer loop
    vertex -66.57622322437497 -34.85494040849728 6.999999999999887
    vertex -61.57622322437498 -34.85494040849804 5.49999999999989
    vertex -66.57622322437497 -34.85494040849804 5.49999999999989
  endloop
endfacet
facet normal 0.0 5.019471765694923e-13 1.0
  outer loop
    vertex -62.869116443188425 -44.354940408497285 7.000000000004656
    vertex -66.57622322437497 -34.85494040849728 6.999999999999887
    vertex -66.57622322437497 -40.64783362731073 7.000000000002794
  endloop
endfacet
facet normal 0.0 5.019471765694923e-13 1.0
  outer loop
    vertex -66.57622322437497 -34.85494040849728 6.999999999999887
    vertex -62.869116443188425 -44.354940408497285 7.000000000004656
    vertex -61.57622322437498 -34.85494040849728 6.999999999999887
  endloop
endfacet
facet normal 0.0 5.019471765694923e-13 1.0
  outer loop
    vertex -61.57622322437498 -34.85494040849728 6.999999999999887
    vertex -62.869116443188425 -44.354940408497285 7.000000000004656
    vertex -61.57622322437498 -44.354940408497285 7.000000000004656
  endloop
endfacet
facet normal 0.7933533402912356 0.6087614290087203 -3.0556608049533657e-13
  outer loop
    vertex -52.5810326959917 -44.10494040849803 5.50000000000453
    vertex -53.772922365475885 -42.55163954960144 0.5000000000037539
    vertex -53.772922365475885 -42.551639549598924 5.500000000003751
  endloop
endfacet
facet normal 0.7933533402912356 0.6087614290087203 -3.0556608049533657e-13
  outer loop
    vertex -53.772922365475885 -42.55163954960144 0.5000000000037539
    vertex -52.5810326959917 -44.10494040849803 5.50000000000453
    vertex -52.5810326959917 -44.10494040850054 0.5000000000045336
  endloop
endfacet
facet normal -0.13052619222005327 -0.9914448613738103 4.976529488909158e-13
  outer loop
    vertex -61.017366062643895 -55.09938410566854 0.5000000000100523
    vertex -59.07622322437498 -55.35494040849803 5.500000000010177
    vertex -61.017366062643895 -55.09938410566603 5.500000000010049
  endloop
endfacet
facet normal -0.13052619222005327 -0.9914448613738103 4.976529488909158e-13
  outer loop
    vertex -59.07622322437498 -55.35494040849803 5.500000000010177
    vertex -61.017366062643895 -55.09938410566854 0.5000000000100523
    vertex -59.07622322437498 -55.35494040850054 0.5000000000101805
  endloop
endfacet
facet normal 0.9914448613738112 -0.13052619222004605 6.55166355374888e-14
  outer loop
    vertex -51.707875721962395 -48.85494040849803 5.4978420000069175
    vertex -51.57622322437499 -47.85494040850053 0.5000000000064159
    vertex -51.57622322437499 -47.854940408498024 5.500000000006413
  endloop
endfacet
facet normal 0.9914448613738112 -0.13052619222004605 6.55166355374888e-14
  outer loop
    vertex -51.57622322437499 -47.85494040850053 0.5000000000064159
    vertex -51.707875721962395 -48.85494040849803 5.4978420000069175
    vertex -51.707875721962395 -48.85494040850054 0.5000000000069179
  endloop
endfacet
facet normal 0.9914448613738105 0.13052619222005066 -6.551725365322126e-14
  outer loop
    vertex -51.57622322437499 -47.854940408498024 5.500000000006413
    vertex -51.83177952720699 -45.91379757023164 0.5000000000054416
    vertex -51.83177952720699 -45.91379757022913 5.500000000005438
  endloop
endfacet
facet normal 0.9914448613738105 0.13052619222005066 -6.551725365322126e-14
  outer loop
    vertex -51.83177952720699 -45.91379757023164 0.5000000000054416
    vertex -51.57622322437499 -47.854940408498024 5.500000000006413
    vertex -51.57622322437499 -47.85494040850053 0.5000000000064159
  endloop
endfacet
facet normal 5.4547291415037566e-05 -4.2540763812272236e-05 0.9999999976074383
  outer loop
    vertex -61.017366062643895 -55.09938410566603 5.500000000010049
    vertex -61.57622322437498 -47.85494040849803 5.500000000006413
    vertex -62.82622322437499 -54.35013093688131 5.500000000009672
  endloop
endfacet
facet normal 5.4547291415037566e-05 -4.2540763812272236e-05 0.9999999976074383
  outer loop
    vertex -61.57622322437498 -47.85494040849803 5.500000000006413
    vertex -61.017366062643895 -55.09938410566603 5.500000000010049
    vertex -61.49103779009764 -48.501988021254334 5.500000000006737
  endloop
endfacet
facet normal 5.4547291415037566e-05 -4.2540763812272236e-05 0.9999999976074383
  outer loop
    vertex -61.49103779009764 -48.501988021254334 5.500000000006737
    vertex -61.017366062643895 -55.09938410566603 5.500000000010049
    vertex -61.241286733836084 -49.10494040849803 5.50000000000704
  endloop
endfacet
facet normal 5.4547291415037566e-05 -4.2540763812272236e-05 0.9999999976074383
  outer loop
    vertex -61.241286733836084 -49.10494040849803 5.50000000000704
    vertex -61.017366062643895 -55.09938410566603 5.500000000010049
    vertex -60.84399017734136 -49.62270736146438 5.500000000007299
  endloop
endfacet
facet normal 5.4547291415037566e-05 -4.2540763812272236e-05 0.9999999976074383
  outer loop
    vertex -60.84399017734136 -49.62270736146438 5.500000000007299
    vertex -61.017366062643895 -55.09938410566603 5.500000000010049
    vertex -59.07622322437498 -55.35494040849803 5.500000000010177
  endloop
endfacet
facet normal 5.4547291415037566e-05 -4.2540763812272236e-05 0.9999999976074383
  outer loop
    vertex -60.84399017734136 -49.62270736146438 5.500000000007299
    vertex -59.07622322437498 -55.35494040849803 5.500000000010177
    vertex -60.326223224375 -50.020003917959116 5.5000000000075
  endloop
endfacet
facet normal 5.4547291415037566e-05 -4.2540763812272236e-05 0.9999999976074383
  outer loop
    vertex -60.326223224375 -50.020003917959116 5.5000000000075
    vertex -59.07622322437498 -55.35494040849803 5.500000000010177
    vertex -59.723270837131295 -50.269754974220696 5.500000000007624
  endloop
endfacet
facet normal 5.4547291415037566e-05 -4.2540763812272236e-05 0.9999999976074383
  outer loop
    vertex -59.723270837131295 -50.269754974220696 5.500000000007624
    vertex -59.07622322437498 -55.35494040849803 5.500000000010177
    vertex -59.07622322437498 -50.354940408498024 5.500000000007668
  endloop
endfacet
facet normal 5.4547291415037566e-05 -4.2540763812272236e-05 0.9999999976074383
  outer loop
    vertex -59.07622322437498 -50.354940408498024 5.500000000007668
    vertex -59.07622322437498 -55.35494040849803 5.500000000010177
    vertex -58.42917561161869 -50.269754974220696 5.500000000007624
  endloop
endfacet
facet normal 5.4547291415037566e-05 -4.2540763812272236e-05 0.9999999976074383
  outer loop
    vertex -58.42917561161869 -50.269754974220696 5.500000000007624
    vertex -59.07622322437498 -55.35494040849803 5.500000000010177
    vertex -57.576223224374985 -55.15746166211693 5.497842000010081
  endloop
endfacet
facet normal 5.4547291415037566e-05 -4.2540763812272236e-05 0.9999999976074383
  outer loop
    vertex -58.42917561161869 -50.269754974220696 5.500000000007624
    vertex -57.576223224374985 -55.15746166211693 5.497842000010081
    vertex -57.82622322437501 -50.020003917959116 5.500000000007497
  endloop
endfacet
facet normal 5.4547291415037566e-05 -4.2540763812272236e-05 0.9999999976074383
  outer loop
    vertex -57.82622322437501 -50.020003917959116 5.500000000007497
    vertex -57.576223224374985 -55.15746166211693 5.497842000010081
    vertex -57.576223224374985 -49.828172170964365 5.497842000007406
  endloop
endfacet
facet normal 5.4547291415037566e-05 -4.2540763812272236e-05 0.9999999976074383
  outer loop
    vertex -51.707875721962395 -48.85494040849803 5.4978420000069175
    vertex -56.66140865865234 -48.501988021254334 5.500000000006737
    vertex -56.80760632432063 -48.85494040849803 5.497842000006912
  endloop
endfacet
facet normal 5.4547291415037566e-05 -4.2540763812272236e-05 0.9999999976074383
  outer loop
    vertex -56.66140865865234 -48.501988021254334 5.500000000006737
    vertex -51.707875721962395 -48.85494040849803 5.4978420000069175
    vertex -56.576223224374985 -47.854940408498024 5.500000000006413
  endloop
endfacet
facet normal 5.4547291415037566e-05 -4.2540763812272236e-05 0.9999999976074383
  outer loop
    vertex -56.576223224374985 -47.854940408498024 5.500000000006413
    vertex -51.707875721962395 -48.85494040849803 5.4978420000069175
    vertex -53.772922365475885 -42.551639549598924 5.500000000003751
  endloop
endfacet
facet normal 5.4547291415037566e-05 -4.2540763812272236e-05 0.9999999976074383
  outer loop
    vertex -53.772922365475885 -42.551639549598924 5.500000000003751
    vertex -51.707875721962395 -48.85494040849803 5.4978420000069175
    vertex -52.5810326959917 -44.10494040849803 5.50000000000453
  endloop
endfacet
facet normal 5.4547291415037566e-05 -4.2540763812272236e-05 0.9999999976074383
  outer loop
    vertex -52.5810326959917 -44.10494040849803 5.50000000000453
    vertex -51.707875721962395 -48.85494040849803 5.4978420000069175
    vertex -51.83177952720699 -45.91379757022913 5.500000000005438
  endloop
endfacet
facet normal 5.4547291415037566e-05 -4.2540763812272236e-05 0.9999999976074383
  outer loop
    vertex -51.83177952720699 -45.91379757022913 5.500000000005438
    vertex -51.707875721962395 -48.85494040849803 5.4978420000069175
    vertex -51.57622322437499 -47.854940408498024 5.500000000006413
  endloop
endfacet
facet normal 5.4547291415037566e-05 -4.2540763812272236e-05 0.9999999976074383
  outer loop
    vertex -66.32066692154301 -49.79608324676693 5.500000000007387
    vertex -66.57622322437497 -40.64783362731148 5.500000000002794
    vertex -66.57622322437498 -47.85494040849803 5.500000000006413
  endloop
endfacet
facet normal 5.4547291415037566e-05 -4.2540763812272236e-05 0.9999999976074383
  outer loop
    vertex -66.57622322437497 -40.64783362731148 5.500000000002794
    vertex -66.32066692154301 -49.79608324676693 5.500000000007387
    vertex -62.869116443188425 -44.35494040849804 5.500000000004657
  endloop
endfacet
facet normal 5.4547291415037566e-05 -4.2540763812272236e-05 0.9999999976074383
  outer loop
    vertex -62.869116443188425 -44.35494040849804 5.500000000004657
    vertex -66.32066692154301 -49.79608324676693 5.500000000007387
    vertex -65.57141375275827 -51.60494040849803 5.500000000008295
  endloop
endfacet
facet normal 5.4547291415037566e-05 -4.2540763812272236e-05 0.9999999976074383
  outer loop
    vertex -62.869116443188425 -44.35494040849804 5.500000000004657
    vertex -65.57141375275827 -51.60494040849803 5.500000000008295
    vertex -64.3795240832741 -53.15824126739712 5.5000000000090745
  endloop
endfacet
facet normal 5.4547291415037566e-05 -4.2540763812272236e-05 0.9999999976074383
  outer loop
    vertex -62.869116443188425 -44.35494040849804 5.500000000004657
    vertex -64.3795240832741 -53.15824126739712 5.5000000000090745
    vertex -62.82622322437499 -54.35013093688131 5.500000000009672
  endloop
endfacet
facet normal 5.4547291415037566e-05 -4.2540763812272236e-05 0.9999999976074383
  outer loop
    vertex -62.869116443188425 -44.35494040849804 5.500000000004657
    vertex -62.82622322437499 -54.35013093688131 5.500000000009672
    vertex -61.57622322437498 -44.35494040849804 5.500000000004657
  endloop
endfacet
facet normal 5.4547291415037566e-05 -4.2540763812272236e-05 0.9999999976074383
  outer loop
    vertex -61.57622322437498 -44.35494040849804 5.500000000004657
    vertex -62.82622322437499 -54.35013093688131 5.500000000009672
    vertex -61.57622322437498 -47.85494040849803 5.500000000006413
  endloop
endfacet
facet normal 5.4547291415037566e-05 -4.2540763812272236e-05 0.9999999976074383
  outer loop
    vertex -61.57622322437498 -44.35494040849804 5.500000000004657
    vertex -61.57622322437498 -47.85494040849803 5.500000000006413
    vertex -61.49103779009766 -47.207892795741735 5.500000000006088
  endloop
endfacet
facet normal 5.4547291415037566e-05 -4.2540763812272236e-05 0.9999999976074383
  outer loop
    vertex -61.57622322437498 -44.35494040849804 5.500000000004657
    vertex -61.49103779009766 -47.207892795741735 5.500000000006088
    vertex -61.57622322437498 -34.85494040849804 5.49999999999989
  endloop
endfacet
facet normal 5.4547291415037566e-05 -4.2540763812272236e-05 0.9999999976074383
  outer loop
    vertex -61.57622322437498 -34.85494040849804 5.49999999999989
    vertex -61.49103779009766 -47.207892795741735 5.500000000006088
    vertex -61.241286733836084 -46.60494040849804 5.500000000005785
  endloop
endfacet
facet normal 5.4547291415037566e-05 -4.2540763812272236e-05 0.9999999976074383
  outer loop
    vertex -61.57622322437498 -34.85494040849804 5.49999999999989
    vertex -61.241286733836084 -46.60494040849804 5.500000000005785
    vertex -60.843990177341375 -46.087173455531676 5.5000000000055245
  endloop
endfacet
facet normal 5.4547291415037566e-05 -4.2540763812272236e-05 0.9999999976074383
  outer loop
    vertex -61.57622322437498 -34.85494040849804 5.49999999999989
    vertex -60.843990177341375 -46.087173455531676 5.5000000000055245
    vertex -60.326223224375 -45.689876899036946 5.500000000005323
  endloop
endfacet
facet normal 5.4547291415037566e-05 -4.2540763812272236e-05 0.9999999976074383
  outer loop
    vertex -61.57622322437498 -34.85494040849804 5.49999999999989
    vertex -60.326223224375 -45.689876899036946 5.500000000005323
    vertex -53.772922365475885 -42.551639549598924 5.500000000003751
  endloop
endfacet
facet normal 5.4547291415037566e-05 -4.2540763812272236e-05 0.9999999976074383
  outer loop
    vertex -53.772922365475885 -42.551639549598924 5.500000000003751
    vertex -60.326223224375 -45.689876899036946 5.500000000005323
    vertex -59.7232708371313 -45.44012584277537 5.500000000005197
  endloop
endfacet
facet normal 5.4547291415037566e-05 -4.2540763812272236e-05 0.9999999976074383
  outer loop
    vertex -53.772922365475885 -42.551639549598924 5.500000000003751
    vertex -59.7232708371313 -45.44012584277537 5.500000000005197
    vertex -59.07622322437498 -45.354940408498024 5.500000000005158
  endloop
endfacet
facet normal 5.4547291415037566e-05 -4.2540763812272236e-05 0.9999999976074383
  outer loop
    vertex -53.772922365475885 -42.551639549598924 5.500000000003751
    vertex -59.07622322437498 -45.354940408498024 5.500000000005158
    vertex -58.42917561161869 -45.44012584277536 5.500000000005197
  endloop
endfacet
facet normal 5.4547291415037566e-05 -4.2540763812272236e-05 0.9999999976074383
  outer loop
    vertex -53.772922365475885 -42.551639549598924 5.500000000003751
    vertex -58.42917561161869 -45.44012584277536 5.500000000005197
    vertex -57.82622322437501 -45.68987689903693 5.5000000000053255
  endloop
endfacet
facet normal 5.4547291415037566e-05 -4.2540763812272236e-05 0.9999999976074383
  outer loop
    vertex -53.772922365475885 -42.551639549598924 5.500000000003751
    vertex -57.82622322437501 -45.68987689903693 5.5000000000053255
    vertex -57.30845627140863 -46.08717345553166 5.5000000000055245
  endloop
endfacet
facet normal 5.4547291415037566e-05 -4.2540763812272236e-05 0.9999999976074383
  outer loop
    vertex -53.772922365475885 -42.551639549598924 5.500000000003751
    vertex -57.30845627140863 -46.08717345553166 5.5000000000055245
    vertex -56.91115971491389 -46.60494040849804 5.500000000005785
  endloop
endfacet
facet normal 5.4547291415037566e-05 -4.2540763812272236e-05 0.9999999976074383
  outer loop
    vertex -53.772922365475885 -42.551639549598924 5.500000000003751
    vertex -56.91115971491389 -46.60494040849804 5.500000000005785
    vertex -56.66140865865231 -47.207892795741735 5.500000000006088
  endloop
endfacet
facet normal 5.4547291415037566e-05 -4.2540763812272236e-05 0.9999999976074383
  outer loop
    vertex -53.772922365475885 -42.551639549598924 5.500000000003751
    vertex -56.66140865865231 -47.207892795741735 5.500000000006088
    vertex -56.576223224374985 -47.854940408498024 5.500000000006413
  endloop
endfacet
facet normal 0.9238795325112871 0.3826834323650892 -1.920868683955788e-13
  outer loop
    vertex -51.83177952720699 -45.91379757022913 5.500000000005438
    vertex -52.5810326959917 -44.10494040850054 0.5000000000045336
    vertex -52.5810326959917 -44.10494040849803 5.50000000000453
  endloop
endfacet
facet normal 0.9238795325112871 0.3826834323650892 -1.920868683955788e-13
  outer loop
    vertex -52.5810326959917 -44.10494040850054 0.5000000000045336
    vertex -51.83177952720699 -45.91379757022913 5.500000000005438
    vertex -51.83177952720699 -45.91379757023164 0.5000000000054416
  endloop
endfacet
facet normal -0.608761429008721 -0.7933533402912349 3.98221469181161e-13
  outer loop
    vertex -64.3795240832741 -53.15824126739964 0.500000000009078
    vertex -62.82622322437499 -54.35013093688131 5.500000000009672
    vertex -64.3795240832741 -53.15824126739712 5.5000000000090745
  endloop
endfacet
facet normal -0.608761429008721 -0.7933533402912349 3.98221469181161e-13
  outer loop
    vertex -62.82622322437499 -54.35013093688131 5.500000000009672
    vertex -64.3795240832741 -53.15824126739964 0.500000000009078
    vertex -62.82622322437499 -54.35013093688382 0.5000000000096758
  endloop
endfacet
facet normal -0.3826834323650882 -0.9238795325112875 4.637387228343833e-13
  outer loop
    vertex -62.82622322437499 -54.35013093688382 0.5000000000096758
    vertex -61.017366062643895 -55.09938410566603 5.500000000010049
    vertex -62.82622322437499 -54.35013093688131 5.500000000009672
  endloop
endfacet
facet normal -0.3826834323650882 -0.9238795325112875 4.637387228343833e-13
  outer loop
    vertex -61.017366062643895 -55.09938410566603 5.500000000010049
    vertex -62.82622322437499 -54.35013093688382 0.5000000000096758
    vertex -61.017366062643895 -55.09938410566854 0.5000000000100523
  endloop
endfacet
facet normal 0.130526192220052 -0.9914448613738105 4.978269252145649e-13
  outer loop
    vertex -59.07622322437498 -55.35494040850054 0.5000000000101805
    vertex -57.576223224374985 -55.15746166211693 5.497842000010081
    vertex -59.07622322437498 -55.35494040849803 5.500000000010177
  endloop
endfacet
facet normal 0.130526192220052 -0.9914448613738105 4.978269252145649e-13
  outer loop
    vertex -57.576223224374985 -55.15746166211693 5.497842000010081
    vertex -59.07622322437498 -55.35494040850054 0.5000000000101805
    vertex -57.576223224374985 -55.157461662119445 0.5000000000100818
  endloop
endfacet
facet normal 0.130526192220052 -0.9914448613738105 4.978269252145649e-13
  outer loop
    vertex -57.576223224374985 -55.157461662119445 0.5000000000100818
    vertex -59.07622322437498 -55.35494040850054 0.5000000000101805
    vertex -58.42917561161869 -55.269754974223204 0.5000000000101382
  endloop
endfacet
facet normal -0.7933533402912363 -0.6087614290087192 3.05566080495336e-13
  outer loop
    vertex -64.3795240832741 -53.15824126739964 0.500000000009078
    vertex -65.57141375275827 -51.60494040849803 5.500000000008295
    vertex -65.57141375275827 -51.60494040850053 0.5000000000082983
  endloop
endfacet
facet normal -0.7933533402912363 -0.6087614290087192 3.05566080495336e-13
  outer loop
    vertex -65.57141375275827 -51.60494040849803 5.500000000008295
    vertex -64.3795240832741 -53.15824126739964 0.500000000009078
    vertex -64.3795240832741 -53.15824126739712 5.5000000000090745
  endloop
endfacet
facet normal -0.9914448613738107 -0.13052619222005046 6.551725365322116e-14
  outer loop
    vertex -66.32066692154301 -49.79608324676944 0.5000000000073902
    vertex -66.57622322437498 -47.85494040849803 5.500000000006413
    vertex -66.57622322437498 -47.85494040850054 0.5000000000064159
  endloop
endfacet
facet normal -0.9914448613738107 -0.13052619222005046 6.551725365322116e-14
  outer loop
    vertex -66.57622322437498 -47.85494040849803 5.500000000006413
    vertex -66.32066692154301 -49.79608324676944 0.5000000000073902
    vertex -66.32066692154301 -49.79608324676693 5.500000000007387
  endloop
endfacet
facet normal -0.923879532511286 -0.38268343236509167 1.9208686839558002e-13
  outer loop
    vertex -65.57141375275827 -51.60494040850053 0.5000000000082983
    vertex -66.32066692154301 -49.79608324676693 5.500000000007387
    vertex -66.32066692154301 -49.79608324676944 0.5000000000073902
  endloop
endfacet
facet normal -0.923879532511286 -0.38268343236509167 1.9208686839558002e-13
  outer loop
    vertex -66.32066692154301 -49.79608324676693 5.500000000007387
    vertex -65.57141375275827 -51.60494040850053 0.5000000000082983
    vertex -65.57141375275827 -51.60494040849803 5.500000000008295
  endloop
endfacet
facet normal -1.0 6.372426659766682e-16 5.979772255479665e-16
  outer loop
    vertex -66.57622322437498 -47.85494040850054 0.5000000000064159
    vertex -66.57622322437497 -14.854940408498033 5.499999999989851
    vertex -66.57622322437497 -14.854940408500543 0.49999999998985145
  endloop
endfacet
facet normal -1.0 6.372426659766682e-16 5.979772255479665e-16
  outer loop
    vertex -66.57622322437497 -14.854940408498033 5.499999999989851
    vertex -66.57622322437498 -47.85494040850054 0.5000000000064159
    vertex -66.57622322437497 -34.85494040849804 5.49999999999989
  endloop
endfacet
facet normal -1.0 6.372426659766682e-16 5.979772255479665e-16
  outer loop
    vertex -66.57622322437497 -34.85494040849804 5.49999999999989
    vertex -66.57622322437498 -47.85494040850054 0.5000000000064159
    vertex -66.57622322437497 -34.85494040849728 6.999999999999887
  endloop
endfacet
facet normal -1.0 6.372426659766682e-16 5.979772255479665e-16
  outer loop
    vertex -66.57622322437497 -34.85494040849728 6.999999999999887
    vertex -66.57622322437498 -47.85494040850054 0.5000000000064159
    vertex -66.57622322437497 -40.64783362731148 5.500000000002794
  endloop
endfacet
facet normal -1.0 6.372426659766682e-16 5.979772255479665e-16
  outer loop
    vertex -66.57622322437497 -40.64783362731148 5.500000000002794
    vertex -66.57622322437498 -47.85494040850054 0.5000000000064159
    vertex -66.57622322437498 -47.85494040849803 5.500000000006413
  endloop
endfacet
facet normal -1.0 6.372426659766682e-16 5.979772255479665e-16
  outer loop
    vertex -66.57622322437497 -40.64783362731073 7.000000000002794
    vertex -66.57622322437497 -34.85494040849728 6.999999999999887
    vertex -66.57622322437497 -40.64783362731148 5.500000000002794
  endloop
endfacet
facet normal 0.38268343236509156 0.9238795325112862 -4.637387228343826e-13
  outer loop
    vertex -59.723270837131295 -50.26975497422321 0.5000000000076285
    vertex -60.326223224375 -50.020003917959116 5.5000000000075
    vertex -59.723270837131295 -50.269754974220696 5.500000000007624
  endloop
endfacet
facet normal 0.38268343236509156 0.9238795325112862 -4.637387228343826e-13
  outer loop
    vertex -60.326223224375 -50.020003917959116 5.5000000000075
    vertex -59.723270837131295 -50.26975497422321 0.5000000000076285
    vertex -60.326223224375 -50.02000391796163 0.500000000007503
  endloop
endfacet
facet normal 0.6087614290087348 0.7933533402912244 -3.9822415047191065e-13
  outer loop
    vertex -60.326223224375 -50.02000391796163 0.500000000007503
    vertex -60.84399017734136 -49.62270736146438 5.500000000007299
    vertex -60.326223224375 -50.020003917959116 5.5000000000075
  endloop
endfacet
facet normal 0.6087614290087348 0.7933533402912244 -3.9822415047191065e-13
  outer loop
    vertex -60.84399017734136 -49.62270736146438 5.500000000007299
    vertex -60.326223224375 -50.02000391796163 0.500000000007503
    vertex -60.84399017734136 -49.62270736146689 0.5000000000072999
  endloop
endfacet
facet normal 0.793353340291229 0.6087614290087289 -3.0556948704576055e-13
  outer loop
    vertex -60.84399017734136 -49.62270736146438 5.500000000007299
    vertex -61.241286733836084 -49.10494040850054 0.5000000000070406
    vertex -61.241286733836084 -49.10494040849803 5.50000000000704
  endloop
endfacet
facet normal 0.793353340291229 0.6087614290087289 -3.0556948704576055e-13
  outer loop
    vertex -61.241286733836084 -49.10494040850054 0.5000000000070406
    vertex -60.84399017734136 -49.62270736146438 5.500000000007299
    vertex -60.84399017734136 -49.62270736146689 0.5000000000072999
  endloop
endfacet
facet normal 0.9238795325112945 0.38268343236507113 -1.9208679230158931e-13
  outer loop
    vertex -61.241286733836084 -49.10494040849803 5.50000000000704
    vertex -61.49103779009764 -48.50198802125685 0.5000000000067402
    vertex -61.49103779009764 -48.501988021254334 5.500000000006737
  endloop
endfacet
facet normal 0.9238795325112945 0.38268343236507113 -1.9208679230158931e-13
  outer loop
    vertex -61.49103779009764 -48.50198802125685 0.5000000000067402
    vertex -61.241286733836084 -49.10494040849803 5.50000000000704
    vertex -61.241286733836084 -49.10494040850054 0.5000000000070406
  endloop
endfacet
facet normal 0.99144486137381 0.13052619222005557 -6.551725365322372e-14
  outer loop
    vertex -61.49103779009764 -48.501988021254334 5.500000000006737
    vertex -61.57622322437498 -47.85494040850054 0.5000000000064159
    vertex -61.57622322437498 -47.85494040849803 5.500000000006413
  endloop
endfacet
facet normal 0.99144486137381 0.13052619222005557 -6.551725365322372e-14
  outer loop
    vertex -61.57622322437498 -47.85494040850054 0.5000000000064159
    vertex -61.49103779009764 -48.501988021254334 5.500000000006737
    vertex -61.49103779009764 -48.50198802125685 0.5000000000067402
  endloop
endfacet
facet normal 0.9914448613738123 -0.13052619222003856 6.551725365321519e-14
  outer loop
    vertex -61.57622322437498 -47.85494040849803 5.500000000006413
    vertex -61.49103779009766 -47.207892795744236 0.5000000000060916
    vertex -61.49103779009766 -47.207892795741735 5.500000000006088
  endloop
endfacet
facet normal 0.9914448613738123 -0.13052619222003856 6.551725365321519e-14
  outer loop
    vertex -61.49103779009766 -47.207892795744236 0.5000000000060916
    vertex -61.57622322437498 -47.85494040849803 5.500000000006413
    vertex -61.57622322437498 -47.85494040850054 0.5000000000064159
  endloop
endfacet
facet normal 0.9238795325112897 -0.3826834323650829 1.9208694448955603e-13
  outer loop
    vertex -61.49103779009766 -47.207892795741735 5.500000000006088
    vertex -61.241286733836084 -46.60494040850054 0.5000000000057857
    vertex -61.241286733836084 -46.60494040849804 5.500000000005785
  endloop
endfacet
facet normal 0.9238795325112897 -0.3826834323650829 1.9208694448955603e-13
  outer loop
    vertex -61.241286733836084 -46.60494040850054 0.5000000000057857
    vertex -61.49103779009766 -47.207892795741735 5.500000000006088
    vertex -61.49103779009766 -47.207892795744236 0.5000000000060916
  endloop
endfacet
facet normal 0.7933533402912453 -0.6087614290087076 3.055687617860851e-13
  outer loop
    vertex -61.241286733836084 -46.60494040849804 5.500000000005785
    vertex -60.843990177341375 -46.087173455534185 0.500000000005529
    vertex -60.843990177341375 -46.087173455531676 5.5000000000055245
  endloop
endfacet
facet normal 0.7933533402912453 -0.6087614290087076 3.055687617860851e-13
  outer loop
    vertex -60.843990177341375 -46.087173455534185 0.500000000005529
    vertex -61.241286733836084 -46.60494040849804 5.500000000005785
    vertex -61.241286733836084 -46.60494040850054 0.5000000000057857
  endloop
endfacet
facet normal 0.6087614290087154 -0.7933533402912394 3.982207439214985e-13
  outer loop
    vertex -60.843990177341375 -46.087173455534185 0.500000000005529
    vertex -60.326223224375 -45.689876899036946 5.500000000005323
    vertex -60.843990177341375 -46.087173455531676 5.5000000000055245
  endloop
endfacet
facet normal 0.6087614290087154 -0.7933533402912394 3.982207439214985e-13
  outer loop
    vertex -60.326223224375 -45.689876899036946 5.500000000005323
    vertex -60.843990177341375 -46.087173455534185 0.500000000005529
    vertex -60.326223224375 -45.689876899039454 0.5000000000053288
  endloop
endfacet
facet normal 0.38268343236508656 -0.9238795325112881 4.637387228343835e-13
  outer loop
    vertex -60.326223224375 -45.689876899039454 0.5000000000053288
    vertex -59.7232708371313 -45.44012584277537 5.500000000005197
    vertex -60.326223224375 -45.689876899036946 5.500000000005323
  endloop
endfacet
facet normal 0.38268343236508656 -0.9238795325112881 4.637387228343835e-13
  outer loop
    vertex -59.7232708371313 -45.44012584277537 5.500000000005197
    vertex -60.326223224375 -45.689876899039454 0.5000000000053288
    vertex -59.7232708371313 -45.44012584277788 0.5000000000052033
  endloop
endfacet
facet normal 0.13052619222006437 -0.9914448613738088 4.976526905346335e-13
  outer loop
    vertex -59.7232708371313 -45.44012584277537 5.500000000005197
    vertex -59.07622322437498 -45.35494040850053 0.500000000005161
    vertex -59.07622322437498 -45.354940408498024 5.500000000005158
  endloop
endfacet
facet normal 0.13052619222006437 -0.9914448613738088 4.976526905346335e-13
  outer loop
    vertex -59.07622322437498 -45.35494040850053 0.500000000005161
    vertex -59.7232708371313 -45.44012584277537 5.500000000005197
    vertex -59.7232708371313 -45.44012584277788 0.5000000000052033
  endloop
endfacet
facet normal -0.13052619222005946 -0.9914448613738094 4.97653420942366e-13
  outer loop
    vertex -59.07622322437498 -45.35494040850053 0.500000000005161
    vertex -58.42917561161869 -45.44012584277536 5.500000000005197
    vertex -59.07622322437498 -45.354940408498024 5.500000000005158
  endloop
endfacet
facet normal -0.13052619222005946 -0.9914448613738094 4.97653420942366e-13
  outer loop
    vertex -58.42917561161869 -45.44012584277536 5.500000000005197
    vertex -59.07622322437498 -45.35494040850053 0.500000000005161
    vertex -58.42917561161869 -45.44012584277787 0.5000000000052033
  endloop
endfacet
facet normal -0.38268343236508523 -0.9238795325112886 4.637386467404033e-13
  outer loop
    vertex -58.42917561161869 -45.44012584277536 5.500000000005197
    vertex -57.82622322437501 -45.68987689903944 0.5000000000053288
    vertex -57.82622322437501 -45.68987689903693 5.5000000000053255
  endloop
endfacet
facet normal -0.38268343236508523 -0.9238795325112886 4.637386467404033e-13
  outer loop
    vertex -57.82622322437501 -45.68987689903944 0.5000000000053288
    vertex -58.42917561161869 -45.44012584277536 5.500000000005197
    vertex -58.42917561161869 -45.44012584277787 0.5000000000052033
  endloop
endfacet
facet normal -0.6087614290087263 -0.793353340291231 3.9822219444082374e-13
  outer loop
    vertex -57.82622322437501 -45.68987689903944 0.5000000000053288
    vertex -57.30845627140863 -46.08717345553166 5.5000000000055245
    vertex -57.82622322437501 -45.68987689903693 5.5000000000053255
  endloop
endfacet
facet normal -0.6087614290087263 -0.793353340291231 3.9822219444082374e-13
  outer loop
    vertex -57.30845627140863 -46.08717345553166 5.5000000000055245
    vertex -57.82622322437501 -45.68987689903944 0.5000000000053288
    vertex -57.30845627140863 -46.08717345553417 0.5000000000055262
  endloop
endfacet
facet normal -0.7933533402912302 -0.6087614290087271 3.055694870457597e-13
  outer loop
    vertex -56.91115971491389 -46.60494040850054 0.5000000000057857
    vertex -57.30845627140863 -46.08717345553166 5.5000000000055245
    vertex -57.30845627140863 -46.08717345553417 0.5000000000055262
  endloop
endfacet
facet normal -0.7933533402912302 -0.6087614290087271 3.055694870457597e-13
  outer loop
    vertex -57.30845627140863 -46.08717345553166 5.5000000000055245
    vertex -56.91115971491389 -46.60494040850054 0.5000000000057857
    vertex -56.91115971491389 -46.60494040849804 5.500000000005785
  endloop
endfacet
facet normal -0.9238795325112774 -0.3826834323651124 1.9208694448957083e-13
  outer loop
    vertex -56.66140865865231 -47.207892795744236 0.5000000000060916
    vertex -56.91115971491389 -46.60494040849804 5.500000000005785
    vertex -56.91115971491389 -46.60494040850054 0.5000000000057857
  endloop
endfacet
facet normal -0.9238795325112774 -0.3826834323651124 1.9208694448957083e-13
  outer loop
    vertex -56.91115971491389 -46.60494040849804 5.500000000005785
    vertex -56.66140865865231 -47.207892795744236 0.5000000000060916
    vertex -56.66140865865231 -47.207892795741735 5.500000000006088
  endloop
endfacet
facet normal -0.9914448613738109 -0.13052619222004877 6.551725365322032e-14
  outer loop
    vertex -56.576223224374985 -47.85494040850054 0.5000000000064159
    vertex -56.66140865865231 -47.207892795741735 5.500000000006088
    vertex -56.66140865865231 -47.207892795744236 0.5000000000060916
  endloop
endfacet
facet normal -0.9914448613738109 -0.13052619222004877 6.551725365322032e-14
  outer loop
    vertex -56.66140865865231 -47.207892795741735 5.500000000006088
    vertex -56.576223224374985 -47.85494040850054 0.5000000000064159
    vertex -56.576223224374985 -47.854940408498024 5.500000000006413
  endloop
endfacet
facet normal -0.9914448613738077 0.130526192220072 -6.551725365323198e-14
  outer loop
    vertex -56.66140865865234 -48.50198802125684 0.5000000000067402
    vertex -56.576223224374985 -47.854940408498024 5.500000000006413
    vertex -56.576223224374985 -47.85494040850054 0.5000000000064159
  endloop
endfacet
facet normal -0.9914448613738077 0.130526192220072 -6.551725365323198e-14
  outer loop
    vertex -56.576223224374985 -47.854940408498024 5.500000000006413
    vertex -56.66140865865234 -48.50198802125684 0.5000000000067402
    vertex -56.66140865865234 -48.501988021254334 5.500000000006737
  endloop
endfacet
facet normal -0.9238795325112884 0.382683432365086 -1.9208679230159679e-13
  outer loop
    vertex -56.80760632432063 -48.85494040850054 0.500000000006915
    vertex -56.66140865865234 -48.501988021254334 5.500000000006737
    vertex -56.66140865865234 -48.50198802125684 0.5000000000067402
  endloop
endfacet
facet normal -0.9238795325112884 0.382683432365086 -1.9208679230159679e-13
  outer loop
    vertex -56.66140865865234 -48.501988021254334 5.500000000006737
    vertex -56.80760632432063 -48.85494040850054 0.500000000006915
    vertex -56.80760632432063 -48.85494040849803 5.497842000006912
  endloop
endfacet
facet normal -0.6087614290087102 0.7933533402912432 -3.982199071684372e-13
  outer loop
    vertex -57.576223224374985 -49.828172170964365 5.497842000007406
    vertex -57.82622322437501 -50.02000391796163 0.500000000007503
    vertex -57.82622322437501 -50.020003917959116 5.500000000007497
  endloop
endfacet
facet normal -0.6087614290087102 0.7933533402912432 -3.982199071684372e-13
  outer loop
    vertex -57.82622322437501 -50.02000391796163 0.500000000007503
    vertex -57.576223224374985 -49.828172170964365 5.497842000007406
    vertex -57.576223224374985 -49.82817217096688 0.5000000000074057
  endloop
endfacet
facet normal -0.3826834323651007 0.9238795325112823 -4.637386467404002e-13
  outer loop
    vertex -57.82622322437501 -50.020003917959116 5.500000000007497
    vertex -58.42917561161869 -50.26975497422321 0.5000000000076285
    vertex -58.42917561161869 -50.269754974220696 5.500000000007624
  endloop
endfacet
facet normal -0.3826834323651007 0.9238795325112823 -4.637386467404002e-13
  outer loop
    vertex -58.42917561161869 -50.26975497422321 0.5000000000076285
    vertex -57.82622322437501 -50.020003917959116 5.500000000007497
    vertex -57.82622322437501 -50.02000391796163 0.500000000007503
  endloop
endfacet
facet normal -0.130526192220051 0.9914448613738105 -4.976529488909159e-13
  outer loop
    vertex -58.42917561161869 -50.26975497422321 0.5000000000076285
    vertex -59.07622322437498 -50.354940408498024 5.500000000007668
    vertex -58.42917561161869 -50.269754974220696 5.500000000007624
  endloop
endfacet
facet normal -0.130526192220051 0.9914448613738105 -4.976529488909159e-13
  outer loop
    vertex -59.07622322437498 -50.354940408498024 5.500000000007668
    vertex -58.42917561161869 -50.26975497422321 0.5000000000076285
    vertex -59.07622322437498 -50.35494040850053 0.5000000000076708
  endloop
endfacet
facet normal 0.1305261922200454 0.9914448613738114 -4.976529488909163e-13
  outer loop
    vertex -59.07622322437498 -50.35494040850053 0.5000000000076708
    vertex -59.723270837131295 -50.269754974220696 5.500000000007624
    vertex -59.07622322437498 -50.354940408498024 5.500000000007668
  endloop
endfacet
facet normal 0.1305261922200454 0.9914448613738114 -4.976529488909163e-13
  outer loop
    vertex -59.723270837131295 -50.269754974220696 5.500000000007624
    vertex -59.07622322437498 -50.35494040850053 0.5000000000076708
    vertex -59.723270837131295 -50.26975497422321 0.5000000000076285
  endloop
endfacet
facet normal 1.0 0.0 0.0
  outer loop
    vertex -61.57622322437498 -34.85494040849804 5.49999999999989
    vertex -61.57622322437498 -14.854940408500543 0.49999999998985145
    vertex -61.57622322437498 -14.854940408498033 5.499999999989851
  endloop
endfacet
facet normal 1.0 0.0 0.0
  outer loop
    vertex -61.57622322437498 -14.854940408500543 0.49999999998985145
    vertex -61.57622322437498 -34.85494040849804 5.49999999999989
    vertex -61.57622322437498 -34.854940408500546 0.49999999999989053
  endloop
endfacet
facet normal 0.7022270253373619 0.7119530917734961 -3.573671983306674e-13
  outer loop
    vertex -53.772922365475885 -42.551639549598924 5.500000000003751
    vertex -61.57622322437498 -34.854940408500546 0.49999999999989053
    vertex -61.57622322437498 -34.85494040849804 5.49999999999989
  endloop
endfacet
facet normal 0.7022270253373619 0.7119530917734961 -3.573671983306674e-13
  outer loop
    vertex -61.57622322437498 -34.854940408500546 0.49999999999989053
    vertex -53.772922365475885 -42.551639549598924 5.500000000003751
    vertex -53.772922365475885 -42.55163954960144 0.5000000000037539
  endloop
endfacet
facet normal 0.0 5.019471765694923e-13 1.0
  outer loop
    vertex -61.57622322437498 -34.85494040849804 5.49999999999989
    vertex -66.57622322437497 -14.854940408498033 5.499999999989851
    vertex -66.57622322437497 -34.85494040849804 5.49999999999989
  endloop
endfacet
facet normal 0.0 5.019471765694923e-13 1.0
  outer loop
    vertex -66.57622322437497 -14.854940408498033 5.499999999989851
    vertex -61.57622322437498 -34.85494040849804 5.49999999999989
    vertex -61.57622322437498 -14.854940408498033 5.499999999989851
  endloop
endfacet
facet normal 0.0 1.0 -5.019471765694923e-13
  outer loop
    vertex -61.57622322437498 -14.854940408500543 0.49999999998985145
    vertex -66.57622322437497 -14.854940408498033 5.499999999989851
    vertex -61.57622322437498 -14.854940408498033 5.499999999989851
  endloop
endfacet
facet normal 0.0 1.0 -5.019471765694923e-13
  outer loop
    vertex -66.57622322437497 -14.854940408498033 5.499999999989851
    vertex -61.57622322437498 -14.854940408500543 0.49999999998985145
    vertex -66.57622322437497 -14.854940408500543 0.49999999998985145
  endloop
endfacet
facet normal 0.0 -1.0 5.019471765694923e-13
  outer loop
    vertex -62.869116443188425 -44.35494040849804 5.500000000004657
    vertex -61.57622322437498 -44.354940408497285 7.000000000004656
    vertex -62.869116443188425 -44.354940408497285 7.000000000004656
  endloop
endfacet
facet normal 0.0 -1.0 5.019471765694923e-13
  outer loop
    vertex -61.57622322437498 -44.354940408497285 7.000000000004656
    vertex -62.869116443188425 -44.35494040849804 5.500000000004657
    vertex -61.57622322437498 -44.35494040849804 5.500000000004657
  endloop
endfacet
facet normal -1.6561010839594086e-17 -5.019406170353818e-13 -1.0
  outer loop
    vertex -61.57622322437498 -34.854940408500546 0.49999999999989053
    vertex -61.49103779009766 -47.207892795744236 0.5000000000060916
    vertex -61.57622322437498 -47.85494040850054 0.5000000000064159
  endloop
endfacet
facet normal -1.6561010839594086e-17 -5.019406170353818e-13 -1.0
  outer loop
    vertex -61.49103779009766 -47.207892795744236 0.5000000000060916
    vertex -61.57622322437498 -34.854940408500546 0.49999999999989053
    vertex -61.241286733836084 -46.60494040850054 0.5000000000057857
  endloop
endfacet
facet normal -1.6561010839594086e-17 -5.019406170353818e-13 -1.0
  outer loop
    vertex -61.241286733836084 -46.60494040850054 0.5000000000057857
    vertex -61.57622322437498 -34.854940408500546 0.49999999999989053
    vertex -60.843990177341375 -46.087173455534185 0.500000000005529
  endloop
endfacet
facet normal -1.6561010839594086e-17 -5.019406170353818e-13 -1.0
  outer loop
    vertex -60.843990177341375 -46.087173455534185 0.500000000005529
    vertex -61.57622322437498 -34.854940408500546 0.49999999999989053
    vertex -60.326223224375 -45.689876899039454 0.5000000000053288
  endloop
endfacet
facet normal -1.6561010839594086e-17 -5.019406170353818e-13 -1.0
  outer loop
    vertex -60.326223224375 -45.689876899039454 0.5000000000053288
    vertex -61.57622322437498 -34.854940408500546 0.49999999999989053
    vertex -53.772922365475885 -42.55163954960144 0.5000000000037539
  endloop
endfacet
facet normal -1.6561010839594086e-17 -5.019406170353818e-13 -1.0
  outer loop
    vertex -60.326223224375 -45.689876899039454 0.5000000000053288
    vertex -53.772922365475885 -42.55163954960144 0.5000000000037539
    vertex -59.7232708371313 -45.44012584277788 0.5000000000052033
  endloop
endfacet
facet normal -1.6561010839594086e-17 -5.019406170353818e-13 -1.0
  outer loop
    vertex -59.7232708371313 -45.44012584277788 0.5000000000052033
    vertex -53.772922365475885 -42.55163954960144 0.5000000000037539
    vertex -59.07622322437498 -45.35494040850053 0.500000000005161
  endloop
endfacet
facet normal -1.6561010839594086e-17 -5.019406170353818e-13 -1.0
  outer loop
    vertex -59.07622322437498 -45.35494040850053 0.500000000005161
    vertex -53.772922365475885 -42.55163954960144 0.5000000000037539
    vertex -58.42917561161869 -45.44012584277787 0.5000000000052033
  endloop
endfacet
facet normal -1.6561010839594086e-17 -5.019406170353818e-13 -1.0
  outer loop
    vertex -58.42917561161869 -45.44012584277787 0.5000000000052033
    vertex -53.772922365475885 -42.55163954960144 0.5000000000037539
    vertex -57.82622322437501 -45.68987689903944 0.5000000000053288
  endloop
endfacet
facet normal -1.6561010839594086e-17 -5.019406170353818e-13 -1.0
  outer loop
    vertex -57.82622322437501 -45.68987689903944 0.5000000000053288
    vertex -53.772922365475885 -42.55163954960144 0.5000000000037539
    vertex -57.30845627140863 -46.08717345553417 0.5000000000055262
  endloop
endfacet
facet normal -1.6561010839594086e-17 -5.019406170353818e-13 -1.0
  outer loop
    vertex -57.30845627140863 -46.08717345553417 0.5000000000055262
    vertex -53.772922365475885 -42.55163954960144 0.5000000000037539
    vertex -56.91115971491389 -46.60494040850054 0.5000000000057857
  endloop
endfacet
facet normal -1.6561010839594086e-17 -5.019406170353818e-13 -1.0
  outer loop
    vertex -56.91115971491389 -46.60494040850054 0.5000000000057857
    vertex -53.772922365475885 -42.55163954960144 0.5000000000037539
    vertex -56.66140865865231 -47.207892795744236 0.5000000000060916
  endloop
endfacet
facet normal -1.6561010839594086e-17 -5.019406170353818e-13 -1.0
  outer loop
    vertex -56.66140865865231 -47.207892795744236 0.5000000000060916
    vertex -53.772922365475885 -42.55163954960144 0.5000000000037539
    vertex -56.576223224374985 -47.85494040850054 0.5000000000064159
  endloop
endfacet
facet normal -1.6561010839594086e-17 -5.019406170353818e-13 -1.0
  outer loop
    vertex -56.66140865865234 -48.50198802125684 0.5000000000067402
    vertex -51.707875721962395 -48.85494040850054 0.5000000000069179
    vertex -56.80760632432063 -48.85494040850054 0.500000000006915
  endloop
endfacet
facet normal -1.6561010839594086e-17 -5.019406170353818e-13 -1.0
  outer loop
    vertex -51.707875721962395 -48.85494040850054 0.5000000000069179
    vertex -56.66140865865234 -48.50198802125684 0.5000000000067402
    vertex -56.576223224374985 -47.85494040850054 0.5000000000064159
  endloop
endfacet
facet normal -1.6561010839594086e-17 -5.019406170353818e-13 -1.0
  outer loop
    vertex -51.707875721962395 -48.85494040850054 0.5000000000069179
    vertex -56.576223224374985 -47.85494040850054 0.5000000000064159
    vertex -53.772922365475885 -42.55163954960144 0.5000000000037539
  endloop
endfacet
facet normal -1.6561010839594086e-17 -5.019406170353818e-13 -1.0
  outer loop
    vertex -51.707875721962395 -48.85494040850054 0.5000000000069179
    vertex -53.772922365475885 -42.55163954960144 0.5000000000037539
    vertex -52.5810326959917 -44.10494040850054 0.5000000000045336
  endloop
endfacet
facet normal -1.6561010839594086e-17 -5.019406170353818e-13 -1.0
  outer loop
    vertex -51.707875721962395 -48.85494040850054 0.5000000000069179
    vertex -52.5810326959917 -44.10494040850054 0.5000000000045336
    vertex -51.83177952720699 -45.91379757023164 0.5000000000054416
  endloop
endfacet
facet normal -1.6561010839594086e-17 -5.019406170353818e-13 -1.0
  outer loop
    vertex -51.707875721962395 -48.85494040850054 0.5000000000069179
    vertex -51.83177952720699 -45.91379757023164 0.5000000000054416
    vertex -51.57622322437499 -47.85494040850053 0.5000000000064159
  endloop
endfacet
facet normal -1.6561010839594086e-17 -5.019406170353818e-13 -1.0
  outer loop
    vertex -66.57622322437497 -14.854940408500543 0.49999999998985145
    vertex -66.32066692154301 -49.79608324676944 0.5000000000073902
    vertex -66.57622322437498 -47.85494040850054 0.5000000000064159
  endloop
endfacet
facet normal -1.6561010839594086e-17 -5.019406170353818e-13 -1.0
  outer loop
    vertex -66.32066692154301 -49.79608324676944 0.5000000000073902
    vertex -66.57622322437497 -14.854940408500543 0.49999999998985145
    vertex -61.57622322437498 -14.854940408500543 0.49999999998985145
  endloop
endfacet
facet normal -1.6561010839594086e-17 -5.019406170353818e-13 -1.0
  outer loop
    vertex -66.32066692154301 -49.79608324676944 0.5000000000073902
    vertex -61.57622322437498 -14.854940408500543 0.49999999998985145
    vertex -65.57141375275827 -51.60494040850053 0.5000000000082983
  endloop
endfacet
facet normal -1.6561010839594086e-17 -5.019406170353818e-13 -1.0
  outer loop
    vertex -65.57141375275827 -51.60494040850053 0.5000000000082983
    vertex -61.57622322437498 -14.854940408500543 0.49999999998985145
    vertex -64.3795240832741 -53.15824126739964 0.500000000009078
  endloop
endfacet
facet normal -1.6561010839594086e-17 -5.019406170353818e-13 -1.0
  outer loop
    vertex -64.3795240832741 -53.15824126739964 0.500000000009078
    vertex -61.57622322437498 -14.854940408500543 0.49999999998985145
    vertex -62.82622322437499 -54.35013093688382 0.5000000000096758
  endloop
endfacet
facet normal -1.6561010839594086e-17 -5.019406170353818e-13 -1.0
  outer loop
    vertex -62.82622322437499 -54.35013093688382 0.5000000000096758
    vertex -61.57622322437498 -14.854940408500543 0.49999999998985145
    vertex -61.57622322437498 -47.85494040850054 0.5000000000064159
  endloop
endfacet
facet normal -1.6561010839594086e-17 -5.019406170353818e-13 -1.0
  outer loop
    vertex -62.82622322437499 -54.35013093688382 0.5000000000096758
    vertex -61.57622322437498 -47.85494040850054 0.5000000000064159
    vertex -61.017366062643895 -55.09938410566854 0.5000000000100523
  endloop
endfacet
facet normal -1.6561010839594086e-17 -5.019406170353818e-13 -1.0
  outer loop
    vertex -61.57622322437498 -47.85494040850054 0.5000000000064159
    vertex -61.57622322437498 -14.854940408500543 0.49999999998985145
    vertex -61.57622322437498 -34.854940408500546 0.49999999999989053
  endloop
endfacet
facet normal -1.6561010839594086e-17 -5.019406170353818e-13 -1.0
  outer loop
    vertex -61.017366062643895 -55.09938410566854 0.5000000000100523
    vertex -61.57622322437498 -47.85494040850054 0.5000000000064159
    vertex -61.49103779009764 -48.50198802125685 0.5000000000067402
  endloop
endfacet
facet normal -1.6561010839594086e-17 -5.019406170353818e-13 -1.0
  outer loop
    vertex -61.017366062643895 -55.09938410566854 0.5000000000100523
    vertex -61.49103779009764 -48.50198802125685 0.5000000000067402
    vertex -61.241286733836084 -49.10494040850054 0.5000000000070406
  endloop
endfacet
facet normal -1.6561010839594086e-17 -5.019406170353818e-13 -1.0
  outer loop
    vertex -61.017366062643895 -55.09938410566854 0.5000000000100523
    vertex -61.241286733836084 -49.10494040850054 0.5000000000070406
    vertex -60.84399017734136 -49.62270736146689 0.5000000000072999
  endloop
endfacet
facet normal -1.6561010839594086e-17 -5.019406170353818e-13 -1.0
  outer loop
    vertex -61.017366062643895 -55.09938410566854 0.5000000000100523
    vertex -60.84399017734136 -49.62270736146689 0.5000000000072999
    vertex -59.07622322437498 -55.35494040850054 0.5000000000101805
  endloop
endfacet
facet normal -1.6561010839594086e-17 -5.019406170353818e-13 -1.0
  outer loop
    vertex -59.07622322437498 -55.35494040850054 0.5000000000101805
    vertex -60.84399017734136 -49.62270736146689 0.5000000000072999
    vertex -60.326223224375 -50.02000391796163 0.500000000007503
  endloop
endfacet
facet normal -1.6561010839594086e-17 -5.019406170353818e-13 -1.0
  outer loop
    vertex -59.07622322437498 -55.35494040850054 0.5000000000101805
    vertex -60.326223224375 -50.02000391796163 0.500000000007503
    vertex -59.723270837131295 -50.26975497422321 0.5000000000076285
  endloop
endfacet
facet normal -1.6561010839594086e-17 -5.019406170353818e-13 -1.0
  outer loop
    vertex -59.07622322437498 -55.35494040850054 0.5000000000101805
    vertex -59.723270837131295 -50.26975497422321 0.5000000000076285
    vertex -59.07622322437498 -50.35494040850053 0.5000000000076708
  endloop
endfacet
facet normal -1.6561010839594086e-17 -5.019406170353818e-13 -1.0
  outer loop
    vertex -59.07622322437498 -55.35494040850054 0.5000000000101805
    vertex -59.07622322437498 -50.35494040850053 0.5000000000076708
    vertex -58.42917561161869 -50.26975497422321 0.5000000000076285
  endloop
endfacet
facet normal -1.6561010839594086e-17 -5.019406170353818e-13 -1.0
  outer loop
    vertex -59.07622322437498 -55.35494040850054 0.5000000000101805
    vertex -58.42917561161869 -50.26975497422321 0.5000000000076285
    vertex -58.42917561161869 -55.269754974223204 0.5000000000101382
  endloop
endfacet
facet normal -1.6561010839594086e-17 -5.019406170353818e-13 -1.0
  outer loop
    vertex -58.42917561161869 -55.269754974223204 0.5000000000101382
    vertex -58.42917561161869 -50.26975497422321 0.5000000000076285
    vertex -57.82622322437501 -50.02000391796163 0.500000000007503
  endloop
endfacet
facet normal -1.6561010839594086e-17 -5.019406170353818e-13 -1.0
  outer loop
    vertex -58.42917561161869 -55.269754974223204 0.5000000000101382
    vertex -57.82622322437501 -50.02000391796163 0.500000000007503
    vertex -57.576223224374985 -55.157461662119445 0.5000000000100818
  endloop
endfacet
facet normal -1.6561010839594086e-17 -5.019406170353818e-13 -1.0
  outer loop
    vertex -57.576223224374985 -55.157461662119445 0.5000000000100818
    vertex -57.82622322437501 -50.02000391796163 0.500000000007503
    vertex -57.576223224374985 -49.82817217096688 0.5000000000074057
  endloop
endfacet
facet normal 1.0 2.7755575615628914e-16 -1.393183281432598e-28
  outer loop
    vertex -57.576223224374985 -55.15746166211693 5.497842000010081
    vertex -57.576223224374985 -49.82817217096688 0.5000000000074057
    vertex -57.576223224374985 -49.828172170964365 5.497842000007406
  endloop
endfacet
facet normal 1.0 2.7755575615628914e-16 -1.393183281432598e-28
  outer loop
    vertex -57.576223224374985 -49.82817217096688 0.5000000000074057
    vertex -57.576223224374985 -55.15746166211693 5.497842000010081
    vertex -57.576223224374985 -55.157461662119445 0.5000000000100818
  endloop
endfacet
facet normal -2.7540805750945196e-16 -1.0 5.019471765694923e-13
  outer loop
    vertex -56.80760632432063 -48.85494040849803 5.497842000006912
    vertex -51.707875721962395 -48.85494040850054 0.5000000000069179
    vertex -51.707875721962395 -48.85494040849803 5.4978420000069175
  endloop
endfacet
facet normal -2.7540805750945196e-16 -1.0 5.019471765694923e-13
  outer loop
    vertex -51.707875721962395 -48.85494040850054 0.5000000000069179
    vertex -56.80760632432063 -48.85494040849803 5.497842000006912
    vertex -56.80760632432063 -48.85494040850054 0.500000000006915
  endloop
endfacet
endsolid esp32 socket
