solid esp32 socket
facet normal 5.294431394147481e-10 1.0 2.2274852699756945e-10
  outer loop
    vertex -1.2877658118091013 -31.688155100449954 0.5000000044448253
    vertex 1.2122341782828798 -31.68815510301202 3.5000000443215487
    vertex 45.41223419656965 -31.68815512840155 0.5000009006368286
  endloop
endfacet
facet normal 5.294431394147481e-10 1.0 2.2274852699756945e-10
  outer loop
    vertex 1.2122341782828798 -31.68815510301202 3.5000000443215487
    vertex -1.2877658118091013 -31.688155100449954 0.5000000044448253
    vertex -1.2877657792634911 -31.688155106861863 14.800000802973015
  endloop
endfacet
facet normal 5.294431394147481e-10 1.0 2.2274852699756945e-10
  outer loop
    vertex 1.2122341782828798 -31.68815510301202 3.5000000443215487
    vertex -1.2877657792634911 -31.688155106861863 14.800000802973015
    vertex 1.2122342129161034 -31.688155107169763 12.800000801483412
  endloop
endfacet
facet normal 5.294431394147481e-10 1.0 2.2274852699756945e-10
  outer loop
    vertex 1.2122342129161034 -31.688155107169763 12.800000801483412
    vertex -1.2877657792634911 -31.688155106861863 14.800000802973015
    vertex 45.412234178841224 -31.68815512836025 14.800000800924817
  endloop
endfacet
facet normal 5.294431394147481e-10 1.0 2.2274852699756945e-10
  outer loop
    vertex 45.41223419656965 -31.68815512840155 0.5000009006368286
    vertex 42.912234178841224 -31.688155127175982 3.500000859270509
    vertex 45.412234178841224 -31.68815512836025 14.800000800924817
  endloop
endfacet
facet normal 5.294431394147481e-10 1.0 2.2274852699756945e-10
  outer loop
    vertex 42.912234178841224 -31.688155127175982 3.500000859270509
    vertex 45.41223419656965 -31.68815512840155 0.5000009006368286
    vertex 1.2122341782828798 -31.68815510301202 3.5000000443215487
  endloop
endfacet
facet normal 5.294431394147481e-10 1.0 2.2274852699756945e-10
  outer loop
    vertex 45.412234178841224 -31.68815512836025 14.800000800924817
    vertex 42.912234178841224 -31.688155127175982 3.500000859270509
    vertex 42.912234178841224 -31.68815512716135 12.80000080092481
  endloop
endfacet
facet normal 5.294431394147481e-10 1.0 2.2274852699756945e-10
  outer loop
    vertex 45.412234178841224 -31.68815512836025 14.800000800924817
    vertex 42.912234178841224 -31.68815512716135 12.80000080092481
    vertex 1.2122342129161034 -31.688155107169763 12.800000801483412
  endloop
endfacet
facet normal -5.294431394147481e-10 -1.0 -2.2274852699756945e-10
  outer loop
    vertex 45.412234185980786 -51.68815512840156 0.5000008961818568
    vertex 42.91223416825236 -51.68815512717598 3.5000008548155375
    vertex 1.212234167694017 -51.688155103012015 3.5000000398665767
  endloop
endfacet
facet normal -5.294431394147481e-10 -1.0 -2.2274852699756945e-10
  outer loop
    vertex 42.91223416825236 -51.68815512717598 3.5000008548155375
    vertex 45.412234185980786 -51.68815512840156 0.5000008961818568
    vertex 45.41223416825236 -51.68815512836025 14.800000796469835
  endloop
endfacet
facet normal -5.294431394147481e-10 -1.0 -2.2274852699756945e-10
  outer loop
    vertex 42.91223416825236 -51.68815512717598 3.5000008548155375
    vertex 45.41223416825236 -51.68815512836025 14.800000796469835
    vertex 42.91223416825236 -51.68815512716136 12.800000796469838
  endloop
endfacet
facet normal -5.294431394147481e-10 -1.0 -2.2274852699756945e-10
  outer loop
    vertex 42.91223416825236 -51.68815512716136 12.800000796469838
    vertex 45.41223416825236 -51.68815512836025 14.800000796469835
    vertex 1.2122342023272408 -51.68815510716976 12.800000797028439
  endloop
endfacet
facet normal -5.294431394147481e-10 -1.0 -2.2274852699756945e-10
  outer loop
    vertex -1.2877658223979642 -51.68815510044996 0.49999999998985356
    vertex 1.212234167694017 -51.688155103012015 3.5000000398665767
    vertex -1.2877657898523538 -51.68815510686186 14.800000798518044
  endloop
endfacet
facet normal -5.294431394147481e-10 -1.0 -2.2274852699756945e-10
  outer loop
    vertex 1.212234167694017 -51.688155103012015 3.5000000398665767
    vertex -1.2877658223979642 -51.68815510044996 0.49999999998985356
    vertex 45.412234185980786 -51.68815512840156 0.5000008961818568
  endloop
endfacet
facet normal -5.294431394147481e-10 -1.0 -2.2274852699756945e-10
  outer loop
    vertex -1.2877657898523538 -51.68815510686186 14.800000798518044
    vertex 1.212234167694017 -51.688155103012015 3.5000000398665767
    vertex 1.2122342023272408 -51.68815510716976 12.800000797028439
  endloop
endfacet
facet normal -5.294431394147481e-10 -1.0 -2.2274852699756945e-10
  outer loop
    vertex -1.2877657898523538 -51.68815510686186 14.800000798518044
    vertex 1.2122342023272408 -51.68815510716976 12.800000797028439
    vertex 45.41223416825236 -51.68815512836025 14.800000796469835
  endloop
endfacet
facet normal -1.0 5.294431165662747e-10 -3.0253524678087326e-16
  outer loop
    vertex 42.91223416825236 -51.68815512716136 12.800000796469838
    vertex 42.912234178841224 -31.688155127175982 3.500000859270509
    vertex 42.91223416825236 -51.68815512717598 3.5000008548155375
  endloop
endfacet
facet normal -1.0 5.294431165662747e-10 -3.0253524678087326e-16
  outer loop
    vertex 42.912234178841224 -31.688155127175982 3.500000859270509
    vertex 42.91223416825236 -51.68815512716136 12.800000796469838
    vertex 42.912234178841224 -31.68815512716135 12.80000080092481
  endloop
endfacet
facet normal 1.0670814784857488e-19 2.2274852699756945e-10 -1.0
  outer loop
    vertex 1.2122342129161034 -31.688155107169763 12.800000801483412
    vertex 42.91223416825236 -51.68815512716136 12.800000796469838
    vertex 1.2122342023272408 -51.68815510716976 12.800000797028439
  endloop
endfacet
facet normal 1.0670814784857488e-19 2.2274852699756945e-10 -1.0
  outer loop
    vertex 42.91223416825236 -51.68815512716136 12.800000796469838
    vertex 1.2122342129161034 -31.688155107169763 12.800000801483412
    vertex 42.912234178841224 -31.68815512716135 12.80000080092481
  endloop
endfacet
facet normal 1.9698250133908235e-08 2.227485165684663e-10 -0.9999999999999998
  outer loop
    vertex -1.2877658118091013 -31.688155100449954 0.5000000044448253
    vertex 2.0622341982254104 -37.93815522133187 0.499999365257179
    vertex 2.062234194254589 -45.438155221331854 0.49999980810417394
  endloop
endfacet
facet normal 1.9698250133908235e-08 2.227485165684663e-10 -0.9999999999999998
  outer loop
    vertex 2.0622341982254104 -37.93815522133187 0.499999365257179
    vertex -1.2877658118091013 -31.688155100449954 0.5000000044448253
    vertex 45.41223419656965 -31.68815512840155 0.5000009006368286
  endloop
endfacet
facet normal 1.9698250133908235e-08 2.227485165684663e-10 -0.9999999999999998
  outer loop
    vertex 2.0622341982254104 -37.93815522133187 0.499999365257179
    vertex 45.41223419656965 -31.68815512840155 0.5000009006368286
    vertex 42.06223419878376 -37.93815522043182 0.4999993622368821
  endloop
endfacet
facet normal 1.9698250133908235e-08 2.227485165684663e-10 -0.9999999999999998
  outer loop
    vertex 42.06223419878376 -37.93815522043182 0.4999993622368821
    vertex 45.41223419656965 -31.68815512840155 0.5000009006368286
    vertex 45.412234185980786 -51.68815512840156 0.5000008961818568
  endloop
endfacet
facet normal 1.9698250133908235e-08 2.227485165684663e-10 -0.9999999999999998
  outer loop
    vertex -1.2877658223979642 -51.68815510044996 0.49999999998985356
    vertex 2.062234194254589 -45.438155221331854 0.49999980810417394
    vertex 45.412234185980786 -51.68815512840156 0.5000008961818568
  endloop
endfacet
facet normal 1.9698250133908235e-08 2.227485165684663e-10 -0.9999999999999998
  outer loop
    vertex 2.062234194254589 -45.438155221331854 0.49999980810417394
    vertex -1.2877658223979642 -51.68815510044996 0.49999999998985356
    vertex -1.2877658118091013 -31.688155100449954 0.5000000044448253
  endloop
endfacet
facet normal 1.9698250133908235e-08 2.227485165684663e-10 -0.9999999999999998
  outer loop
    vertex 45.412234185980786 -51.68815512840156 0.5000008961818568
    vertex 2.062234194254589 -45.438155221331854 0.49999980810417394
    vertex 42.06223419481293 -45.438155220431796 0.49999980508387704
  endloop
endfacet
facet normal 1.9698250133908235e-08 2.227485165684663e-10 -0.9999999999999998
  outer loop
    vertex 45.412234185980786 -51.68815512840156 0.5000008961818568
    vertex 42.06223419481293 -45.438155220431796 0.49999980508387704
    vertex 42.06223419878376 -37.93815522043182 0.4999993622368821
  endloop
endfacet
facet normal -1.0217124014854546e-19 -2.2274852699756945e-10 1.0
  outer loop
    vertex 45.41223416825236 -51.68815512836025 14.800000796469835
    vertex -1.2877657792634911 -31.688155106861863 14.800000802973015
    vertex -1.2877657898523538 -51.68815510686186 14.800000798518044
  endloop
endfacet
facet normal -1.0217124014854546e-19 -2.2274852699756945e-10 1.0
  outer loop
    vertex -1.2877657792634911 -31.688155106861863 14.800000802973015
    vertex 45.41223416825236 -51.68815512836025 14.800000796469835
    vertex 45.412234178841224 -31.68815512836025 14.800000800924817
  endloop
endfacet
facet normal 1.0 -5.294431394147481e-10 8.608374942175543e-21
  outer loop
    vertex 45.41223419656965 -31.68815512840155 0.5000009006368286
    vertex 45.41223416825236 -51.68815512836025 14.800000796469835
    vertex 45.412234185980786 -51.68815512840156 0.5000008961818568
  endloop
endfacet
facet normal 1.0 -5.294431394147481e-10 8.608374942175543e-21
  outer loop
    vertex 45.41223416825236 -51.68815512836025 14.800000796469835
    vertex 45.41223419656965 -31.68815512840155 0.5000009006368286
    vertex 45.412234178841224 -31.68815512836025 14.800000800924817
  endloop
endfacet
facet normal -1.0 5.294431385852321e-10 3.7240023973578866e-09
  outer loop
    vertex -1.2877657792634911 -31.688155106861863 14.800000802973015
    vertex -1.2877658223979642 -51.68815510044996 0.49999999998985356
    vertex -1.2877657898523538 -51.68815510686186 14.800000798518044
  endloop
endfacet
facet normal -1.0 5.294431385852321e-10 3.7240023973578866e-09
  outer loop
    vertex -1.2877658223979642 -51.68815510044996 0.49999999998985356
    vertex -1.2877657792634911 -31.688155106861863 14.800000802973015
    vertex -1.2877658118091013 -31.688155100449954 0.5000000044448253
  endloop
endfacet
facet normal 0.0 0.9999999999999983 -5.9046266281038197e-08
  outer loop
    vertex 2.062234194254589 -45.438155221331854 0.49999980810417394
    vertex 42.062234171561386 -45.43815510256198 3.5000004842662116
    vertex 42.06223419481293 -45.438155220431796 0.49999980508387704
  endloop
endfacet
facet normal 0.0 0.9999999999999983 -5.9046266281038197e-08
  outer loop
    vertex 42.062234171561386 -45.43815510256198 3.5000004842662116
    vertex 2.062234194254589 -45.438155221331854 0.49999980810417394
    vertex 2.062234171003039 -45.43815510346203 3.5000004872865196
  endloop
endfacet
facet normal 0.0 -0.9999999999999982 5.9046266281038197e-08
  outer loop
    vertex 42.06223417553221 -37.93815510256199 3.5000000414192165
    vertex 2.0622341982254104 -37.93815522133187 0.499999365257179
    vertex 42.06223419878376 -37.93815522043182 0.4999993622368821
  endloop
endfacet
facet normal 0.0 -0.9999999999999982 5.9046266281038197e-08
  outer loop
    vertex 2.0622341982254104 -37.93815522133187 0.499999365257179
    vertex 42.06223417553221 -37.93815510256199 3.5000000414192165
    vertex 2.0622341749738604 -37.938155103462044 3.5000000444395245
  endloop
endfacet
facet normal -1.0 5.29443714251987e-10 -1.7766488110946752e-09
  outer loop
    vertex 42.062234171561386 -45.43815510256198 3.5000004842662116
    vertex 42.06223419878376 -37.93815522043182 0.4999993622368821
    vertex 42.06223419481293 -45.438155220431796 0.49999980508387704
  endloop
endfacet
facet normal -1.0 5.29443714251987e-10 -1.7766488110946752e-09
  outer loop
    vertex 42.06223419878376 -37.93815522043182 0.4999993622368821
    vertex 42.062234171561386 -45.43815510256198 3.5000004842662116
    vertex 42.06223417553221 -37.93815510256199 3.5000000414192165
  endloop
endfacet
facet normal 1.0 -5.294431281781086e-10 -3.7240022414361295e-09
  outer loop
    vertex 1.212234167694017 -51.688155103012015 3.5000000398665767
    vertex 1.2122342129161034 -31.688155107169763 12.800000801483412
    vertex 1.2122342023272408 -51.68815510716976 12.800000797028439
  endloop
endfacet
facet normal 1.0 -5.294431281781086e-10 -3.7240022414361295e-09
  outer loop
    vertex 1.2122342129161034 -31.688155107169763 12.800000801483412
    vertex 1.212234167694017 -51.688155103012015 3.5000000398665767
    vertex 1.2122341782828798 -31.68815510301202 3.5000000443215487
  endloop
endfacet
facet normal 1.0 -5.29442680264235e-10 1.7766495160859954e-09
  outer loop
    vertex 2.0622341982254104 -37.93815522133187 0.499999365257179
    vertex 2.062234171003039 -45.43815510346203 3.5000004872865196
    vertex 2.062234194254589 -45.438155221331854 0.49999980810417394
  endloop
endfacet
facet normal 1.0 -5.29442680264235e-10 1.7766495160859954e-09
  outer loop
    vertex 2.062234171003039 -45.43815510346203 3.5000004872865196
    vertex 2.0622341982254104 -37.93815522133187 0.499999365257179
    vertex 2.0622341749738604 -37.938155103462044 3.5000000444395245
  endloop
endfacet
facet normal -7.655596620226109e-09 1.2989571949976843e-08 1.0
  outer loop
    vertex 1.212234167694017 -51.688155103012015 3.5000000398665767
    vertex 2.062234171003039 -45.43815510346203 3.5000004872865196
    vertex 1.2122341782828798 -31.68815510301202 3.5000000443215487
  endloop
endfacet
facet normal -7.655596620226109e-09 1.2989571949976843e-08 1.0
  outer loop
    vertex 2.062234171003039 -45.43815510346203 3.5000004872865196
    vertex 1.212234167694017 -51.688155103012015 3.5000000398665767
    vertex 42.91223416825236 -51.68815512717598 3.5000008548155375
  endloop
endfacet
facet normal -7.655596620226109e-09 1.2989571949976843e-08 1.0
  outer loop
    vertex 2.062234171003039 -45.43815510346203 3.5000004872865196
    vertex 42.91223416825236 -51.68815512717598 3.5000008548155375
    vertex 42.062234171561386 -45.43815510256198 3.5000004842662116
  endloop
endfacet
facet normal -7.655596620226109e-09 1.2989571949976843e-08 1.0
  outer loop
    vertex 42.062234171561386 -45.43815510256198 3.5000004842662116
    vertex 42.91223416825236 -51.68815512717598 3.5000008548155375
    vertex 42.06223417553221 -37.93815510256199 3.5000000414192165
  endloop
endfacet
facet normal -7.655596620226109e-09 1.2989571949976843e-08 1.0
  outer loop
    vertex 1.2122341782828798 -31.68815510301202 3.5000000443215487
    vertex 2.0622341749738604 -37.938155103462044 3.5000000444395245
    vertex 42.912234178841224 -31.688155127175982 3.500000859270509
  endloop
endfacet
facet normal -7.655596620226109e-09 1.2989571949976843e-08 1.0
  outer loop
    vertex 2.0622341749738604 -37.938155103462044 3.5000000444395245
    vertex 1.2122341782828798 -31.68815510301202 3.5000000443215487
    vertex 2.062234171003039 -45.43815510346203 3.5000004872865196
  endloop
endfacet
facet normal -7.655596620226109e-09 1.2989571949976843e-08 1.0
  outer loop
    vertex 42.912234178841224 -31.688155127175982 3.500000859270509
    vertex 2.0622341749738604 -37.938155103462044 3.5000000444395245
    vertex 42.06223417553221 -37.93815510256199 3.5000000414192165
  endloop
endfacet
facet normal -7.655596620226109e-09 1.2989571949976843e-08 1.0
  outer loop
    vertex 42.912234178841224 -31.688155127175982 3.500000859270509
    vertex 42.06223417553221 -37.93815510256199 3.5000000414192165
    vertex 42.91223416825236 -51.68815512717598 3.5000008548155375
  endloop
endfacet
endsolid esp32 socket
