solid Bridge proto 1
facet normal 4.501339049070236e-15 8.407864573817781e-13 -1.0
  outer loop
    vertex 227.98565510387957 111.09016836816309 1.6782689406162599
    vertex 227.68565739288425 106.4901680747953 1.6782486878318892
    vertex 226.69155987836663 110.91979749960855 1.67826894061679
  endloop
endfacet
facet normal 4.501339049070236e-15 8.407864573817781e-13 -1.0
  outer loop
    vertex 227.68565739288425 106.4901680747953 1.6782486878318892
    vertex 227.98565510387957 111.09016836816309 1.6782689406162599
    vertex 234.28565739288427 106.49016807479535 1.6782486878319343
  endloop
endfacet
facet normal 4.501339049070236e-15 8.407864573817781e-13 -1.0
  outer loop
    vertex 234.28565739288427 106.49016807479535 1.6782486878319343
    vertex 227.98565510387957 111.09016836816309 1.6782689406162599
    vertex 247.98565510387962 111.09016836816313 1.6782689406168465
  endloop
endfacet
facet normal 4.501339049070236e-15 8.407864573817781e-13 -1.0
  outer loop
    vertex 234.28565739288427 106.49016807479535 1.6782486878319343
    vertex 247.98565510387962 111.09016836816313 1.6782689406168465
    vertex 234.28565739288427 101.09016828422456 1.6782486878270528
  endloop
endfacet
facet normal 4.501339049070236e-15 8.407864573817781e-13 -1.0
  outer loop
    vertex 234.28565739288427 101.09016828422456 1.6782486878270528
    vertex 247.98565510387962 111.09016836816313 1.6782689406168465
    vertex 241.68565739287772 106.49016807479526 1.6782648900757844
  endloop
endfacet
facet normal 4.501339049070236e-15 8.407864573817781e-13 -1.0
  outer loop
    vertex 241.68565739287772 106.49016807479526 1.6782648900757844
    vertex 247.98565510387962 111.09016836816313 1.6782689406168465
    vertex 248.28565739287777 106.4901680747953 1.6782648900757844
  endloop
endfacet
facet normal 4.501339049070236e-15 8.407864573817781e-13 -1.0
  outer loop
    vertex 248.28565739287777 106.4901680747953 1.6782648900757844
    vertex 247.98565510387962 111.09016836816313 1.6782689406168465
    vertex 249.27975032939193 110.9197974996085 1.6782689406165194
  endloop
endfacet
facet normal 4.501339049070236e-15 8.407864573817781e-13 -1.0
  outer loop
    vertex 248.28565739287777 106.4901680747953 1.6782648900757844
    vertex 249.27975032939193 110.9197974996085 1.6782689406165194
    vertex 248.28565739287777 101.09016807479524 1.678264890071264
  endloop
endfacet
facet normal 4.501339049070236e-15 8.407864573817781e-13 -1.0
  outer loop
    vertex 223.15602597243412 107.38426359367567 1.6782689406135614
    vertex 222.98565510387937 92.59016836813636 1.6782689406018132
    vertex 222.98565510387937 106.090168368163 1.6782689406128055
  endloop
endfacet
facet normal 4.501339049070236e-15 8.407864573817781e-13 -1.0
  outer loop
    vertex 222.98565510387937 92.59016836813636 1.6782689406018132
    vertex 223.15602597243412 107.38426359367567 1.6782689406135614
    vertex 227.68565739288425 101.09016837397999 1.6782486878270078
  endloop
endfacet
facet normal 4.501339049070236e-15 8.407864573817781e-13 -1.0
  outer loop
    vertex 222.98565510387937 92.59016836813636 1.6782689406018132
    vertex 227.68565739288425 101.09016837397999 1.6782486878270078
    vertex 252.98565510387957 92.59016836813636 1.6782689406018132
  endloop
endfacet
facet normal 4.501339049070236e-15 8.407864573817781e-13 -1.0
  outer loop
    vertex 227.68565739288425 101.09016837397999 1.6782486878270078
    vertex 223.15602597243412 107.38426359367567 1.6782689406135614
    vertex 223.65552808495718 108.59016836816306 1.6782689406140152
  endloop
endfacet
facet normal 4.501339049070236e-15 8.407864573817781e-13 -1.0
  outer loop
    vertex 227.68565739288425 101.09016837397999 1.6782486878270078
    vertex 223.65552808495718 108.59016836816306 1.6782689406140152
    vertex 224.4501211979467 109.62570227409593 1.6782689406158087
  endloop
endfacet
facet normal 4.501339049070236e-15 8.407864573817781e-13 -1.0
  outer loop
    vertex 227.68565739288425 101.09016837397999 1.6782486878270078
    vertex 224.4501211979467 109.62570227409593 1.6782689406158087
    vertex 225.48565510387934 110.42029538708535 1.6782689406161782
  endloop
endfacet
facet normal 4.501339049070236e-15 8.407864573817781e-13 -1.0
  outer loop
    vertex 227.68565739288425 101.09016837397999 1.6782486878270078
    vertex 225.48565510387934 110.42029538708535 1.6782689406161782
    vertex 226.69155987836663 110.91979749960855 1.67826894061679
  endloop
endfacet
facet normal 4.501339049070236e-15 8.407864573817781e-13 -1.0
  outer loop
    vertex 227.68565739288425 101.09016837397999 1.6782486878270078
    vertex 226.69155987836663 110.91979749960855 1.67826894061679
    vertex 227.68565739288425 106.4901680747953 1.6782486878318892
  endloop
endfacet
facet normal 4.501339049070236e-15 8.407864573817781e-13 -1.0
  outer loop
    vertex 252.98565510387957 92.59016836813636 1.6782689406018132
    vertex 227.68565739288425 101.09016837397999 1.6782486878270078
    vertex 234.28565739288427 101.09016828422456 1.6782486878270528
  endloop
endfacet
facet normal 4.501339049070236e-15 8.407864573817781e-13 -1.0
  outer loop
    vertex 252.98565510387957 92.59016836813636 1.6782689406018132
    vertex 234.28565739288427 101.09016828422456 1.6782486878270528
    vertex 241.68565739287772 101.09016816455069 1.6782648900711739
  endloop
endfacet
facet normal 4.501339049070236e-15 8.407864573817781e-13 -1.0
  outer loop
    vertex 241.68565739287772 101.09016816455069 1.6782648900711739
    vertex 234.28565739288427 101.09016828422456 1.6782486878270528
    vertex 241.68565739287772 106.49016807479526 1.6782648900757844
  endloop
endfacet
facet normal 4.501339049070236e-15 8.407864573817781e-13 -1.0
  outer loop
    vertex 252.98565510387957 92.59016836813636 1.6782689406018132
    vertex 241.68565739287772 101.09016816455069 1.6782648900711739
    vertex 248.28565739287777 101.09016807479524 1.678264890071264
  endloop
endfacet
facet normal 4.501339049070236e-15 8.407864573817781e-13 -1.0
  outer loop
    vertex 252.98565510387957 92.59016836813636 1.6782689406018132
    vertex 248.28565739287777 101.09016807479524 1.678264890071264
    vertex 249.27975032939193 110.9197974996085 1.6782689406165194
  endloop
endfacet
facet normal 4.501339049070236e-15 8.407864573817781e-13 -1.0
  outer loop
    vertex 252.98565510387957 92.59016836813636 1.6782689406018132
    vertex 249.27975032939193 110.9197974996085 1.6782689406165194
    vertex 250.4856551038795 110.42029538708535 1.6782689406164037
  endloop
endfacet
facet normal 4.501339049070236e-15 8.407864573817781e-13 -1.0
  outer loop
    vertex 252.98565510387957 92.59016836813636 1.6782689406018132
    vertex 250.4856551038795 110.42029538708535 1.6782689406164037
    vertex 251.52118900981225 109.6257022740958 1.6782689406157185
  endloop
endfacet
facet normal 4.501339049070236e-15 8.407864573817781e-13 -1.0
  outer loop
    vertex 252.98565510387957 92.59016836813636 1.6782689406018132
    vertex 251.52118900981225 109.6257022740958 1.6782689406157185
    vertex 252.31578212280175 108.59016836816306 1.6782689406145115
  endloop
endfacet
facet normal 4.501339049070236e-15 8.407864573817781e-13 -1.0
  outer loop
    vertex 252.98565510387957 92.59016836813636 1.6782689406018132
    vertex 252.31578212280175 108.59016836816306 1.6782689406145115
    vertex 252.8152842353249 107.38426359367577 1.6782689406142381
  endloop
endfacet
facet normal 4.501339049070236e-15 8.407864573817781e-13 -1.0
  outer loop
    vertex 252.98565510387957 92.59016836813636 1.6782689406018132
    vertex 252.8152842353249 107.38426359367577 1.6782689406142381
    vertex 252.9856551038793 106.09016836816323 1.6782689406125348
  endloop
endfacet
facet normal 0.9238795325112883 0.38268343236508634 3.414357978115994e-13
  outer loop
    vertex 252.8152842353249 107.38426359367577 1.6782689406142381
    vertex 252.31578212280166 108.59016836816144 3.6782689406145983
    vertex 252.8152842353249 107.38426359367432 3.6782689406143696
  endloop
endfacet
facet normal 0.9238795325112883 0.38268343236508634 3.414357978115994e-13
  outer loop
    vertex 252.31578212280166 108.59016836816144 3.6782689406145983
    vertex 252.8152842353249 107.38426359367577 1.6782689406142381
    vertex 252.31578212280175 108.59016836816306 1.6782689406145115
  endloop
endfacet
facet normal 1.0 2.6721377188908723e-14 2.3235226512697303e-15
  outer loop
    vertex 252.98565510387957 92.59016836813636 1.6782689406018132
    vertex 252.98565510387957 94.09016836812758 41.178267066612634
    vertex 252.98565510387948 92.59016836812906 41.17826706661111
  endloop
endfacet
facet normal 1.0 2.6721377188908723e-14 2.3235226512697303e-15
  outer loop
    vertex 252.98565510387957 94.09016836812758 41.178267066612634
    vertex 252.98565510387957 92.59016836813636 1.6782689406018132
    vertex 252.98565510387957 94.09016836816114 3.678268940602633
  endloop
endfacet
facet normal 1.0 2.6721377188908723e-14 2.3235226512697303e-15
  outer loop
    vertex 252.98565510387957 94.09016836816114 3.678268940602633
    vertex 252.98565510387957 92.59016836813636 1.6782689406018132
    vertex 252.9856551038793 106.09016836816323 1.6782689406125348
  endloop
endfacet
facet normal 1.0 2.6721377188908723e-14 2.3235226512697303e-15
  outer loop
    vertex 252.98565510387957 94.09016836812758 41.178267066612634
    vertex 252.98565510387957 94.09016836816114 3.678268940602633
    vertex 252.98565510387948 94.0901683681301 38.67826706661239
  endloop
endfacet
facet normal 1.0 2.6721377188908723e-14 2.3235226512697303e-15
  outer loop
    vertex 252.98565510387948 94.0901683681301 38.67826706661239
    vertex 252.98565510387957 94.09016836816114 3.678268940602633
    vertex 252.98565510387948 94.09016836814008 27.6782689406021
  endloop
endfacet
facet normal 1.0 2.6721377188908723e-14 2.3235226512697303e-15
  outer loop
    vertex 252.98565510387957 94.09016836816114 3.678268940602633
    vertex 252.9856551038793 106.09016836816323 1.6782689406125348
    vertex 252.9856551038794 100.0901683681611 3.678268940607131
  endloop
endfacet
facet normal 1.0 2.6721377188908723e-14 2.3235226512697303e-15
  outer loop
    vertex 252.9856551038794 100.0901683681611 3.678268940607131
    vertex 252.9856551038793 106.09016836816323 1.6782689406125348
    vertex 252.9856551038792 106.09016836816183 3.678268940612892
  endloop
endfacet
facet normal -0.991444861373809 0.13052619222006248 1.0657059674044741e-13
  outer loop
    vertex 223.156025972434 107.384263593674 3.678268940614054
    vertex 222.98565510387937 106.090168368163 1.6782689406128055
    vertex 222.98565510387945 106.0901683681616 3.678268940613163
  endloop
endfacet
facet normal -0.991444861373809 0.13052619222006248 1.0657059674044741e-13
  outer loop
    vertex 222.98565510387937 106.090168368163 1.6782689406128055
    vertex 223.156025972434 107.384263593674 3.678268940614054
    vertex 223.15602597243412 107.38426359367567 1.6782689406135614
  endloop
endfacet
facet normal -0.3826834323651318 0.9238795325112694 7.87735028557106e-13
  outer loop
    vertex 225.48565510387934 110.42029538708368 3.678268940616671
    vertex 226.69155987836663 110.91979749960855 1.67826894061679
    vertex 225.48565510387934 110.42029538708535 1.6782689406161782
  endloop
endfacet
facet normal -0.3826834323651318 0.9238795325112694 7.87735028557106e-13
  outer loop
    vertex 226.69155987836663 110.91979749960855 1.67826894061679
    vertex 225.48565510387934 110.42029538708368 3.678268940616671
    vertex 226.69155987836672 110.9197974996068 3.678268940616335
  endloop
endfacet
facet normal 0.9914448613738354 0.13052619221986217 1.2610487665875565e-13
  outer loop
    vertex 252.9856551038793 106.09016836816323 1.6782689406125348
    vertex 252.8152842353249 107.38426359367432 3.6782689406143696
    vertex 252.9856551038792 106.09016836816183 3.678268940612892
  endloop
endfacet
facet normal 0.9914448613738354 0.13052619221986217 1.2610487665875565e-13
  outer loop
    vertex 252.8152842353249 107.38426359367432 3.6782689406143696
    vertex 252.9856551038793 106.09016836816323 1.6782689406125348
    vertex 252.8152842353249 107.38426359367577 1.6782689406142381
  endloop
endfacet
facet normal -0.13052619221997966 0.9914448613738199 8.472682851743383e-13
  outer loop
    vertex 226.69155987836663 110.91979749960855 1.67826894061679
    vertex 227.98565510387957 111.09016836816141 3.6782689406168427
    vertex 227.98565510387957 111.09016836816309 1.6782689406162599
  endloop
endfacet
facet normal -0.13052619221997966 0.9914448613738199 8.472682851743383e-13
  outer loop
    vertex 227.98565510387957 111.09016836816141 3.6782689406168427
    vertex 226.69155987836663 110.91979749960855 1.67826894061679
    vertex 226.69155987836672 110.9197974996068 3.678268940616335
  endloop
endfacet
facet normal -1.3045120539345587e-15 1.0 8.559580395530837e-13
  outer loop
    vertex 227.98565510387957 111.09016836816141 3.6782689406168427
    vertex 247.98565510387962 111.09016836816313 1.6782689406168465
    vertex 227.98565510387957 111.09016836816309 1.6782689406162599
  endloop
endfacet
facet normal -1.3045120539345587e-15 1.0 8.559580395530837e-13
  outer loop
    vertex 247.98565510387962 111.09016836816313 1.6782689406168465
    vertex 227.98565510387957 111.09016836816141 3.6782689406168427
    vertex 247.98565510387962 111.09016836816141 3.678268940616617
  endloop
endfacet
facet normal 0.7933533402912476 0.6087614290087044 5.154356115237568e-13
  outer loop
    vertex 252.31578212280175 108.59016836816306 1.6782689406145115
    vertex 251.52118900981242 109.62570227409427 3.678268940616076
    vertex 252.31578212280166 108.59016836816144 3.6782689406145983
  endloop
endfacet
facet normal 0.7933533402912476 0.6087614290087044 5.154356115237568e-13
  outer loop
    vertex 251.52118900981242 109.62570227409427 3.678268940616076
    vertex 252.31578212280175 108.59016836816306 1.6782689406145115
    vertex 251.52118900981225 109.6257022740958 1.6782689406157185
  endloop
endfacet
facet normal -0.6087614290087628 0.7933533402912029 6.817564445506734e-13
  outer loop
    vertex 224.4501211979467 109.62570227409412 3.6782689406156246
    vertex 225.48565510387934 110.42029538708535 1.6782689406161782
    vertex 224.4501211979467 109.62570227409593 1.6782689406158087
  endloop
endfacet
facet normal -0.6087614290087628 0.7933533402912029 6.817564445506734e-13
  outer loop
    vertex 225.48565510387934 110.42029538708535 1.6782689406161782
    vertex 224.4501211979467 109.62570227409412 3.6782689406156246
    vertex 225.48565510387934 110.42029538708368 3.678268940616671
  endloop
endfacet
facet normal 0.3826834323650599 0.9238795325112991 7.987818834633436e-13
  outer loop
    vertex 249.27975032939193 110.9197974996085 1.6782689406165194
    vertex 250.4856551038795 110.42029538708368 3.6782689406169866
    vertex 250.4856551038795 110.42029538708535 1.6782689406164037
  endloop
endfacet
facet normal 0.3826834323650599 0.9238795325112991 7.987818834633436e-13
  outer loop
    vertex 250.4856551038795 110.42029538708368 3.6782689406169866
    vertex 249.27975032939193 110.9197974996085 1.6782689406165194
    vertex 249.27975032939202 110.91979749960674 3.678268940616606
  endloop
endfacet
facet normal -0.7933533402912392 0.6087614290087154 5.306400309319837e-13
  outer loop
    vertex 224.4501211979467 109.62570227409412 3.6782689406156246
    vertex 223.65552808495718 108.59016836816306 1.6782689406140152
    vertex 223.65552808495727 108.59016836816144 3.678268940614643
  endloop
endfacet
facet normal -0.7933533402912392 0.6087614290087154 5.306400309319837e-13
  outer loop
    vertex 223.65552808495718 108.59016836816306 1.6782689406140152
    vertex 224.4501211979467 109.62570227409412 3.6782689406156246
    vertex 224.4501211979467 109.62570227409593 1.6782689406158087
  endloop
endfacet
facet normal 0.1305261922200535 0.9914448613738103 8.518092038750944e-13
  outer loop
    vertex 247.98565510387962 111.09016836816313 1.6782689406168465
    vertex 249.27975032939202 110.91979749960674 3.678268940616606
    vertex 249.27975032939193 110.9197974996085 1.6782689406165194
  endloop
endfacet
facet normal 0.1305261922200535 0.9914448613738103 8.518092038750944e-13
  outer loop
    vertex 249.27975032939202 110.91979749960674 3.678268940616606
    vertex 247.98565510387962 111.09016836816313 1.6782689406168465
    vertex 247.98565510387962 111.09016836816141 3.678268940616617
  endloop
endfacet
facet normal 0.6087614290087111 0.7933533402912426 6.796389803771172e-13
  outer loop
    vertex 250.4856551038795 110.42029538708535 1.6782689406164037
    vertex 251.52118900981242 109.62570227409427 3.678268940616076
    vertex 251.52118900981225 109.6257022740958 1.6782689406157185
  endloop
endfacet
facet normal 0.6087614290087111 0.7933533402912426 6.796389803771172e-13
  outer loop
    vertex 251.52118900981242 109.62570227409427 3.678268940616076
    vertex 250.4856551038795 110.42029538708535 1.6782689406164037
    vertex 250.4856551038795 110.42029538708368 3.6782689406169866
  endloop
endfacet
facet normal -0.9238795325112875 0.3826834323650879 3.325541495407564e-13
  outer loop
    vertex 223.65552808495727 108.59016836816144 3.678268940614643
    vertex 223.15602597243412 107.38426359367567 1.6782689406135614
    vertex 223.156025972434 107.384263593674 3.678268940614054
  endloop
endfacet
facet normal -0.9238795325112875 0.3826834323650879 3.325541495407564e-13
  outer loop
    vertex 223.15602597243412 107.38426359367567 1.6782689406135614
    vertex 223.65552808495727 108.59016836816144 3.678268940614643
    vertex 223.65552808495718 108.59016836816306 1.6782689406140152
  endloop
endfacet
facet normal -1.0 -2.2620794126737095e-15 -5.3920173280233124e-17
  outer loop
    vertex 248.28565739287765 106.49016807479367 3.6782689406130107
    vertex 248.28565739287777 101.09016807479524 1.678264890071264
    vertex 248.28565739287765 101.09016807479357 3.678268940608039
  endloop
endfacet
facet normal -1.0 -2.2620794126737095e-15 -5.3920173280233124e-17
  outer loop
    vertex 248.28565739287777 101.09016807479524 1.678264890071264
    vertex 248.28565739287765 106.49016807479367 3.6782689406130107
    vertex 248.28565739287777 106.4901680747953 1.6782648900757844
  endloop
endfacet
facet normal -1.498801083243961e-15 -1.0 -8.622039978124639e-13
  outer loop
    vertex 248.28565739287765 106.49016807479367 3.6782689406130107
    vertex 241.68565739287772 106.49016807479526 1.6782648900757844
    vertex 248.28565739287777 106.4901680747953 1.6782648900757844
  endloop
endfacet
facet normal -1.498801083243961e-15 -1.0 -8.622039978124639e-13
  outer loop
    vertex 241.68565739287772 106.49016807479526 1.6782648900757844
    vertex 248.28565739287765 106.49016807479367 3.6782689406130107
    vertex 241.68565739287763 106.49016807479363 3.6782689406130107
  endloop
endfacet
facet normal 1.4959240808758608e-08 1.0 8.521252895503461e-13
  outer loop
    vertex 241.68565739287763 101.09016816454901 3.678268940607994
    vertex 248.28565739287777 101.09016807479524 1.678264890071264
    vertex 241.68565739287772 101.09016816455069 1.6782648900711739
  endloop
endfacet
facet normal 1.4959240808758608e-08 1.0 8.521252895503461e-13
  outer loop
    vertex 248.28565739287777 101.09016807479524 1.678264890071264
    vertex 241.68565739287763 101.09016816454901 3.678268940607994
    vertex 248.28565739287765 101.09016807479357 3.678268940608039
  endloop
endfacet
facet normal 1.4959240808758608e-08 1.0 8.521252895503461e-13
  outer loop
    vertex 248.28565739287765 101.09016807479357 3.678268940608039
    vertex 241.68565739287763 101.09016816454901 3.678268940607994
    vertex 245.48475810387936 101.09016811220513 3.6782689406081293
  endloop
endfacet
facet normal -1.0 7.216449660063981e-16 -5.3919008597777187e-17
  outer loop
    vertex 234.2856573928842 106.49016807479373 3.6782689406131457
    vertex 234.28565739288427 101.09016828422456 1.6782486878270528
    vertex 234.2856573928842 101.09016828422291 3.6782689406085805
  endloop
endfacet
facet normal -1.0 7.216449660063981e-16 -5.3919008597777187e-17
  outer loop
    vertex 234.28565739288427 101.09016828422456 1.6782486878270528
    vertex 234.2856573928842 106.49016807479373 3.6782689406131457
    vertex 234.28565739288427 106.49016807479535 1.6782486878319343
  endloop
endfacet
facet normal 1.4959237945588696e-08 1.0 8.622040569327166e-13
  outer loop
    vertex 227.68565739288425 101.09016837397829 3.6782689406085805
    vertex 234.28565739288427 101.09016828422456 1.6782486878270528
    vertex 227.68565739288425 101.09016837397999 1.6782486878270078
  endloop
endfacet
facet normal 1.4959237945588696e-08 1.0 8.622040569327166e-13
  outer loop
    vertex 234.28565739288427 101.09016828422456 1.6782486878270528
    vertex 227.68565739288425 101.09016837397829 3.6782689406085805
    vertex 234.2856573928842 101.09016828422291 3.6782689406085805
  endloop
endfacet
facet normal 1.0 1.3031154883296449e-16 2.0962170805272633e-14
  outer loop
    vertex 241.68565739287772 101.09016816455069 1.6782648900711739
    vertex 241.68565739287763 106.49016807479363 3.6782689406130107
    vertex 241.68565739287763 101.09016816454901 3.678268940607994
  endloop
endfacet
facet normal 1.0 1.3031154883296449e-16 2.0962170805272633e-14
  outer loop
    vertex 241.68565739287763 106.49016807479363 3.6782689406130107
    vertex 241.68565739287772 101.09016816455069 1.6782648900711739
    vertex 241.68565739287772 106.49016807479526 1.6782648900757844
  endloop
endfacet
facet normal 9.612945793603437e-10 0.7071067799842149 0.7071067823888803
  outer loop
    vertex 240.48565510387942 96.09016811220098 8.678268940604122
    vertex 241.68565739287763 101.09016816454901 3.678268940607994
    vertex 240.48565510387934 101.09016811220513 3.678268940608535
  endloop
endfacet
facet normal 9.612945793603437e-10 0.7071067799842149 0.7071067823888803
  outer loop
    vertex 241.68565739287763 101.09016816454901 3.678268940607994
    vertex 240.48565510387942 96.09016811220098 8.678268940604122
    vertex 245.48475810387936 96.090168112201 8.678268940604031
  endloop
endfacet
facet normal 9.612945793603437e-10 0.7071067799842149 0.7071067823888803
  outer loop
    vertex 241.68565739287763 101.09016816454901 3.678268940607994
    vertex 245.48475810387936 96.090168112201 8.678268940604031
    vertex 245.48475810387936 101.09016811220513 3.6782689406081293
  endloop
endfacet
facet normal 1.0 -2.248201624865988e-15 5.391900859155913e-17
  outer loop
    vertex 227.68565739288425 101.09016837397999 1.6782486878270078
    vertex 227.68565739288425 106.49016807479367 3.678268940613101
    vertex 227.68565739288425 101.09016837397829 3.6782689406085805
  endloop
endfacet
facet normal 1.0 -2.248201624865988e-15 5.391900859155913e-17
  outer loop
    vertex 227.68565739288425 106.49016807479367 3.678268940613101
    vertex 227.68565739288425 101.09016837397999 1.6782486878270078
    vertex 227.68565739288425 106.4901680747953 1.6782486878318892
  endloop
endfacet
facet normal -4.534804461160057e-16 1.0 8.885721171496518e-13
  outer loop
    vertex 240.48565510387942 104.09016836813014 38.678267066620606
    vertex 245.48475810387936 104.09016836813149 37.17826706662095
    vertex 240.48565510387934 104.09016836813149 37.17826706662095
  endloop
endfacet
facet normal -4.534804461160057e-16 1.0 8.885721171496518e-13
  outer loop
    vertex 245.48475810387936 104.09016836813149 37.17826706662095
    vertex 240.48565510387942 104.09016836813014 38.678267066620606
    vertex 245.48475810387936 104.09016836813018 38.6782670666211
  endloop
endfacet
facet normal -3.3340370224575405e-16 0.928476690884941 0.3713906763548996
  outer loop
    vertex 240.48565510387954 103.09016836812799 41.17826706662017
    vertex 245.48475810387936 104.09016836813018 38.6782670666211
    vertex 240.48565510387942 104.09016836813014 38.678267066620606
  endloop
endfacet
facet normal -3.3340370224575405e-16 0.928476690884941 0.3713906763548996
  outer loop
    vertex 245.48475810387936 104.09016836813018 38.6782670666211
    vertex 240.48565510387954 103.09016836812799 41.17826706662017
    vertex 245.48475810387947 103.09016836812799 41.17826706662017
  endloop
endfacet
facet normal -9.835569120188318e-16 0.7071067811871816 -0.7071067811859134
  outer loop
    vertex 240.48565510387934 104.09016836813149 37.17826706662095
    vertex 245.48475810387927 96.09016811218311 29.178266810658208
    vertex 240.48565510387925 96.09016811218304 29.178266810658208
  endloop
endfacet
facet normal -9.835569120188318e-16 0.7071067811871816 -0.7071067811859134
  outer loop
    vertex 245.48475810387927 96.09016811218311 29.178266810658208
    vertex 240.48565510387934 104.09016836813149 37.17826706662095
    vertex 245.48475810387936 104.09016836813149 37.17826706662095
  endloop
endfacet
facet normal 4.534804461160057e-16 -1.0 -8.562365014827059e-13
  outer loop
    vertex 245.48475810387936 99.09016836812798 41.17826706661622
    vertex 240.48565510387942 99.09016836813008 38.67826706661675
    vertex 245.48475810387936 99.09016836813011 38.67826706661629
  endloop
endfacet
facet normal 4.534804461160057e-16 -1.0 -8.562365014827059e-13
  outer loop
    vertex 240.48565510387942 99.09016836813008 38.67826706661675
    vertex 245.48475810387936 99.09016836812798 41.17826706661622
    vertex 240.48565510387942 99.09016836812798 41.17826706661668
  endloop
endfacet
facet normal 2.081668171172168e-15 -1.0 -8.622040569327166e-13
  outer loop
    vertex 234.28565739288427 106.49016807479535 1.6782486878319343
    vertex 227.68565739288425 106.49016807479367 3.678268940613101
    vertex 227.68565739288425 106.4901680747953 1.6782486878318892
  endloop
endfacet
facet normal 2.081668171172168e-15 -1.0 -8.622040569327166e-13
  outer loop
    vertex 227.68565739288425 106.49016807479367 3.678268940613101
    vertex 234.28565739288427 106.49016807479535 1.6782486878319343
    vertex 234.2856573928842 106.49016807479373 3.6782689406131457
  endloop
endfacet
facet normal -2.7039546041311486e-15 1.0 8.764921737337748e-13
  outer loop
    vertex 240.48565510387942 96.09016811220098 8.678268940604122
    vertex 245.48475810387927 96.09016811218311 29.178266810658208
    vertex 245.48475810387936 96.090168112201 8.678268940604031
  endloop
endfacet
facet normal -2.7039546041311486e-15 1.0 8.764921737337748e-13
  outer loop
    vertex 245.48475810387927 96.09016811218311 29.178266810658208
    vertex 240.48565510387942 96.09016811220098 8.678268940604122
    vertex 240.48565510387925 96.09016811218304 29.178266810658208
  endloop
endfacet
facet normal 2.35983985334221e-16 -8.689335456886414e-13 1.0
  outer loop
    vertex 245.48475810387936 99.09016836812798 41.17826706661622
    vertex 240.48565510387954 103.09016836812799 41.17826706662017
    vertex 240.48565510387942 99.09016836812798 41.17826706661668
  endloop
endfacet
facet normal 2.35983985334221e-16 -8.689335456886414e-13 1.0
  outer loop
    vertex 240.48565510387954 103.09016836812799 41.17826706662017
    vertex 245.48475810387936 99.09016836812798 41.17826706661622
    vertex 245.48475810387947 103.09016836812799 41.17826706662017
  endloop
endfacet
facet normal -1.0 6.924961429534827e-15 -8.310067003395944e-17
  outer loop
    vertex 240.48565510387942 96.09016811220098 8.678268940604122
    vertex 240.48565510387942 94.09016836815506 10.678268684646623
    vertex 240.48565510387925 96.09016811218304 29.178266810658208
  endloop
endfacet
facet normal -1.0 6.924961429534827e-15 -8.310067003395944e-17
  outer loop
    vertex 240.48565510387954 103.09016836812799 41.17826706662017
    vertex 240.48565510387942 99.09016836813008 38.67826706661675
    vertex 240.48565510387942 99.09016836812798 41.17826706661668
  endloop
endfacet
facet normal -1.0 6.924961429534827e-15 -8.310067003395944e-17
  outer loop
    vertex 240.48565510387934 94.0901683681386 29.17826681065648
    vertex 240.48565510387925 96.09016811218304 29.178266810658208
    vertex 240.48565510387942 94.09016836815506 10.678268684646623
  endloop
endfacet
facet normal -1.0 6.924961429534827e-15 -8.310067003395944e-17
  outer loop
    vertex 240.48565510387925 96.09016811218304 29.178266810658208
    vertex 240.48565510387934 94.0901683681386 29.17826681065648
    vertex 240.48565510387942 99.09016836813008 38.67826706661675
  endloop
endfacet
facet normal -1.0 6.924961429534827e-15 -8.310067003395944e-17
  outer loop
    vertex 240.48565510387925 96.09016811218304 29.178266810658208
    vertex 240.48565510387942 99.09016836813008 38.67826706661675
    vertex 240.48565510387934 104.09016836813149 37.17826706662095
  endloop
endfacet
facet normal -1.0 6.924961429534827e-15 -8.310067003395944e-17
  outer loop
    vertex 240.48565510387934 104.09016836813149 37.17826706662095
    vertex 240.48565510387942 99.09016836813008 38.67826706661675
    vertex 240.48565510387954 103.09016836812799 41.17826706662017
  endloop
endfacet
facet normal -1.0 6.924961429534827e-15 -8.310067003395944e-17
  outer loop
    vertex 240.48565510387934 104.09016836813149 37.17826706662095
    vertex 240.48565510387954 103.09016836812799 41.17826706662017
    vertex 240.48565510387942 104.09016836813014 38.678267066620606
  endloop
endfacet
facet normal 0.5079876736179668 0.7620726434159372 -0.4014894887904938
  outer loop
    vertex 245.48475810387936 99.09016836813011 38.67826706661629
    vertex 252.98565510387948 94.0901683681301 38.67826706661239
    vertex 245.48475810387947 94.09016836813855 29.187699259842418
  endloop
endfacet
facet normal -3.727515610045019e-15 1.0 8.863556052255751e-13
  outer loop
    vertex 245.48475810387936 94.09016836815498 10.678268684646623
    vertex 252.98565510387948 94.09016836814008 27.6782689406021
    vertex 252.98565510387957 94.09016836816114 3.678268940602633
  endloop
endfacet
facet normal -3.727515610045019e-15 1.0 8.863556052255751e-13
  outer loop
    vertex 252.98565510387948 94.09016836814008 27.6782689406021
    vertex 245.48475810387936 94.09016836815498 10.678268684646623
    vertex 245.48475810387947 94.09016836813855 29.187699259842418
  endloop
endfacet
facet normal -3.727515610045019e-15 1.0 8.863556052255751e-13
  outer loop
    vertex 252.98565510387948 94.09016836814008 27.6782689406021
    vertex 245.48475810387947 94.09016836813855 29.187699259842418
    vertex 252.98565510387948 94.0901683681301 38.67826706661239
  endloop
endfacet
facet normal -0.5081140324085177 0.7621710486131188 -0.4011426463560498
  outer loop
    vertex 240.48565510387942 99.09016836813008 38.67826706661675
    vertex 240.48565510387934 94.0901683681386 29.17826681065648
    vertex 232.9856551038795 94.0901683681301 38.67826706661239
  endloop
endfacet
facet normal 0.7933533402912363 -5.362338492180725e-13 0.6087614290087193
  outer loop
    vertex 252.65071861334056 92.59016836812799 42.428267066611056
    vertex 252.2534220568459 94.0901683681261 42.94603401957894
    vertex 252.2534220568458 92.59016836812756 42.94603401957742
  endloop
endfacet
facet normal 0.7933533402912363 -5.362338492180725e-13 0.6087614290087193
  outer loop
    vertex 252.2534220568459 94.0901683681261 42.94603401957894
    vertex 252.65071861334056 92.59016836812799 42.428267066611056
    vertex 252.65071861334056 94.09016836812653 42.42826706661258
  endloop
endfacet
facet normal 0.38268343236504687 -8.036535351313836e-13 0.9238795325113047
  outer loop
    vertex 251.73565510387948 92.59016836812722 43.34333057607213
    vertex 251.13270271663575 94.09016836812555 43.593081632335235
    vertex 251.13270271663575 92.59016836812701 43.59308163233389
  endloop
endfacet
facet normal 0.38268343236504687 -8.036535351313836e-13 0.9238795325113047
  outer loop
    vertex 251.13270271663575 94.09016836812555 43.593081632335235
    vertex 251.73565510387948 92.59016836812722 43.34333057607213
    vertex 251.73565510387948 94.09016836812576 43.34333057607347
  endloop
endfacet
facet normal 0.991444861373803 -1.3603890894046825e-13 0.1305261922201071
  outer loop
    vertex 252.98565510387948 92.59016836812906 41.17826706661111
    vertex 252.90046966960224 94.09016836812704 41.82531467936865
    vertex 252.90046966960216 92.59016836812852 41.82531467936754
  endloop
endfacet
facet normal 0.991444861373803 -1.3603890894046825e-13 0.1305261922201071
  outer loop
    vertex 252.90046966960224 94.09016836812704 41.82531467936865
    vertex 252.98565510387948 92.59016836812906 41.17826706661111
    vertex 252.98565510387957 94.09016836812758 41.178267066612634
  endloop
endfacet
facet normal 0.9238795325112766 -3.423475010579256e-13 0.38268343236511415
  outer loop
    vertex 252.90046966960216 92.59016836812852 41.82531467936754
    vertex 252.65071861334056 94.09016836812653 42.42826706661258
    vertex 252.65071861334056 92.59016836812799 42.428267066611056
  endloop
endfacet
facet normal 0.9238795325112766 -3.423475010579256e-13 0.38268343236511415
  outer loop
    vertex 252.65071861334056 94.09016836812653 42.42826706661258
    vertex 252.90046966960216 92.59016836812852 41.82531467936754
    vertex 252.90046966960224 94.09016836812704 41.82531467936865
  endloop
endfacet
facet normal 7.651548112257363e-15 -9.328527945709943e-13 1.0
  outer loop
    vertex 250.48565510387942 92.59016836812695 43.67826706661122
    vertex 235.48565510387948 94.09016836812549 43.67826706661275
    vertex 235.48565510387948 92.59016836812691 43.67826706661104
  endloop
endfacet
facet normal 7.651548112257363e-15 -9.328527945709943e-13 1.0
  outer loop
    vertex 235.48565510387948 94.09016836812549 43.67826706661275
    vertex 250.48565510387942 92.59016836812695 43.67826706661122
    vertex 250.4856551038795 94.09016836812549 43.678267066612335
  endloop
endfacet
facet normal 0.13052619222005038 -8.681423478845639e-13 0.9914448613738106
  outer loop
    vertex 251.13270271663575 92.59016836812701 43.59308163233389
    vertex 250.4856551038795 94.09016836812549 43.678267066612335
    vertex 250.48565510387942 92.59016836812695 43.67826706661122
  endloop
endfacet
facet normal 0.13052619222005038 -8.681423478845639e-13 0.9914448613738106
  outer loop
    vertex 250.4856551038795 94.09016836812549 43.678267066612335
    vertex 251.13270271663575 92.59016836812701 43.59308163233389
    vertex 251.13270271663575 94.09016836812555 43.593081632335235
  endloop
endfacet
facet normal 5.307331922225463e-15 -8.256857100223504e-13 1.0
  outer loop
    vertex 252.98565510387948 94.0901683681301 38.67826706661239
    vertex 240.48565510387942 99.09016836813008 38.67826706661675
    vertex 232.9856551038795 94.0901683681301 38.67826706661239
  endloop
endfacet
facet normal 5.307331922225463e-15 -8.256857100223504e-13 1.0
  outer loop
    vertex 240.48565510387942 99.09016836813008 38.67826706661675
    vertex 252.98565510387948 94.0901683681301 38.67826706661239
    vertex 245.48475810387936 99.09016836813011 38.67826706661629
  endloop
endfacet
facet normal 0.6087614290087033 -6.935767467220384e-13 0.7933533402912485
  outer loop
    vertex 252.2534220568458 92.59016836812756 42.94603401957742
    vertex 251.73565510387948 94.09016836812576 43.34333057607347
    vertex 251.73565510387948 92.59016836812722 43.34333057607213
  endloop
endfacet
facet normal 0.6087614290087033 -6.935767467220384e-13 0.7933533402912485
  outer loop
    vertex 251.73565510387948 94.09016836812576 43.34333057607347
    vertex 252.2534220568458 92.59016836812756 42.94603401957742
    vertex 252.2534220568459 94.0901683681261 42.94603401957894
  endloop
endfacet
facet normal -0.9238795325113037 -3.424449275171869e-13 0.38268343236504865
  outer loop
    vertex 233.32059159441835 94.09016836812668 42.42826706661244
    vertex 233.07084053815677 92.59016836812849 41.82531467936732
    vertex 233.32059159441835 92.59016836812799 42.428267066611006
  endloop
endfacet
facet normal -0.9238795325113037 -3.424449275171869e-13 0.38268343236504865
  outer loop
    vertex 233.07084053815677 92.59016836812849 41.82531467936732
    vertex 233.32059159441835 94.09016836812668 42.42826706661244
    vertex 233.07084053815677 94.09016836812715 41.82531467936857
  endloop
endfacet
facet normal -0.7933533402912614 -5.101511418952315e-13 0.6087614290086867
  outer loop
    vertex 233.717888150913 94.09016836812621 42.94603401957867
    vertex 233.600611217244 92.59016836812765 42.79319574397085
    vertex 233.717888150913 92.59016836812754 42.94603401957742
  endloop
endfacet
facet normal -0.7933533402912614 -5.101511418952315e-13 0.6087614290086867
  outer loop
    vertex 233.600611217244 92.59016836812765 42.79319574397085
    vertex 233.717888150913 94.09016836812621 42.94603401957867
    vertex 233.32059159441835 92.59016836812799 42.428267066611006
  endloop
endfacet
facet normal -0.7933533402912614 -5.101511418952315e-13 0.6087614290086867
  outer loop
    vertex 233.32059159441835 92.59016836812799 42.428267066611006
    vertex 233.717888150913 94.09016836812621 42.94603401957867
    vertex 233.600611217244 94.09016836812633 42.79319574397215
  endloop
endfacet
facet normal -0.7933533402912614 -5.101511418952315e-13 0.6087614290086867
  outer loop
    vertex 233.32059159441835 92.59016836812799 42.428267066611006
    vertex 233.600611217244 94.09016836812633 42.79319574397215
    vertex 233.32059159441835 94.09016836812668 42.42826706661244
  endloop
endfacet
facet normal 0.550776731198686 0.5901885259681464 0.5901885259691492
  outer loop
    vertex 252.98565510387957 94.09016836816114 3.678268940602633
    vertex 245.48475810387936 96.090168112201 8.678268940604031
    vertex 245.48475810387936 94.09016836815498 10.678268684646623
  endloop
endfacet
facet normal 0.550776731198686 0.5901885259681464 0.5901885259691492
  outer loop
    vertex 245.48475810387936 96.090168112201 8.678268940604031
    vertex 252.98565510387957 94.09016836816114 3.678268940602633
    vertex 245.48475810387936 101.09016811220513 3.6782689406081293
  endloop
endfacet
facet normal 1.0 -1.7084127830584975e-15 -8.591506389317373e-16
  outer loop
    vertex 245.48475810387936 96.090168112201 8.678268940604031
    vertex 245.48475810387927 96.09016811218311 29.178266810658208
    vertex 245.48475810387936 94.09016836815498 10.678268684646623
  endloop
endfacet
facet normal 1.0 -1.7084127830584975e-15 -8.591506389317373e-16
  outer loop
    vertex 245.48475810387947 94.09016836813855 29.187699259842418
    vertex 245.48475810387927 96.09016811218311 29.178266810658208
    vertex 245.48475810387936 99.09016836813011 38.67826706661629
  endloop
endfacet
facet normal 1.0 -1.7084127830584975e-15 -8.591506389317373e-16
  outer loop
    vertex 245.48475810387927 96.09016811218311 29.178266810658208
    vertex 245.48475810387947 94.09016836813855 29.187699259842418
    vertex 245.48475810387936 94.09016836815498 10.678268684646623
  endloop
endfacet
facet normal 1.0 -1.7084127830584975e-15 -8.591506389317373e-16
  outer loop
    vertex 245.48475810387936 99.09016836813011 38.67826706661629
    vertex 245.48475810387927 96.09016811218311 29.178266810658208
    vertex 245.48475810387936 104.09016836813149 37.17826706662095
  endloop
endfacet
facet normal 1.0 -1.7084127830584975e-15 -8.591506389317373e-16
  outer loop
    vertex 245.48475810387936 99.09016836813011 38.67826706661629
    vertex 245.48475810387936 104.09016836813149 37.17826706662095
    vertex 245.48475810387947 103.09016836812799 41.17826706662017
  endloop
endfacet
facet normal 1.0 -1.7084127830584975e-15 -8.591506389317373e-16
  outer loop
    vertex 245.48475810387947 103.09016836812799 41.17826706662017
    vertex 245.48475810387936 104.09016836813149 37.17826706662095
    vertex 245.48475810387936 104.09016836813018 38.6782670666211
  endloop
endfacet
facet normal 1.0 -1.7084127830584975e-15 -8.591506389317373e-16
  outer loop
    vertex 245.48475810387947 103.09016836812799 41.17826706662017
    vertex 245.48475810387936 99.09016836812798 41.17826706661622
    vertex 245.48475810387936 99.09016836813011 38.67826706661629
  endloop
endfacet
facet normal -0.3826834323650497 -7.984488646363499e-13 0.9238795325113034
  outer loop
    vertex 234.83860749112316 92.590168368127 43.59308163233371
    vertex 234.23565510387942 94.09016836812587 43.34333057607343
    vertex 234.23565510387942 92.59016836812718 43.34333057607213
  endloop
endfacet
facet normal -0.3826834323650497 -7.984488646363499e-13 0.9238795325113034
  outer loop
    vertex 234.23565510387942 94.09016836812587 43.34333057607343
    vertex 234.83860749112316 92.590168368127 43.59308163233371
    vertex 234.83860749112316 94.09016836812567 43.59308163233514
  endloop
endfacet
facet normal -0.6087614290087157 -6.85396019451971e-13 0.7933533402912389
  outer loop
    vertex 234.23565510387942 92.59016836812718 43.34333057607213
    vertex 233.717888150913 94.09016836812621 42.94603401957867
    vertex 233.717888150913 92.59016836812754 42.94603401957742
  endloop
endfacet
facet normal -0.6087614290087157 -6.85396019451971e-13 0.7933533402912389
  outer loop
    vertex 233.717888150913 94.09016836812621 42.94603401957867
    vertex 234.23565510387942 92.59016836812718 43.34333057607213
    vertex 234.23565510387942 94.09016836812587 43.34333057607343
  endloop
endfacet
facet normal -0.13052619222027798 -9.251476762403903e-13 0.9914448613737806
  outer loop
    vertex 235.48565510387948 92.59016836812691 43.67826706661104
    vertex 234.83860749112316 94.09016836812567 43.59308163233514
    vertex 234.83860749112316 92.590168368127 43.59308163233371
  endloop
endfacet
facet normal -0.13052619222027798 -9.251476762403903e-13 0.9914448613737806
  outer loop
    vertex 234.83860749112316 94.09016836812567 43.59308163233514
    vertex 235.48565510387948 92.59016836812691 43.67826706661104
    vertex 235.48565510387948 94.09016836812549 43.67826706661275
  endloop
endfacet
facet normal -1.0 2.248945232160668e-15 3.2047469558686566e-14
  outer loop
    vertex 222.98565510387945 94.09016836816123 3.6782689406024525
    vertex 222.98565510387937 92.59016836813636 1.6782689406018132
    vertex 222.98565510387937 92.59016836813636 3.678268940600614
  endloop
endfacet
facet normal -1.0 2.248945232160668e-15 3.2047469558686566e-14
  outer loop
    vertex 222.98565510387937 92.59016836813636 1.6782689406018132
    vertex 222.98565510387945 94.09016836816123 3.6782689406024525
    vertex 222.98565510387937 106.090168368163 1.6782689406128055
  endloop
endfacet
facet normal -1.0 2.248945232160668e-15 3.2047469558686566e-14
  outer loop
    vertex 222.98565510387937 106.090168368163 1.6782689406128055
    vertex 222.98565510387945 94.09016836816123 3.6782689406024525
    vertex 222.98565510387945 106.0901683681616 3.678268940613163
  endloop
endfacet
facet normal 4.922440221107473e-15 -1.0 -2.1757851142120956e-13
  outer loop
    vertex 252.98565510387948 92.59016836812906 41.17826706661111
    vertex 222.98565510387937 92.59016836813636 1.6782689406018132
    vertex 252.98565510387957 92.59016836813636 1.6782689406018132
  endloop
endfacet
facet normal 4.922440221107473e-15 -1.0 -2.1757851142120956e-13
  outer loop
    vertex 222.98565510387937 92.59016836813636 1.6782689406018132
    vertex 252.98565510387948 92.59016836812906 41.17826706661111
    vertex 222.98565510387937 92.59016836813636 3.678268940600614
  endloop
endfacet
facet normal 4.922440221107473e-15 -1.0 -2.1757851142120956e-13
  outer loop
    vertex 222.98565510387937 92.59016836813636 3.678268940600614
    vertex 252.98565510387948 92.59016836812906 41.17826706661111
    vertex 233.07084053815677 92.59016836812849 41.82531467936732
  endloop
endfacet
facet normal 4.922440221107473e-15 -1.0 -2.1757851142120956e-13
  outer loop
    vertex 233.07084053815677 92.59016836812849 41.82531467936732
    vertex 252.98565510387948 92.59016836812906 41.17826706661111
    vertex 252.90046966960216 92.59016836812852 41.82531467936754
  endloop
endfacet
facet normal 4.922440221107473e-15 -1.0 -2.1757851142120956e-13
  outer loop
    vertex 233.07084053815677 92.59016836812849 41.82531467936732
    vertex 252.90046966960216 92.59016836812852 41.82531467936754
    vertex 233.32059159441835 92.59016836812799 42.428267066611006
  endloop
endfacet
facet normal 4.922440221107473e-15 -1.0 -2.1757851142120956e-13
  outer loop
    vertex 233.32059159441835 92.59016836812799 42.428267066611006
    vertex 252.90046966960216 92.59016836812852 41.82531467936754
    vertex 252.65071861334056 92.59016836812799 42.428267066611056
  endloop
endfacet
facet normal 4.922440221107473e-15 -1.0 -2.1757851142120956e-13
  outer loop
    vertex 233.32059159441835 92.59016836812799 42.428267066611006
    vertex 252.65071861334056 92.59016836812799 42.428267066611056
    vertex 233.600611217244 92.59016836812765 42.79319574397085
  endloop
endfacet
facet normal 4.922440221107473e-15 -1.0 -2.1757851142120956e-13
  outer loop
    vertex 233.600611217244 92.59016836812765 42.79319574397085
    vertex 252.65071861334056 92.59016836812799 42.428267066611056
    vertex 252.2534220568458 92.59016836812756 42.94603401957742
  endloop
endfacet
facet normal 4.922440221107473e-15 -1.0 -2.1757851142120956e-13
  outer loop
    vertex 233.600611217244 92.59016836812765 42.79319574397085
    vertex 252.2534220568458 92.59016836812756 42.94603401957742
    vertex 233.717888150913 92.59016836812754 42.94603401957742
  endloop
endfacet
facet normal 4.922440221107473e-15 -1.0 -2.1757851142120956e-13
  outer loop
    vertex 233.717888150913 92.59016836812754 42.94603401957742
    vertex 252.2534220568458 92.59016836812756 42.94603401957742
    vertex 251.73565510387948 92.59016836812722 43.34333057607213
  endloop
endfacet
facet normal 4.922440221107473e-15 -1.0 -2.1757851142120956e-13
  outer loop
    vertex 233.717888150913 92.59016836812754 42.94603401957742
    vertex 251.73565510387948 92.59016836812722 43.34333057607213
    vertex 234.23565510387942 92.59016836812718 43.34333057607213
  endloop
endfacet
facet normal 4.922440221107473e-15 -1.0 -2.1757851142120956e-13
  outer loop
    vertex 234.23565510387942 92.59016836812718 43.34333057607213
    vertex 251.73565510387948 92.59016836812722 43.34333057607213
    vertex 251.13270271663575 92.59016836812701 43.59308163233389
  endloop
endfacet
facet normal 4.922440221107473e-15 -1.0 -2.1757851142120956e-13
  outer loop
    vertex 234.23565510387942 92.59016836812718 43.34333057607213
    vertex 251.13270271663575 92.59016836812701 43.59308163233389
    vertex 234.83860749112316 92.590168368127 43.59308163233371
  endloop
endfacet
facet normal 4.922440221107473e-15 -1.0 -2.1757851142120956e-13
  outer loop
    vertex 234.83860749112316 92.590168368127 43.59308163233371
    vertex 251.13270271663575 92.59016836812701 43.59308163233389
    vertex 235.48565510387948 92.59016836812691 43.67826706661104
  endloop
endfacet
facet normal 4.922440221107473e-15 -1.0 -2.1757851142120956e-13
  outer loop
    vertex 235.48565510387948 92.59016836812691 43.67826706661104
    vertex 251.13270271663575 92.59016836812701 43.59308163233389
    vertex 250.48565510387942 92.59016836812695 43.67826706661122
  endloop
endfacet
facet normal -3.161038017269316e-16 -8.612954804148064e-13 1.0
  outer loop
    vertex 222.98565510387945 94.09016836816123 3.6782689406024525
    vertex 227.68565739288425 101.09016837397829 3.6782689406085805
    vertex 222.98565510387945 106.0901683681616 3.678268940613163
  endloop
endfacet
facet normal -3.161038017269316e-16 -8.612954804148064e-13 1.0
  outer loop
    vertex 227.68565739288425 101.09016837397829 3.6782689406085805
    vertex 222.98565510387945 94.09016836816123 3.6782689406024525
    vertex 240.48565510387934 101.09016811220513 3.678268940608535
  endloop
endfacet
facet normal -3.161038017269316e-16 -8.612954804148064e-13 1.0
  outer loop
    vertex 222.98565510387945 106.0901683681616 3.678268940613163
    vertex 227.68565739288425 101.09016837397829 3.6782689406085805
    vertex 223.156025972434 107.384263593674 3.678268940614054
  endloop
endfacet
facet normal -3.161038017269316e-16 -8.612954804148064e-13 1.0
  outer loop
    vertex 223.156025972434 107.384263593674 3.678268940614054
    vertex 227.68565739288425 101.09016837397829 3.6782689406085805
    vertex 223.65552808495727 108.59016836816144 3.678268940614643
  endloop
endfacet
facet normal -3.161038017269316e-16 -8.612954804148064e-13 1.0
  outer loop
    vertex 223.65552808495727 108.59016836816144 3.678268940614643
    vertex 227.68565739288425 101.09016837397829 3.6782689406085805
    vertex 224.4501211979467 109.62570227409412 3.6782689406156246
  endloop
endfacet
facet normal -3.161038017269316e-16 -8.612954804148064e-13 1.0
  outer loop
    vertex 224.4501211979467 109.62570227409412 3.6782689406156246
    vertex 227.68565739288425 101.09016837397829 3.6782689406085805
    vertex 225.48565510387934 110.42029538708368 3.678268940616671
  endloop
endfacet
facet normal -3.161038017269316e-16 -8.612954804148064e-13 1.0
  outer loop
    vertex 225.48565510387934 110.42029538708368 3.678268940616671
    vertex 227.68565739288425 101.09016837397829 3.6782689406085805
    vertex 226.69155987836672 110.9197974996068 3.678268940616335
  endloop
endfacet
facet normal -3.161038017269316e-16 -8.612954804148064e-13 1.0
  outer loop
    vertex 227.68565739288425 101.09016837397829 3.6782689406085805
    vertex 240.48565510387934 101.09016811220513 3.678268940608535
    vertex 234.2856573928842 101.09016828422291 3.6782689406085805
  endloop
endfacet
facet normal -3.161038017269316e-16 -8.612954804148064e-13 1.0
  outer loop
    vertex 234.2856573928842 101.09016828422291 3.6782689406085805
    vertex 240.48565510387934 101.09016811220513 3.678268940608535
    vertex 234.2856573928842 106.49016807479373 3.6782689406131457
  endloop
endfacet
facet normal -3.161038017269316e-16 -8.612954804148064e-13 1.0
  outer loop
    vertex 252.98565510387957 94.09016836816114 3.678268940602633
    vertex 248.28565739287765 101.09016807479357 3.678268940608039
    vertex 245.48475810387936 101.09016811220513 3.6782689406081293
  endloop
endfacet
facet normal -3.161038017269316e-16 -8.612954804148064e-13 1.0
  outer loop
    vertex 248.28565739287765 101.09016807479357 3.678268940608039
    vertex 252.98565510387957 94.09016836816114 3.678268940602633
    vertex 248.28565739287765 106.49016807479367 3.6782689406130107
  endloop
endfacet
facet normal -3.161038017269316e-16 -8.612954804148064e-13 1.0
  outer loop
    vertex 248.28565739287765 106.49016807479367 3.6782689406130107
    vertex 252.98565510387957 94.09016836816114 3.678268940602633
    vertex 249.27975032939202 110.91979749960674 3.678268940616606
  endloop
endfacet
facet normal -3.161038017269316e-16 -8.612954804148064e-13 1.0
  outer loop
    vertex 249.27975032939202 110.91979749960674 3.678268940616606
    vertex 252.98565510387957 94.09016836816114 3.678268940602633
    vertex 250.4856551038795 110.42029538708368 3.6782689406169866
  endloop
endfacet
facet normal -3.161038017269316e-16 -8.612954804148064e-13 1.0
  outer loop
    vertex 250.4856551038795 110.42029538708368 3.6782689406169866
    vertex 252.98565510387957 94.09016836816114 3.678268940602633
    vertex 251.52118900981242 109.62570227409427 3.678268940616076
  endloop
endfacet
facet normal -3.161038017269316e-16 -8.612954804148064e-13 1.0
  outer loop
    vertex 251.52118900981242 109.62570227409427 3.678268940616076
    vertex 252.98565510387957 94.09016836816114 3.678268940602633
    vertex 252.31578212280166 108.59016836816144 3.6782689406145983
  endloop
endfacet
facet normal -3.161038017269316e-16 -8.612954804148064e-13 1.0
  outer loop
    vertex 252.31578212280166 108.59016836816144 3.6782689406145983
    vertex 252.98565510387957 94.09016836816114 3.678268940602633
    vertex 252.8152842353249 107.38426359367432 3.6782689406143696
  endloop
endfacet
facet normal -3.161038017269316e-16 -8.612954804148064e-13 1.0
  outer loop
    vertex 252.8152842353249 107.38426359367432 3.6782689406143696
    vertex 252.98565510387957 94.09016836816114 3.678268940602633
    vertex 252.9856551038794 100.0901683681611 3.678268940607131
  endloop
endfacet
facet normal -3.161038017269316e-16 -8.612954804148064e-13 1.0
  outer loop
    vertex 252.8152842353249 107.38426359367432 3.6782689406143696
    vertex 252.9856551038794 100.0901683681611 3.678268940607131
    vertex 252.9856551038792 106.09016836816183 3.678268940612892
  endloop
endfacet
facet normal -3.161038017269316e-16 -8.612954804148064e-13 1.0
  outer loop
    vertex 226.69155987836672 110.9197974996068 3.678268940616335
    vertex 227.68565739288425 106.49016807479367 3.678268940613101
    vertex 227.98565510387957 111.09016836816141 3.6782689406168427
  endloop
endfacet
facet normal -3.161038017269316e-16 -8.612954804148064e-13 1.0
  outer loop
    vertex 227.68565739288425 106.49016807479367 3.678268940613101
    vertex 226.69155987836672 110.9197974996068 3.678268940616335
    vertex 227.68565739288425 101.09016837397829 3.6782689406085805
  endloop
endfacet
facet normal -3.161038017269316e-16 -8.612954804148064e-13 1.0
  outer loop
    vertex 227.98565510387957 111.09016836816141 3.6782689406168427
    vertex 227.68565739288425 106.49016807479367 3.678268940613101
    vertex 234.2856573928842 106.49016807479373 3.6782689406131457
  endloop
endfacet
facet normal -3.161038017269316e-16 -8.612954804148064e-13 1.0
  outer loop
    vertex 227.98565510387957 111.09016836816141 3.6782689406168427
    vertex 234.2856573928842 106.49016807479373 3.6782689406131457
    vertex 247.98565510387962 111.09016836816141 3.678268940616617
  endloop
endfacet
facet normal -3.161038017269316e-16 -8.612954804148064e-13 1.0
  outer loop
    vertex 247.98565510387962 111.09016836816141 3.678268940616617
    vertex 234.2856573928842 106.49016807479373 3.6782689406131457
    vertex 241.68565739287763 106.49016807479363 3.6782689406130107
  endloop
endfacet
facet normal -3.161038017269316e-16 -8.612954804148064e-13 1.0
  outer loop
    vertex 241.68565739287763 106.49016807479363 3.6782689406130107
    vertex 234.2856573928842 106.49016807479373 3.6782689406131457
    vertex 240.48565510387934 101.09016811220513 3.678268940608535
  endloop
endfacet
facet normal -3.161038017269316e-16 -8.612954804148064e-13 1.0
  outer loop
    vertex 241.68565739287763 106.49016807479363 3.6782689406130107
    vertex 240.48565510387934 101.09016811220513 3.678268940608535
    vertex 241.68565739287763 101.09016816454901 3.678268940607994
  endloop
endfacet
facet normal -3.161038017269316e-16 -8.612954804148064e-13 1.0
  outer loop
    vertex 247.98565510387962 111.09016836816141 3.678268940616617
    vertex 241.68565739287763 106.49016807479363 3.6782689406130107
    vertex 248.28565739287765 106.49016807479367 3.6782689406130107
  endloop
endfacet
facet normal -3.161038017269316e-16 -8.612954804148064e-13 1.0
  outer loop
    vertex 247.98565510387962 111.09016836816141 3.678268940616617
    vertex 248.28565739287765 106.49016807479367 3.6782689406130107
    vertex 249.27975032939202 110.91979749960674 3.678268940616606
  endloop
endfacet
facet normal -0.2721655177614104 0.6804138192819991 0.6804138192833435
  outer loop
    vertex 240.48565510387942 94.09016836815506 10.678268684646623
    vertex 240.48565510387934 101.09016811220513 3.678268940608535
    vertex 222.98565510387945 94.09016836816123 3.6782689406024525
  endloop
endfacet
facet normal -0.2721655177614104 0.6804138192819991 0.6804138192833435
  outer loop
    vertex 240.48565510387934 101.09016811220513 3.678268940608535
    vertex 240.48565510387942 94.09016836815506 10.678268684646623
    vertex 240.48565510387942 96.09016811220098 8.678268940604122
  endloop
endfacet
facet normal 4.401052807573078e-15 1.0 8.935562709009411e-13
  outer loop
    vertex 222.98565510387945 94.09016836816123 3.6782689406024525
    vertex 232.9856551038795 94.0901683681301 38.67826706661239
    vertex 240.48565510387942 94.09016836815506 10.678268684646623
  endloop
endfacet
facet normal 4.401052807573078e-15 1.0 8.935562709009411e-13
  outer loop
    vertex 232.9856551038795 94.0901683681301 38.67826706661239
    vertex 222.98565510387945 94.09016836816123 3.6782689406024525
    vertex 233.07084053815677 94.09016836812715 41.82531467936857
  endloop
endfacet
facet normal 4.401052807573078e-15 1.0 8.935562709009411e-13
  outer loop
    vertex 240.48565510387942 94.09016836815506 10.678268684646623
    vertex 232.9856551038795 94.0901683681301 38.67826706661239
    vertex 240.48565510387934 94.0901683681386 29.17826681065648
  endloop
endfacet
facet normal 4.401052807573078e-15 1.0 8.935562709009411e-13
  outer loop
    vertex 232.9856551038795 94.0901683681301 38.67826706661239
    vertex 233.07084053815677 94.09016836812715 41.82531467936857
    vertex 252.98565510387948 94.0901683681301 38.67826706661239
  endloop
endfacet
facet normal 4.401052807573078e-15 1.0 8.935562709009411e-13
  outer loop
    vertex 252.98565510387948 94.0901683681301 38.67826706661239
    vertex 233.07084053815677 94.09016836812715 41.82531467936857
    vertex 252.98565510387957 94.09016836812758 41.178267066612634
  endloop
endfacet
facet normal 4.401052807573078e-15 1.0 8.935562709009411e-13
  outer loop
    vertex 252.98565510387957 94.09016836812758 41.178267066612634
    vertex 233.07084053815677 94.09016836812715 41.82531467936857
    vertex 252.90046966960224 94.09016836812704 41.82531467936865
  endloop
endfacet
facet normal 4.401052807573078e-15 1.0 8.935562709009411e-13
  outer loop
    vertex 252.90046966960224 94.09016836812704 41.82531467936865
    vertex 233.07084053815677 94.09016836812715 41.82531467936857
    vertex 233.32059159441835 94.09016836812668 42.42826706661244
  endloop
endfacet
facet normal 4.401052807573078e-15 1.0 8.935562709009411e-13
  outer loop
    vertex 252.90046966960224 94.09016836812704 41.82531467936865
    vertex 233.32059159441835 94.09016836812668 42.42826706661244
    vertex 252.65071861334056 94.09016836812653 42.42826706661258
  endloop
endfacet
facet normal 4.401052807573078e-15 1.0 8.935562709009411e-13
  outer loop
    vertex 252.65071861334056 94.09016836812653 42.42826706661258
    vertex 233.32059159441835 94.09016836812668 42.42826706661244
    vertex 233.600611217244 94.09016836812633 42.79319574397215
  endloop
endfacet
facet normal 4.401052807573078e-15 1.0 8.935562709009411e-13
  outer loop
    vertex 252.65071861334056 94.09016836812653 42.42826706661258
    vertex 233.600611217244 94.09016836812633 42.79319574397215
    vertex 252.2534220568459 94.0901683681261 42.94603401957894
  endloop
endfacet
facet normal 4.401052807573078e-15 1.0 8.935562709009411e-13
  outer loop
    vertex 252.2534220568459 94.0901683681261 42.94603401957894
    vertex 233.600611217244 94.09016836812633 42.79319574397215
    vertex 233.717888150913 94.09016836812621 42.94603401957867
  endloop
endfacet
facet normal 4.401052807573078e-15 1.0 8.935562709009411e-13
  outer loop
    vertex 252.2534220568459 94.0901683681261 42.94603401957894
    vertex 233.717888150913 94.09016836812621 42.94603401957867
    vertex 234.23565510387942 94.09016836812587 43.34333057607343
  endloop
endfacet
facet normal 4.401052807573078e-15 1.0 8.935562709009411e-13
  outer loop
    vertex 252.2534220568459 94.0901683681261 42.94603401957894
    vertex 234.23565510387942 94.09016836812587 43.34333057607343
    vertex 251.73565510387948 94.09016836812576 43.34333057607347
  endloop
endfacet
facet normal 4.401052807573078e-15 1.0 8.935562709009411e-13
  outer loop
    vertex 251.73565510387948 94.09016836812576 43.34333057607347
    vertex 234.23565510387942 94.09016836812587 43.34333057607343
    vertex 234.83860749112316 94.09016836812567 43.59308163233514
  endloop
endfacet
facet normal 4.401052807573078e-15 1.0 8.935562709009411e-13
  outer loop
    vertex 251.73565510387948 94.09016836812576 43.34333057607347
    vertex 234.83860749112316 94.09016836812567 43.59308163233514
    vertex 251.13270271663575 94.09016836812555 43.593081632335235
  endloop
endfacet
facet normal 4.401052807573078e-15 1.0 8.935562709009411e-13
  outer loop
    vertex 251.13270271663575 94.09016836812555 43.593081632335235
    vertex 234.83860749112316 94.09016836812567 43.59308163233514
    vertex 235.48565510387948 94.09016836812549 43.67826706661275
  endloop
endfacet
facet normal 4.401052807573078e-15 1.0 8.935562709009411e-13
  outer loop
    vertex 251.13270271663575 94.09016836812555 43.593081632335235
    vertex 235.48565510387948 94.09016836812549 43.67826706661275
    vertex 250.4856551038795 94.09016836812549 43.678267066612335
  endloop
endfacet
facet normal -0.966783937035093 -2.3421251075101556e-13 0.2555950294722597
  outer loop
    vertex 233.07084053815677 94.09016836812715 41.82531467936857
    vertex 222.98565510387937 92.59016836813636 3.678268940600614
    vertex 233.07084053815677 92.59016836812849 41.82531467936732
  endloop
endfacet
facet normal -0.966783937035093 -2.3421251075101556e-13 0.2555950294722597
  outer loop
    vertex 222.98565510387937 92.59016836813636 3.678268940600614
    vertex 233.07084053815677 94.09016836812715 41.82531467936857
    vertex 222.98565510387945 94.09016836816123 3.6782689406024525
  endloop
endfacet
endsolid Bridge proto 1
