solid Bridge proto 1
facet normal 0.8652146374782563 0.04326073224596563 -0.49953192104100075
  outer loop
    vertex 391.31035314026707 392.53795182111224 3.2679493436135343
    vertex 392.3084851717017 389.57531171930174 4.740192515177347
    vertex 391.4584851497689 389.57531171930174 3.2679493414067284
  endloop
endfacet
facet normal 0.8652146374782563 0.04326073224596563 -0.49953192104100075
  outer loop
    vertex 392.3084851717017 389.57531171930174 4.740192515177347
    vertex 391.31035314026707 392.53795182111224 3.2679493436135343
    vertex 392.1584851717017 392.5753117193018 4.740192517411982
  endloop
endfacet
facet normal 0.8652146374782563 0.04326073224596563 -0.49953192104100075
  outer loop
    vertex 392.1584851717017 392.5753117193018 4.740192517411982
    vertex 391.31035314026707 392.53795182111224 3.2679493436135343
    vertex 391.80848510108444 392.5753117193075 4.1339746333067175
  endloop
endfacet
facet normal 0.5957749785522861 0.029788748329777785 0.8025987823339681
  outer loop
    vertex 391.9584851010845 389.5753117193117 5.000000141546543
    vertex 392.1584851717017 392.5753117193018 4.740192517411982
    vertex 391.80848510108444 392.5753117193117 5.000000143781178
  endloop
endfacet
facet normal 0.5957749785522861 0.029788748329777785 0.8025987823339681
  outer loop
    vertex 392.1584851717017 392.5753117193018 4.740192517411982
    vertex 391.9584851010845 389.5753117193117 5.000000141546543
    vertex 392.3084851717017 389.57531171930174 4.740192515177347
  endloop
endfacet
facet normal 1.494446115173119e-08 1.0347663413810755e-11 1.0
  outer loop
    vertex 399.10848510108445 342.57531171930555 5.000000034497905
    vertex 398.95848510108436 389.57531171930555 5.000000036732538
    vertex 398.95848510108436 345.5753117193056 5.000000036732538
  endloop
endfacet
facet normal 1.494446115173119e-08 1.0347663413810755e-11 1.0
  outer loop
    vertex 398.95848510108436 389.57531171930555 5.000000036732538
    vertex 399.10848510108445 342.57531171930555 5.000000034497905
    vertex 399.10848510108445 392.57531171930555 5.000000034497905
  endloop
endfacet
facet normal 1.494446115173119e-08 1.0347663413810755e-11 1.0
  outer loop
    vertex 399.10848510108445 392.57531171930555 5.000000034497905
    vertex 399.10848510108445 342.57531171930555 5.000000034497905
    vertex 401.2584851755723 342.5753117193018 5.00000000297951
  endloop
endfacet
facet normal 1.494446115173119e-08 1.0347663413810755e-11 1.0
  outer loop
    vertex 399.10848510108445 392.57531171930555 5.000000034497905
    vertex 401.2584851755723 342.5753117193018 5.00000000297951
    vertex 401.10848517557224 392.4253117193018 5.00000000297951
  endloop
endfacet
facet normal 1.494446115173119e-08 1.0347663413810755e-11 1.0
  outer loop
    vertex 401.10848517557224 392.4253117193018 5.00000000297951
    vertex 401.2584851755723 342.5753117193018 5.00000000297951
    vertex 401.2584851755723 390.4253117193018 5.00000000297951
  endloop
endfacet
facet normal 0.9987523388778444 -0.04993761694389523 -1.4878959378478713e-08
  outer loop
    vertex 391.4584851409464 345.5753117193018 2.6757360802636705
    vertex 391.3084851497689 342.5753117193018 3.267949343641363
    vertex 391.3084851409463 342.5753117193018 2.6757360824983047
  endloop
endfacet
facet normal 0.9987523388778444 -0.04993761694389523 -1.4878959378478713e-08
  outer loop
    vertex 391.3084851497689 342.5753117193018 3.267949343641363
    vertex 391.4584851409464 345.5753117193018 2.6757360802636705
    vertex 391.4584851497689 345.5753117193018 3.2679493414067284
  endloop
endfacet
facet normal 0.7071067917207138 0.0 0.7071067706523813
  outer loop
    vertex 392.13422106216757 389.57531171930174 2.000000138908788
    vertex 391.4584851409464 345.5753117193018 2.6757360802636705
    vertex 392.13422106216757 345.5753117193018 2.000000138908788
  endloop
endfacet
facet normal 0.7071067917207138 0.0 0.7071067706523813
  outer loop
    vertex 391.4584851409464 345.5753117193018 2.6757360802636705
    vertex 392.13422106216757 389.57531171930174 2.000000138908788
    vertex 391.4584851409464 389.57531171930174 2.6757360802636705
  endloop
endfacet
facet normal -0.7066652428099628 0.03533326266686191 0.7066652638651846
  outer loop
    vertex 399.4584851409464 389.57531171930174 2.675735961083159
    vertex 398.93274919959146 392.5753117193018 2.000000037627303
    vertex 398.78274919959154 389.57531171930174 2.0000000398619373
  endloop
endfacet
facet normal -0.7066652428099628 0.03533326266686191 0.7066652638651846
  outer loop
    vertex 398.93274919959146 392.5753117193018 2.000000037627303
    vertex 399.4584851409464 389.57531171930174 2.675735961083159
    vertex 399.10848510108445 392.57531171930367 2.1757359338841673
  endloop
endfacet
facet normal -0.7066652428099628 0.03533326266686191 0.7066652638651846
  outer loop
    vertex 399.10848510108445 392.57531171930367 2.1757359338841673
    vertex 399.4584851409464 389.57531171930174 2.675735961083159
    vertex 399.60661714583057 392.5379518169864 2.675735958876353
  endloop
endfacet
facet normal 0.8652146374782538 -0.04326073224599271 -0.49953192104100286
  outer loop
    vertex 391.4584851497689 345.5753117193018 3.2679493414067284
    vertex 392.1584851717017 342.5753117193018 4.740192517411982
    vertex 391.3084851497689 342.5753117193018 3.267949343641363
  endloop
endfacet
facet normal 0.8652146374782538 -0.04326073224599271 -0.49953192104100286
  outer loop
    vertex 392.1584851717017 342.5753117193018 4.740192517411982
    vertex 391.4584851497689 345.5753117193018 3.2679493414067284
    vertex 392.3084851717017 345.5753117193018 4.740192515177347
  endloop
endfacet
facet normal -0.9987523388778453 -0.049937616943880256 1.4879035461152341e-08
  outer loop
    vertex 399.458485149769 345.5753117193018 3.26794922222624
    vertex 399.60848514094636 342.5753117193018 2.6757359588485246
    vertex 399.6084851497689 342.5753117193018 3.267949219991605
  endloop
endfacet
facet normal -0.9987523388778453 -0.049937616943880256 1.4879035461152341e-08
  outer loop
    vertex 399.60848514094636 342.5753117193018 2.6757359588485246
    vertex 399.458485149769 345.5753117193018 3.26794922222624
    vertex 399.4584851409464 345.5753117193018 2.675735961083159
  endloop
endfacet
facet normal 1.4987596295662335e-08 -6.418192107932187e-14 1.0
  outer loop
    vertex 391.80848510108444 342.5753117193117 5.000000143781178
    vertex 389.6584851755722 390.4253117193018 5.000000176008106
    vertex 389.6584851755722 342.57531171932345 5.000000176008106
  endloop
endfacet
facet normal 1.4987596295662335e-08 -6.418192107932187e-14 1.0
  outer loop
    vertex 389.6584851755722 390.4253117193018 5.000000176008106
    vertex 391.80848510108444 342.5753117193117 5.000000143781178
    vertex 389.80848517557223 392.4253117193018 5.000000173773472
  endloop
endfacet
facet normal 1.4987596295662335e-08 -6.418192107932187e-14 1.0
  outer loop
    vertex 389.80848517557223 392.4253117193018 5.000000173773472
    vertex 391.80848510108444 342.5753117193117 5.000000143781178
    vertex 391.80848510108444 392.5753117193117 5.000000143781178
  endloop
endfacet
facet normal 1.4987596295662335e-08 -6.418192107932187e-14 1.0
  outer loop
    vertex 391.80848510108444 392.5753117193117 5.000000143781178
    vertex 391.80848510108444 342.5753117193117 5.000000143781178
    vertex 391.9584851010845 345.57531171931174 5.000000141546543
  endloop
endfacet
facet normal 1.4987596295662335e-08 -6.418192107932187e-14 1.0
  outer loop
    vertex 391.80848510108444 392.5753117193117 5.000000143781178
    vertex 391.9584851010845 345.57531171931174 5.000000141546543
    vertex 391.9584851010845 389.5753117193117 5.000000141546543
  endloop
endfacet
facet normal -0.7066652428099702 -0.03533326266686945 0.7066652638651768
  outer loop
    vertex 398.93274919959146 342.5753117193018 2.000000037627303
    vertex 399.4584851409464 345.5753117193018 2.675735961083159
    vertex 398.78274919959154 345.5753117193018 2.0000000398619373
  endloop
endfacet
facet normal -0.7066652428099702 -0.03533326266686945 0.7066652638651768
  outer loop
    vertex 399.4584851409464 345.5753117193018 2.675735961083159
    vertex 398.93274919959146 342.5753117193018 2.000000037627303
    vertex 399.60848514094636 342.5753117193018 2.6757359588485246
  endloop
endfacet
facet normal 1.4897560624698936e-08 0.0 1.0
  outer loop
    vertex 398.93274919959146 342.5753117193018 2.000000037627303
    vertex 392.13422106216757 345.5753117193018 2.000000138908788
    vertex 391.98422106216765 342.5753117193018 2.0000001411434223
  endloop
endfacet
facet normal 1.4897560624698936e-08 0.0 1.0
  outer loop
    vertex 392.13422106216757 345.5753117193018 2.000000138908788
    vertex 398.93274919959146 342.5753117193018 2.000000037627303
    vertex 392.13422106216757 389.57531171930174 2.000000138908788
  endloop
endfacet
facet normal 1.4897560624698936e-08 0.0 1.0
  outer loop
    vertex 392.13422106216757 389.57531171930174 2.000000138908788
    vertex 398.93274919959146 342.5753117193018 2.000000037627303
    vertex 398.78274919959154 345.5753117193018 2.0000000398619373
  endloop
endfacet
facet normal 1.4897560624698936e-08 0.0 1.0
  outer loop
    vertex 392.13422106216757 389.57531171930174 2.000000138908788
    vertex 398.93274919959146 392.5753117193018 2.000000037627303
    vertex 391.98422106216765 392.5753117193018 2.0000001411434223
  endloop
endfacet
facet normal 1.4897560624698936e-08 0.0 1.0
  outer loop
    vertex 398.93274919959146 392.5753117193018 2.000000037627303
    vertex 392.13422106216757 389.57531171930174 2.000000138908788
    vertex 398.78274919959154 389.57531171930174 2.0000000398619373
  endloop
endfacet
facet normal 1.4897560624698936e-08 0.0 1.0
  outer loop
    vertex 398.78274919959154 389.57531171930174 2.0000000398619373
    vertex 392.13422106216757 389.57531171930174 2.000000138908788
    vertex 398.78274919959154 345.5753117193018 2.0000000398619373
  endloop
endfacet
facet normal -0.5957751172066598 0.029788756458181787 0.8025986791080995
  outer loop
    vertex 398.95848510108436 389.57531171930555 5.000000036732538
    vertex 398.7584851717018 392.5753117193018 4.740192419088081
    vertex 398.6084851717017 389.57531171930174 4.740192421322715
  endloop
endfacet
facet normal -0.5957751172066598 0.029788756458181787 0.8025986791080995
  outer loop
    vertex 398.7584851717018 392.5753117193018 4.740192419088081
    vertex 398.95848510108436 389.57531171930555 5.000000036732538
    vertex 399.10848510108445 392.57531171930555 5.000000034497905
  endloop
endfacet
facet normal -0.8660254112332022 0.0 -0.49999998709836296
  outer loop
    vertex 398.6084851717017 389.57531171930174 4.740192421322715
    vertex 399.458485149769 345.5753117193018 3.26794922222624
    vertex 398.6084851717017 345.5753117193018 4.740192421322715
  endloop
endfacet
facet normal -0.8660254112332022 0.0 -0.49999998709836296
  outer loop
    vertex 399.458485149769 345.5753117193018 3.26794922222624
    vertex 398.6084851717017 389.57531171930174 4.740192421322715
    vertex 399.458485149769 389.57531171930174 3.26794922222624
  endloop
endfacet
facet normal 0.8660253963356531 0.0 -0.5000000129016747
  outer loop
    vertex 391.4584851497689 389.57531171930174 3.2679493414067284
    vertex 392.3084851717017 345.5753117193018 4.740192515177347
    vertex 391.4584851497689 345.5753117193018 3.2679493414067284
  endloop
endfacet
facet normal 0.8660253963356531 0.0 -0.5000000129016747
  outer loop
    vertex 392.3084851717017 345.5753117193018 4.740192515177347
    vertex 391.4584851497689 389.57531171930174 3.2679493414067284
    vertex 392.3084851717017 389.57531171930174 4.740192515177347
  endloop
endfacet
facet normal -0.8652146523618669 -0.043260732246005545 -0.4995318952618275
  outer loop
    vertex 398.6084851717017 345.5753117193018 4.740192421322715
    vertex 399.6084851497689 342.5753117193018 3.267949219991605
    vertex 398.7584851717018 342.5753117193018 4.740192419088081
  endloop
endfacet
facet normal -0.8652146523618669 -0.043260732246005545 -0.4995318952618275
  outer loop
    vertex 399.6084851497689 342.5753117193018 3.267949219991605
    vertex 398.6084851717017 345.5753117193018 4.740192421322715
    vertex 399.458485149769 345.5753117193018 3.26794922222624
  endloop
endfacet
facet normal -0.5957751172062443 -0.029788756458161005 0.8025986791084087
  outer loop
    vertex 398.7584851717018 342.5753117193018 4.740192419088081
    vertex 398.95848510108436 345.5753117193056 5.000000036732538
    vertex 398.6084851717017 345.5753117193018 4.740192421322715
  endloop
endfacet
facet normal -0.5957751172062443 -0.029788756458161005 0.8025986791084087
  outer loop
    vertex 398.95848510108436 345.5753117193056 5.000000036732538
    vertex 398.7584851717018 342.5753117193018 4.740192419088081
    vertex 399.10848510108445 342.57531171930555 5.000000034497905
  endloop
endfacet
facet normal 0.5957749785511978 -0.029788748329723374 0.802598782334778
  outer loop
    vertex 392.1584851717017 342.5753117193018 4.740192517411982
    vertex 391.9584851010845 345.57531171931174 5.000000141546543
    vertex 391.80848510108444 342.5753117193117 5.000000143781178
  endloop
endfacet
facet normal 0.5957749785511978 -0.029788748329723374 0.802598782334778
  outer loop
    vertex 391.9584851010845 345.57531171931174 5.000000141546543
    vertex 392.1584851717017 342.5753117193018 4.740192517411982
    vertex 392.3084851717017 345.5753117193018 4.740192515177347
  endloop
endfacet
facet normal 0.5960394908854271 -4.075347459847306e-19 0.8029551203554538
  outer loop
    vertex 392.3084851717017 345.5753117193018 4.740192515177347
    vertex 391.9584851010845 389.5753117193117 5.000000141546543
    vertex 391.9584851010845 345.57531171931174 5.000000141546543
  endloop
endfacet
facet normal 0.5960394908854271 -4.075347459847306e-19 0.8029551203554538
  outer loop
    vertex 391.9584851010845 389.5753117193117 5.000000141546543
    vertex 392.3084851717017 345.5753117193018 4.740192515177347
    vertex 392.3084851717017 389.57531171930174 4.740192515177347
  endloop
endfacet
facet normal 0.7066652638651209 0.03533326266685065 0.7066652428100271
  outer loop
    vertex 391.98422106216765 392.5753117193018 2.0000001411434223
    vertex 391.4584851409464 389.57531171930174 2.6757360802636705
    vertex 392.13422106216757 389.57531171930174 2.000000138908788
  endloop
endfacet
facet normal 0.7066652638651209 0.03533326266685065 0.7066652428100271
  outer loop
    vertex 391.4584851409464 389.57531171930174 2.6757360802636705
    vertex 391.98422106216765 392.5753117193018 2.0000001411434223
    vertex 391.31035313586676 392.53795182089226 2.6757360824704763
  endloop
endfacet
facet normal 0.7066652638651209 0.03533326266685065 0.7066652428100271
  outer loop
    vertex 391.31035313586676 392.53795182089226 2.6757360824704763
    vertex 391.98422106216765 392.5753117193018 2.0000001411434223
    vertex 391.80848510108444 392.575311719309 2.1757361074626913
  endloop
endfacet
facet normal -0.7071067706523664 0.0 0.7071067917207285
  outer loop
    vertex 399.4584851409464 345.5753117193018 2.675735961083159
    vertex 398.78274919959154 389.57531171930174 2.0000000398619373
    vertex 398.78274919959154 345.5753117193018 2.0000000398619373
  endloop
endfacet
facet normal -0.7071067706523664 0.0 0.7071067917207285
  outer loop
    vertex 398.78274919959154 389.57531171930174 2.0000000398619373
    vertex 399.4584851409464 345.5753117193018 2.675735961083159
    vertex 399.4584851409464 389.57531171930174 2.675735961083159
  endloop
endfacet
facet normal -0.5960396297460969 6.244688701994196e-20 0.8029550172781384
  outer loop
    vertex 398.95848510108436 345.5753117193056 5.000000036732538
    vertex 398.6084851717017 389.57531171930174 4.740192421322715
    vertex 398.6084851717017 345.5753117193018 4.740192421322715
  endloop
endfacet
facet normal -0.5960396297460969 6.244688701994196e-20 0.8029550172781384
  outer loop
    vertex 398.6084851717017 389.57531171930174 4.740192421322715
    vertex 398.95848510108436 345.5753117193056 5.000000036732538
    vertex 398.95848510108436 389.57531171930555 5.000000036732538
  endloop
endfacet
facet normal 1.0 0.0 -1.489747028135624e-08
  outer loop
    vertex 391.4584851409464 389.57531171930174 2.6757360802636705
    vertex 391.4584851497689 345.5753117193018 3.2679493414067284
    vertex 391.4584851409464 345.5753117193018 2.6757360802636705
  endloop
endfacet
facet normal 1.0 0.0 -1.489747028135624e-08
  outer loop
    vertex 391.4584851497689 345.5753117193018 3.2679493414067284
    vertex 391.4584851409464 389.57531171930174 2.6757360802636705
    vertex 391.4584851497689 389.57531171930174 3.2679493414067284
  endloop
endfacet
facet normal 0.9987523388778444 0.04993761694389524 -1.4878959378478717e-08
  outer loop
    vertex 391.31035313586676 392.53795182089226 2.6757360824704763
    vertex 391.4584851497689 389.57531171930174 3.2679493414067284
    vertex 391.4584851409464 389.57531171930174 2.6757360802636705
  endloop
endfacet
facet normal 0.9987523388778444 0.04993761694389524 -1.4878959378478717e-08
  outer loop
    vertex 391.4584851497689 389.57531171930174 3.2679493414067284
    vertex 391.31035313586676 392.53795182089226 2.6757360824704763
    vertex 391.31035314026707 392.53795182111224 3.2679493436135343
  endloop
endfacet
facet normal -1.0 0.0 1.489762265708474e-08
  outer loop
    vertex 399.458485149769 389.57531171930174 3.26794922222624
    vertex 399.4584851409464 345.5753117193018 2.675735961083159
    vertex 399.458485149769 345.5753117193018 3.26794922222624
  endloop
endfacet
facet normal -1.0 0.0 1.489762265708474e-08
  outer loop
    vertex 399.4584851409464 345.5753117193018 2.675735961083159
    vertex 399.458485149769 389.57531171930174 3.26794922222624
    vertex 399.4584851409464 389.57531171930174 2.675735961083159
  endloop
endfacet
facet normal 0.7066652638651384 -0.035333262666879625 0.7066652428100082
  outer loop
    vertex 392.13422106216757 345.5753117193018 2.000000138908788
    vertex 391.3084851409463 342.5753117193018 2.6757360824983047
    vertex 391.98422106216765 342.5753117193018 2.0000001411434223
  endloop
endfacet
facet normal 0.7066652638651384 -0.035333262666879625 0.7066652428100082
  outer loop
    vertex 391.3084851409463 342.5753117193018 2.6757360824983047
    vertex 392.13422106216757 345.5753117193018 2.000000138908788
    vertex 391.4584851409464 345.5753117193018 2.6757360802636705
  endloop
endfacet
facet normal -1.0 4.64989768786975e-10 8.278699603109413e-09
  outer loop
    vertex 389.6584851755722 342.57531171932345 5.000000176008106
    vertex 389.65848515642847 390.4253117193018 1.6832096523655544e-07
    vertex 389.65848511192894 342.57531171931936 -2.7626213956723996e-09
  endloop
endfacet
facet normal -1.0 4.64989768786975e-10 8.278699603109413e-09
  outer loop
    vertex 389.65848515642847 390.4253117193018 1.6832096523655544e-07
    vertex 389.6584851755722 342.57531171932345 5.000000176008106
    vertex 389.6584851755722 390.4253117193018 5.000000176008106
  endloop
endfacet
facet normal -1.096447140892361e-08 1.7684313600238674e-09 -1.0
  outer loop
    vertex 401.25848513832835 390.4253117193018 2.9795221236236756e-09
    vertex 401.25848510108443 382.5753117193018 2.9795206937244283e-09
    vertex 401.10848513962753 392.4253117193018 2.97952267446191e-09
  endloop
endfacet
facet normal -1.096447140892361e-08 1.7684313600238674e-09 -1.0
  outer loop
    vertex 389.65848515642847 390.4253117193018 1.6832096523655544e-07
    vertex 401.25848510108443 342.5753117192977 2.979512515821629e-09
    vertex 389.65848511192894 342.57531171931936 -2.7626213956723996e-09
  endloop
endfacet
facet normal -1.096447140892361e-08 1.7684313600238674e-09 -1.0
  outer loop
    vertex 401.25848510108443 342.5753117192977 2.979512515821629e-09
    vertex 389.65848515642847 390.4253117193018 1.6832096523655544e-07
    vertex 389.8084851383446 392.4253117193018 1.7323716088434565e-07
  endloop
endfacet
facet normal -1.096447140892361e-08 1.7684313600238674e-09 -1.0
  outer loop
    vertex 401.25848510108443 342.5753117192977 2.979512515821629e-09
    vertex 389.8084851383446 392.4253117193018 1.7323716088434565e-07
    vertex 391.80848510108444 392.57531171931964 1.4354445501235817e-07
  endloop
endfacet
facet normal -1.096447140892361e-08 1.7684313600238674e-09 -1.0
  outer loop
    vertex 401.25848510108443 342.5753117192977 2.979512515821629e-09
    vertex 391.80848510108444 392.57531171931964 1.4354445501235817e-07
    vertex 399.10848510108445 392.57531171930555 3.3208540431567716e-08
  endloop
endfacet
facet normal -1.096447140892361e-08 1.7684313600238674e-09 -1.0
  outer loop
    vertex 401.25848510108443 342.5753117192977 2.979512515821629e-09
    vertex 399.10848510108445 392.57531171930555 3.3208540431567716e-08
    vertex 401.10848513962753 392.4253117193018 2.97952267446191e-09
  endloop
endfacet
facet normal -1.096447140892361e-08 1.7684313600238674e-09 -1.0
  outer loop
    vertex 401.25848510108443 342.5753117192977 2.979512515821629e-09
    vertex 401.10848513962753 392.4253117193018 2.97952267446191e-09
    vertex 401.25848510108443 382.5753117193018 2.9795206937244283e-09
  endloop
endfacet
facet normal -9.913282321281419e-13 -1.0 4.4168979327616964e-13
  outer loop
    vertex 401.25848510108443 342.5753117192977 2.979512515821629e-09
    vertex 399.60848514094636 342.5753117193018 2.6757359588485246
    vertex 398.93274919959146 342.5753117193018 2.000000037627303
  endloop
endfacet
facet normal -9.913282321281419e-13 -1.0 4.4168979327616964e-13
  outer loop
    vertex 399.60848514094636 342.5753117193018 2.6757359588485246
    vertex 401.25848510108443 342.5753117192977 2.979512515821629e-09
    vertex 401.2584851755723 342.5753117193018 5.00000000297951
  endloop
endfacet
facet normal -9.913282321281419e-13 -1.0 4.4168979327616964e-13
  outer loop
    vertex 399.60848514094636 342.5753117193018 2.6757359588485246
    vertex 401.2584851755723 342.5753117193018 5.00000000297951
    vertex 399.6084851497689 342.5753117193018 3.267949219991605
  endloop
endfacet
facet normal -9.913282321281419e-13 -1.0 4.4168979327616964e-13
  outer loop
    vertex 399.6084851497689 342.5753117193018 3.267949219991605
    vertex 401.2584851755723 342.5753117193018 5.00000000297951
    vertex 398.7584851717018 342.5753117193018 4.740192419088081
  endloop
endfacet
facet normal -9.913282321281419e-13 -1.0 4.4168979327616964e-13
  outer loop
    vertex 398.7584851717018 342.5753117193018 4.740192419088081
    vertex 401.2584851755723 342.5753117193018 5.00000000297951
    vertex 399.10848510108445 342.57531171930555 5.000000034497905
  endloop
endfacet
facet normal -9.913282321281419e-13 -1.0 4.4168979327616964e-13
  outer loop
    vertex 389.65848511192894 342.57531171931936 -2.7626213956723996e-09
    vertex 391.3084851409463 342.5753117193018 2.6757360824983047
    vertex 389.6584851755722 342.57531171932345 5.000000176008106
  endloop
endfacet
facet normal -9.913282321281419e-13 -1.0 4.4168979327616964e-13
  outer loop
    vertex 391.3084851409463 342.5753117193018 2.6757360824983047
    vertex 389.65848511192894 342.57531171931936 -2.7626213956723996e-09
    vertex 391.98422106216765 342.5753117193018 2.0000001411434223
  endloop
endfacet
facet normal -9.913282321281419e-13 -1.0 4.4168979327616964e-13
  outer loop
    vertex 391.98422106216765 342.5753117193018 2.0000001411434223
    vertex 389.65848511192894 342.57531171931936 -2.7626213956723996e-09
    vertex 401.25848510108443 342.5753117192977 2.979512515821629e-09
  endloop
endfacet
facet normal -9.913282321281419e-13 -1.0 4.4168979327616964e-13
  outer loop
    vertex 391.98422106216765 342.5753117193018 2.0000001411434223
    vertex 401.25848510108443 342.5753117192977 2.979512515821629e-09
    vertex 398.93274919959146 342.5753117193018 2.000000037627303
  endloop
endfacet
facet normal -9.913282321281419e-13 -1.0 4.4168979327616964e-13
  outer loop
    vertex 389.6584851755722 342.57531171932345 5.000000176008106
    vertex 391.3084851409463 342.5753117193018 2.6757360824983047
    vertex 391.3084851497689 342.5753117193018 3.267949343641363
  endloop
endfacet
facet normal -9.913282321281419e-13 -1.0 4.4168979327616964e-13
  outer loop
    vertex 389.6584851755722 342.57531171932345 5.000000176008106
    vertex 391.3084851497689 342.5753117193018 3.267949343641363
    vertex 392.1584851717017 342.5753117193018 4.740192517411982
  endloop
endfacet
facet normal -9.913282321281419e-13 -1.0 4.4168979327616964e-13
  outer loop
    vertex 389.6584851755722 342.57531171932345 5.000000176008106
    vertex 392.1584851717017 342.5753117193018 4.740192517411982
    vertex 391.80848510108444 342.5753117193117 5.000000143781178
  endloop
endfacet
facet normal 1.0 -2.808794776161565e-10 -1.2715644656102033e-08
  outer loop
    vertex 401.25848510108443 382.5753117193018 2.9795206937244283e-09
    vertex 401.2584851755723 342.5753117193018 5.00000000297951
    vertex 401.25848510108443 342.5753117192977 2.979512515821629e-09
  endloop
endfacet
facet normal 1.0 -2.808794776161565e-10 -1.2715644656102033e-08
  outer loop
    vertex 401.2584851755723 342.5753117193018 5.00000000297951
    vertex 401.25848510108443 382.5753117193018 2.9795206937244283e-09
    vertex 401.2584851755723 390.4253117193018 5.00000000297951
  endloop
endfacet
facet normal 1.0 -2.808794776161565e-10 -1.2715644656102033e-08
  outer loop
    vertex 401.2584851755723 390.4253117193018 5.00000000297951
    vertex 401.25848510108443 382.5753117193018 2.9795206937244283e-09
    vertex 401.25848513832835 390.4253117193018 2.9795221236236756e-09
  endloop
endfacet
facet normal 0.9971993099126122 0.07478994791955747 -7.29836193485553e-09
  outer loop
    vertex 401.10848513962753 392.4253117193018 2.97952267446191e-09
    vertex 401.2584851755723 390.4253117193018 5.00000000297951
    vertex 401.25848513832835 390.4253117193018 2.9795221236236756e-09
  endloop
endfacet
facet normal 0.9971993099126122 0.07478994791955747 -7.29836193485553e-09
  outer loop
    vertex 401.2584851755723 390.4253117193018 5.00000000297951
    vertex 401.10848513962753 392.4253117193018 2.97952267446191e-09
    vertex 401.10848517557224 392.4253117193018 5.00000000297951
  endloop
endfacet
facet normal -0.9971993102246882 0.0747899437585432 5.621349934187089e-09
  outer loop
    vertex 389.80848517557223 392.4253117193018 5.000000173773472
    vertex 389.65848515642847 390.4253117193018 1.6832096523655544e-07
    vertex 389.6584851755722 390.4253117193018 5.000000176008106
  endloop
endfacet
facet normal -0.9971993102246882 0.0747899437585432 5.621349934187089e-09
  outer loop
    vertex 389.65848515642847 390.4253117193018 1.6832096523655544e-07
    vertex 389.80848517557223 392.4253117193018 5.000000173773472
    vertex 389.8084851383446 392.4253117193018 1.7323716088434565e-07
  endloop
endfacet
facet normal 9.145559811742387e-13 1.0 3.936451960790627e-12
  outer loop
    vertex 391.80848510108444 392.57531171931964 1.4354445501235817e-07
    vertex 391.98422106216765 392.5753117193018 2.0000001411434223
    vertex 398.93274919959146 392.5753117193018 2.000000037627303
  endloop
endfacet
facet normal 9.145559811742387e-13 1.0 3.936451960790627e-12
  outer loop
    vertex 391.98422106216765 392.5753117193018 2.0000001411434223
    vertex 391.80848510108444 392.57531171931964 1.4354445501235817e-07
    vertex 391.80848510108444 392.575311719309 2.1757361074626913
  endloop
endfacet
facet normal 9.145559811742387e-13 1.0 3.936451960790627e-12
  outer loop
    vertex 399.10848510108445 392.57531171930555 3.3208540431567716e-08
    vertex 398.93274919959146 392.5753117193018 2.000000037627303
    vertex 399.10848510108445 392.57531171930367 2.1757359338841673
  endloop
endfacet
facet normal 9.145559811742387e-13 1.0 3.936451960790627e-12
  outer loop
    vertex 398.93274919959146 392.5753117193018 2.000000037627303
    vertex 399.10848510108445 392.57531171930555 3.3208540431567716e-08
    vertex 391.80848510108444 392.57531171931964 1.4354445501235817e-07
  endloop
endfacet
facet normal -9.204372290913776e-12 1.0 -2.1881779709047242e-12
  outer loop
    vertex 399.10848510108445 392.57531171930555 5.000000034497905
    vertex 399.10848510108445 392.57531171930367 4.133974737895238
    vertex 398.7584851717018 392.5753117193018 4.740192419088081
  endloop
endfacet
facet normal -0.07478994610071774 -0.9971993100490252 2.4511794920287085e-10
  outer loop
    vertex 401.10848517557224 392.4253117193018 5.00000000297951
    vertex 399.10848510108445 392.57531171930555 3.3208540431567716e-08
    vertex 401.10848513962753 392.4253117193018 2.97952267446191e-09
  endloop
endfacet
facet normal -0.07478994610071774 -0.9971993100490252 2.4511794920287085e-10
  outer loop
    vertex 399.10848510108445 392.57531171930555 3.3208540431567716e-08
    vertex 401.10848517557224 392.4253117193018 5.00000000297951
    vertex 399.60661714583057 392.5379518169864 2.675735958876353
  endloop
endfacet
facet normal -0.07478994610071774 -0.9971993100490252 2.4511794920287085e-10
  outer loop
    vertex 399.10848510108445 392.57531171930555 3.3208540431567716e-08
    vertex 399.60661714583057 392.5379518169864 2.675735958876353
    vertex 399.10848510108445 392.57531171930367 2.1757359338841673
  endloop
endfacet
facet normal -0.07478994610071774 -0.9971993100490252 2.4511794920287085e-10
  outer loop
    vertex 399.60661714583057 392.5379518169864 2.675735958876353
    vertex 401.10848517557224 392.4253117193018 5.00000000297951
    vertex 399.6066171502309 392.53795181676634 3.267949220019434
  endloop
endfacet
facet normal -0.07478994610071774 -0.9971993100490252 2.4511794920287085e-10
  outer loop
    vertex 399.6066171502309 392.53795181676634 3.267949220019434
    vertex 401.10848517557224 392.4253117193018 5.00000000297951
    vertex 399.10848510108445 392.57531171930367 4.133974737895238
  endloop
endfacet
facet normal -0.07478994610071774 -0.9971993100490252 2.4511794920287085e-10
  outer loop
    vertex 399.10848510108445 392.57531171930367 4.133974737895238
    vertex 401.10848517557224 392.4253117193018 5.00000000297951
    vertex 399.10848510108445 392.57531171930555 5.000000034497905
  endloop
endfacet
facet normal 2.4725461504900572e-11 1.0 -4.8973494873475944e-12
  outer loop
    vertex 391.80848510108444 392.5753117193117 5.000000143781178
    vertex 392.1584851717017 392.5753117193018 4.740192517411982
    vertex 391.80848510108444 392.5753117193075 4.1339746333067175
  endloop
endfacet
facet normal 0.07478995036682323 -0.9971993097290672 -2.547953399289304e-10
  outer loop
    vertex 391.80848510108444 392.575311719309 2.1757361074626913
    vertex 389.8084851383446 392.4253117193018 1.7323716088434565e-07
    vertex 391.80848510108444 392.57531171931964 1.4354445501235817e-07
  endloop
endfacet
facet normal 0.07478995036682323 -0.9971993097290672 -2.547953399289304e-10
  outer loop
    vertex 389.8084851383446 392.4253117193018 1.7323716088434565e-07
    vertex 391.80848510108444 392.575311719309 2.1757361074626913
    vertex 391.31035313586676 392.53795182089226 2.6757360824704763
  endloop
endfacet
facet normal 0.07478995036682323 -0.9971993097290672 -2.547953399289304e-10
  outer loop
    vertex 389.8084851383446 392.4253117193018 1.7323716088434565e-07
    vertex 391.31035313586676 392.53795182089226 2.6757360824704763
    vertex 389.80848517557223 392.4253117193018 5.000000173773472
  endloop
endfacet
facet normal 0.07478995036682323 -0.9971993097290672 -2.547953399289304e-10
  outer loop
    vertex 389.80848517557223 392.4253117193018 5.000000173773472
    vertex 391.31035313586676 392.53795182089226 2.6757360824704763
    vertex 391.31035314026707 392.53795182111224 3.2679493436135343
  endloop
endfacet
facet normal 0.07478995036682323 -0.9971993097290672 -2.547953399289304e-10
  outer loop
    vertex 389.80848517557223 392.4253117193018 5.000000173773472
    vertex 391.31035314026707 392.53795182111224 3.2679493436135343
    vertex 391.80848510108444 392.5753117193075 4.1339746333067175
  endloop
endfacet
facet normal 0.07478995036682323 -0.9971993097290672 -2.547953399289304e-10
  outer loop
    vertex 389.80848517557223 392.4253117193018 5.000000173773472
    vertex 391.80848510108444 392.5753117193075 4.1339746333067175
    vertex 391.80848510108444 392.5753117193117 5.000000143781178
  endloop
endfacet
facet normal -0.8652146523618657 0.04326073224599677 -0.49953189526183
  outer loop
    vertex 398.7584851717018 392.5753117193018 4.740192419088081
    vertex 399.458485149769 389.57531171930174 3.26794922222624
    vertex 398.6084851717017 389.57531171930174 4.740192421322715
  endloop
endfacet
facet normal -0.8652146523618657 0.04326073224599677 -0.49953189526183
  outer loop
    vertex 399.458485149769 389.57531171930174 3.26794922222624
    vertex 398.7584851717018 392.5753117193018 4.740192419088081
    vertex 399.6066171502309 392.53795181676634 3.267949220019434
  endloop
endfacet
facet normal -0.8652146523618657 0.04326073224599677 -0.49953189526183
  outer loop
    vertex 399.6066171502309 392.53795181676634 3.267949220019434
    vertex 398.7584851717018 392.5753117193018 4.740192419088081
    vertex 399.10848510108445 392.57531171930367 4.133974737895238
  endloop
endfacet
facet normal -0.9987523388778453 0.04993761694388026 1.4879035461152341e-08
  outer loop
    vertex 399.6066171502309 392.53795181676634 3.267949220019434
    vertex 399.4584851409464 389.57531171930174 2.675735961083159
    vertex 399.458485149769 389.57531171930174 3.26794922222624
  endloop
endfacet
facet normal -0.9987523388778453 0.04993761694388026 1.4879035461152341e-08
  outer loop
    vertex 399.4584851409464 389.57531171930174 2.675735961083159
    vertex 399.6066171502309 392.53795181676634 3.267949220019434
    vertex 399.60661714583057 392.5379518169864 2.675735958876353
  endloop
endfacet
endsolid Bridge proto 1
