solid Bridge proto 1
facet normal -0.997199309888456 -0.07478994824163981 -2.8038264164593032e-14
  outer loop
    vertex 407.24527065160544 344.5753117192977 5.200000002979512
    vertex 407.3952706516054 342.5753117192977 4.41243556827772
    vertex 407.3952706516054 342.5753117192977 5.200000002979514
  endloop
endfacet
facet normal -0.997199309888456 -0.07478994824163981 -2.8038264164593032e-14
  outer loop
    vertex 407.3952706516054 342.5753117192977 4.41243556827772
    vertex 407.24527065160544 344.5753117192977 5.200000002979512
    vertex 407.24527065160544 344.5753117192977 4.41243556827772
  endloop
endfacet
facet normal 0.8642043912245159 0.06481532934184375 -0.49894863790832444
  outer loop
    vertex 413.6798005977676 357.5753117192977 3.0000000029795166
    vertex 414.6452706516055 355.57531171929776 4.412435568277726
    vertex 413.82980059776753 355.57531171929776 3.0000000029795153
  endloop
endfacet
facet normal 0.8642043912245159 0.06481532934184375 -0.49894863790832444
  outer loop
    vertex 414.6452706516055 355.57531171929776 4.412435568277726
    vertex 413.6798005977676 357.5753117192977 3.0000000029795166
    vertex 414.49527065160544 357.5753117192977 4.412435568277726
  endloop
endfacet
facet normal -0.8642043912245092 -0.06481532934184321 -0.4989486379083358
  outer loop
    vertex 407.24527065160544 344.5753117192977 4.41243556827772
    vertex 408.21074070544347 342.5753117192977 3.000000002979519
    vertex 407.3952706516054 342.5753117192977 4.41243556827772
  endloop
endfacet
facet normal -0.8642043912245092 -0.06481532934184321 -0.4989486379083358
  outer loop
    vertex 408.21074070544347 342.5753117192977 3.000000002979519
    vertex 407.24527065160544 344.5753117192977 4.41243556827772
    vertex 408.0607407054434 344.5753117192977 3.000000002979517
  endloop
endfacet
facet normal -3.031028589476981e-16 -9.607372343826073e-17 1.0
  outer loop
    vertex 405.9452706516055 382.5753117192912 3.000000002979521
    vertex 408.0607407054434 357.5753117192977 3.0000000029795215
    vertex 408.0607407054434 382.57531171929116 3.000000002979522
  endloop
endfacet
facet normal -3.031028589476981e-16 -9.607372343826073e-17 1.0
  outer loop
    vertex 408.0607407054434 357.5753117192977 3.0000000029795215
    vertex 405.9452706516055 382.5753117192912 3.000000002979521
    vertex 408.0607407054434 355.57531171929776 3.0000000029795184
  endloop
endfacet
facet normal -3.031028589476981e-16 -9.607372343826073e-17 1.0
  outer loop
    vertex 408.0607407054434 355.57531171929776 3.0000000029795184
    vertex 405.9452706516055 382.5753117192912 3.000000002979521
    vertex 408.0607407054434 344.5753117192977 3.000000002979517
  endloop
endfacet
facet normal -3.031028589476981e-16 -9.607372343826073e-17 1.0
  outer loop
    vertex 408.0607407054434 344.5753117192977 3.000000002979517
    vertex 405.9452706516055 342.5753117192977 3.0000000029795184
    vertex 408.21074070544347 342.5753117192977 3.000000002979519
  endloop
endfacet
facet normal -3.031028589476981e-16 -9.607372343826073e-17 1.0
  outer loop
    vertex 405.9452706516055 342.5753117192977 3.0000000029795184
    vertex 408.0607407054434 344.5753117192977 3.000000002979517
    vertex 405.9452706516055 382.5753117192912 3.000000002979521
  endloop
endfacet
facet normal -3.031028589476981e-16 -9.607372343826073e-17 1.0
  outer loop
    vertex 408.0607407054434 355.57531171929776 3.0000000029795184
    vertex 408.21074070544347 357.5753117192977 3.0000000029795215
    vertex 408.0607407054434 357.5753117192977 3.0000000029795215
  endloop
endfacet
facet normal -1.0 0.0 5.273559366969494e-16
  outer loop
    vertex 405.9452706516055 382.5753117192912 3.000000002979521
    vertex 405.9452706516056 342.5753117192977 2.979519481138837e-09
    vertex 405.9452706516055 342.5753117192977 3.0000000029795184
  endloop
endfacet
facet normal -1.0 0.0 5.273559366969494e-16
  outer loop
    vertex 405.9452706516056 342.5753117192977 2.979519481138837e-09
    vertex 405.9452706516055 382.5753117192912 3.000000002979521
    vertex 405.9452706516056 382.57531171929094 2.979519481138837e-09
  endloop
endfacet
facet normal -0.7071067811865313 -1.2426560022110285e-16 0.7071067811865639
  outer loop
    vertex 407.24527065160544 355.57531171929776 5.200000002979515
    vertex 407.74527065160544 344.5753117192977 5.700000002979511
    vertex 407.74527065160544 355.57531171929776 5.700000002979514
  endloop
endfacet
facet normal -0.7071067811865313 -1.2426560022110285e-16 0.7071067811865639
  outer loop
    vertex 407.74527065160544 344.5753117192977 5.700000002979511
    vertex 407.24527065160544 355.57531171929776 5.200000002979515
    vertex 407.24527065160544 344.5753117192977 5.200000002979512
  endloop
endfacet
facet normal -0.7061145048684685 -0.052958587865138886 0.7061145048685008
  outer loop
    vertex 407.74527065160544 344.5753117192977 5.700000002979511
    vertex 407.3952706516054 342.5753117192977 5.200000002979514
    vertex 407.8952706516055 342.5753117192977 5.700000002979513
  endloop
endfacet
facet normal -0.7061145048684685 -0.052958587865138886 0.7061145048685008
  outer loop
    vertex 407.3952706516054 342.5753117192977 5.200000002979514
    vertex 407.74527065160544 344.5753117192977 5.700000002979511
    vertex 407.24527065160544 344.5753117192977 5.200000002979512
  endloop
endfacet
facet normal 0.997199309888456 0.07478994824163983 -5.2587897613977815e-16
  outer loop
    vertex 414.49527065160544 357.5753117192977 4.412435568277726
    vertex 414.6452706516055 355.57531171929776 5.200000002979521
    vertex 414.6452706516055 355.57531171929776 4.412435568277726
  endloop
endfacet
facet normal 0.997199309888456 0.07478994824163983 -5.2587897613977815e-16
  outer loop
    vertex 414.6452706516055 355.57531171929776 5.200000002979521
    vertex 414.49527065160544 357.5753117192977 4.412435568277726
    vertex 414.49527065160544 357.5753117192977 5.200000002979523
  endloop
endfacet
facet normal -1.0 5.034006330276111e-30 -2.811757883443642e-14
  outer loop
    vertex 407.24527065160544 355.57531171929776 5.200000002979515
    vertex 407.24527065160544 344.5753117192977 4.41243556827772
    vertex 407.24527065160544 344.5753117192977 5.200000002979512
  endloop
endfacet
facet normal -1.0 5.034006330276111e-30 -2.811757883443642e-14
  outer loop
    vertex 407.24527065160544 344.5753117192977 4.41243556827772
    vertex 407.24527065160544 355.57531171929776 5.200000002979515
    vertex 407.24527065160544 355.57531171929776 4.412435568277722
  endloop
endfacet
facet normal 2.2627199259190165e-15 -1.7784572845194434e-16 1.0
  outer loop
    vertex 409.32027065160554 357.5753117192977 4.2000000029795235
    vertex 412.5702706516055 342.5753117192977 4.200000002979513
    vertex 412.5702706516055 357.5753117192977 4.2000000029795155
  endloop
endfacet
facet normal 2.2627199259190165e-15 -1.7784572845194434e-16 1.0
  outer loop
    vertex 412.5702706516055 342.5753117192977 4.200000002979513
    vertex 409.32027065160554 357.5753117192977 4.2000000029795235
    vertex 409.32027065160554 342.5753117192977 4.200000002979521
  endloop
endfacet
facet normal -6.634463701467414e-15 -1.7784572845194498e-16 1.0
  outer loop
    vertex 407.8952706516055 357.5753117192977 5.7000000029795155
    vertex 409.3202706516054 342.5753117192977 5.700000002979522
    vertex 409.3202706516054 357.5753117192977 5.700000002979524
  endloop
endfacet
facet normal -6.634463701467414e-15 -1.7784572845194498e-16 1.0
  outer loop
    vertex 409.3202706516054 342.5753117192977 5.700000002979522
    vertex 407.8952706516055 357.5753117192977 5.7000000029795155
    vertex 407.8952706516055 342.5753117192977 5.700000002979513
  endloop
endfacet
facet normal -6.634463701467414e-15 -1.7784572845194498e-16 1.0
  outer loop
    vertex 407.8952706516055 342.5753117192977 5.700000002979513
    vertex 407.8952706516055 357.5753117192977 5.7000000029795155
    vertex 407.74527065160544 355.57531171929776 5.700000002979514
  endloop
endfacet
facet normal -6.634463701467414e-15 -1.7784572845194498e-16 1.0
  outer loop
    vertex 407.8952706516055 342.5753117192977 5.700000002979513
    vertex 407.74527065160544 355.57531171929776 5.700000002979514
    vertex 407.74527065160544 344.5753117192977 5.700000002979511
  endloop
endfacet
facet normal -0.8642043912245092 0.06481532934184339 -0.4989486379083358
  outer loop
    vertex 407.3952706516054 357.5753117192977 4.412435568277723
    vertex 408.0607407054434 355.57531171929776 3.0000000029795184
    vertex 407.24527065160544 355.57531171929776 4.412435568277722
  endloop
endfacet
facet normal -0.8642043912245092 0.06481532934184339 -0.4989486379083358
  outer loop
    vertex 408.0607407054434 355.57531171929776 3.0000000029795184
    vertex 407.3952706516054 357.5753117192977 4.412435568277723
    vertex 408.21074070544347 357.5753117192977 3.0000000029795215
  endloop
endfacet
facet normal -0.997199309888456 0.07478994824163981 -2.8038264164593032e-14
  outer loop
    vertex 407.3952706516054 357.5753117192977 5.200000002979516
    vertex 407.24527065160544 355.57531171929776 4.412435568277722
    vertex 407.24527065160544 355.57531171929776 5.200000002979515
  endloop
endfacet
facet normal -0.997199309888456 0.07478994824163981 -2.8038264164593032e-14
  outer loop
    vertex 407.24527065160544 355.57531171929776 4.412435568277722
    vertex 407.3952706516054 357.5753117192977 5.200000002979516
    vertex 407.3952706516054 357.5753117192977 4.412435568277723
  endloop
endfacet
facet normal 0.706114504868483 -0.0529585878651403 0.7061145048684861
  outer loop
    vertex 414.14527065160553 344.5753117192977 5.700000002979515
    vertex 414.49527065160544 342.5753117192977 5.20000000297952
    vertex 414.6452706516055 344.5753117192977 5.200000002979518
  endloop
endfacet
facet normal 0.706114504868483 -0.0529585878651403 0.7061145048684861
  outer loop
    vertex 414.49527065160544 342.5753117192977 5.20000000297952
    vertex 414.14527065160553 344.5753117192977 5.700000002979515
    vertex 413.99527065160544 342.5753117192977 5.700000002979515
  endloop
endfacet
facet normal 1.0 0.0 -5.273559366969494e-16
  outer loop
    vertex 414.6452706516055 355.57531171929776 4.412435568277726
    vertex 414.6452706516055 344.5753117192977 5.200000002979518
    vertex 414.6452706516055 344.5753117192977 4.412435568277723
  endloop
endfacet
facet normal 1.0 0.0 -5.273559366969494e-16
  outer loop
    vertex 414.6452706516055 344.5753117192977 5.200000002979518
    vertex 414.6452706516055 355.57531171929776 4.412435568277726
    vertex 414.6452706516055 355.57531171929776 5.200000002979521
  endloop
endfacet
facet normal 1.0 9.459007069342807e-17 2.2883686559927127e-14
  outer loop
    vertex 415.9452706516055 357.5753117192977 2.0000000029795153
    vertex 415.9452706516055 342.5753117192977 3.000000002979513
    vertex 415.9452706516055 342.5753117192977 2.0000000029795153
  endloop
endfacet
facet normal 1.0 9.459007069342807e-17 2.2883686559927127e-14
  outer loop
    vertex 415.9452706516055 342.5753117192977 3.000000002979513
    vertex 415.9452706516055 357.5753117192977 2.0000000029795153
    vertex 415.9452706516055 357.5753117192977 3.0000000029795157
  endloop
endfacet
facet normal 1.0 9.459007069342807e-17 2.2883686559927127e-14
  outer loop
    vertex 415.9452706516055 357.5753117192977 3.0000000029795157
    vertex 415.9452706516055 357.5753117192977 2.0000000029795153
    vertex 415.9452706516055 357.5753117192977 2.8000000029795156
  endloop
endfacet
facet normal -1.3386268476885271e-15 -1.7784572845194486e-16 1.0
  outer loop
    vertex 413.99527065160544 357.5753117192977 5.700000002979517
    vertex 414.14527065160553 344.5753117192977 5.700000002979515
    vertex 414.14527065160553 355.57531171929776 5.700000002979516
  endloop
endfacet
facet normal -1.3386268476885271e-15 -1.7784572845194486e-16 1.0
  outer loop
    vertex 414.14527065160553 344.5753117192977 5.700000002979515
    vertex 413.99527065160544 357.5753117192977 5.700000002979517
    vertex 413.99527065160544 342.5753117192977 5.700000002979515
  endloop
endfacet
facet normal -1.3386268476885271e-15 -1.7784572845194486e-16 1.0
  outer loop
    vertex 413.99527065160544 342.5753117192977 5.700000002979515
    vertex 413.99527065160544 357.5753117192977 5.700000002979517
    vertex 412.5702706516055 357.5753117192977 5.700000002979516
  endloop
endfacet
facet normal -1.3386268476885271e-15 -1.7784572845194486e-16 1.0
  outer loop
    vertex 413.99527065160544 342.5753117192977 5.700000002979515
    vertex 412.5702706516055 357.5753117192977 5.700000002979516
    vertex 412.5702706516055 342.5753117192977 5.700000002979514
  endloop
endfacet
facet normal 0.7061145048684829 0.05295858786514006 0.7061145048684864
  outer loop
    vertex 414.49527065160544 357.5753117192977 5.200000002979523
    vertex 414.14527065160553 355.57531171929776 5.700000002979516
    vertex 414.6452706516055 355.57531171929776 5.200000002979521
  endloop
endfacet
facet normal 0.7061145048684829 0.05295858786514006 0.7061145048684864
  outer loop
    vertex 414.14527065160553 355.57531171929776 5.700000002979516
    vertex 414.49527065160544 357.5753117192977 5.200000002979523
    vertex 413.99527065160544 357.5753117192977 5.700000002979517
  endloop
endfacet
facet normal 1.0 4.0433387327652415e-16 2.955228654342794e-14
  outer loop
    vertex 409.32027065160554 357.5753117192977 4.2000000029795235
    vertex 409.3202706516054 342.5753117192977 5.700000002979522
    vertex 409.32027065160554 342.5753117192977 4.200000002979521
  endloop
endfacet
facet normal 1.0 4.0433387327652415e-16 2.955228654342794e-14
  outer loop
    vertex 409.3202706516054 342.5753117192977 5.700000002979522
    vertex 409.32027065160554 357.5753117192977 4.2000000029795235
    vertex 409.3202706516054 357.5753117192977 5.700000002979524
  endloop
endfacet
facet normal 0.8660254037844415 9.249373535216361e-17 -0.4999999999999951
  outer loop
    vertex 413.82980059776753 355.57531171929776 3.0000000029795153
    vertex 414.6452706516055 344.5753117192977 4.412435568277723
    vertex 413.82980059776753 344.5753117192977 3.000000002979514
  endloop
endfacet
facet normal 0.8660254037844415 9.249373535216361e-17 -0.4999999999999951
  outer loop
    vertex 414.6452706516055 344.5753117192977 4.412435568277723
    vertex 413.82980059776753 355.57531171929776 3.0000000029795153
    vertex 414.6452706516055 355.57531171929776 4.412435568277726
  endloop
endfacet
facet normal 0.7071067811865458 -1.2426560022110038e-16 0.7071067811865492
  outer loop
    vertex 414.14527065160553 355.57531171929776 5.700000002979516
    vertex 414.6452706516055 344.5753117192977 5.200000002979518
    vertex 414.6452706516055 355.57531171929776 5.200000002979521
  endloop
endfacet
facet normal 0.7071067811865458 -1.2426560022110038e-16 0.7071067811865492
  outer loop
    vertex 414.6452706516055 344.5753117192977 5.200000002979518
    vertex 414.14527065160553 355.57531171929776 5.700000002979516
    vertex 414.14527065160553 344.5753117192977 5.700000002979515
  endloop
endfacet
facet normal -1.0 -4.0433387327652687e-16 -1.4512465303779086e-14
  outer loop
    vertex 412.5702706516055 357.5753117192977 5.700000002979516
    vertex 412.5702706516055 342.5753117192977 4.200000002979513
    vertex 412.5702706516055 342.5753117192977 5.700000002979514
  endloop
endfacet
facet normal -1.0 -4.0433387327652687e-16 -1.4512465303779086e-14
  outer loop
    vertex 412.5702706516055 342.5753117192977 4.200000002979513
    vertex 412.5702706516055 357.5753117192977 5.700000002979516
    vertex 412.5702706516055 357.5753117192977 4.2000000029795155
  endloop
endfacet
facet normal 0.8642043912245159 -0.06481532934184349 -0.49894863790832444
  outer loop
    vertex 413.82980059776753 344.5753117192977 3.000000002979514
    vertex 414.49527065160544 342.5753117192977 4.412435568277723
    vertex 413.6798005977676 342.5753117192977 3.000000002979514
  endloop
endfacet
facet normal 0.8642043912245159 -0.06481532934184349 -0.49894863790832444
  outer loop
    vertex 414.49527065160544 342.5753117192977 4.412435568277723
    vertex 413.82980059776753 344.5753117192977 3.000000002979514
    vertex 414.6452706516055 344.5753117192977 4.412435568277723
  endloop
endfacet
facet normal -0.7061145048684684 0.052958587865138636 0.7061145048685009
  outer loop
    vertex 407.3952706516054 357.5753117192977 5.200000002979516
    vertex 407.74527065160544 355.57531171929776 5.700000002979514
    vertex 407.8952706516055 357.5753117192977 5.7000000029795155
  endloop
endfacet
facet normal -0.7061145048684684 0.052958587865138636 0.7061145048685009
  outer loop
    vertex 407.74527065160544 355.57531171929776 5.700000002979514
    vertex 407.3952706516054 357.5753117192977 5.200000002979516
    vertex 407.24527065160544 355.57531171929776 5.200000002979515
  endloop
endfacet
facet normal -0.8660254037844349 9.249373535216593e-17 -0.5000000000000067
  outer loop
    vertex 407.24527065160544 355.57531171929776 4.412435568277722
    vertex 408.0607407054434 344.5753117192977 3.000000002979517
    vertex 407.24527065160544 344.5753117192977 4.41243556827772
  endloop
endfacet
facet normal -0.8660254037844349 9.249373535216593e-17 -0.5000000000000067
  outer loop
    vertex 408.0607407054434 344.5753117192977 3.000000002979517
    vertex 407.24527065160544 355.57531171929776 4.412435568277722
    vertex 408.0607407054434 355.57531171929776 3.0000000029795184
  endloop
endfacet
facet normal 0.997199309888456 -0.07478994824163983 -5.2587897613977815e-16
  outer loop
    vertex 414.6452706516055 344.5753117192977 4.412435568277723
    vertex 414.49527065160544 342.5753117192977 5.20000000297952
    vertex 414.49527065160544 342.5753117192977 4.412435568277723
  endloop
endfacet
facet normal 0.997199309888456 -0.07478994824163983 -5.2587897613977815e-16
  outer loop
    vertex 414.49527065160544 342.5753117192977 5.20000000297952
    vertex 414.6452706516055 344.5753117192977 4.412435568277723
    vertex 414.6452706516055 344.5753117192977 5.200000002979518
  endloop
endfacet
facet normal 1.0 0.0 -5.273559366969494e-16
  outer loop
    vertex 408.0607407054434 382.57531171929105 2.800000002979522
    vertex 408.0607407054434 357.5753117192977 3.0000000029795215
    vertex 408.0607407054434 357.5753117192977 2.800000002979522
  endloop
endfacet
facet normal 1.0 0.0 -5.273559366969494e-16
  outer loop
    vertex 408.0607407054434 357.5753117192977 3.0000000029795215
    vertex 408.0607407054434 382.57531171929105 2.800000002979522
    vertex 408.0607407054434 382.57531171929116 3.000000002979522
  endloop
endfacet
facet normal 4.151794202114146e-16 -1.9179101158869047e-16 1.0
  outer loop
    vertex 413.6798005977676 357.5753117192977 3.0000000029795166
    vertex 415.9452706516055 342.5753117192977 3.000000002979513
    vertex 415.9452706516055 357.5753117192977 3.0000000029795157
  endloop
endfacet
facet normal 4.151794202114146e-16 -1.9179101158869047e-16 1.0
  outer loop
    vertex 415.9452706516055 342.5753117192977 3.000000002979513
    vertex 413.6798005977676 357.5753117192977 3.0000000029795166
    vertex 413.82980059776753 355.57531171929776 3.0000000029795153
  endloop
endfacet
facet normal 4.151794202114146e-16 -1.9179101158869047e-16 1.0
  outer loop
    vertex 415.9452706516055 342.5753117192977 3.000000002979513
    vertex 413.82980059776753 344.5753117192977 3.000000002979514
    vertex 413.6798005977676 342.5753117192977 3.000000002979514
  endloop
endfacet
facet normal 4.151794202114146e-16 -1.9179101158869047e-16 1.0
  outer loop
    vertex 413.82980059776753 344.5753117192977 3.000000002979514
    vertex 415.9452706516055 342.5753117192977 3.000000002979513
    vertex 413.82980059776753 355.57531171929776 3.0000000029795153
  endloop
endfacet
facet normal 0.0 1.0 0.0
  outer loop
    vertex 415.9452706516055 357.5753117192977 2.8000000029795156
    vertex 413.6798005977676 357.5753117192977 3.0000000029795166
    vertex 415.9452706516055 357.5753117192977 3.0000000029795157
  endloop
endfacet
facet normal 0.0 1.0 0.0
  outer loop
    vertex 413.6798005977676 357.5753117192977 3.0000000029795166
    vertex 415.9452706516055 357.5753117192977 2.8000000029795156
    vertex 408.0607407054434 357.5753117192977 2.800000002979522
  endloop
endfacet
facet normal 0.0 1.0 0.0
  outer loop
    vertex 414.49527065160544 357.5753117192977 5.200000002979523
    vertex 412.5702706516055 357.5753117192977 5.700000002979516
    vertex 413.99527065160544 357.5753117192977 5.700000002979517
  endloop
endfacet
facet normal 0.0 1.0 0.0
  outer loop
    vertex 412.5702706516055 357.5753117192977 5.700000002979516
    vertex 414.49527065160544 357.5753117192977 5.200000002979523
    vertex 412.5702706516055 357.5753117192977 4.2000000029795155
  endloop
endfacet
facet normal 0.0 1.0 0.0
  outer loop
    vertex 412.5702706516055 357.5753117192977 4.2000000029795155
    vertex 414.49527065160544 357.5753117192977 5.200000002979523
    vertex 414.49527065160544 357.5753117192977 4.412435568277726
  endloop
endfacet
facet normal 0.0 1.0 0.0
  outer loop
    vertex 412.5702706516055 357.5753117192977 4.2000000029795155
    vertex 414.49527065160544 357.5753117192977 4.412435568277726
    vertex 413.6798005977676 357.5753117192977 3.0000000029795166
  endloop
endfacet
facet normal 0.0 1.0 0.0
  outer loop
    vertex 412.5702706516055 357.5753117192977 4.2000000029795155
    vertex 413.6798005977676 357.5753117192977 3.0000000029795166
    vertex 408.21074070544347 357.5753117192977 3.0000000029795215
  endloop
endfacet
facet normal 0.0 1.0 0.0
  outer loop
    vertex 408.21074070544347 357.5753117192977 3.0000000029795215
    vertex 413.6798005977676 357.5753117192977 3.0000000029795166
    vertex 408.0607407054434 357.5753117192977 3.0000000029795215
  endloop
endfacet
facet normal 0.0 1.0 0.0
  outer loop
    vertex 408.0607407054434 357.5753117192977 3.0000000029795215
    vertex 413.6798005977676 357.5753117192977 3.0000000029795166
    vertex 408.0607407054434 357.5753117192977 2.800000002979522
  endloop
endfacet
facet normal 0.0 1.0 0.0
  outer loop
    vertex 409.32027065160554 357.5753117192977 4.2000000029795235
    vertex 407.8952706516055 357.5753117192977 5.7000000029795155
    vertex 409.3202706516054 357.5753117192977 5.700000002979524
  endloop
endfacet
facet normal 0.0 1.0 0.0
  outer loop
    vertex 407.8952706516055 357.5753117192977 5.7000000029795155
    vertex 409.32027065160554 357.5753117192977 4.2000000029795235
    vertex 407.3952706516054 357.5753117192977 5.200000002979516
  endloop
endfacet
facet normal 0.0 1.0 0.0
  outer loop
    vertex 407.3952706516054 357.5753117192977 5.200000002979516
    vertex 409.32027065160554 357.5753117192977 4.2000000029795235
    vertex 407.3952706516054 357.5753117192977 4.412435568277723
  endloop
endfacet
facet normal 0.0 1.0 0.0
  outer loop
    vertex 407.3952706516054 357.5753117192977 4.412435568277723
    vertex 409.32027065160554 357.5753117192977 4.2000000029795235
    vertex 408.21074070544347 357.5753117192977 3.0000000029795215
  endloop
endfacet
facet normal 0.0 1.0 0.0
  outer loop
    vertex 408.21074070544347 357.5753117192977 3.0000000029795215
    vertex 409.32027065160554 357.5753117192977 4.2000000029795235
    vertex 412.5702706516055 357.5753117192977 4.2000000029795155
  endloop
endfacet
facet normal 7.907208648592666e-16 -4.102088350198035e-18 1.0
  outer loop
    vertex 408.94527065160554 382.57531171929105 2.800000002979521
    vertex 408.0607407054434 357.5753117192977 2.800000002979522
    vertex 415.9452706516055 357.5753117192977 2.8000000029795156
  endloop
endfacet
facet normal 7.907208648592666e-16 -4.102088350198035e-18 1.0
  outer loop
    vertex 408.0607407054434 357.5753117192977 2.800000002979522
    vertex 408.94527065160554 382.57531171929105 2.800000002979521
    vertex 408.0607407054434 382.57531171929105 2.800000002979522
  endloop
endfacet
facet normal 3.144783970661644e-14 1.0 -6.572098692282357e-14
  outer loop
    vertex 408.94527065160554 382.57531171929094 2.9795180711555957e-09
    vertex 408.0607407054434 382.57531171929105 2.800000002979522
    vertex 408.94527065160554 382.57531171929105 2.800000002979521
  endloop
endfacet
facet normal 3.144783970661644e-14 1.0 -6.572098692282357e-14
  outer loop
    vertex 408.0607407054434 382.57531171929105 2.800000002979522
    vertex 405.9452706516055 382.5753117192912 3.000000002979521
    vertex 408.0607407054434 382.57531171929116 3.000000002979522
  endloop
endfacet
facet normal 3.144783970661644e-14 1.0 -6.572098692282357e-14
  outer loop
    vertex 405.9452706516055 382.5753117192912 3.000000002979521
    vertex 408.0607407054434 382.57531171929105 2.800000002979522
    vertex 405.9452706516056 382.57531171929094 2.979519481138837e-09
  endloop
endfacet
facet normal 3.144783970661644e-14 1.0 -6.572098692282357e-14
  outer loop
    vertex 405.9452706516056 382.57531171929094 2.979519481138837e-09
    vertex 408.0607407054434 382.57531171929105 2.800000002979522
    vertex 408.94527065160554 382.57531171929094 2.9795180711555957e-09
  endloop
endfacet
facet normal -0.0 -1.0 0.0
  outer loop
    vertex 407.8952706516055 342.5753117192977 5.700000002979513
    vertex 409.32027065160554 342.5753117192977 4.200000002979521
    vertex 409.3202706516054 342.5753117192977 5.700000002979522
  endloop
endfacet
facet normal -0.0 -1.0 0.0
  outer loop
    vertex 409.32027065160554 342.5753117192977 4.200000002979521
    vertex 407.8952706516055 342.5753117192977 5.700000002979513
    vertex 407.3952706516054 342.5753117192977 5.200000002979514
  endloop
endfacet
facet normal -0.0 -1.0 0.0
  outer loop
    vertex 409.32027065160554 342.5753117192977 4.200000002979521
    vertex 407.3952706516054 342.5753117192977 5.200000002979514
    vertex 407.3952706516054 342.5753117192977 4.41243556827772
  endloop
endfacet
facet normal -0.0 -1.0 0.0
  outer loop
    vertex 409.32027065160554 342.5753117192977 4.200000002979521
    vertex 407.3952706516054 342.5753117192977 4.41243556827772
    vertex 408.21074070544347 342.5753117192977 3.000000002979519
  endloop
endfacet
facet normal -0.0 -1.0 0.0
  outer loop
    vertex 409.32027065160554 342.5753117192977 4.200000002979521
    vertex 408.21074070544347 342.5753117192977 3.000000002979519
    vertex 412.5702706516055 342.5753117192977 4.200000002979513
  endloop
endfacet
facet normal -0.0 -1.0 0.0
  outer loop
    vertex 412.5702706516055 342.5753117192977 5.700000002979514
    vertex 414.49527065160544 342.5753117192977 5.20000000297952
    vertex 413.99527065160544 342.5753117192977 5.700000002979515
  endloop
endfacet
facet normal -0.0 -1.0 0.0
  outer loop
    vertex 414.49527065160544 342.5753117192977 5.20000000297952
    vertex 412.5702706516055 342.5753117192977 5.700000002979514
    vertex 412.5702706516055 342.5753117192977 4.200000002979513
  endloop
endfacet
facet normal -0.0 -1.0 0.0
  outer loop
    vertex 414.49527065160544 342.5753117192977 5.20000000297952
    vertex 412.5702706516055 342.5753117192977 4.200000002979513
    vertex 414.49527065160544 342.5753117192977 4.412435568277723
  endloop
endfacet
facet normal -0.0 -1.0 0.0
  outer loop
    vertex 414.49527065160544 342.5753117192977 4.412435568277723
    vertex 412.5702706516055 342.5753117192977 4.200000002979513
    vertex 413.6798005977676 342.5753117192977 3.000000002979514
  endloop
endfacet
facet normal -0.0 -1.0 0.0
  outer loop
    vertex 413.6798005977676 342.5753117192977 3.000000002979514
    vertex 412.5702706516055 342.5753117192977 4.200000002979513
    vertex 408.21074070544347 342.5753117192977 3.000000002979519
  endloop
endfacet
facet normal -0.0 -1.0 0.0
  outer loop
    vertex 413.6798005977676 342.5753117192977 3.000000002979514
    vertex 408.21074070544347 342.5753117192977 3.000000002979519
    vertex 405.9452706516055 342.5753117192977 3.0000000029795184
  endloop
endfacet
facet normal -0.0 -1.0 0.0
  outer loop
    vertex 413.6798005977676 342.5753117192977 3.000000002979514
    vertex 405.9452706516055 342.5753117192977 3.0000000029795184
    vertex 405.9452706516056 342.5753117192977 2.979519481138837e-09
  endloop
endfacet
facet normal -0.0 -1.0 0.0
  outer loop
    vertex 413.6798005977676 342.5753117192977 3.000000002979514
    vertex 405.9452706516056 342.5753117192977 2.979519481138837e-09
    vertex 415.9452706516055 342.5753117192977 3.000000002979513
  endloop
endfacet
facet normal -0.0 -1.0 0.0
  outer loop
    vertex 415.9452706516055 342.5753117192977 3.000000002979513
    vertex 405.9452706516056 342.5753117192977 2.979519481138837e-09
    vertex 415.9452706516055 342.5753117192977 2.0000000029795153
  endloop
endfacet
facet normal -0.0 -1.0 0.0
  outer loop
    vertex 415.9452706516055 342.5753117192977 2.0000000029795153
    vertex 405.9452706516056 342.5753117192977 2.979519481138837e-09
    vertex 413.94527065160554 342.5753117192977 2.9795166611723545e-09
  endloop
endfacet
facet normal -3.5386163767319623e-16 -6.609106043539984e-18 -1.0
  outer loop
    vertex 405.9452706516056 342.5753117192977 2.979519481138837e-09
    vertex 413.94527065160554 364.718168862153 2.9795166611723545e-09
    vertex 413.94527065160554 342.5753117192977 2.9795166611723545e-09
  endloop
endfacet
facet normal -3.5386163767319623e-16 -6.609106043539984e-18 -1.0
  outer loop
    vertex 413.94527065160554 364.718168862153 2.9795166611723545e-09
    vertex 405.9452706516056 342.5753117192977 2.979519481138837e-09
    vertex 408.94527065160554 382.57531171929094 2.9795180711555957e-09
  endloop
endfacet
facet normal -3.5386163767319623e-16 -6.609106043539984e-18 -1.0
  outer loop
    vertex 408.94527065160554 382.57531171929094 2.9795180711555957e-09
    vertex 405.9452706516056 342.5753117192977 2.979519481138837e-09
    vertex 405.9452706516056 382.57531171929094 2.979519481138837e-09
  endloop
endfacet
facet normal 0.9629640197141638 0.2696299255200355 9.121180229965923e-15
  outer loop
    vertex 413.94527065160554 364.718168862153 2.9795166611723545e-09
    vertex 415.9452706516055 357.5753117192977 2.8000000029795156
    vertex 415.9452706516055 357.5753117192977 2.0000000029795153
  endloop
endfacet
facet normal 0.9629640197141638 0.2696299255200355 9.121180229965923e-15
  outer loop
    vertex 415.9452706516055 357.5753117192977 2.8000000029795156
    vertex 413.94527065160554 364.718168862153 2.9795166611723545e-09
    vertex 408.94527065160554 382.57531171929105 2.800000002979521
  endloop
endfacet
facet normal 0.9629640197141638 0.2696299255200355 9.121180229965923e-15
  outer loop
    vertex 408.94527065160554 382.57531171929105 2.800000002979521
    vertex 413.94527065160554 364.718168862153 2.9795166611723545e-09
    vertex 408.94527065160554 382.57531171929094 2.9795180711555957e-09
  endloop
endfacet
facet normal 0.7071067811865599 -2.7881633674907043e-18 -0.7071067811865352
  outer loop
    vertex 413.94527065160554 364.718168862153 2.9795166611723545e-09
    vertex 415.9452706516055 342.5753117192977 2.0000000029795153
    vertex 413.94527065160554 342.5753117192977 2.9795166611723545e-09
  endloop
endfacet
facet normal 0.7071067811865599 -2.7881633674907043e-18 -0.7071067811865352
  outer loop
    vertex 415.9452706516055 342.5753117192977 2.0000000029795153
    vertex 413.94527065160554 364.718168862153 2.9795166611723545e-09
    vertex 415.9452706516055 357.5753117192977 2.0000000029795153
  endloop
endfacet
endsolid Bridge proto 1
