solid Bridge proto 1
facet normal 1.0 3.4694469519536134e-18 -5.5511151231257815e-17
  outer loop
    vertex 425.4758843885987 368.593881787458 2.000000080025445
    vertex 425.47588438859776 370.3938817907261 4.000000081006519
    vertex 425.47588438859776 368.5938817873197 4.000000079916433
  endloop
endfacet
facet normal 1.0 3.4694469519536134e-18 -5.5511151231257815e-17
  outer loop
    vertex 425.47588438859776 370.3938817907261 4.000000081006519
    vertex 425.4758843885987 368.593881787458 2.000000080025445
    vertex 425.4758843885987 370.39388179086427 2.000000081006517
  endloop
endfacet
facet normal -0.0995037228256847 -0.9950371898295206 -1.5188596907966812e-09
  outer loop
    vertex 423.1008843743205 368.3938817874197 4.800000156035228
    vertex 421.10088437574774 368.5938818031276 2.676519807121025e-07
    vertex 423.1008843757476 368.3938818031276 2.676519807121025e-07
  endloop
endfacet
facet normal -0.0995037228256847 -0.9950371898295206 -1.5188596907966812e-09
  outer loop
    vertex 421.10088437574774 368.5938818031276 2.676519807121025e-07
    vertex 423.1008843743205 368.3938817874197 4.800000156035228
    vertex 421.60088439145505 368.5438817953037 4.800000198656676
  endloop
endfacet
facet normal -0.0995037228256847 -0.9950371898295206 -1.5188596907966812e-09
  outer loop
    vertex 421.10088437574774 368.5938818031276 2.676519807121025e-07
    vertex 421.60088439145505 368.5438817953037 4.800000198656676
    vertex 421.1008843933829 368.59388179954897 5.400000259777237
  endloop
endfacet
facet normal -0.0995037228256847 -0.9950371898295206 -1.5188596907966812e-09
  outer loop
    vertex 421.1008843933829 368.59388179954897 5.400000259777237
    vertex 421.60088439145505 368.5438817953037 4.800000198656676
    vertex 421.60088441051744 368.54388179463643 5.40000019865668
  endloop
endfacet
facet normal 7.136023411069559e-09 1.4556892656558684e-08 1.0
  outer loop
    vertex 423.1008843743205 368.3938817874197 4.800000156035228
    vertex 421.60088439145505 370.3938817838652 4.800000123998937
    vertex 421.60088439145505 368.5438817953037 4.800000198656676
  endloop
endfacet
facet normal 7.136023411069559e-09 1.4556892656558684e-08 1.0
  outer loop
    vertex 421.60088439145505 370.3938817838652 4.800000123998937
    vertex 423.1008843743205 368.3938817874197 4.800000156035228
    vertex 432.600884391455 370.3938817838652 4.800000084837391
  endloop
endfacet
facet normal 7.136023411069559e-09 1.4556892656558684e-08 1.0
  outer loop
    vertex 432.600884391455 370.3938817838652 4.800000084837391
    vertex 423.1008843743205 368.3938817874197 4.800000156035228
    vertex 431.10088446370594 368.3938817941766 4.800000099305161
  endloop
endfacet
facet normal 7.136023411069559e-09 1.4556892656558684e-08 1.0
  outer loop
    vertex 432.600884391455 370.3938817838652 4.800000084837391
    vertex 431.10088446370594 368.3938817941766 4.800000099305161
    vertex 432.600884391455 368.5438817846368 4.800000086981074
  endloop
endfacet
facet normal 0.09950371902102115 -0.995037190209987 -1.387778780781446e-17
  outer loop
    vertex 425.4758843885987 368.593881787458 2.000000080025445
    vertex 423.47588438859776 368.39388178731963 4.000000079916433
    vertex 423.47588438859856 368.3938817874579 2.000000079916431
  endloop
endfacet
facet normal 0.09950371902102115 -0.995037190209987 -1.387778780781446e-17
  outer loop
    vertex 423.47588438859776 368.39388178731963 4.000000079916433
    vertex 425.4758843885987 368.593881787458 2.000000080025445
    vertex 425.47588438859776 368.5938817873197 4.000000079916433
  endloop
endfacet
facet normal 4.2230689951960887e-10 -1.0 -1.883611294717369e-09
  outer loop
    vertex 431.10088437574774 368.39388180312756 1.246354065731481e-07
    vertex 430.7258843885987 368.39388178745793 2.000000079916431
    vertex 423.1008843757476 368.3938818031276 2.676519807121025e-07
  endloop
endfacet
facet normal 4.2230689951960887e-10 -1.0 -1.883611294717369e-09
  outer loop
    vertex 430.7258843885987 368.39388178745793 2.000000079916431
    vertex 431.10088437574774 368.39388180312756 1.246354065731481e-07
    vertex 431.10088446370594 368.3938817941766 4.800000099305161
  endloop
endfacet
facet normal 4.2230689951960887e-10 -1.0 -1.883611294717369e-09
  outer loop
    vertex 430.7258843885987 368.39388178745793 2.000000079916431
    vertex 431.10088446370594 368.3938817941766 4.800000099305161
    vertex 430.72588438859765 368.3938817873196 4.000000079916433
  endloop
endfacet
facet normal 4.2230689951960887e-10 -1.0 -1.883611294717369e-09
  outer loop
    vertex 430.72588438859765 368.3938817873196 4.000000079916433
    vertex 431.10088446370594 368.3938817941766 4.800000099305161
    vertex 423.47588438859776 368.39388178731963 4.000000079916433
  endloop
endfacet
facet normal 4.2230689951960887e-10 -1.0 -1.883611294717369e-09
  outer loop
    vertex 423.1008843757476 368.3938818031276 2.676519807121025e-07
    vertex 423.47588438859856 368.3938817874579 2.000000079916431
    vertex 423.1008843743205 368.3938817874197 4.800000156035228
  endloop
endfacet
facet normal 4.2230689951960887e-10 -1.0 -1.883611294717369e-09
  outer loop
    vertex 423.47588438859856 368.3938817874579 2.000000079916431
    vertex 423.1008843757476 368.3938818031276 2.676519807121025e-07
    vertex 430.7258843885987 368.39388178745793 2.000000079916431
  endloop
endfacet
facet normal 4.2230689951960887e-10 -1.0 -1.883611294717369e-09
  outer loop
    vertex 423.1008843743205 368.3938817874197 4.800000156035228
    vertex 423.47588438859856 368.3938817874579 2.000000079916431
    vertex 423.47588438859776 368.39388178731963 4.000000079916433
  endloop
endfacet
facet normal 4.2230689951960887e-10 -1.0 -1.883611294717369e-09
  outer loop
    vertex 423.1008843743205 368.3938817874197 4.800000156035228
    vertex 423.47588438859776 368.39388178731963 4.000000079916433
    vertex 431.10088446370594 368.3938817941766 4.800000099305161
  endloop
endfacet
facet normal 3.6713132534060825e-12 5.531284943960378e-10 -1.0
  outer loop
    vertex 428.72588438859776 370.3938817907261 4.0000000810065135
    vertex 425.47588438859776 368.5938817873197 4.000000079916433
    vertex 425.47588438859776 370.3938817907261 4.000000081006519
  endloop
endfacet
facet normal 3.6713132534060825e-12 5.531284943960378e-10 -1.0
  outer loop
    vertex 425.47588438859776 368.5938817873197 4.000000079916433
    vertex 428.72588438859776 370.3938817907261 4.0000000810065135
    vertex 428.72588438859765 368.59388178731973 4.000000080025436
  endloop
endfacet
facet normal 3.6713132534060825e-12 5.531284943960378e-10 -1.0
  outer loop
    vertex 425.47588438859776 368.5938817873197 4.000000079916433
    vertex 430.72588438859765 368.3938817873196 4.000000079916433
    vertex 423.47588438859776 368.39388178731963 4.000000079916433
  endloop
endfacet
facet normal 3.6713132534060825e-12 5.531284943960378e-10 -1.0
  outer loop
    vertex 430.72588438859765 368.3938817873196 4.000000079916433
    vertex 425.47588438859776 368.5938817873197 4.000000079916433
    vertex 428.72588438859765 368.59388178731973 4.000000080025436
  endloop
endfacet
facet normal -1.0 -3.4694469519536134e-18 5.5511151231257815e-17
  outer loop
    vertex 428.72588438859776 370.3938817907261 4.0000000810065135
    vertex 428.7258843885987 368.593881787458 2.0000000800254396
    vertex 428.72588438859765 368.59388178731973 4.000000080025436
  endloop
endfacet
facet normal -1.0 -3.4694469519536134e-18 5.5511151231257815e-17
  outer loop
    vertex 428.7258843885987 368.593881787458 2.0000000800254396
    vertex 428.72588438859776 370.3938817907261 4.0000000810065135
    vertex 428.7258843885987 370.3938817908643 2.000000081006517
  endloop
endfacet
facet normal -0.09950371902102112 -0.995037190209987 -2.0816681711721685e-17
  outer loop
    vertex 430.72588438859765 368.3938817873196 4.000000079916433
    vertex 428.7258843885987 368.593881787458 2.0000000800254396
    vertex 430.7258843885987 368.39388178745793 2.000000079916431
  endloop
endfacet
facet normal -0.09950371902102112 -0.995037190209987 -2.0816681711721685e-17
  outer loop
    vertex 428.7258843885987 368.593881787458 2.0000000800254396
    vertex 430.72588438859765 368.3938817873196 4.000000079916433
    vertex 428.72588438859765 368.59388178731973 4.000000080025436
  endloop
endfacet
facet normal -2.7620779448345173e-10 1.0 2.1201511449242534e-09
  outer loop
    vertex 434.1008843757478 370.3938818032017 8.768259962543823e-08
    vertex 428.7258843885987 370.3938817908643 2.000000081006517
    vertex 434.10088439923715 370.39388179079947 5.400000197458019
  endloop
endfacet
facet normal -2.7620779448345173e-10 1.0 2.1201511449242534e-09
  outer loop
    vertex 428.7258843885987 370.3938817908643 2.000000081006517
    vertex 434.1008843757478 370.3938818032017 8.768259962543823e-08
    vertex 419.6008841238881 370.39388178677655 8.888125457851004e-08
  endloop
endfacet
facet normal -2.7620779448345173e-10 1.0 2.1201511449242534e-09
  outer loop
    vertex 428.7258843885987 370.3938817908643 2.000000081006517
    vertex 419.6008841238881 370.39388178677655 8.888125457851004e-08
    vertex 425.4758843885987 370.39388179086427 2.000000081006517
  endloop
endfacet
facet normal -2.7620779448345173e-10 1.0 2.1201511449242534e-09
  outer loop
    vertex 434.10088439923715 370.39388179079947 5.400000197458019
    vertex 428.7258843885987 370.3938817908643 2.000000081006517
    vertex 432.600884391455 370.3938817838652 4.800000084837391
  endloop
endfacet
facet normal -2.7620779448345173e-10 1.0 2.1201511449242534e-09
  outer loop
    vertex 432.600884391455 370.3938817838652 4.800000084837391
    vertex 428.7258843885987 370.3938817908643 2.000000081006517
    vertex 428.72588438859776 370.3938817907261 4.0000000810065135
  endloop
endfacet
facet normal -2.7620779448345173e-10 1.0 2.1201511449242534e-09
  outer loop
    vertex 432.600884391455 370.3938817838652 4.800000084837391
    vertex 428.72588438859776 370.3938817907261 4.0000000810065135
    vertex 425.47588438859776 370.3938817907261 4.000000081006519
  endloop
endfacet
facet normal -2.7620779448345173e-10 1.0 2.1201511449242534e-09
  outer loop
    vertex 434.10088439923715 370.39388179079947 5.400000197458019
    vertex 432.600884391455 370.3938817838652 4.800000084837391
    vertex 432.60088439425135 370.39388178713654 5.400000198656675
  endloop
endfacet
facet normal -2.7620779448345173e-10 1.0 2.1201511449242534e-09
  outer loop
    vertex 419.6008841238881 370.3938817867766 5.400000198656675
    vertex 425.4758843885987 370.39388179086427 2.000000081006517
    vertex 419.6008841238881 370.39388178677655 8.888125457851004e-08
  endloop
endfacet
facet normal -2.7620779448345173e-10 1.0 2.1201511449242534e-09
  outer loop
    vertex 425.4758843885987 370.39388179086427 2.000000081006517
    vertex 419.6008841238881 370.3938817867766 5.400000198656675
    vertex 421.60088439145505 370.3938817838652 4.800000123998937
  endloop
endfacet
facet normal -2.7620779448345173e-10 1.0 2.1201511449242534e-09
  outer loop
    vertex 425.4758843885987 370.39388179086427 2.000000081006517
    vertex 421.60088439145505 370.3938817838652 4.800000123998937
    vertex 425.47588438859776 370.3938817907261 4.000000081006519
  endloop
endfacet
facet normal -2.7620779448345173e-10 1.0 2.1201511449242534e-09
  outer loop
    vertex 425.47588438859776 370.3938817907261 4.000000081006519
    vertex 421.60088439145505 370.3938817838652 4.800000123998937
    vertex 432.600884391455 370.3938817838652 4.800000084837391
  endloop
endfacet
facet normal -2.7620779448345173e-10 1.0 2.1201511449242534e-09
  outer loop
    vertex 421.60088439145505 370.3938817838652 4.800000123998937
    vertex 419.6008841238881 370.3938817867766 5.400000198656675
    vertex 421.6008844105175 370.3938817867766 5.40000019865668
  endloop
endfacet
facet normal 1.0 -9.664204677836687e-09 -3.051229574557724e-09
  outer loop
    vertex 421.1008841238881 342.5753117192977 2.9795258260634175e-09
    vertex 421.1008843757477 366.59388180312766 5.400000257472101
    vertex 421.1008841586579 342.57531169936806 5.399999995104788
  endloop
endfacet
facet normal 1.0 -9.664204677836687e-09 -3.051229574557724e-09
  outer loop
    vertex 421.1008843757477 366.59388180312766 5.400000257472101
    vertex 421.1008841238881 342.5753117192977 2.9795258260634175e-09
    vertex 421.1008843757477 366.59388180312766 2.676519807121025e-07
  endloop
endfacet
facet normal -2.7755575615628907e-17 -5.450432952192051e-10 1.0
  outer loop
    vertex 430.7258843885987 368.39388178745793 2.000000079916431
    vertex 425.4758843885987 368.593881787458 2.000000080025445
    vertex 423.47588438859856 368.3938817874579 2.000000079916431
  endloop
endfacet
facet normal -2.7755575615628907e-17 -5.450432952192051e-10 1.0
  outer loop
    vertex 425.4758843885987 368.593881787458 2.000000080025445
    vertex 430.7258843885987 368.39388178745793 2.000000079916431
    vertex 428.7258843885987 368.593881787458 2.0000000800254396
  endloop
endfacet
facet normal -2.7755575615628907e-17 -5.450432952192051e-10 1.0
  outer loop
    vertex 425.4758843885987 368.593881787458 2.000000080025445
    vertex 428.7258843885987 368.593881787458 2.0000000800254396
    vertex 425.4758843885987 370.39388179086427 2.000000081006517
  endloop
endfacet
facet normal -2.7755575615628907e-17 -5.450432952192051e-10 1.0
  outer loop
    vertex 428.7258843885987 370.3938817908643 2.000000081006517
    vertex 425.4758843885987 370.39388179086427 2.000000081006517
    vertex 428.7258843885987 368.593881787458 2.0000000800254396
  endloop
endfacet
facet normal -3.367962742029106e-09 4.1294778915790245e-09 -1.0
  outer loop
    vertex 419.6008841238881 370.39388178677655 8.888125457851004e-08
    vertex 420.9008843757477 368.3938818031276 2.676519807121025e-07
    vertex 419.6008841238881 342.5753117192977 2.979514546197487e-09
  endloop
endfacet
facet normal -3.367962742029106e-09 4.1294778915790245e-09 -1.0
  outer loop
    vertex 420.9008843757477 368.3938818031276 2.676519807121025e-07
    vertex 419.6008841238881 370.39388178677655 8.888125457851004e-08
    vertex 421.10088437574774 368.5938818031276 2.676519807121025e-07
  endloop
endfacet
facet normal -3.367962742029106e-09 4.1294778915790245e-09 -1.0
  outer loop
    vertex 421.10088437574774 368.5938818031276 2.676519807121025e-07
    vertex 419.6008841238881 370.39388178677655 8.888125457851004e-08
    vertex 434.1008843757478 370.3938818032017 8.768259962543823e-08
  endloop
endfacet
facet normal -3.367962742029106e-09 4.1294778915790245e-09 -1.0
  outer loop
    vertex 421.10088437574774 368.5938818031276 2.676519807121025e-07
    vertex 434.1008843757478 370.3938818032017 8.768259962543823e-08
    vertex 423.1008843757476 368.3938818031276 2.676519807121025e-07
  endloop
endfacet
facet normal -3.367962742029106e-09 4.1294778915790245e-09 -1.0
  outer loop
    vertex 423.1008843757476 368.3938818031276 2.676519807121025e-07
    vertex 434.1008843757478 370.3938818032017 8.768259962543823e-08
    vertex 431.10088437574774 368.39388180312756 1.246354065731481e-07
  endloop
endfacet
facet normal -3.367962742029106e-09 4.1294778915790245e-09 -1.0
  outer loop
    vertex 431.10088437574774 368.39388180312756 1.246354065731481e-07
    vertex 434.1008843757478 370.3938818032017 8.768259962543823e-08
    vertex 433.1008843928824 368.59388178677665 1.1624303968282845e-07
  endloop
endfacet
facet normal -3.367962742029106e-09 4.1294778915790245e-09 -1.0
  outer loop
    vertex 433.1008843928824 368.59388178677665 1.1624303968282845e-07
    vertex 434.1008843757478 370.3938818032017 8.768259962543823e-08
    vertex 433.3008843928823 368.39388178677655 1.1624303968282845e-07
  endloop
endfacet
facet normal -3.367962742029106e-09 4.1294778915790245e-09 -1.0
  outer loop
    vertex 433.3008843928823 368.39388178677655 1.1624303968282845e-07
    vertex 433.1008843952702 342.57531159288783 1.1623345179678779e-07
    vertex 433.10088439308413 366.3938817867766 1.1624226137207927e-07
  endloop
endfacet
facet normal -3.367962742029106e-09 4.1294778915790245e-09 -1.0
  outer loop
    vertex 433.1008843952702 342.57531159288783 1.1623345179678779e-07
    vertex 433.3008843928823 368.39388178677655 1.1624303968282845e-07
    vertex 434.10088438933303 342.5753115929619 1.1503479684371598e-07
  endloop
endfacet
facet normal -3.367962742029106e-09 4.1294778915790245e-09 -1.0
  outer loop
    vertex 434.10088438933303 342.5753115929619 1.1503479684371598e-07
    vertex 433.3008843928823 368.39388178677655 1.1624303968282845e-07
    vertex 434.1008843757478 370.3938818032017 8.768259962543823e-08
  endloop
endfacet
facet normal -3.367962742029106e-09 4.1294778915790245e-09 -1.0
  outer loop
    vertex 420.9008843757477 368.3938818031276 2.676519807121025e-07
    vertex 421.1008841238881 342.5753117192977 2.9795258260634175e-09
    vertex 419.6008841238881 342.5753117192977 2.979514546197487e-09
  endloop
endfacet
facet normal -3.367962742029106e-09 4.1294778915790245e-09 -1.0
  outer loop
    vertex 421.1008841238881 342.5753117192977 2.9795258260634175e-09
    vertex 420.9008843757477 368.3938818031276 2.676519807121025e-07
    vertex 421.1008843757477 366.59388180312766 2.676519807121025e-07
  endloop
endfacet
facet normal 0.09950371441748034 -0.9950371906703411 -1.7281786002243393e-09
  outer loop
    vertex 433.10088440219334 368.5938817860557 5.400000022935775
    vertex 431.10088437574774 368.39388180312756 1.246354065731481e-07
    vertex 433.1008843928824 368.59388178677665 1.1624303968282845e-07
  endloop
endfacet
facet normal 0.09950371441748034 -0.9950371906703411 -1.7281786002243393e-09
  outer loop
    vertex 431.10088437574774 368.39388180312756 1.246354065731481e-07
    vertex 433.10088440219334 368.5938817860557 5.400000022935775
    vertex 432.600884391455 368.5438817846368 4.800000086981074
  endloop
endfacet
facet normal 0.09950371441748034 -0.9950371906703411 -1.7281786002243393e-09
  outer loop
    vertex 432.600884391455 368.5438817846368 4.800000086981074
    vertex 433.10088440219334 368.5938817860557 5.400000022935775
    vertex 432.60088439425124 368.5438817846483 5.400000022935775
  endloop
endfacet
facet normal 0.09950371441748034 -0.9950371906703411 -1.7281786002243393e-09
  outer loop
    vertex 431.10088446370594 368.3938817941766 4.800000099305161
    vertex 431.10088437574774 368.39388180312756 1.246354065731481e-07
    vertex 432.600884391455 368.5438817846368 4.800000086981074
  endloop
endfacet
facet normal -1.0 -3.6134246289565297e-10 1.1887328899007343e-09
  outer loop
    vertex 433.10088440811 342.5753115962615 5.4000000229261875
    vertex 433.10088439308413 366.3938817867766 1.1624226137207927e-07
    vertex 433.1008843952702 342.57531159288783 1.1623345179678779e-07
  endloop
endfacet
facet normal -1.0 -3.6134246289565297e-10 1.1887328899007343e-09
  outer loop
    vertex 433.10088439308413 366.3938817867766 1.1624226137207927e-07
    vertex 433.10088440811 342.5753115962615 5.4000000229261875
    vertex 433.1008843930827 366.3938817867746 5.400000050048456
  endloop
endfacet
facet normal 2.4836764561664275e-08 3.303147130817585e-10 -0.9999999999999998
  outer loop
    vertex 433.10088440219334 368.5938817860557 5.400000022935775
    vertex 432.6008844137978 342.5753115929841 5.4000000229261875
    vertex 432.60088439425124 368.5438817846483 5.400000022935775
  endloop
endfacet
facet normal 2.4836764561664275e-08 3.303147130817585e-10 -0.9999999999999998
  outer loop
    vertex 432.6008844137978 342.5753115929841 5.4000000229261875
    vertex 433.10088440219334 368.5938817860557 5.400000022935775
    vertex 433.1008843930827 366.3938817867746 5.400000050048456
  endloop
endfacet
facet normal 2.4836764561664275e-08 3.303147130817585e-10 -0.9999999999999998
  outer loop
    vertex 433.1008843930827 366.3938817867746 5.400000050048456
    vertex 433.10088440219334 368.5938817860557 5.400000022935775
    vertex 433.3008843928808 368.39388178677456 5.4000000500492344
  endloop
endfacet
facet normal 2.4836764561664275e-08 3.303147130817585e-10 -0.9999999999999998
  outer loop
    vertex 433.10088440811 342.5753115962615 5.4000000229261875
    vertex 432.6008844137978 342.5753115929841 5.4000000229261875
    vertex 433.1008843930827 366.3938817867746 5.400000050048456
  endloop
endfacet
facet normal -7.216449660063515e-16 1.0047684212421966e-10 1.0
  outer loop
    vertex 434.10088440746665 349.58475714584546 7.800089316785207
    vertex 432.6008844131584 357.2218980194764 7.800089317216504
    vertex 432.60088441301536 349.58475714577133 7.800089317983862
  endloop
endfacet
facet normal -7.216449660063515e-16 1.0047684212421966e-10 1.0
  outer loop
    vertex 432.6008844131584 357.2218980194764 7.800089317216504
    vertex 434.10088440746665 349.58475714584546 7.800089316785207
    vertex 434.100884406093 357.2218980195505 7.800089316017854
  endloop
endfacet
facet normal 2.1792595505942813e-11 -0.6087614290087181 0.7933533402912373
  outer loop
    vertex 424.1008842904239 355.2688817664526 13.461599259677513
    vertex 426.60088429037614 356.0455321959406 14.057544094380432
    vertex 424.1008842904196 356.0455321959022 14.057544094419658
  endloop
endfacet
facet normal 2.1792595505942813e-11 -0.6087614290087181 0.7933533402912373
  outer loop
    vertex 426.60088429037614 356.0455321959406 14.057544094380432
    vertex 424.1008842904239 355.2688817664526 13.461599259677513
    vertex 426.60088429038 355.26888176649106 13.461599259638389
  endloop
endfacet
facet normal -2.1747353917689335e-11 0.7933533402912726 -0.608761429008672
  outer loop
    vertex 424.1008842903876 350.146286502261 18.58419452386905
    vertex 426.60088429033897 350.7422313370414 19.36084495327943
    vertex 426.6008842903445 350.14628650229935 18.584194523829847
  endloop
endfacet
facet normal -2.1747353917689335e-11 0.7933533402912726 -0.608761429008672
  outer loop
    vertex 426.60088429033897 350.7422313370414 19.36084495327943
    vertex 424.1008842903876 350.146286502261 18.58419452386905
    vertex 424.1008842903825 350.742231337003 19.36084495331864
  endloop
endfacet
facet normal 2.0205004336304458e-11 -0.9238795325112695 0.3826834323651318
  outer loop
    vertex 426.6008842903645 357.0161036150751 15.73862310469555
    vertex 424.1008842904142 356.64147703064424 14.834194523869186
    vertex 426.6008842903709 356.64147703068267 14.834194523830034
  endloop
endfacet
facet normal 2.0205004336304458e-11 -0.9238795325112695 0.3826834323651318
  outer loop
    vertex 424.1008842904142 356.64147703064424 14.834194523869186
    vertex 426.6008842903645 357.0161036150751 15.73862310469555
    vertex 424.10088429040775 357.0161036150367 15.738623104734776
  endloop
endfacet
facet normal 8.627126790727855e-12 0.38268343236506724 0.9238795325112962
  outer loop
    vertex 426.6008842903801 351.5188817664911 13.46159925963827
    vertex 424.1008842904262 352.4233103473182 13.086972675285205
    vertex 424.1008842904239 351.51888176645264 13.461599259677456
  endloop
endfacet
facet normal 8.627126790727855e-12 0.38268343236506724 0.9238795325112962
  outer loop
    vertex 424.1008842904262 352.4233103473182 13.086972675285205
    vertex 426.6008842903801 351.5188817664911 13.46159925963827
    vertex 426.600884290383 352.4233103473566 13.086972675245834
  endloop
endfacet
facet normal -2.6661034491226587e-12 0.7933533402912489 0.6087614290087028
  outer loop
    vertex 424.1008842904196 350.7422313370031 14.057544094419557
    vertex 426.6008842903709 350.1462865022995 14.834194523829927
    vertex 426.60088429037603 350.7422313370415 14.057544094380404
  endloop
endfacet
facet normal -2.6661034491226587e-12 0.7933533402912489 0.6087614290087028
  outer loop
    vertex 426.6008842903709 350.1462865022995 14.834194523829927
    vertex 424.1008842904196 350.7422313370031 14.057544094419557
    vertex 424.1008842904142 350.14628650226103 14.83419452386908
  endloop
endfacet
facet normal 1.360489498836159e-11 0.13052619221997608 0.9914448613738204
  outer loop
    vertex 426.600884290383 352.4233103473566 13.086972675245834
    vertex 424.10088429042725 353.39388176645264 12.959194523869298
    vertex 424.1008842904262 352.4233103473182 13.086972675285205
  endloop
endfacet
facet normal 1.360489498836159e-11 0.13052619221997608 0.9914448613738204
  outer loop
    vertex 424.10088429042725 353.39388176645264 12.959194523869298
    vertex 426.600884290383 352.4233103473566 13.086972675245834
    vertex 426.6008842903839 353.3938817664911 12.95919452382992
  endloop
endfacet
facet normal 2.1741830558141828e-11 -0.7933533402912596 0.608761429008689
  outer loop
    vertex 426.6008842903709 356.64147703068267 14.834194523830034
    vertex 424.1008842904196 356.0455321959022 14.057544094419658
    vertex 426.60088429037614 356.0455321959406 14.057544094380432
  endloop
endfacet
facet normal 2.1741830558141828e-11 -0.7933533402912596 0.608761429008689
  outer loop
    vertex 424.1008842904196 356.0455321959022 14.057544094419658
    vertex 426.6008842903709 356.64147703068267 14.834194523830034
    vertex 424.1008842904142 356.64147703064424 14.834194523869186
  endloop
endfacet
facet normal 1.7288205589327535e-11 -0.9914448613738229 0.13052619221995762
  outer loop
    vertex 426.60088429035756 357.14388176649095 16.709194523830092
    vertex 424.10088429040775 357.0161036150367 15.738623104734776
    vertex 426.6008842903645 357.0161036150751 15.73862310469555
  endloop
endfacet
facet normal 1.7288205589327535e-11 -0.9914448613738229 0.13052619221995762
  outer loop
    vertex 424.10088429040775 357.0161036150367 15.738623104734776
    vertex 426.60088429035756 357.14388176649095 16.709194523830092
    vertex 424.1008842903896 357.0912207887688 16.30919468604795
  endloop
endfacet
facet normal 1.7288205589327535e-11 -0.9914448613738229 0.13052619221995762
  outer loop
    vertex 424.1008842903896 357.0912207887688 16.30919468604795
    vertex 426.60088429035756 357.14388176649095 16.709194523830092
    vertex 424.100884290401 357.1438817664526 16.709194523869275
  endloop
endfacet
facet normal -1.7287060671833387e-11 0.9914448613738206 -0.1305261922199748
  outer loop
    vertex 424.1008842904011 349.64388176645264 16.70919452386907
    vertex 426.6008842903508 349.771659917907 17.67976594296435
    vertex 426.6008842903577 349.64388176649106 16.709194523829918
  endloop
endfacet
facet normal -1.7287060671833387e-11 0.9914448613738206 -0.1305261922199748
  outer loop
    vertex 426.6008842903508 349.771659917907 17.67976594296435
    vertex 424.1008842904011 349.64388176645264 16.70919452386907
    vertex 424.10088429039394 349.7716599178686 17.67976594300341
  endloop
endfacet
facet normal -8.204839585523871e-12 0.9238795325112533 0.3826834323651708
  outer loop
    vertex 424.1008842904142 350.14628650226103 14.83419452386908
    vertex 426.6008842903645 349.7716599179071 15.738623104695325
    vertex 426.6008842903709 350.1462865022995 14.834194523829927
  endloop
endfacet
facet normal -8.204839585523871e-12 0.9238795325112533 0.3826834323651708
  outer loop
    vertex 426.6008842903645 349.7716599179071 15.738623104695325
    vertex 424.1008842904142 350.14628650226103 14.83419452386908
    vertex 424.10088429040786 349.7716599178686 15.738623104734597
  endloop
endfacet
facet normal -1.320333772869553e-11 0.9914448613738112 0.13052619222004674
  outer loop
    vertex 424.10088429040786 349.7716599178686 15.738623104734597
    vertex 426.6008842903577 349.64388176649106 16.709194523829918
    vertex 426.6008842903645 349.7716599179071 15.738623104695325
  endloop
endfacet
facet normal -1.320333772869553e-11 0.9914448613738112 0.13052619222004674
  outer loop
    vertex 426.6008842903577 349.64388176649106 16.709194523829918
    vertex 424.10088429040786 349.7716599178686 15.738623104734597
    vertex 424.1008842903896 349.6965427441363 16.309194686047938
  endloop
endfacet
facet normal -1.320333772869553e-11 0.9914448613738112 0.13052619222004674
  outer loop
    vertex 426.6008842903577 349.64388176649106 16.709194523829918
    vertex 424.1008842903896 349.6965427441363 16.309194686047938
    vertex 424.1008842904011 349.64388176645264 16.70919452386907
  endloop
endfacet
facet normal 1.7601115009924225e-11 -0.13052619222003833 0.9914448613738123
  outer loop
    vertex 424.10088429042725 353.39388176645264 12.959194523869298
    vertex 426.6008842903828 354.36445318562556 13.086972675245946
    vertex 424.1008842904262 354.36445318558714 13.086972675285217
  endloop
endfacet
facet normal 1.7601115009924225e-11 -0.13052619222003833 0.9914448613738123
  outer loop
    vertex 426.6008842903828 354.36445318562556 13.086972675245946
    vertex 424.10088429042725 353.39388176645264 12.959194523869298
    vertex 426.6008842903839 353.3938817664911 12.95919452382992
  endloop
endfacet
facet normal -2.01963862300758e-11 0.9238795325112702 -0.38268343236512975
  outer loop
    vertex 424.10088429039394 349.7716599178686 17.67976594300341
    vertex 426.6008842903445 350.14628650229935 18.584194523829847
    vertex 426.6008842903508 349.771659917907 17.67976594296435
  endloop
endfacet
facet normal -2.01963862300758e-11 0.9238795325112702 -0.38268343236512975
  outer loop
    vertex 426.6008842903445 350.14628650229935 18.584194523829847
    vertex 424.10088429039394 349.7716599178686 17.67976594300341
    vertex 424.1008842903876 350.146286502261 18.58419452386905
  endloop
endfacet
facet normal 3.067435194736845e-12 0.6087614290087254 0.7933533402912316
  outer loop
    vertex 426.60088429037603 350.7422313370415 14.057544094380404
    vertex 424.1008842904239 351.51888176645264 13.461599259677456
    vertex 424.1008842904196 350.7422313370031 14.057544094419557
  endloop
endfacet
facet normal 3.067435194736845e-12 0.6087614290087254 0.7933533402912316
  outer loop
    vertex 424.1008842904239 351.51888176645264 13.461599259677456
    vertex 426.60088429037603 350.7422313370415 14.057544094380404
    vertex 426.6008842903801 351.5188817664911 13.46159925963827
  endloop
endfacet
facet normal 2.036884549916351e-11 -0.38268343236511954 0.9238795325112744
  outer loop
    vertex 424.1008842904262 354.36445318558714 13.086972675285217
    vertex 426.60088429038 355.26888176649106 13.461599259638389
    vertex 424.1008842904239 355.2688817664526 13.461599259677513
  endloop
endfacet
facet normal 2.036884549916351e-11 -0.38268343236511954 0.9238795325112744
  outer loop
    vertex 426.60088429038 355.26888176649106 13.461599259638389
    vertex 424.1008842904262 354.36445318558714 13.086972675285217
    vertex 426.6008842903828 354.36445318562556 13.086972675245946
  endloop
endfacet
facet normal 8.213887903174566e-12 -0.9238795325112648 -0.382683432365143
  outer loop
    vertex 426.6008842903445 356.64147703068255 18.58419452383
    vertex 424.1008842903939 357.01610361503657 17.67976594300362
    vertex 426.6008842903508 357.016103615075 17.679765942964504
  endloop
endfacet
facet normal 8.213887903174566e-12 -0.9238795325112648 -0.382683432365143
  outer loop
    vertex 424.1008842903939 357.01610361503657 17.67976594300362
    vertex 426.6008842903445 356.64147703068255 18.58419452383
    vertex 424.1008842903875 356.6414770306441 18.58419452386918
  endloop
endfacet
facet normal 2.6495611260557435e-12 -0.7933533402912532 -0.6087614290086971
  outer loop
    vertex 426.60088429033897 356.04553219594055 19.3608449532795
    vertex 424.1008842903875 356.6414770306441 18.58419452386918
    vertex 426.6008842903445 356.64147703068255 18.58419452383
  endloop
endfacet
facet normal 2.6495611260557435e-12 -0.7933533402912532 -0.6087614290086971
  outer loop
    vertex 424.1008842903875 356.6414770306441 18.58419452386918
    vertex 426.60088429033897 356.04553219594055 19.3608449532795
    vertex 424.10088429038257 356.045532195902 19.36084495331876
  endloop
endfacet
facet normal 1.3201283816099973e-11 -0.9914448613738085 -0.13052619222006653
  outer loop
    vertex 426.6008842903508 357.016103615075 17.679765942964504
    vertex 424.100884290401 357.1438817664526 16.709194523869275
    vertex 426.60088429035756 357.14388176649095 16.709194523830092
  endloop
endfacet
facet normal 1.3201283816099973e-11 -0.9914448613738085 -0.13052619222006653
  outer loop
    vertex 424.100884290401 357.1438817664526 16.709194523869275
    vertex 426.6008842903508 357.016103615075 17.679765942964504
    vertex 424.1008842903939 357.01610361503657 17.67976594300362
  endloop
endfacet
facet normal 0.9999999999999998 -6.0814748792381595e-09 2.30164887426998e-08
  outer loop
    vertex 421.6008841741463 342.57531169936806 5.40000001095116
    vertex 421.60088430211454 358.8938817664862 6.299999983805835
    vertex 421.60088423813045 342.575311689654 6.29999998380584
  endloop
endfacet
facet normal 0.9999999999999998 -6.0814748792381595e-09 2.30164887426998e-08
  outer loop
    vertex 421.60088430211454 358.8938817664862 6.299999983805835
    vertex 421.6008841741463 342.57531169936806 5.40000001095116
    vertex 421.60088441051744 368.54388179463643 5.40000019865668
  endloop
endfacet
facet normal 0.9999999999999998 -6.0814748792381595e-09 2.30164887426998e-08
  outer loop
    vertex 421.60088430211454 358.8938817664862 6.299999983805835
    vertex 421.60088441051744 368.54388179463643 5.40000019865668
    vertex 421.6008843108495 369.695570161542 6.29999998380584
  endloop
endfacet
facet normal 0.9999999999999998 -6.0814748792381595e-09 2.30164887426998e-08
  outer loop
    vertex 421.6008843108495 369.695570161542 6.29999998380584
    vertex 421.60088441051744 368.54388179463643 5.40000019865668
    vertex 421.60088439145505 368.5438817953037 4.800000198656676
  endloop
endfacet
facet normal 0.9999999999999998 -6.0814748792381595e-09 2.30164887426998e-08
  outer loop
    vertex 421.6008843108495 369.695570161542 6.29999998380584
    vertex 421.60088439145505 368.5438817953037 4.800000198656676
    vertex 421.60088439145505 370.3938817838652 4.800000123998937
  endloop
endfacet
facet normal 0.9999999999999998 -6.0814748792381595e-09 2.30164887426998e-08
  outer loop
    vertex 421.6008843108495 369.695570161542 6.29999998380584
    vertex 421.60088439145505 370.3938817838652 4.800000123998937
    vertex 421.6008844105175 370.3938817867766 5.40000019865668
  endloop
endfacet
facet normal -5.5511151231257815e-17 6.938893903907227e-18 1.0
  outer loop
    vertex 424.10088429037535 346.84388180311515 11.809194512210098
    vertex 419.60088412486107 358.3938817945899 11.809194512210098
    vertex 419.60088412486107 346.84388180311515 11.809194512210098
  endloop
endfacet
facet normal -5.5511151231257815e-17 6.938893903907227e-18 1.0
  outer loop
    vertex 419.60088412486107 358.3938817945899 11.809194512210098
    vertex 424.10088429037535 346.84388180311515 11.809194512210098
    vertex 424.10088429037535 358.3938817945899 11.809194512210086
  endloop
endfacet
facet normal -6.938893903907228e-18 -1.0 0.0
  outer loop
    vertex 424.1008842887037 358.3938817945899 20.865871115842133
    vertex 419.60088412486107 358.3938817945899 11.809194512210098
    vertex 424.10088429037535 358.3938817945899 11.809194512210086
  endloop
endfacet
facet normal -6.938893903907228e-18 -1.0 0.0
  outer loop
    vertex 419.60088412486107 358.3938817945899 11.809194512210098
    vertex 424.1008842887037 358.3938817945899 20.865871115842133
    vertex 419.6008841238881 358.39388179458984 16.365870862690844
  endloop
endfacet
facet normal -8.067575042042252e-09 -1.0 -3.888240035498924e-09
  outer loop
    vertex 434.10088440675213 342.5753115928605 10.07444523242354
    vertex 433.1008843952702 342.57531159288783 1.1623345179678779e-07
    vertex 434.10088438933303 342.5753115929619 1.1503479684371598e-07
  endloop
endfacet
facet normal -8.067575042042252e-09 -1.0 -3.888240035498924e-09
  outer loop
    vertex 433.1008843952702 342.57531159288783 1.1623345179678779e-07
    vertex 434.10088440675213 342.5753115928605 10.07444523242354
    vertex 433.10088440811 342.5753115962615 5.4000000229261875
  endloop
endfacet
facet normal -8.067575042042252e-09 -1.0 -3.888240035498924e-09
  outer loop
    vertex 433.10088440811 342.5753115962615 5.4000000229261875
    vertex 434.10088440675213 342.5753115928605 10.07444523242354
    vertex 432.6008844137978 342.5753115929841 5.4000000229261875
  endloop
endfacet
facet normal -8.067575042042252e-09 -1.0 -3.888240035498924e-09
  outer loop
    vertex 432.6008844137978 342.5753115929841 5.4000000229261875
    vertex 434.10088440675213 342.5753115928605 10.07444523242354
    vertex 432.6008844137978 342.5753115929841 9.300000086971473
  endloop
endfacet
facet normal -8.067575042042252e-09 -1.0 -3.888240035498924e-09
  outer loop
    vertex 432.6008844137978 342.5753115929841 9.300000086971473
    vertex 434.10088440675213 342.5753115928605 10.07444523242354
    vertex 430.6008845466492 342.57531161680174 11.29999997771551
  endloop
endfacet
facet normal -8.067575042042252e-09 -1.0 -3.888240035498924e-09
  outer loop
    vertex 430.6008845466492 342.57531161680174 11.29999997771551
    vertex 434.10088440675213 342.5753115928605 10.07444523242354
    vertex 427.43470531816484 342.57531159689165 16.740624300202285
  endloop
endfacet
facet normal -8.067575042042252e-09 -1.0 -3.888240035498924e-09
  outer loop
    vertex 430.6008845466492 342.57531161680174 11.29999997771551
    vertex 427.43470531816484 342.57531159689165 16.740624300202285
    vertex 419.60088412486107 342.57531167724267 11.809194512210098
  endloop
endfacet
facet normal -8.067575042042252e-09 -1.0 -3.888240035498924e-09
  outer loop
    vertex 419.60088412486107 342.57531167724267 11.809194512210098
    vertex 427.43470531816484 342.57531159689165 16.740624300202285
    vertex 424.10088429037535 342.5753116027273 16.309194686047938
  endloop
endfacet
facet normal -8.067575042042252e-09 -1.0 -3.888240035498924e-09
  outer loop
    vertex 424.10088429037535 342.5753116027273 16.309194686047938
    vertex 427.43470531816484 342.57531159689165 16.740624300202285
    vertex 424.1008842894024 342.5753116027273 16.740624300202278
  endloop
endfacet
facet normal -8.067575042042252e-09 -1.0 -3.888240035498924e-09
  outer loop
    vertex 421.1008841238881 342.5753117192977 2.9795258260634175e-09
    vertex 419.60088412486107 342.57531167724267 11.809194512210098
    vertex 419.6008841238881 342.5753117192977 2.979514546197487e-09
  endloop
endfacet
facet normal -8.067575042042252e-09 -1.0 -3.888240035498924e-09
  outer loop
    vertex 419.60088412486107 342.57531167724267 11.809194512210098
    vertex 421.1008841238881 342.5753117192977 2.9795258260634175e-09
    vertex 421.1008841586579 342.57531169936806 5.399999995104788
  endloop
endfacet
facet normal -8.067575042042252e-09 -1.0 -3.888240035498924e-09
  outer loop
    vertex 419.60088412486107 342.57531167724267 11.809194512210098
    vertex 421.1008841586579 342.57531169936806 5.399999995104788
    vertex 421.6008841741463 342.57531169936806 5.40000001095116
  endloop
endfacet
facet normal -8.067575042042252e-09 -1.0 -3.888240035498924e-09
  outer loop
    vertex 419.60088412486107 342.57531167724267 11.809194512210098
    vertex 421.6008841741463 342.57531169936806 5.40000001095116
    vertex 421.60088423813045 342.575311689654 6.29999998380584
  endloop
endfacet
facet normal -8.067575042042252e-09 -1.0 -3.888240035498924e-09
  outer loop
    vertex 419.60088412486107 342.57531167724267 11.809194512210098
    vertex 421.60088423813045 342.575311689654 6.29999998380584
    vertex 426.60088427872296 342.57531160786914 11.299999977715505
  endloop
endfacet
facet normal -8.067575042042252e-09 -1.0 -3.888240035498924e-09
  outer loop
    vertex 419.60088412486107 342.57531167724267 11.809194512210098
    vertex 426.60088427872296 342.57531160786914 11.299999977715505
    vertex 430.6008845466492 342.57531161680174 11.29999997771551
  endloop
endfacet
facet normal -0.7071067840971377 3.719193293616473e-09 -0.7071067782759574
  outer loop
    vertex 432.6008844137978 342.5753115929841 9.300000086971473
    vertex 431.60088447835415 343.5753115533973 10.300000034713683
    vertex 432.6008844105222 345.5753113507642 9.300000115856907
  endloop
endfacet
facet normal -0.7071067840971377 3.719193293616473e-09 -0.7071067782759574
  outer loop
    vertex 431.60088447835415 343.5753115533973 10.300000034713683
    vertex 432.6008844137978 342.5753115929841 9.300000086971473
    vertex 430.6008845466492 342.57531161680174 11.29999997771551
  endloop
endfacet
facet normal -0.7071067840971377 3.719193293616473e-09 -0.7071067782759574
  outer loop
    vertex 432.6008844105222 345.5753113507642 9.300000115856907
    vertex 431.60088447835415 343.5753115533973 10.300000034713683
    vertex 431.6008844746154 345.5753113370364 10.300000047032832
  endloop
endfacet
facet normal -0.7071067812658459 -6.157106074988759e-12 -0.7071067811072491
  outer loop
    vertex 431.60088447198814 364.8160602855483 10.300000027600454
    vertex 432.60088441475693 361.21245220318656 9.300000085406966
    vertex 431.60088447198814 361.2124522031865 10.300000028437047
  endloop
endfacet
facet normal -0.7071067812658459 -6.157106074988759e-12 -0.7071067811072491
  outer loop
    vertex 432.60088441475693 361.21245220318656 9.300000085406966
    vertex 431.60088447198814 364.8160602855483 10.300000027600454
    vertex 432.60088441475693 367.36786412271107 9.300000085406971
  endloop
endfacet
facet normal -0.7071067812658459 -6.157106074988759e-12 -0.7071067811072491
  outer loop
    vertex 432.60088441475693 367.36786412271107 9.300000085406971
    vertex 431.60088447198814 364.8160602855483 10.300000027600454
    vertex 430.60088452921934 365.8160602305882 11.299999971467118
  endloop
endfacet
facet normal 5.1575167747675e-12 -1.0 -3.608224830031758e-16
  outer loop
    vertex 426.9420957114008 361.21245220318656 17.23323392798278
    vertex 432.60088441475693 361.2124522032607 10.074445230651666
    vertex 434.1008844081246 361.2124522032607 10.074445230651655
  endloop
endfacet
facet normal 5.1575167747675e-12 -1.0 -3.608224830031758e-16
  outer loop
    vertex 432.60088441475693 361.2124522032607 10.074445230651666
    vertex 426.9420957114008 361.21245220318656 17.23323392798278
    vertex 431.60088447198814 361.2124522031865 10.300000028437047
  endloop
endfacet
facet normal 5.1575167747675e-12 -1.0 -3.608224830031758e-16
  outer loop
    vertex 431.60088447198814 361.2124522031865 10.300000028437047
    vertex 426.9420957114008 361.21245220318656 17.23323392798278
    vertex 426.9420957114008 361.2124522031866 11.641211393058832
  endloop
endfacet
facet normal 5.1575167747675e-12 -1.0 -3.608224830031758e-16
  outer loop
    vertex 431.60088447198814 361.2124522031865 10.300000028437047
    vertex 426.9420957114008 361.2124522031866 11.641211393058832
    vertex 425.60088434363547 361.2124522031865 10.30000002843706
  endloop
endfacet
facet normal 5.1575167747675e-12 -1.0 -3.608224830031758e-16
  outer loop
    vertex 431.60088447198814 361.2124522031865 10.300000028437047
    vertex 432.60088441475693 361.21245220318656 9.300000085406966
    vertex 432.60088441475693 361.2124522032607 10.074445230651666
  endloop
endfacet
facet normal 0.7071067800844912 6.481905290289802e-12 0.7071067822886038
  outer loop
    vertex 427.43470531816484 342.57531159689165 16.740624300202285
    vertex 426.6008842687835 345.5753113294815 17.574445346980955
    vertex 426.60088426871255 343.40913264572873 17.574445346980955
  endloop
endfacet
facet normal 0.7071067800844912 6.481905290289802e-12 0.7071067822886038
  outer loop
    vertex 426.6008842687835 345.5753113294815 17.574445346980955
    vertex 427.43470531816484 342.57531159689165 16.740624300202285
    vertex 434.10088440716237 345.57531132935793 10.074445231237418
  endloop
endfacet
facet normal 0.7071067800844912 6.481905290289802e-12 0.7071067822886038
  outer loop
    vertex 434.10088440716237 345.57531132935793 10.074445231237418
    vertex 427.43470531816484 342.57531159689165 16.740624300202285
    vertex 434.10088440675213 342.5753115928605 10.07444523242354
  endloop
endfacet
facet normal -5.950987116282169e-10 1.0 7.102102309031189e-10
  outer loop
    vertex 426.6008842707823 345.575311314376 11.299999978208744
    vertex 431.6008844746154 345.5753113370364 10.300000047032832
    vertex 425.60088434363547 345.5753113370364 10.300000037734929
  endloop
endfacet
facet normal -5.950987116282169e-10 1.0 7.102102309031189e-10
  outer loop
    vertex 431.6008844746154 345.5753113370364 10.300000047032832
    vertex 432.60088441301536 345.5753113293579 10.074445231237418
    vertex 432.6008844105222 345.5753113507642 9.300000115856907
  endloop
endfacet
facet normal -5.950987116282169e-10 1.0 7.102102309031189e-10
  outer loop
    vertex 432.60088441301536 345.5753113293579 10.074445231237418
    vertex 431.6008844746154 345.5753113370364 10.300000047032832
    vertex 434.10088440716237 345.57531132935793 10.074445231237418
  endloop
endfacet
facet normal -5.950987116282169e-10 1.0 7.102102309031189e-10
  outer loop
    vertex 434.10088440716237 345.57531132935793 10.074445231237418
    vertex 431.6008844746154 345.5753113370364 10.300000047032832
    vertex 426.6008842687835 345.5753113294815 17.574445346980955
  endloop
endfacet
facet normal -5.950987116282169e-10 1.0 7.102102309031189e-10
  outer loop
    vertex 426.6008842687835 345.5753113294815 17.574445346980955
    vertex 431.6008844746154 345.5753113370364 10.300000047032832
    vertex 426.6008842707823 345.575311314376 11.299999978208744
  endloop
endfacet
facet normal -1.0 -3.431541786835801e-10 3.0239992732106202e-09
  outer loop
    vertex 432.60088441301536 349.58475714577133 7.800089317983862
    vertex 432.6008844105222 345.5753113507642 9.300000115856907
    vertex 432.60088441301536 345.5753113293579 10.074445231237418
  endloop
endfacet
facet normal -1.0 -3.431541786835801e-10 3.0239992732106202e-09
  outer loop
    vertex 432.60088441475693 361.2124522032607 10.074445230651666
    vertex 432.60088441475693 361.21245220318656 9.300000085406966
    vertex 432.6008844131584 357.2218980194764 7.800089317216504
  endloop
endfacet
facet normal -1.0 -3.431541786835801e-10 3.0239992732106202e-09
  outer loop
    vertex 432.6008844105222 345.5753113507642 9.300000115856907
    vertex 432.6008844137978 342.5753115929841 5.4000000229261875
    vertex 432.6008844137978 342.5753115929841 9.300000086971473
  endloop
endfacet
facet normal -1.0 -3.431541786835801e-10 3.0239992732106202e-09
  outer loop
    vertex 432.6008844137978 342.5753115929841 5.4000000229261875
    vertex 432.6008844105222 345.5753113507642 9.300000115856907
    vertex 432.60088441301536 349.58475714577133 7.800089317983862
  endloop
endfacet
facet normal -1.0 -3.431541786835801e-10 3.0239992732106202e-09
  outer loop
    vertex 432.6008844137978 342.5753115929841 5.4000000229261875
    vertex 432.60088441301536 349.58475714577133 7.800089317983862
    vertex 432.60088439425124 368.5438817846483 5.400000022935775
  endloop
endfacet
facet normal -1.0 -3.431541786835801e-10 3.0239992732106202e-09
  outer loop
    vertex 432.60088439425124 368.5438817846483 5.400000022935775
    vertex 432.60088441301536 349.58475714577133 7.800089317983862
    vertex 432.6008844131584 357.2218980194764 7.800089317216504
  endloop
endfacet
facet normal -1.0 -3.431541786835801e-10 3.0239992732106202e-09
  outer loop
    vertex 432.60088439425124 368.5438817846483 5.400000022935775
    vertex 432.6008844131584 357.2218980194764 7.800089317216504
    vertex 432.60088441475693 361.21245220318656 9.300000085406966
  endloop
endfacet
facet normal -1.0 -3.431541786835801e-10 3.0239992732106202e-09
  outer loop
    vertex 432.60088439425124 368.5438817846483 5.400000022935775
    vertex 432.60088441475693 361.21245220318656 9.300000085406966
    vertex 432.60088441475693 367.36786412271107 9.300000085406971
  endloop
endfacet
facet normal -1.0 -3.431541786835801e-10 3.0239992732106202e-09
  outer loop
    vertex 432.60088439425124 368.5438817846483 5.400000022935775
    vertex 432.60088441475693 367.36786412271107 9.300000085406971
    vertex 432.60088439425135 370.39388178713654 5.400000198656675
  endloop
endfacet
facet normal -1.0 -3.431541786835801e-10 3.0239992732106202e-09
  outer loop
    vertex 432.60088439425124 368.5438817846483 5.400000022935775
    vertex 432.60088439425135 370.39388178713654 5.400000198656675
    vertex 432.600884391455 370.3938817838652 4.800000084837391
  endloop
endfacet
facet normal -1.0 -3.431541786835801e-10 3.0239992732106202e-09
  outer loop
    vertex 432.600884391455 370.3938817838652 4.800000084837391
    vertex 432.600884391455 368.5438817846368 4.800000086981074
    vertex 432.60088439425124 368.5438817846483 5.400000022935775
  endloop
endfacet
facet normal 0.7071067812292594 -4.039404574718297e-11 0.7071067811438358
  outer loop
    vertex 434.1008844081246 361.2124522032607 10.074445230651655
    vertex 430.3543509393531 363.86002782216417 13.820978700172107
    vertex 426.9420957114008 361.21245220318656 17.23323392798278
  endloop
endfacet
facet normal 0.7071067812292594 -4.039404574718297e-11 0.7071067811438358
  outer loop
    vertex 430.3543509393531 363.86002782216417 13.820978700172107
    vertex 434.1008844081246 361.2124522032607 10.074445230651655
    vertex 434.1008844081246 366.76697059308526 10.074445230651666
  endloop
endfacet
facet normal 0.6130167916428234 -0.7900698786588054 1.279203409865204e-10
  outer loop
    vertex 426.9420957114008 361.2124522031866 11.641211393058832
    vertex 426.6008842799762 360.9477055752064 17.57444535969966
    vertex 426.6008842823256 360.9477055752064 11.299999972863024
  endloop
endfacet
facet normal 0.6130167916428234 -0.7900698786588054 1.279203409865204e-10
  outer loop
    vertex 426.6008842799762 360.9477055752064 17.57444535969966
    vertex 426.9420957114008 361.2124522031866 11.641211393058832
    vertex 426.9420957114008 361.21245220318656 17.23323392798278
  endloop
endfacet
facet normal 6.938893903907228e-18 1.0 0.0
  outer loop
    vertex 424.10088429037967 346.84388180311515 16.309194686047938
    vertex 424.10088429037535 346.84388180311515 11.809194512210098
    vertex 419.60088412486107 346.84388180311515 11.809194512210098
  endloop
endfacet
facet normal -4.214871646146533e-10 0.7900698795522808 0.6130167904912918
  outer loop
    vertex 419.6008841238881 361.88544091311667 16.36587086269084
    vertex 421.6008844105175 370.3938817867766 5.40000019865668
    vertex 419.6008841238881 370.3938817867766 5.400000198656675
  endloop
endfacet
facet normal -4.214871646146533e-10 0.7900698795522808 0.6130167904912918
  outer loop
    vertex 421.6008844105175 370.3938817867766 5.40000019865668
    vertex 419.6008841238881 361.88544091311667 16.36587086269084
    vertex 421.6008843108495 369.695570161542 6.29999998380584
  endloop
endfacet
facet normal -4.214871646146533e-10 0.7900698795522808 0.6130167904912918
  outer loop
    vertex 421.6008843108495 369.695570161542 6.29999998380584
    vertex 419.6008841238881 361.88544091311667 16.36587086269084
    vertex 426.6008842880688 365.8160602290854 11.29999997030109
  endloop
endfacet
facet normal -4.214871646146533e-10 0.7900698795522808 0.6130167904912918
  outer loop
    vertex 426.6008842880688 365.8160602290854 11.29999997030109
    vertex 419.6008841238881 361.88544091311667 16.36587086269084
    vertex 430.60088452921934 365.8160602305882 11.299999971467118
  endloop
endfacet
facet normal -4.214871646146533e-10 0.7900698795522808 0.6130167904912918
  outer loop
    vertex 430.60088452921934 365.8160602305882 11.299999971467118
    vertex 419.6008841238881 361.88544091311667 16.36587086269084
    vertex 430.3543509393531 363.86002782216417 13.820978700172107
  endloop
endfacet
facet normal -4.214871646146533e-10 0.7900698795522808 0.6130167904912918
  outer loop
    vertex 430.3543509393531 363.86002782216417 13.820978700172107
    vertex 419.6008841238881 361.88544091311667 16.36587086269084
    vertex 426.9420957114008 361.21245220318656 17.23323392798278
  endloop
endfacet
facet normal -4.214871646146533e-10 0.7900698795522808 0.6130167904912918
  outer loop
    vertex 426.9420957114008 361.21245220318656 17.23323392798278
    vertex 419.6008841238881 361.88544091311667 16.36587086269084
    vertex 426.6008842799762 360.9477055752064 17.57444535969966
  endloop
endfacet
facet normal -4.214871646146533e-10 0.7900698795522808 0.6130167904912918
  outer loop
    vertex 426.6008842799762 360.9477055752064 17.57444535969966
    vertex 419.6008841238881 361.88544091311667 16.36587086269084
    vertex 424.1008842887037 358.3938817945899 20.865871115842133
  endloop
endfacet
facet normal -4.214871646146533e-10 0.7900698795522808 0.6130167904912918
  outer loop
    vertex 426.6008842799762 360.9477055752064 17.57444535969966
    vertex 424.1008842887037 358.3938817945899 20.865871115842133
    vertex 426.60088426953007 357.4679797979513 22.05919451221009
  endloop
endfacet
facet normal -4.214871646146533e-10 0.7900698795522808 0.6130167904912918
  outer loop
    vertex 426.60088426953007 357.4679797979513 22.05919451221009
    vertex 424.1008842887037 358.3938817945899 20.865871115842133
    vertex 424.1008842876683 357.4679797985805 22.059194511107066
  endloop
endfacet
facet normal -4.214871646146533e-10 0.7900698795522808 0.6130167904912918
  outer loop
    vertex 432.60088439425135 370.39388178713654 5.400000198656675
    vertex 434.1008844081246 366.76697059308526 10.074445230651666
    vertex 434.10088439923715 370.39388179079947 5.400000197458019
  endloop
endfacet
facet normal -4.214871646146533e-10 0.7900698795522808 0.6130167904912918
  outer loop
    vertex 434.1008844081246 366.76697059308526 10.074445230651666
    vertex 432.60088439425135 370.39388178713654 5.400000198656675
    vertex 432.60088441475693 367.36786412271107 9.300000085406971
  endloop
endfacet
facet normal -4.214871646146533e-10 0.7900698795522808 0.6130167904912918
  outer loop
    vertex 434.1008844081246 366.76697059308526 10.074445230651666
    vertex 432.60088441475693 367.36786412271107 9.300000085406971
    vertex 430.60088452921934 365.8160602305882 11.299999971467118
  endloop
endfacet
facet normal -4.214871646146533e-10 0.7900698795522808 0.6130167904912918
  outer loop
    vertex 434.1008844081246 366.76697059308526 10.074445230651666
    vertex 430.60088452921934 365.8160602305882 11.299999971467118
    vertex 430.3543509393531 363.86002782216417 13.820978700172107
  endloop
endfacet
facet normal 1.0 7.145979814826564e-10 -5.300380995221232e-09
  outer loop
    vertex 426.6008842707823 345.575311314376 11.299999978208744
    vertex 426.6008842903801 351.5188817664911 13.46159925963827
    vertex 426.6008842687835 345.5753113294815 17.574445346980955
  endloop
endfacet
facet normal 1.0 7.145979814826564e-10 -5.300380995221232e-09
  outer loop
    vertex 426.6008842903801 351.5188817664911 13.46159925963827
    vertex 426.6008842707823 345.575311314376 11.299999978208744
    vertex 426.600884290383 352.4233103473566 13.086972675245834
  endloop
endfacet
facet normal 1.0 7.145979814826564e-10 -5.300380995221232e-09
  outer loop
    vertex 426.600884290383 352.4233103473566 13.086972675245834
    vertex 426.6008842707823 345.575311314376 11.299999978208744
    vertex 426.6008842823256 360.9477055752064 11.299999972863024
  endloop
endfacet
facet normal 1.0 7.145979814826564e-10 -5.300380995221232e-09
  outer loop
    vertex 426.6008842687835 345.5753113294815 17.574445346980955
    vertex 426.6008842903801 351.5188817664911 13.46159925963827
    vertex 426.60088429037603 350.7422313370415 14.057544094380404
  endloop
endfacet
facet normal 1.0 7.145979814826564e-10 -5.300380995221232e-09
  outer loop
    vertex 426.6008842687835 345.5753113294815 17.574445346980955
    vertex 426.60088429037603 350.7422313370415 14.057544094380404
    vertex 426.6008842903709 350.1462865022995 14.834194523829927
  endloop
endfacet
facet normal 1.0 7.145979814826564e-10 -5.300380995221232e-09
  outer loop
    vertex 426.6008842687835 345.5753113294815 17.574445346980955
    vertex 426.6008842903709 350.1462865022995 14.834194523829927
    vertex 426.6008842903645 349.7716599179071 15.738623104695325
  endloop
endfacet
facet normal 1.0 7.145979814826564e-10 -5.300380995221232e-09
  outer loop
    vertex 426.6008842687835 345.5753113294815 17.574445346980955
    vertex 426.6008842903645 349.7716599179071 15.738623104695325
    vertex 426.6008844106426 347.8938823249768 22.05919406967347
  endloop
endfacet
facet normal 1.0 7.145979814826564e-10 -5.300380995221232e-09
  outer loop
    vertex 426.6008844106426 347.8938823249768 22.05919406967347
    vertex 426.6008842903645 349.7716599179071 15.738623104695325
    vertex 426.6008842903577 349.64388176649106 16.709194523829918
  endloop
endfacet
facet normal 1.0 7.145979814826564e-10 -5.300380995221232e-09
  outer loop
    vertex 426.600884290383 352.4233103473566 13.086972675245834
    vertex 426.6008842823256 360.9477055752064 11.299999972863024
    vertex 426.6008842903839 353.3938817664911 12.95919452382992
  endloop
endfacet
facet normal 1.0 7.145979814826564e-10 -5.300380995221232e-09
  outer loop
    vertex 426.6008842903839 353.3938817664911 12.95919452382992
    vertex 426.6008842823256 360.9477055752064 11.299999972863024
    vertex 426.6008842903828 354.36445318562556 13.086972675245946
  endloop
endfacet
facet normal 1.0 7.145979814826564e-10 -5.300380995221232e-09
  outer loop
    vertex 426.6008842903828 354.36445318562556 13.086972675245946
    vertex 426.6008842823256 360.9477055752064 11.299999972863024
    vertex 426.60088429038 355.26888176649106 13.461599259638389
  endloop
endfacet
facet normal 1.0 7.145979814826564e-10 -5.300380995221232e-09
  outer loop
    vertex 426.60088429038 355.26888176649106 13.461599259638389
    vertex 426.6008842823256 360.9477055752064 11.299999972863024
    vertex 426.60088429037614 356.0455321959406 14.057544094380432
  endloop
endfacet
facet normal 1.0 7.145979814826564e-10 -5.300380995221232e-09
  outer loop
    vertex 426.60088429037614 356.0455321959406 14.057544094380432
    vertex 426.6008842823256 360.9477055752064 11.299999972863024
    vertex 426.6008842903709 356.64147703068267 14.834194523830034
  endloop
endfacet
facet normal 1.0 7.145979814826564e-10 -5.300380995221232e-09
  outer loop
    vertex 426.6008842903709 356.64147703068267 14.834194523830034
    vertex 426.6008842823256 360.9477055752064 11.299999972863024
    vertex 426.6008842903645 357.0161036150751 15.73862310469555
  endloop
endfacet
facet normal 1.0 7.145979814826564e-10 -5.300380995221232e-09
  outer loop
    vertex 426.6008842903645 357.0161036150751 15.73862310469555
    vertex 426.6008842823256 360.9477055752064 11.299999972863024
    vertex 426.60088429035756 357.14388176649095 16.709194523830092
  endloop
endfacet
facet normal 1.0 7.145979814826564e-10 -5.300380995221232e-09
  outer loop
    vertex 426.60088429035756 357.14388176649095 16.709194523830092
    vertex 426.6008842823256 360.9477055752064 11.299999972863024
    vertex 426.60088426953007 357.4679797979513 22.05919451221009
  endloop
endfacet
facet normal 1.0 7.145979814826564e-10 -5.300380995221232e-09
  outer loop
    vertex 426.60088426953007 357.4679797979513 22.05919451221009
    vertex 426.6008842823256 360.9477055752064 11.299999972863024
    vertex 426.6008842799762 360.9477055752064 17.57444535969966
  endloop
endfacet
facet normal 1.0 7.145979814826564e-10 -5.300380995221232e-09
  outer loop
    vertex 426.6008844106426 347.8938823249768 22.05919406967347
    vertex 426.60088428873706 351.84058090759186 20.45919452382992
    vertex 426.60088426953007 357.4679797979513 22.05919451221009
  endloop
endfacet
facet normal 1.0 7.145979814826564e-10 -5.300380995221232e-09
  outer loop
    vertex 426.60088428873706 351.84058090759186 20.45919452382992
    vertex 426.6008844106426 347.8938823249768 22.05919406967347
    vertex 426.60088429033897 350.7422313370414 19.36084495327943
  endloop
endfacet
facet normal 1.0 7.145979814826564e-10 -5.300380995221232e-09
  outer loop
    vertex 426.60088429033897 350.7422313370414 19.36084495327943
    vertex 426.6008844106426 347.8938823249768 22.05919406967347
    vertex 426.6008842903445 350.14628650229935 18.584194523829847
  endloop
endfacet
facet normal 1.0 7.145979814826564e-10 -5.300380995221232e-09
  outer loop
    vertex 426.6008842903445 350.14628650229935 18.584194523829847
    vertex 426.6008844106426 347.8938823249768 22.05919406967347
    vertex 426.6008842903508 349.771659917907 17.67976594296435
  endloop
endfacet
facet normal 1.0 7.145979814826564e-10 -5.300380995221232e-09
  outer loop
    vertex 426.6008842903508 349.771659917907 17.67976594296435
    vertex 426.6008844106426 347.8938823249768 22.05919406967347
    vertex 426.6008842903577 349.64388176649106 16.709194523829918
  endloop
endfacet
facet normal 1.0 7.145979814826564e-10 -5.300380995221232e-09
  outer loop
    vertex 426.60088426953007 357.4679797979513 22.05919451221009
    vertex 426.60088428873706 351.84058090759186 20.45919452382992
    vertex 426.60088428872467 354.9471826253901 20.45919452382991
  endloop
endfacet
facet normal 1.0 7.145979814826564e-10 -5.300380995221232e-09
  outer loop
    vertex 426.60088426953007 357.4679797979513 22.05919451221009
    vertex 426.60088428872467 354.9471826253901 20.45919452382991
    vertex 426.60088429033897 356.04553219594055 19.3608449532795
  endloop
endfacet
facet normal 1.0 7.145979814826564e-10 -5.300380995221232e-09
  outer loop
    vertex 426.60088426953007 357.4679797979513 22.05919451221009
    vertex 426.60088429033897 356.04553219594055 19.3608449532795
    vertex 426.6008842903445 356.64147703068255 18.58419452383
  endloop
endfacet
facet normal 1.0 7.145979814826564e-10 -5.300380995221232e-09
  outer loop
    vertex 426.60088426953007 357.4679797979513 22.05919451221009
    vertex 426.6008842903445 356.64147703068255 18.58419452383
    vertex 426.6008842903508 357.016103615075 17.679765942964504
  endloop
endfacet
facet normal 1.0 7.145979814826564e-10 -5.300380995221232e-09
  outer loop
    vertex 426.60088426953007 357.4679797979513 22.05919451221009
    vertex 426.6008842903508 357.016103615075 17.679765942964504
    vertex 426.60088429035756 357.14388176649095 16.709194523830092
  endloop
endfacet
facet normal 1.0 7.145979814826564e-10 -5.300380995221232e-09
  outer loop
    vertex 426.6008844106426 347.8938823249768 22.05919406967347
    vertex 426.60088426871255 343.40913264572873 17.574445346980955
    vertex 426.6008842687835 345.5753113294815 17.574445346980955
  endloop
endfacet
facet normal 5.856367699119679e-08 -1.2262943743790441e-08 0.9999999999999982
  outer loop
    vertex 424.1008843491816 347.89388178501065 22.059194511107066
    vertex 426.60088426953007 357.4679797979513 22.05919451221009
    vertex 424.1008842876683 357.4679797985805 22.059194511107066
  endloop
endfacet
facet normal 5.856367699119679e-08 -1.2262943743790441e-08 0.9999999999999982
  outer loop
    vertex 426.60088426953007 357.4679797979513 22.05919451221009
    vertex 424.1008843491816 347.89388178501065 22.059194511107066
    vertex 426.6008844106426 347.8938823249768 22.05919406967347
  endloop
endfacet
facet normal 7.18109579023185e-08 -0.7071067549002825 0.7071068074728079
  outer loop
    vertex 424.1008842894024 342.5753116027273 16.740624300202278
    vertex 426.60088426871255 343.40913264572873 17.574445346980955
    vertex 424.1008843491816 347.89388178501065 22.059194511107066
  endloop
endfacet
facet normal 7.18109579023185e-08 -0.7071067549002825 0.7071068074728079
  outer loop
    vertex 426.60088426871255 343.40913264572873 17.574445346980955
    vertex 424.1008842894024 342.5753116027273 16.740624300202278
    vertex 427.43470531816484 342.57531159689165 16.740624300202285
  endloop
endfacet
facet normal 7.18109579023185e-08 -0.7071067549002825 0.7071068074728079
  outer loop
    vertex 426.6008844106426 347.8938823249768 22.05919406967347
    vertex 424.1008843491816 347.89388178501065 22.059194511107066
    vertex 426.60088426871255 343.40913264572873 17.574445346980955
  endloop
endfacet
facet normal 7.12959691284709e-11 -3.7915390965759233e-10 -1.0
  outer loop
    vertex 426.6008842880689 364.8160602855482 10.300000026763872
    vertex 425.60088434363547 361.2124522031865 10.30000002843706
    vertex 425.60088434363547 364.81606028554825 10.300000026581042
  endloop
endfacet
facet normal 7.12959691284709e-11 -3.7915390965759233e-10 -1.0
  outer loop
    vertex 425.60088434363547 361.2124522031865 10.30000002843706
    vertex 426.6008842880689 364.8160602855482 10.300000026763872
    vertex 431.60088447198814 361.2124522031865 10.300000028437047
  endloop
endfacet
facet normal 7.12959691284709e-11 -3.7915390965759233e-10 -1.0
  outer loop
    vertex 431.60088447198814 361.2124522031865 10.300000028437047
    vertex 426.6008842880689 364.8160602855482 10.300000026763872
    vertex 431.60088447198814 364.8160602855483 10.300000027600454
  endloop
endfacet
facet normal 0.7071067802758104 -7.960690856512187e-10 -0.7071067820972848
  outer loop
    vertex 421.60088423813045 342.575311689654 6.29999998380584
    vertex 425.60088434363547 343.5753115533972 10.300000031861874
    vertex 426.60088427872296 342.57531160786914 11.299999977715505
  endloop
endfacet
facet normal 0.7071067802758104 -7.960690856512187e-10 -0.7071067820972848
  outer loop
    vertex 425.60088434363547 343.5753115533972 10.300000031861874
    vertex 421.60088423813045 342.575311689654 6.29999998380584
    vertex 421.60088430211454 358.8938817664862 6.299999983805835
  endloop
endfacet
facet normal 0.7071067802758104 -7.960690856512187e-10 -0.7071067820972848
  outer loop
    vertex 425.60088434363547 343.5753115533972 10.300000031861874
    vertex 421.60088430211454 358.8938817664862 6.299999983805835
    vertex 421.6008843108495 369.695570161542 6.29999998380584
  endloop
endfacet
facet normal 0.7071067802758104 -7.960690856512187e-10 -0.7071067820972848
  outer loop
    vertex 421.6008843108495 369.695570161542 6.29999998380584
    vertex 425.60088434363547 364.81606028554825 10.300000026581042
    vertex 425.60088434363547 343.5753115533972 10.300000031861874
  endloop
endfacet
facet normal 0.7071067802758104 -7.960690856512187e-10 -0.7071067820972848
  outer loop
    vertex 425.60088434363547 364.81606028554825 10.300000026581042
    vertex 421.6008843108495 369.695570161542 6.29999998380584
    vertex 426.6008842880688 365.8160602290854 11.29999997030109
  endloop
endfacet
facet normal 0.7071067802758104 -7.960690856512187e-10 -0.7071067820972848
  outer loop
    vertex 425.60088434363547 364.81606028554825 10.300000026581042
    vertex 425.60088434363547 345.5753113370364 10.300000037734929
    vertex 425.60088434363547 343.5753115533972 10.300000031861874
  endloop
endfacet
facet normal 0.7071067802758104 -7.960690856512187e-10 -0.7071067820972848
  outer loop
    vertex 425.60088434363547 345.5753113370364 10.300000037734929
    vertex 425.60088434363547 364.81606028554825 10.300000026581042
    vertex 425.60088434363547 361.2124522031865 10.30000002843706
  endloop
endfacet
facet normal 0.7071067802758104 -7.960690856512187e-10 -0.7071067820972848
  outer loop
    vertex 425.60088434363547 345.5753113370364 10.300000037734929
    vertex 425.60088434363547 361.2124522031865 10.30000002843706
    vertex 426.6008842823256 360.9477055752064 11.299999972863024
  endloop
endfacet
facet normal 0.7071067802758104 -7.960690856512187e-10 -0.7071067820972848
  outer loop
    vertex 426.6008842823256 360.9477055752064 11.299999972863024
    vertex 425.60088434363547 361.2124522031865 10.30000002843706
    vertex 426.9420957114008 361.2124522031866 11.641211393058832
  endloop
endfacet
facet normal 0.7071067802758104 -7.960690856512187e-10 -0.7071067820972848
  outer loop
    vertex 425.60088434363547 345.5753113370364 10.300000037734929
    vertex 426.6008842823256 360.9477055752064 11.299999972863024
    vertex 426.6008842707823 345.575311314376 11.299999978208744
  endloop
endfacet
facet normal 6.957513731808973e-11 0.7071067810267976 -0.7071067813462977
  outer loop
    vertex 426.6008842880688 365.8160602290854 11.29999997030109
    vertex 426.6008842880689 364.8160602855482 10.300000026763872
    vertex 425.60088434363547 364.81606028554825 10.300000026581042
  endloop
endfacet
facet normal 6.957513731808973e-11 0.7071067810267976 -0.7071067813462977
  outer loop
    vertex 426.6008842880689 364.8160602855482 10.300000026763872
    vertex 426.6008842880688 365.8160602290854 11.29999997030109
    vertex 430.60088452921934 365.8160602305882 11.299999971467118
  endloop
endfacet
facet normal 6.957513731808973e-11 0.7071067810267976 -0.7071067813462977
  outer loop
    vertex 426.6008842880689 364.8160602855482 10.300000026763872
    vertex 430.60088452921934 365.8160602305882 11.299999971467118
    vertex 431.60088447198814 364.8160602855483 10.300000027600454
  endloop
endfacet
facet normal 9.8059144137963e-10 4.404580519756784e-09 -1.0
  outer loop
    vertex 425.60088434363547 345.5753113370364 10.300000037734929
    vertex 426.60088427872296 343.5753115533972 10.300000032187423
    vertex 425.60088434363547 343.5753115533972 10.300000031861874
  endloop
endfacet
facet normal 9.8059144137963e-10 4.404580519756784e-09 -1.0
  outer loop
    vertex 426.60088427872296 343.5753115533972 10.300000032187423
    vertex 425.60088434363547 345.5753113370364 10.300000037734929
    vertex 431.6008844746154 345.5753113370364 10.300000047032832
  endloop
endfacet
facet normal 9.8059144137963e-10 4.404580519756784e-09 -1.0
  outer loop
    vertex 426.60088427872296 343.5753115533972 10.300000032187423
    vertex 431.6008844746154 345.5753113370364 10.300000047032832
    vertex 431.60088447835415 343.5753115533973 10.300000034713683
  endloop
endfacet
facet normal 6.878917713226684e-10 -0.7071067822769471 -0.7071067800961479
  outer loop
    vertex 426.60088427872296 343.5753115533972 10.300000032187423
    vertex 426.60088427872296 342.57531160786914 11.299999977715505
    vertex 425.60088434363547 343.5753115533972 10.300000031861874
  endloop
endfacet
facet normal 6.878917713226684e-10 -0.7071067822769471 -0.7071067800961479
  outer loop
    vertex 426.60088427872296 342.57531160786914 11.299999977715505
    vertex 426.60088427872296 343.5753115533972 10.300000032187423
    vertex 431.60088447835415 343.5753115533973 10.300000034713683
  endloop
endfacet
facet normal 6.878917713226684e-10 -0.7071067822769471 -0.7071067800961479
  outer loop
    vertex 426.60088427872296 342.57531160786914 11.299999977715505
    vertex 431.60088447835415 343.5753115533973 10.300000034713683
    vertex 430.6008845466492 342.57531161680174 11.29999997771551
  endloop
endfacet
facet normal -1.0 -7.832758365522441e-10 2.4626249095494046e-09
  outer loop
    vertex 424.1008843491816 347.89388178501065 22.059194511107066
    vertex 424.10088429039394 349.7716599178686 17.67976594300341
    vertex 424.1008842904011 349.64388176645264 16.70919452386907
  endloop
endfacet
facet normal -1.0 -7.832758365522441e-10 2.4626249095494046e-09
  outer loop
    vertex 424.10088429039394 349.7716599178686 17.67976594300341
    vertex 424.1008843491816 347.89388178501065 22.059194511107066
    vertex 424.1008842903876 350.146286502261 18.58419452386905
  endloop
endfacet
facet normal -1.0 -7.832758365522441e-10 2.4626249095494046e-09
  outer loop
    vertex 424.1008842903876 350.146286502261 18.58419452386905
    vertex 424.1008843491816 347.89388178501065 22.059194511107066
    vertex 424.1008842903825 350.742231337003 19.36084495331864
  endloop
endfacet
facet normal -1.0 -7.832758365522441e-10 2.4626249095494046e-09
  outer loop
    vertex 424.1008842903825 350.742231337003 19.36084495331864
    vertex 424.1008843491816 347.89388178501065 22.059194511107066
    vertex 424.10088428918215 351.8405809099779 20.459194518052442
  endloop
endfacet
facet normal -1.0 -7.832758365522441e-10 2.4626249095494046e-09
  outer loop
    vertex 424.10088428918215 351.8405809099779 20.459194518052442
    vertex 424.1008843491816 347.89388178501065 22.059194511107066
    vertex 424.1008842876683 357.4679797985805 22.059194511107066
  endloop
endfacet
facet normal -1.0 -7.832758365522441e-10 2.4626249095494046e-09
  outer loop
    vertex 424.10088428918215 351.8405809099779 20.459194518052442
    vertex 424.1008842876683 357.4679797985805 22.059194511107066
    vertex 424.1008842891728 354.9471826229855 20.459194518007934
  endloop
endfacet
facet normal -1.0 -7.832758365522441e-10 2.4626249095494046e-09
  outer loop
    vertex 424.1008842891728 354.9471826229855 20.459194518007934
    vertex 424.1008842876683 357.4679797985805 22.059194511107066
    vertex 424.10088429038257 356.045532195902 19.36084495331876
  endloop
endfacet
facet normal -1.0 -7.832758365522441e-10 2.4626249095494046e-09
  outer loop
    vertex 424.10088429038257 356.045532195902 19.36084495331876
    vertex 424.1008842876683 357.4679797985805 22.059194511107066
    vertex 424.1008842903875 356.6414770306441 18.58419452386918
  endloop
endfacet
facet normal -1.0 -7.832758365522441e-10 2.4626249095494046e-09
  outer loop
    vertex 424.1008842903875 356.6414770306441 18.58419452386918
    vertex 424.1008842876683 357.4679797985805 22.059194511107066
    vertex 424.1008842903939 357.01610361503657 17.67976594300362
  endloop
endfacet
facet normal -1.0 -7.832758365522441e-10 2.4626249095494046e-09
  outer loop
    vertex 424.1008842903939 357.01610361503657 17.67976594300362
    vertex 424.1008842876683 357.4679797985805 22.059194511107066
    vertex 424.100884290401 357.1438817664526 16.709194523869275
  endloop
endfacet
facet normal -1.0 -7.832758365522441e-10 2.4626249095494046e-09
  outer loop
    vertex 424.1008843491816 347.89388178501065 22.059194511107066
    vertex 424.10088429037535 342.5753116027273 16.309194686047938
    vertex 424.1008842894024 342.5753116027273 16.740624300202278
  endloop
endfacet
facet normal -1.0 -7.832758365522441e-10 2.4626249095494046e-09
  outer loop
    vertex 424.10088429037535 342.5753116027273 16.309194686047938
    vertex 424.1008843491816 347.89388178501065 22.059194511107066
    vertex 424.10088429037967 346.84388180311515 16.309194686047938
  endloop
endfacet
facet normal -1.0 -7.832758365522441e-10 2.4626249095494046e-09
  outer loop
    vertex 424.10088429037967 346.84388180311515 16.309194686047938
    vertex 424.1008843491816 347.89388178501065 22.059194511107066
    vertex 424.10088429037535 346.84388180311515 11.809194512210098
  endloop
endfacet
facet normal -1.0 -7.832758365522441e-10 2.4626249095494046e-09
  outer loop
    vertex 424.10088429037535 346.84388180311515 11.809194512210098
    vertex 424.1008843491816 347.89388178501065 22.059194511107066
    vertex 424.10088429040786 349.7716599178686 15.738623104734597
  endloop
endfacet
facet normal -1.0 -7.832758365522441e-10 2.4626249095494046e-09
  outer loop
    vertex 424.10088429037535 346.84388180311515 11.809194512210098
    vertex 424.10088429040786 349.7716599178686 15.738623104734597
    vertex 424.1008842904142 350.14628650226103 14.83419452386908
  endloop
endfacet
facet normal -1.0 -7.832758365522441e-10 2.4626249095494046e-09
  outer loop
    vertex 424.10088429037535 346.84388180311515 11.809194512210098
    vertex 424.1008842904142 350.14628650226103 14.83419452386908
    vertex 424.1008842904196 350.7422313370031 14.057544094419557
  endloop
endfacet
facet normal -1.0 -7.832758365522441e-10 2.4626249095494046e-09
  outer loop
    vertex 424.10088429037535 346.84388180311515 11.809194512210098
    vertex 424.1008842904196 350.7422313370031 14.057544094419557
    vertex 424.1008842904239 351.51888176645264 13.461599259677456
  endloop
endfacet
facet normal -1.0 -7.832758365522441e-10 2.4626249095494046e-09
  outer loop
    vertex 424.10088429037535 346.84388180311515 11.809194512210098
    vertex 424.1008842904239 351.51888176645264 13.461599259677456
    vertex 424.1008842904262 352.4233103473182 13.086972675285205
  endloop
endfacet
facet normal -1.0 -7.832758365522441e-10 2.4626249095494046e-09
  outer loop
    vertex 424.10088429037535 346.84388180311515 11.809194512210098
    vertex 424.1008842904262 352.4233103473182 13.086972675285205
    vertex 424.10088429037535 358.3938817945899 11.809194512210086
  endloop
endfacet
facet normal -1.0 -7.832758365522441e-10 2.4626249095494046e-09
  outer loop
    vertex 424.10088429040786 349.7716599178686 15.738623104734597
    vertex 424.1008843491816 347.89388178501065 22.059194511107066
    vertex 424.1008842903896 349.6965427441363 16.309194686047938
  endloop
endfacet
facet normal -1.0 -7.832758365522441e-10 2.4626249095494046e-09
  outer loop
    vertex 424.1008842903896 349.6965427441363 16.309194686047938
    vertex 424.1008843491816 347.89388178501065 22.059194511107066
    vertex 424.1008842904011 349.64388176645264 16.70919452386907
  endloop
endfacet
facet normal -1.0 -7.832758365522441e-10 2.4626249095494046e-09
  outer loop
    vertex 424.10088429037535 358.3938817945899 11.809194512210086
    vertex 424.1008842904262 352.4233103473182 13.086972675285205
    vertex 424.10088429042725 353.39388176645264 12.959194523869298
  endloop
endfacet
facet normal -1.0 -7.832758365522441e-10 2.4626249095494046e-09
  outer loop
    vertex 424.10088429037535 358.3938817945899 11.809194512210086
    vertex 424.10088429042725 353.39388176645264 12.959194523869298
    vertex 424.1008842904262 354.36445318558714 13.086972675285217
  endloop
endfacet
facet normal -1.0 -7.832758365522441e-10 2.4626249095494046e-09
  outer loop
    vertex 424.10088429037535 358.3938817945899 11.809194512210086
    vertex 424.1008842904262 354.36445318558714 13.086972675285217
    vertex 424.1008842904239 355.2688817664526 13.461599259677513
  endloop
endfacet
facet normal -1.0 -7.832758365522441e-10 2.4626249095494046e-09
  outer loop
    vertex 424.10088429037535 358.3938817945899 11.809194512210086
    vertex 424.1008842904239 355.2688817664526 13.461599259677513
    vertex 424.1008842904196 356.0455321959022 14.057544094419658
  endloop
endfacet
facet normal -1.0 -7.832758365522441e-10 2.4626249095494046e-09
  outer loop
    vertex 424.10088429037535 358.3938817945899 11.809194512210086
    vertex 424.1008842904196 356.0455321959022 14.057544094419658
    vertex 424.1008842904142 356.64147703064424 14.834194523869186
  endloop
endfacet
facet normal -1.0 -7.832758365522441e-10 2.4626249095494046e-09
  outer loop
    vertex 424.10088429037535 358.3938817945899 11.809194512210086
    vertex 424.1008842904142 356.64147703064424 14.834194523869186
    vertex 424.10088429040775 357.0161036150367 15.738623104734776
  endloop
endfacet
facet normal -1.0 -7.832758365522441e-10 2.4626249095494046e-09
  outer loop
    vertex 424.10088429037535 358.3938817945899 11.809194512210086
    vertex 424.10088429040775 357.0161036150367 15.738623104734776
    vertex 424.1008842903896 357.0912207887688 16.30919468604795
  endloop
endfacet
facet normal -1.0 -7.832758365522441e-10 2.4626249095494046e-09
  outer loop
    vertex 424.10088429037535 358.3938817945899 11.809194512210086
    vertex 424.1008842903896 357.0912207887688 16.30919468604795
    vertex 424.100884290401 357.1438817664526 16.709194523869275
  endloop
endfacet
facet normal -1.0 -7.832758365522441e-10 2.4626249095494046e-09
  outer loop
    vertex 424.10088429037535 358.3938817945899 11.809194512210086
    vertex 424.100884290401 357.1438817664526 16.709194523869275
    vertex 424.1008842876683 357.4679797985805 22.059194511107066
  endloop
endfacet
facet normal -1.0 -7.832758365522441e-10 2.4626249095494046e-09
  outer loop
    vertex 424.10088429037535 358.3938817945899 11.809194512210086
    vertex 424.1008842876683 357.4679797985805 22.059194511107066
    vertex 424.1008842887037 358.3938817945899 20.865871115842133
  endloop
endfacet
facet normal -0.7071067881268619 9.020562075079397e-17 0.7071067742462331
  outer loop
    vertex 419.6008841238881 361.88544091311667 16.36587086269084
    vertex 419.6008841238881 358.39388179458984 16.365870862690844
    vertex 424.1008842887037 358.3938817945899 20.865871115842133
  endloop
endfacet
facet normal -1.0 -2.18271564017547e-11 2.0817125800931535e-11
  outer loop
    vertex 419.6008841238881 361.88544091311667 16.36587086269084
    vertex 419.60088412486107 358.3938817945899 11.809194512210098
    vertex 419.6008841238881 358.39388179458984 16.365870862690844
  endloop
endfacet
facet normal -1.0 -2.18271564017547e-11 2.0817125800931535e-11
  outer loop
    vertex 419.60088412486107 346.84388180311515 11.809194512210098
    vertex 419.6008841238881 342.5753117192977 2.979514546197487e-09
    vertex 419.60088412486107 342.57531167724267 11.809194512210098
  endloop
endfacet
facet normal -1.0 -2.18271564017547e-11 2.0817125800931535e-11
  outer loop
    vertex 419.6008841238881 342.5753117192977 2.979514546197487e-09
    vertex 419.60088412486107 346.84388180311515 11.809194512210098
    vertex 419.6008841238881 370.39388178677655 8.888125457851004e-08
  endloop
endfacet
facet normal -1.0 -2.18271564017547e-11 2.0817125800931535e-11
  outer loop
    vertex 419.6008841238881 370.39388178677655 8.888125457851004e-08
    vertex 419.60088412486107 346.84388180311515 11.809194512210098
    vertex 419.60088412486107 358.3938817945899 11.809194512210098
  endloop
endfacet
facet normal -1.0 -2.18271564017547e-11 2.0817125800931535e-11
  outer loop
    vertex 419.6008841238881 370.39388178677655 8.888125457851004e-08
    vertex 419.60088412486107 358.3938817945899 11.809194512210098
    vertex 419.6008841238881 361.88544091311667 16.36587086269084
  endloop
endfacet
facet normal -1.0 -2.18271564017547e-11 2.0817125800931535e-11
  outer loop
    vertex 419.6008841238881 370.39388178677655 8.888125457851004e-08
    vertex 419.6008841238881 361.88544091311667 16.36587086269084
    vertex 419.6008841238881 370.3938817867766 5.400000198656675
  endloop
endfacet
facet normal -0.7071067818403343 3.5878244819542715e-13 0.7071067805327609
  outer loop
    vertex 424.10088429037967 346.84388180311515 16.309194686047938
    vertex 419.60088412486107 342.57531167724267 11.809194512210098
    vertex 424.10088429037535 342.5753116027273 16.309194686047938
  endloop
endfacet
facet normal -0.7071067818403343 3.5878244819542715e-13 0.7071067805327609
  outer loop
    vertex 419.60088412486107 342.57531167724267 11.809194512210098
    vertex 424.10088429037967 346.84388180311515 16.309194686047938
    vertex 419.60088412486107 346.84388180311515 11.809194512210098
  endloop
endfacet
facet normal -0.9950371902199351 0.09950371892153977 -2.4608093340816595e-13
  outer loop
    vertex 433.3008843928808 368.39388178677456 5.4000000500492344
    vertex 433.10088439308413 366.3938817867766 1.1624226137207927e-07
    vertex 433.1008843930827 366.3938817867746 5.400000050048456
  endloop
endfacet
facet normal -0.9950371902199351 0.09950371892153977 -2.4608093340816595e-13
  outer loop
    vertex 433.10088439308413 366.3938817867766 1.1624226137207927e-07
    vertex 433.3008843928808 368.39388178677456 5.4000000500492344
    vertex 433.3008843928823 368.39388178677655 1.1624303968282845e-07
  endloop
endfacet
facet normal -0.7071067887823781 -0.7071067735907169 5.621873938599363e-10
  outer loop
    vertex 433.10088440219334 368.5938817860557 5.400000022935775
    vertex 433.3008843928823 368.39388178677655 1.1624303968282845e-07
    vertex 433.3008843928808 368.39388178677456 5.4000000500492344
  endloop
endfacet
facet normal -0.7071067887823781 -0.7071067735907169 5.621873938599363e-10
  outer loop
    vertex 433.3008843928823 368.39388178677655 1.1624303968282845e-07
    vertex 433.10088440219334 368.5938817860557 5.400000022935775
    vertex 433.1008843928824 368.59388178677665 1.1624303968282845e-07
  endloop
endfacet
facet normal -5.899155311461789e-08 8.985181890186487e-09 -0.9999999999999982
  outer loop
    vertex 421.1008843933829 368.59388179954897 5.400000259777237
    vertex 421.1008843757477 366.59388180312766 5.400000257472101
    vertex 420.9008843757477 368.3938818031276 5.400000257472101
  endloop
endfacet
facet normal -5.899155311461789e-08 8.985181890186487e-09 -0.9999999999999982
  outer loop
    vertex 421.1008843757477 366.59388180312766 5.400000257472101
    vertex 421.6008841741463 342.57531169936806 5.40000001095116
    vertex 421.1008841586579 342.57531169936806 5.399999995104788
  endloop
endfacet
facet normal -5.899155311461789e-08 8.985181890186487e-09 -0.9999999999999982
  outer loop
    vertex 421.6008841741463 342.57531169936806 5.40000001095116
    vertex 421.1008843757477 366.59388180312766 5.400000257472101
    vertex 421.1008843933829 368.59388179954897 5.400000259777237
  endloop
endfacet
facet normal -5.899155311461789e-08 8.985181890186487e-09 -0.9999999999999982
  outer loop
    vertex 421.6008841741463 342.57531169936806 5.40000001095116
    vertex 421.1008843933829 368.59388179954897 5.400000259777237
    vertex 421.60088441051744 368.54388179463643 5.40000019865668
  endloop
endfacet
facet normal 0.7071067624361229 -0.7071067999369718 -1.3889262240329714e-09
  outer loop
    vertex 421.1008843933829 368.59388179954897 5.400000259777237
    vertex 420.9008843757477 368.3938818031276 2.676519807121025e-07
    vertex 421.10088437574774 368.5938818031276 2.676519807121025e-07
  endloop
endfacet
facet normal 0.7071067624361229 -0.7071067999369718 -1.3889262240329714e-09
  outer loop
    vertex 420.9008843757477 368.3938818031276 2.676519807121025e-07
    vertex 421.1008843933829 368.59388179954897 5.400000259777237
    vertex 420.9008843757477 368.3938818031276 5.400000257472101
  endloop
endfacet
facet normal 0.9938837346736186 0.11043152607484936 -2.775557561562892e-17
  outer loop
    vertex 420.9008843757477 368.3938818031276 2.676519807121025e-07
    vertex 421.1008843757477 366.59388180312766 5.400000257472101
    vertex 421.1008843757477 366.59388180312766 2.676519807121025e-07
  endloop
endfacet
facet normal 0.9938837346736186 0.11043152607484936 -2.775557561562892e-17
  outer loop
    vertex 421.1008843757477 366.59388180312766 5.400000257472101
    vertex 420.9008843757477 368.3938818031276 2.676519807121025e-07
    vertex 420.9008843757477 368.3938818031276 5.400000257472101
  endloop
endfacet
facet normal 1.0 1.4311871826544478e-10 -2.4582349766877347e-09
  outer loop
    vertex 434.10088438933303 342.5753115929619 1.1503479684371598e-07
    vertex 434.10088440716237 345.57531132935793 10.074445231237418
    vertex 434.10088440675213 342.5753115928605 10.07444523242354
  endloop
endfacet
facet normal 1.0 1.4311871826544478e-10 -2.4582349766877347e-09
  outer loop
    vertex 434.10088440716237 345.57531132935793 10.074445231237418
    vertex 434.10088438933303 342.5753115929619 1.1503479684371598e-07
    vertex 434.10088440746665 349.58475714584546 7.800089316785207
  endloop
endfacet
facet normal 1.0 1.4311871826544478e-10 -2.4582349766877347e-09
  outer loop
    vertex 434.10088440746665 349.58475714584546 7.800089316785207
    vertex 434.10088438933303 342.5753115929619 1.1503479684371598e-07
    vertex 434.1008843757478 370.3938818032017 8.768259962543823e-08
  endloop
endfacet
facet normal 1.0 1.4311871826544478e-10 -2.4582349766877347e-09
  outer loop
    vertex 434.10088440746665 349.58475714584546 7.800089316785207
    vertex 434.1008843757478 370.3938818032017 8.768259962543823e-08
    vertex 434.100884406093 357.2218980195505 7.800089316017854
  endloop
endfacet
facet normal 1.0 1.4311871826544478e-10 -2.4582349766877347e-09
  outer loop
    vertex 434.100884406093 357.2218980195505 7.800089316017854
    vertex 434.1008843757478 370.3938818032017 8.768259962543823e-08
    vertex 434.1008844081246 361.2124522032607 10.074445230651655
  endloop
endfacet
facet normal 1.0 1.4311871826544478e-10 -2.4582349766877347e-09
  outer loop
    vertex 434.1008844081246 361.2124522032607 10.074445230651655
    vertex 434.1008843757478 370.3938818032017 8.768259962543823e-08
    vertex 434.1008844081246 366.76697059308526 10.074445230651666
  endloop
endfacet
facet normal 1.0 1.4311871826544478e-10 -2.4582349766877347e-09
  outer loop
    vertex 434.1008844081246 366.76697059308526 10.074445230651666
    vertex 434.1008843757478 370.3938818032017 8.768259962543823e-08
    vertex 434.10088439923715 370.39388179079947 5.400000197458019
  endloop
endfacet
facet normal 3.353472499689758e-10 0.4933962186795023 0.8698046742762244
  outer loop
    vertex 434.10088440716237 345.57531132935793 10.074445231237418
    vertex 432.60088441301536 349.58475714577133 7.800089317983862
    vertex 432.60088441301536 345.5753113293579 10.074445231237418
  endloop
endfacet
facet normal 3.353472499689758e-10 0.4933962186795023 0.8698046742762244
  outer loop
    vertex 432.60088441301536 349.58475714577133 7.800089317983862
    vertex 434.10088440716237 345.57531132935793 10.074445231237418
    vertex 434.10088440746665 349.58475714584546 7.800089316785207
  endloop
endfacet
facet normal 3.593588482342368e-10 -0.495160323659851 0.8688016194005806
  outer loop
    vertex 434.100884406093 357.2218980195505 7.800089316017854
    vertex 432.60088441475693 361.2124522032607 10.074445230651666
    vertex 432.6008844131584 357.2218980194764 7.800089317216504
  endloop
endfacet
facet normal 3.593588482342368e-10 -0.495160323659851 0.8688016194005806
  outer loop
    vertex 432.60088441475693 361.2124522032607 10.074445230651666
    vertex 434.100884406093 357.2218980195505 7.800089316017854
    vertex 434.1008844081246 361.2124522032607 10.074445230651655
  endloop
endfacet
facet normal 1.143508426837414e-09 0.7071067798601691 -0.707106782512926
  outer loop
    vertex 426.60088428873706 351.84058090759186 20.45919452382992
    vertex 424.1008842903825 350.742231337003 19.36084495331864
    vertex 424.10088428918215 351.8405809099779 20.459194518052442
  endloop
endfacet
facet normal 1.143508426837414e-09 0.7071067798601691 -0.707106782512926
  outer loop
    vertex 424.1008842903825 350.742231337003 19.36084495331864
    vertex 426.60088428873706 351.84058090759186 20.45919452382992
    vertex 426.60088429033897 350.7422313370414 19.36084495327943
  endloop
endfacet
facet normal 1.1633005531086482e-09 -0.7071067798623564 -0.7071067825107389
  outer loop
    vertex 424.10088429038257 356.045532195902 19.36084495331876
    vertex 426.60088428872467 354.9471826253901 20.45919452382991
    vertex 424.1008842891728 354.9471826229855 20.459194518007934
  endloop
endfacet
facet normal 1.1633005531086482e-09 -0.7071067798623564 -0.7071067825107389
  outer loop
    vertex 426.60088428872467 354.9471826253901 20.45919452382991
    vertex 424.10088429038257 356.045532195902 19.36084495331876
    vertex 426.60088429033897 356.04553219594055 19.3608449532795
  endloop
endfacet
facet normal 1.5413685328091727e-09 -7.164296933481749e-12 -1.0
  outer loop
    vertex 426.60088428872467 354.9471826253901 20.45919452382991
    vertex 424.10088428918215 351.8405809099779 20.459194518052442
    vertex 424.1008842891728 354.9471826229855 20.459194518007934
  endloop
endfacet
facet normal 1.5413685328091727e-09 -7.164296933481749e-12 -1.0
  outer loop
    vertex 424.10088428918215 351.8405809099779 20.459194518052442
    vertex 426.60088428872467 354.9471826253901 20.45919452382991
    vertex 426.60088428873706 351.84058090759186 20.45919452382992
  endloop
endfacet
endsolid Bridge proto 1
